<svg xmlns="http://www.w3.org/2000/svg" xmlns:xlink="http://www.w3.org/1999/xlink" viewBox="0 0 1152 648"><defs><style>.cls-1{fill:none;}.cls-2{fill:#79e45e;}.cls-3{clip-path:url(#clip-path);}.cls-4{fill:#abff90;}.cls-5{fill:#fff;}</style><clipPath id="clip-path"><rect class="cls-1" width="1152" height="648"/></clipPath></defs><g id="Layer_1" data-name="Layer 1"><rect class="cls-2" width="1152" height="648"/></g><g id="Layer_4" data-name="Layer 4"><g class="cls-3"><polygon class="cls-4" points="1001.46 -97.28 105.98 228.64 105.98 785.83 1001.46 459.9 1001.46 -97.28"/><path d="M403.47,121.43V676.49L107,784.4V229.34L403.47,121.43m1-1.43L106,228.64V785.83L404.47,677.19V120Z"/><path class="cls-5" d="M1000.46-95.85V459.2L893.93,498c-27.49-.61-53.22-5.9-76.48-15.73a175.34,175.34,0,0,1-60.12-41.73C722.42,403.25,704,351.19,704,290S722.47,163,757.48,100.16a508,508,0,0,1,60.34-85.82,497.39,497.39,0,0,1,76.76-71.66l105.88-38.53m1-1.43L894.1-58.21C782.29,25.59,703,162.94,703,290S782.29,496.57,894.1,499l107.36-39.08V-97.28Z"/><polygon points="449.69 707.31 151.2 815.95 151.2 258.76 449.69 150.12 449.69 707.31"/><path class="cls-5" d="M1046.68-67.16V490L939.32,529.1c-111.81-2.41-191.13-82-191.13-209S827.51,55.71,939.32-28.09Z"/></g></g></svg>