<svg xmlns="http://www.w3.org/2000/svg" viewBox="0 0 1152 648"><defs><style>.cls-1{fill:#79e45e;}.cls-2{fill:none;stroke:#000;stroke-miterlimit:10;stroke-width:2px;}.cls-3{fill:#fff;}</style></defs><g id="Layer_4" data-name="Layer 4"><path class="cls-1" d="M0,648H679.78a754.58,754.58,0,0,0,0-648H0Z"/><path class="cls-2" d="M748.23,602.64a793.32,793.32,0,0,0,29.89-99.82A802.47,802.47,0,0,0,798.24,324a802.47,802.47,0,0,0-20.12-178.82,793.32,793.32,0,0,0-29.89-99.82h358.41V602.64Z"/><path class="cls-2" d="M45.36,602.64V45.36H650.55c37.82,88,57,181.6,57,278.64s-19.15,190.63-57,278.64Z"/><rect class="cls-1" x="752.88" y="301.29" width="45.43" height="45.43"/><circle cx="775.59" cy="324" r="22.71"/><rect class="cls-1" x="1106.57" width="45.43" height="45.43"/><circle cx="1129.29" cy="22.71" r="22.71"/><rect class="cls-1" x="1106.57" y="602.57" width="45.43" height="45.43"/><circle cx="1129.29" cy="625.29" r="22.71"/><rect class="cls-3" x="707.52" y="301.29" width="45.43" height="45.43"/><circle cx="730.23" cy="324" r="22.71"/><rect class="cls-3" width="45.43" height="45.43"/><circle cx="22.71" cy="22.71" r="22.71"/><rect class="cls-3" y="602.57" width="45.43" height="45.43"/><circle cx="22.71" cy="625.29" r="22.71"/></g></svg>