<svg xmlns="http://www.w3.org/2000/svg" viewBox="0 0 1152 648"><defs><style>.cls-1{fill:#79e45e;}.cls-2{fill:#fff;}</style></defs><g id="Layer_4" data-name="Layer 4"><rect class="cls-1" width="752.88" height="648" transform="translate(752.88 648) rotate(180)"/><path d="M706,47v554.1h-659V47H706m2-2h-663v558.1H708V45Z"/><path d="M1105.08,47v554.1H799.8V47h305.28m2-2H797.8v558.1h309.28V45Z"/><rect x="1107.08" width="45.43" height="45.43"/><circle class="cls-2" cx="1129.79" cy="22.71" r="22.71"/><rect x="752.88" width="45.43" height="45.43"/><circle class="cls-2" cx="775.59" cy="22.71" r="22.71"/><rect class="cls-2" x="707.45" width="45.43" height="45.43"/><circle cx="730.17" cy="22.71" r="22.71"/><rect class="cls-2" width="45.43" height="45.43"/><circle cx="22.71" cy="22.71" r="22.71"/><rect class="cls-2" y="602.57" width="45.43" height="45.43"/><circle cx="22.71" cy="625.29" r="22.71"/><rect class="cls-2" x="707.45" y="602.57" width="45.43" height="45.43"/><circle cx="730.17" cy="625.29" r="22.71"/><rect x="1106.57" y="602.57" width="45.43" height="45.43"/><circle class="cls-2" cx="1129.29" cy="625.29" r="22.71"/><rect x="752.88" y="602.57" width="45.43" height="45.43"/><circle class="cls-2" cx="775.59" cy="625.29" r="22.71"/></g></svg>