<svg xmlns="http://www.w3.org/2000/svg" viewBox="0 0 1152 648"><defs><style>.cls-1{fill:#79e45e;}.cls-2{fill:#abff90;}.cls-3{fill:#fff;}</style></defs><g id="Layer_1" data-name="Layer 1"><rect class="cls-1" y="-0.95" width="1152" height="648.95"/></g><g id="Layer_4" data-name="Layer 4"><rect class="cls-2" x="805.27" y="300.35" width="648.03" height="45.43" transform="translate(1452.35 -806.22) rotate(90)"/><rect class="cls-2" x="-301.3" y="300.35" width="648.03" height="45.43" transform="translate(345.78 300.35) rotate(90)"/><rect class="cls-2" y="-0.95" width="1151.99" height="45.43" transform="translate(1152 43.53) rotate(180)"/><rect class="cls-2" y="602.57" width="1151.99" height="45.43" transform="translate(1152 1250.57) rotate(180)"/><rect y="-0.95" width="45.43" height="45.43"/><circle class="cls-3" cx="22.71" cy="21.76" r="22.71"/><rect y="602.57" width="45.43" height="45.43"/><circle class="cls-3" cx="22.71" cy="625.29" r="22.71"/><rect x="1106.57" y="602.57" width="45.43" height="45.43"/><circle class="cls-3" cx="1129.29" cy="625.29" r="22.71"/><rect x="1106.57" y="-0.95" width="45.43" height="45.43"/><circle class="cls-3" cx="1129.29" cy="21.76" r="22.71"/><path d="M384.13,349.47a17,17,0,0,1-7.25-5.64,14.91,14.91,0,0,1-2.74-8.7H385.9a7.58,7.58,0,0,0,2.39,5.33,8.49,8.49,0,0,0,5.92,2,9.09,9.09,0,0,0,6-1.84,6,6,0,0,0,2.19-4.82,5.55,5.55,0,0,0-1.48-4,10.45,10.45,0,0,0-3.73-2.47,61.6,61.6,0,0,0-6.15-2,66.52,66.52,0,0,1-8.66-3.1,15.18,15.18,0,0,1-5.72-4.62,13.15,13.15,0,0,1-2.39-8.27,14.81,14.81,0,0,1,2.43-8.47,15.48,15.48,0,0,1,6.81-5.52,24.87,24.87,0,0,1,10-1.92q8.46,0,13.75,4.11A15.24,15.24,0,0,1,413.17,311H401.1a6.25,6.25,0,0,0-2.39-4.66,9,9,0,0,0-5.92-1.84,7.6,7.6,0,0,0-5.13,1.65,5.94,5.94,0,0,0-1.92,4.78,4.93,4.93,0,0,0,1.45,3.64,11.07,11.07,0,0,0,3.6,2.35c1.44.6,3.47,1.3,6.08,2.08a65.59,65.59,0,0,1,8.7,3.13,15.67,15.67,0,0,1,5.8,4.71,13.06,13.06,0,0,1,2.43,8.23,15.54,15.54,0,0,1-2.27,8.15,16,16,0,0,1-6.67,6,22.69,22.69,0,0,1-10.42,2.24A25.93,25.93,0,0,1,384.13,349.47Z"/><path d="M456.83,340.46H435l-3.61,10.42H419.91l19.68-54.79h12.77L472,350.88h-11.6Zm-3-8.78-7.92-22.89L438,331.68Z"/><path d="M513.18,296.17V305H490.37v14h17.48v8.7H490.37v23.12h-11V296.17Z"/><path d="M531.91,305v13.71h18.42v8.7H531.91v14.5h20.77v8.94H520.94V296.09h31.74V305Z"/><path d="M592.5,341.63h24.61v9.25H579.8v-8.47l24.46-37H579.8v-9.25h37.31v8.47Z"/><path d="M637.72,347.82a26.92,26.92,0,0,1-10.19-10,29.53,29.53,0,0,1,0-28.84,27,27,0,0,1,10.19-10A29.53,29.53,0,0,1,666,299a26.74,26.74,0,0,1,10.11,10,29.81,29.81,0,0,1,0,28.84,26.61,26.61,0,0,1-10.15,10,29.38,29.38,0,0,1-28.22,0Zm22.81-8.42a15.31,15.31,0,0,0,5.88-6.39,21,21,0,0,0,2.12-9.64,20.71,20.71,0,0,0-2.12-9.6,15,15,0,0,0-5.88-6.31,17,17,0,0,0-8.7-2.2,17.22,17.22,0,0,0-8.74,2.2,15,15,0,0,0-5.92,6.31,20.71,20.71,0,0,0-2.11,9.6,21,21,0,0,0,2.11,9.64,15.27,15.27,0,0,0,5.92,6.39,16.94,16.94,0,0,0,8.74,2.23A16.72,16.72,0,0,0,660.53,339.4Z"/><path d="M734.75,350.88h-11l-24.84-37.54v37.54H688V296.09h11l24.84,37.62V296.09h11Z"/><path d="M756.54,305v13.71H775v8.7H756.54v14.5h20.77v8.94H745.57V296.09h31.74V305Z"/><rect x="825.19" y="187.11" width="277.77" height="2" transform="translate(149.36 736.8) rotate(-45)"/><polygon points="906.12 287.32 864.87 287.32 864.87 246.07 866.87 246.07 866.87 285.32 906.12 285.32 906.12 287.32"/><rect x="963.07" y="320.06" width="2" height="277.77" transform="translate(-42.15 816.12) rotate(-45)"/><polygon points="866.87 400.99 864.87 400.99 864.87 359.74 906.12 359.74 906.12 361.74 866.87 361.74 866.87 400.99"/><rect x="50.22" y="457.94" width="277.77" height="2" transform="translate(-269.13 268.14) rotate(-45)"/><polygon points="286.31 400.99 286.31 361.74 247.06 361.74 247.06 359.74 288.31 359.74 288.31 400.99 286.31 400.99"/><rect x="188.1" y="49.23" width="2" height="277.77" transform="translate(-77.63 188.81) rotate(-45)"/><polygon points="288.31 287.32 247.06 287.32 247.06 285.32 286.31 285.32 286.31 246.07 288.31 246.07 288.31 287.32"/></g></svg>