<svg xmlns="http://www.w3.org/2000/svg" viewBox="0 0 1152 648"><defs><style>.cls-1{fill:#79e45e;}.cls-2{fill:#fff;}.cls-3,.cls-4{fill:#abff90;}.cls-4,.cls-5{stroke:#000;stroke-miterlimit:10;}.cls-4{stroke-width:1.64px;}.cls-5{fill:none;stroke-width:2px;}</style></defs><g id="Layer_1" data-name="Layer 1"><rect class="cls-1" width="1152" height="648"/><rect class="cls-2" x="819.91" y="285.46" width="158.05" height="158.05"/><rect class="cls-2" x="250.94" y="64.19" width="158.05" height="379.32"/><rect class="cls-2" x="630.25" y="64.19" width="158.05" height="379.32"/><path d="M598.64,364.49a79,79,0,0,0-79-79V443.51A79,79,0,0,0,598.64,364.49Z"/><path class="cls-2" d="M519.62,443.51v-158a79,79,0,1,0,0,158.05Z"/><rect class="cls-3" x="630.25" y="285.46" width="158.05" height="158.05"/><rect class="cls-3" x="250.94" y="64.19" width="158.05" height="172.84"/><rect x="93.31" y="64.19" width="158.05" height="172.84"/><rect x="630.25" y="64.19" width="158.05" height="174.83"/><path d="M786.3,287.46V441.51H521.62v-154H786.3m2-2H519.62V443.51H788.3v-158Z"/><polyline class="cls-4" points="739.18 648 739.18 460.29 1058.69 460.29 1058.69 648"/><path d="M407,66.19V237H95.82V66.19H407m2-2H93.82V239H409V64.19Z"/><polyline class="cls-5" points="788.3 0 788.3 239.02 630.25 239.02 630.25 0"/><rect class="cls-3" x="250.94" y="380.29" width="158.05" height="64.19"/><path d="M407,382.29V536.34h-154v-154H407m2-2h-158V538.34H409v-158Z"/><path d="M978,554.14a79,79,0,0,0-158.05,0Z"/><path d="M976,287.46V552.14H821.91V287.46H976m2-2H819.91V554.14H978V285.46Z"/><path class="cls-2" d="M898.94,633.17a79,79,0,0,0,79-79H819.91A79,79,0,0,0,898.94,633.17Z"/><path d="M416.75,334.58h29.72a79,79,0,0,0,0,59.82H416.75Z"/><path d="M519.44,336.58V392.4H418.75V336.58H519.44m2-2H416.75V394.4H521.44V334.58Z"/></g></svg>