<svg xmlns="http://www.w3.org/2000/svg" viewBox="0 0 648 648"><defs><style>.cls-1{fill:#79e45e;}.cls-2{fill:#fff;}.cls-3{fill:#abff90;}</style></defs><g id="Layer_1" data-name="Layer 1"><rect class="cls-1" width="648" height="648"/><rect x="39.07" y="191.3" width="265.4" height="265.4"/><rect class="cls-2" x="57.65" y="209.88" width="28.53" height="228.24" transform="translate(143.82 648) rotate(180)"/><rect class="cls-3" x="86.18" y="209.88" width="28.53" height="228.24" transform="translate(200.88 648) rotate(180)"/><rect class="cls-2" x="114.71" y="209.88" width="28.53" height="228.24" transform="translate(257.94 648) rotate(180)"/><rect class="cls-3" x="143.24" y="209.88" width="28.53" height="228.24" transform="translate(315 648) rotate(180)"/><rect class="cls-2" x="171.77" y="209.88" width="28.53" height="228.24" transform="translate(372.06 648) rotate(180)"/><rect class="cls-3" x="200.3" y="209.88" width="28.53" height="228.24" transform="translate(429.12 648) rotate(180)"/><rect class="cls-2" x="228.83" y="209.88" width="28.53" height="228.24" transform="translate(486.19 648) rotate(180)"/><rect class="cls-3" x="257.36" y="209.88" width="28.53" height="228.24" transform="translate(543.25 648) rotate(180)"/><rect x="343.53" y="191.3" width="265.4" height="265.4" transform="translate(800.23 -152.23) rotate(90)"/><rect class="cls-2" x="461.97" y="110.02" width="28.53" height="228.24" transform="translate(252.09 700.38) rotate(-90)"/><rect class="cls-3" x="461.97" y="138.55" width="28.53" height="228.24" transform="translate(223.56 728.91) rotate(-90)"/><rect class="cls-2" x="461.97" y="167.08" width="28.53" height="228.24" transform="translate(195.03 757.44) rotate(-90)"/><rect class="cls-3" x="461.97" y="195.61" width="28.53" height="228.24" transform="translate(166.5 785.97) rotate(-90)"/><rect class="cls-2" x="461.97" y="224.14" width="28.53" height="228.24" transform="translate(137.97 814.5) rotate(-90)"/><rect class="cls-3" x="461.97" y="252.67" width="28.53" height="228.24" transform="translate(109.44 843.03) rotate(-90)"/><rect class="cls-2" x="461.97" y="281.2" width="28.53" height="228.24" transform="translate(80.91 871.56) rotate(-90)"/><rect class="cls-3" x="461.97" y="309.73" width="28.53" height="228.24" transform="translate(52.38 900.09) rotate(-90)"/></g></svg>