<svg xmlns="http://www.w3.org/2000/svg" viewBox="0 0 1152 648"><defs><style>.cls-1{fill:#fff;}.cls-2{fill:#79e45e;}.cls-3{fill:#abff90;}</style></defs><g id="Layer_4" data-name="Layer 4"><rect class="cls-1" x="648" width="504" height="648" transform="translate(1800 648) rotate(180)"/><path d="M954.42,261.19V554.35h-58.8V429.61H770V554.35h-58.8V261.19H770V381.73H895.62V261.19Z"/><path d="M998.52,302.35V248.17h101.22V554.35h-60.48v-252Z"/><rect class="cls-2" width="648" height="648"/><rect width="485.99" height="485.99"/><circle class="cls-1" cx="243" cy="243" r="242.98"/><rect class="cls-3" x="485.99" y="485.99" width="162.01" height="162.01"/><rect x="648" width="504" height="162.01" transform="translate(1800 162.01) rotate(180)"/><rect x="566" y="0.01" width="2" height="485.97"/><rect x="496.72" y="207.15" width="140.54" height="71.67" transform="translate(809.99 -324.01) rotate(90)"/><path class="cls-2" d="M580.65,222.17l-27.92-7.8v-6.6l19.88-5.24-19.88-5.48,0-6.56,28-7.52v6L559,193.89l21.68,5.68v6.24l-21.56,5.36,21.56,5Z"/><path class="cls-2" d="M578.93,243.31a12.27,12.27,0,0,1-4.9,5.16,14.63,14.63,0,0,1-7.38,1.82,14.4,14.4,0,0,1-7.34-1.82,12.36,12.36,0,0,1-4.86-5.16,16.65,16.65,0,0,1-1.72-7.74v-9.76h27.92v9.76A16.65,16.65,0,0,1,578.93,243.31Zm-19-1.14a9.14,9.14,0,0,0,6.76,2.4,9.35,9.35,0,0,0,6.82-2.4,9.07,9.07,0,0,0,2.46-6.8v-4H557.49v4A9.2,9.2,0,0,0,559.89,242.17Z"/><path class="cls-1" d="M574.23,272.59a9,9,0,0,1,1,4.34,9.72,9.72,0,0,1-1.4,5.14,9.83,9.83,0,0,1-4,3.64,12.83,12.83,0,0,1-6,1.34,13.08,13.08,0,0,1-6-1.34,10.06,10.06,0,0,1-4.06-3.64,9.49,9.49,0,0,1-1.44-5.14,9,9,0,0,1,1-4.3,9.27,9.27,0,0,1,2.52-3H542.17V264h32.72v5.6h-3.2A8.51,8.51,0,0,1,574.23,272.59Zm-6.88,7.92a5.68,5.68,0,0,0,3-5.06,5.59,5.59,0,0,0-.78-2.86,5.81,5.81,0,0,0-2.26-2.16,7.79,7.79,0,0,0-7,0,5.81,5.81,0,0,0-2.26,2.16,5.64,5.64,0,0,0,0,5.76,5.94,5.94,0,0,0,2.28,2.16,7.13,7.13,0,0,0,3.52.82A6.92,6.92,0,0,0,567.35,280.51Z"/><path class="cls-1" d="M570.29,297.65H559.57a2.11,2.11,0,0,0-1.62.54,2.68,2.68,0,0,0-.5,1.82v2.6h-4.72v-3.52q0-7.08,6.88-7.08h10.68v-2.64h4.6V292h5.48v5.64h-5.48v5h-4.6Z"/><polygon class="cls-1" points="705.02 45.29 705.02 64.84 715.85 64.84 716.63 56.31 729.62 56.31 729.62 106.6 721.98 108.07 721.98 116.65 751.63 116.65 751.63 108.07 743.93 106.6 743.93 56.31 757.02 56.31 757.8 64.84 768.68 64.84 768.68 45.29 705.02 45.29"/><polygon class="cls-1" points="722.25 73.91 684.74 73.91 684.74 85.43 691.12 85.43 691.58 80.41 699.24 80.41 699.24 110.03 694.73 110.9 694.73 115.95 712.2 115.95 712.2 110.9 707.67 110.03 707.67 80.41 715.38 80.41 715.84 85.43 722.25 85.43 722.25 73.91"/><path class="cls-1" d="M1107.14,117.15H803.21V44.86h303.93Zm-302.93-1h301.93V45.86H804.21Z"/><path class="cls-1" d="M839.85,81.5H803.21V44.86h36.64Zm-35.64-1h34.64V45.86H804.21Z"/><path class="cls-1" d="M839.85,116.81H803.21V80.16h36.64Zm-35.64-1h34.64V81.16H804.21Z"/><rect x="0.01" y="565.98" width="485.97" height="2"/><rect x="172.72" y="531.14" width="140.54" height="71.67"/><path class="cls-2" d="M222.18,553.32l-7.8,27.92h-6.6l-5.24-19.88-5.48,19.88-6.56,0-7.52-28h6L193.9,575l5.68-21.68h6.24l5.36,21.56,5-21.56Z"/><path class="cls-2" d="M243.32,555a12.39,12.39,0,0,1,5.16,4.9,14.63,14.63,0,0,1,1.82,7.38,14.4,14.4,0,0,1-1.82,7.34,12.36,12.36,0,0,1-5.16,4.86,16.65,16.65,0,0,1-7.74,1.72h-9.76V553.32h9.76A16.78,16.78,0,0,1,243.32,555Zm-1.14,19a9.14,9.14,0,0,0,2.4-6.76,9.36,9.36,0,0,0-2.4-6.82,9.07,9.07,0,0,0-6.8-2.46h-4v18.44h4A9.2,9.2,0,0,0,242.18,574.08Z"/><path class="cls-1" d="M272.6,559.74a9,9,0,0,1,4.34-1,9.75,9.75,0,0,1,5.14,1.4,10,10,0,0,1,3.64,4,12.85,12.85,0,0,1,1.34,6,13.05,13.05,0,0,1-1.34,6,10.13,10.13,0,0,1-3.64,4.06,9.51,9.51,0,0,1-5.14,1.44,8.89,8.89,0,0,1-4.3-1,9,9,0,0,1-3-2.52V591.8H264V559.08h5.6v3.2A8.51,8.51,0,0,1,272.6,559.74Zm7.92,6.88a5.77,5.77,0,0,0-2.16-2.22,5.87,5.87,0,0,0-2.9-.76,5.57,5.57,0,0,0-2.86.78,5.74,5.74,0,0,0-2.16,2.26,7.79,7.79,0,0,0,0,7,5.68,5.68,0,0,0,2.16,2.26,5.64,5.64,0,0,0,5.76,0,5.94,5.94,0,0,0,2.16-2.28,7.21,7.21,0,0,0,.82-3.52A7.05,7.05,0,0,0,280.52,566.62Z"/><path class="cls-1" d="M297.66,563.68V574.4a2.11,2.11,0,0,0,.54,1.62,2.61,2.61,0,0,0,1.82.5h2.6v4.72H299.1q-7.08,0-7.08-6.88V563.68h-2.64v-4.6H292V553.6h5.64v5.48h5v4.6Z"/><polygon class="cls-1" points="813.12 67.92 812.41 67.21 821.53 58.09 830.64 67.21 829.94 67.92 821.53 59.51 813.12 67.92"/><polygon class="cls-1" points="821.53 105.36 812.41 96.24 813.12 95.54 821.53 103.94 829.94 95.54 830.64 96.24 821.53 105.36"/><path class="cls-2" d="M854.41,70.46V65.3h9.64V94.46h-5.76v-24Z"/><path class="cls-2" d="M870.19,93.8a3.28,3.28,0,0,1,0-4.68,3.49,3.49,0,0,1,2.5-.94,3.37,3.37,0,0,1,2.44.94,3.33,3.33,0,0,1,0,4.68,3.32,3.32,0,0,1-2.44.94A3.45,3.45,0,0,1,870.19,93.8Z"/><path class="cls-2" d="M898.53,69.54,887.89,94.46h-5.68l10.72-24.28H879.25v-4.8h19.28Z"/><path class="cls-2" d="M921.49,70.14h-13V77a6.06,6.06,0,0,1,2.4-1.7,8.41,8.41,0,0,1,3.32-.66,9.1,9.1,0,0,1,5.24,1.4,8.2,8.2,0,0,1,3,3.58,12,12,0,0,1,.92,4.66,10.41,10.41,0,0,1-2.62,7.4q-2.62,2.81-7.46,2.8A11,11,0,0,1,906,92.18a8.56,8.56,0,0,1-3.08-6h5.44A4.29,4.29,0,0,0,910,88.78a5.16,5.16,0,0,0,3.22,1,4.31,4.31,0,0,0,3.56-1.48,6,6,0,0,0,1.2-3.92,5.35,5.35,0,0,0-1.22-3.78,4.72,4.72,0,0,0-3.58-1.3,4.39,4.39,0,0,0-4.4,3.08h-5.36V65.22h18.08Z"/><path class="cls-1" d="M950.05,94.46l-4.56-6.88-4,6.88h-6l7.24-11.12-7.32-11h6.32l4.52,6.84,4.08-6.84h6l-7.28,11,7.36,11.12Z"/><path class="cls-2" d="M1006.25,66.54l-7.8,27.92h-6.6l-5.24-19.88-5.48,19.88-6.56,0-7.52-28h6L978,88.22l5.68-21.68h6.24l5.36,21.56,5-21.56Z"/><path class="cls-2" d="M1027.39,68.26a12.39,12.39,0,0,1,5.16,4.9,14.63,14.63,0,0,1,1.82,7.38,14.4,14.4,0,0,1-1.82,7.34,12.36,12.36,0,0,1-5.16,4.86,16.65,16.65,0,0,1-7.74,1.72h-9.76V66.54h9.76A16.78,16.78,0,0,1,1027.39,68.26Zm-1.14,19a9.14,9.14,0,0,0,2.4-6.76,9.36,9.36,0,0,0-2.4-6.82,9.07,9.07,0,0,0-6.8-2.46h-4V89.7h4A9.2,9.2,0,0,0,1026.25,87.3Z"/><path class="cls-1" d="M1056.67,73a9,9,0,0,1,4.34-1,9.75,9.75,0,0,1,5.14,1.4,10,10,0,0,1,3.64,4,12.85,12.85,0,0,1,1.34,6,13.05,13.05,0,0,1-1.34,6,10.13,10.13,0,0,1-3.64,4.06,9.51,9.51,0,0,1-5.14,1.44,8.89,8.89,0,0,1-4.3-1,9,9,0,0,1-3-2.52V105h-5.6V72.3h5.6v3.2A8.51,8.51,0,0,1,1056.67,73Zm7.92,6.88a5.77,5.77,0,0,0-2.16-2.22,5.87,5.87,0,0,0-2.9-.76,5.57,5.57,0,0,0-2.86.78,5.74,5.74,0,0,0-2.16,2.26,7.79,7.79,0,0,0,0,7,5.68,5.68,0,0,0,2.16,2.26,5.64,5.64,0,0,0,5.76,0,5.94,5.94,0,0,0,2.16-2.28,7.21,7.21,0,0,0,.82-3.52A7.05,7.05,0,0,0,1064.59,79.84Z"/><path class="cls-1" d="M1081.73,76.9V87.62a2.11,2.11,0,0,0,.54,1.62,2.61,2.61,0,0,0,1.82.5h2.6v4.72h-3.52q-7.08,0-7.08-6.88V76.9h-2.64V72.3h2.64V66.82h5.64V72.3h5v4.6Z"/></g></svg>