<svg xmlns="http://www.w3.org/2000/svg" viewBox="0 0 648 648"><defs><style>.cls-1{fill:#79e45e;}.cls-2{fill:#fff;}.cls-3{fill:#abff90;}</style></defs><g id="Layer_1" data-name="Layer 1"><rect class="cls-1" width="648" height="648"/><rect x="88.09" y="191.3" width="471.82" height="265.4"/><rect class="cls-2" x="106.67" y="209.88" width="36.22" height="228.24" transform="translate(249.56 648) rotate(180)"/><rect class="cls-3" x="142.89" y="209.88" width="36.22" height="228.24" transform="translate(322 648) rotate(180)"/><rect class="cls-2" x="179.11" y="209.88" width="36.22" height="228.24" transform="translate(394.45 648) rotate(180)"/><rect class="cls-3" x="215.33" y="209.88" width="36.22" height="228.24" transform="translate(466.89 648) rotate(180)"/><rect class="cls-2" x="251.56" y="209.88" width="36.22" height="228.24" transform="translate(539.33 648) rotate(180)"/><rect class="cls-3" x="287.78" y="209.88" width="36.22" height="228.24" transform="translate(611.78 648) rotate(180)"/><rect class="cls-2" x="324" y="209.88" width="36.22" height="228.24" transform="translate(684.22 648) rotate(180)"/><rect class="cls-3" x="360.22" y="209.88" width="36.22" height="228.24" transform="translate(756.67 648) rotate(180)"/><rect class="cls-2" x="396.44" y="209.88" width="36.22" height="228.24" transform="translate(829.11 648) rotate(180)"/><rect class="cls-3" x="432.67" y="209.88" width="36.22" height="228.24" transform="translate(901.55 648) rotate(180)"/><rect class="cls-2" x="468.89" y="209.88" width="36.22" height="228.24" transform="translate(974 648) rotate(180)"/><rect class="cls-3" x="505.11" y="209.88" width="36.22" height="228.24" transform="translate(1046.44 648) rotate(180)"/></g></svg>