<svg xmlns="http://www.w3.org/2000/svg" viewBox="0 0 648 648"><defs><style>.cls-1{fill:#79e45e;}.cls-2{fill:#fff;}.cls-3{fill:#abff90;}</style></defs><g id="Layer_1" data-name="Layer 1"><rect class="cls-1" width="648" height="648"/><rect x="88.09" y="191.3" width="471.82" height="265.4" transform="translate(648 0) rotate(90)"/><rect class="cls-2" x="305.89" y="10.66" width="36.22" height="228.24" transform="translate(199.22 448.78) rotate(-90)"/><rect class="cls-3" x="305.89" y="46.88" width="36.22" height="228.24" transform="translate(163 485) rotate(-90)"/><rect class="cls-2" x="305.89" y="83.1" width="36.22" height="228.24" transform="translate(126.78 521.22) rotate(-90)"/><rect class="cls-3" x="305.89" y="119.32" width="36.22" height="228.24" transform="translate(90.55 557.45) rotate(-90)"/><rect class="cls-2" x="305.89" y="155.55" width="36.22" height="228.24" transform="translate(54.33 593.67) rotate(-90)"/><rect class="cls-3" x="305.89" y="191.77" width="36.22" height="228.24" transform="translate(18.11 629.89) rotate(-90)"/><rect class="cls-2" x="305.89" y="227.99" width="36.22" height="228.24" transform="translate(-18.11 666.11) rotate(-90)"/><rect class="cls-3" x="305.89" y="264.21" width="36.22" height="228.24" transform="translate(-54.33 702.33) rotate(-90)"/><rect class="cls-2" x="305.89" y="300.43" width="36.22" height="228.24" transform="translate(-90.55 738.55) rotate(-90)"/><rect class="cls-3" x="305.89" y="336.66" width="36.22" height="228.24" transform="translate(-126.78 774.78) rotate(-90)"/><rect class="cls-2" x="305.89" y="372.88" width="36.22" height="228.24" transform="translate(-163 811) rotate(-90)"/><rect class="cls-3" x="305.89" y="409.1" width="36.22" height="228.24" transform="translate(-199.22 847.22) rotate(-90)"/></g></svg>