<svg xmlns="http://www.w3.org/2000/svg" viewBox="0 0 648 648"><g id="Layer_4" data-name="Layer 4"><path d="M96.55,48.68v55.14H85.49V80.36H61.87v23.46H50.81V48.68H61.87V71.35H85.49V48.68Z"/><path d="M116.93,57.6V71.43H135.5V80.2H116.93V94.81h20.94v9h-32V48.6h32v9Z"/><path d="M180.13,93.31h-22l-3.63,10.51H142.92L162.75,48.6h12.88l19.83,55.22H183.77Zm-3-8.85-8-23.06-8,23.06Z"/><path d="M235.87,52.07a24.35,24.35,0,0,1,10.19,9.68,28.91,28.91,0,0,1,3.59,14.58,28.42,28.42,0,0,1-3.59,14.49,24.42,24.42,0,0,1-10.19,9.6,32.9,32.9,0,0,1-15.29,3.4H201.3V48.68h19.28A33,33,0,0,1,235.87,52.07Zm-2.25,37.61q4.74-4.74,4.74-13.35t-4.74-13.47Q228.88,58,220.19,58h-7.83V94.42h7.83Q228.88,94.42,233.62,89.68Z"/><path d="M267.43,48.68v55.14H256.37V48.68Z"/><path d="M323.91,103.82H312.85L287.81,66v37.84H276.75V48.6h11.06l25,37.92V48.6h11.06Z"/><path d="M371.63,65.27a13,13,0,0,0-5.22-5.3,15.86,15.86,0,0,0-7.74-1.81A17,17,0,0,0,350,60.37a15.21,15.21,0,0,0-5.92,6.32,20.19,20.19,0,0,0-2.14,9.48,20.31,20.31,0,0,0,2.18,9.64,15.35,15.35,0,0,0,6,6.32,17.88,17.88,0,0,0,9,2.21A15.58,15.58,0,0,0,369.49,91a16.06,16.06,0,0,0,5.3-9.36h-19V73.17h29.86v9.64A26,26,0,0,1,381,93.47a26.62,26.62,0,0,1-9.36,7.86,27.48,27.48,0,0,1-12.84,3,29,29,0,0,1-14.42-3.59,26.23,26.23,0,0,1-10.11-10,28.69,28.69,0,0,1-3.67-14.54,28.92,28.92,0,0,1,3.67-14.58,26.13,26.13,0,0,1,10.11-10,30.83,30.83,0,0,1,30.54.95,23.21,23.21,0,0,1,9.48,12.76Z"/><path d="M426,71v9.32h-33.5V71Z"/><path d="M434.19,56.42V46.23h19v57.59H441.86V56.42Z"/><path d="M492.1,48.68v55.14H481V48.68Z"/><path d="M510.07,102.4a17.06,17.06,0,0,1-7.31-5.69A15,15,0,0,1,500,87.94h11.85a7.64,7.64,0,0,0,2.41,5.37,8.53,8.53,0,0,0,6,2,9.19,9.19,0,0,0,6.09-1.86,6.06,6.06,0,0,0,2.21-4.86,5.63,5.63,0,0,0-1.5-4,10.61,10.61,0,0,0-3.75-2.49,65.07,65.07,0,0,0-6.21-2,65.68,65.68,0,0,1-8.73-3.12,15.31,15.31,0,0,1-5.76-4.66,13.27,13.27,0,0,1-2.41-8.34,14.87,14.87,0,0,1,2.45-8.53,15.57,15.57,0,0,1,6.87-5.57,25,25,0,0,1,10.11-1.93q8.53,0,13.87,4.14a15.41,15.41,0,0,1,5.88,11.58H527.18a6.33,6.33,0,0,0-2.41-4.7,9.07,9.07,0,0,0-6-1.86,7.65,7.65,0,0,0-5.17,1.66,6,6,0,0,0-1.94,4.82,5,5,0,0,0,1.46,3.67,11,11,0,0,0,3.64,2.37,64.43,64.43,0,0,0,6.12,2.1,63.34,63.34,0,0,1,8.77,3.16,15.68,15.68,0,0,1,5.84,4.74A13.1,13.1,0,0,1,540,87.86a15.59,15.59,0,0,1-2.29,8.22,16.14,16.14,0,0,1-6.71,6,22.92,22.92,0,0,1-10.51,2.25A26.33,26.33,0,0,1,510.07,102.4Z"/><path d="M48.2,151.22V141h19v57.59H55.87v-47.4Z"/><path d="M77.79,197.32a6.48,6.48,0,0,1,0-9.25,6.86,6.86,0,0,1,4.94-1.85,6.66,6.66,0,0,1,4.82,1.85,6.6,6.6,0,0,1,0,9.25,6.66,6.66,0,0,1-4.82,1.85A6.86,6.86,0,0,1,77.79,197.32Z"/><path d="M132.18,149.4l-21,49.22H100l21.17-48h-27v-9.48h38.08Z"/><path d="M176,150.59h-25.6V164.1a12,12,0,0,1,4.74-3.36,16.62,16.62,0,0,1,6.56-1.3A18,18,0,0,1,172,162.2a16,16,0,0,1,5.84,7.07,23.45,23.45,0,0,1,1.82,9.2q0,9.09-5.18,14.62t-14.73,5.53q-9,0-14.38-4.5a16.91,16.91,0,0,1-6.08-11.77H150a8.51,8.51,0,0,0,3.2,5.05,10.17,10.17,0,0,0,6.36,1.9q4.66,0,7-2.93a11.88,11.88,0,0,0,2.37-7.74q0-4.89-2.41-7.46t-7.07-2.57a9,9,0,0,0-5.53,1.66,9.11,9.11,0,0,0-3.16,4.42H140.24V140.87H176Z"/><path d="M212,198.62,203,185l-8,13.59H183.13l14.3-22L183,154.85h12.48l8.93,13.51,8.05-13.51h11.85l-14.37,21.81,14.53,22Z"/><path d="M302.58,143.48l-15.4,55.14h-13l-10.35-39.26L253,198.62l-13,.08-14.85-55.22H237l9.72,42.81L258,143.48h12.32l10.59,42.58,9.79-42.58Z"/><path d="M342.75,146.87a24.24,24.24,0,0,1,10.19,9.68,28.82,28.82,0,0,1,3.6,14.58,28.32,28.32,0,0,1-3.6,14.49,24.3,24.3,0,0,1-10.19,9.6,32.86,32.86,0,0,1-15.28,3.4H308.19V143.48h19.28A33,33,0,0,1,342.75,146.87Zm-2.25,37.61q4.74-4.74,4.74-13.35t-4.74-13.47q-4.74-4.86-13.43-4.86h-7.82v36.42h7.82Q335.76,189.22,340.5,184.48Z"/><path d="M80.35,246.73v37.69H72.79v-16H56.65v16H49.09V246.73h7.56v15.5H72.79v-15.5Z"/><path d="M94.28,252.83v9.45H107v6H94.28v10h14.31v6.16H86.72V246.67h21.87v6.16Z"/><path d="M137.48,277.24h-15L120,284.42h-7.94l13.55-37.75h8.81L148,284.42h-8Zm-2-6.05L130,255.42l-5.46,15.77Z"/><path d="M175.58,249.05a16.6,16.6,0,0,1,7,6.61,19.83,19.83,0,0,1,2.45,10,19.5,19.5,0,0,1-2.45,9.91,16.73,16.73,0,0,1-7,6.56,22.5,22.5,0,0,1-10.45,2.32H152V246.73h13.17A22.5,22.5,0,0,1,175.58,249.05ZM174,274.75q3.24-3.24,3.24-9.12T174,256.42q-3.24-3.31-9.18-3.32h-5.34V278h5.34Q170.8,278,174,274.75Z"/><path d="M197.15,246.73v37.69h-7.56V246.73Z"/><path d="M235.76,284.42H228.2l-17.12-25.87v25.87h-7.56V246.67h7.56l17.12,25.92V246.67h7.56Z"/><path d="M268.38,258.07a8.83,8.83,0,0,0-3.57-3.62,10.8,10.8,0,0,0-5.29-1.24,11.56,11.56,0,0,0-5.94,1.51,10.44,10.44,0,0,0-4.05,4.32,15.21,15.21,0,0,0,0,13.07,10.56,10.56,0,0,0,4.13,4.32,12.18,12.18,0,0,0,6.16,1.51,10.68,10.68,0,0,0,7.07-2.3,11,11,0,0,0,3.62-6.39h-13v-5.78H278v6.59a17.6,17.6,0,0,1-3.24,7.28,18.27,18.27,0,0,1-6.4,5.38,18.79,18.79,0,0,1-8.77,2,20,20,0,0,1-9.86-2.45,17.92,17.92,0,0,1-6.91-6.83,21,21,0,0,1,0-19.9,17.8,17.8,0,0,1,6.91-6.86,21,21,0,0,1,20.87.65,15.85,15.85,0,0,1,6.48,8.72Z"/><path d="M305.53,262v6.37h-22.9V262Z"/><path d="M314.44,275.89q5.19-4.32,8.26-7.21a33.65,33.65,0,0,0,5.13-6,11.2,11.2,0,0,0,2.05-6.16,6.62,6.62,0,0,0-1.29-4.32,4.92,4.92,0,0,0-4-1.57,5.06,5.06,0,0,0-4.16,1.81,7.94,7.94,0,0,0-1.51,4.94h-7.34q.21-6.48,3.86-9.82a13.16,13.16,0,0,1,9.26-3.35q6.15,0,9.45,3.27a11.58,11.58,0,0,1,3.29,8.61,15.54,15.54,0,0,1-2.26,8,31.83,31.83,0,0,1-5.19,6.67q-2.91,2.84-7.61,6.83h15.93v6.27H311.63v-5.62Z"/><path d="M362.17,246.73v37.69h-7.56V246.73Z"/><path d="M374.46,283.45a11.71,11.71,0,0,1-5-3.89,10.29,10.29,0,0,1-1.89-6h8.1a5.26,5.26,0,0,0,1.65,3.68,5.84,5.84,0,0,0,4.08,1.35,6.32,6.32,0,0,0,4.16-1.27,4.15,4.15,0,0,0,1.51-3.32,3.82,3.82,0,0,0-1-2.76,7.26,7.26,0,0,0-2.56-1.7,43.11,43.11,0,0,0-4.24-1.37,45.54,45.54,0,0,1-6-2.14,10.44,10.44,0,0,1-3.94-3.18,9.1,9.1,0,0,1-1.65-5.7,10.14,10.14,0,0,1,1.68-5.83,10.59,10.59,0,0,1,4.69-3.81,17.15,17.15,0,0,1,6.92-1.32,15,15,0,0,1,9.47,2.83,10.55,10.55,0,0,1,4,7.91h-8.32a4.31,4.31,0,0,0-1.65-3.21,6.16,6.16,0,0,0-4.07-1.27,5.28,5.28,0,0,0-3.54,1.13,4.12,4.12,0,0,0-1.32,3.3,3.39,3.39,0,0,0,1,2.51,7.41,7.41,0,0,0,2.48,1.62c1,.41,2.38.89,4.18,1.43a44.08,44.08,0,0,1,6,2.16,10.68,10.68,0,0,1,4,3.24,9,9,0,0,1,1.68,5.67,10.62,10.62,0,0,1-1.57,5.62,11.08,11.08,0,0,1-4.59,4.13,15.71,15.71,0,0,1-7.18,1.54A17.9,17.9,0,0,1,374.46,283.45Z"/><path d="M410.34,252v-7h13v39.37h-7.78V252Z"/><path d="M430.56,283.53a4.44,4.44,0,0,1,0-6.32,4.68,4.68,0,0,1,3.38-1.27,4.49,4.49,0,0,1,3.29,1.27,4.49,4.49,0,0,1,0,6.32,4.53,4.53,0,0,1-3.29,1.27A4.72,4.72,0,0,1,430.56,283.53Z"/><path d="M445.06,275.89q5.19-4.32,8.26-7.21a32.84,32.84,0,0,0,5.13-6,11.22,11.22,0,0,0,2.06-6.16,6.63,6.63,0,0,0-1.3-4.32,4.91,4.91,0,0,0-4-1.57,5,5,0,0,0-4.15,1.81,7.88,7.88,0,0,0-1.52,4.94H442.2q.21-6.48,3.86-9.82a13.17,13.17,0,0,1,9.26-3.35q6.17,0,9.45,3.27a11.55,11.55,0,0,1,3.3,8.61,15.55,15.55,0,0,1-2.27,8,31.51,31.51,0,0,1-5.19,6.67q-2.91,2.84-7.61,6.83h15.93v6.27H442.26v-5.62Z"/><path d="M490,284.42l-6.16-9.29-5.45,9.29h-8.1l9.77-15-9.88-14.91h8.53l6.11,9.24,5.5-9.24h8.1l-9.82,14.91,9.93,15Z"/><path d="M551.93,246.73,541.4,284.42h-8.91l-7.08-26.84L518,284.42l-8.86.05L499,246.73h8.1L513.75,276l7.67-29.27h8.42l7.24,29.1,6.69-29.1Z"/><path d="M579.39,249.05a16.63,16.63,0,0,1,7,6.61,19.73,19.73,0,0,1,2.46,10,19.4,19.4,0,0,1-2.46,9.91,16.77,16.77,0,0,1-7,6.56,22.5,22.5,0,0,1-10.45,2.32H555.76V246.73h13.18A22.5,22.5,0,0,1,579.39,249.05Zm-1.54,25.7q3.24-3.24,3.24-9.12t-3.24-9.21q-3.24-3.31-9.18-3.32h-5.35V278h5.35Q574.61,278,577.85,274.75Z"/><path d="M68.69,323.49v25.13h-5V337.93H52.88v10.69h-5V323.49h5v10.33H63.65V323.49Z"/><path d="M78.7,327.56v6.3h8.46v4H78.7v6.67h9.54v4.1H73.66V323.46H88.24v4.1Z"/><path d="M108.22,343.83h-10l-1.66,4.79H91.26l9-25.16h5.86l9,25.16h-5.33Zm-1.37-4-3.64-10.51L99.58,339.8Z"/><path d="M134.33,325a11,11,0,0,1,4.65,4.41,13.16,13.16,0,0,1,1.64,6.64A13,13,0,0,1,139,342.7a11.1,11.1,0,0,1-4.65,4.37,15,15,0,0,1-7,1.55h-8.79V323.49h8.79A15,15,0,0,1,134.33,325Zm-1,17.14a8.24,8.24,0,0,0,2.16-6.09,8.44,8.44,0,0,0-2.16-6.14,8.18,8.18,0,0,0-6.12-2.21h-3.57v16.59h3.57A8.27,8.27,0,0,0,133.31,342.18Z"/><path d="M149.44,323.49v25.13h-5V323.49Z"/><path d="M175.9,348.62h-5l-11.42-17.24v17.24h-5V323.46h5l11.42,17.28V323.46h5Z"/><path d="M198.36,331.05a5.94,5.94,0,0,0-2.38-2.41,7.25,7.25,0,0,0-3.53-.83,7.78,7.78,0,0,0-4,1,7,7,0,0,0-2.7,2.88,10.17,10.17,0,0,0,0,8.71,7,7,0,0,0,2.76,2.88,8.12,8.12,0,0,0,4.1,1,7.14,7.14,0,0,0,4.72-1.53,7.35,7.35,0,0,0,2.41-4.27h-8.64v-3.85h13.61V339a11.82,11.82,0,0,1-2.16,4.86,12.37,12.37,0,0,1-4.27,3.59,12.54,12.54,0,0,1-5.85,1.34,13.28,13.28,0,0,1-6.57-1.63,11.88,11.88,0,0,1-4.61-4.56,14,14,0,0,1,0-13.26,11.84,11.84,0,0,1,4.61-4.57,14,14,0,0,1,13.91.43,10.56,10.56,0,0,1,4.32,5.81Z"/><path d="M223.85,333.64v4.25H208.58v-4.25Z"/><path d="M231.53,323.73a9.38,9.38,0,0,1,6.21-2,10.17,10.17,0,0,1,4.5.92,6.59,6.59,0,0,1,2.83,2.49,6.7,6.7,0,0,1,1,3.54,6.21,6.21,0,0,1-1.17,3.83,5.71,5.71,0,0,1-2.79,2.11v.14a6.14,6.14,0,0,1,3.26,2.31,7.19,7.19,0,0,1,1.17,4.25,7.48,7.48,0,0,1-1,3.85,6.74,6.74,0,0,1-2.92,2.65,11.73,11.73,0,0,1-11.25-1.1,7.71,7.71,0,0,1-2.7-6.05h4.9a3.88,3.88,0,0,0,1.21,2.82,4.35,4.35,0,0,0,3.11,1.07,3.74,3.74,0,0,0,2.83-1,3.63,3.63,0,0,0,1-2.64,3.49,3.49,0,0,0-1.37-3.1,7.66,7.66,0,0,0-4.25-.94h-1v-4.14h1q5.12,0,5.11-3.42a3.13,3.13,0,0,0-.92-2.41,3.68,3.68,0,0,0-2.64-.86A3.49,3.49,0,0,0,235,327a3.67,3.67,0,0,0-1.06,2.32H229A7.33,7.33,0,0,1,231.53,323.73Z"/><path d="M264.67,323.49v25.13h-5V323.49Z"/><path d="M273.58,348a7.8,7.8,0,0,1-3.33-2.59,6.78,6.78,0,0,1-1.26-4h5.4a3.47,3.47,0,0,0,1.1,2.45,3.88,3.88,0,0,0,2.72.9,4.2,4.2,0,0,0,2.77-.84,2.78,2.78,0,0,0,1-2.22,2.58,2.58,0,0,0-.69-1.84,4.86,4.86,0,0,0-1.71-1.13c-.68-.27-1.62-.58-2.82-.92a29.64,29.64,0,0,1-4-1.42,7,7,0,0,1-2.63-2.12,6.08,6.08,0,0,1-1.1-3.8,6.76,6.76,0,0,1,1.12-3.89,7.14,7.14,0,0,1,3.13-2.54,11.52,11.52,0,0,1,4.61-.88,10,10,0,0,1,6.32,1.89,7,7,0,0,1,2.68,5.27h-5.55a2.87,2.87,0,0,0-1.09-2.14,4.17,4.17,0,0,0-2.72-.84,3.52,3.52,0,0,0-2.36.75,2.74,2.74,0,0,0-.88,2.2,2.27,2.27,0,0,0,.66,1.67,5,5,0,0,0,1.66,1.08,28.48,28.48,0,0,0,2.79,1,29.9,29.9,0,0,1,4,1.44,7.15,7.15,0,0,1,2.66,2.16,6,6,0,0,1,1.12,3.78,7.07,7.07,0,0,1-1,3.74,7.36,7.36,0,0,1-3.06,2.76,10.48,10.48,0,0,1-4.79,1A11.91,11.91,0,0,1,273.58,348Z"/><path d="M301.8,325.4q2.25-3.52,7.47-3.53t7.47,3.53q2.25,3.53,2.25,9.76T316.74,345q-2.25,3.57-7.47,3.57T301.8,345q-2.25-3.56-2.25-9.82T301.8,325.4Zm11.88,5.27a6.1,6.1,0,0,0-1.36-3,4.61,4.61,0,0,0-6.09,0,6.11,6.11,0,0,0-1.37,3,24.73,24.73,0,0,0-.34,4.49,26.87,26.87,0,0,0,.33,4.59,5.73,5.73,0,0,0,1.36,3,4.68,4.68,0,0,0,6.12,0,5.66,5.66,0,0,0,1.37-3,26.87,26.87,0,0,0,.33-4.59A24.63,24.63,0,0,0,313.68,330.67Z"/><path d="M323.37,348a2.78,2.78,0,0,1-.89-2.1,2.82,2.82,0,0,1,.89-2.11,3.1,3.1,0,0,1,2.25-.84,3,3,0,0,1,2.19.84,2.84,2.84,0,0,1,.87,2.11,2.8,2.8,0,0,1-.87,2.1,3,3,0,0,1-2.19.85A3.07,3.07,0,0,1,323.37,348Z"/><path d="M333,328.93a6.62,6.62,0,0,1,1-3.55,6.82,6.82,0,0,1,3-2.55,12.86,12.86,0,0,1,9.75,0,6.77,6.77,0,0,1,3,2.55,6.62,6.62,0,0,1,1,3.55,6.18,6.18,0,0,1-1,3.47,6.59,6.59,0,0,1-2.59,2.32,7,7,0,0,1,3.09,2.52,6.85,6.85,0,0,1,1.12,3.93,7.34,7.34,0,0,1-1.24,4.26,7.87,7.87,0,0,1-3.4,2.79,12.52,12.52,0,0,1-9.71,0,7.93,7.93,0,0,1-3.38-2.79,7.34,7.34,0,0,1-1.24-4.26,7,7,0,0,1,1.11-3.94,6.83,6.83,0,0,1,3.1-2.51A6.13,6.13,0,0,1,333,328.93Zm5.53,9a3.63,3.63,0,0,0-1.28,3,3.8,3.8,0,0,0,1.24,2.94,4.83,4.83,0,0,0,3.37,1.13,4.66,4.66,0,0,0,3.34-1.15,3.83,3.83,0,0,0,1.23-2.92,3.68,3.68,0,0,0-1.26-3,5,5,0,0,0-3.31-1.06A5.12,5.12,0,0,0,338.49,338Zm6.22-11a4.76,4.76,0,0,0-5.76,0,3.59,3.59,0,0,0-1.06,2.77,3.28,3.28,0,0,0,1.1,2.59,4.57,4.57,0,0,0,5.67,0,3.34,3.34,0,0,0,1.12-2.61A3.53,3.53,0,0,0,344.71,326.91Z"/><path d="M366.91,348.62l-4.11-6.19-3.63,6.19h-5.4l6.51-10-6.58-9.93h5.68l4.07,6.15,3.67-6.15h5.4L366,338.61l6.63,10Z"/><path d="M408.92,323.49l-7,25.13H396l-4.72-17.89-4.93,17.89-5.9,0-6.77-25.17H379L383.47,343l5.11-19.51h5.62L399,342.9l4.46-19.41Z"/><path d="M428,325a11,11,0,0,1,4.64,4.41,13.16,13.16,0,0,1,1.64,6.64,13,13,0,0,1-1.64,6.61,11.13,11.13,0,0,1-4.64,4.37,15.07,15.07,0,0,1-7,1.55H412.2V323.49H421A15.07,15.07,0,0,1,428,325Zm-1,17.14a8.24,8.24,0,0,0,2.16-6.09,8.44,8.44,0,0,0-2.16-6.14,8.18,8.18,0,0,0-6.12-2.21h-3.56v16.59h3.56A8.27,8.27,0,0,0,426.92,342.18Z"/><path d="M50.17,399.55a5.61,5.61,0,0,1-2.38-1.88,4.73,4.73,0,0,1-.86-2.84h3.29a2.93,2.93,0,0,0,1,2,3.36,3.36,0,0,0,2.39.79,3.68,3.68,0,0,0,2.48-.77,2.5,2.5,0,0,0,.89-2,2.17,2.17,0,0,0-.55-1.54,3.7,3.7,0,0,0-1.38-.91,21.58,21.58,0,0,0-2.28-.71,21.21,21.21,0,0,1-3-1,5,5,0,0,1-2-1.55,4.51,4.51,0,0,1-.81-2.81,5,5,0,0,1,.81-2.84,5.17,5.17,0,0,1,2.27-1.86,8.24,8.24,0,0,1,3.37-.65,7.08,7.08,0,0,1,4.47,1.36,5,5,0,0,1,1.93,3.74h-3.4a2.47,2.47,0,0,0-1-1.75,3.59,3.59,0,0,0-2.35-.73,3.34,3.34,0,0,0-2.16.68,2.34,2.34,0,0,0-.84,1.94,2,2,0,0,0,.53,1.42,3.62,3.62,0,0,0,1.34.87,21,21,0,0,0,2.21.71,23.73,23.73,0,0,1,3,1,5,5,0,0,1,2,1.58,4.53,4.53,0,0,1,.83,2.85,5.17,5.17,0,0,1-.77,2.7,5.49,5.49,0,0,1-2.24,2,7.43,7.43,0,0,1-3.47.77A8.38,8.38,0,0,1,50.17,399.55Z"/><path d="M77.17,385.14V400H74.09v-1.76a4.91,4.91,0,0,1-1.91,1.45,6,6,0,0,1-2.49.52,6.77,6.77,0,0,1-3.15-.72,5.36,5.36,0,0,1-2.19-2.16,7,7,0,0,1-.79-3.46v-8.75h3v8.29a4.33,4.33,0,0,0,1,3.07,3.53,3.53,0,0,0,2.72,1.06,3.62,3.62,0,0,0,2.75-1.06,4.34,4.34,0,0,0,1-3.07v-8.29Z"/><path d="M86.44,385.59a6.63,6.63,0,0,1,3-.69,6.84,6.84,0,0,1,3.56.94,6.66,6.66,0,0,1,2.51,2.69,8.43,8.43,0,0,1,.92,4,8.59,8.59,0,0,1-.92,4A6.87,6.87,0,0,1,93,399.28a7.12,7.12,0,0,1-6.62.31,6,6,0,0,1-2.12-1.73V400H81.22V380h3.07v7.32A5.92,5.92,0,0,1,86.44,385.59Zm6.26,4.26a4.4,4.4,0,0,0-1.67-1.7,4.58,4.58,0,0,0-2.23-.58,4.34,4.34,0,0,0-2.2.6,4.39,4.39,0,0,0-1.67,1.72,5.93,5.93,0,0,0,0,5.36,4.35,4.35,0,0,0,3.87,2.34A4.3,4.3,0,0,0,91,397a4.4,4.4,0,0,0,1.67-1.77,5.45,5.45,0,0,0,.64-2.7A5.27,5.27,0,0,0,92.7,389.85Z"/><path d="M103.11,387.65v8.24a1.57,1.57,0,0,0,.39,1.2,2,2,0,0,0,1.34.36h1.89V400H104.3a4.73,4.73,0,0,1-3.19-1,4,4,0,0,1-1.1-3.16v-8.24H98.25v-2.51H100v-3.7h3.1v3.7h3.62v2.51Z"/><path d="M109.73,382.6a2,2,0,1,1,1.4.57A1.88,1.88,0,0,1,109.73,382.6Zm2.91,2.54V400h-3.07V385.14Z"/><path d="M120.28,387.65v8.24a1.54,1.54,0,0,0,.4,1.2,1.94,1.94,0,0,0,1.33.36h1.89V400h-2.43a4.7,4.7,0,0,1-3.18-1,4,4,0,0,1-1.11-3.16v-8.24h-1.76v-2.51h1.76v-3.7h3.1v3.7h3.62v2.51Z"/><path d="M129.81,380v20h-3.07V380Z"/><path d="M147.39,393.73H136a4.11,4.11,0,0,0,4.24,3.94,3.59,3.59,0,0,0,3.51-2.08h3.32a6.66,6.66,0,0,1-2.44,3.36,7.13,7.13,0,0,1-4.39,1.31,7.61,7.61,0,0,1-3.82-1,6.79,6.79,0,0,1-2.64-2.7,8.2,8.2,0,0,1-1-4,8.45,8.45,0,0,1,.93-4,6.53,6.53,0,0,1,2.62-2.69,7.78,7.78,0,0,1,3.87-.94,7.62,7.62,0,0,1,3.76.92,6.48,6.48,0,0,1,2.56,2.58,7.77,7.77,0,0,1,.92,3.82A9.91,9.91,0,0,1,147.39,393.73Zm-3.1-2.49a3.51,3.51,0,0,0-1.22-2.72,4.31,4.31,0,0,0-2.94-1,4,4,0,0,0-2.73,1,4.3,4.3,0,0,0-1.35,2.74Z"/><path d="M161.94,389v2.59H150.85V389Z"/><path d="M169.4,381.25V400h-3.08V381.25Z"/><path d="M175.7,399.63a5.56,5.56,0,0,1-2.2-1.73,4.25,4.25,0,0,1-.86-2.44h3.18a2.21,2.21,0,0,0,.91,1.58,3.28,3.28,0,0,0,2.06.63,3.47,3.47,0,0,0,2-.5,1.5,1.5,0,0,0,.72-1.28,1.32,1.32,0,0,0-.8-1.24,15.28,15.28,0,0,0-2.52-.9,22.55,22.55,0,0,1-2.73-.89,4.62,4.62,0,0,1-1.82-1.32,3.48,3.48,0,0,1-.77-2.35,3.65,3.65,0,0,1,.7-2.17,4.61,4.61,0,0,1,2-1.55,7.52,7.52,0,0,1,3-.57,6.24,6.24,0,0,1,4.09,1.28,4.59,4.59,0,0,1,1.66,3.5h-3.07a2.25,2.25,0,0,0-.81-1.6,3.09,3.09,0,0,0-2-.59,3.15,3.15,0,0,0-1.86.46,1.43,1.43,0,0,0-.65,1.22,1.31,1.31,0,0,0,.44,1,2.9,2.9,0,0,0,1.05.64c.41.15,1,.35,1.83.58a19.66,19.66,0,0,1,2.66.88,4.76,4.76,0,0,1,1.8,1.31,3.48,3.48,0,0,1,.78,2.29,3.84,3.84,0,0,1-.7,2.27,4.58,4.58,0,0,1-2,1.56,7.38,7.38,0,0,1-3,.57A7.57,7.57,0,0,1,175.7,399.63Z"/><path d="M196.06,382.62q1.58-2.64,5.44-2.64c2.57,0,4.39.88,5.44,2.64a14.23,14.23,0,0,1,1.58,7.3,14.57,14.57,0,0,1-1.58,7.39c-1.05,1.77-2.87,2.65-5.44,2.65s-4.39-.88-5.44-2.65a14.57,14.57,0,0,1-1.58-7.39A14.23,14.23,0,0,1,196.06,382.62Zm9.15,3.6a4.94,4.94,0,0,0-1.15-2.47,3.91,3.91,0,0,0-5.13,0,5,5,0,0,0-1.14,2.47,20.33,20.33,0,0,0-.29,3.7,22.63,22.63,0,0,0,.27,3.81,4.74,4.74,0,0,0,1.15,2.48,4,4,0,0,0,5.16,0,4.8,4.8,0,0,0,1.14-2.48,22.63,22.63,0,0,0,.27-3.81A20.43,20.43,0,0,0,205.21,386.22Z"/><path d="M212,399.64a1.89,1.89,0,0,1-.57-1.4,2,2,0,1,1,3.92,0,2,2,0,0,1-3.35,1.4Z"/><path d="M227.8,383a3.44,3.44,0,0,0-2.19-.62,3.55,3.55,0,0,0-3.19,1.63q-1,1.63-1.1,5.41a4.59,4.59,0,0,1,2.05-1.83,6.53,6.53,0,0,1,2.91-.65,6.23,6.23,0,0,1,3.15.77,5.28,5.28,0,0,1,2.13,2.23,7.27,7.27,0,0,1,.77,3.48,7.49,7.49,0,0,1-.74,3.37,5.58,5.58,0,0,1-2.2,2.34,6.81,6.81,0,0,1-3.51.85,6.93,6.93,0,0,1-4.36-1.23,6.52,6.52,0,0,1-2.22-3.47,21,21,0,0,1-.63-5.59q0-9.89,7-9.88a6,6,0,0,1,4.25,1.46,5.8,5.8,0,0,1,1.82,3.59h-2.83A3.24,3.24,0,0,0,227.8,383Zm-5,7.52a3.54,3.54,0,0,0-1.14,2.84,4.05,4.05,0,0,0,1.06,3,4,4,0,0,0,3,1.09,3.49,3.49,0,0,0,2.68-1.05,3.93,3.93,0,0,0,1-2.81,4.29,4.29,0,0,0-1-2.93,3.55,3.55,0,0,0-2.82-1.09A4.15,4.15,0,0,0,222.81,390.56Z"/><path d="M248.32,383h-9v5.37a4.28,4.28,0,0,1,1.69-1.26,5.56,5.56,0,0,1,2.39-.52,6.43,6.43,0,0,1,3.68,1,5.47,5.47,0,0,1,2,2.46,8.31,8.31,0,0,1,.61,3.13,7.89,7.89,0,0,1-.77,3.55,5.78,5.78,0,0,1-2.3,2.45,7.34,7.34,0,0,1-3.74.89,7.24,7.24,0,0,1-4.72-1.46A5.93,5.93,0,0,1,236,394.7h3a3.33,3.33,0,0,0,1.32,2,4.25,4.25,0,0,0,2.57.74,3.47,3.47,0,0,0,2.87-1.16,4.67,4.67,0,0,0,1-3.08,4.19,4.19,0,0,0-1-3,3.74,3.74,0,0,0-2.86-1,3.54,3.54,0,0,0-3.54,2.46h-2.91V380.28h11.88Z"/><path d="M259.66,392.49l4.8,7.53H261l-3.21-5-3,5h-3.21l4.81-7.32-4.81-7.56H255l3.21,5.05,3-5.05h3.21Z"/><path d="M291.19,381.25,285.63,400h-3.48l-3.95-14.2L274,400l-3.46,0-5.32-18.8h3.27l3.89,15.29,4.21-15.29h3.46L284,396.46l3.92-15.21Z"/><path d="M293.64,388.54a6.78,6.78,0,0,1,6.11-3.64,7.06,7.06,0,0,1,2.88.63,6,6,0,0,1,2.25,1.69V380H308v20h-3.11v-2.24a5.74,5.74,0,0,1-2.09,1.78,6.47,6.47,0,0,1-3.07.7,6.73,6.73,0,0,1-3.55-1,7,7,0,0,1-2.53-2.76,8.36,8.36,0,0,1-.94-4A8.17,8.17,0,0,1,293.64,388.54Zm10.61,1.35a4.51,4.51,0,0,0-1.66-1.72,4.35,4.35,0,0,0-2.22-.6,4.47,4.47,0,0,0-2.21.58,4.38,4.38,0,0,0-1.66,1.7,5.27,5.27,0,0,0-.64,2.66,5.45,5.45,0,0,0,.64,2.7,4.4,4.4,0,0,0,1.67,1.77,4.25,4.25,0,0,0,2.2.61,4.44,4.44,0,0,0,2.22-.59,4.53,4.53,0,0,0,1.66-1.75,6,6,0,0,0,0-5.36Z"/><path d="M48.92,440.67a4.16,4.16,0,0,1-1.76-1.39,3.51,3.51,0,0,1-.64-2.1H49a2.2,2.2,0,0,0,.71,1.48,2.5,2.5,0,0,0,1.77.58,2.72,2.72,0,0,0,1.84-.57,1.85,1.85,0,0,0,.66-1.47,1.61,1.61,0,0,0-.41-1.14,2.73,2.73,0,0,0-1-.68,16.41,16.41,0,0,0-1.69-.52,15.41,15.41,0,0,1-2.21-.73A3.66,3.66,0,0,1,47.16,433a3.32,3.32,0,0,1-.6-2.08,3.7,3.7,0,0,1,.6-2.1,3.83,3.83,0,0,1,1.68-1.38,6.09,6.09,0,0,1,2.5-.48,5.22,5.22,0,0,1,3.31,1,3.72,3.72,0,0,1,1.43,2.77H53.56a1.82,1.82,0,0,0-.72-1.3,2.66,2.66,0,0,0-1.74-.54,2.49,2.49,0,0,0-1.6.5,1.74,1.74,0,0,0-.62,1.44,1.45,1.45,0,0,0,.39,1.05,2.8,2.8,0,0,0,1,.65,16.46,16.46,0,0,0,1.64.52,17.12,17.12,0,0,1,2.25.76A3.71,3.71,0,0,1,55.63,435a3.35,3.35,0,0,1,.61,2.11,3.79,3.79,0,0,1-.57,2A4.07,4.07,0,0,1,54,440.59a5.47,5.47,0,0,1-2.57.57A6.19,6.19,0,0,1,48.92,440.67Z"/><path d="M68.92,430v11H66.64v-1.3a3.72,3.72,0,0,1-1.41,1.07,4.48,4.48,0,0,1-1.85.39,4.94,4.94,0,0,1-2.33-.54,3.84,3.84,0,0,1-1.62-1.6,5.24,5.24,0,0,1-.59-2.56V430H61.1v6.14a3.21,3.21,0,0,0,.74,2.27,2.62,2.62,0,0,0,2,.79,2.66,2.66,0,0,0,2-.79,3.17,3.17,0,0,0,.75-2.27V430Z"/><path d="M75.79,430.33a4.9,4.9,0,0,1,2.25-.51,5.06,5.06,0,0,1,2.64.7,4.9,4.9,0,0,1,1.86,2,6.26,6.26,0,0,1,.68,2.95,6.37,6.37,0,0,1-.68,3,5.13,5.13,0,0,1-1.87,2,4.89,4.89,0,0,1-2.63.73,5,5,0,0,1-2.27-.5,4.36,4.36,0,0,1-1.57-1.28V441H71.92v-14.8H74.2v5.42A4.41,4.41,0,0,1,75.79,430.33Zm4.64,3.16a3.28,3.28,0,0,0-5.76,0,4,4,0,0,0-.47,2,4.09,4.09,0,0,0,.47,2,3.22,3.22,0,0,0,1.24,1.29,3.27,3.27,0,0,0,1.63.44,3.2,3.2,0,0,0,1.65-.45,3.34,3.34,0,0,0,1.24-1.31,4.13,4.13,0,0,0,.47-2A4,4,0,0,0,80.43,433.49Z"/><path d="M88.14,431.86V438a1.19,1.19,0,0,0,.29.89,1.43,1.43,0,0,0,1,.27h1.4V441H89a3.47,3.47,0,0,1-2.36-.72,3,3,0,0,1-.82-2.34v-6.1h-1.3V430h1.3v-2.74h2.3V430h2.68v1.86Z"/><path d="M93,428.12a1.46,1.46,0,0,1,1-2.5,1.39,1.39,0,0,1,1,.42,1.5,1.5,0,0,1,0,2.08,1.39,1.39,0,0,1-1,.42A1.42,1.42,0,0,1,93,428.12ZM95.2,430v11H92.92V430Z"/><path d="M100.86,431.86V438a1.19,1.19,0,0,0,.29.89,1.43,1.43,0,0,0,1,.27h1.4V441h-1.8a3.47,3.47,0,0,1-2.36-.72,3,3,0,0,1-.82-2.34v-6.1h-1.3V430h1.3v-2.74h2.3V430h2.68v1.86Z"/><path d="M107.92,426.22V441h-2.28v-14.8Z"/><path d="M120.94,436.36h-8.42a3.05,3.05,0,0,0,1,2.12,3.12,3.12,0,0,0,2.16.8,2.66,2.66,0,0,0,2.6-1.54h2.46a5,5,0,0,1-1.81,2.49,5.29,5.29,0,0,1-3.25,1,5.66,5.66,0,0,1-2.83-.71,5,5,0,0,1-2-2,6.15,6.15,0,0,1-.71-3,6.25,6.25,0,0,1,.69-3,4.89,4.89,0,0,1,1.94-2,5.73,5.73,0,0,1,2.87-.7,5.64,5.64,0,0,1,2.78.68,4.78,4.78,0,0,1,1.9,1.91,5.78,5.78,0,0,1,.68,2.83A7.55,7.55,0,0,1,120.94,436.36Zm-2.3-1.84a2.58,2.58,0,0,0-.9-2,3.2,3.2,0,0,0-2.18-.76,2.92,2.92,0,0,0-2,.75,3.16,3.16,0,0,0-1,2Z"/><path d="M131.72,432.82v1.92H123.5v-1.92Z"/><path d="M135.92,437.92q1.92-1.67,3-2.73A12.16,12.16,0,0,0,140.8,433a4.31,4.31,0,0,0,.74-2.32,2.83,2.83,0,0,0-.57-1.88,2.22,2.22,0,0,0-1.79-.68,2.28,2.28,0,0,0-1.83.75,3.16,3.16,0,0,0-.69,2h-2.2a4.9,4.9,0,0,1,8.11-3.5,4.27,4.27,0,0,1,1.23,3.2,5.65,5.65,0,0,1-.73,2.77,11.3,11.3,0,0,1-1.74,2.38c-.67.7-1.53,1.51-2.57,2.43l-.9.8h6.34v1.9h-9.72v-1.66Z"/><path d="M151.82,428.12a1.5,1.5,0,0,1,0-2.08,1.47,1.47,0,0,1,2.06,0,1.5,1.5,0,0,1,0,2.08,1.47,1.47,0,0,1-2.06,0ZM154,430v11H151.7V430Z"/><path d="M158.65,440.73a4,4,0,0,1-1.63-1.28,3.13,3.13,0,0,1-.64-1.81h2.36a1.59,1.59,0,0,0,.67,1.17,2.43,2.43,0,0,0,1.53.47,2.57,2.57,0,0,0,1.49-.37,1.12,1.12,0,0,0,.53-1,1,1,0,0,0-.59-.92,11.4,11.4,0,0,0-1.87-.66,19.28,19.28,0,0,1-2-.66,3.51,3.51,0,0,1-1.35-1,2.57,2.57,0,0,1-.57-1.74,2.69,2.69,0,0,1,.52-1.61,3.38,3.38,0,0,1,1.49-1.15,5.54,5.54,0,0,1,2.23-.42,4.64,4.64,0,0,1,3,.95,3.46,3.46,0,0,1,1.23,2.59h-2.28a1.62,1.62,0,0,0-.6-1.18,2.27,2.27,0,0,0-1.46-.44,2.34,2.34,0,0,0-1.38.34,1.06,1.06,0,0,0-.48.9,1,1,0,0,0,.32.74,2.17,2.17,0,0,0,.78.47c.3.11.76.26,1.36.43a14.64,14.64,0,0,1,2,.65,3.71,3.71,0,0,1,1.33,1,2.62,2.62,0,0,1,.58,1.7,2.88,2.88,0,0,1-.52,1.68,3.51,3.51,0,0,1-1.47,1.16,5.51,5.51,0,0,1-2.23.42A5.57,5.57,0,0,1,158.65,440.73Z"/><path d="M173.73,428.13a5.14,5.14,0,0,1,8.06,0,10.52,10.52,0,0,1,1.17,5.41,10.74,10.74,0,0,1-1.17,5.47,5.11,5.11,0,0,1-8.06,0,10.74,10.74,0,0,1-1.17-5.47A10.52,10.52,0,0,1,173.73,428.13Zm6.78,2.67a3.71,3.71,0,0,0-.85-1.83,2.9,2.9,0,0,0-3.8,0,3.63,3.63,0,0,0-.85,1.83,15.19,15.19,0,0,0-.21,2.74,16,16,0,0,0,.2,2.82,3.47,3.47,0,0,0,.85,1.84,3,3,0,0,0,3.82,0,3.62,3.62,0,0,0,.85-1.84,17.05,17.05,0,0,0,.2-2.82A15.19,15.19,0,0,0,180.51,430.8Z"/><path d="M185.56,440.74a1.5,1.5,0,0,1,0-2.08,1.47,1.47,0,0,1,2.06,0,1.5,1.5,0,0,1,0,2.08,1.47,1.47,0,0,1-2.06,0Z"/><path d="M189.92,438v-1.72l6.72-9.64h2.76V436h1.86v2H199.4v3h-2.24v-3Zm7.34-9L192.54,436h4.72Z"/><path d="M212.54,428.4h-6.7v4a3.12,3.12,0,0,1,1.25-.94,4.23,4.23,0,0,1,1.77-.38,4.73,4.73,0,0,1,2.73.72,4.05,4.05,0,0,1,1.5,1.82,6.07,6.07,0,0,1,.45,2.32,5.85,5.85,0,0,1-.57,2.63,4.24,4.24,0,0,1-1.7,1.81,5.43,5.43,0,0,1-2.77.66,5.34,5.34,0,0,1-3.5-1.08,4.35,4.35,0,0,1-1.58-2.86h2.22a2.43,2.43,0,0,0,1,1.49,3.12,3.12,0,0,0,1.9.55,2.63,2.63,0,0,0,2.13-.86,3.47,3.47,0,0,0,.71-2.28,3.11,3.11,0,0,0-.72-2.21,2.78,2.78,0,0,0-2.12-.77,2.67,2.67,0,0,0-1.65.49,2.74,2.74,0,0,0-1,1.33h-2.16V426.4h8.8Z"/><path d="M220.94,435.44,224.5,441h-2.58l-2.38-3.74L217.3,441h-2.38l3.56-5.42-3.56-5.6h2.58l2.38,3.74,2.24-3.74h2.38Z"/><path d="M244.3,427.12,240.18,441H237.6l-2.92-10.52L231.58,441,229,441l-3.94-13.92h2.42l2.88,11.32,3.12-11.32h2.56l2.9,11.26,2.9-11.26Z"/><path d="M254.61,428a6.14,6.14,0,0,1,2.58,2.44,7.42,7.42,0,0,1,.91,3.71,7.25,7.25,0,0,1-.91,3.68,6,6,0,0,1-2.58,2.39,8.7,8.7,0,0,1-3.89.83h-4.54v-13.9h4.54A8.44,8.44,0,0,1,254.61,428Zm-.15,9.87a5.1,5.1,0,0,0,1.3-3.72,5.29,5.29,0,0,0-1.3-3.78,4.93,4.93,0,0,0-3.74-1.36h-2.26v10.18h2.26A5,5,0,0,0,254.46,437.84Z"/><path d="M48,477.75a3.22,3.22,0,0,1-1.39-1.08,2.79,2.79,0,0,1-.52-1.67h2.25a1.47,1.47,0,0,0,.45,1,1.65,1.65,0,0,0,1.14.38,1.77,1.77,0,0,0,1.15-.35,1.17,1.17,0,0,0,.42-.93,1.09,1.09,0,0,0-.28-.76,1.92,1.92,0,0,0-.72-.47,9.86,9.86,0,0,0-1.17-.39,11.32,11.32,0,0,1-1.66-.59,2.9,2.9,0,0,1-1.1-.88,2.59,2.59,0,0,1-.45-1.59,2.83,2.83,0,0,1,.46-1.62,2.87,2.87,0,0,1,1.31-1.05,4.67,4.67,0,0,1,1.92-.37,4.14,4.14,0,0,1,2.63.79,2.91,2.91,0,0,1,1.12,2.19H51.29a1.26,1.26,0,0,0-.46-.89,1.75,1.75,0,0,0-1.13-.35,1.47,1.47,0,0,0-1,.31,1.16,1.16,0,0,0-.36.92,1,1,0,0,0,.27.7,2.42,2.42,0,0,0,.69.45c.28.11.66.24,1.17.39a12.12,12.12,0,0,1,1.66.6,3,3,0,0,1,1.11.9,2.52,2.52,0,0,1,.47,1.58,3,3,0,0,1-.44,1.56A3.1,3.1,0,0,1,52,477.7a4.47,4.47,0,0,1-2,.42A4.94,4.94,0,0,1,48,477.75Z"/><path d="M63.38,469.71V478H61.26v-1a2.8,2.8,0,0,1-1.06.85,3.35,3.35,0,0,1-1.42.3,3.45,3.45,0,0,1-1.72-.41,2.93,2.93,0,0,1-1.18-1.21,4.12,4.12,0,0,1-.42-1.92v-4.87h2.09v4.57a2.18,2.18,0,0,0,.5,1.53,1.77,1.77,0,0,0,1.35.53,1.81,1.81,0,0,0,1.37-.53,2.23,2.23,0,0,0,.49-1.53v-4.57Z"/><path d="M68.66,470a3.47,3.47,0,0,1,1.63-.38,3.66,3.66,0,0,1,1.93.53,3.71,3.71,0,0,1,1.36,1.49,4.74,4.74,0,0,1,.5,2.24,4.82,4.82,0,0,1-.5,2.26,3.73,3.73,0,0,1-1.36,1.52,3.58,3.58,0,0,1-1.93.54,3.53,3.53,0,0,1-1.63-.36,3.29,3.29,0,0,1-1.12-1V478h-2.1v-11.1h2.1v4A3,3,0,0,1,68.66,470Zm3,2.59a2.05,2.05,0,0,0-.81-.84,2.19,2.19,0,0,0-2.16,0,2.29,2.29,0,0,0-.81.85,2.69,2.69,0,0,0-.31,1.3,2.73,2.73,0,0,0,.31,1.31,2.29,2.29,0,0,0,.81.85,2.15,2.15,0,0,0,1.07.29,2.08,2.08,0,0,0,1.09-.3,2.17,2.17,0,0,0,.81-.86,2.63,2.63,0,0,0,.31-1.32A2.52,2.52,0,0,0,71.63,472.54Z"/><path d="M78.06,471.43v4a.81.81,0,0,0,.2.61,1,1,0,0,0,.68.19h1V478H78.6c-1.77,0-2.66-.86-2.66-2.58v-4H75v-1.72h1v-2.06h2.12v2.06h1.86v1.72Z"/><path d="M81.58,468.37a1.23,1.23,0,0,1,0-1.76,1.38,1.38,0,0,1,1.84,0,1.23,1.23,0,0,1,0,1.76,1.38,1.38,0,0,1-1.84,0Zm2,1.34V478h-2.1v-8.31Z"/><path d="M88.05,471.43v4a.81.81,0,0,0,.2.61,1,1,0,0,0,.68.19h1V478H88.59c-1.77,0-2.66-.86-2.66-2.58v-4h-1v-1.72h1v-2.06h2.12v2.06h1.86v1.72Z"/><path d="M93.52,466.92V478h-2.1v-11.1Z"/><path d="M103.26,474.49H97.18a2.07,2.07,0,0,0,.63,1.41,2,2,0,0,0,1.37.51,1.7,1.7,0,0,0,1.66-1h2.27a3.76,3.76,0,0,1-1.38,2,4,4,0,0,1-2.51.77,4.28,4.28,0,0,1-2.15-.53,3.71,3.71,0,0,1-1.48-1.51,4.57,4.57,0,0,1-.54-2.25,4.69,4.69,0,0,1,.53-2.26,3.66,3.66,0,0,1,1.47-1.5,4.71,4.71,0,0,1,4.3,0,3.61,3.61,0,0,1,1.45,1.45,4.33,4.33,0,0,1,.52,2.15A5,5,0,0,1,103.26,474.49Zm-2.12-1.41a1.64,1.64,0,0,0-.58-1.29,2.06,2.06,0,0,0-1.4-.49,1.93,1.93,0,0,0-1.31.47,2.11,2.11,0,0,0-.65,1.31Z"/><path d="M111.24,471.78v1.77h-6.36v-1.77Z"/><path d="M114.44,467.65a3.9,3.9,0,0,1,2.59-.82,4.27,4.27,0,0,1,1.87.38,2.74,2.74,0,0,1,1.18,1,2.7,2.7,0,0,1,.4,1.47,2.56,2.56,0,0,1-.49,1.6,2.34,2.34,0,0,1-1.16.88v.06a2.55,2.55,0,0,1,1.36,1,3.42,3.42,0,0,1,.07,3.37,2.84,2.84,0,0,1-1.21,1.11,4.4,4.4,0,0,1-1.93.39,4.27,4.27,0,0,1-2.76-.85,3.2,3.2,0,0,1-1.13-2.52h2a1.63,1.63,0,0,0,.51,1.18,1.82,1.82,0,0,0,1.29.44,1.54,1.54,0,0,0,1.18-.43,1.49,1.49,0,0,0,.41-1.1,1.45,1.45,0,0,0-.57-1.29,3.18,3.18,0,0,0-1.77-.39h-.43V471.4h.43c1.42,0,2.13-.47,2.13-1.42a1.31,1.31,0,0,0-.38-1,1.53,1.53,0,0,0-1.1-.36,1.47,1.47,0,0,0-1.09.39,1.54,1.54,0,0,0-.44,1h-2.06A3.05,3.05,0,0,1,114.44,467.65Z"/><path d="M126.29,468.37a1.23,1.23,0,0,1,0-1.76,1.3,1.3,0,0,1,.92-.35,1.33,1.33,0,0,1,.93.35,1.26,1.26,0,0,1,0,1.76,1.33,1.33,0,0,1-.93.35A1.3,1.3,0,0,1,126.29,468.37Zm2,1.34V478h-2.1v-8.31Z"/><path d="M131.67,477.79a3.24,3.24,0,0,1-1.28-1,2.51,2.51,0,0,1-.52-1.4H132a1.15,1.15,0,0,0,.48.8,1.89,1.89,0,0,0,2,.07.71.71,0,0,0,.34-.61.66.66,0,0,0-.41-.61,8.63,8.63,0,0,0-1.32-.44,11.23,11.23,0,0,1-1.52-.47,2.71,2.71,0,0,1-1-.73,2,2,0,0,1-.43-1.34,2.19,2.19,0,0,1,.4-1.26,2.73,2.73,0,0,1,1.14-.9,4.3,4.3,0,0,1,1.75-.33,3.54,3.54,0,0,1,2.37.75,2.73,2.73,0,0,1,1,2h-2a1.08,1.08,0,0,0-.41-.79,1.55,1.55,0,0,0-1-.29,1.57,1.57,0,0,0-.88.21.67.67,0,0,0-.31.58.69.69,0,0,0,.42.64,6.3,6.3,0,0,0,1.31.44,10.91,10.91,0,0,1,1.48.47,2.73,2.73,0,0,1,1,.74,2.08,2.08,0,0,1,.44,1.33,2.17,2.17,0,0,1-.4,1.29,2.52,2.52,0,0,1-1.14.89,4.21,4.21,0,0,1-1.73.32A4.46,4.46,0,0,1,131.67,477.79Z"/><path d="M142.76,468.34a4,4,0,0,1,6.23,0,9.41,9.41,0,0,1,0,8.16,4,4,0,0,1-6.23,0,9.32,9.32,0,0,1,0-8.16Zm5,2.2a2.46,2.46,0,0,0-.57-1.24,1.61,1.61,0,0,0-1.27-.48,1.59,1.59,0,0,0-1.26.48,2.46,2.46,0,0,0-.57,1.24,9.88,9.88,0,0,0-.15,1.87,11.23,11.23,0,0,0,.14,1.91,2.42,2.42,0,0,0,.57,1.25,1.65,1.65,0,0,0,1.27.47,1.68,1.68,0,0,0,1.28-.47,2.42,2.42,0,0,0,.57-1.25,11.36,11.36,0,0,0,.13-1.91A10,10,0,0,0,147.71,470.54Z"/><path d="M151.75,477.77a1.15,1.15,0,0,1-.37-.88,1.13,1.13,0,0,1,.37-.87,1.37,1.37,0,0,1,1.85,0,1.15,1.15,0,0,1,.36.87,1.18,1.18,0,0,1-.36.88,1.4,1.4,0,0,1-1.85,0Z"/><path d="M156.5,467.65a3.9,3.9,0,0,1,2.59-.82,4.27,4.27,0,0,1,1.87.38,2.74,2.74,0,0,1,1.18,1,2.7,2.7,0,0,1,.4,1.47,2.56,2.56,0,0,1-.49,1.6,2.34,2.34,0,0,1-1.16.88v.06a2.55,2.55,0,0,1,1.36,1,3.42,3.42,0,0,1,.07,3.37,2.84,2.84,0,0,1-1.21,1.11,4.4,4.4,0,0,1-1.93.39,4.27,4.27,0,0,1-2.76-.85,3.2,3.2,0,0,1-1.13-2.52h2a1.63,1.63,0,0,0,.51,1.18,1.82,1.82,0,0,0,1.29.44,1.54,1.54,0,0,0,1.18-.43,1.49,1.49,0,0,0,.41-1.1,1.45,1.45,0,0,0-.57-1.29,3.18,3.18,0,0,0-1.77-.39H158V471.4h.43c1.42,0,2.13-.47,2.13-1.42a1.31,1.31,0,0,0-.38-1,1.53,1.53,0,0,0-1.1-.36,1.47,1.47,0,0,0-1.09.39,1.54,1.54,0,0,0-.44,1h-2.06A3.05,3.05,0,0,1,156.5,467.65Z"/><path d="M171.75,468.9h-4.86v2.56a2.2,2.2,0,0,1,.9-.63,3.05,3.05,0,0,1,1.24-.25,3.42,3.42,0,0,1,2,.52,3,3,0,0,1,1.11,1.35,4.39,4.39,0,0,1,.34,1.74,3.89,3.89,0,0,1-1,2.78,3.64,3.64,0,0,1-2.8,1,4.11,4.11,0,0,1-2.73-.86,3.19,3.19,0,0,1-1.15-2.23h2a1.59,1.59,0,0,0,.61,1,1.9,1.9,0,0,0,1.2.36,1.63,1.63,0,0,0,1.34-.56,2.26,2.26,0,0,0,.45-1.47,2,2,0,0,0-.46-1.41,1.72,1.72,0,0,0-1.34-.49,1.7,1.7,0,0,0-1,.31,1.72,1.72,0,0,0-.6.84h-2v-6.42h6.78Z"/><path d="M178.89,478l-1.71-2.58L175.66,478h-2.25l2.72-4.17-2.75-4.14h2.37l1.7,2.56,1.53-2.56h2.25l-2.73,4.14,2.76,4.17Z"/><path d="M196.39,467.55,193.47,478H191l-2-7.46L187,478h-2.46l-2.82-10.48h2.25l1.85,8.13,2.13-8.13h2.34l2,8.08,1.86-8.08Z"/><path d="M204.32,468.19a4.66,4.66,0,0,1,1.94,1.84,5.55,5.55,0,0,1,.68,2.77,5.42,5.42,0,0,1-.68,2.75,4.61,4.61,0,0,1-1.94,1.82,6.23,6.23,0,0,1-2.9.65h-3.66V467.55h3.66A6.23,6.23,0,0,1,204.32,468.19Zm-.43,7.14a3.42,3.42,0,0,0,.9-2.53,3.52,3.52,0,0,0-.9-2.56,3.42,3.42,0,0,0-2.55-.92h-1.48v6.91h1.48A3.45,3.45,0,0,0,203.89,475.33Z"/><path d="M59.05,508.29a4.65,4.65,0,0,1,1.11,3.08,4.78,4.78,0,0,1-.72,2.58,4.9,4.9,0,0,1-2.09,1.81,7.59,7.59,0,0,1-3.3.66H47.52V497.55h6.35a6.42,6.42,0,0,1,4.36,1.32,4.37,4.37,0,0,1,1.49,3.43,4.2,4.2,0,0,1-.94,2.85,5,5,0,0,1-2.43,1.52A4.56,4.56,0,0,1,59.05,508.29Zm-9.64-2.4h4.4a4.35,4.35,0,0,0,3-.91,3.13,3.13,0,0,0,1-2.49,3.07,3.07,0,0,0-1-2.46,4.59,4.59,0,0,0-3-.89H49.41Zm7.71,8a3.66,3.66,0,0,0-.06-5.38,4.8,4.8,0,0,0-3.22-1H49.41v7.37h4.51A4.8,4.8,0,0,0,57.12,513.85Z"/><path d="M66.35,515.7a6.79,6.79,0,0,1-2.62-2.64,8.09,8.09,0,0,1-1-4,8,8,0,0,1,1-4,6.79,6.79,0,0,1,2.64-2.65,8.07,8.07,0,0,1,7.52,0A6.69,6.69,0,0,1,76.56,505a8.07,8.07,0,0,1,1,4,8,8,0,0,1-1,4,6.58,6.58,0,0,1-2.67,2.66,7.73,7.73,0,0,1-3.78.93A7.55,7.55,0,0,1,66.35,515.7Zm6.44-1.37a5,5,0,0,0,2-2,6.42,6.42,0,0,0,.77-3.28,6.6,6.6,0,0,0-.75-3.28,5,5,0,0,0-2-2,5.85,5.85,0,0,0-5.4,0,4.91,4.91,0,0,0-2,2,7.64,7.64,0,0,0,0,6.56,5,5,0,0,0,2,2,5.54,5.54,0,0,0,2.68.66A5.68,5.68,0,0,0,72.79,514.33Z"/><path d="M81,505a6.57,6.57,0,0,1,2.52-2.65,7.11,7.11,0,0,1,3.63-.93,6.64,6.64,0,0,1,3.51,1,5.75,5.75,0,0,1,2.3,2.45v-8.42h1.89v20H93v-3.3a5.68,5.68,0,0,1-2.22,2.53,6.51,6.51,0,0,1-3.61,1,7.05,7.05,0,0,1-3.64-.94A6.6,6.6,0,0,1,81,513a8.55,8.55,0,0,1-.9-4A8.21,8.21,0,0,1,81,505Zm11.23.88a5.19,5.19,0,0,0-2-2.08,5.35,5.35,0,0,0-2.76-.73,5.58,5.58,0,0,0-2.81.7,5,5,0,0,0-2,2A6.59,6.59,0,0,0,82,509a6.68,6.68,0,0,0,.71,3.17,5,5,0,0,0,2,2.08,5.49,5.49,0,0,0,2.81.72,5.35,5.35,0,0,0,2.76-.73,5.25,5.25,0,0,0,2-2.08,7.08,7.08,0,0,0,0-6.26Z"/><path d="M111.35,501.68l-8.75,21.68h-2l2.86-7-6-14.66h2.08l5,12.58,4.86-12.58Z"/><path d="M123.07,505.62v1.59H112.56v-1.59Z"/><path d="M126.6,498.76v-1.7h4.59v19.36h-1.91V498.76Z"/><path d="M143.18,498.49a1.36,1.36,0,0,1-.41-1,1.31,1.31,0,0,1,.41-1,1.38,1.38,0,0,1,1.94,0,1.31,1.31,0,0,1,.41,1,1.36,1.36,0,0,1-.41,1,1.35,1.35,0,0,1-1.94,0Zm1.92,3.19v14.74h-1.89V501.68Z"/><path d="M150.32,515.46a4.25,4.25,0,0,1-1.79-3.2h1.94a2.78,2.78,0,0,0,1.17,2,4.58,4.58,0,0,0,2.8.77,3.63,3.63,0,0,0,2.41-.73,2.24,2.24,0,0,0,.88-1.81,1.7,1.7,0,0,0-.48-1.24,3.63,3.63,0,0,0-1.23-.77,20.72,20.72,0,0,0-2-.61,19.41,19.41,0,0,1-2.68-.86,4.59,4.59,0,0,1-1.74-1.28,3.73,3.73,0,0,1-.07-4.28,4.52,4.52,0,0,1,1.84-1.46,6.44,6.44,0,0,1,2.7-.54,5.83,5.83,0,0,1,3.83,1.2,4.34,4.34,0,0,1,1.57,3.31h-1.89a2.86,2.86,0,0,0-1-2.09,4.4,4.4,0,0,0-4.88-.12,2,2,0,0,0-.89,1.67,2,2,0,0,0,.53,1.42,3.65,3.65,0,0,0,1.31.86,21,21,0,0,0,2.11.69,20.08,20.08,0,0,1,2.53.84,4.4,4.4,0,0,1,1.62,1.18,3.22,3.22,0,0,1,.71,2.08,3.62,3.62,0,0,1-.65,2.12,4.43,4.43,0,0,1-1.81,1.47,6.3,6.3,0,0,1-2.67.54A6.87,6.87,0,0,1,150.32,515.46Z"/><path d="M171.58,499.35c1-1.7,2.67-2.56,5.13-2.56s4.18.86,5.13,2.56a14.93,14.93,0,0,1,1.43,7.21,15.28,15.28,0,0,1-1.43,7.32q-1.43,2.6-5.13,2.59c-2.48,0-4.2-.86-5.14-2.59a15.41,15.41,0,0,1-1.42-7.32A15,15,0,0,1,171.58,499.35Zm9.48,3a5.39,5.39,0,0,0-1.38-2.78,4.73,4.73,0,0,0-5.94,0,5.45,5.45,0,0,0-1.37,2.78,21.28,21.28,0,0,0-.36,4.24,21.94,21.94,0,0,0,.36,4.34,5.41,5.41,0,0,0,1.37,2.79,4.69,4.69,0,0,0,5.94,0,5.34,5.34,0,0,0,1.38-2.79,22.82,22.82,0,0,0,.35-4.34A22.13,22.13,0,0,0,181.06,502.32Z"/><path d="M186.53,516.15a1.38,1.38,0,0,1-.39-1,1.36,1.36,0,0,1,.39-1,1.33,1.33,0,0,1,1-.39,1.3,1.3,0,0,1,1,.39,1.36,1.36,0,0,1,.39,1,1.38,1.38,0,0,1-.39,1,1.28,1.28,0,0,1-1,.4A1.3,1.3,0,0,1,186.53,516.15Z"/><path d="M198.74,498.27a4.4,4.4,0,0,0-4,2.06c-.89,1.37-1.29,3.61-1.22,6.72a4.63,4.63,0,0,1,2.07-2.55,6.55,6.55,0,0,1,3.49-.93,5.94,5.94,0,0,1,4.5,1.74,6.69,6.69,0,0,1,1.66,4.79,7.42,7.42,0,0,1-.69,3.23,5.39,5.39,0,0,1-2.11,2.31,6.7,6.7,0,0,1-3.52.86q-4,0-5.55-2.56a14.31,14.31,0,0,1-1.52-7.27q0-10,6.85-10a5.65,5.65,0,0,1,4.08,1.42,5.86,5.86,0,0,1,1.76,3.69h-1.76A3.75,3.75,0,0,0,198.74,498.27Zm-2.37,7.43a4.3,4.3,0,0,0-2.57,4.1,5.31,5.31,0,0,0,1.3,3.65,4.79,4.79,0,0,0,3.78,1.46,4.45,4.45,0,0,0,3.32-1.27,4.73,4.73,0,0,0,1.24-3.46,5.22,5.22,0,0,0-1.21-3.67,4.46,4.46,0,0,0-3.46-1.32A5.78,5.78,0,0,0,196.37,505.7Z"/><path d="M216.81,516.42,213,510.48l-3.67,5.94h-2l4.75-7.37-4.7-7.37h2.14l3.75,5.86,3.65-5.86h2l-4.7,7.29,4.75,7.45Z"/><path d="M244.4,497.55l-5.34,18.87H237l-4.75-16.09-4.86,16.09-2.05,0-5.24-18.9h2l4.32,16.55,4.84-16.55h2.1L238,514.1l4.35-16.55Z"/><path d="M258.25,498.68a7.92,7.92,0,0,1,3.43,3.27,10.27,10.27,0,0,1,1.19,5.07,10.15,10.15,0,0,1-1.19,5,7.85,7.85,0,0,1-3.43,3.24,11.83,11.83,0,0,1-5.37,1.12h-5.59V497.55h5.59A11.7,11.7,0,0,1,258.25,498.68Zm.64,14.11A7.83,7.83,0,0,0,261,507a8,8,0,0,0-2.06-5.82,8.1,8.1,0,0,0-6-2.09h-3.7v15.74h3.7A8.17,8.17,0,0,0,258.89,512.79Z"/><path d="M52.79,541.5a2.62,2.62,0,0,1,.75.93,2.53,2.53,0,0,1,.28,1.18,2.65,2.65,0,0,1-.4,1.44,2.78,2.78,0,0,1-1.18,1,4.17,4.17,0,0,1-1.82.37h-3.9V536h3.75a4.14,4.14,0,0,1,1.81.36,2.55,2.55,0,0,1,1.13.95,2.58,2.58,0,0,1,.37,1.35,2.37,2.37,0,0,1-.5,1.54,2.87,2.87,0,0,1-1.33.87A2.19,2.19,0,0,1,52.79,541.5Zm-4.91-1h2.3a2.22,2.22,0,0,0,1.48-.45,1.57,1.57,0,0,0,.53-1.25,1.55,1.55,0,0,0-.53-1.24,2.25,2.25,0,0,0-1.51-.45H47.88Zm4,4.33a1.64,1.64,0,0,0,.57-1.33,1.71,1.71,0,0,0-.6-1.37,2.41,2.41,0,0,0-1.61-.51H47.88v3.69H50.3A2.41,2.41,0,0,0,51.89,544.81Z"/><path d="M57.2,546a3.83,3.83,0,0,1-1.47-1.49,4.67,4.67,0,0,1-.53-2.25,4.35,4.35,0,0,1,.55-2.22,3.75,3.75,0,0,1,1.49-1.49,4.56,4.56,0,0,1,4.23,0A3.79,3.79,0,0,1,63,540.06a4.36,4.36,0,0,1,.55,2.23,4.47,4.47,0,0,1-.56,2.25A4,4,0,0,1,61.42,546a4.33,4.33,0,0,1-2.13.52A4.21,4.21,0,0,1,57.2,546Zm3.47-1a2.69,2.69,0,0,0,1-1,3.81,3.81,0,0,0,0-3.36,2.54,2.54,0,0,0-1-1,2.84,2.84,0,0,0-1.37-.34,2.76,2.76,0,0,0-1.37.34,2.4,2.4,0,0,0-1,1,3.48,3.48,0,0,0-.38,1.68A3.65,3.65,0,0,0,57,544a2.46,2.46,0,0,0,1,1,2.74,2.74,0,0,0,1.34.33A2.88,2.88,0,0,0,60.67,545Z"/><path d="M65.31,540.07a3.7,3.7,0,0,1,1.4-1.48,3.88,3.88,0,0,1,2-.53,3.69,3.69,0,0,1,1.79.45,3.15,3.15,0,0,1,1.26,1.16v-4.35h1.38v11.1H71.76v-1.55a3.17,3.17,0,0,1-1.2,1.21,3.52,3.52,0,0,1-1.86.47,3.74,3.74,0,0,1-3.39-2,4.72,4.72,0,0,1-.51-2.22A4.59,4.59,0,0,1,65.31,540.07Zm6.07.6a2.56,2.56,0,0,0-1-1,2.69,2.69,0,0,0-1.4-.37,2.78,2.78,0,0,0-1.4.36,2.6,2.6,0,0,0-1,1,3.34,3.34,0,0,0-.38,1.62,3.4,3.4,0,0,0,.38,1.64,2.66,2.66,0,0,0,1,1.07,2.9,2.9,0,0,0,2.8,0,2.61,2.61,0,0,0,1-1.07,3.38,3.38,0,0,0,.38-1.63A3.34,3.34,0,0,0,71.38,540.67Z"/><path d="M82.53,538.2l-5,12.09H76.17l1.62-4-3.32-8.13H76l2.58,6.66,2.55-6.66Z"/><path d="M89.59,540.34v1.16h-6v-1.16Z"/><path d="M94.75,542.81a12.36,12.36,0,0,0,1.83-2,3.75,3.75,0,0,0,.74-2.11,2.36,2.36,0,0,0-.47-1.54,1.92,1.92,0,0,0-1.53-.56,2,2,0,0,0-1.58.64,2.67,2.67,0,0,0-.61,1.7H91.81a3.62,3.62,0,0,1,1-2.6,3.45,3.45,0,0,1,2.48-.91,3.41,3.41,0,0,1,2.45.85,3.07,3.07,0,0,1,.91,2.36,4.5,4.5,0,0,1-.74,2.42,10.52,10.52,0,0,1-1.69,2.07c-.63.6-1.44,1.29-2.42,2.08H99v1.14H91.77v-1C93,544.3,94,543.47,94.75,542.81Z"/><path d="M104.83,536.59a.93.93,0,0,1,.66-1.59.85.85,0,0,1,.64.27,1,1,0,0,1,0,1.32.85.85,0,0,1-.64.27A.9.9,0,0,1,104.83,536.59Zm1.32,1.61v8.22h-1.36V538.2Z"/><path d="M109.69,546.23a2.76,2.76,0,0,1-1.18-.9A2.39,2.39,0,0,1,108,544h1.41a1.38,1.38,0,0,0,.58,1,2.16,2.16,0,0,0,1.35.39,2,2,0,0,0,1.23-.35,1.05,1.05,0,0,0,.45-.87.86.86,0,0,0-.48-.8,6.92,6.92,0,0,0-1.48-.52,11.47,11.47,0,0,1-1.49-.48,2.58,2.58,0,0,1-1-.74,1.88,1.88,0,0,1-.42-1.28,2,2,0,0,1,.38-1.16,2.56,2.56,0,0,1,1.06-.83,3.94,3.94,0,0,1,1.58-.31,3.35,3.35,0,0,1,2.2.69,2.49,2.49,0,0,1,.9,1.89H113a1.39,1.39,0,0,0-.52-1,1.93,1.93,0,0,0-1.27-.39,2,2,0,0,0-1.17.31,1,1,0,0,0-.43.83.94.94,0,0,0,.26.67,2.2,2.2,0,0,0,.66.42c.27.1.63.22,1.1.35a12.88,12.88,0,0,1,1.44.47,2.65,2.65,0,0,1,1,.7,1.88,1.88,0,0,1,.41,1.21,2.1,2.1,0,0,1-.38,1.22,2.55,2.55,0,0,1-1.05.85,3.89,3.89,0,0,1-1.57.3A4.19,4.19,0,0,1,109.69,546.23Z"/><path d="M120.93,536.86a3.69,3.69,0,0,1,5.86,0,8,8,0,0,1,.84,4,8.22,8.22,0,0,1-.84,4.08,3.67,3.67,0,0,1-5.86,0,8.22,8.22,0,0,1-.84-4.08A8,8,0,0,1,120.93,536.86Zm5.18,1.81a2.82,2.82,0,0,0-.7-1.46,2.41,2.41,0,0,0-3.09,0,2.83,2.83,0,0,0-.71,1.46,12.57,12.57,0,0,0-.17,2.21,13.06,13.06,0,0,0,.17,2.27,2.82,2.82,0,0,0,.71,1.47,2.45,2.45,0,0,0,3.09,0,2.82,2.82,0,0,0,.7-1.47,12.14,12.14,0,0,0,.17-2.27A11.67,11.67,0,0,0,126.11,538.67Z"/><path d="M129.51,546.24a.93.93,0,0,1,.66-1.59.87.87,0,0,1,.64.27,1,1,0,0,1,0,1.32.87.87,0,0,1-.64.27A.9.9,0,0,1,129.51,546.24Z"/><path d="M139.57,536.76h-5.26v3.42a2.54,2.54,0,0,1,1-.79,3.53,3.53,0,0,1,1.45-.31,3.66,3.66,0,0,1,2,.52,3,3,0,0,1,1.12,1.34,4.55,4.55,0,0,1,.33,1.73,4.44,4.44,0,0,1-.4,1.93,3,3,0,0,1-1.24,1.35,4,4,0,0,1-2.06.5,3.86,3.86,0,0,1-2.55-.81,3.38,3.38,0,0,1-1.19-2.16h1.34a2.22,2.22,0,0,0,.82,1.33,2.55,2.55,0,0,0,1.59.48,2.2,2.2,0,0,0,1.79-.71,2.81,2.81,0,0,0,.6-1.88,2.55,2.55,0,0,0-.6-1.81,2.34,2.34,0,0,0-1.77-.64,2.49,2.49,0,0,0-1.39.39,2.2,2.2,0,0,0-.86,1h-1.29v-6.12h6.52Z"/><path d="M146.59,546.42l-2-3.06-1.87,3.06h-1.43l2.66-4.08-2.66-4.14h1.55l2,3,1.86-3h1.42l-2.64,4.06,2.66,4.16Z"/><path d="M162.63,536l-3,10.46h-1.53L155.64,538l-2.52,8.42H151.6L148.68,536h1.45l2.28,8.87,2.52-8.87h1.53l2.4,8.84,2.3-8.84Z"/><path d="M170.35,536.6a4.56,4.56,0,0,1,1.92,1.82,6.23,6.23,0,0,1,0,5.58,4.52,4.52,0,0,1-1.92,1.8,6.7,6.7,0,0,1-3,.62h-3.25V536h3.25A6.57,6.57,0,0,1,170.35,536.6Zm.12,7.62a4.08,4.08,0,0,0,1.07-3,3.78,3.78,0,0,0-4.16-4.14h-1.89v8.22h1.89A4.15,4.15,0,0,0,170.47,544.22Z"/><path d="M50.94,571.31a1.9,1.9,0,0,1,.45,1.25,2,2,0,0,1-.29,1.05,2,2,0,0,1-.86.74,3,3,0,0,1-1.34.27H46.24v-7.69h2.59a2.6,2.6,0,0,1,1.77.54,1.93,1.93,0,0,1,.23,2.56,2.12,2.12,0,0,1-1,.62A1.84,1.84,0,0,1,50.94,571.31Zm-3.93-1H48.8A1.77,1.77,0,0,0,50,570a1.28,1.28,0,0,0,.42-1,1.26,1.26,0,0,0-.42-1,1.87,1.87,0,0,0-1.24-.36H47Zm3.14,3.24a1.34,1.34,0,0,0,.47-1.08,1.38,1.38,0,0,0-.49-1.11,2,2,0,0,0-1.32-.41H47v3h1.84A1.93,1.93,0,0,0,50.15,573.57Z"/><path d="M53.91,574.33a2.75,2.75,0,0,1-1.06-1.08,3.54,3.54,0,0,1,0-3.27,2.8,2.8,0,0,1,1.08-1.08,3.1,3.1,0,0,1,1.53-.38,3.15,3.15,0,0,1,1.53.38A2.8,2.8,0,0,1,58.07,570a3.32,3.32,0,0,1,.39,1.64,3.19,3.19,0,0,1-.4,1.62A2.76,2.76,0,0,1,57,574.33a3.22,3.22,0,0,1-1.54.38A3.1,3.1,0,0,1,53.91,574.33Zm2.63-.56a2.08,2.08,0,0,0,.82-.82,2.72,2.72,0,0,0,.31-1.33,2.63,2.63,0,0,0-.31-1.34,2,2,0,0,0-.81-.81,2.33,2.33,0,0,0-1.1-.27,2.27,2.27,0,0,0-1.1.27,2,2,0,0,0-.81.81,3.12,3.12,0,0,0,0,2.67,2,2,0,0,0,.8.82,2.3,2.3,0,0,0,1.1.27A2.33,2.33,0,0,0,56.54,573.77Z"/><path d="M59.89,570a2.75,2.75,0,0,1,1-1.08,2.94,2.94,0,0,1,1.48-.38,2.69,2.69,0,0,1,1.43.39,2.35,2.35,0,0,1,.93,1v-3.43h.77v8.14h-.77v-1.34a2.28,2.28,0,0,1-.9,1,2.74,2.74,0,0,1-1.47.4,2.82,2.82,0,0,1-1.48-.39,2.56,2.56,0,0,1-1-1.09,3.75,3.75,0,0,1,0-3.25Zm4.58.36a2.14,2.14,0,0,0-.81-.85,2.19,2.19,0,0,0-1.13-.29,2.27,2.27,0,0,0-1.14.28,2,2,0,0,0-.8.83,3,3,0,0,0,0,2.59,2,2,0,0,0,.8.84,2.3,2.3,0,0,0,2.27,0,2.14,2.14,0,0,0,.81-.85,2.7,2.7,0,0,0,.29-1.27A2.75,2.75,0,0,0,64.47,570.34Z"/><path d="M72.24,568.61l-3.56,8.84h-.8L69,574.59l-2.46-6h.85l2,5.13,2-5.13Z"/><path d="M77,570.22v.65H72.74v-.65Z"/><path d="M79.58,567.17a2.69,2.69,0,0,1,1.8-.58,2.87,2.87,0,0,1,1.27.26,1.94,1.94,0,0,1,.8.72,2,2,0,0,1,.27,1,1.88,1.88,0,0,1-.41,1.2,1.78,1.78,0,0,1-1.16.63v.05a2.19,2.19,0,0,1,1.25.68,2,2,0,0,1,.46,1.37,2,2,0,0,1-.63,1.54,2.57,2.57,0,0,1-1.83.6,2.91,2.91,0,0,1-1.89-.6,2.36,2.36,0,0,1-.84-1.69h.75a1.86,1.86,0,0,0,.61,1.19,2,2,0,0,0,1.37.45,1.73,1.73,0,0,0,1.28-.44,1.51,1.51,0,0,0,.44-1.12c0-1.11-.8-1.67-2.41-1.67h-.24v-.65h.25c1.5,0,2.25-.49,2.25-1.46a1.33,1.33,0,0,0-.42-1,1.67,1.67,0,0,0-1.19-.39,1.89,1.89,0,0,0-1.23.39,1.59,1.59,0,0,0-.58,1.1H78.8A2.14,2.14,0,0,1,79.58,567.17Z"/><path d="M88.44,567.31a.56.56,0,0,1,.39-1,.54.54,0,0,1,.4.16.58.58,0,0,1,0,.8.51.51,0,0,1-.4.17A.5.5,0,0,1,88.44,567.31Zm.78,1.3v6h-.77v-6Z"/><path d="M91.34,574.23a1.75,1.75,0,0,1-.73-1.3h.8a1.09,1.09,0,0,0,.47.81,1.9,1.9,0,0,0,1.14.32,1.5,1.5,0,0,0,1-.3.91.91,0,0,0,.35-.74.68.68,0,0,0-.19-.5,1.59,1.59,0,0,0-.5-.32c-.21-.07-.48-.16-.82-.24a8.16,8.16,0,0,1-1.09-.36,1.75,1.75,0,0,1-.71-.52,1.36,1.36,0,0,1-.29-.93,1.35,1.35,0,0,1,.26-.81,1.78,1.78,0,0,1,.75-.59,2.57,2.57,0,0,1,1.1-.23,2.43,2.43,0,0,1,1.56.49,1.78,1.78,0,0,1,.64,1.35H94.3a1.18,1.18,0,0,0-.41-.85,1.83,1.83,0,0,0-2,0,.82.82,0,0,0-.36.68.81.81,0,0,0,.21.58,1.37,1.37,0,0,0,.54.35,7,7,0,0,0,.85.28,8.48,8.48,0,0,1,1,.34,1.84,1.84,0,0,1,.66.49,1.25,1.25,0,0,1,.28.84,1.46,1.46,0,0,1-.26.87,1.85,1.85,0,0,1-.74.6,2.65,2.65,0,0,1-1.09.22A2.79,2.79,0,0,1,91.34,574.23Z"/><path d="M100,567.67a2.61,2.61,0,0,1,4.18,0,6,6,0,0,1,.58,2.93,6.2,6.2,0,0,1-.58,3,2.6,2.6,0,0,1-4.19,0,6.32,6.32,0,0,1-.58-3A6,6,0,0,1,100,567.67Zm3.86,1.21a2.27,2.27,0,0,0-.56-1.14,1.92,1.92,0,0,0-2.42,0,2.19,2.19,0,0,0-.56,1.14,8.39,8.39,0,0,0-.15,1.72,8.71,8.71,0,0,0,.15,1.77,2.19,2.19,0,0,0,.56,1.14,1.92,1.92,0,0,0,2.42,0,2.27,2.27,0,0,0,.56-1.14,9.6,9.6,0,0,0,.14-1.77A9.25,9.25,0,0,0,103.87,568.88Z"/><path d="M106.1,574.51a.56.56,0,0,1-.16-.41.54.54,0,0,1,.16-.4.52.52,0,0,1,.4-.16.53.53,0,0,1,.39.16.58.58,0,0,1,.16.4.6.6,0,0,1-.16.41.53.53,0,0,1-.39.16A.52.52,0,0,1,106.1,574.51Z"/><path d="M111.18,571.29a3.57,3.57,0,0,0,1.1-2.36,1.79,1.79,0,0,0-.38-1.21,1.49,1.49,0,0,0-1.23-.46,1.64,1.64,0,0,0-1.3.52,2.31,2.31,0,0,0-.51,1.39h-.75a2.77,2.77,0,0,1,.76-1.89,2.74,2.74,0,0,1,3.52-.08,2.19,2.19,0,0,1,.66,1.7,3.89,3.89,0,0,1-1.1,2.58,18.35,18.35,0,0,1-2.72,2.44h4.07v.64h-5.25V574A23.49,23.49,0,0,0,111.18,571.29Z"/><path d="M119.47,567.39h-4v2.82a1.91,1.91,0,0,1,.8-.63,3,3,0,0,1,2.62.12,2.11,2.11,0,0,1,.83.95,3.37,3.37,0,0,1,.25,1.26,3.26,3.26,0,0,1-.29,1.39,2.25,2.25,0,0,1-.89,1,2.86,2.86,0,0,1-1.49.36,2.73,2.73,0,0,1-1.84-.59,2.46,2.46,0,0,1-.86-1.59h.76a1.85,1.85,0,0,0,.66,1.13,2.05,2.05,0,0,0,1.28.39,1.82,1.82,0,0,0,1.44-.56,2.21,2.21,0,0,0,.49-1.51,2,2,0,0,0-.49-1.42,1.9,1.9,0,0,0-1.42-.51,2.06,2.06,0,0,0-1.12.3,1.69,1.69,0,0,0-.72.8h-.73v-4.37h4.75Z"/><path d="M124.59,574.62,123,572.2l-1.5,2.42h-.81l1.94-3-1.92-3h.87l1.53,2.39,1.49-2.39h.8l-1.92,3,1.94,3Z"/><path d="M135.83,566.93l-2.17,7.69h-.86l-1.94-6.56-2,6.56h-.83l-2.14-7.7h.83l1.76,6.74,2-6.74h.85l1.92,6.74,1.77-6.74Z"/><path d="M141.48,567.39a3.19,3.19,0,0,1,1.39,1.33,4.12,4.12,0,0,1,.49,2.07,4,4,0,0,1-.49,2.05,3.12,3.12,0,0,1-1.39,1.32,4.78,4.78,0,0,1-2.19.46H137v-7.69h2.28A4.78,4.78,0,0,1,141.48,567.39Zm.26,5.75a3.17,3.17,0,0,0,.84-2.35,3.24,3.24,0,0,0-.84-2.37,3.3,3.3,0,0,0-2.45-.85h-1.51V574h1.51A3.34,3.34,0,0,0,141.74,573.14Z"/><path d="M46.2,595.61a2.94,2.94,0,0,1,1.1-1.14,3,3,0,0,1,1.57-.41,3.12,3.12,0,0,1,1.8.5,2.8,2.8,0,0,1,1.1,1.4H51a2.24,2.24,0,0,0-.82-1,2.5,2.5,0,0,0-1.34-.36,2.41,2.41,0,0,0-1.25.33,2.28,2.28,0,0,0-.86.93,3,3,0,0,0-.32,1.41,3,3,0,0,0,.32,1.4,2.22,2.22,0,0,0,.86.93,2.67,2.67,0,0,0,2.59,0,2.16,2.16,0,0,0,.82-1h.74a2.86,2.86,0,0,1-1.1,1.4,3.19,3.19,0,0,1-1.8.49,3,3,0,0,1-1.57-.41,2.94,2.94,0,0,1-1.1-1.14,3.31,3.31,0,0,1-.41-1.65A3.38,3.38,0,0,1,46.2,595.61Z"/><path d="M53,596.63a2.13,2.13,0,0,1,.84-.89,2.45,2.45,0,0,1,1.21-.31,2.17,2.17,0,0,1,1.21.33,1.85,1.85,0,0,1,.73.82V595.5h.63v4.92H57v-1.09a1.9,1.9,0,0,1-.74.83,2.17,2.17,0,0,1-1.21.33,2.33,2.33,0,0,1-1.2-.31,2.19,2.19,0,0,1-.84-.89,2.88,2.88,0,0,1-.3-1.34A2.79,2.79,0,0,1,53,596.63Zm3.75.29a1.69,1.69,0,0,0-.66-.69,1.74,1.74,0,0,0-.92-.25,1.85,1.85,0,0,0-.94.24,1.64,1.64,0,0,0-.65.68,2.14,2.14,0,0,0-.24,1.05,2.24,2.24,0,0,0,.24,1.06,1.73,1.73,0,0,0,.65.69,1.85,1.85,0,0,0,.94.24,1.83,1.83,0,0,0,.92-.24,1.69,1.69,0,0,0,.66-.69,2.4,2.4,0,0,0,0-2.09Z"/><path d="M60.46,595.76a2.17,2.17,0,0,1,1.21-.33,2.44,2.44,0,0,1,1.2.31,2.13,2.13,0,0,1,.84.89A2.79,2.79,0,0,1,64,598a2.88,2.88,0,0,1-.3,1.34,2.19,2.19,0,0,1-.84.89,2.33,2.33,0,0,1-1.2.31,2.19,2.19,0,0,1-1.21-.33,2,2,0,0,1-.75-.82v3.4h-.62V595.5h.62v1.08A2,2,0,0,1,60.46,595.76Zm2.67,1.14a1.64,1.64,0,0,0-.65-.68,1.85,1.85,0,0,0-.94-.24,1.74,1.74,0,0,0-.92.25,1.69,1.69,0,0,0-.66.69A2.31,2.31,0,0,0,60,599a1.69,1.69,0,0,0,.66.69,1.83,1.83,0,0,0,.92.24,1.85,1.85,0,0,0,.94-.24,1.73,1.73,0,0,0,.65-.69,2.24,2.24,0,0,0,.24-1.06A2.14,2.14,0,0,0,63.13,596.9Z"/><path d="M66,596v3.05a.85.85,0,0,0,.17.62.84.84,0,0,0,.6.17h.58v.54h-.68a1.38,1.38,0,0,1-1-.31,1.4,1.4,0,0,1-.32-1V596h-.69v-.54h.69v-1.23H66v1.23h1.35V596Z"/><path d="M68.36,594.44a.46.46,0,0,1,.33-.79.44.44,0,0,1,.32.13.46.46,0,0,1,0,.66.45.45,0,0,1-.32.14A.45.45,0,0,1,68.36,594.44ZM69,595.5v4.92h-.63V595.5Z"/><path d="M71.34,600.18a2.23,2.23,0,0,1-.87-.88,2.63,2.63,0,0,1-.32-1.34,2.59,2.59,0,0,1,.32-1.33,2.28,2.28,0,0,1,.88-.89,2.6,2.6,0,0,1,1.25-.31,2.67,2.67,0,0,1,1.26.31,2.22,2.22,0,0,1,.88.89,2.92,2.92,0,0,1,0,2.66,2.27,2.27,0,0,1-.9.89,2.5,2.5,0,0,1-1.26.31A2.46,2.46,0,0,1,71.34,600.18Zm2.14-.46a1.79,1.79,0,0,0,.68-.66,2.21,2.21,0,0,0,.25-1.1,2.17,2.17,0,0,0-.25-1.09,1.66,1.66,0,0,0-.67-.67,1.93,1.93,0,0,0-.9-.22,2,2,0,0,0-.9.22,1.7,1.7,0,0,0-.66.67,2.28,2.28,0,0,0-.25,1.09,2.32,2.32,0,0,0,.25,1.1,1.74,1.74,0,0,0,.66.66,1.93,1.93,0,0,0,1.79,0Z"/><path d="M80,596a2.11,2.11,0,0,1,.55,1.58v2.88h-.62v-2.81a1.69,1.69,0,0,0-.4-1.22A1.39,1.39,0,0,0,78.4,596a1.5,1.5,0,0,0-1.14.45,1.9,1.9,0,0,0-.42,1.33v2.68h-.63V595.5h.63v.84a1.62,1.62,0,0,1,.68-.69A2.23,2.23,0,0,1,80,596Z"/><path d="M84.37,594.44a.46.46,0,0,1,0-.66.46.46,0,0,1,.64,0,.46.46,0,0,1,0,.66.44.44,0,0,1-.64,0ZM85,595.5v4.92h-.63V595.5Z"/><path d="M86.75,600.1a1.42,1.42,0,0,1-.6-1.07h.65a.92.92,0,0,0,.39.67,1.53,1.53,0,0,0,.93.26,1.21,1.21,0,0,0,.8-.24.76.76,0,0,0,.3-.61.57.57,0,0,0-.17-.41,1.11,1.11,0,0,0-.41-.26,5.8,5.8,0,0,0-.67-.2,5.82,5.82,0,0,1-.89-.29,1.6,1.6,0,0,1-.58-.42,1.23,1.23,0,0,1,0-1.43,1.51,1.51,0,0,1,.61-.49,2.19,2.19,0,0,1,.9-.18,2,2,0,0,1,1.28.4,1.47,1.47,0,0,1,.52,1.11h-.63a1,1,0,0,0-.34-.7A1.24,1.24,0,0,0,88,596a1.26,1.26,0,0,0-.77.23.67.67,0,0,0-.3.56.64.64,0,0,0,.18.47,1.25,1.25,0,0,0,.44.29c.17.07.4.14.7.23a7.69,7.69,0,0,1,.84.27,1.52,1.52,0,0,1,.54.4,1.11,1.11,0,0,1,.24.69,1.17,1.17,0,0,1-.22.71,1.4,1.4,0,0,1-.6.49,2.11,2.11,0,0,1-.89.18A2.26,2.26,0,0,1,86.75,600.1Z"/><path d="M93.83,594.73a1.79,1.79,0,0,1,1.71-.85,1.77,1.77,0,0,1,1.71.85,5,5,0,0,1,.48,2.4,5.07,5.07,0,0,1-.48,2.44,2.12,2.12,0,0,1-3.42,0,6.46,6.46,0,0,1,0-4.84Zm3.16,1a1.86,1.86,0,0,0-.46-.93,1.31,1.31,0,0,0-1-.35,1.34,1.34,0,0,0-1,.35,1.94,1.94,0,0,0-.46.93,8,8,0,0,0-.11,1.41,8.31,8.31,0,0,0,.11,1.45,1.86,1.86,0,0,0,.46.93,1.34,1.34,0,0,0,1,.35,1.31,1.31,0,0,0,1-.35,1.78,1.78,0,0,0,.46-.93,7.35,7.35,0,0,0,.12-1.45A7.06,7.06,0,0,0,97,595.72Z"/><path d="M98.81,600.33a.49.49,0,0,1-.13-.33.45.45,0,0,1,.13-.33.44.44,0,0,1,.33-.13.41.41,0,0,1,.32.13.42.42,0,0,1,.13.33.44.44,0,0,1-.13.33.41.41,0,0,1-.32.13A.44.44,0,0,1,98.81,600.33Z"/><path d="M103,597.7a2.89,2.89,0,0,0,.91-1.93,1.55,1.55,0,0,0-.31-1,1.26,1.26,0,0,0-1-.37,1.31,1.31,0,0,0-1,.43,1.82,1.82,0,0,0-.42,1.13h-.61a2.26,2.26,0,0,1,.61-1.55,2.27,2.27,0,0,1,2.89-.06,1.79,1.79,0,0,1,.54,1.39,3.15,3.15,0,0,1-.91,2.11,14.17,14.17,0,0,1-2.22,2h3.33v.53h-4.3v-.45A18.42,18.42,0,0,0,103,597.7Z"/><path d="M108.4,600.42l-1.27-2-1.23,2h-.66l1.58-2.46-1.57-2.46H106l1.25,2,1.21-2h.66l-1.57,2.44,1.59,2.48Z"/><path d="M117.59,594.13l-1.78,6.29h-.7l-1.59-5.36-1.62,5.36h-.68l-1.75-6.3h.68l1.44,5.52,1.61-5.52h.7l1.57,5.52,1.45-5.52Z"/><path d="M122.21,594.51a2.59,2.59,0,0,1,1.14,1.08,3.39,3.39,0,0,1,.4,1.7,3.34,3.34,0,0,1-.4,1.68,2.59,2.59,0,0,1-1.14,1.08,4.11,4.11,0,0,1-1.79.37h-1.86v-6.29h1.86A3.84,3.84,0,0,1,122.21,594.51Zm.21,4.7a2.6,2.6,0,0,0,.69-1.92,2.63,2.63,0,0,0-.69-1.94,2.68,2.68,0,0,0-2-.7h-1.23v5.25h1.23A2.71,2.71,0,0,0,122.42,599.21Z"/></g></svg>