<svg xmlns="http://www.w3.org/2000/svg" viewBox="0 0 1152 648"><defs><style>.cls-1{fill:#79e45e;}.cls-2{fill:#fff;}.cls-3{fill:none;stroke:#000;stroke-miterlimit:10;stroke-width:2px;}</style></defs><g id="Layer_4" data-name="Layer 4"><circle class="cls-1" cx="323.16" cy="324.84" r="277.8"/><rect class="cls-1" x="1106.64" width="45.43" height="45.43"/><circle cx="1129.35" cy="22.71" r="22.71"/><rect class="cls-1" x="1106.64" y="602.57" width="45.43" height="45.43"/><circle cx="1129.35" cy="625.29" r="22.71"/><rect class="cls-1" x="600.96" y="301.29" width="45.43" height="45.43"/><circle cx="623.67" cy="324" r="22.71"/><rect x="555.53" y="301.29" width="45.43" height="45.43"/><circle class="cls-2" cx="578.25" cy="324" r="22.71"/><rect x="45.36" y="301.29" width="45.43" height="45.43"/><circle class="cls-2" cx="68.07" cy="324" r="22.71"/><rect x="300.45" y="46.2" width="45.43" height="45.43" transform="translate(254.25 392.07) rotate(-90)"/><circle class="cls-2" cx="323.16" cy="68.91" r="22.71"/><rect x="300.45" y="556.37" width="45.43" height="45.43" transform="translate(-255.93 902.25) rotate(-90)"/><circle class="cls-2" cx="323.16" cy="579.09" r="22.71"/><path class="cls-3" d="M488.4,602.64a323.4,323.4,0,0,0-1.9-556.72h620.14V602.64Z"/><circle class="cls-3" cx="323.16" cy="324.84" r="232.38"/></g></svg>