<svg xmlns="http://www.w3.org/2000/svg" viewBox="0 0 1152 648"><defs><style>.cls-1{fill:#79e45e;}.cls-2{fill:#fff;}.cls-3{fill:none;stroke:#000;stroke-miterlimit:10;stroke-width:2px;}</style></defs><g id="Layer_4" data-name="Layer 4"><path class="cls-1" d="M752.88,324c0,133.41,65.46,251.53,166,324H1152V0H918.89C818.34,72.47,752.88,190.59,752.88,324Z"/><rect class="cls-1" width="399.12" height="648"/><rect width="45.43" height="45.43"/><circle class="cls-2" cx="22.71" cy="22.71" r="22.71"/><rect x="353.69" width="45.43" height="45.43"/><circle class="cls-2" cx="376.41" cy="22.71" r="22.71"/><rect class="cls-2" x="1106.64" width="45.43" height="45.43"/><circle cx="1129.35" cy="22.71" r="22.71"/><rect class="cls-2" x="1106.64" y="602.57" width="45.43" height="45.43"/><circle cx="1129.35" cy="625.29" r="22.71"/><rect class="cls-2" x="752.88" y="301.29" width="45.43" height="45.43"/><circle cx="775.59" cy="324" r="22.71"/><rect y="602.57" width="45.43" height="45.43"/><circle class="cls-2" cx="22.71" cy="625.29" r="22.71"/><rect x="353.69" y="602.57" width="45.43" height="45.43"/><circle class="cls-2" cx="376.41" cy="625.29" r="22.71"/><rect class="cls-1" x="399.12" width="45.43" height="45.43"/><circle cx="421.83" cy="22.71" r="22.71"/><rect x="707.45" y="301.29" width="45.43" height="45.43"/><circle class="cls-1" cx="730.17" cy="324" r="22.71"/><rect class="cls-1" x="399.12" y="602.57" width="45.43" height="45.43"/><circle cx="421.83" cy="625.29" r="22.71"/><rect class="cls-3" x="45.36" y="45.43" width="308.4" height="557.15"/><path class="cls-3" d="M444.48,602.64V45.36H805.75a443.58,443.58,0,0,0,0,557.28Z"/><path class="cls-3" d="M934,602.64a357.16,357.16,0,0,1-95.66-114.83,354.4,354.4,0,0,1,0-327.62A357.16,357.16,0,0,1,934,45.36h172.61V602.64Z"/></g></svg>