<svg xmlns="http://www.w3.org/2000/svg" viewBox="0 0 648 648"><g id="Main_Grid" data-name="Main Grid"><path d="M232.53,114.48a17.35,17.35,0,0,1-6.87-1.38,17.6,17.6,0,0,1-9.44-9.44,17.18,17.18,0,0,1-1.39-6.87V75.93h8.69V95.52a8.07,8.07,0,0,0,.72,3.4,9.08,9.08,0,0,0,1.89,2.77,8.47,8.47,0,0,0,2.77,1.85,8.33,8.33,0,0,0,3.31.67h14.22a6.86,6.86,0,0,0,5.06-2,6.78,6.78,0,0,0,2-5V46.54h8.69V98.61a15.34,15.34,0,0,1-1.26,6.2,16.1,16.1,0,0,1-8.41,8.41,15.34,15.34,0,0,1-6.2,1.26Z"/><path d="M301.1,99a18.84,18.84,0,0,1-1,6,20,20,0,0,1-2.64,5.29,19.21,19.21,0,0,1-9.52,7.07L277.17,121l-2.69-8.29L285.62,109a10.48,10.48,0,0,0,4.86-3.31,8.45,8.45,0,0,0,1.85-5.46v-.55a10.12,10.12,0,0,1-2.13.67,11.47,11.47,0,0,1-2.53.28h-5.29A11.9,11.9,0,0,1,277,99.44a12.61,12.61,0,0,1-4.15-3.28,12.3,12.3,0,0,1-2.41-4.7,12.08,12.08,0,0,1-.16-5.49l1.35-7.19a11.31,11.31,0,0,1,1.54-4,13.22,13.22,0,0,1,2.72-3.2,12.06,12.06,0,0,1,7.82-2.85h4.43a12.63,12.63,0,0,1,5.05,1,12.84,12.84,0,0,1,4.11,2.81,13.4,13.4,0,0,1,2.76,4.14,12.51,12.51,0,0,1,1,5.06Zm-8.69-8.61V81.7a3,3,0,0,0-.87-2.17,2.82,2.82,0,0,0-2.13-.91H283a2.77,2.77,0,0,0-1.9.71,3.34,3.34,0,0,0-1,1.82l-1.27,6.32a2.29,2.29,0,0,0,.52,2,2.37,2.37,0,0,0,1.93.91Z"/><path d="M319.27,100.66h-8.69V46.54h8.69Z"/><path d="M328,74.83h23.38v9.63H328Z"/><path d="M360.82,96.87V73.72h8.69V95.6a8.6,8.6,0,0,0,5.3,8,8.51,8.51,0,0,0,3.39.67h14.14a7,7,0,0,0,7.11-7.11V72.46h8.69V86.6a3.79,3.79,0,0,0,3.8,3.79h4.89a1,1,0,0,1,.79.36,1.19,1.19,0,0,1,.32.82v8a1.1,1.1,0,0,1-.32.75,1,1,0,0,1-.79.36h-3.55a5.7,5.7,0,0,1-3.71-1,10,10,0,0,1-1.51-1.5v2a12.3,12.3,0,0,1-1.3,5.6,15.72,15.72,0,0,1-3.47,4.59,16.17,16.17,0,0,1-5,3.08,16.6,16.6,0,0,1-6,1.1H378.52a17.31,17.31,0,0,1-6.87-1.38,17.6,17.6,0,0,1-9.44-9.44A17.18,17.18,0,0,1,360.82,96.87Zm19.12-33.5H389v9.09h-9.09Z"/><path d="M435,90.39a3.58,3.58,0,0,0,2.69-1.15,3.77,3.77,0,0,0,1.11-2.72V70.17h8.69V86.52A13.67,13.67,0,0,1,446.38,92a14.36,14.36,0,0,1-3,4.5,14.19,14.19,0,0,1-4.5,3,13.76,13.76,0,0,1-5.5,1.11H416.83a1,1,0,0,1-.79-.36,1.09,1.09,0,0,1-.31-.75v-8a1.18,1.18,0,0,1,.31-.82,1,1,0,0,1,.79-.36Zm-17,28.83h9v-9.08h-9Zm13.11,0h9.09v-9.08h-9.09Z"/><path d="M492,46.54V85a15.25,15.25,0,0,1-1,5.37,14.38,14.38,0,0,1-2.68,4.5,15.13,15.13,0,0,1-4.11,3.28,14.84,14.84,0,0,1-5.14,1.7L456.65,103l-1.27-9.32L464,92.6l-3.8-41L469,50.42l3.64,41.08,5.76-.72a5.78,5.78,0,0,0,3.56-1.89,5.46,5.46,0,0,0,1.42-3.79V46.54Z"/><path d="M540.55,90.39h2.21a1.06,1.06,0,0,1,.75.36,1.1,1.1,0,0,1,.35.82v8a1.09,1.09,0,0,1-.31.75,1,1,0,0,1-.79.36h-1.58a12.07,12.07,0,0,1-5.61-1.26,16.09,16.09,0,0,1-4-2.85,15.42,15.42,0,0,1-4.46,3,13.45,13.45,0,0,1-5.57,1.15H511.16a10,10,0,0,1-4-.83,10.71,10.71,0,0,1-3.32-2.25,10.55,10.55,0,0,1-2.25-3.36,10.29,10.29,0,0,1-.83-4.07V79.88h7.43v8.69a1.71,1.71,0,0,0,.55,1.31,1.81,1.81,0,0,0,1.26.51h11.62a5.15,5.15,0,0,0,2.25-.51,5.49,5.49,0,0,0,1.78-1.35,4.63,4.63,0,0,0,1-1.89,4,4,0,0,0,0-2.18l-6.32-22.83,8.22-3,8.06,28.68a4.27,4.27,0,0,0,1.5,2.21A4,4,0,0,0,540.55,90.39Z"/><path d="M542.76,100.66a1,1,0,0,1-1.11-1.11v-8a1,1,0,0,1,1.11-1.11H550a1.74,1.74,0,0,1-.68-1,4.79,4.79,0,0,1-.19-1.42,11.25,11.25,0,0,1,.12-1.62c.07-.55.14-1,.19-1.38l1.11-5.37a13.31,13.31,0,0,1,1.58-4,12,12,0,0,1,2.69-3.16,12.36,12.36,0,0,1,3.59-2.06,12,12,0,0,1,4.23-.75h3.24a12,12,0,0,1,4.93,1,13.25,13.25,0,0,1,4.07,2.76,13.4,13.4,0,0,1,2.77,4.07,12.21,12.21,0,0,1,1,4.94V86.6a9.27,9.27,0,0,1-.31,2.53c-.21.73-.35,1.15-.4,1.26h12V79a4.93,4.93,0,0,0-1-3,5.12,5.12,0,0,0-2.53-1.86l-28.28-8.76,2.37-9L588,65a14.85,14.85,0,0,1,7.7,5.45,16,16,0,0,1,2.17,4.19,14.59,14.59,0,0,1,.79,4.82v11.3a9.54,9.54,0,0,1-.79,3.87,9.87,9.87,0,0,1-5.33,5.29,9.83,9.83,0,0,1-3.91.79H575.94V94.89a6.39,6.39,0,0,1-1.78,2.69,11.29,11.29,0,0,1-2.61,1.78,13.54,13.54,0,0,1-2.72,1,10.15,10.15,0,0,1-2.21.32ZM570,90.39V81.7a2.8,2.8,0,0,0-.87-2,2.9,2.9,0,0,0-2.13-.87h-5.13a3,3,0,0,0-2,.71,2.79,2.79,0,0,0-1,1.81l-1,6.09a2.31,2.31,0,0,0,.55,2.09,2.51,2.51,0,0,0,2,.91Z"/><path d="M251.49,140.32l-15.4,55.14h-13L212.7,156.2l-10.82,39.26-13,.08-14.85-55.22h11.85l9.72,42.82,11.22-42.82h12.32l10.59,42.58,9.79-42.58Z"/><path d="M293.24,143.71a24.3,24.3,0,0,1,10.19,9.68A28.82,28.82,0,0,1,307,168a28.32,28.32,0,0,1-3.6,14.49,24.3,24.3,0,0,1-10.19,9.6,32.86,32.86,0,0,1-15.28,3.4H258.68V140.32H278A33,33,0,0,1,293.24,143.71ZM291,181.32q4.74-4.74,4.74-13.35T291,154.5q-4.74-4.86-13.43-4.86h-7.82v36.42h7.82Q286.25,186.06,291,181.32Z"/><path d="M340.44,167.18V182a2.81,2.81,0,0,0,1.19,2.33,4.17,4.17,0,0,0,2.61.91H350a1,1,0,0,1,1.11,1.11v8a1,1,0,0,1-1.11,1.11h-4.34a9.64,9.64,0,0,1-2.85-.47,4.16,4.16,0,0,1-2.37-2v1.42a16.91,16.91,0,0,1-1,5.73,19,19,0,0,1-2.73,5,19.25,19.25,0,0,1-9.32,6.63l-10.9,3.72-2.69-8.14,11.38-3.71a9,9,0,0,0,4.78-3.52,9.73,9.73,0,0,0,1.77-5.65V167.18Z"/><path d="M363.43,185.19a3.58,3.58,0,0,0,2.69-1.15,3.76,3.76,0,0,0,1.1-2.72V165h8.7v16.35a13.67,13.67,0,0,1-1.11,5.49,14.36,14.36,0,0,1-3,4.5,14.12,14.12,0,0,1-4.51,3,13.67,13.67,0,0,1-5.49,1.11H350a1,1,0,0,1-.79-.36,1.09,1.09,0,0,1-.31-.75v-8a1.22,1.22,0,0,1,.31-.83,1,1,0,0,1,.79-.35Zm-11.37,19.75h9.08V214h-9.08Z"/><path d="M393.29,195.46H384.6V141.34h8.69Z"/><path d="M411.62,167.18V182a2.81,2.81,0,0,0,1.19,2.33,4.16,4.16,0,0,0,2.6.91h5.77a1,1,0,0,1,1.11,1.11v8a1,1,0,0,1-1.11,1.11h-4.34A9.64,9.64,0,0,1,414,195a4.16,4.16,0,0,1-2.37-2v1.42a16.68,16.68,0,0,1-1,5.73,18.64,18.64,0,0,1-2.72,5,19.25,19.25,0,0,1-9.32,6.63l-10.91,3.72L385,207.39l11.37-3.71a8.93,8.93,0,0,0,4.78-3.52,9.66,9.66,0,0,0,1.78-5.65V167.18Z"/><path d="M434.61,185.19A3.59,3.59,0,0,0,437.3,184a3.8,3.8,0,0,0,1.1-2.72V165h8.69v16.35a13.84,13.84,0,0,1-1.1,5.49,14.26,14.26,0,0,1-7.55,7.54,13.67,13.67,0,0,1-5.49,1.11H421.18a1,1,0,0,1-.79-.36,1.1,1.1,0,0,1-.32-.75v-8a1.23,1.23,0,0,1,.32-.83,1,1,0,0,1,.79-.35Zm-11.38,19.75h9.09V214h-9.09Z"/><path d="M466.53,195.46V160.94a64,64,0,0,0-.4-7.07c-.26-2.35-.63-4.7-1.11-7.07l-1.34-6.64,8.61-1.66,1.42,7.19a71.6,71.6,0,0,1,1.15,7.7q.36,3.84.36,7.63v34.44Z"/><path d="M485.48,184.72h9.8v10.74h-9.8Z"/><path d="M521,195.46a145,145,0,0,0-4.86-23.35,139.68,139.68,0,0,0-5.89-16,69,69,0,0,0-7-12.33l7.66-6.32Q513,141,514.6,144t3.47,6.76c1.24,2.55,2.38,5.2,3.44,7.94a75.17,75.17,0,0,1,2.64,8.25,30.67,30.67,0,0,1,1.07,7.7,27.65,27.65,0,0,1,.63-5.68,62.6,62.6,0,0,1,1.62-6.13c.66-2.08,1.42-4.14,2.29-6.2s1.75-4,2.65-5.92q3.17-6.55,7.19-13.2l7.66,6.32a104.92,104.92,0,0,0-7.9,14.54,147.89,147.89,0,0,0-6,16.35,101.47,101.47,0,0,0-3.91,20.78Z"/><path d="M569,147.82l-2.93-2.6,6.24-7.83L582.5,147q3.07,2.85,6.08,6.05a45.78,45.78,0,0,1,5.45,7.11,37,37,0,0,1,4,8.73,36.59,36.59,0,0,1,1.5,10.9,22.44,22.44,0,0,1-.83,6.2,13.55,13.55,0,0,1-2.57,5,12.34,12.34,0,0,1-4.38,3.31,15,15,0,0,1-6.36,1.23,13.79,13.79,0,0,1-9.24-3.4,13.62,13.62,0,0,1-4.23,2.49,13.4,13.4,0,0,1-4.78.91,14.91,14.91,0,0,1-6.6-1.34A13,13,0,0,1,556,190.6a13.37,13.37,0,0,1-2.49-5,22.76,22.76,0,0,1-.75-5.84,32.63,32.63,0,0,1,1.38-9.68,41,41,0,0,1,3.64-8.37,48.85,48.85,0,0,1,5.17-7.35Q565.91,150.91,569,147.82Zm7.11,6.48q-4.2,3.94-6.88,7a33,33,0,0,0-4.22,5.93,20.6,20.6,0,0,0-2.14,5.84,35.23,35.23,0,0,0-.59,6.72,6.76,6.76,0,0,0,1,3.79,3.66,3.66,0,0,0,3.32,1.58h.47a4.33,4.33,0,0,0,2.77-.95,6.57,6.57,0,0,0,1.81-3.71l1.5-6.48,9.33,1.66L581,182.35a4.46,4.46,0,0,0,4.11,2.84h.48q4.42,0,4.42-5.37a33.34,33.34,0,0,0-.63-6.8,22.28,22.28,0,0,0-2.17-5.88,33.09,33.09,0,0,0-4.23-6A85.08,85.08,0,0,0,576.1,154.3Z"/><path d="M105.74,243.57,95.21,281.26H86.3l-7.07-26.84-7.4,26.84-8.86.05L52.82,243.57h8.1l6.64,29.27,7.67-29.27h8.42l7.24,29.1,6.7-29.1Z"/><path d="M134.28,245.89a16.58,16.58,0,0,1,7,6.61,19.73,19.73,0,0,1,2.46,10,19.4,19.4,0,0,1-2.46,9.91,16.71,16.71,0,0,1-7,6.56,22.5,22.5,0,0,1-10.45,2.32H110.65V243.57h13.18A22.5,22.5,0,0,1,134.28,245.89Zm-1.54,25.7q3.24-3.24,3.24-9.12t-3.24-9.21q-3.24-3.31-9.18-3.32h-5.35v24.89h5.35Q129.5,274.83,132.74,271.59Z"/><path d="M166.54,261.93V272a1.92,1.92,0,0,0,.81,1.59,2.9,2.9,0,0,0,1.79.62h3.94a.67.67,0,0,1,.75.76v5.5a.67.67,0,0,1-.75.76h-3a6.67,6.67,0,0,1-2-.32,2.88,2.88,0,0,1-1.62-1.35v1a11.36,11.36,0,0,1-.67,3.91A13,13,0,0,1,164,287.9a13.18,13.18,0,0,1-6.38,4.54L150.18,295l-1.83-5.57,7.77-2.53a6.15,6.15,0,0,0,3.27-2.41,6.62,6.62,0,0,0,1.21-3.86V261.93Z"/><path d="M182.26,274.24a2.44,2.44,0,0,0,1.83-.78,2.58,2.58,0,0,0,.76-1.87V260.42h5.94v11.17a9.29,9.29,0,0,1-.76,3.76,9.82,9.82,0,0,1-5.15,5.15,9.33,9.33,0,0,1-3.76.76h-8a.68.68,0,0,1-.54-.24.77.77,0,0,1-.22-.52v-5.45a.8.8,0,0,1,.22-.57.68.68,0,0,1,.54-.24Zm-7.78,13.5h6.21V294h-6.21Z"/><path d="M202.67,281.26h-5.94v-37h5.94Z"/><path d="M215.2,261.93V272a1.92,1.92,0,0,0,.81,1.59,2.88,2.88,0,0,0,1.78.62h3.94a.67.67,0,0,1,.76.76v5.5a.67.67,0,0,1-.76.76h-3a6.61,6.61,0,0,1-1.94-.32,2.82,2.82,0,0,1-1.62-1.35v1a11.36,11.36,0,0,1-.68,3.91,13,13,0,0,1-4.67,6.16,13.42,13.42,0,0,1-3.56,1.81L198.83,295,197,289.41l7.77-2.53a6.15,6.15,0,0,0,3.27-2.41,6.63,6.63,0,0,0,1.22-3.86V261.93Z"/><path d="M230.91,274.24a2.48,2.48,0,0,0,1.84-.78,2.61,2.61,0,0,0,.75-1.87V260.42h5.94v11.17a9.45,9.45,0,0,1-.75,3.76,9.86,9.86,0,0,1-2.08,3.07,9.68,9.68,0,0,1-3.08,2.08,9.28,9.28,0,0,1-3.75.76h-8.05a.68.68,0,0,1-.54-.24.82.82,0,0,1-.22-.52v-5.45a.85.85,0,0,1,.22-.57.68.68,0,0,1,.54-.24Zm-7.78,13.5h6.21V294h-6.21Z"/><path d="M252.73,281.26v-23.6a43.17,43.17,0,0,0-.27-4.83c-.19-1.6-.44-3.21-.76-4.83l-.92-4.54,5.89-1.13,1,4.91a48.39,48.39,0,0,1,.78,5.26c.16,1.75.25,3.49.25,5.22v23.54Z"/><path d="M265.69,273.92h6.69v7.34h-6.69Z"/><path d="M285.23,242.33c.33,1.33.6,2.51.81,3.53s.43,2.17.62,3.43.34,2.47.41,3.62a2.08,2.08,0,0,0,.86,1.48,2.73,2.73,0,0,0,1.68.57h6.64V242.65h6.48v12.74a6.55,6.55,0,0,1-1.92,4.67,6.49,6.49,0,0,1-2.08,1.41,6.37,6.37,0,0,1-2.54.51h-5.61a5.37,5.37,0,0,1-1.78-.3,3.09,3.09,0,0,1-1.52-1.21v20.79h-5.94v-23.6a43.17,43.17,0,0,0-.27-4.83q-.27-2.4-.75-4.83l-.92-4.54Z"/><path d="M341.93,259.5a8.6,8.6,0,0,1,3.46.7,9.09,9.09,0,0,1,2.83,1.92,9.19,9.19,0,0,1,1.92,2.8,8.42,8.42,0,0,1,.7,3.43v6.38a6.56,6.56,0,0,1-4,6,6.58,6.58,0,0,1-2.57.51H338a8.05,8.05,0,0,1-3.67-.84,8.39,8.39,0,0,1-2.81-2.21,8.6,8.6,0,0,1-1.65-3.21,8.17,8.17,0,0,1-.13-3.78l.92-5H328a2.56,2.56,0,0,0-2.59,2.59v26.3h-5.94v-26a9.44,9.44,0,0,1,.75-3.75,10,10,0,0,1,2.08-3.08,9.91,9.91,0,0,1,3.08-2.08,9.44,9.44,0,0,1,3.75-.75Zm3,14.74V268.3a2,2,0,0,0-.62-1.46,2.09,2.09,0,0,0-1.48-.59h-6.05l-1.14,5.94a1.66,1.66,0,0,0,.35,1.43,1.61,1.61,0,0,0,1.27.62Z"/><path d="M377.46,280.13a12.7,12.7,0,0,1-.65,4.07,13.61,13.61,0,0,1-1.8,3.62,13,13,0,0,1-6.51,4.83l-7.4,2.54-1.83-5.67,7.61-2.54a7.11,7.11,0,0,0,3.32-2.26,5.74,5.74,0,0,0,1.27-3.73v-.38a7.65,7.65,0,0,1-1.46.46,7.84,7.84,0,0,1-1.73.19h-3.61a8.09,8.09,0,0,1-3.68-.84,8.5,8.5,0,0,1-2.83-2.24,8.18,8.18,0,0,1-1.65-3.21,8.31,8.31,0,0,1-.11-3.75l.92-4.92a8,8,0,0,1,1.05-2.73,9.41,9.41,0,0,1,1.87-2.18,8.28,8.28,0,0,1,5.34-1.95h3a8.84,8.84,0,0,1,6.26,2.62,9.4,9.4,0,0,1,1.89,2.84,8.55,8.55,0,0,1,.7,3.45Zm-5.94-5.89V268.3a2.11,2.11,0,0,0-.59-1.49,2,2,0,0,0-1.46-.62H365.1a1.89,1.89,0,0,0-1.3.49,2.26,2.26,0,0,0-.7,1.24l-.86,4.32a1.52,1.52,0,0,0,.35,1.38,1.64,1.64,0,0,0,1.32.62Z"/><path d="M391.07,281.26a6.74,6.74,0,0,1-2.75-.57,7.29,7.29,0,0,1-2.27-1.54,7.16,7.16,0,0,1-1.54-2.29,7,7,0,0,1-.57-2.78v-7H389V273a1.13,1.13,0,0,0,.38.89,1.24,1.24,0,0,0,.86.35h8.91a3.24,3.24,0,0,0,1.76-.49,3.68,3.68,0,0,0,1.24-1.24,3.37,3.37,0,0,0,.48-1.65,3.26,3.26,0,0,0-.46-1.75l-6.69-11.93,5-3.3,7.18,12.75a8.9,8.9,0,0,1,1.27,5,10.26,10.26,0,0,1-1.38,4.72,10,10,0,0,1-3.45,3.51,9.3,9.3,0,0,1-5,1.38Z"/><path d="M414.88,263.6h16v6.59h-16Z"/><path d="M437.35,278.67V262.85h5.94V277.8A5.9,5.9,0,0,0,445,282a5.69,5.69,0,0,0,1.89,1.26,5.79,5.79,0,0,0,2.32.46h9.66a4.78,4.78,0,0,0,4.86-4.86V262h5.94v9.67a2.59,2.59,0,0,0,2.6,2.59h3.34a.68.68,0,0,1,.54.24.8.8,0,0,1,.22.57v5.45a.77.77,0,0,1-.22.52.68.68,0,0,1-.54.24H473.2a3.9,3.9,0,0,1-2.53-.65,6.5,6.5,0,0,1-1-1v1.35a8.52,8.52,0,0,1-.89,3.83,10.7,10.7,0,0,1-2.38,3.13,11,11,0,0,1-3.43,2.11,11.26,11.26,0,0,1-4.1.75h-9.4a11.8,11.8,0,0,1-4.69-.94,12,12,0,0,1-6.46-6.45A11.88,11.88,0,0,1,437.35,278.67Zm13.07-22.9h6.21V262h-6.21Z"/><path d="M488.05,274.24a2.48,2.48,0,0,0,1.84-.78,2.62,2.62,0,0,0,.76-1.87V260.42h5.94v11.17a9.46,9.46,0,0,1-.76,3.76,9.86,9.86,0,0,1-2.08,3.07,9.57,9.57,0,0,1-3.08,2.08,9.28,9.28,0,0,1-3.75.76H475.63a.71.71,0,0,1-.54-.24.81.81,0,0,1-.21-.52v-5.45a.84.84,0,0,1,.21-.57.71.71,0,0,1,.54-.24ZM476.44,294h6.16v-6.21h-6.16Zm9,0h6.21v-6.21h-6.21Z"/><path d="M527,244.27v26.3a10.42,10.42,0,0,1-.65,3.67,9.87,9.87,0,0,1-1.83,3.08,10.6,10.6,0,0,1-2.81,2.24,10.3,10.3,0,0,1-3.51,1.16l-15.39,2.16-.87-6.37,5.89-.76-2.59-28,6-.81L513.76,275l3.94-.49a4,4,0,0,0,2.43-1.3,3.72,3.72,0,0,0,1-2.59V244.27Z"/><path d="M560.2,274.24h1.51a.72.72,0,0,1,.51.24.78.78,0,0,1,.24.57v5.45a.81.81,0,0,1-.21.52.71.71,0,0,1-.54.24h-1.08a8.35,8.35,0,0,1-3.84-.86,11.18,11.18,0,0,1-2.75-1.95,10.49,10.49,0,0,1-3,2,9.27,9.27,0,0,1-3.81.78h-7.07a6.82,6.82,0,0,1-2.76-.57,7.25,7.25,0,0,1-2.26-1.54,7.16,7.16,0,0,1-1.54-2.29,7,7,0,0,1-.57-2.78v-7h5.08V273a1.16,1.16,0,0,0,.37.89,1.27,1.27,0,0,0,.87.35h7.94A3.66,3.66,0,0,0,550,273a3.31,3.31,0,0,0,.68-1.3,2.86,2.86,0,0,0,0-1.48l-4.32-15.61,5.61-2.05,5.51,19.6a2.91,2.91,0,0,0,1,1.52A2.75,2.75,0,0,0,560.2,274.24Z"/><path d="M561.71,281.26a.67.67,0,0,1-.76-.76V275a.67.67,0,0,1,.76-.76h5a1.13,1.13,0,0,1-.46-.65,3.24,3.24,0,0,1-.14-1,8.53,8.53,0,0,1,.08-1.11c.06-.38.1-.69.14-.94l.75-3.67a9.38,9.38,0,0,1,1.08-2.73A8.23,8.23,0,0,1,570,262a8.53,8.53,0,0,1,2.46-1.41,8.26,8.26,0,0,1,2.89-.51h2.21a8.45,8.45,0,0,1,3.38.7,9,9,0,0,1,4.67,4.67,8.45,8.45,0,0,1,.7,3.38v2.81a6.11,6.11,0,0,1-.22,1.73,7,7,0,0,1-.27.86H594v-7.78a3.36,3.36,0,0,0-.65-2,3.47,3.47,0,0,0-1.73-1.27l-19.33-6,1.62-6.16,18.74,5.83a10,10,0,0,1,3,1.46,10.32,10.32,0,0,1,2.3,2.27,11.08,11.08,0,0,1,1.48,2.86,10,10,0,0,1,.54,3.29v7.73a6.56,6.56,0,0,1-.54,2.64,6.81,6.81,0,0,1-3.64,3.62,6.79,6.79,0,0,1-2.68.54h-8.69v-3.94a4.31,4.31,0,0,1-1.22,1.83,7.62,7.62,0,0,1-1.78,1.22,9.08,9.08,0,0,1-1.86.67,6.58,6.58,0,0,1-1.51.22Zm18.63-7V268.3a1.89,1.89,0,0,0-.6-1.4,2,2,0,0,0-1.45-.6h-3.51a2,2,0,0,0-1.35.49,1.92,1.92,0,0,0-.71,1.24l-.7,4.16a1.59,1.59,0,0,0,.38,1.43,1.73,1.73,0,0,0,1.35.62Z"/><path d="M254.67,320.33l-7,25.13h-5.94L237,327.57l-4.93,17.89-5.9,0-6.77-25.17h5.4l4.43,19.51,5.11-19.51H240l4.82,19.41,4.46-19.41Z"/><path d="M273.7,321.88a11,11,0,0,1,4.64,4.41,13.16,13.16,0,0,1,1.64,6.64,13,13,0,0,1-1.64,6.61,11.13,11.13,0,0,1-4.64,4.37,15.07,15.07,0,0,1-7,1.55H258V320.33h8.78A15.07,15.07,0,0,1,273.7,321.88Zm-1,17.14a8.24,8.24,0,0,0,2.16-6.09,8.44,8.44,0,0,0-2.16-6.14,8.18,8.18,0,0,0-6.12-2.21H263v16.6h3.56A8.28,8.28,0,0,0,272.67,339Z"/><path d="M295.56,332.57v6.73a1.32,1.32,0,0,0,.54,1.07,2,2,0,0,0,1.19.41h2.63a.45.45,0,0,1,.51.5V345a.45.45,0,0,1-.51.5h-2a4.07,4.07,0,0,1-1.29-.22,1.88,1.88,0,0,1-1.09-.9V345a7.62,7.62,0,0,1-.45,2.61,8.61,8.61,0,0,1-1.24,2.29,8.69,8.69,0,0,1-4.25,3l-5,1.69-1.23-3.7,5.19-1.7a4,4,0,0,0,2.18-1.6,4.49,4.49,0,0,0,.8-2.57V332.57Z"/><path d="M306,340.78a1.61,1.61,0,0,0,1.22-.52,1.71,1.71,0,0,0,.51-1.24v-7.46h4V339a6.21,6.21,0,0,1-.51,2.5,6.39,6.39,0,0,1-1.38,2.05,6.58,6.58,0,0,1-2,1.39,6.39,6.39,0,0,1-2.51.5h-5.36a.46.46,0,0,1-.36-.16.53.53,0,0,1-.14-.34v-3.64a.59.59,0,0,1,.14-.38.46.46,0,0,1,.36-.16Zm-5.18,9H305v4.14h-4.14Z"/><path d="M319.65,345.46h-4V320.8h4Z"/><path d="M328,332.57v6.73a1.29,1.29,0,0,0,.54,1.07,2,2,0,0,0,1.19.41h2.63a.44.44,0,0,1,.5.5V345a.44.44,0,0,1-.5.5h-2a4.17,4.17,0,0,1-1.3-.22,1.83,1.83,0,0,1-1.08-.9V345a7.62,7.62,0,0,1-.45,2.61,8.61,8.61,0,0,1-1.24,2.29,9,9,0,0,1-1.87,1.82,9.17,9.17,0,0,1-2.38,1.2l-5,1.69-1.22-3.7,5.18-1.7a4,4,0,0,0,2.18-1.6A4.43,4.43,0,0,0,324,345V332.57Z"/><path d="M338.48,340.78a1.63,1.63,0,0,0,1.22-.52,1.71,1.71,0,0,0,.5-1.24v-7.46h4V339a6.2,6.2,0,0,1-.5,2.5,6.58,6.58,0,0,1-1.39,2.05,6.47,6.47,0,0,1-2,1.39,6.34,6.34,0,0,1-2.5.5h-5.36a.44.44,0,0,1-.36-.16.5.5,0,0,1-.15-.34v-3.64a.55.55,0,0,1,.15-.38.44.44,0,0,1,.36-.16Zm-5.19,9h4.14v4.14h-4.14Z"/><path d="M359,330.05a5.78,5.78,0,0,1,2.31.47,6.13,6.13,0,0,1,1.89,1.26,5.79,5.79,0,0,1,1.27,1.87A5.62,5.62,0,0,1,365,336v1.83a5.49,5.49,0,0,1-.47,2.29,6,6,0,0,1-3.16,3.15,5.78,5.78,0,0,1-2.31.47h-1.76a5.7,5.7,0,0,1-2.27-.47,6.1,6.1,0,0,1-3.17-3.15,5.65,5.65,0,0,1-.47-2.29V336a5.78,5.78,0,0,1,.47-2.31,5.89,5.89,0,0,1,3.13-3.13,5.78,5.78,0,0,1,2.31-.47Zm1.59,7.6v-1.73a1.32,1.32,0,0,0-.4-1,1.41,1.41,0,0,0-1-.38h-2.09a1.33,1.33,0,0,0-1,.4,1.3,1.3,0,0,0-.4,1v1.73a1.3,1.3,0,0,0,.4,1,1.37,1.37,0,0,0,1,.4h2.09a1.38,1.38,0,0,0,1-.4A1.36,1.36,0,0,0,360.62,337.65Z"/><path d="M369.29,340.56h4.47v4.9h-4.47Z"/><path d="M389.34,319.07a47.18,47.18,0,0,0,1.79,9.45,66.47,66.47,0,0,0,2.71,7.47,49,49,0,0,0,3.6,6.63L394,345.5q-1.83-3-3.27-6.05c-.41-.87-.81-1.77-1.21-2.7s-.74-1.87-1-2.81a25.34,25.34,0,0,1-.74-2.77,12.76,12.76,0,0,1-.29-2.59,13.89,13.89,0,0,1-.49,3.51,33.43,33.43,0,0,1-1.2,3.76c-.48,1.25-1,2.45-1.57,3.62s-1.09,2.19-1.58,3.07-1.06,1.88-1.71,3l-3.49-2.88a31.47,31.47,0,0,0,3.2-5.62,66.18,66.18,0,0,0,2.68-7.33,65.16,65.16,0,0,0,2.22-10.6Z"/><path d="M422.86,331a5.77,5.77,0,0,1,2.3.47,6.1,6.1,0,0,1,3.17,3.15,5.65,5.65,0,0,1,.47,2.29v4.24a4.37,4.37,0,0,1-2.68,4,4.31,4.31,0,0,1-1.71.34h-4.18a5.44,5.44,0,0,1-2.45-.56,5.66,5.66,0,0,1-1.87-1.47,5.93,5.93,0,0,1-1.1-2.15,5.35,5.35,0,0,1-.09-2.52l.61-3.31h-1.76a1.74,1.74,0,0,0-1.73,1.73v17.53h-4V337.4a6.22,6.22,0,0,1,.51-2.51,6.45,6.45,0,0,1,3.43-3.43,6.22,6.22,0,0,1,2.51-.51Zm2,9.83v-4a1.28,1.28,0,0,0-.42-1,1.34,1.34,0,0,0-1-.4h-4l-.75,4a1.13,1.13,0,0,0,1.08,1.37Z"/><path d="M438,345.46a5.4,5.4,0,0,1-2.44-.56,5.62,5.62,0,0,1-1.88-1.49,6,6,0,0,1-1.09-2.14,5.31,5.31,0,0,1-.09-2.51l.61-3.27a5.18,5.18,0,0,1,.7-1.82,6.27,6.27,0,0,1,1.24-1.46,5.53,5.53,0,0,1,3.57-1.29h2a5.78,5.78,0,0,1,2.31.46,6,6,0,0,1,1.87,1.28,6.13,6.13,0,0,1,1.26,1.89,5.78,5.78,0,0,1,.47,2.31v3.92h2.52a.44.44,0,0,1,.5.5V345a.44.44,0,0,1-.5.5h-2.56v.18a1.78,1.78,0,0,1,0,.36,7.62,7.62,0,0,1-1.81,4.28,9.12,9.12,0,0,1-4.09,2.78l-4.93,1.69L434.41,351l5.08-1.69a4.78,4.78,0,0,0,2.21-1.52,3.77,3.77,0,0,0,.85-2.48V345a4.65,4.65,0,0,1-1,.3,5.07,5.07,0,0,1-1.15.13Zm-.5-4.68h5.08v-4a1.42,1.42,0,0,0-.4-1,1.27,1.27,0,0,0-1-.41H438.3a1.23,1.23,0,0,0-.86.32,1.5,1.5,0,0,0-.47.83l-.58,2.88a1.05,1.05,0,0,0,.24.92A1.1,1.1,0,0,0,437.51,340.78Z"/><path d="M458.82,345.46a5.74,5.74,0,0,1-2.43-.52,5.24,5.24,0,0,1-2-1.6,5.52,5.52,0,0,1-2,1.6,5.67,5.67,0,0,1-2.43.52h-.93a.45.45,0,0,1-.51-.5v-3.64a.57.57,0,0,1,.16-.38.49.49,0,0,1,.35-.16h1.65a1.63,1.63,0,0,0,1.23-.54,1.81,1.81,0,0,0,.5-1.26v-6.41h4V339a1.75,1.75,0,0,0,.5,1.24,1.65,1.65,0,0,0,1.23.52h1a1.94,1.94,0,0,0,1.95-1.58l1.33-6.52,3.89.72-1.08,5.4a1.48,1.48,0,0,0,.34,1.37,1.61,1.61,0,0,0,1.28.61h2.66V331.6h4v9.47a4.31,4.31,0,0,1-.34,1.71,4.37,4.37,0,0,1-2.34,2.34,4.31,4.31,0,0,1-1.71.34h-2.23a4.83,4.83,0,0,1-2.16-.5A4.34,4.34,0,0,1,463,343.3a5,5,0,0,1-1.91,1.66A5.4,5.4,0,0,1,458.82,345.46Z"/><path d="M477.47,333.69h10.66v4.39H477.47Z"/><path d="M492.44,343.73V333.18h4v10a4,4,0,0,0,.3,1.54,4,4,0,0,0,2.11,2.11,4,4,0,0,0,1.54.31h6.45a3.14,3.14,0,0,0,2.3-.94,3.1,3.1,0,0,0,.94-2.3V332.61h4v6.44a1.71,1.71,0,0,0,1.73,1.73H518a.46.46,0,0,1,.36.16.59.59,0,0,1,.14.38V345a.53.53,0,0,1-.14.34.46.46,0,0,1-.36.16h-1.62a2.58,2.58,0,0,1-1.69-.43,4.35,4.35,0,0,1-.69-.69v.9a5.7,5.7,0,0,1-.59,2.56,7.21,7.21,0,0,1-3.87,3.49,7.41,7.41,0,0,1-2.74.51h-6.26a8,8,0,0,1-7.44-4.94A7.85,7.85,0,0,1,492.44,343.73Zm8.72-15.26h4.14v4.14h-4.14Z"/><path d="M526.25,340.78a1.61,1.61,0,0,0,1.22-.52A1.71,1.71,0,0,0,528,339v-7.46h4V339a6.21,6.21,0,0,1-.51,2.5,6.55,6.55,0,0,1-1.38,2.05A6.62,6.62,0,0,1,528,345a6.34,6.34,0,0,1-2.5.5H518a.44.44,0,0,1-.36-.16.5.5,0,0,1-.15-.34v-3.64a.55.55,0,0,1,.15-.38.44.44,0,0,1,.36-.16Zm-7.74,13.14h4.1v-4.14h-4.1Zm6,0h4.14v-4.14h-4.14Z"/><path d="M552.24,320.8v17.53a6.86,6.86,0,0,1-.43,2.45,6.55,6.55,0,0,1-1.23,2.05,6.87,6.87,0,0,1-1.87,1.5,6.94,6.94,0,0,1-2.34.77l-10.26,1.44-.57-4.25,3.92-.5-1.73-18.69,4-.54,1.65,18.72L546,341a2.64,2.64,0,0,0,1.62-.86,2.51,2.51,0,0,0,.65-1.73V320.8Z"/><path d="M574.34,340.78h1a.45.45,0,0,1,.34.16.53.53,0,0,1,.17.38V345a.5.5,0,0,1-.15.34.44.44,0,0,1-.36.16h-.72a5.39,5.39,0,0,1-2.55-.58,7.13,7.13,0,0,1-1.84-1.29,7.19,7.19,0,0,1-2,1.35,6.14,6.14,0,0,1-2.54.52H561a4.51,4.51,0,0,1-1.83-.38,4.71,4.71,0,0,1-2.54-2.55,4.72,4.72,0,0,1-.38-1.86V336h3.38v4a.79.79,0,0,0,.26.6.83.83,0,0,0,.57.23h5.29a2.42,2.42,0,0,0,1-.23,2.5,2.5,0,0,0,.81-.62,2,2,0,0,0,.45-.86,1.85,1.85,0,0,0,0-1l-2.88-10.4,3.75-1.37,3.67,13.07a2,2,0,0,0,.68,1A1.79,1.79,0,0,0,574.34,340.78Z"/><path d="M575.35,345.46a.44.44,0,0,1-.5-.5v-3.68a.44.44,0,0,1,.5-.5h3.31a.8.8,0,0,1-.3-.43,2.17,2.17,0,0,1-.09-.65,6.27,6.27,0,0,1,.05-.74q.06-.37.09-.63l.51-2.45a5.91,5.91,0,0,1,.72-1.81,5.19,5.19,0,0,1,1.22-1.44,5.65,5.65,0,0,1,1.64-.94,5.39,5.39,0,0,1,1.92-.34h1.48a5.41,5.41,0,0,1,2.25.47,6,6,0,0,1,3.11,3.11,5.41,5.41,0,0,1,.47,2.25v1.87a4.42,4.42,0,0,1-.14,1.15c-.1.34-.16.53-.18.58h5.47V335.6a2.2,2.2,0,0,0-.43-1.35,2.34,2.34,0,0,0-1.15-.85l-12.89-4,1.08-4.1L596,329.19a6.52,6.52,0,0,1,2,1,6.85,6.85,0,0,1,1.53,1.51,7.21,7.21,0,0,1,1,1.91,6.72,6.72,0,0,1,.36,2.2v5.14a4.38,4.38,0,0,1-.36,1.77,4.48,4.48,0,0,1-2.43,2.41,4.49,4.49,0,0,1-1.78.36h-5.8v-2.63a3,3,0,0,1-.81,1.23,5.45,5.45,0,0,1-1.19.81,6.42,6.42,0,0,1-1.24.45,4.91,4.91,0,0,1-1,.14Zm12.42-4.68v-4a1.31,1.31,0,0,0-.39-.94,1.35,1.35,0,0,0-1-.39h-2.34a1.44,1.44,0,0,0-.9.32,1.24,1.24,0,0,0-.46.83l-.47,2.77a1.08,1.08,0,0,0,.25,1,1.16,1.16,0,0,0,.9.41Z"/><path d="M315.23,380.09l-5.56,18.77h-3.49l-3.94-14.2-4.18,14.2-3.46,0-5.32-18.8h3.27l3.89,15.29,4.21-15.29h3.46L308,395.3l3.92-15.21Z"/><path d="M329.15,381.24a8.27,8.27,0,0,1,3.48,3.3,9.88,9.88,0,0,1,1.23,5,9.67,9.67,0,0,1-1.23,5,8.12,8.12,0,0,1-3.48,3.23,11.66,11.66,0,0,1-5.25,1.12h-6.13V380.09h6.13A11.53,11.53,0,0,1,329.15,381.24Zm-.2,13.33a6.9,6.9,0,0,0,1.75-5,7.14,7.14,0,0,0-1.75-5.1,6.7,6.7,0,0,0-5.05-1.83h-3v13.74h3A6.83,6.83,0,0,0,329,394.57Z"/><path d="M345.2,390.08v4.51a1.44,1.44,0,0,0,.53,1.16,1.78,1.78,0,0,0,1.22.46h2.46a.34.34,0,0,1,.38.38v1.89a.34.34,0,0,1-.38.38h-2.08a3.23,3.23,0,0,1-1.19-.23,2.11,2.11,0,0,1-.94-.77v1a5.6,5.6,0,0,1-.31,1.87,6.29,6.29,0,0,1-.87,1.64,5.77,5.77,0,0,1-1.3,1.31,6.72,6.72,0,0,1-1.68.88l-3.32,1.13-.7-2.16,3.48-1.16a3.51,3.51,0,0,0,1.81-1.32,3.58,3.58,0,0,0,.68-2.13v-8.81Z"/><path d="M353.14,396.21a1.74,1.74,0,0,0,1.72-1.72V389.3h2.22v5.19a4.37,4.37,0,0,1-1.27,3.07,4.64,4.64,0,0,1-1.39.95,4.26,4.26,0,0,1-1.72.35h-3.29a.34.34,0,0,1-.27-.12.4.4,0,0,1-.11-.26v-1.86a.41.41,0,0,1,.11-.28.32.32,0,0,1,.27-.13ZM350,402.1h2.56v2.57H350Z"/><path d="M362.75,398.86h-2.22v-18h2.22Z"/><path d="M368.77,390.08v4.51a1.47,1.47,0,0,0,.53,1.16,1.79,1.79,0,0,0,1.23.46H373a.34.34,0,0,1,.38.38v1.89a.34.34,0,0,1-.38.38H370.9a3.14,3.14,0,0,1-1.18-.23,2.08,2.08,0,0,1-1-.77v1a5.6,5.6,0,0,1-.31,1.87,6.58,6.58,0,0,1-.86,1.64,6,6,0,0,1-1.31,1.31,6.72,6.72,0,0,1-1.68.88l-3.32,1.13-.7-2.16,3.48-1.16a3.51,3.51,0,0,0,1.81-1.32,3.58,3.58,0,0,0,.68-2.13v-8.81Z"/><path d="M376.71,396.21a1.65,1.65,0,0,0,1.21-.51,1.67,1.67,0,0,0,.52-1.21V389.3h2.21v5.19a4.37,4.37,0,0,1-1.27,3.07,4.64,4.64,0,0,1-1.39.95,4.25,4.25,0,0,1-1.71.35H373a.34.34,0,0,1-.27-.12.4.4,0,0,1-.11-.26v-1.86a.41.41,0,0,1,.11-.28.32.32,0,0,1,.27-.13Zm-3.16,5.89h2.56v2.57h-2.56Z"/><path d="M392.39,388.11a4.11,4.11,0,0,1,1.57.31,4.33,4.33,0,0,1,1.28.85,3.9,3.9,0,0,1,1.18,2.84v1.38a4,4,0,0,1-.31,1.54,4.15,4.15,0,0,1-.87,1.28,3.85,3.85,0,0,1-1.28.86,3.93,3.93,0,0,1-1.57.31h-1.32a3.85,3.85,0,0,1-1.54-.31,4,4,0,0,1-2.14-2.14,3.85,3.85,0,0,1-.31-1.54v-1.38a3.93,3.93,0,0,1,.31-1.57,4,4,0,0,1,.85-1.27,4.16,4.16,0,0,1,1.27-.85,4,4,0,0,1,1.56-.31Zm1.65,5.27v-1.3a1.39,1.39,0,0,0-.43-1,1.49,1.49,0,0,0-1.08-.42H391a1.46,1.46,0,0,0-1,.42,1.39,1.39,0,0,0-.43,1v1.3a1.39,1.39,0,0,0,.43,1,1.46,1.46,0,0,0,1,.42h1.57a1.49,1.49,0,0,0,1.08-.42A1.39,1.39,0,0,0,394,393.38Z"/><path d="M400.06,395.67h2.59v3.19h-2.59Z"/><path d="M411.59,378.72l1.22,1.73-3.27,2.75a1.56,1.56,0,0,0-.35.45,1.24,1.24,0,0,0-.15.52,1.37,1.37,0,0,0,.08.53,1,1,0,0,0,.34.44l3.86,2.89q.71-.94,1.47-1.83c.51-.6,1.06-1.17,1.63-1.73l1.49-1.43,1.65,1.65L418.21,386c-.33.31-.62.6-.89.88s-.54.57-.79.87-.5.6-.74.93-.51.69-.8,1.1l-6.48,9.35-1.94-1.38,5.7-8.07a2.11,2.11,0,0,1-.75-.18,3.22,3.22,0,0,1-.68-.36l-2.57-2a3.27,3.27,0,0,1-1-1.34,3.62,3.62,0,0,1-.3-1.58,4,4,0,0,1,1.46-2.89Z"/><path d="M428.2,383l-1-.92,1.51-2,3.11,2.87c.61.56,1.25,1.19,1.93,1.9a15.57,15.57,0,0,1,1.85,2.4,13.76,13.76,0,0,1,1.37,3,11.91,11.91,0,0,1,.54,3.69,7,7,0,0,1-.25,1.9,4.4,4.4,0,0,1-.8,1.57,3.91,3.91,0,0,1-1.35,1.05,4.45,4.45,0,0,1-1.94.39,3.93,3.93,0,0,1-1.76-.38,5.13,5.13,0,0,1-1.43-1.1,5.4,5.4,0,0,1-1.47,1.09,3.9,3.9,0,0,1-1.74.39,4.47,4.47,0,0,1-2-.4,3.59,3.59,0,0,1-1.33-1.1,4.54,4.54,0,0,1-.76-1.56,7.06,7.06,0,0,1-.24-1.85,10.76,10.76,0,0,1,.5-3.39,13.3,13.3,0,0,1,1.31-2.89,16.16,16.16,0,0,1,1.85-2.5C426.77,384.4,427.48,383.66,428.2,383Zm1.72,1.56c-.84.81-1.59,1.57-2.24,2.28a14.48,14.48,0,0,0-1.62,2.16,9.45,9.45,0,0,0-1,2.3,10.61,10.61,0,0,0-.32,2.69,2.91,2.91,0,0,0,.42,1.6,1.53,1.53,0,0,0,1.41.66h.27a1.82,1.82,0,0,0,1.22-.43,2.46,2.46,0,0,0,.73-1.29l.56-2.43,2.33.4-.54,2.38a1.93,1.93,0,0,0,.67.93,1.77,1.77,0,0,0,1.16.44h.27a1.61,1.61,0,0,0,1.43-.63,2.83,2.83,0,0,0,.44-1.63,10.88,10.88,0,0,0-.32-2.73,8.41,8.41,0,0,0-.95-2.3,12.94,12.94,0,0,0-1.64-2.13C431.58,386.09,430.81,385.33,429.92,384.52Z"/><path d="M453.12,403.58a5.36,5.36,0,0,1-2.19-.44,5.7,5.7,0,0,1-1.78-1.2,5.59,5.59,0,0,1-1.2-1.78,5.43,5.43,0,0,1-.45-2.19v-6.7l2.21,0v6.32a3.09,3.09,0,0,0,.27,1.28,3.6,3.6,0,0,0,.72,1.07,3.18,3.18,0,0,0,1.07.71,3.34,3.34,0,0,0,1.29.26h4.75a2.64,2.64,0,0,0,1.08-.22,2.76,2.76,0,0,0,.9-.59,3,3,0,0,0,.59-.88,2.72,2.72,0,0,0,.22-1.06V380.82h2.21v17.74a4.9,4.9,0,0,1-.39,2,5.09,5.09,0,0,1-1.08,1.59,5,5,0,0,1-1.6,1.08,4.85,4.85,0,0,1-1.95.39Z"/><path d="M475.8,398.73a6.19,6.19,0,0,1-1.15,3.6,6.49,6.49,0,0,1-1.32,1.35,6,6,0,0,1-1.72.9l-3.32,1.14-.7-2.19,3.45-1.16a3.42,3.42,0,0,0,1.77-1.27,4,4,0,0,0,.72-2.11l0-.37a2,2,0,0,1-.6.19,5.29,5.29,0,0,1-.67.05H469.8a3.63,3.63,0,0,1-1.64-.38,3.56,3.56,0,0,1-1.26-1,4,4,0,0,1-.73-1.43,3.76,3.76,0,0,1-.07-1.67l.46-2.46a3.74,3.74,0,0,1,1.31-2.21,3.61,3.61,0,0,1,2.39-.87h1.54a3.9,3.9,0,0,1,2.84,1.18,4.33,4.33,0,0,1,.85,1.28,4,4,0,0,1,.31,1.54Zm-2.22-2.52v-3.37a1.4,1.4,0,0,0-.44-1,1.5,1.5,0,0,0-1.07-.44h-1.92a1.39,1.39,0,0,0-.93.33,1.42,1.42,0,0,0-.5.86l-.43,2.19a1.24,1.24,0,0,0,1.27,1.48Z"/><path d="M481.63,398.86h-2.22v-18h2.22Z"/><path d="M485.16,390.27h8.1v2.49h-8.1Z"/><path d="M502.66,403.56a5.43,5.43,0,0,1-2.19-.45,5.62,5.62,0,0,1-1.78-1.21,6,6,0,0,1-1.2-1.8,5.35,5.35,0,0,1-.45-2.18v-6.65h2.22v6.29a3.22,3.22,0,0,0,.27,1.3,3.24,3.24,0,0,0,1.78,1.78,3.22,3.22,0,0,0,1.3.27h4.75a2.81,2.81,0,0,0,1.08-.21,2.91,2.91,0,0,0,.89-.6,2.71,2.71,0,0,0,.59-.89,2.64,2.64,0,0,0,.22-1.08V380.82h2.21v13.67a1.64,1.64,0,0,0,.52,1.21,1.68,1.68,0,0,0,1.24.51h1.48a.32.32,0,0,1,.27.13.34.34,0,0,1,.11.25v1.87a.38.38,0,0,1-.11.28.34.34,0,0,1-.27.12h-1.08a3.41,3.41,0,0,1-1.16-.2,2.31,2.31,0,0,1-1-.83v.9a4.53,4.53,0,0,1-.36,1.75,5.1,5.1,0,0,1-2.62,2.66,4.9,4.9,0,0,1-2,.42Z"/><path d="M525.56,398.48a.4.4,0,0,1-.11.26.34.34,0,0,1-.27.12h-1.81a3.48,3.48,0,0,1-.89-.13,4.84,4.84,0,0,1-.87-.37,2.94,2.94,0,0,1-.7-.55,2.1,2.1,0,0,1-.43-.68,3.4,3.4,0,0,1-1.31,1.23,3.59,3.59,0,0,1-1.79.5h-1.79a.33.33,0,0,1-.37-.38v-1.89a.33.33,0,0,1,.37-.38h1.92a1.9,1.9,0,0,0,1.89-1.54l.92-4.48,2.19.38-.76,3.75a1.5,1.5,0,0,0,.36,1.31,1.62,1.62,0,0,0,1.29.58h1.78a.34.34,0,0,1,.38.38Zm-8.51-11.23h2.57v-2.56h-2.57Zm4,0h2.56v-2.56H521Z"/><path d="M530.52,396.21a1.74,1.74,0,0,0,1.73-1.72V389.3h2.22v5.19a4.35,4.35,0,0,1-.34,1.68,4.46,4.46,0,0,1-.93,1.39,4.64,4.64,0,0,1-1.39.95,4.3,4.3,0,0,1-1.72.35h-4.91a.34.34,0,0,1-.27-.12.4.4,0,0,1-.11-.26v-1.86a.41.41,0,0,1,.11-.28.32.32,0,0,1,.27-.13Zm-5.13,5.89h2.54v2.57h-2.54Zm4,0h2.56v2.57h-2.56Z"/><path d="M544.19,398.48a.34.34,0,0,1-.38.38h-.95a4.09,4.09,0,0,1-1.67-.34,4.31,4.31,0,0,1-1.38-.93,4.46,4.46,0,0,1-.93-1.39,4.36,4.36,0,0,1-.34-1.69V380.82h2.22v13.67a1.74,1.74,0,0,0,1.72,1.72h1.33a.32.32,0,0,1,.27.13.41.41,0,0,1,.11.28Z"/><path d="M547.53,396.21a1.74,1.74,0,0,0,1.73-1.72V389.3h2.22v5.19a4.35,4.35,0,0,1-.34,1.68,4.46,4.46,0,0,1-.93,1.39,4.64,4.64,0,0,1-1.39.95,4.34,4.34,0,0,1-1.72.35h-3.29a.34.34,0,0,1-.27-.12.4.4,0,0,1-.11-.26v-1.86a.41.41,0,0,1,.11-.28.32.32,0,0,1,.27-.13Zm-2.59-9.85h2.57v-2.57h-2.57Zm4,0h2.57v-2.57h-2.57Z"/><path d="M570.7,396.21a1.64,1.64,0,0,0,1.21-.5,1.61,1.61,0,0,0,.52-1.22V389.3h2.21v5.19a4.25,4.25,0,0,1-.35,1.71,4.49,4.49,0,0,1-.94,1.39,4.24,4.24,0,0,1-1.39.93,4.33,4.33,0,0,1-1.72.34H560a4.93,4.93,0,0,1-2-.39,5.12,5.12,0,0,1-2.67-2.67,4.93,4.93,0,0,1-.39-2V389.3h2.21v4.24a2.52,2.52,0,0,0,.79,1.9,2.59,2.59,0,0,0,1.91.77Zm-7.18,8.43h2.56v-2.57h-2.56Z"/><path d="M583.74,398.48a.34.34,0,0,1-.38.38h-.94a4.28,4.28,0,0,1-3-1.27,4.26,4.26,0,0,1-1.27-3.08V380.82h2.21v13.67a1.66,1.66,0,0,0,.51,1.21,1.69,1.69,0,0,0,1.22.51h1.32a.32.32,0,0,1,.27.13.41.41,0,0,1,.11.28Z"/><path d="M590.57,398.86a3.86,3.86,0,0,1-1.81-.43,3.92,3.92,0,0,1-1.43-1.3,3.77,3.77,0,0,1-1.4,1.3,3.93,3.93,0,0,1-1.84.43h-.73a.34.34,0,0,1-.27-.12.4.4,0,0,1-.11-.26v-1.89a.32.32,0,0,1,.13-.27.38.38,0,0,1,.25-.11h1.14a1.61,1.61,0,0,0,1.22-.52,1.73,1.73,0,0,0,.5-1.26V390h2.25v4.46a1.68,1.68,0,0,0,.49,1.21,1.65,1.65,0,0,0,1.21.51h.59a1.89,1.89,0,0,0,1.89-1.56l.89-4.46,2.19.38L595,394.3a1.44,1.44,0,0,0,.35,1.33,1.64,1.64,0,0,0,1.3.58h2.21v-6.94h2.21v6.86a2.68,2.68,0,0,1-.75,2,2.63,2.63,0,0,1-2,.77h-1.75a3.38,3.38,0,0,1-1.67-.43,3,3,0,0,1-1.25-1.33,3.49,3.49,0,0,1-1.39,1.34A3.78,3.78,0,0,1,590.57,398.86Z"/><path d="M382.78,430l-4.12,13.9h-2.58l-2.92-10.52-3.1,10.52-2.56,0L363.56,430H366l2.88,11.32L372,430h2.56l2.9,11.26,2.9-11.26Z"/><path d="M393.09,430.81a6,6,0,0,1,2.58,2.44,7.31,7.31,0,0,1,.91,3.71,7.15,7.15,0,0,1-.91,3.68,5.92,5.92,0,0,1-2.58,2.39,8.67,8.67,0,0,1-3.89.83h-4.54V430h4.54A8.41,8.41,0,0,1,393.09,430.81Zm-.15,9.87a5.06,5.06,0,0,0,1.3-3.72,5.24,5.24,0,0,0-1.3-3.78,4.9,4.9,0,0,0-3.74-1.36h-2.26V442h2.26A5,5,0,0,0,392.94,440.68Z"/><path d="M405,437.36v3.34a1.09,1.09,0,0,0,.39.86,1.34,1.34,0,0,0,.91.34h1.82a.24.24,0,0,1,.28.28v1.4a.24.24,0,0,1-.28.28h-1.54a2.42,2.42,0,0,1-.88-.17,1.53,1.53,0,0,1-.7-.57v.72a4,4,0,0,1-.23,1.38,4.31,4.31,0,0,1-.64,1.22,4.25,4.25,0,0,1-1,1,4.72,4.72,0,0,1-1.24.65l-2.46.84-.52-1.6,2.58-.86a2.67,2.67,0,0,0,1.84-2.56v-6.52Z"/><path d="M410.86,441.9a1.23,1.23,0,0,0,.9-.38,1.19,1.19,0,0,0,.38-.9v-3.84h1.64v3.84a3.1,3.1,0,0,1-.25,1.25,3,3,0,0,1-.69,1,3.24,3.24,0,0,1-1,.7,3.13,3.13,0,0,1-1.27.26H408.1a.27.27,0,0,1-.2-.09.29.29,0,0,1-.08-.19V442.2a.32.32,0,0,1,.08-.21.27.27,0,0,1,.2-.09Zm-2.34,4.36h1.9v1.9h-1.9Z"/><path d="M418,443.86h-1.64V430.5H418Z"/><path d="M422.44,437.36v3.34a1.09,1.09,0,0,0,.39.86,1.34,1.34,0,0,0,.91.34h1.82a.24.24,0,0,1,.28.28v1.4a.24.24,0,0,1-.28.28H424a2.42,2.42,0,0,1-.88-.17,1.53,1.53,0,0,1-.7-.57v.72a4,4,0,0,1-.23,1.38,4.31,4.31,0,0,1-.64,1.22,4.25,4.25,0,0,1-1,1,4.72,4.72,0,0,1-1.24.65l-2.46.84-.52-1.6,2.58-.86a2.67,2.67,0,0,0,1.84-2.56v-6.52Z"/><path d="M428.32,441.9a1.23,1.23,0,0,0,.9-.38,1.19,1.19,0,0,0,.38-.9v-3.84h1.64v3.84a3.1,3.1,0,0,1-.25,1.25,3,3,0,0,1-.69,1,3.24,3.24,0,0,1-1,.7,3.13,3.13,0,0,1-1.27.26h-2.44a.27.27,0,0,1-.2-.09.29.29,0,0,1-.08-.19V442.2a.32.32,0,0,1,.08-.21.27.27,0,0,1,.2-.09ZM426,446.26h1.9v1.9H426Z"/><path d="M439.94,435.9a3,3,0,0,1,1.16.23,2.92,2.92,0,0,1,.95.63,2.76,2.76,0,0,1,.64.94,2.83,2.83,0,0,1,.23,1.16v1a2.77,2.77,0,0,1-.23,1.14,2.8,2.8,0,0,1-.64,1,3,3,0,0,1-2.11.87h-1a2.94,2.94,0,0,1-1.14-.23,3.06,3.06,0,0,1-.95-.64,3.12,3.12,0,0,1-.64-1,2.94,2.94,0,0,1-.23-1.14v-1a3,3,0,0,1,.23-1.16,3.23,3.23,0,0,1,.63-.94,2.88,2.88,0,0,1,.94-.63,3,3,0,0,1,1.16-.23Zm1.22,3.9v-1a1,1,0,0,0-.32-.77,1.09,1.09,0,0,0-.8-.31h-1.16a1.09,1.09,0,0,0-.78.31,1,1,0,0,0-.32.77v1a1,1,0,0,0,.32.77,1.09,1.09,0,0,0,.78.31H440a1.09,1.09,0,0,0,.8-.31A1,1,0,0,0,441.16,439.8Z"/><path d="M445.62,441.5h1.92v2.36h-1.92Z"/><path d="M460.48,436l-1.27.18-1.65.24c-.58.08-1.18.15-1.78.21s-1.15.09-1.66.09a2.57,2.57,0,0,1-.73-.1,1.82,1.82,0,0,1-.65-.36v7.6H451.1v-8.4a15.5,15.5,0,0,0-.2-2.53c-.13-.85-.28-1.67-.46-2.47l1.62-.32.12.63c.06.26.11.55.17.87s.12.66.17,1,.1.72.14,1.08a1.35,1.35,0,0,0,.43.75,1.18,1.18,0,0,0,.79.29h.8l-.1-.2a1.36,1.36,0,0,1-.08-.32c0-.2-.07-.39-.1-.56a4,4,0,0,0-.09-.48c0-.16-.06-.29-.09-.4a2.72,2.72,0,0,1,.06-1.27,2.79,2.79,0,0,1,1.5-1.78,2.72,2.72,0,0,1,1.18-.27h2.64v1.74h-2.86a.88.88,0,0,0-.77.38,1.17,1.17,0,0,0-.17.84l.44,2.26,1-.08,1.31-.13,1.61-.19Z"/><path d="M467.18,432.08l-.76-.68,1.12-1.44,2.3,2.12c.46.41.93.88,1.43,1.41a11.19,11.19,0,0,1,1.37,1.78,9.41,9.41,0,0,1,1,2.22,8.7,8.7,0,0,1,.4,2.73,5.05,5.05,0,0,1-.19,1.41,3,3,0,0,1-.59,1.16,2.76,2.76,0,0,1-1,.78,3.33,3.33,0,0,1-1.44.29,2.86,2.86,0,0,1-1.3-.28,3.94,3.94,0,0,1-1.06-.82,3.64,3.64,0,0,1-1.09.81,2.91,2.91,0,0,1-1.29.29,3.32,3.32,0,0,1-1.47-.3,2.81,2.81,0,0,1-1-.81,3.57,3.57,0,0,1-.56-1.16,5.09,5.09,0,0,1-.18-1.37,8.36,8.36,0,0,1,.37-2.51,10.14,10.14,0,0,1,1-2.14,12.47,12.47,0,0,1,1.37-1.85C466.13,433.15,466.65,432.6,467.18,432.08Zm1.28,1.16c-.62.6-1.18,1.16-1.66,1.69a10,10,0,0,0-1.2,1.6,6.84,6.84,0,0,0-.72,1.7,7.64,7.64,0,0,0-.24,2,2.24,2.24,0,0,0,.31,1.19,1.15,1.15,0,0,0,1.05.49h.2a1.36,1.36,0,0,0,.9-.32,1.67,1.67,0,0,0,.54-1l.42-1.8,1.72.3-.4,1.76a1.48,1.48,0,0,0,.5.69,1.35,1.35,0,0,0,.86.33h.2a1.19,1.19,0,0,0,1.06-.47,2.06,2.06,0,0,0,.32-1.21,7.85,7.85,0,0,0-.23-2,6.19,6.19,0,0,0-.71-1.7,9.37,9.37,0,0,0-1.21-1.58Q469.45,434.14,468.46,433.24Z"/><path d="M489.24,436.44a3,3,0,0,1,1.16.23,3,3,0,0,1,1.59,1.57,3,3,0,0,1,.23,1.16v2.46a1.92,1.92,0,0,1-.57,1.44,2,2,0,0,1-1.45.56h-2.42a2.64,2.64,0,0,1-1.22-.28,2.82,2.82,0,0,1-.93-.74,2.88,2.88,0,0,1-.54-1.06,2.8,2.8,0,0,1,0-1.26l.42-2.22H484.4a1.21,1.21,0,0,0-.91.4,1.31,1.31,0,0,0-.39.94v9.26h-1.64v-9.2a3.17,3.17,0,0,1,.26-1.27,3.32,3.32,0,0,1,1.73-1.73,3.17,3.17,0,0,1,1.27-.26Zm1.34,5.46v-2.52a1,1,0,0,0-.33-.77,1.09,1.09,0,0,0-.79-.31h-2.32l-.46,2.48a.87.87,0,0,0,.17.78.9.9,0,0,0,.75.34Z"/><path d="M501.8,443.76a4.49,4.49,0,0,1-.22,1.42,4.74,4.74,0,0,1-.63,1.25,4.64,4.64,0,0,1-1,1,4.41,4.41,0,0,1-1.27.67l-2.46.84-.52-1.62,2.56-.86a2.55,2.55,0,0,0,1.31-.94,3,3,0,0,0,.53-1.56l0-.28a1.34,1.34,0,0,1-.44.14,2.89,2.89,0,0,1-.5,0h-1.84a2.64,2.64,0,0,1-1.22-.28,2.82,2.82,0,0,1-.93-.74,2.88,2.88,0,0,1-.54-1.06,2.72,2.72,0,0,1-.05-1.24l.34-1.82a2.78,2.78,0,0,1,1-1.64,2.66,2.66,0,0,1,1.77-.64h1.14a3,3,0,0,1,1.16.23,3,3,0,0,1,1.57,1.59,2.94,2.94,0,0,1,.23,1.14Zm-1.64-1.86v-2.5a1,1,0,0,0-.33-.78,1.1,1.1,0,0,0-.79-.32h-1.42a1,1,0,0,0-.69.24,1.07,1.07,0,0,0-.37.64l-.32,1.62a.89.89,0,0,0,.2.77.92.92,0,0,0,.74.33Z"/><path d="M506.82,443.86a2.11,2.11,0,0,1-.9-.19,2.54,2.54,0,0,1-.74-.5,2.25,2.25,0,0,1-.5-.74,2.34,2.34,0,0,1-.18-.91v-2.28h1.4v1.94a.76.76,0,0,0,.18.51.64.64,0,0,0,.52.21h3.18a1.62,1.62,0,0,0,.88-.23,1.4,1.4,0,0,0,.53-.58,1.72,1.72,0,0,0,.17-.75,1.47,1.47,0,0,0-.2-.74l-2.36-4.22,1.38-.92,2.42,4.3a3.49,3.49,0,0,1,.48,1.79,3.34,3.34,0,0,1-1.61,2.84,3.23,3.23,0,0,1-1.73.47Z"/><path d="M515.62,437.5h6v1.84h-6Z"/><path d="M528.58,447.34a4.12,4.12,0,0,1-2.94-1.23,4.37,4.37,0,0,1-.89-1.33,4,4,0,0,1-.33-1.62v-4.92h1.64v4.66a2.46,2.46,0,0,0,.2,1,2.46,2.46,0,0,0,1.32,1.32,2.46,2.46,0,0,0,1,.2h3.52a2,2,0,0,0,.8-.16,2,2,0,0,0,1.1-1.1,2,2,0,0,0,.16-.8V430.5h1.64v10.12a1.23,1.23,0,0,0,.38.9,1.26,1.26,0,0,0,.92.38h1.1a.25.25,0,0,1,.2.09.29.29,0,0,1,.08.19v1.38a.32.32,0,0,1-.08.21.25.25,0,0,1-.2.09h-.8a2.43,2.43,0,0,1-.86-.15,1.66,1.66,0,0,1-.74-.61v.66a3.33,3.33,0,0,1-.27,1.3,3.66,3.66,0,0,1-.76,1.15,3.84,3.84,0,0,1-1.18.82,3.58,3.58,0,0,1-1.51.31Z"/><path d="M545.54,443.58a.29.29,0,0,1-.08.19.25.25,0,0,1-.2.09h-1.34a2.25,2.25,0,0,1-.66-.1,3.32,3.32,0,0,1-.64-.27,2.09,2.09,0,0,1-.52-.41,1.62,1.62,0,0,1-.32-.5,2.59,2.59,0,0,1-1,.91,2.62,2.62,0,0,1-1.33.37h-1.32a.24.24,0,0,1-.28-.28v-1.4a.24.24,0,0,1,.28-.28h1.42a1.41,1.41,0,0,0,1.4-1.14l.68-3.32,1.62.28-.56,2.78a1.09,1.09,0,0,0,.27,1,1.19,1.19,0,0,0,1,.43h1.32a.24.24,0,0,1,.28.28Zm-6.3-8.32h1.9v-1.9h-1.9Zm2.94,0h1.9v-1.9h-1.9Z"/><path d="M549.22,441.9a1.3,1.3,0,0,0,1.28-1.28v-3.84h1.64v3.84a3.1,3.1,0,0,1-.25,1.25,3.26,3.26,0,0,1-1.72,1.73,3.17,3.17,0,0,1-1.27.26h-3.64a.25.25,0,0,1-.2-.09.29.29,0,0,1-.08-.19V442.2a.32.32,0,0,1,.08-.21.25.25,0,0,1,.2-.09Zm-3.8,4.36h1.88v1.9h-1.88Zm2.92,0h1.9v1.9h-1.9Z"/><path d="M559.34,443.58a.24.24,0,0,1-.28.28h-.7a3.05,3.05,0,0,1-1.24-.25,3.28,3.28,0,0,1-1-.69,3.33,3.33,0,0,1-.69-1,3.1,3.1,0,0,1-.25-1.25V430.5h1.64v10.12a1.3,1.3,0,0,0,1.28,1.28h1a.25.25,0,0,1,.2.09.32.32,0,0,1,.08.21Z"/><path d="M561.82,441.9a1.3,1.3,0,0,0,1.28-1.28v-3.84h1.64v3.84a3.1,3.1,0,0,1-.25,1.25,3.26,3.26,0,0,1-1.72,1.73,3.17,3.17,0,0,1-1.27.26h-2.44a.25.25,0,0,1-.2-.09.29.29,0,0,1-.08-.19V442.2a.32.32,0,0,1,.08-.21.25.25,0,0,1,.2-.09Zm-1.92-7.3h1.9v-1.9h-1.9Zm2.94,0h1.9v-1.9h-1.9Z"/><path d="M579,441.9a1.22,1.22,0,0,0,.9-.37,1.24,1.24,0,0,0,.38-.91v-3.84h1.64v3.84a3.17,3.17,0,0,1-.26,1.27,3.26,3.26,0,0,1-1.73,1.72,3.16,3.16,0,0,1-1.27.25H571a3.71,3.71,0,0,1-3.72-3.72v-3.36H569v3.14a1.89,1.89,0,0,0,.58,1.41,2,2,0,0,0,1.42.57Zm-5.32,6.24h1.9v-1.9h-1.9Z"/><path d="M588.64,443.58a.24.24,0,0,1-.28.28h-.7a3.05,3.05,0,0,1-1.24-.25,3.28,3.28,0,0,1-1-.69,3.33,3.33,0,0,1-.69-1,3.1,3.1,0,0,1-.25-1.25V430.5h1.64v10.12a1.3,1.3,0,0,0,1.28,1.28h1a.25.25,0,0,1,.2.09.32.32,0,0,1,.08.21Z"/><path d="M593.7,443.86a2.91,2.91,0,0,1-1.34-.32,2.84,2.84,0,0,1-1.06-1,2.72,2.72,0,0,1-1,1,3,3,0,0,1-1.36.32h-.54a.25.25,0,0,1-.2-.09.29.29,0,0,1-.08-.19v-1.4a.25.25,0,0,1,.09-.2.29.29,0,0,1,.19-.08h.84a1.21,1.21,0,0,0,.91-.39,1.29,1.29,0,0,0,.37-.93v-3.26h1.66v3.3a1.22,1.22,0,0,0,.37.9,1.21,1.21,0,0,0,.89.38h.44a1.4,1.4,0,0,0,.91-.32,1.39,1.39,0,0,0,.49-.84l.66-3.3,1.62.28-.54,2.76a1.09,1.09,0,0,0,.26,1,1.21,1.21,0,0,0,1,.43h1.64v-5.14h1.64v5.08a2,2,0,0,1-.56,1.45,1.92,1.92,0,0,1-1.44.57h-1.3a2.57,2.57,0,0,1-1.24-.32,2.25,2.25,0,0,1-.92-1,2.63,2.63,0,0,1-1,1A2.79,2.79,0,0,1,593.7,443.86Z"/><path d="M430,470.33l-2.75,10.53h-3.1l-1.68-6.93-1.74,6.93h-3.11l-2.67-10.53h2.75l1.51,7.66,1.88-7.66h2.82l1.8,7.66,1.53-7.66Z"/><path d="M438.09,471a4.72,4.72,0,0,1,1.93,1.85,5.9,5.9,0,0,1,0,5.5,4.68,4.68,0,0,1-1.93,1.86,6.18,6.18,0,0,1-2.91.66h-3.94V470.33h3.94A6.12,6.12,0,0,1,438.09,471Zm-.81,6.85a3,3,0,0,0,.81-2.25,2.81,2.81,0,0,0-3.07-3.07H433.8v6.12H435A3,3,0,0,0,437.28,477.84Z"/><path d="M447.17,475.49v2.8a.54.54,0,0,0,.22.45.84.84,0,0,0,.5.17H449a.19.19,0,0,1,.21.21v1.53a.19.19,0,0,1-.21.21h-.82a1.79,1.79,0,0,1-.54-.09.82.82,0,0,1-.45-.37v.27a3.27,3.27,0,0,1-.19,1.08,3.88,3.88,0,0,1-.52,1,3.71,3.71,0,0,1-.78.75,3.55,3.55,0,0,1-1,.5l-2.07.71-.51-1.55,2.16-.7a1.66,1.66,0,0,0,.91-.67,1.79,1.79,0,0,0,.34-1.07v-5.19Z"/><path d="M451.53,478.91a.67.67,0,0,0,.51-.22.7.7,0,0,0,.21-.52v-3.1h1.65v3.1a2.66,2.66,0,0,1-.21,1.05,2.68,2.68,0,0,1-1.43,1.43,2.58,2.58,0,0,1-1,.21H449a.18.18,0,0,1-.15-.07.2.2,0,0,1-.06-.14v-1.52a.2.2,0,0,1,.06-.15.18.18,0,0,1,.15-.07Zm-2.16,3.75h1.73v1.72h-1.73Z"/><path d="M457.2,480.86h-1.65V470.58h1.65Z"/><path d="M460.68,475.49v2.8a.55.55,0,0,0,.23.45.81.81,0,0,0,.49.17h1.1a.19.19,0,0,1,.21.21v1.53a.19.19,0,0,1-.21.21h-.83a1.79,1.79,0,0,1-.54-.09.82.82,0,0,1-.45-.37v.27a3.26,3.26,0,0,1-.18,1.08,3.88,3.88,0,0,1-.52,1,3.71,3.71,0,0,1-.78.75,3.55,3.55,0,0,1-1,.5l-2.07.71-.51-1.55,2.16-.7a1.7,1.7,0,0,0,.91-.67,1.85,1.85,0,0,0,.33-1.07v-5.19Z"/><path d="M465.05,478.91a.67.67,0,0,0,.51-.22.7.7,0,0,0,.21-.52v-3.1h1.65v3.1a2.66,2.66,0,0,1-.21,1.05,2.77,2.77,0,0,1-1.43,1.43,2.66,2.66,0,0,1-1,.21H462.5a.18.18,0,0,1-.15-.07.2.2,0,0,1-.06-.14v-1.52a.2.2,0,0,1,.06-.15.18.18,0,0,1,.15-.07Zm-2.16,3.75h1.72v1.72h-1.72Z"/><path d="M475.11,474.44a2.38,2.38,0,0,1,1,.19,2.88,2.88,0,0,1,.79.53,2.5,2.5,0,0,1,.53.78,2.39,2.39,0,0,1,.2,1v.77a2.38,2.38,0,0,1-.2.95,2.76,2.76,0,0,1-.53.78,2.67,2.67,0,0,1-.79.53,2.38,2.38,0,0,1-1,.19h-.73a2.37,2.37,0,0,1-.95-.19,2.67,2.67,0,0,1-.79-.53,2.76,2.76,0,0,1-.53-.78,2.37,2.37,0,0,1-.19-.95v-.77a2.38,2.38,0,0,1,.19-1,2.5,2.5,0,0,1,.53-.78,2.69,2.69,0,0,1,.78-.53,2.38,2.38,0,0,1,1-.19Zm.66,3.16v-.72a.54.54,0,0,0-.16-.41.61.61,0,0,0-.42-.16h-.87a.57.57,0,0,0-.42.17.56.56,0,0,0-.17.4v.72a.55.55,0,0,0,.17.41.57.57,0,0,0,.42.16h.87a.54.54,0,0,0,.42-.16A.54.54,0,0,0,475.77,477.6Z"/><path d="M479.39,478.82h1.86v2h-1.86Z"/><path d="M492.38,473.67a1.79,1.79,0,0,1-.15.72,1.65,1.65,0,0,1-.39.58,1.61,1.61,0,0,1-.57.39,1.7,1.7,0,0,1-.71.14h-1a2.2,2.2,0,0,1-.88-.18,2,2,0,0,1-.74-.65,2.36,2.36,0,0,1-.7.63,1.63,1.63,0,0,1-.84.2,2.12,2.12,0,0,1-.51-.07.86.86,0,0,1-.48-.35v5.78h-1.65V474.3a12,12,0,0,0-.08-1.34c-.05-.44-.12-.89-.21-1.34l-.25-1.26,1.62-.32s0,.15.06.32.08.39.14.66.11.57.16.91.11.69.15,1.05a.61.61,0,0,0,.24.42.77.77,0,0,0,.46.15h.21a.83.83,0,0,0,.53-.18.78.78,0,0,0,.27-.47l.55-2.73,1.62.31-.46,2.34a.69.69,0,0,0,.13.5.6.6,0,0,0,.53.23h1.32v-3.43h1.65Z"/><path d="M496.65,471.81l-.55-.49,1.18-1.49,1.94,1.82c.39.36.77.74,1.15,1.15a8.33,8.33,0,0,1,1,1.35,6.92,6.92,0,0,1,.75,1.65,7,7,0,0,1,.28,2.08,4,4,0,0,1-.16,1.17,2.51,2.51,0,0,1-.48.95,2.44,2.44,0,0,1-.84.63,2.89,2.89,0,0,1-1.2.23,2.74,2.74,0,0,1-1-.17,2.54,2.54,0,0,1-.79-.48,2.58,2.58,0,0,1-.8.48,2.71,2.71,0,0,1-.91.17,2.78,2.78,0,0,1-1.25-.26,2.35,2.35,0,0,1-.85-.66,2.53,2.53,0,0,1-.47-1,4.1,4.1,0,0,1-.14-1.1,6,6,0,0,1,.26-1.84,7.08,7.08,0,0,1,.69-1.59,9,9,0,0,1,1-1.4C495.88,472.62,496.26,472.21,496.65,471.81ZM498,473c-.53.5-1,.95-1.3,1.34a7.07,7.07,0,0,0-.81,1.12,3.9,3.9,0,0,0-.4,1.11,6.36,6.36,0,0,0-.11,1.28,1.29,1.29,0,0,0,.19.72.7.7,0,0,0,.63.3h.09a.83.83,0,0,0,.53-.18,1.23,1.23,0,0,0,.34-.71l.29-1.23,1.77.32-.29,1.26a.79.79,0,0,0,.31.39.8.8,0,0,0,.47.15h.09q.84,0,.84-1a6.29,6.29,0,0,0-.12-1.29,4.46,4.46,0,0,0-.41-1.12,6.59,6.59,0,0,0-.8-1.13A16.09,16.09,0,0,0,498,473Z"/><path d="M513.18,474.81a2.39,2.39,0,0,1,1,.2,2.67,2.67,0,0,1,.79.53,2.76,2.76,0,0,1,.53.78,2.38,2.38,0,0,1,.2.95V479a1.71,1.71,0,0,1-.15.71,1.74,1.74,0,0,1-.39.58,2,2,0,0,1-.58.39,1.91,1.91,0,0,1-.71.14h-1.74a2.31,2.31,0,0,1-1-.23,2.38,2.38,0,0,1-.78-.62,2.29,2.29,0,0,1-.46-.89,2.19,2.19,0,0,1,0-1.05l.26-1.38h-.74a.72.72,0,0,0-.72.72v7.3h-1.65V477.5a2.58,2.58,0,0,1,.21-1,2.66,2.66,0,0,1,.58-.86,3,3,0,0,1,.85-.58,2.66,2.66,0,0,1,1.05-.21Zm.83,4.1v-1.65a.54.54,0,0,0-.18-.41.6.6,0,0,0-.41-.16h-1.68l-.31,1.65a.46.46,0,0,0,.45.57Z"/><path d="M519.5,480.86a2.31,2.31,0,0,1-1-.23,2.44,2.44,0,0,1-1.24-1.52,2.14,2.14,0,0,1,0-1l.26-1.36a2.07,2.07,0,0,1,.29-.76,2.37,2.37,0,0,1,.52-.61,2.3,2.3,0,0,1,.68-.4,2.36,2.36,0,0,1,.8-.14h.84a2.57,2.57,0,0,1,1,.19,2.37,2.37,0,0,1,.78.54,2.5,2.5,0,0,1,.53.78,2.42,2.42,0,0,1,.19,1v1.64h1.05a.19.19,0,0,1,.21.21v1.53a.19.19,0,0,1-.21.21H523v.08a1.15,1.15,0,0,1,0,.14,3.15,3.15,0,0,1-.76,1.79,3.76,3.76,0,0,1-1.7,1.15l-2,.71-.51-1.58,2.11-.7a2,2,0,0,0,.92-.63,1.59,1.59,0,0,0,.36-1v-.1a2.49,2.49,0,0,1-.41.13,2.61,2.61,0,0,1-.48.05Zm-.21-1.95h2.11v-1.65a.56.56,0,0,0-.16-.41.54.54,0,0,0-.41-.18h-1.21a.52.52,0,0,0-.36.14.66.66,0,0,0-.2.34l-.24,1.2a.43.43,0,0,0,.1.39A.47.47,0,0,0,519.29,478.91Z"/><path d="M528.17,480.86a2.37,2.37,0,0,1-1-.22,2.21,2.21,0,0,1-.81-.66,2.35,2.35,0,0,1-1.85.88h-.39a.19.19,0,0,1-.21-.21v-1.52A.18.18,0,0,1,524,479a.17.17,0,0,1,.14-.07h.69a.7.7,0,0,0,.51-.22.77.77,0,0,0,.21-.53v-2.67h1.65v2.68a.7.7,0,0,0,.21.52.67.67,0,0,0,.51.22h.44a.82.82,0,0,0,.81-.66l.55-2.72,1.62.3-.45,2.25a.63.63,0,0,0,.14.57.67.67,0,0,0,.54.26h1.11v-3.83h1.65V479a1.71,1.71,0,0,1-.15.71,1.69,1.69,0,0,1-.39.59,2,2,0,0,1-.58.39,1.91,1.91,0,0,1-.71.14h-.93a2,2,0,0,1-.9-.21,1.82,1.82,0,0,1-.72-.69,2.07,2.07,0,0,1-.8.69A2.19,2.19,0,0,1,528.17,480.86Z"/><path d="M535.94,476h4.44v1.82h-4.44Z"/><path d="M545.54,483.48a3.23,3.23,0,0,1-1.31-.26,3.36,3.36,0,0,1-1.79-1.79,3.23,3.23,0,0,1-.26-1.31v-3.95h1.65v3.7a1.54,1.54,0,0,0,.13.65,1.73,1.73,0,0,0,.36.52,1.61,1.61,0,0,0,.53.36,1.68,1.68,0,0,0,.63.12h2.7a1.34,1.34,0,0,0,1-.38,1.31,1.31,0,0,0,.39-.95v-9.62h1.65v7.63a.69.69,0,0,0,.21.5.73.73,0,0,0,.51.2h.93a.18.18,0,0,1,.15.07.2.2,0,0,1,.06.14v1.51a.23.23,0,0,1-.06.16.18.18,0,0,1-.15.07h-.66a1.6,1.6,0,0,1-.56-.09,1.09,1.09,0,0,1-.45-.37v.27a2.43,2.43,0,0,1-.21.94,3.3,3.3,0,0,1-.59.91,3.14,3.14,0,0,1-.94.69,2.71,2.71,0,0,1-1.26.27Z"/><path d="M558.66,480.65a.2.2,0,0,1-.06.14.18.18,0,0,1-.15.07h-1.14a2,2,0,0,1-1-.26,1.47,1.47,0,0,1-.64-.62,1.3,1.3,0,0,1-.3.33,3.23,3.23,0,0,1-.43.29,2.15,2.15,0,0,1-.5.19,1.79,1.79,0,0,1-.51.07h-1.14a.19.19,0,0,1-.21-.21v-1.52a.2.2,0,0,1,.06-.15.18.18,0,0,1,.15-.07h1.29a.82.82,0,0,0,.81-.66l.55-2.7,1.62.28-.45,2.27a.6.6,0,0,0,.14.56.66.66,0,0,0,.54.25h1.12a.18.18,0,0,1,.15.07.2.2,0,0,1,.06.15Zm-5.28-6.48h1.73v-1.73h-1.73Zm2.51,0h1.72v-1.73h-1.72Z"/><path d="M561.9,478.91a.67.67,0,0,0,.51-.22.7.7,0,0,0,.21-.52v-3.1h1.65v3.1a2.66,2.66,0,0,1-.21,1.05,2.68,2.68,0,0,1-2.47,1.64h-3.14a.18.18,0,0,1-.15-.07.2.2,0,0,1-.06-.14v-1.52a.2.2,0,0,1,.06-.15.18.18,0,0,1,.15-.07Zm-3.22,5.47h1.71v-1.72h-1.71Zm2.49,0h1.72v-1.72h-1.72Z"/><path d="M569.21,480.65a.19.19,0,0,1-.21.21h-.44a2.57,2.57,0,0,1-1.86-.77,2.6,2.6,0,0,1-.57-.84,2.48,2.48,0,0,1-.21-1v-7.65h1.65v7.61a.72.72,0,0,0,.72.72H569a.21.21,0,0,1,.15.07.25.25,0,0,1,.06.15Z"/><path d="M571.55,478.91a.67.67,0,0,0,.51-.22.7.7,0,0,0,.21-.52v-3.1h1.65v3.1a2.85,2.85,0,0,1-.21,1.05,3,3,0,0,1-.58.85,2.66,2.66,0,0,1-.86.58,2.58,2.58,0,0,1-1,.21H569a.18.18,0,0,1-.15-.07.2.2,0,0,1-.06-.14v-1.52a.2.2,0,0,1,.06-.15.18.18,0,0,1,.15-.07Zm-1.86-5.2h1.72V472h-1.72Zm2.5,0h1.73V472h-1.73Z"/><path d="M584.61,478.91a.72.72,0,0,0,.72-.72v-3.12H587v3.12a2.58,2.58,0,0,1-.21,1,2.52,2.52,0,0,1-.58.85,2.76,2.76,0,0,1-.85.57,2.66,2.66,0,0,1-1.05.21h-5.7a3,3,0,0,1-1.18-.24,3.22,3.22,0,0,1-1-.64,3.12,3.12,0,0,1-.65-1,3.07,3.07,0,0,1-.24-1.18v-2.76h1.66v2.6a1.18,1.18,0,0,0,.35.88,1.21,1.21,0,0,0,.89.36Zm-4.2,5.46h1.73v-1.72h-1.73Z"/><path d="M591.91,480.65a.19.19,0,0,1-.21.21h-.43a2.57,2.57,0,0,1-1.86-.77,2.6,2.6,0,0,1-.57-.84,2.48,2.48,0,0,1-.21-1v-7.65h1.65v7.61a.72.72,0,0,0,.72.72h.7a.18.18,0,0,1,.15.07.2.2,0,0,1,.06.15Z"/><path d="M595.77,480.86a2.29,2.29,0,0,1-1-.22,2.16,2.16,0,0,1-.82-.66,2.31,2.31,0,0,1-1.85.88h-.39a.19.19,0,0,1-.21-.21v-1.52a.21.21,0,0,1,.07-.15.21.21,0,0,1,.14-.07h.69a.7.7,0,0,0,.51-.22.77.77,0,0,0,.21-.53v-2.67h1.65v2.68a.7.7,0,0,0,.21.52.67.67,0,0,0,.51.22h.44a.82.82,0,0,0,.81-.66l.55-2.72,1.62.3-.45,2.25a.61.61,0,0,0,.15.57.64.64,0,0,0,.53.26h1.11v-3.83h1.65V479a1.87,1.87,0,0,1-.14.71,1.77,1.77,0,0,1-1,1,1.87,1.87,0,0,1-.71.14h-.93a2,2,0,0,1-.9-.21,1.82,1.82,0,0,1-.72-.69,2.07,2.07,0,0,1-.8.69A2.19,2.19,0,0,1,595.77,480.86Z"/><path d="M359.16,500.39l-5.35,18.87h-2.1L347,503.17l-4.86,16.09-2,0-5.24-18.9h2l4.32,16.55L346,500.39h2.11l4.7,16.55,4.34-16.55Z"/><path d="M373,501.52a8,8,0,0,1,3.43,3.27,10.27,10.27,0,0,1,1.19,5.07,10.15,10.15,0,0,1-1.19,5,7.91,7.91,0,0,1-3.43,3.24,11.89,11.89,0,0,1-5.37,1.12h-5.59V500.39h5.59A11.76,11.76,0,0,1,373,501.52Zm.63,14.11a7.79,7.79,0,0,0,2.07-5.77,7.89,7.89,0,0,0-2.07-5.81,8,8,0,0,0-6-2.1h-3.7v15.74h3.7A8.11,8.11,0,0,0,373.64,515.63Z"/><path d="M389.51,509.35a3.53,3.53,0,0,1,1.37.28,3.62,3.62,0,0,1,1.91,1.91,3.36,3.36,0,0,1,.28,1.37v1.38a3.37,3.37,0,0,1-.28,1.38,3.67,3.67,0,0,1-.77,1.12,4.06,4.06,0,0,1-1.14.76,3.53,3.53,0,0,1-1.37.28h-1.33a3.53,3.53,0,0,1-1.37-.28,3.92,3.92,0,0,1-1.14-.76,3.67,3.67,0,0,1-.77-1.12,3.37,3.37,0,0,1-.28-1.38v-1.38a3.36,3.36,0,0,1,.28-1.37,3.88,3.88,0,0,1,.77-1.14,3.76,3.76,0,0,1,1.14-.77,3.53,3.53,0,0,1,1.37-.28Zm2.07,4.81v-1.27a1.83,1.83,0,0,0-.56-1.37,1.94,1.94,0,0,0-1.38-.55h-1.59a1.91,1.91,0,0,0-1.35.55,1.84,1.84,0,0,0-.57,1.37v1.27a1.82,1.82,0,0,0,.57,1.36,1.87,1.87,0,0,0,1.35.55h1.59a1.9,1.9,0,0,0,1.38-.55A1.81,1.81,0,0,0,391.58,514.16Z"/><path d="M397.12,516.59H399v2.67h-1.84Z"/><path d="M407.62,500.44l.7,1.08L405.38,504a1.76,1.76,0,0,0-.48.62,1.83,1.83,0,0,0-.19.71,1.48,1.48,0,0,0,.12.72,1.4,1.4,0,0,0,.47.59l4.21,3.14a27.32,27.32,0,0,1,3.3-3.89l1.18-1.14,1.14,1-1,1-.93.91c-.26.26-.5.53-.73.8s-.46.57-.71.91-.55.76-.89,1.25l-6.21,9-1.35-.84,5.53-7.91a1.42,1.42,0,0,1-.62-.19,3.27,3.27,0,0,1-.59-.35l-3-2.32a2.91,2.91,0,0,1-.9-1.17,3.33,3.33,0,0,1-.25-1.42,3.9,3.9,0,0,1,.38-1.43,3.52,3.52,0,0,1,.93-1.19Z"/><path d="M424.82,507.62q.38.27.84.57c.25.18.53.38.85.59l1,.68,2.68,1.83a3.7,3.7,0,0,1,1.37,3v1a4.13,4.13,0,0,1-.32,1.64,4.22,4.22,0,0,1-2.23,2.27,4.13,4.13,0,0,1-1.66.33h-.56a4.11,4.11,0,0,1-1.64-.33,4.33,4.33,0,0,1-1.33-.92,4.65,4.65,0,0,1-.91-1.35,4.15,4.15,0,0,1-.34-1.64v-.94a4.05,4.05,0,0,1,.38-1.76,3.24,3.24,0,0,1,1.08-1.27c.2-.14.41-.27.62-.4s.42-.25.6-.38l.62-.38L424,508.92Zm-.08,5a1.85,1.85,0,0,0-.51.59,2.17,2.17,0,0,0-.19.84v1a2.76,2.76,0,0,0,.21,1.07,2.69,2.69,0,0,0,1.45,1.44,2.56,2.56,0,0,0,1.07.22h.59a2.44,2.44,0,0,0,1.05-.22,2.67,2.67,0,0,0,.85-.58,2.56,2.56,0,0,0,.58-.86,2.6,2.6,0,0,0,.22-1.07v-1a1.73,1.73,0,0,0-.19-.79,1.79,1.79,0,0,0-.57-.69,5.35,5.35,0,0,0-.47-.31l-.77-.5-1-.68Z"/><path d="M430.28,525.93l-.49-1.54,3.08-1a3.78,3.78,0,0,0,1.94-1.43,3.88,3.88,0,0,0,.73-2.32v-8.29H437v8.18a6.17,6.17,0,0,1-.27,1.77,5.67,5.67,0,0,1-.79,1.55,6.11,6.11,0,0,1-1.23,1.26,5.35,5.35,0,0,1-1.58.85Zm5-20h2v2h-2Z"/><path d="M443.1,519.26h-1.49V501.71h1.49Z"/><path d="M460.11,517.5h.51a.35.35,0,0,1,.27.13.41.41,0,0,1,.11.28v1a.34.34,0,0,1-.38.38h-.51a3.27,3.27,0,0,1-1.86-.55,3.8,3.8,0,0,1-1.33-1.66,3.66,3.66,0,0,1-3.34,2.21h-3.76a2.56,2.56,0,0,1-1.9-.78,2.64,2.64,0,0,1-.77-1.92v-2.65h1.27v2.24a1.49,1.49,0,0,0,.31,1,1.1,1.1,0,0,0,.93.4h3.92a2.24,2.24,0,0,0,1.12-.27,2.37,2.37,0,0,0,.83-.71,2.49,2.49,0,0,0,.46-1,2.17,2.17,0,0,0,0-1.1l-1.94-7.1,1.4-.52,2.49,9a2.37,2.37,0,0,0,.82,1.24A2.17,2.17,0,0,0,460.11,517.5Z"/><path d="M463.46,517.5a2.08,2.08,0,0,0,1.52-.63,2.05,2.05,0,0,0,.64-1.53v-4.75h1.48v4.75a3.77,3.77,0,0,1-.31,1.53,4,4,0,0,1-.83,1.24,4.16,4.16,0,0,1-1.25.84,3.69,3.69,0,0,1-1.52.31h-2.57a.34.34,0,0,1-.38-.38v-1a.41.41,0,0,1,.11-.28.35.35,0,0,1,.27-.13Zm1.78-10.36h2v-2h-2Z"/><path d="M472.66,519.26h-1.48V501.71h1.48Z"/><path d="M480.49,513.18a4.15,4.15,0,0,1,.87-2.74,4.19,4.19,0,0,1,2.24-1.39l3.81-1v-2.26h1.48v9.37a2.12,2.12,0,0,0,.2.9,2.61,2.61,0,0,0,1.33,1.26,2.41,2.41,0,0,0,.93.18h.81a.34.34,0,0,1,.38.38v1a.34.34,0,0,1-.38.38h-.81a3.76,3.76,0,0,1-2.19-.68,4,4,0,0,1-1.43-1.72,2.4,2.4,0,0,1-.47.27,1.47,1.47,0,0,1-.56.1h-4a2,2,0,0,1-2.24-2.26Zm6.92-3.53-3.54.92a2.24,2.24,0,0,0-.8.37,2.71,2.71,0,0,0-.6.62,2.91,2.91,0,0,0-.38.77,2.8,2.8,0,0,0-.14.85v2.25h5.46Z"/><path d="M495,517.5a2.15,2.15,0,0,0,2.16-2.16v-4.75h1.49v4.75a4,4,0,0,1-.31,1.53,4,4,0,0,1-.84,1.24,4.12,4.12,0,0,1-1.24.84,3.77,3.77,0,0,1-1.53.31h-2.56a.34.34,0,0,1-.38-.38v-1a.41.41,0,0,1,.11-.28.35.35,0,0,1,.27-.13Zm-2.4,7h2v-2h-2Z"/><path d="M511.52,524a5.11,5.11,0,0,1-2-.4,5.21,5.21,0,0,1-1.65-1.11,5.31,5.31,0,0,1-1.1-1.64,5.11,5.11,0,0,1-.41-2v-6.24h1.49v6a3.61,3.61,0,0,0,1.08,2.61,4.05,4.05,0,0,0,1.19.79,3.46,3.46,0,0,0,1.43.3h4.64a3.12,3.12,0,0,0,1.22-.24,3.24,3.24,0,0,0,1-.68,3.11,3.11,0,0,0,.68-1,3.07,3.07,0,0,0,.24-1.21V501.71h1.49v17.66a4.37,4.37,0,0,1-.37,1.81,4.7,4.7,0,0,1-1,1.45,4.64,4.64,0,0,1-1.47,1,4.59,4.59,0,0,1-1.8.36Z"/><path d="M533.44,519.53a5.62,5.62,0,0,1-.28,1.78,5.87,5.87,0,0,1-.8,1.58,5.65,5.65,0,0,1-1.23,1.26,5.43,5.43,0,0,1-1.58.83l-2.89,1-.48-1.54,3.05-1a3.9,3.9,0,0,0,2-1.42,3.82,3.82,0,0,0,.74-2.31v-.59a2,2,0,0,1-.92.19h-3.1a3.07,3.07,0,0,1-1.45-.34,3.45,3.45,0,0,1-1.12-.88,3.09,3.09,0,0,1-.65-1.26,3.56,3.56,0,0,1-.05-1.49l.46-2.46a3.12,3.12,0,0,1,.4-1.08,3.74,3.74,0,0,1,.74-.85,3.47,3.47,0,0,1,1-.56,3.1,3.1,0,0,1,1.13-.21h1.52a3.37,3.37,0,0,1,1.37.29,3.89,3.89,0,0,1,1.14.75,3.67,3.67,0,0,1,.77,1.12,3.41,3.41,0,0,1,.28,1.38Zm-1.48-2v-3.83a1.82,1.82,0,0,0-.57-1.36,1.91,1.91,0,0,0-1.38-.56h-1.62a1.87,1.87,0,0,0-1.23.44,1.83,1.83,0,0,0-.66,1.1l-.4,2.19a1.54,1.54,0,0,0,0,.77,2.12,2.12,0,0,0,.34.65,1.56,1.56,0,0,0,.57.44,1.64,1.64,0,0,0,.74.16Z"/><path d="M539,519.26h-1.49V501.71H539Z"/><path d="M543,510.94h8.21v1.68H543Z"/><path d="M569.08,515.7a2.31,2.31,0,0,1,1.24.7,1.84,1.84,0,0,1,.46,1.29v1.14a4.51,4.51,0,0,1-.36,1.79,4.75,4.75,0,0,1-1,1.47,4.55,4.55,0,0,1-3.24,1.35h-5.45a5.11,5.11,0,0,1-2-.4,5.21,5.21,0,0,1-1.65-1.11,5.31,5.31,0,0,1-1.1-1.64,5.11,5.11,0,0,1-.41-2V512H557v6a3.61,3.61,0,0,0,.28,1.43,3.68,3.68,0,0,0,.8,1.18,4.05,4.05,0,0,0,1.19.79,3.46,3.46,0,0,0,1.43.3h5.45a3.12,3.12,0,0,0,1.22-.24,3.16,3.16,0,0,0,1.64-1.68,3.08,3.08,0,0,0,.25-1.21v-1.19l-7.29-1.7v-2.76a4.58,4.58,0,0,1,.33-1.75,4.91,4.91,0,0,1,.91-1.43,4.39,4.39,0,0,1,1.31-1,5,5,0,0,1,1.55-.49l2.92-.37.21,1.51-3.29.46a2.67,2.67,0,0,0-1.8,1.05,3.17,3.17,0,0,0-.69,2v1.48Z"/><path d="M577.53,519.26a2.66,2.66,0,0,1-2.7-2.7v-2.65h1.27v2.27a1.43,1.43,0,0,0,.31.93,1.12,1.12,0,0,0,.93.39h4.16a2.62,2.62,0,0,0,1.48-.37,2.11,2.11,0,0,0,.81-1A2.59,2.59,0,0,0,584,515a2.4,2.4,0,0,0-.32-1.12l-3-5.4,1.24-.86,2.92,5.23a4.9,4.9,0,0,1,.66,2.31,4.16,4.16,0,0,1-.48,2.07,4,4,0,0,1-1.45,1.48,4.1,4.1,0,0,1-2.16.57Z"/><path d="M594.78,518.88a.33.33,0,0,1-.37.38h-1.09a3.72,3.72,0,0,1-1.52-.31,4,4,0,0,1-2.08-2.08,3.77,3.77,0,0,1-.31-1.53V501.71h1.49v13.63a2.15,2.15,0,0,0,2.15,2.16h1.36a.39.39,0,0,1,.27.13.4.4,0,0,1,.1.28Z"/><path d="M597.24,517.5a2.12,2.12,0,0,0,1.53-.63,2.08,2.08,0,0,0,.63-1.53v-4.75h1.49v4.75a4,4,0,0,1-1.15,2.77,4.12,4.12,0,0,1-1.24.84,3.77,3.77,0,0,1-1.53.31h-2.56a.33.33,0,0,1-.38-.38v-1a.37.37,0,0,1,.11-.28.35.35,0,0,1,.27-.13Zm-2.4,7h2v-2h-2Z"/><path d="M424.85,539.8l-3,10.46h-1.53l-2.43-8.42-2.52,8.42h-1.52L410.9,539.8h1.45l2.28,8.87,2.52-8.87h1.53l2.4,8.84,2.3-8.84Z"/><path d="M432.57,540.44a4.62,4.62,0,0,1,1.92,1.82,6.23,6.23,0,0,1,0,5.58,4.52,4.52,0,0,1-1.92,1.8,6.7,6.7,0,0,1-3,.62h-3.25V539.8h3.25A6.57,6.57,0,0,1,432.57,540.44Zm.12,7.62a4.08,4.08,0,0,0,1.07-3,3.78,3.78,0,0,0-4.16-4.14h-1.89v8.22h1.89A4.15,4.15,0,0,0,432.69,548.06Z"/><path d="M441.44,545.64V548a.94.94,0,0,0,.32.74,1.07,1.07,0,0,0,.76.3H444a.18.18,0,0,1,.15.07.2.2,0,0,1,.06.15v.8a.19.19,0,0,1-.21.21H442.7a1.78,1.78,0,0,1-.71-.15,1.28,1.28,0,0,1-.55-.45v.66a3.28,3.28,0,0,1-.63,1.9,3.23,3.23,0,0,1-.71.72,3.42,3.42,0,0,1-.91.47l-1.71.6-.33-1,1.81-.59a2,2,0,0,0,1.05-.77,2.09,2.09,0,0,0,.39-1.23v-4.74Z"/><path d="M445.53,549a1.08,1.08,0,0,0,1.08-1.08V545.2h1V548a2.23,2.23,0,0,1-.18.9,2.11,2.11,0,0,1-.5.73,2.29,2.29,0,0,1-.73.49,2.18,2.18,0,0,1-.89.18H444a.19.19,0,0,1-.21-.21v-.8a.2.2,0,0,1,.06-.15A.18.18,0,0,1,444,549Zm-1.23,4.3h1.28v-1.27H444.3Z"/><path d="M450.72,550.26h-1v-9.88h1Z"/><path d="M454,545.64V548a.94.94,0,0,0,.32.74,1.07,1.07,0,0,0,.76.3h1.5a.18.18,0,0,1,.15.07.2.2,0,0,1,.06.15v.8a.19.19,0,0,1-.21.21H455.3a1.78,1.78,0,0,1-.71-.15,1.28,1.28,0,0,1-.55-.45v.66a3.28,3.28,0,0,1-.63,1.9,3.23,3.23,0,0,1-.71.72,3.42,3.42,0,0,1-.91.47l-1.71.6-.33-1,1.81-.59a2,2,0,0,0,1.05-.77,2.09,2.09,0,0,0,.39-1.23v-4.74Z"/><path d="M458.13,549a1.08,1.08,0,0,0,1.08-1.08V545.2h1V548a2.23,2.23,0,0,1-.18.9,2.11,2.11,0,0,1-.5.73,2.29,2.29,0,0,1-.73.49,2.18,2.18,0,0,1-.89.18h-1.33a.19.19,0,0,1-.21-.21v-.8a.2.2,0,0,1,.06-.15.18.18,0,0,1,.15-.07Zm-1.23,4.3h1.28v-1.27H456.9Z"/><path d="M466.92,544.53a2.07,2.07,0,0,1,.82.16,2.39,2.39,0,0,1,.67.45,2.19,2.19,0,0,1,.45.67,2.07,2.07,0,0,1,.16.82v.76a2.05,2.05,0,0,1-.16.81,2.15,2.15,0,0,1-.45.66,2,2,0,0,1-.67.45,2.08,2.08,0,0,1-.82.17h-.73a2,2,0,0,1-.82-.17,1.93,1.93,0,0,1-.67-.45,2.15,2.15,0,0,1-.45-.66,2.05,2.05,0,0,1-.16-.81v-.76a2.07,2.07,0,0,1,.16-.82,2.19,2.19,0,0,1,.45-.67,2.25,2.25,0,0,1,.67-.45,2,2,0,0,1,.82-.16Zm1,2.79v-.71a.91.91,0,0,0-.28-.67.94.94,0,0,0-.68-.27h-.89a.94.94,0,0,0-.67.27.9.9,0,0,0-.27.67v.71a.92.92,0,0,0,.94.94H467a.94.94,0,0,0,1-.94Z"/><path d="M471.17,548.64h1.23v1.62h-1.23Z"/><path d="M483.06,543.55a1.35,1.35,0,0,1-.36,1,1.3,1.3,0,0,1-1,.37h-1a1.93,1.93,0,0,1-.93-.22,1.87,1.87,0,0,1-.69-.65,2.12,2.12,0,0,1-.72.65,2.07,2.07,0,0,1-1,.22,1.77,1.77,0,0,1-.64-.12,1.32,1.32,0,0,1-.57-.42v5.9h-1v-6.2a12.48,12.48,0,0,0-.08-1.38q-.07-.69-.21-1.38l-.19-.88,1-.2a1.52,1.52,0,0,0,.05.24l.12.59c0,.24.09.51.13.81s.09.61.12.93a.65.65,0,0,0,.07.29,1.17,1.17,0,0,0,.21.3,1.1,1.1,0,0,0,.33.21,1.06,1.06,0,0,0,.45.08h.21a1.19,1.19,0,0,0,.77-.27,1.09,1.09,0,0,0,.4-.67l.48-2.39,1,.2-.39,2a1,1,0,0,0,.24.79,1,1,0,0,0,.79.35H482v-3.42h1Z"/><path d="M488.33,541.53l-.57-.53.67-.85,1.62,1.45c.32.3.66.63,1,1a9.61,9.61,0,0,1,1,1.34,8.45,8.45,0,0,1,.78,1.66,6.5,6.5,0,0,1,.31,2,3.29,3.29,0,0,1-.15,1,2.32,2.32,0,0,1-.42.83,2,2,0,0,1-.7.56,2.28,2.28,0,0,1-1,.21,2.07,2.07,0,0,1-1-.23,3.17,3.17,0,0,1-.81-.69,3.2,3.2,0,0,1-.82.69,2.08,2.08,0,0,1-1,.23,2.31,2.31,0,0,1-1-.21,2,2,0,0,1-.71-.57,2.37,2.37,0,0,1-.4-.83,3.66,3.66,0,0,1-.13-1,6.12,6.12,0,0,1,.29-1.91,7.59,7.59,0,0,1,.74-1.61,8.74,8.74,0,0,1,1.05-1.39C487.51,542.31,487.92,541.91,488.33,541.53Zm.78.7c-.45.44-.86.85-1.23,1.25a8.64,8.64,0,0,0-.93,1.23,5.48,5.48,0,0,0-.61,1.35,5.34,5.34,0,0,0-.22,1.6,1.8,1.8,0,0,0,.25,1,.9.9,0,0,0,.85.41h.18a1.16,1.16,0,0,0,.76-.27,1.29,1.29,0,0,0,.44-.75l.33-1.39,1.05.18-.32,1.33a1.1,1.1,0,0,0,.15.31,1.42,1.42,0,0,0,.26.29,1.34,1.34,0,0,0,.36.22.91.91,0,0,0,.39.08H491a.93.93,0,0,0,.86-.4,1.9,1.9,0,0,0,.25-1,5.81,5.81,0,0,0-.21-1.63,5.08,5.08,0,0,0-.59-1.35,7.51,7.51,0,0,0-.94-1.22C490,543.07,489.58,542.67,489.11,542.23Z"/><path d="M498.6,543.52l.48.33a5.91,5.91,0,0,0,.49.33l.58.39,1.54,1a2,2,0,0,1,.64.77,2.39,2.39,0,0,1,.22,1v.54a2.48,2.48,0,0,1-.18.93,2.34,2.34,0,0,1-.51.79,2.3,2.3,0,0,1-.79.55,2.38,2.38,0,0,1-1,.2h-.31a2.31,2.31,0,0,1-1-.2,2.26,2.26,0,0,1-.78-.55,2.68,2.68,0,0,1-.51-.79,2.48,2.48,0,0,1-.18-.93v-.51a2.33,2.33,0,0,1,.24-1.06,2,2,0,0,1,.66-.73l.31-.19.27-.17.27-.18-1-.67Zm.11,3a1.27,1.27,0,0,0-.27.3,1,1,0,0,0-.11.43v.57a1.4,1.4,0,0,0,.11.53,1.21,1.21,0,0,0,.29.44,1.23,1.23,0,0,0,.44.3,1.24,1.24,0,0,0,.54.11h.42a1.31,1.31,0,0,0,.56-.12,1.5,1.5,0,0,0,.43-.3,1.46,1.46,0,0,0,.29-.44,1.24,1.24,0,0,0,.1-.5v-.57a1,1,0,0,0-.4-.77l-.26-.17-.4-.26-.54-.36Z"/><path d="M501.84,554l-.33-1,1.82-.59a2.12,2.12,0,0,0,1.44-2v-4.74h1v4.65a3.2,3.2,0,0,1-.16,1,3.32,3.32,0,0,1-1.17,1.62,3,3,0,0,1-.9.48Zm2.79-11.4h1.28v1.28h-1.28Z"/><path d="M509.19,550.26h-1v-9.88h1Z"/><path d="M518.58,549h.32a.18.18,0,0,1,.15.07.2.2,0,0,1,.06.15v.8a.19.19,0,0,1-.21.21h-.29a1.93,1.93,0,0,1-1-.29.78.78,0,1,0-1.56,0,2.12,2.12,0,0,1-1.07.29H512.9a1.51,1.51,0,0,1-.63-.13,1.6,1.6,0,0,1-.51-.35,1.67,1.67,0,0,1-.34-.52,1.44,1.44,0,0,1-.13-.62v-1.59h.89v1.32a.71.71,0,0,0,.15.46.54.54,0,0,0,.45.2H515a1.2,1.2,0,0,0,.57-.14,1.22,1.22,0,0,0,.42-.36,1.16,1.16,0,0,0,.24-.5,1.18,1.18,0,0,0,0-.56l-1.11-4,1-.36,1.42,5.1a1.19,1.19,0,0,0,.41.62A1.12,1.12,0,0,0,518.58,549Z"/><path d="M520.71,549a1.06,1.06,0,0,0,.77-.32,1,1,0,0,0,.31-.75V545.2h1V548a2.23,2.23,0,0,1-.18.9,2.11,2.11,0,0,1-.5.73,2.29,2.29,0,0,1-.73.49,2.18,2.18,0,0,1-.89.18H518.9a.19.19,0,0,1-.21-.21v-.8a.2.2,0,0,1,.06-.15.18.18,0,0,1,.15-.07Zm.92-5.61h1.27v-1.28h-1.27Z"/><path d="M526,550.26h-1v-9.88h1Z"/><path d="M530,546.73a2.36,2.36,0,0,1,.5-1.56,2.41,2.41,0,0,1,1.3-.82l2.07-.53v-1.23h1v5.27a1,1,0,0,0,.11.45,1.41,1.41,0,0,0,.27.37,1.3,1.3,0,0,0,.39.25,1.18,1.18,0,0,0,.48.1h.45a.19.19,0,0,1,.21.21v.81a.19.19,0,0,1-.21.21h-.45a2.15,2.15,0,0,1-1.25-.38,2.32,2.32,0,0,1-.81-1,1,1,0,0,1-.67.22h-2a1.42,1.42,0,0,1-1.05-.37,1.45,1.45,0,0,1-.36-1Zm3.87-1.81-1.85.48a1.21,1.21,0,0,0-.73.52,1.51,1.51,0,0,0-.26.84v1.14h2.84Z"/><path d="M538.14,549a1.08,1.08,0,0,0,1.08-1.08V545.2h1V548a2.23,2.23,0,0,1-.18.9,2.11,2.11,0,0,1-.5.73,2.29,2.29,0,0,1-.73.49,2.18,2.18,0,0,1-.89.18h-1.33a.19.19,0,0,1-.21-.21v-.8a.2.2,0,0,1,.06-.15.18.18,0,0,1,.15-.07Zm-1.23,4.3h1.28v-1.27h-1.28Z"/><path d="M549.87,545a2.07,2.07,0,0,1,.82.16,2.39,2.39,0,0,1,.67.45,1.93,1.93,0,0,1,.45.66,2,2,0,0,1,.16.81v1.88a1.3,1.3,0,0,1-.37,1,1.27,1.27,0,0,1-1,.37h-1.86a1.91,1.91,0,0,1-.86-.2,1.86,1.86,0,0,1-.66-.52,2,2,0,0,1-.39-.76,1.86,1.86,0,0,1,0-.88l.33-1.81h-.81a1,1,0,0,0-.77.34,1.13,1.13,0,0,0-.32.8V554h-1v-6.73a2.11,2.11,0,0,1,.19-.9,2.36,2.36,0,0,1,.5-.74,2.33,2.33,0,0,1,.74-.49,2.26,2.26,0,0,1,.9-.18Zm1.07,4.08v-2a.92.92,0,0,0-.93-.93h-1.79l-.36,2a.84.84,0,0,0,.15.69.82.82,0,0,0,.68.29Z"/><path d="M559.05,550.3a3.2,3.2,0,0,1-.16,1,3.54,3.54,0,0,1-.46.91,3.28,3.28,0,0,1-.71.73,3,3,0,0,1-.92.48l-1.71.58-.33-1,1.8-.6a2.1,2.1,0,0,0,1-.76,1.94,1.94,0,0,0,.4-1.22v-.27a.77.77,0,0,1-.28.1l-.32,0h-1.54a2,2,0,0,1-.87-.2,1.86,1.86,0,0,1-.66-.52,2,2,0,0,1-.39-.76,2,2,0,0,1,0-.88l.26-1.36a1.84,1.84,0,0,1,.24-.64,2.07,2.07,0,0,1,.43-.5,1.94,1.94,0,0,1,.58-.33,1.91,1.91,0,0,1,.68-.12H557a2.07,2.07,0,0,1,.82.16,2.39,2.39,0,0,1,.67.45,1.93,1.93,0,0,1,.45.66,2,2,0,0,1,.16.81ZM558,549v-2a1,1,0,0,0-.95-.94h-1a.91.91,0,0,0-.6.21,1,1,0,0,0-.33.55l-.22,1.2a.79.79,0,0,0,.18.69.82.82,0,0,0,.64.29Z"/><path d="M562.82,550.26a1.51,1.51,0,0,1-.63-.13,1.45,1.45,0,0,1-.52-.35,1.63,1.63,0,0,1-.35-.53,1.68,1.68,0,0,1-.12-.63V547h.88v1.37a.67.67,0,0,0,.15.44.53.53,0,0,0,.45.19H565a1.26,1.26,0,0,0,.73-.2,1.12,1.12,0,0,0,.42-.47,1.24,1.24,0,0,0,.12-.61,1.38,1.38,0,0,0-.16-.6l-1.73-3.07.87-.59,1.71,3.06a2.53,2.53,0,0,1,.07,2.51,2.38,2.38,0,0,1-.84.86,2.3,2.3,0,0,1-1.25.34Z"/><path d="M569.42,545.56H574v1.16h-4.53Z"/><path d="M583.86,548.17a1.38,1.38,0,0,1,.77.44,1.19,1.19,0,0,1,.28.81v.6a2.66,2.66,0,0,1-.21,1.05,2.56,2.56,0,0,1-.58.86,2.63,2.63,0,0,1-1.89.79h-3a2.92,2.92,0,0,1-1.17-.24,3.15,3.15,0,0,1-.95-.65,3,3,0,0,1-.64-1,2.9,2.9,0,0,1-.24-1.18v-3.45h1v3.29a1.94,1.94,0,0,0,.15.76,1.85,1.85,0,0,0,.42.61,1.93,1.93,0,0,0,.63.42,1.83,1.83,0,0,0,.77.16h3.07a1.44,1.44,0,0,0,.62-.13,1.52,1.52,0,0,0,.51-.34,1.64,1.64,0,0,0,.48-1.15v-.59l-4.1-1v-1.59a2.7,2.7,0,0,1,.71-1.84,2.83,2.83,0,0,1,.75-.59,2.71,2.71,0,0,1,.93-.28l1.74-.23.16,1.09-2,.26a1.5,1.5,0,0,0-.94.55,1.64,1.64,0,0,0-.36,1v.73Z"/><path d="M588.65,550.26a1.51,1.51,0,0,1-.63-.13,1.37,1.37,0,0,1-.52-.35,1.63,1.63,0,0,1-.35-.53,1.68,1.68,0,0,1-.12-.63V547h.88v1.37a.67.67,0,0,0,.15.44.53.53,0,0,0,.45.19h2.36a1.26,1.26,0,0,0,.73-.2,1.12,1.12,0,0,0,.42-.47,1.24,1.24,0,0,0,.12-.61,1.53,1.53,0,0,0-.16-.6l-1.73-3.07.87-.59,1.71,3.06a2.53,2.53,0,0,1,.07,2.51,2.38,2.38,0,0,1-.84.86,2.3,2.3,0,0,1-1.25.34Z"/><path d="M598.3,550.05a.19.19,0,0,1-.21.21h-.55a2.25,2.25,0,0,1-.89-.18,2.31,2.31,0,0,1-.73-.5,2.21,2.21,0,0,1-.5-.73,2.25,2.25,0,0,1-.18-.89v-7.58h1V548a1,1,0,0,0,.32.76,1.07,1.07,0,0,0,.76.32h.73a.18.18,0,0,1,.15.07.2.2,0,0,1,.06.15Z"/><path d="M599.61,549a1.06,1.06,0,0,0,.77-.32,1.1,1.1,0,0,0,.31-.76V545.2h1V548a2.07,2.07,0,0,1-.18.9,2,2,0,0,1-.49.73,2.29,2.29,0,0,1-.73.49,2.18,2.18,0,0,1-.89.18h-1.34a.18.18,0,0,1-.2-.21v-.8a.2.2,0,0,1,.06-.15.16.16,0,0,1,.14-.07Zm-1.23,4.3h1.28v-1.27h-1.28Z"/><path d="M470.83,570.79l-2.22,7.67h-1.12l-1.79-6.17-1.84,6.17h-1.12l-2.14-7.68h1.07l1.67,6.5,1.85-6.5h1.12l1.76,6.48,1.68-6.48Z"/><path d="M476.49,571.26a3.32,3.32,0,0,1,1.41,1.34,4.16,4.16,0,0,1,.49,2,4.11,4.11,0,0,1-.49,2,3.22,3.22,0,0,1-1.41,1.32,4.75,4.75,0,0,1-2.17.46h-2.39v-7.67h2.39A4.76,4.76,0,0,1,476.49,571.26Zm.09,5.59a3,3,0,0,0,.78-2.21,3.06,3.06,0,0,0-.78-2.23,3,3,0,0,0-2.26-.8h-1.39v6h1.39A3.06,3.06,0,0,0,476.58,576.85Z"/><path d="M483,575.07v1.73a.7.7,0,0,0,.23.54.82.82,0,0,0,.56.22h1.1a.13.13,0,0,1,.11.05.15.15,0,0,1,0,.11v.59a.13.13,0,0,1-.15.15h-1a1.35,1.35,0,0,1-.52-.11.86.86,0,0,1-.4-.33v.48a2.36,2.36,0,0,1-.13.75,2.65,2.65,0,0,1-.33.65,2.33,2.33,0,0,1-.52.52,2.44,2.44,0,0,1-.68.35l-1.25.44-.24-.76,1.33-.44a1.45,1.45,0,0,0,.77-.56,1.53,1.53,0,0,0,.29-.9v-3.48Z"/><path d="M486,577.56a.74.74,0,0,0,.56-.24.78.78,0,0,0,.23-.55v-2h.76v2a1.65,1.65,0,0,1-.13.66,1.64,1.64,0,0,1-.37.53,1.77,1.77,0,0,1-.53.36,1.57,1.57,0,0,1-.65.13h-1c-.11,0-.16-.05-.16-.15v-.59a.16.16,0,0,1,0-.11.12.12,0,0,1,.11-.05Zm-.9,3.15H486v-.93h-.93Z"/><path d="M489.8,578.46H489v-7.25h.76Z"/><path d="M492.24,575.07v1.73a.7.7,0,0,0,.23.54.82.82,0,0,0,.56.22h1.1a.13.13,0,0,1,.11.05.15.15,0,0,1,0,.11v.59a.13.13,0,0,1-.15.15h-1a1.35,1.35,0,0,1-.52-.11.86.86,0,0,1-.4-.33v.48a2.36,2.36,0,0,1-.13.75,2.65,2.65,0,0,1-.33.65,2.33,2.33,0,0,1-.52.52,2.44,2.44,0,0,1-.68.35l-1.25.44-.24-.76,1.33-.44a1.45,1.45,0,0,0,.77-.56,1.53,1.53,0,0,0,.29-.9v-3.48Z"/><path d="M495.24,577.56a.74.74,0,0,0,.56-.24.78.78,0,0,0,.23-.55v-2h.76v2a1.85,1.85,0,0,1-.13.66,1.64,1.64,0,0,1-.37.53,1.77,1.77,0,0,1-.53.36,1.57,1.57,0,0,1-.65.13h-1c-.11,0-.16-.05-.16-.15v-.59a.16.16,0,0,1,0-.11.12.12,0,0,1,.11-.05Zm-.9,3.15h.93v-.93h-.93Z"/><path d="M501.68,574.26a1.46,1.46,0,0,1,.6.12,1.54,1.54,0,0,1,.82.82,1.46,1.46,0,0,1,.12.6v.56a1.52,1.52,0,0,1-.12.59,1.63,1.63,0,0,1-.33.49,1.51,1.51,0,0,1-.49.33,1.46,1.46,0,0,1-.6.12h-.54a1.45,1.45,0,0,1-.59-.12,1.51,1.51,0,0,1-.49-.33,1.63,1.63,0,0,1-.33-.49,1.53,1.53,0,0,1-.13-.59v-.56a1.47,1.47,0,0,1,.13-.6,1.54,1.54,0,0,1,.82-.82,1.45,1.45,0,0,1,.59-.12Zm.76,2v-.51a.65.65,0,0,0-.2-.5.7.7,0,0,0-.5-.2h-.65a.7.7,0,0,0-.49.2.65.65,0,0,0-.2.5v.51a.64.64,0,0,0,.2.49.67.67,0,0,0,.49.21h.65a.67.67,0,0,0,.5-.21A.64.64,0,0,0,502.44,576.3Z"/><path d="M504.8,577.27h.9v1.19h-.9Z"/><path d="M508.12,571.1c.05.24.09.44.13.62s.07.39.11.61.06.45.08.67a.56.56,0,0,0,.26.45.82.82,0,0,0,.52.18h1.62v-2.51h.79v2.42a1,1,0,0,1-.27.72,1,1,0,0,1-.72.27h-1.29a1.23,1.23,0,0,1-.47-.09,1,1,0,0,1-.4-.31v4.33h-.76v-4.54c0-.35,0-.69-.05-1s-.09-.67-.16-1l-.14-.65Z"/><path d="M515.51,572.06l-.42-.39.5-.62,1.19,1.06c.23.22.48.46.75.75a6.33,6.33,0,0,1,.75,1,5.7,5.7,0,0,1,.57,1.22,4.66,4.66,0,0,1,.22,1.49,2.55,2.55,0,0,1-.1.74,1.71,1.71,0,0,1-.31.6,1.49,1.49,0,0,1-.51.42,1.73,1.73,0,0,1-.75.15,1.47,1.47,0,0,1-.72-.17.61.61,0,0,0-1.2,0,1.53,1.53,0,0,1-.72.17,1.73,1.73,0,0,1-.75-.15,1.66,1.66,0,0,1-.52-.42,1.81,1.81,0,0,1-.29-.61,2.52,2.52,0,0,1-.1-.73,4.42,4.42,0,0,1,.21-1.4,5.1,5.1,0,0,1,.55-1.18,5.93,5.93,0,0,1,.77-1A12.34,12.34,0,0,1,515.51,572.06Zm.57.51c-.33.32-.63.62-.89.92a5.68,5.68,0,0,0-.69.9,4.43,4.43,0,0,0-.45,1,4.26,4.26,0,0,0-.16,1.18,1.3,1.3,0,0,0,.19.71.66.66,0,0,0,.62.3h.13a.87.87,0,0,0,.56-.2.92.92,0,0,0,.32-.55l.24-1,.77.13-.23,1a.76.76,0,0,0,.11.22,1.3,1.3,0,0,0,.19.22,1.4,1.4,0,0,0,.26.16.75.75,0,0,0,.29.06h.13a.67.67,0,0,0,.63-.3,1.34,1.34,0,0,0,.18-.71,4.38,4.38,0,0,0-.15-1.2,3.63,3.63,0,0,0-.43-1,5.19,5.19,0,0,0-.69-.89C516.74,573.19,516.43,572.89,516.08,572.57Z"/><path d="M523.05,573.52l.35.24a3.53,3.53,0,0,0,.35.24l.43.29,1.13.77a1.42,1.42,0,0,1,.47.56,1.66,1.66,0,0,1,.16.73v.39a2,2,0,0,1-.13.69,1.88,1.88,0,0,1-.38.58,1.82,1.82,0,0,1-1.31.55h-.23a1.72,1.72,0,0,1-.72-.15,1.78,1.78,0,0,1-.57-.4,1.85,1.85,0,0,1-.37-.58,1.64,1.64,0,0,1-.14-.69v-.37a1.69,1.69,0,0,1,.18-.78,1.37,1.37,0,0,1,.48-.53l.23-.14.2-.12.2-.14-.74-.49Zm.07,2.19a1,1,0,0,0-.19.22.61.61,0,0,0-.08.32v.42a1,1,0,0,0,.07.38,1.27,1.27,0,0,0,.22.33,1.21,1.21,0,0,0,.32.22,1.1,1.1,0,0,0,.4.08h.31a.9.9,0,0,0,.4-.09.85.85,0,0,0,.32-.23,1,1,0,0,0,.21-.31,1,1,0,0,0,.08-.37v-.42a.66.66,0,0,0-.07-.3.71.71,0,0,0-.23-.26l-.18-.13-.3-.19-.4-.26Z"/><path d="M525.42,581.2l-.24-.75,1.33-.44a1.43,1.43,0,0,0,.76-.56,1.48,1.48,0,0,0,.3-.9v-3.48h.76v3.41a2.36,2.36,0,0,1-.13.75,2.55,2.55,0,0,1-.33.66,2.61,2.61,0,0,1-.52.53,2.32,2.32,0,0,1-.66.35Zm2.05-8.36h.93v.93h-.93Z"/><path d="M530.81,578.46h-.76v-7.25h.76Z"/><path d="M537.7,577.56h.23a.13.13,0,0,1,.11.05.15.15,0,0,1,0,.11v.59a.13.13,0,0,1-.15.15h-.21a1.43,1.43,0,0,1-.76-.21,1.58,1.58,0,0,1-.55-.62,1.6,1.6,0,0,1-.59.62,1.55,1.55,0,0,1-.78.21h-1.51a1.18,1.18,0,0,1-.46-.09,1.23,1.23,0,0,1-.37-.26,1.42,1.42,0,0,1-.26-.38,1.22,1.22,0,0,1-.09-.46v-1.16H533v1a.53.53,0,0,0,.11.34.37.37,0,0,0,.33.15h1.61a.92.92,0,0,0,.41-.1,1,1,0,0,0,.32-.27.89.89,0,0,0,.16-.78l-.82-3,.72-.26,1,3.74a.88.88,0,0,0,.31.45A.79.79,0,0,0,537.7,577.56Z"/><path d="M539.26,577.56a.77.77,0,0,0,.56-.23.78.78,0,0,0,.23-.55v-2h.76v2a1.65,1.65,0,0,1-.13.66,1.64,1.64,0,0,1-.37.53,1.77,1.77,0,0,1-.53.36,1.57,1.57,0,0,1-.65.13h-1.2a.14.14,0,0,1-.16-.15v-.59a.16.16,0,0,1,.05-.11.12.12,0,0,1,.11-.05Zm.67-4.12h.93v-.93h-.93Z"/><path d="M543.12,578.46h-.76v-7.25h.76Z"/><path d="M546.09,575.87a1.72,1.72,0,0,1,.37-1.14,1.74,1.74,0,0,1,.95-.6l1.52-.39v-.9h.76v3.86a.72.72,0,0,0,.07.33,1.05,1.05,0,0,0,.2.27,1,1,0,0,0,.29.19,1.09,1.09,0,0,0,.35.07h.33a.13.13,0,0,1,.15.15v.6a.13.13,0,0,1-.15.15h-.33a1.49,1.49,0,0,1-.91-.28,1.65,1.65,0,0,1-.6-.71.72.72,0,0,1-.49.16h-1.48a1,1,0,0,1-.76-.27,1,1,0,0,1-.27-.77Zm2.84-1.33-1.36.36a.87.87,0,0,0-.53.37,1.13,1.13,0,0,0-.19.63v.83h2.08Z"/><path d="M552,577.56a.8.8,0,0,0,.79-.79v-2h.76v2a1.65,1.65,0,0,1-.13.66,1.77,1.77,0,0,1-.36.53,2,2,0,0,1-.54.36,1.57,1.57,0,0,1-.65.13h-1a.13.13,0,0,1-.15-.15v-.59a.15.15,0,0,1,0-.11.13.13,0,0,1,.11-.05Zm-.9,3.15h.93v-.93h-.93Z"/><path d="M560.64,574.57a1.53,1.53,0,0,1,.6.12,1.66,1.66,0,0,1,.49.32,1.51,1.51,0,0,1,.33.49,1.45,1.45,0,0,1,.12.59v1.38a1,1,0,0,1-.27.72,1,1,0,0,1-.71.27h-1.36a1.46,1.46,0,0,1-.63-.14,1.53,1.53,0,0,1-.48-.39,1.61,1.61,0,0,1-.29-.55,1.42,1.42,0,0,1,0-.65l.24-1.33h-.59a.79.79,0,0,0-.57.25.83.83,0,0,0-.23.59v5h-.76v-4.94a1.59,1.59,0,0,1,.13-.66,1.91,1.91,0,0,1,.37-.54,2,2,0,0,1,.54-.36,1.65,1.65,0,0,1,.66-.13Zm.78,3v-1.48a.65.65,0,0,0-.19-.48.7.7,0,0,0-.49-.2h-1.31l-.26,1.44a.58.58,0,0,0,.11.5.56.56,0,0,0,.49.22Z"/><path d="M565,578.46a1.49,1.49,0,0,1-.63-.14,1.53,1.53,0,0,1-.48-.39,1.61,1.61,0,0,1-.29-.55,1.58,1.58,0,0,1,0-.65l.19-1a1.42,1.42,0,0,1,.49-.83,1.43,1.43,0,0,1,.43-.25,1.38,1.38,0,0,1,.5-.08h.61a1.46,1.46,0,0,1,.6.12,1.66,1.66,0,0,1,.49.32,1.51,1.51,0,0,1,.33.49,1.45,1.45,0,0,1,.12.59v1.47h.87a.12.12,0,0,1,.11.05.14.14,0,0,1,0,.1v.6c0,.1,0,.15-.16.15h-.88v.13a2.34,2.34,0,0,1-.46,1.35,2.42,2.42,0,0,1-1.18.85l-1.25.43-.24-.76,1.32-.44a1.56,1.56,0,0,0,.76-.55,1.43,1.43,0,0,0,.29-.9v-.2a.4.4,0,0,1-.2.07l-.24,0Zm-.08-.9h1.67v-1.47a.67.67,0,0,0-.21-.49.68.68,0,0,0-.49-.2h-.72a.63.63,0,0,0-.44.16.67.67,0,0,0-.25.4l-.16.88a.56.56,0,0,0,.13.5A.59.59,0,0,0,565,577.56Z"/><path d="M571.16,578.46a1.56,1.56,0,0,1-.74-.18.56.56,0,0,0-1.12,0,1.56,1.56,0,0,1-.74.18h-.32a.13.13,0,0,1-.15-.15v-.6a.16.16,0,0,1,0-.11.14.14,0,0,1,.1,0h.45a.81.81,0,0,0,.57-.23.79.79,0,0,0,.23-.56v-1.72h.76v1.73a.71.71,0,0,0,.23.55.75.75,0,0,0,.55.23h.19a.9.9,0,0,0,.57-.2.74.74,0,0,0,.29-.5l.35-1.73.74.13-.28,1.44a.63.63,0,0,0,.17.6.75.75,0,0,0,.58.26h1v-2.82h.76v2.73a.94.94,0,0,1-.28.72,1,1,0,0,1-.71.27h-.73a1.33,1.33,0,0,1-.69-.19,1.12,1.12,0,0,1-.49-.54,1.37,1.37,0,0,1-.57.55A1.48,1.48,0,0,1,571.16,578.46Z"/><path d="M576.85,575h3.32v.84h-3.32Z"/><path d="M588.87,576.93a1,1,0,0,1,.56.32.87.87,0,0,1,.21.59v.44a1.83,1.83,0,0,1-.16.77,1.87,1.87,0,0,1-.42.64,1.93,1.93,0,0,1-.63.42,1.91,1.91,0,0,1-.76.15h-2.22a2.27,2.27,0,0,1-.86-.17,2.38,2.38,0,0,1-1.17-1.17,2.29,2.29,0,0,1-.17-.87v-2.53H584v2.41a1.33,1.33,0,0,0,.11.56,1.37,1.37,0,0,0,.3.45,1.67,1.67,0,0,0,.47.31,1.47,1.47,0,0,0,.56.11h2.25a1.18,1.18,0,0,0,.46-.09,1.21,1.21,0,0,0,.37-.25,1.42,1.42,0,0,0,.26-.38,1.27,1.27,0,0,0,.09-.47v-.43l-3-.7v-1.17a2,2,0,0,1,.13-.74,2.24,2.24,0,0,1,.38-.61,2.14,2.14,0,0,1,.56-.43,1.94,1.94,0,0,1,.67-.21l1.28-.16.12.79-1.45.2a1.07,1.07,0,0,0-.69.4,1.15,1.15,0,0,0-.27.75v.54Z"/><path d="M592.38,578.46a1.27,1.27,0,0,1-.47-.09,1.23,1.23,0,0,1-.37-.26,1.16,1.16,0,0,1-.26-.39,1.18,1.18,0,0,1-.09-.46v-1.17h.65v1a.46.46,0,0,0,.11.32.39.39,0,0,0,.33.14H594a.91.91,0,0,0,.54-.15.83.83,0,0,0,.31-.34.87.87,0,0,0,.09-.45,1.07,1.07,0,0,0-.12-.44l-1.27-2.25.64-.43,1.26,2.24a1.85,1.85,0,0,1,0,1.84,1.7,1.7,0,0,1-.62.63,1.67,1.67,0,0,1-.92.25Z"/><path d="M599.46,578.31a.13.13,0,0,1-.15.15h-.41a1.61,1.61,0,0,1-.65-.13,1.74,1.74,0,0,1-.9-.9,1.64,1.64,0,0,1-.13-.65v-5.57H598v5.56a.75.75,0,0,0,.23.56.8.8,0,0,0,.56.23h.54a.13.13,0,0,1,.11.05.15.15,0,0,1,0,.11Z"/><path d="M600.42,577.56a.76.76,0,0,0,.56-.24.78.78,0,0,0,.23-.55v-2H602v2a1.85,1.85,0,0,1-.13.66,1.64,1.64,0,0,1-.37.53,1.77,1.77,0,0,1-.53.36,1.57,1.57,0,0,1-.65.13h-1c-.11,0-.16-.05-.16-.15v-.59a.16.16,0,0,1,.05-.11.12.12,0,0,1,.11-.05Zm-.9,3.15h.93v-.93h-.93Z"/><path d="M497.19,598l-1.82,6.27h-.92l-1.46-5-1.51,5h-.91L488.82,598h.87l1.37,5.32,1.51-5.32h.92l1.44,5.3,1.38-5.3Z"/><path d="M501.82,598.37a2.69,2.69,0,0,1,1.15,1.09,3.34,3.34,0,0,1,.4,1.68,3.3,3.3,0,0,1-.4,1.67,2.67,2.67,0,0,1-1.15,1.08,3.93,3.93,0,0,1-1.78.37h-2V598h2A3.8,3.8,0,0,1,501.82,598.37Zm.08,4.57a2.47,2.47,0,0,0,.63-1.8,2.5,2.5,0,0,0-.64-1.83,2.46,2.46,0,0,0-1.85-.66h-1.13v4.93H500A2.52,2.52,0,0,0,501.9,602.94Z"/><path d="M507.14,601.49v1.41a.59.59,0,0,0,.2.44.64.64,0,0,0,.45.18h.9a.13.13,0,0,1,.09,0,.18.18,0,0,1,0,.1v.47a.12.12,0,0,1-.13.13h-.79a1,1,0,0,1-.42-.09.82.82,0,0,1-.34-.27v.4a2,2,0,0,1-.37,1.14,2,2,0,0,1-1,.71l-1,.36-.2-.62,1.09-.36a1.27,1.27,0,0,0,.63-.46,1.3,1.3,0,0,0,.23-.74v-2.84Z"/><path d="M509.6,603.52a.62.62,0,0,0,.46-.19.66.66,0,0,0,.19-.46v-1.64h.62v1.65a1.41,1.41,0,0,1-.11.54,1.23,1.23,0,0,1-.3.44,1.37,1.37,0,0,1-1,.4h-.8a.12.12,0,0,1-.13-.13v-.47a.18.18,0,0,1,0-.1.13.13,0,0,1,.09,0Zm-.74,2.58h.77v-.76h-.77Z"/><path d="M512.71,604.26h-.62v-5.93h.62Z"/><path d="M514.7,601.49v1.41a.59.59,0,0,0,.2.44.63.63,0,0,0,.45.18h.9a.13.13,0,0,1,.09,0,.18.18,0,0,1,0,.1v.47a.12.12,0,0,1-.13.13h-.79a1,1,0,0,1-.42-.09.82.82,0,0,1-.34-.27v.4a2,2,0,0,1-.37,1.14,2,2,0,0,1-1,.71l-1,.36-.2-.62,1.09-.36a1.27,1.27,0,0,0,.63-.46,1.3,1.3,0,0,0,.23-.74v-2.84Z"/><path d="M517.16,603.52a.62.62,0,0,0,.46-.19.66.66,0,0,0,.19-.46v-1.64h.62v1.65a1.41,1.41,0,0,1-.11.54,1.23,1.23,0,0,1-.3.44,1.37,1.37,0,0,1-1,.4h-.8a.12.12,0,0,1-.13-.13v-.47a.18.18,0,0,1,0-.1.13.13,0,0,1,.09,0Zm-.74,2.58h.77v-.76h-.77Z"/><path d="M522.43,600.82a1.13,1.13,0,0,1,.49.1,1.28,1.28,0,0,1,.4.27,1.09,1.09,0,0,1,.27.4,1.16,1.16,0,0,1,.1.49v.46a1.12,1.12,0,0,1-.1.48,1.27,1.27,0,0,1-.67.67,1.13,1.13,0,0,1-.49.1H522a1.19,1.19,0,0,1-.49-.1,1.18,1.18,0,0,1-.4-.27,1.26,1.26,0,0,1-.37-.88v-.46a1.34,1.34,0,0,1,.1-.49,1.41,1.41,0,0,1,.27-.4,1.56,1.56,0,0,1,.4-.27,1.19,1.19,0,0,1,.49-.1Zm.62,1.68v-.43a.54.54,0,0,0-.16-.4.56.56,0,0,0-.41-.16H522a.54.54,0,0,0-.4.16.54.54,0,0,0-.17.4v.43a.56.56,0,0,0,.17.4.54.54,0,0,0,.4.16h.53a.56.56,0,0,0,.41-.16A.55.55,0,0,0,523.05,602.5Z"/><path d="M525,603.29h.74v1H525Z"/><path d="M527.7,598.24c0,.19.08.36.11.51s.06.31.09.5a5.14,5.14,0,0,1,.06.55.46.46,0,0,0,.21.36.68.68,0,0,0,.43.15h1.32v-2h.65v2a.78.78,0,0,1-.22.58.79.79,0,0,1-.59.23h-1a1,1,0,0,1-.39-.08.75.75,0,0,1-.32-.26v3.55h-.63v-3.72a7.56,7.56,0,0,0,0-.83,7.76,7.76,0,0,0-.13-.82l-.11-.53Z"/><path d="M533.77,600.22c.09.06.19.12.29.2l.29.19.35.24.93.63a1.14,1.14,0,0,1,.38.46,1.31,1.31,0,0,1,.13.59v.33a1.57,1.57,0,0,1-.41,1,1.47,1.47,0,0,1-.48.33,1.45,1.45,0,0,1-.59.12h-.19a1.46,1.46,0,0,1-.6-.12,1.39,1.39,0,0,1-.46-.33,1.72,1.72,0,0,1-.31-.48,1.5,1.5,0,0,1-.11-.55v-.31a1.3,1.3,0,0,1,.15-.63,1.12,1.12,0,0,1,.39-.44l.19-.12.16-.1a.91.91,0,0,0,.16-.11l-.6-.4Zm.07,1.79a.55.55,0,0,0-.16.18.62.62,0,0,0-.07.26v.34a.87.87,0,0,0,.06.32.81.81,0,0,0,.18.26.64.64,0,0,0,.27.18.71.71,0,0,0,.32.07h.25a.72.72,0,0,0,.33-.07.88.88,0,0,0,.27-.19,1,1,0,0,0,.17-.26.8.8,0,0,0,.06-.3v-.34a.57.57,0,0,0-.06-.25.6.6,0,0,0-.18-.21l-.16-.1-.24-.16-.32-.22Z"/><path d="M535.72,606.5l-.2-.61,1.09-.36a1.27,1.27,0,0,0,.86-1.2v-2.84h.62v2.79a1.81,1.81,0,0,1-.1.61,1.71,1.71,0,0,1-.27.54,2.14,2.14,0,0,1-.42.43,1.93,1.93,0,0,1-.55.29Zm1.67-6.84h.77v.77h-.77Z"/><path d="M540.13,604.26h-.62v-5.93h.62Z"/><path d="M545.76,603.52H546a.13.13,0,0,1,.09,0,.18.18,0,0,1,0,.1v.47a.12.12,0,0,1-.13.13h-.17a1.1,1.1,0,0,1-.62-.18,1.16,1.16,0,0,1-.45-.5,1.22,1.22,0,0,1-.48.5,1.25,1.25,0,0,1-.65.18h-1.23a.91.91,0,0,1-.37-.08.95.95,0,0,1-.59-.89v-1h.53v.8a.42.42,0,0,0,.09.27.32.32,0,0,0,.27.12h1.31a.74.74,0,0,0,.34-.08.78.78,0,0,0,.4-.52.74.74,0,0,0,0-.33l-.66-2.43.58-.21.86,3.06a.67.67,0,0,0,.66.51Z"/><path d="M547,603.52a.65.65,0,0,0,.65-.64v-1.65h.62v1.65a1.41,1.41,0,0,1-.11.54,1.23,1.23,0,0,1-.3.44,1.37,1.37,0,0,1-1,.4h-1a.12.12,0,0,1-.13-.13v-.47a.18.18,0,0,1,0-.1.13.13,0,0,1,.09,0Zm.55-3.36h.76v-.77h-.76Z"/><path d="M550.2,604.26h-.62v-5.93h.62Z"/><path d="M552.63,602.14a1.44,1.44,0,0,1,.3-.93,1.47,1.47,0,0,1,.78-.5l1.24-.31v-.74h.62v3.16a.6.6,0,0,0,.06.27.92.92,0,0,0,.17.22.76.76,0,0,0,.23.15.75.75,0,0,0,.29.06h.27c.08,0,.12,0,.12.13v.48c0,.09,0,.13-.12.13h-.27a1.3,1.3,0,0,1-.75-.23,1.38,1.38,0,0,1-.49-.58.58.58,0,0,1-.4.13h-1.21a.83.83,0,0,1-.62-.22.85.85,0,0,1-.22-.63Zm2.32-1.08-1.11.28a.76.76,0,0,0-.43.31.88.88,0,0,0-.16.51v.69H555Z"/><path d="M557.5,603.52a.62.62,0,0,0,.46-.19.65.65,0,0,0,.18-.46v-1.64h.63v1.65a1.41,1.41,0,0,1-.11.54,1.23,1.23,0,0,1-.3.44,1.46,1.46,0,0,1-.44.29,1.32,1.32,0,0,1-.53.11h-.8c-.09,0-.13,0-.13-.13v-.47a.13.13,0,0,1,0-.1.13.13,0,0,1,.09,0Zm-.74,2.58h.76v-.76h-.76Z"/><path d="M564.53,601.07a1.39,1.39,0,0,1,.5.1,1.56,1.56,0,0,1,.4.27,1.36,1.36,0,0,1,.27.39,1.37,1.37,0,0,1,.09.49v1.13a.78.78,0,0,1-.22.59.76.76,0,0,1-.58.22h-1.11a1.14,1.14,0,0,1-.52-.12,1.3,1.3,0,0,1-.39-.31,1.26,1.26,0,0,1-.24-.46,1.14,1.14,0,0,1,0-.52l.19-1.09h-.48a.61.61,0,0,0-.46.2.69.69,0,0,0-.2.48v4.06h-.62v-4a1.41,1.41,0,0,1,.11-.54,1.55,1.55,0,0,1,.3-.44,1.37,1.37,0,0,1,.45-.3,1.33,1.33,0,0,1,.54-.11Zm.64,2.45v-1.2a.54.54,0,0,0-.16-.4.53.53,0,0,0-.39-.16h-1.08l-.21,1.18a.5.5,0,0,0,.09.41.49.49,0,0,0,.4.17Z"/><path d="M568.13,604.26a1.14,1.14,0,0,1-.52-.12,1.19,1.19,0,0,1-.39-.31,1.26,1.26,0,0,1-.24-.46,1.14,1.14,0,0,1,0-.52l.16-.82a1,1,0,0,1,.14-.38,1.3,1.3,0,0,1,.26-.31,1.08,1.08,0,0,1,.35-.19,1.11,1.11,0,0,1,.41-.08h.5a1.3,1.3,0,0,1,.49.1,1.28,1.28,0,0,1,.4.27,1.05,1.05,0,0,1,.27.39,1.19,1.19,0,0,1,.1.49v1.2h.71a.13.13,0,0,1,.09,0,.12.12,0,0,1,0,.09v.48c0,.09,0,.13-.13.13H570v.11a1.9,1.9,0,0,1-.38,1.1,2,2,0,0,1-1,.7l-1,.35-.2-.62,1.08-.36a1.24,1.24,0,0,0,.62-.46,1.16,1.16,0,0,0,.24-.73v-.16a.44.44,0,0,1-.16.06h-1.12Zm-.07-.74h1.36v-1.2a.57.57,0,0,0-.16-.4.57.57,0,0,0-.41-.16h-.59a.56.56,0,0,0-.36.12.62.62,0,0,0-.2.34l-.13.72a.45.45,0,0,0,.11.41A.5.5,0,0,0,568.06,603.52Z"/><path d="M573.14,604.26a1.22,1.22,0,0,1-1.06-.59,1.23,1.23,0,0,1-1.07.59h-.26c-.08,0-.12,0-.12-.13v-.48a.1.1,0,0,1,0-.09.1.1,0,0,1,.08,0h.37a.65.65,0,0,0,.65-.65v-1.4h.62v1.41a.62.62,0,0,0,.19.46.64.64,0,0,0,.45.18h.16a.68.68,0,0,0,.46-.16.64.64,0,0,0,.24-.41l.29-1.42.61.11-.24,1.18a.54.54,0,0,0,.14.49.63.63,0,0,0,.48.21H576v-2.3h.62v2.23a.79.79,0,0,1-.23.59.78.78,0,0,1-.58.22h-.6a1.15,1.15,0,0,1-.56-.15,1,1,0,0,1-.41-.44,1.17,1.17,0,0,1-.46.45A1.31,1.31,0,0,1,573.14,604.26Z"/><path d="M577.79,601.44h2.72v.7h-2.72Z"/><path d="M583,604v-2.4h.62v2.31a1.13,1.13,0,0,0,.09.45,1.15,1.15,0,0,0,.25.37,1.15,1.15,0,0,0,.83.34h1.56a1,1,0,0,0,.38-.08,1,1,0,0,0,.32-.21.9.9,0,0,0,.21-.3,1,1,0,0,0,.08-.39v-2.64H588v1.38a.58.58,0,0,0,.21.51.87.87,0,0,0,.5.15h.48c.08,0,.12,0,.12.13v.48a.16.16,0,0,1,0,.09.12.12,0,0,1-.09,0h-.44a.93.93,0,0,1-.45-.1.81.81,0,0,1-.31-.26v.38a1.42,1.42,0,0,1-.13.61,1.53,1.53,0,0,1-.86.82,1.58,1.58,0,0,1-.61.12h-1.55a1.87,1.87,0,0,1-.71-.13,1.92,1.92,0,0,1-.57-.39,1.73,1.73,0,0,1-.38-.57A1.83,1.83,0,0,1,583,604Zm2.1-3.33h.76v.77h-.76Z"/><path d="M591.6,604.26a1.25,1.25,0,0,1-.61-.15,1.24,1.24,0,0,1-.47-.44,1.31,1.31,0,0,1-.47.44,1.28,1.28,0,0,1-.61.15h-.26a.1.1,0,0,1-.09,0,.12.12,0,0,1,0-.09v-.48a.1.1,0,0,1,0-.09.12.12,0,0,1,.09,0h.37a.62.62,0,0,0,.46-.19.6.6,0,0,0,.19-.46v-1.4h.62v1.43a.62.62,0,0,0,.2.45.64.64,0,0,0,.45.18h.16a.72.72,0,0,0,.47-.16.69.69,0,0,0,.24-.42l.27-1.42.63.1-.24,1.19a.65.65,0,0,0,0,.28.48.48,0,0,0,.13.23.71.71,0,0,0,.22.15.93.93,0,0,0,.29,0h.09a.62.62,0,0,0,.46-.19.68.68,0,0,0,.19-.47v-1.66H595v1.71a.59.59,0,0,0,.21.43.64.64,0,0,0,.45.17H596a.1.1,0,0,1,.08,0,.1.1,0,0,1,0,.09v.48a.16.16,0,0,1,0,.09.12.12,0,0,1-.09,0h-.26a1.23,1.23,0,0,1-1.07-.59,1.24,1.24,0,0,1-.47.44,1.27,1.27,0,0,1-1.18,0,.91.91,0,0,1-.41-.45,1.17,1.17,0,0,1-.46.45A1.3,1.3,0,0,1,591.6,604.26Zm.79-3.8h-.77v-.76h.77Zm.58-1.1h-.76v-.76H593Zm.65,1.1h-.76v-.76h.76Z"/><path d="M599.27,604.13a.12.12,0,0,1-.13.13h-.57a1.17,1.17,0,0,1-.3,0,1.48,1.48,0,0,1-.29-.12,2.11,2.11,0,0,1-.23-.19.79.79,0,0,1-.14-.23,1.19,1.19,0,0,1-.44.42,1.15,1.15,0,0,1-.59.17H596c-.09,0-.13,0-.13-.13v-.47a.13.13,0,0,1,0-.1.13.13,0,0,1,.09,0h.57a.68.68,0,0,0,.46-.16.67.67,0,0,0,.24-.41l.29-1.42.61.1-.24,1.19a.53.53,0,0,0,.14.49.71.71,0,0,0,.22.15.58.58,0,0,0,.26.06h.56a.13.13,0,0,1,.09,0,.18.18,0,0,1,0,.1Zm-2.66,2h.77v-.76h-.77Zm.63,1.1H598v-.76h-.77Zm.6-1.1h.77v-.76h-.77Z"/><path d="M600.27,604.26h-1.13a.12.12,0,0,1-.13-.13v-.48a.12.12,0,0,1,.13-.13h1.21a1,1,0,0,0,.54-.15.94.94,0,0,0,.36-.38,1,1,0,0,0,.09-.55,1.2,1.2,0,0,0-.25-.62l-1.45-2v-.52l2.77-1.41.28.56-2.42,1.24,1.34,1.78a1.79,1.79,0,0,1,.37.95,1.69,1.69,0,0,1-.16.9,1.78,1.78,0,0,1-.61.67A1.7,1.7,0,0,1,600.27,604.26Z"/></g></svg>