<svg xmlns="http://www.w3.org/2000/svg" viewBox="0 0 1152 648"><defs><style>.cls-1{fill:#79e45e;}.cls-2{fill:#fff;}.cls-3{fill:#abff90;}</style></defs><g id="Layer_4" data-name="Layer 4"><rect class="cls-1" y="0.62" width="1152" height="646.77"/><rect class="cls-2" x="201.45" y="91.46" width="749.1" height="465.08"/><rect class="cls-3" x="201.45" y="91.46" width="749.1" height="32.56"/><rect class="cls-3" x="201.45" y="523.98" width="749.1" height="32.55"/><rect class="cls-3" x="701.73" y="307.72" width="465.08" height="32.56" transform="translate(1258.27 -610.27) rotate(90)"/><rect class="cls-3" x="-14.81" y="307.73" width="465.08" height="32.56" transform="translate(541.74 106.28) rotate(90)"/><rect x="168.88" y="92.46" width="2" height="463.08"/><rect x="163.38" y="91.46" width="13" height="2"/><rect x="163.38" y="554.54" width="13" height="2"/><rect x="201.45" y="91.46" width="32.56" height="32.56"/><circle class="cls-2" cx="217.73" cy="107.74" r="16.28"/><rect x="917.99" y="523.98" width="32.56" height="32.56"/><circle class="cls-2" cx="934.27" cy="540.26" r="16.28"/><rect x="201.45" y="523.98" width="32.56" height="32.56"/><circle class="cls-2" cx="217.73" cy="540.26" r="16.28"/><rect x="917.99" y="91.46" width="32.56" height="32.56"/><circle class="cls-2" cx="934.27" cy="107.74" r="16.28"/><rect x="158.19" y="252.37" width="23.14" height="143.26"/><path class="cls-2" d="M172.68,384.35v-3.66h1.11v5H163.32v-1.37Z"/><path class="cls-2" d="M166.1,367.06h1.16v7.81H166.1Zm3.23,0h1.16v7.81h-1.16Z"/><path class="cls-2" d="M173.53,358.9a3.13,3.13,0,0,1-1,1.28,2.58,2.58,0,0,1-1.5.48v-1.45a1.91,1.91,0,0,0,1.23-.61,2.19,2.19,0,0,0,.51-1.56,2.31,2.31,0,0,0-.49-1.54,1.6,1.6,0,0,0-1.25-.56,1.42,1.42,0,0,0-1,.33,2.13,2.13,0,0,0-.57.83,12.74,12.74,0,0,0-.42,1.33,11.59,11.59,0,0,1-.54,1.66,2.65,2.65,0,0,1-.85,1.07,2.52,2.52,0,0,1-1.55.44,2.7,2.7,0,0,1-1.52-.43,2.83,2.83,0,0,1-1-1.23,4.3,4.3,0,0,1-.36-1.81,3.8,3.8,0,0,1,.73-2.41,2.73,2.73,0,0,1,2-1.05v1.5a1.61,1.61,0,0,0-1.06.63,2.51,2.51,0,0,0,0,2.87,1.52,1.52,0,0,0,1.24.54,1.32,1.32,0,0,0,.93-.33,2.12,2.12,0,0,0,.55-.79c.12-.32.27-.76.43-1.33a13.39,13.39,0,0,1,.56-1.67,2.79,2.79,0,0,1,.86-1.08,2.46,2.46,0,0,1,1.57-.45,2.76,2.76,0,0,1,1.44.41,3,3,0,0,1,1.09,1.2,3.94,3.94,0,0,1,.42,1.87A4.61,4.61,0,0,1,173.53,358.9Z"/><path class="cls-2" d="M165.81,339.94a2.82,2.82,0,0,1,1.19-1.18,4,4,0,0,1,1.94-.44h4.85v1.35h-4.66a2.67,2.67,0,0,0-1.88.61,2.12,2.12,0,0,0-.65,1.64,2.17,2.17,0,0,0,.68,1.7,2.81,2.81,0,0,0,2,.63h4.54v1.35h-4.66a2.67,2.67,0,0,0-1.88.61,2.12,2.12,0,0,0-.65,1.64,2.17,2.17,0,0,0,.68,1.7,2.81,2.81,0,0,0,2,.63h4.54v1.37h-8.23v-1.37h1.19a2.67,2.67,0,0,1-1-1.09,3.26,3.26,0,0,1-.35-1.51,3.56,3.56,0,0,1,.47-1.83,2.82,2.82,0,0,1,1.36-1.18,2.7,2.7,0,0,1-1.35-1.14,3.39,3.39,0,0,1-.48-1.78A3.54,3.54,0,0,1,165.81,339.94Z"/><path class="cls-2" d="M167.43,336.08a3.64,3.64,0,0,1-1.48-1.4,3.87,3.87,0,0,1-.53-2,3.67,3.67,0,0,1,.47-1.88,3.08,3.08,0,0,1,1.17-1.18h-1.5v-1.38h8.23v1.38h-1.53a3.22,3.22,0,0,1,1.19,1.21,3.56,3.56,0,0,1,.47,1.87,3.71,3.71,0,0,1-2,3.37,4.76,4.76,0,0,1-2.23.51A4.62,4.62,0,0,1,167.43,336.08ZM168,330a2.61,2.61,0,0,0-1.06,1,2.69,2.69,0,0,0-.37,1.4,2.78,2.78,0,0,0,.36,1.4,2.6,2.6,0,0,0,1.05,1,3.34,3.34,0,0,0,1.62.38,3.46,3.46,0,0,0,1.65-.38,2.63,2.63,0,0,0,1.06-1,2.83,2.83,0,0,0,0-2.8,2.61,2.61,0,0,0-1.06-1,3.41,3.41,0,0,0-1.63-.37A3.34,3.34,0,0,0,168,330Z"/><path class="cls-2" d="M162.68,324.57h11.11v1.36H162.68Z"/><path class="cls-2" d="M162.68,320.87h11.11v1.37H162.68Z"/><path class="cls-2" d="M170.18,311.09v6.57a2.59,2.59,0,0,0,2.59-2.67,2.51,2.51,0,0,0-.42-1.48,2.18,2.18,0,0,0-1.1-.83v-1.47a3.56,3.56,0,0,1,1.93,1.32,4,4,0,0,1,.74,2.46,4.13,4.13,0,0,1-.52,2.09,3.68,3.68,0,0,1-1.5,1.45,4.61,4.61,0,0,1-2.24.53,4.72,4.72,0,0,1-2.24-.51,3.6,3.6,0,0,1-1.48-1.44,4.3,4.3,0,0,1-.52-2.12,4.13,4.13,0,0,1,.52-2.07,3.47,3.47,0,0,1,1.4-1.39,4.11,4.11,0,0,1,2-.49A8,8,0,0,1,170.18,311.09Zm-2.45,1.71a2.23,2.23,0,0,0-.86.94,3,3,0,0,0-.29,1.31,2.52,2.52,0,0,0,.66,1.76,2.67,2.67,0,0,0,1.83.84v-5.2A2.52,2.52,0,0,0,167.73,312.8Z"/><path class="cls-2" d="M173.6,308a2.88,2.88,0,0,1-.9,1.19,2.42,2.42,0,0,1-1.33.48v-1.41a1.38,1.38,0,0,0,1-.58,2.22,2.22,0,0,0,.39-1.36,2,2,0,0,0-.35-1.23,1.05,1.05,0,0,0-.87-.45.85.85,0,0,0-.8.48,6.52,6.52,0,0,0-.52,1.49,10,10,0,0,1-.49,1.49,2.56,2.56,0,0,1-.73,1,2.1,2.1,0,0,1-2.44,0,2.61,2.61,0,0,1-.84-1.07,3.89,3.89,0,0,1-.31-1.57,3.38,3.38,0,0,1,.7-2.21,2.49,2.49,0,0,1,1.89-.9v1.36a1.44,1.44,0,0,0-1,.52,2.28,2.28,0,0,0-.07,2.44,1,1,0,0,0,.82.44.92.92,0,0,0,.67-.26,1.82,1.82,0,0,0,.42-.67,9.79,9.79,0,0,0,.35-1.1,10.94,10.94,0,0,1,.48-1.44,2.4,2.4,0,0,1,.69-.95,1.88,1.88,0,0,1,1.22-.42,2.1,2.1,0,0,1,1.22.38,2.52,2.52,0,0,1,.85,1.06,3.86,3.86,0,0,1,.3,1.57A4.14,4.14,0,0,1,173.6,308Z"/><path class="cls-2" d="M166.69,299.74h4.85a1.12,1.12,0,0,0,.84-.26,1.25,1.25,0,0,0,.25-.89v-1h1.16v1.23a2.45,2.45,0,0,1-.53,1.71,2.24,2.24,0,0,1-1.72.57h-4.85v1.07h-1.13V301.1h-2.07v-1.36h2.07v-2.15h1.13Z"/><path class="cls-2" d="M173.53,290.46a3.1,3.1,0,0,1-1,1.29,2.58,2.58,0,0,1-1.5.48v-1.46a1.87,1.87,0,0,0,1.23-.61,2.15,2.15,0,0,0,.51-1.55,2.31,2.31,0,0,0-.49-1.54,1.6,1.6,0,0,0-1.25-.56,1.42,1.42,0,0,0-1,.33,2.09,2.09,0,0,0-.57.82A13,13,0,0,0,169,289a12,12,0,0,1-.54,1.66,2.62,2.62,0,0,1-.85,1.06,2.46,2.46,0,0,1-1.55.45,2.71,2.71,0,0,1-1.52-.44,2.86,2.86,0,0,1-1-1.22,4.33,4.33,0,0,1-.36-1.81,3.8,3.8,0,0,1,.73-2.41,2.7,2.7,0,0,1,2-1.06v1.5a1.61,1.61,0,0,0-1.06.63,2.21,2.21,0,0,0-.46,1.47,2.15,2.15,0,0,0,.44,1.4,1.52,1.52,0,0,0,1.24.54,1.36,1.36,0,0,0,.93-.32,2.16,2.16,0,0,0,.55-.8c.12-.31.27-.76.43-1.33a13.17,13.17,0,0,1,.56-1.66,2.79,2.79,0,0,1,.86-1.08,2.46,2.46,0,0,1,1.57-.45,2.75,2.75,0,0,1,1.44.4,3,3,0,0,1,1.09,1.2,4,4,0,0,1,.42,1.88A4.52,4.52,0,0,1,173.53,290.46Z"/><path class="cls-2" d="M164,283.07a.93.93,0,0,1-1.59-.66.87.87,0,0,1,.27-.64,1,1,0,0,1,1.32,0,.87.87,0,0,1,.27.64A.9.9,0,0,1,164,283.07Zm1.61-1.32h8.23v1.36h-8.23Z"/><path class="cls-2" d="M167.43,279.42A3.7,3.7,0,0,1,166,278a3.92,3.92,0,0,1-.53-2,3.65,3.65,0,0,1,.45-1.78A3.25,3.25,0,0,1,167,273h-4.35v-1.38h11.11V273h-1.55a3.34,3.34,0,0,1,1.21,1.21,3.52,3.52,0,0,1,.47,1.86,3.74,3.74,0,0,1-2,3.39,4.76,4.76,0,0,1-2.23.51A4.62,4.62,0,0,1,167.43,279.42Zm.61-6.08a2.65,2.65,0,0,0-1.06,1,2.87,2.87,0,0,0,0,2.8,2.62,2.62,0,0,0,1.05,1,3.34,3.34,0,0,0,1.62.38,3.46,3.46,0,0,0,1.65-.38,2.68,2.68,0,0,0,1.43-2.4,2.75,2.75,0,0,0-.37-1.41,2.65,2.65,0,0,0-1.06-1,3.41,3.41,0,0,0-1.63-.38A3.34,3.34,0,0,0,168,273.34Z"/><path class="cls-2" d="M170.18,261.81v6.58a2.61,2.61,0,0,0,2.59-2.68,2.51,2.51,0,0,0-.42-1.48,2.18,2.18,0,0,0-1.1-.83v-1.47a3.56,3.56,0,0,1,1.93,1.32,4,4,0,0,1,.74,2.46,4.19,4.19,0,0,1-.52,2.1,3.74,3.74,0,0,1-1.5,1.45,4.6,4.6,0,0,1-2.24.52,4.72,4.72,0,0,1-2.24-.51,3.64,3.64,0,0,1-1.48-1.43,4.36,4.36,0,0,1-.52-2.13,4.13,4.13,0,0,1,.52-2.07,3.53,3.53,0,0,1,1.4-1.39,4.22,4.22,0,0,1,2-.49A8,8,0,0,1,170.18,261.81Zm-2.45,1.71a2.23,2.23,0,0,0-.86.94,3,3,0,0,0-.29,1.31,2.56,2.56,0,0,0,.66,1.77,2.71,2.71,0,0,0,1.83.83v-5.19A2.52,2.52,0,0,0,167.73,263.52Z"/><path d="M217.73,147.24a39.51,39.51,0,1,1,39.5-39.5A39.55,39.55,0,0,1,217.73,147.24Zm0-77a37.51,37.51,0,1,0,37.5,37.51A37.55,37.55,0,0,0,217.73,70.23Z"/><path class="cls-1" d="M842.11,222.71A153.41,153.41,0,1,1,823,148.56,152.78,152.78,0,0,1,842.11,222.71Z"/><rect x="614.49" y="148.55" width="148.3" height="148.3"/><rect class="cls-2" x="614.49" y="148.55" width="148.3" height="148.3" rx="74.15"/><path class="cls-3" d="M842.11,222.71A152.78,152.78,0,0,1,823,296.85H762.79V148.56H823A152.79,152.79,0,0,1,842.11,222.71Z"/><path class="cls-3" d="M762.79,296.85V357.1a153.62,153.62,0,0,1-148.3,0V296.85Z"/><path class="cls-2" d="M823,296.85a154.1,154.1,0,0,1-60.25,60.25V296.85Z"/><path d="M688.64,377.18A154.41,154.41,0,0,1,534.17,222.71c0-85.18,69.29-154.48,154.47-154.48a154.48,154.48,0,1,1,0,309Zm0-306.95c-84.07,0-152.47,68.4-152.47,152.48A152.48,152.48,0,1,0,688.64,70.23Z"/><rect x="217.73" y="68.23" width="470.91" height="2"/><rect x="406.93" y="17.11" width="2" height="465.49" transform="translate(-1.79 496.76) rotate(-62.56)"/><rect x="615.49" y="125.34" width="146.29" height="2"/><rect x="614.49" y="119.84" width="2" height="13"/><rect x="760.79" y="119.84" width="2" height="13"/><rect x="615.49" y="125.34" width="146.29" height="2"/><rect x="614.49" y="119.84" width="2" height="13"/><rect x="760.79" y="119.84" width="2" height="13"/><rect x="588.62" y="149.56" width="2" height="146.29"/><rect x="583.12" y="294.85" width="13" height="2"/><rect x="583.12" y="148.56" width="13" height="2"/><rect x="571.69" y="189.73" width="34.37" height="65.95"/><path class="cls-2" d="M581.48,243.33a3.46,3.46,0,0,1,0-4.68,3.67,3.67,0,0,1,4.86,0,3.49,3.49,0,0,1,0,4.68,3.67,3.67,0,0,1-4.86,0Zm-.66-12.11,15.57,9v2l-15.57-9Zm1.53,11a2.37,2.37,0,0,0,1.55.44,2.44,2.44,0,0,0,1.56-.44A1.43,1.43,0,0,0,586,241a1.46,1.46,0,0,0-.54-1.2,2.39,2.39,0,0,0-1.55-.45,2.31,2.31,0,0,0-1.55.45,1.48,1.48,0,0,0-.53,1.2A1.46,1.46,0,0,0,582.35,242.18Zm8.52-7.39a3.16,3.16,0,0,1-.91-2.34,3.13,3.13,0,0,1,.91-2.33,3.71,3.71,0,0,1,4.87,0,3.13,3.13,0,0,1,.91,2.33,3.2,3.2,0,0,1-.9,2.34,3.73,3.73,0,0,1-4.88,0Zm.89-1.12a2.86,2.86,0,0,0,3.08,0,1.64,1.64,0,0,0,0-2.4,2.86,2.86,0,0,0-3.08,0,1.64,1.64,0,0,0,0,2.4Z"/><path class="cls-2" d="M581.85,217l14.54,6.2v2l-14.34-6.29v8.61h-1.74V217Z"/><path class="cls-2" d="M594.74,206.38v-5.44h1.65v7.47H580.84v-2Z"/><rect x="668.85" y="91.04" width="34.37" height="65.95" transform="translate(810.06 -562.03) rotate(90)"/><path class="cls-2" d="M665.41,116.62a3.48,3.48,0,0,1,4.69,0A3.23,3.23,0,0,1,671,119a3.27,3.27,0,0,1-.91,2.44,3.51,3.51,0,0,1-4.69,0,3.27,3.27,0,0,1-.91-2.44A3.23,3.23,0,0,1,665.41,116.62Zm1.15.87a2.35,2.35,0,0,0-.43,1.55,2.44,2.44,0,0,0,.43,1.56,1.48,1.48,0,0,0,1.2.53,1.46,1.46,0,0,0,1.2-.55,2.36,2.36,0,0,0,.45-1.54,2.29,2.29,0,0,0-.45-1.55,1.51,1.51,0,0,0-1.2-.53A1.48,1.48,0,0,0,666.56,117.49Zm11-1.53-9,15.56h-2l9-15.56ZM674,126a3.2,3.2,0,0,1,2.34-.9,3.16,3.16,0,0,1,2.33.9,3.76,3.76,0,0,1,0,4.88,3.13,3.13,0,0,1-2.33.91,3.2,3.2,0,0,1-2.34-.9,3.71,3.71,0,0,1,0-4.89Zm1.11.9a2.31,2.31,0,0,0-.45,1.55,2.26,2.26,0,0,0,.45,1.52,1.63,1.63,0,0,0,2.41,0,2.26,2.26,0,0,0,.45-1.52,2.31,2.31,0,0,0-.45-1.55,1.63,1.63,0,0,0-2.41,0Z"/><path class="cls-2" d="M691.8,117l-6.2,14.54h-2.05l6.29-14.34h-8.61v-1.74H691.8Z"/><path class="cls-2" d="M702.37,129.87h5.44v1.65h-7.47V116h2Z"/></g></svg>