<svg xmlns="http://www.w3.org/2000/svg" viewBox="0 0 1152 648"><defs><style>.cls-1{fill:none;}.cls-2{fill-rule:evenodd;}</style></defs><g id="Graphic"><path d="M121.37,102.33h13.26l2.56-14.73a9.33,9.33,0,1,0-18.39,0Zm3-19.33a4.81,4.81,0,0,1,7.15,0,4.62,4.62,0,0,1,1,3.8L130.7,97.67h-5.41L123.4,86.8A4.62,4.62,0,0,1,124.42,83Z"/><path d="M146.67,111.68l-1.31-.64a39.49,39.49,0,0,0-34.72,0l-1.31.64v11.65h37.34Zm-4.67,7H114v-4a34.8,34.8,0,0,1,28,0Z"/><rect class="cls-1" x="100" y="72" width="56" height="56"/><path d="M256.33,95.45,254.59,95A57.54,57.54,0,0,0,233,93.55V88.44a7,7,0,0,1,14,0h4.67a11.67,11.67,0,1,0-23.34,0v5.88c-1,.2-2,.41-2.92.67l-1.74.46v28h32.66Zm-4.66,23.32H228.33V99.08a52.83,52.83,0,0,1,23.34,0Z"/><rect x="237.67" y="102.44" width="4.67" height="11.67"/><rect class="cls-1" x="212" y="72.1" width="56" height="56"/><path d="M368.33,93a7,7,0,0,0-4.95,2.06L342.59,84.38a5.71,5.71,0,0,0,.08-.71,7,7,0,1,0-2.05,4.94l20.79,10.68a5.51,5.51,0,0,0-.08.71,5.71,5.71,0,0,0,.08.71L340.6,111.38a6.93,6.93,0,0,0-4.93-2,7,7,0,1,0,7,7,5.82,5.82,0,0,0-.08-.73l20.79-10.66A7,7,0,1,0,368.33,93Zm-32.66-7A2.34,2.34,0,1,1,338,83.67,2.34,2.34,0,0,1,335.67,86Zm0,32.67a2.34,2.34,0,1,1,2.33-2.34A2.34,2.34,0,0,1,335.67,118.67Zm32.66-16.34a2.33,2.33,0,1,1,2.34-2.33A2.33,2.33,0,0,1,368.33,102.33Z"/><rect class="cls-1" x="324" y="72" width="56" height="56"/><path d="M480.33,123.29V81.34l-1.74-.45a57.48,57.48,0,0,0-29.18,0l-1.74.45v41.94L464,112.62ZM452.33,85a53.13,53.13,0,0,1,23.34,0v29.69L464,107l-11.68,7.63Z"/><rect class="cls-1" x="436" y="72" width="56" height="56"/><path d="M788.33,235.33h23.34l2.33-28h4.67v-12l-1.89-.37a83.52,83.52,0,0,0-14.45-1.66v-4.66h-4.66v4.66a83.54,83.54,0,0,0-14.45,1.59l-1.89.44v12H786Zm19-4.66H792.63l-1.94-23.34h18.62ZM786,199.21a81.76,81.76,0,0,1,28,0v3.46H786Z"/><rect class="cls-1" x="772" y="184" width="56" height="56"/><path d="M936.36,107.24a39.54,39.54,0,0,0-12.69-3.77V76.67H886.33V114a9.34,9.34,0,0,0,9.34,9.33h32.67a9.33,9.33,0,0,0,9.33-9.33v-6.12Zm-40.69,11.43A4.68,4.68,0,0,1,891,114V81.33h28V113.6a10,10,0,0,0,1.36,5.07ZM933,114a4.67,4.67,0,0,1-4.92,4.66,5,5,0,0,1-4.41-5.06v-5.42a34.68,34.68,0,0,1,9.33,2.64Z"/><rect x="895.67" y="100" width="18.67" height="4.67"/><rect x="905" y="107" width="9.33" height="4.67"/><rect x="895.67" y="86" width="18.67" height="11.67"/><rect class="cls-1" x="884" y="72" width="56" height="56"/><path d="M132.67,215.7l-8.37-8.37,5.35-5.35-13.32-13.31-11.66,11.66.47,1.38a54.46,54.46,0,0,0,33.15,33.15l1.38.47,11.66-11.66L138,210.35ZM138.45,230A49.93,49.93,0,0,1,110,201.55l6.29-6.28,6.72,6.71-5.35,5.35,15,15L138,217l6.71,6.72Z"/><rect class="cls-1" x="100" y="184" width="56" height="56"/><path d="M219,223.67V233h4.67v-6.53a72.62,72.62,0,0,0,32.66,0V233H261V209.67h2.33V205H261l-5.31-12.34-1.2-.24a74.85,74.85,0,0,0-28.92,0l-1.2.24L219,205h-2.36v4.67H219Zm4.67-1.95v-6.46l5.68,3.74h21.3l5.68-3.74v6.46A69.74,69.74,0,0,1,223.67,221.72Zm4-24.95a69.72,69.72,0,0,1,24.7,0l4,9.26v3.64l-7.08,4.66h-18.5l-7.08-4.66V206Z"/><rect class="cls-1" x="212" y="184" width="56" height="56"/><circle cx="352" cy="205" r="2.33"/><path d="M333.33,202.67h5.84l1.18,7,2.32.94V212a39.26,39.26,0,0,0,4,17.36l.63,1.31h2.33v7h4.66v-7h2.33l.63-1.31a39.26,39.26,0,0,0,4-17.36v-1.39l2.32-.94,1.18-7h5.84V198h-5.05l.39-2.35-.7-.83a17.48,17.48,0,0,0-26.62,0l-.7.83.39,2.35h-5.05Zm21,21.69V219h-4.66v5.36a34.49,34.49,0,0,1-2.31-11.86l4.64,1.87,4.64-1.87A34.49,34.49,0,0,1,354.33,224.36ZM345.83,195l1.5,3h9.34l1.5-3a12.75,12.75,0,0,1,2.87,2.08l-1.55,9.25-7.49,3-7.49-3L343,197.07A12.75,12.75,0,0,1,345.83,195Z"/><rect class="cls-1" x="324" y="184" width="56" height="56"/><path d="M473.33,226h7a7,7,0,0,0,7-7v-17.3l-10-10L474,195l4,4v6a2.33,2.33,0,0,0,2.33,2.34h2.34V219a2.34,2.34,0,0,1-2.34,2.34h-7V191l-1.74-.45a57.48,57.48,0,0,0-29.18,0l-1.74.45v39.7H436v4.66h56v-4.66H473.33Zm-28-16.33h23.34v21H445.33Zm23.34-15V205H445.33V194.6A53.13,53.13,0,0,1,468.67,194.6Z"/><rect class="cls-1" x="436" y="184" width="56" height="56"/><path d="M550.33,228.33a7,7,0,1,0,9.34-6.57v-7.43h14v7.43a7,7,0,1,0,4.66,0v-7.43H597V202.24a7,7,0,1,0-4.67,0v7.43h-14v-7.43a7,7,0,1,0-4.66,0v7.43h-14v-7.43a7,7,0,1,0-4.67,0v19.52A7,7,0,0,0,550.33,228.33ZM576,230.67a2.34,2.34,0,1,1,2.33-2.34A2.33,2.33,0,0,1,576,230.67Zm18.67-37.34a2.34,2.34,0,1,1-2.34,2.34A2.34,2.34,0,0,1,594.67,193.33Zm-18.67,0a2.34,2.34,0,1,1-2.33,2.34A2.33,2.33,0,0,1,576,193.33Zm-18.67,37.34a2.34,2.34,0,1,1,2.34-2.34A2.34,2.34,0,0,1,557.33,230.67Zm0-37.34a2.34,2.34,0,1,1-2.33,2.34A2.34,2.34,0,0,1,557.33,193.33Z"/><path d="M601.67,224.83a5.84,5.84,0,0,0-5.84-5.83h-8.16v16.33h4.66v-4.66h0l3.5,4.66h5.84l-3.79-5.05A5.84,5.84,0,0,0,601.67,224.83Zm-9.34-1.16h3.5a1.17,1.17,0,1,1,0,2.33h-3.5Z"/><rect class="cls-1" x="548" y="184" width="56" height="56"/><path d="M708,199.07l0,0-.18-.13c-1-1.24-2.08-2.44-3.21-3.57a51.68,51.68,0,0,0-10.48-8.08l-1.55-.91-23.32,23.32,7.13,7.13-8.68,5.76a7,7,0,0,0,3.85,12.78c.24,0,.47,0,.7,0a7,7,0,0,0,5.12-3.08l5.76-8.68,7.14,7.14,23.32-23.31-.91-1.56A50.7,50.7,0,0,0,708,199.07Zm-34.47,30.56a2.3,2.3,0,1,1-3.19-3.19l9.45-6.28,0,0ZM690.63,197a3.75,3.75,0,0,0,5.31,0,5,5,0,0,0,5.71,8,5,5,0,0,0,3.83,3.93l-8.61,8.61-14.42-14.42,7.37-7.37A3.68,3.68,0,0,0,690.63,197Zm-14.7,12.68,3.22-3.22,14.42,14.42-3.22,3.22Z"/><rect class="cls-1" x="660" y="184" width="56" height="56"/><path d="M139.67,316.62V300.75l-1.52-.57a29,29,0,0,0-20.3,0l-1.52.57v15.87c-.44.14-.88.26-1.32.42l-6.5,2.44,1.64,4.37,6.18-2.32v25.72l1.52.57a28.77,28.77,0,0,0,20.3,0l1.52-.57V321.53l6.18,2.32,1.64-4.37L141,317C140.55,316.88,140.11,316.76,139.67,316.62ZM121,304a24.19,24.19,0,0,1,14,0v11.34a36.63,36.63,0,0,0-14,0Zm14,30.56a24,24,0,0,1-14,0V320.16a32.1,32.1,0,0,1,14,0ZM121,344v-4.52a28,28,0,0,0,14,0V344A24.19,24.19,0,0,1,121,344Z"/><rect class="cls-1" x="100" y="296" width="56" height="56"/><path d="M367.84,304.7l-1.38-.28a74.85,74.85,0,0,0-28.92,0l-1.38.28-2.24,7.63h-5.25V345h46.66V312.33h-5.25Zm2.83,35.63H333.33V317h4.08l2.42-8.26a69.58,69.58,0,0,1,24.34,0l2.42,8.26h4.08Z"/><path d="M352,312.33a12.84,12.84,0,1,0,12.83,12.84A12.85,12.85,0,0,0,352,312.33Zm0,21a8.17,8.17,0,1,1,8.17-8.16A8.18,8.18,0,0,1,352,333.33Z"/><rect class="cls-1" x="324" y="296" width="56" height="56"/><path d="M477.2,334.87a18.67,18.67,0,1,0-26.4,0l13.2,13.2Zm-23.1-23.1a14,14,0,0,1,19.8,19.8l-9.9,9.9-9.9-9.9A14,14,0,0,1,454.1,311.77Z"/><circle cx="464" cy="321.67" r="4.67"/><rect class="cls-1" x="436" y="296" width="56" height="56"/><path d="M564.33,319.33H555v16.34h9.33l4.67,4.66h16.33l7-7V314.67H569Zm23.34,0V331.4l-4.27,4.27H570.93l-3.3-3.3L566.27,331h-6.6v-7h6.6l1.36-1.37,3.3-3.3Z"/><rect x="548" y="319.33" width="4.67" height="16.33"/><polygon points="583 312.33 583 307.67 590 307.67 590 303 571.33 303 571.33 307.67 578.33 307.67 578.33 312.33 583 312.33"/><polygon points="599.33 321.67 594.67 321.67 594.67 326.33 599.33 326.33 599.33 333.33 604 333.33 604 314.67 599.33 314.67 599.33 321.67"/><rect class="cls-1" x="548" y="296" width="56" height="56"/><path d="M709.54,305.33H666.46l-.37,1.87a74.28,74.28,0,0,0,0,28.91l.37,1.88h5.21v9.31L688,338h21.55l.37-1.88a74.28,74.28,0,0,0,0-28.91Zm-3.86,28H686.75l-10.42,5.94v-5.94h-6a69.22,69.22,0,0,1,0-23.33h35.36a69.22,69.22,0,0,1,0,23.33Z"/><rect class="cls-1" x="660" y="296" width="56" height="56"/><path d="M804.67,344.77a47.53,47.53,0,0,1-9.34,0V345a4.67,4.67,0,0,0,9.34,0Z"/><path d="M797.67,298.33v4.88A14,14,0,0,0,786,317v9.33l-4.67,2.34V338l1.4.7a41.42,41.42,0,0,0,17.27,4,40.63,40.63,0,0,0,17.27-4l1.4-.7v-9.33L814,326.33V317a14,14,0,0,0-11.67-13.79v-4.88ZM809.33,317v12.22l2.58,1.29,2.09,1v3.51a34.7,34.7,0,0,1-28,0v-3.49l2.09-1,2.58-1.29V317a9.33,9.33,0,0,1,18.66,0Z"/><rect class="cls-1" x="772" y="296" width="56" height="56"/><path d="M926,233.29V190.71l-1.74-.46a48.5,48.5,0,0,0-24.52,0l-1.74.46v42.58l1.74.46a48.36,48.36,0,0,0,24.52,0Zm-4.67-3.64a43.49,43.49,0,0,1-18.66,0v-35.3c1.08-.24,2.17-.38,3.27-.54l.86,2.59A2.33,2.33,0,0,0,909,198h6a2.33,2.33,0,0,0,2.22-1.6l.86-2.59c1.1.16,2.19.3,3.27.54Z"/><circle cx="912" cy="226" r="2.33"/><rect class="cls-1" x="884" y="184" width="56" height="56"/><path d="M800,102.33a4.7,4.7,0,1,0,4.64,5.21l12.58-5.4-1.84-4.28-12.61,5.4A4.62,4.62,0,0,0,800,102.33Z"/><path d="M800,76.67a25.7,25.7,0,0,0-25.67,25.66,25.41,25.41,0,0,0,8,18.59l1,1,1.36-.5a43.9,43.9,0,0,1,30.52,0l1.36.5,1-1a25.41,25.41,0,0,0,8-18.59A25.7,25.7,0,0,0,800,76.67Zm15.44,39.87a48.2,48.2,0,0,0-30.88,0A20.79,20.79,0,0,1,779,102.33a21,21,0,0,1,42,0A20.79,20.79,0,0,1,815.44,116.54Z"/><circle cx="783.67" cy="102.33" r="2.33"/><circle cx="800" cy="86" r="2.33"/><circle cx="788.33" cy="90.67" r="2.33"/><circle cx="811.67" cy="90.67" r="2.33"/><rect class="cls-1" x="772" y="72" width="56" height="56"/><path d="M1044,200.33l-4.3-10-1.2-.24a74.46,74.46,0,0,0-28.92,0l-1.2.24-4.3,10h-3.37V205H1003v4.23a14,14,0,1,0,16.39,22.45l7.66,7.61,3.29-3.31-8-8a13.1,13.1,0,0,0,.88-2l.81,0a74.22,74.22,0,0,0,16.33-1.86v4.19H1045V205h2.33v-4.67Zm-34,30.34a9.34,9.34,0,1,1,9.33-9.34A9.34,9.34,0,0,1,1010,230.67Zm30.33-11.28a69.72,69.72,0,0,1-16.33,1.94,13.83,13.83,0,0,0-.82-4.66h11.47l5.68-3.74Zm0-12-7.08,4.66h-12.84a14,14,0,0,0-10.41-4.67,13,13,0,0,0-2.08.18l-.25-.17V203.7l4-9.26a69.72,69.72,0,0,1,24.7,0l4,9.26Z"/><rect class="cls-1" x="996" y="184" width="56" height="56"/><path d="M1035.67,343.22V338H1038v-4.67h-2.34l-2.89-8.34-1.31-.26a38.61,38.61,0,0,0-14.92,0l-1.31.26-2.89,8.34H1010V338h2.33v9.33H1017v-3a37.45,37.45,0,0,0,14,0v3h4.67Zm-16.92-14.14a33.62,33.62,0,0,1,10.5,0l1.47,4.25h-13.44ZM1017,339.6V338h14v1.6A34,34,0,0,1,1017,339.6Z"/><path d="M1024,300.67a49.78,49.78,0,0,0-22,5.12l-1.31.64v40.9h4.66v-28h37.34v28h4.66v-40.9l-1.31-.64A49.78,49.78,0,0,0,1024,300.67Zm-18.67,14v-5.3a45.36,45.36,0,0,1,37.34,0v5.3Z"/><rect class="cls-1" x="996" y="296" width="56" height="56"/><path d="M583.18,454.67a4.67,4.67,0,1,0,5.71-4.54l-.64-2.46h1.93V443H587l-1.64-6.27-.73-.49a15.24,15.24,0,0,0-8.48-2.57v4.66a10.46,10.46,0,0,1,5.16,1.35l.87,3.32h-20v4.67H568l3.5,4.66h-3a4.67,4.67,0,1,0,0,4.67h8.82l6.31-8.42.77,2.93A4.62,4.62,0,0,0,583.18,454.67Z"/><path d="M599.51,459.33v-40.9l-1.31-.64a49.91,49.91,0,0,0-44,0l-1.31.64v40.9h4.66v-28h37.34v28Zm-42-32.66v-5.3a45.36,45.36,0,0,1,37.34,0v5.3Z"/><rect class="cls-1" x="548" y="408" width="56" height="56"/><polygon points="250.7 428.18 240 438.88 229.3 428.18 226 431.48 240 445.48 254 431.48 250.7 428.18"/><rect class="cls-1" x="212" y="408" width="56" height="56"/><polygon points="138.7 443.98 142 440.68 128 426.68 114 440.68 117.3 443.98 128 433.28 138.7 443.98"/><rect class="cls-1" x="100" y="408" width="56" height="56"/><polygon points="347.48 450 361.48 436 347.48 422 344.18 425.3 354.88 436 344.18 446.7 347.48 450"/><rect class="cls-1" x="324" y="408" width="56" height="56"/><polygon points="468.68 422 454.68 436 468.68 450 471.98 446.7 461.28 436 471.98 425.3 468.68 422"/><rect class="cls-1" x="436" y="408" width="56" height="56"/><path d="M258.67,326.33h0l-1.83-7H261v-4.66h-5.41l-1.89-7.24-.73-.49A23.23,23.23,0,0,0,240,303v4.67a18.56,18.56,0,0,1,9.64,2.68l1.13,4.32h-34.1v4.66h8.16l10.5,14h-5a9.34,9.34,0,1,0,0,4.67h10.83l11.64-15.52,1.33,5.08a9.25,9.25,0,1,0,4.53-1.23Zm-9.34-7L240,331.78l-9.33-12.45Zm-28,21a4.67,4.67,0,1,1,4-7h-4V338h4A4.65,4.65,0,0,1,221.33,340.33Zm37.34,0a4.66,4.66,0,0,1-3.28-8l1,3.91,4.51-1.18-1-3.89a4.65,4.65,0,0,1-1.24,9.14Z"/><rect class="cls-1" x="212" y="296" width="56" height="56"/><path d="M928.64,427.58l3.16-4.78-6.6-6.6-4.78,3.16a18.66,18.66,0,0,0-2.61-1.09l-1.15-5.6h-9.32l-1.15,5.6a18.66,18.66,0,0,0-2.61,1.09l-4.78-3.16-6.6,6.6,3.16,4.78a17.49,17.49,0,0,0-1.08,2.61l-5.61,1.14v9.34l5.61,1.14a17.49,17.49,0,0,0,1.08,2.61l-3.16,4.78,6.6,6.6,4.78-3.16a18.66,18.66,0,0,0,2.61,1.09l1.15,5.6h9.32l1.15-5.6a18.66,18.66,0,0,0,2.61-1.09l4.78,3.16,6.6-6.6-3.16-4.78a17.49,17.49,0,0,0,1.08-2.61l5.61-1.14v-9.34l-5.61-1.14A17.49,17.49,0,0,0,928.64,427.58Zm2,9.28-4.72,1-.35,1.44a14,14,0,0,1-1.68,4.05l-.77,1.26,2.65,4-1.21,1.21-4-2.65-1.26.77a13.73,13.73,0,0,1-4,1.68l-1.45.34-1,4.73h-1.7l-1-4.73-1.45-.34a13.73,13.73,0,0,1-4-1.68l-1.26-.77-4,2.65-1.21-1.21,2.65-4-.77-1.26a14,14,0,0,1-1.68-4.05l-.35-1.44-4.72-1v-1.72l4.72-1,.35-1.44a14,14,0,0,1,1.68-4.05l.77-1.26-2.65-4,1.21-1.21,4,2.65,1.26-.77a13.73,13.73,0,0,1,4-1.68l1.45-.34,1-4.73h1.7l1,4.73,1.45.34a13.73,13.73,0,0,1,4,1.68l1.26.77,4-2.65,1.21,1.21-2.65,4,.77,1.26a14,14,0,0,1,1.68,4.05l.35,1.44,4.72,1Z"/><path d="M912,426.67a9.33,9.33,0,1,0,9.33,9.33A9.33,9.33,0,0,0,912,426.67Zm0,14a4.67,4.67,0,1,1,4.67-4.67A4.68,4.68,0,0,1,912,440.67Z"/><rect class="cls-1" x="884" y="408" width="56" height="56"/><path d="M929,324.68l-24-24-3.3,3.3,4.67,4.66-12.75,12.75a7,7,0,0,0,0,9.9l11.1,11.11a7,7,0,0,0,9.9,0l16-16.05Zm-7.29-.68H897.6l12.07-12.07Zm-10.41,15.08a2.34,2.34,0,0,1-3.3,0L897.6,328.67h24.13Z"/><path d="M930.67,331l-3.3,3.3a4.67,4.67,0,0,0,6.6,6.6h0a4.67,4.67,0,0,0,0-6.6Z"/><rect class="cls-1" x="884" y="296" width="56" height="56"/><path d="M706.67,417.36H702l-.69.72a27.67,27.67,0,0,1-20.2,8.56H674a9.34,9.34,0,0,0,0,18.67h4.67v9.33h4.66v-9.22a27.6,27.6,0,0,1,18,8.53l.69.72h4.66l.64-1.31a39.45,39.45,0,0,0,0-34.7ZM674,440.64a4.67,4.67,0,1,1,0-9.33h4.67v9.33Zm9.33-9.43a32.35,32.35,0,0,0,15.25-4.91,38.41,38.41,0,0,0,0,19.4,32.13,32.13,0,0,0-15.24-4.95Zm21,17.23a34.29,34.29,0,0,1,0-24.85,34.16,34.16,0,0,1,0,24.85Z"/><rect class="cls-1" x="660" y="408" width="56" height="56"/><path d="M1006.64,80.71l-1.31.64v9.28l9.34,9.33v25.69l18.66-6.22V100l9.34-9.33V81.35l-1.31-.64A39.49,39.49,0,0,0,1006.64,80.71Zm29.72,3a34.64,34.64,0,0,1-24.72,0A34.75,34.75,0,0,1,1036.36,83.67ZM1028.67,98v18l-9.34,3.11V98L1010,88.7V88a38.58,38.58,0,0,0,28,0v.66Z"/><rect class="cls-1" x="996" y="72" width="56" height="56"/><path d="M1005.33,418.64a53.13,53.13,0,0,1,23.34,0v12.69h4.66V415l-1.74-.46a57.7,57.7,0,0,0-29.18,0l-1.74.46v44.32H1024v-4.66h-18.67Z"/><rect x="1019.33" y="424.33" width="4.67" height="7"/><rect x="1010" y="424.33" width="4.67" height="7"/><rect x="1019.33" y="436" width="4.67" height="7"/><rect x="1010" y="436" width="4.67" height="7"/><path d="M1046.77,437l-1.31-.26a38.61,38.61,0,0,0-14.92,0l-1.31.26-2.89,8.34H1024V450h2.33v9.33H1031v-3a37.45,37.45,0,0,0,14,0v3h4.67V450H1052v-4.67h-2.34Zm-14,4.09a33.49,33.49,0,0,1,10.48,0l1.48,4.25h-13.44ZM1045,451.6a34,34,0,0,1-14,0V450h14Z"/><rect class="cls-1" x="996" y="408" width="56" height="56"/><path d="M706.67,114H674V85.92L690.32,72l9.35,7-2.61,7h9.61l.45,1.74A48.17,48.17,0,0,1,709,100a48.17,48.17,0,0,1-1.88,12.26Zm-28-4.67H703a44,44,0,0,0,1.3-9.33,44,44,0,0,0-1.3-9.33H690.32l3.75-10L690.51,78,678.67,88.08Z"/><rect x="667" y="86" width="4.67" height="28"/><rect class="cls-1" x="660" y="72" width="56" height="56"/><rect class="cls-1" x="660" y="72" width="56" height="56"/><path d="M573.68,128l-9.35-7,2.61-7h-9.61l-.45-1.74A48.17,48.17,0,0,1,555,100a48.17,48.17,0,0,1,1.88-12.26l.45-1.74H590v28Zm-3.75-8.66,3.56,2.68,11.84-10.09V90.67H561a44,44,0,0,0-1.3,9.33,44,44,0,0,0,1.3,9.33h12.71Z"/><rect x="592.33" y="86" width="4.67" height="28"/><rect class="cls-1" x="548" y="72" width="56" height="56"/><rect class="cls-1" x="548" y="72" width="56" height="56"/><path d="M590,538.67V527l-1.74-.46a57.74,57.74,0,0,0-29.19,0l-1.74.46v44.32H590v-14h-4.67v9.34H562v-36a53.09,53.09,0,0,1,23.33,0v8Z"/><polygon points="579.3 541.97 576 538.67 566.67 548 576 557.33 579.3 554.03 575.6 550.33 599.33 550.33 599.33 545.67 575.6 545.67 579.3 541.97"/><rect class="cls-1" x="548" y="520" width="56" height="56"/><path d="M893.33,541v11.66l1.31.63a39.32,39.32,0,0,0,34.72,0l1.31-.63V541H926v8.71a34.72,34.72,0,0,1-28,0V541Z"/><rect x="902.67" y="541" width="18.67" height="4.67"/><rect class="cls-1" x="884" y="520" width="56" height="56"/><path d="M669.33,531.67h7.4l8,8L676.33,548l8.37,8.37-8,8h-7.4V569h37.34v-4.67h-7.4l-8-8,8.37-8.37-8.37-8.37,8-8h7.4V527H669.33Zm23.34,32.66h-9.34l4.67-4.66Zm.4-16.33L688,553.07,682.93,548l5.07-5.07ZM688,536.33l-4.67-4.66h9.34Z"/><rect class="cls-1" x="660" y="520" width="56" height="56"/><path class="cls-2" d="M443,548l21-21,3.27,3.27-15.4,15.4h30.8v4.66h-30.8l15.4,15.4L464,569Z"/><rect class="cls-1" x="436" y="520" width="56" height="56"/><path class="cls-2" d="M373,548l-21,21-3.27-3.27,15.4-15.4h-30.8v-4.66h30.8l-15.4-15.4L352,527Z"/><rect class="cls-1" x="324" y="520" width="56" height="56"/><path class="cls-2" d="M128,527l21,21-3.27,3.27-15.4-15.4v30.8h-4.66v-30.8l-15.4,15.4L107,548Z"/><rect class="cls-1" x="100" y="520" width="56" height="56"/><path class="cls-2" d="M240,566.67l-21-21,3.27-3.27,15.4,15.4V527h4.66v30.8l15.4-15.4,3.27,3.27Z"/><rect class="cls-1" x="212" y="520" width="56" height="56"/><path d="M1041.87,546.46a18.55,18.55,0,0,0-13.2-5.46h-19.1l8.36-8.37-3.3-3.3-14,14,14,14,3.3-3.3-8.36-8.36h19.1a14,14,0,0,1,14,14V569h4.66v-9.33A18.55,18.55,0,0,0,1041.87,546.46Z"/><rect class="cls-1" x="996" y="520" width="56" height="56"/><rect class="cls-1" x="996" y="520" width="56" height="56"/><path d="M823.33,541H821l-5.31-12.34-1.2-.24a74.46,74.46,0,0,0-28.92,0l-1.2.24L779,541h-2.36v4.67H779V569h4.67v-6.53a72.62,72.62,0,0,0,32.66,0V569H821V545.67h2.33Zm-7,10.26L810.65,555H800v4.66a69.72,69.72,0,0,1-16.33-1.94v-6.46l5.68,3.74H800v-4.67h-9.25l-7.08-4.66V542l4-9.26a70,70,0,0,1,12.35-1.1v18.66h9.26l7.07-4.66Z"/><rect class="cls-1" x="772" y="520" width="56" height="56"/><path d="M804.82,447.71c-1.48-1-3.46-2.35-5.07-3.28A29,29,0,0,0,790,441l-1.7-.28-7,14,4.17,2.09,5.43-10.85a24.29,24.29,0,0,1,6.48,2.57c2.7,1.56,6.75,4.5,6.79,4.53l2.13,1.55,11.78-21-4.07-2.28Z"/><path d="M793,436a11.67,11.67,0,1,0-11.67-11.67A11.68,11.68,0,0,0,793,436Zm0-18.67a7,7,0,1,1-7,7A7,7,0,0,1,793,417.33Z"/><circle cx="817.5" cy="423.17" r="5.83"/><rect class="cls-1" x="772" y="408" width="56" height="56"/></g></svg>