<svg xmlns="http://www.w3.org/2000/svg" viewBox="0 0 648 648"><defs><style>.cls-1{fill:#f1f3f1;}.cls-2,.cls-5{fill:#232423;}.cls-2{fill-rule:evenodd;}.cls-3{fill:#ed6262;}.cls-4{fill:#fff;}.cls-6{fill:#e2e4e2;}</style></defs><g id="Graphic"><path class="cls-1" d="M109.15,177.23h0A44.76,44.76,0,0,1,153.91,222h0a44.76,44.76,0,0,1-44.76,44.76h0A44.76,44.76,0,0,1,64.38,222h0A44.76,44.76,0,0,1,109.15,177.23Z"/><path class="cls-2" d="M118.34,211.07l-2.93,13.16H102.88L100,211.07a9.22,9.22,0,0,1,0-4.18,9.34,9.34,0,0,1,1.84-3.75,9.42,9.42,0,0,1,16.54,7.93ZM107,204.64a4.94,4.94,0,0,0-1.73,1.3,5,5,0,0,0-1,2,5.1,5.1,0,0,0-.06,2.2l2.24,9.65h5.37L114,210.1a4.9,4.9,0,0,0-4.83-5.92A5,5,0,0,0,107,204.64Zm2.12,21.82a37.86,37.86,0,0,1,16.65,3.86l1.25.61v11.19H91.24V230.93l1.25-.61A37.87,37.87,0,0,1,109.15,226.46Zm-13.43,7.31v3.87h26.85v-3.87a33.15,33.15,0,0,0-26.85,0Z"/><path class="cls-3" d="M136,177.23h15.67a17.89,17.89,0,0,1,17.9,17.9h0A17.9,17.9,0,0,1,151.67,213H136a17.9,17.9,0,0,1-17.9-17.91h0A17.89,17.89,0,0,1,136,177.23Z"/><path class="cls-4" d="M142.94,193.36a2.68,2.68,0,0,1-.22,1.08,2.71,2.71,0,0,1-.58.87,3,3,0,0,1-.85.58,2.67,2.67,0,0,1-1.06.2h-1.52a3.49,3.49,0,0,1-1.32-.26,3.07,3.07,0,0,1-1.1-1,3.85,3.85,0,0,1-1,1,2.51,2.51,0,0,1-1.25.29,3,3,0,0,1-.76-.11,1.28,1.28,0,0,1-.72-.51v8.61h-2.46V194.3a18.81,18.81,0,0,0-.11-2c-.08-.67-.18-1.34-.31-2l-.39-1.88,2.42-.47a3.83,3.83,0,0,1,.09.47c.06.25.13.58.2,1s.17.86.25,1.37.16,1,.22,1.56a.89.89,0,0,0,.36.63,1.16,1.16,0,0,0,.69.22h.32a1.19,1.19,0,0,0,.78-.26,1.14,1.14,0,0,0,.4-.72l.83-4.07,2.42.47-.69,3.49a1.06,1.06,0,0,0,.2.76.9.9,0,0,0,.78.33h2v-5.12h2.46Zm15.94,0a2.69,2.69,0,0,1-.23,1.08,2.55,2.55,0,0,1-.58.87,2.84,2.84,0,0,1-.85.58,2.65,2.65,0,0,1-1.05.2h-1.52a3.5,3.5,0,0,1-1.33-.26,3.05,3.05,0,0,1-1.09-1,4.16,4.16,0,0,1-1,1,2.55,2.55,0,0,1-1.26.29,3,3,0,0,1-.76-.11,1.22,1.22,0,0,1-.71-.51v8.61H146V194.3a16.48,16.48,0,0,0-.11-2c-.07-.67-.18-1.34-.31-2l-.38-1.88,2.42-.47c0,.06,0,.21.08.47s.13.58.21,1,.17.86.24,1.37.17,1,.23,1.56a.92.92,0,0,0,.35.63,1.16,1.16,0,0,0,.7.22h.31a1.19,1.19,0,0,0,.78-.26,1.2,1.2,0,0,0,.41-.72l.83-4.07,2.41.47-.69,3.49a1.11,1.11,0,0,0,.2.76.91.91,0,0,0,.78.33h2v-5.12h2.47Z"/><path class="cls-5" d="M402.56,205a3.92,3.92,0,0,1,2.25,1.4,3.83,3.83,0,0,1,.9,2.54v1.26a6.88,6.88,0,0,1-.58,2.82,7.27,7.27,0,0,1-1.57,2.37,6.89,6.89,0,0,1-2.33,1.57,7,7,0,0,1-2.86.58H391.2a7.67,7.67,0,0,1-3.11-.65,7.78,7.78,0,0,1-2.58-1.72,8.08,8.08,0,0,1-1.72-2.54,8,8,0,0,1-.61-3.12v-8.2h3.94V209a3.79,3.79,0,0,0,.32,1.54,4.46,4.46,0,0,0,.86,1.26,4.16,4.16,0,0,0,2.8,1.14h7.7a2.94,2.94,0,0,0,3-3V209l-10-2.37v-4.19a7.63,7.63,0,0,1,.47-2.68,7.37,7.37,0,0,1,1.36-2.22,6.53,6.53,0,0,1,2-1.61,7.31,7.31,0,0,1,2.58-.83l5-.64.65,4.3-5.73.75a3,3,0,0,0-1.87,1,2.86,2.86,0,0,0-.71,1.93v1ZM418.32,198v6.69a1.34,1.34,0,0,0,.54,1.08,1.94,1.94,0,0,0,1.18.39h2.61a.44.44,0,0,1,.5.5v3.66a.44.44,0,0,1-.5.5h-2a4.16,4.16,0,0,1-1.29-.22,1.86,1.86,0,0,1-1.07-.89v.64a7.16,7.16,0,0,1-.47,2.58,8,8,0,0,1-1.21,2.29,8.15,8.15,0,0,1-1.87,1.79,8.39,8.39,0,0,1-2.36,1.22l-4.94,1.68-1.22-3.68,5.16-1.69a3.94,3.94,0,0,0,2.15-1.61,4.3,4.3,0,0,0,.82-2.54V198Zm5.26,17.12h4.12v4.11h-4.12Zm5.16-9a1.62,1.62,0,0,0,1.21-.5,1.75,1.75,0,0,0,.51-1.25V197h3.94v7.41a6.29,6.29,0,0,1-.51,2.51,6.43,6.43,0,0,1-3.43,3.4,6.2,6.2,0,0,1-2.47.5h-5.34a.52.52,0,0,1-.36-.14.61.61,0,0,1-.14-.36v-3.62a.52.52,0,0,1,.14-.36.45.45,0,0,1,.36-.18Zm4,13.79-1.22-3.69,5.16-1.68a4.2,4.2,0,0,0,2.15-1.61,4.26,4.26,0,0,0,.82-2.55V198h3.94v12a8.37,8.37,0,0,1-.43,2.69,8.46,8.46,0,0,1-1.21,2.4,8.05,8.05,0,0,1-1.87,1.86,8.4,8.4,0,0,1-2.4,1.29Zm23-9.63a.45.45,0,0,1-.51.5h-1a6.36,6.36,0,0,1-5.81-3.83,6.12,6.12,0,0,1-.5-2.44V186.27h3.94v18.15a1.67,1.67,0,0,0,.5,1.22,1.64,1.64,0,0,0,1.22.5h1.68a.43.43,0,0,1,.36.18.49.49,0,0,1,.15.36Zm4,.5h-4.55a.52.52,0,0,1-.36-.14.67.67,0,0,1-.14-.4v-3.62a.43.43,0,0,1,.18-.32.4.4,0,0,1,.32-.18h4.94a3.06,3.06,0,0,0,1.76-.5,3.4,3.4,0,0,0,1.11-1.29,3.44,3.44,0,0,0,.36-1.68,2.89,2.89,0,0,0-.65-1.68l-6.12-8.28v-2.82l12.14-6.13,1.75,3.48-9.81,4.94,5.27,6.55a6.51,6.51,0,0,1,1.28,2.58,7,7,0,0,1,.18,2.72,6.87,6.87,0,0,1-.78,2.54,8.76,8.76,0,0,1-1.65,2.19,8.06,8.06,0,0,1-2.36,1.5A7.56,7.56,0,0,1,459.79,210.8ZM497,206.14a1.71,1.71,0,0,0,1.72-1.72V197h3.94v7.44a6.23,6.23,0,0,1-1.9,4.52,6.57,6.57,0,0,1-2,1.36,6.2,6.2,0,0,1-2.47.5H482.6a7.08,7.08,0,0,1-2.83-.57,7.5,7.5,0,0,1-2.29-1.54,7.2,7.2,0,0,1-1.54-2.3,7,7,0,0,1-.57-2.83V197h3.93v6.19a2.94,2.94,0,0,0,3,3Zm-10,13h4.12v-4.12h-4.12Zm27.47-8.88a.44.44,0,0,1-.5.5h-1a6.32,6.32,0,0,1-5.8-3.83,6.12,6.12,0,0,1-.5-2.44V186.27h3.94v18.15a1.71,1.71,0,0,0,1.72,1.72h1.68a.45.45,0,0,1,.36.18.52.52,0,0,1,.14.36Zm9.05.5a5.83,5.83,0,0,1-2.4-.5,5.24,5.24,0,0,1-2-1.61,5.13,5.13,0,0,1-2,1.61,5.83,5.83,0,0,1-2.4.5h-.78a.49.49,0,0,1-.33-.14.5.5,0,0,1-.17-.36v-3.62a.44.44,0,0,1,.17-.36.43.43,0,0,1,.33-.18h1.47a1.77,1.77,0,0,0,1.21-.53,1.64,1.64,0,0,0,.5-1.22V198H521v6.48a1.78,1.78,0,0,0,1.69,1.68h1.14a1.94,1.94,0,0,0,1.26-.43,2.11,2.11,0,0,0,.68-1.18l1.25-6.48,3.87.72-1.08,5.44a1.5,1.5,0,0,0,.32,1.36,1.72,1.72,0,0,0,1.29.57h1a1.71,1.71,0,0,0,1.21-.46,1.64,1.64,0,0,0,.5-1.22v-7.41h3.94v7.37a1.64,1.64,0,0,0,.51,1.22,1.61,1.61,0,0,0,1.21.5h1.44a.42.42,0,0,1,.35.18.45.45,0,0,1,.15.32v3.62a.62.62,0,0,1-.15.4.42.42,0,0,1-.35.14h-.79a5.83,5.83,0,0,1-2.4-.5,5,5,0,0,1-1.94-1.61,5.18,5.18,0,0,1-2,1.61,6.12,6.12,0,0,1-2.44.5,5.78,5.78,0,0,1-2.25-.47,4.17,4.17,0,0,1-1.83-1.64,4.88,4.88,0,0,1-1.9,1.64A5.57,5.57,0,0,1,523.45,210.8Zm17.28-4.12a.52.52,0,0,1,.18-.36.41.41,0,0,1,.32-.18h6.41a9.8,9.8,0,0,0,3-.46,6.13,6.13,0,0,0,2.5-1.61l2.08-2.22.32-.33a.68.68,0,0,1,.18-.14l-7.52-2.26a.75.75,0,0,0-.64.08,1,1,0,0,0-.4.46l-1.36,3.58-3.44-.93.94-3.29a4.8,4.8,0,0,1,1-1.9,5.3,5.3,0,0,1,1.57-1.22,4.88,4.88,0,0,1,1.9-.54,4.8,4.8,0,0,1,1.93.18l14.26,4.26-1.18,3.69-1.69-.5a2.36,2.36,0,0,0-1.39,0,3,3,0,0,0-1,.71l-4.12,4.09a9.54,9.54,0,0,1-3.58,2.25,12.52,12.52,0,0,1-4.19.72h-5.52a.44.44,0,0,1-.5-.5Z"/><path class="cls-5" d="M412.49,243.06a3.48,3.48,0,0,1,1.45.3,3.6,3.6,0,0,1,1.21.8,3.89,3.89,0,0,1,.81,1.21,3.68,3.68,0,0,1,.29,1.45v1.37a3.79,3.79,0,0,1-.29,1.45,3.88,3.88,0,0,1-.81,1.18,3.78,3.78,0,0,1-1.21.81,3.48,3.48,0,0,1-1.45.3h-1.31a3.73,3.73,0,0,1-1.48-.3,3.91,3.91,0,0,1-2-2,3.79,3.79,0,0,1-.29-1.45v-1.37a3.68,3.68,0,0,1,.29-1.45,3.89,3.89,0,0,1,.81-1.21,3.68,3.68,0,0,1,1.18-.8,3.73,3.73,0,0,1,1.48-.3Zm1.86,5V246.8a1.59,1.59,0,0,0-.51-1.21,1.64,1.64,0,0,0-1.21-.49H411a1.68,1.68,0,0,0-1.21.49,1.64,1.64,0,0,0-.48,1.21v1.26a1.64,1.64,0,0,0,1.69,1.69h1.59a1.69,1.69,0,0,0,1.72-1.69Zm12.27-8.89a1.54,1.54,0,0,0-.51-1.21,1.7,1.7,0,0,0-1.21-.48h-1.74a1.65,1.65,0,0,0-1.08.37,1.75,1.75,0,0,0-.59,1l-.4,2.17a1.72,1.72,0,0,0,0,.68,2,2,0,0,0,.3.56,1.83,1.83,0,0,0,.48.4,1.58,1.58,0,0,0,.65.14h4.08Zm1.85,7.28a20.56,20.56,0,0,0,.11,2.49,24,24,0,0,0,.4,2.45l.33,1.61-1.83.32-.38-1.8c-.18-.86-.31-1.71-.4-2.55s-.11-1.69-.11-2.55l0-1.69-.43.16a3.25,3.25,0,0,1-.59.05h-2.85a3.42,3.42,0,0,1-2.74-1.23,3.68,3.68,0,0,1-.69-1.35,3.72,3.72,0,0,1,0-1.63l.45-2.45a3.5,3.5,0,0,1,3.47-2.84h1.5a3.48,3.48,0,0,1,1.45.29,3.78,3.78,0,0,1,1.21.81,3.44,3.44,0,0,1,.81,1.18,3.68,3.68,0,0,1,.29,1.45Zm19.67-5.13a2.42,2.42,0,0,1-.65,1.74,2.33,2.33,0,0,1-1.77.67H444a3.49,3.49,0,0,1-1.67-.4,3.3,3.3,0,0,1-1.23-1.15,3.81,3.81,0,0,1-1.29,1.15,3.67,3.67,0,0,1-1.77.4,3.3,3.3,0,0,1-1.16-.21,2.55,2.55,0,0,1-1-.75v10.55H434V242.23a22.16,22.16,0,0,0-.14-2.47c-.09-.82-.21-1.65-.37-2.47l-.35-1.59,1.82-.35s0,.17.08.43.15.62.22,1.05.17.91.24,1.45.16,1.09.21,1.67a1.27,1.27,0,0,0,.14.53,2,2,0,0,0,.37.51,2,2,0,0,0,.6.41,2.2,2.2,0,0,0,.8.13H438a2.12,2.12,0,0,0,1.37-.48,2,2,0,0,0,.72-1.21l.86-4.27,1.8.35-.7,3.57a1.91,1.91,0,0,0,.43,1.42,1.77,1.77,0,0,0,1.43.62h2.39v-6.12h1.85Zm9.43-3.63-1-.94,1.21-1.53,2.9,2.61a24,24,0,0,1,1.83,1.82,15.53,15.53,0,0,1,1.83,2.39,13.36,13.36,0,0,1,1.39,3,11,11,0,0,1,.57,3.63,6,6,0,0,1-.27,1.82,4.22,4.22,0,0,1-.75,1.48,3.62,3.62,0,0,1-1.27,1,4,4,0,0,1-1.8.37,3.67,3.67,0,0,1-1.77-.4,5.81,5.81,0,0,1-1.45-1.24,5.43,5.43,0,0,1-1.48,1.24,3.6,3.6,0,0,1-1.74.4,4.18,4.18,0,0,1-1.85-.37,3.74,3.74,0,0,1-1.27-1,4.63,4.63,0,0,1-.72-1.48,7,7,0,0,1-.22-1.8,10.89,10.89,0,0,1,.51-3.41,13.51,13.51,0,0,1,1.32-2.88,16.93,16.93,0,0,1,1.88-2.49C456.12,239.1,456.84,238.37,457.57,237.69ZM459,239c-.8.77-1.54,1.52-2.2,2.23a15.77,15.77,0,0,0-1.67,2.2,11,11,0,0,0-1.1,2.42,10.31,10.31,0,0,0-.37,2.88,3.4,3.4,0,0,0,.43,1.74,1.67,1.67,0,0,0,1.53.73h.32a2.06,2.06,0,0,0,1.37-.49,2.35,2.35,0,0,0,.78-1.34l.59-2.5,1.88.32-.56,2.39a2.37,2.37,0,0,0,.26.57,3.12,3.12,0,0,0,.46.51,3.27,3.27,0,0,0,.64.4,2,2,0,0,0,.7.14h.33a1.65,1.65,0,0,0,1.53-.73,3.22,3.22,0,0,0,.45-1.74,10.48,10.48,0,0,0-.37-2.93,9.49,9.49,0,0,0-1.05-2.42,13.53,13.53,0,0,0-1.69-2.17C460.56,240.46,459.81,239.72,459,239Zm24.32,3.84-1.45.22c-.66.11-1.4.21-2.22.32s-1.66.21-2.5.3-1.59.1-2.23.1a3.43,3.43,0,0,1-1.1-.18,2.67,2.67,0,0,1-1-.65v10.42H471V242.26a20.44,20.44,0,0,0-.27-3.28c-.16-1.13-.35-2.22-.57-3.28l1.8-.32c.13.57.26,1.27.41,2.1s.28,1.63.37,2.49a2,2,0,0,0,.65,1.16,1.88,1.88,0,0,0,1.23.46h1.18a2.43,2.43,0,0,1-.26-.73l-.06-.27c0-.18-.07-.38-.1-.62s-.09-.49-.14-.72a3.94,3.94,0,0,0-.11-.59,3.39,3.39,0,0,1,.06-1.59,3.71,3.71,0,0,1,.72-1.31,3.49,3.49,0,0,1,1.18-.94,3.26,3.26,0,0,1,1.51-.35h3.6l0,2h-3.79a1.42,1.42,0,0,0-1.21.56,1.52,1.52,0,0,0-.26,1.23l.61,3.23,1.53-.14,1.83-.16,2.15-.24Zm5.59-7.44.08.43q.1.43.24,1.11c.09.42.18.92.27,1.47s.15,1.1.19,1.64a1.46,1.46,0,0,0,.61,1.1,2.15,2.15,0,0,0,1.29.43h3.95v-6.12h1.93v5.91a2.35,2.35,0,0,1-.67,1.74,2.29,2.29,0,0,1-1.74.67h-3.15a3.13,3.13,0,0,1-1.15-.21,2.53,2.53,0,0,1-1-.78v10.58h-1.85V242.23c0-.84-.05-1.67-.13-2.47s-.22-1.65-.38-2.47l-.35-1.59Zm13.17,18V242.23a22.16,22.16,0,0,0-.14-2.47c-.09-.82-.21-1.65-.37-2.47l-.35-1.59,1.82-.35.35,1.83a25.08,25.08,0,0,1,.51,5.08v11.06Zm19-10.53-1.45.22c-.66.11-1.4.21-2.23.32s-1.65.21-2.49.3-1.59.1-2.23.1a3.49,3.49,0,0,1-1.11-.18,2.64,2.64,0,0,1-1-.65v10.42h-1.86V242.26a20.41,20.41,0,0,0-.26-3.28c-.16-1.13-.35-2.22-.57-3.28l1.8-.32c.13.57.26,1.27.4,2.1a24,24,0,0,1,.38,2.49,2,2,0,0,0,.65,1.16,1.86,1.86,0,0,0,1.23.46h1.18a2.76,2.76,0,0,1-.27-.73l0-.27c0-.18-.07-.38-.11-.62s-.08-.49-.13-.72a5.85,5.85,0,0,0-.11-.59,3.4,3.4,0,0,1,0-1.59,3.89,3.89,0,0,1,.73-1.31,3.49,3.49,0,0,1,1.18-.94,3.26,3.26,0,0,1,1.51-.35h3.59l0,2h-3.79a1.42,1.42,0,0,0-1.21.56,1.49,1.49,0,0,0-.27,1.23l.62,3.23,1.53-.14,1.83-.16,2.15-.24Zm8.51,10.5a38.24,38.24,0,0,0-1.42-7,46,46,0,0,0-1.91-5.27,29.63,29.63,0,0,0-2.42-4.48l1.59-1.29a33.17,33.17,0,0,1,2.09,3.84,39.72,39.72,0,0,1,1.7,4.13,29.38,29.38,0,0,1,1.26,5,27.58,27.58,0,0,1,1.23-5,39.72,39.72,0,0,1,1.7-4.13,33.32,33.32,0,0,1,2.14-3.84l1.59,1.29a32.35,32.35,0,0,0-2.5,4.67c-.32.73-.65,1.55-1,2.44s-.64,1.83-.94,2.85-.55,2.1-.78,3.25-.41,2.31-.54,3.54Zm15.29,0a38.24,38.24,0,0,0-1.42-7,46,46,0,0,0-1.91-5.27,29.63,29.63,0,0,0-2.42-4.48l1.59-1.29a33.17,33.17,0,0,1,2.09,3.84,39.72,39.72,0,0,1,1.7,4.13,29.38,29.38,0,0,1,1.26,5,27.58,27.58,0,0,1,1.23-5,39.72,39.72,0,0,1,1.7-4.13,33.32,33.32,0,0,1,2.14-3.84l1.59,1.29a32.35,32.35,0,0,0-2.5,4.67c-.32.73-.65,1.55-1,2.44s-.64,1.83-.94,2.85-.55,2.1-.78,3.25-.41,2.31-.54,3.54Zm15.35-10.23a3.52,3.52,0,0,1,1.45.3,3.66,3.66,0,0,1,1.2.8,3.73,3.73,0,0,1,.81,1.21,3.52,3.52,0,0,1,.3,1.45v1.37a3.62,3.62,0,0,1-.3,1.45,3.71,3.71,0,0,1-.81,1.18,3.85,3.85,0,0,1-1.2.81,3.52,3.52,0,0,1-1.45.3h-1.32a3.73,3.73,0,0,1-1.48-.3,4,4,0,0,1-1.18-.81,3.68,3.68,0,0,1-.8-1.18,3.62,3.62,0,0,1-.3-1.45v-1.37a3.52,3.52,0,0,1,.3-1.45,3.7,3.7,0,0,1,.8-1.21,3.79,3.79,0,0,1,1.18-.8,3.73,3.73,0,0,1,1.48-.3Zm1.85,5V246.8a1.59,1.59,0,0,0-.51-1.21,1.62,1.62,0,0,0-1.21-.49h-1.58a1.67,1.67,0,0,0-1.21.49,1.64,1.64,0,0,0-.49,1.21v1.26a1.73,1.73,0,0,0,.49,1.21,1.7,1.7,0,0,0,1.21.48h1.58a1.69,1.69,0,0,0,1.72-1.69Z"/><path class="cls-6" d="M109.15,160.44h429.7V158.2H109.15Zm429.7,123.1H109.15v2.23h429.7Zm-429.7,0A61.55,61.55,0,0,1,47.6,222H45.36a63.78,63.78,0,0,0,63.79,63.78ZM600.4,222a61.55,61.55,0,0,1-61.55,61.55v2.23A63.78,63.78,0,0,0,602.64,222Zm-61.55-61.55A61.55,61.55,0,0,1,600.4,222h2.24a63.79,63.79,0,0,0-63.79-63.79Zm-429.7-2.24A63.79,63.79,0,0,0,45.36,222H47.6a61.55,61.55,0,0,1,61.55-61.55Z"/><path class="cls-1" d="M109.09,386.43h0a44.78,44.78,0,0,1,44.77,44.77h0A44.78,44.78,0,0,1,109.09,476h0A44.78,44.78,0,0,1,64.32,431.2h0A44.78,44.78,0,0,1,109.09,386.43Z"/><path class="cls-2" d="M118,440.15h4.48v13.43H91.18V411.05l1.79-.44a53.75,53.75,0,0,1,28,0l1.57.44v11.2H118v-7.61a53.76,53.76,0,0,0-22.38,0v34.47H118ZM108.64,429h22.83v4.48H108.64l3.58,3.58-3.13,3.13-9-8.95,9-8.95,3.13,3.13Z"/><path class="cls-5" d="M293.69,432.15a3.9,3.9,0,0,1,2.26,1.39,3.86,3.86,0,0,1,.9,2.55v1.25a6.92,6.92,0,0,1-.58,2.83,7.12,7.12,0,0,1-1.57,2.36,6.92,6.92,0,0,1-2.33,1.58,7.17,7.17,0,0,1-2.87.57h-7.16a7.66,7.66,0,0,1-3.11-.64,7.94,7.94,0,0,1-2.58-1.72,8.2,8.2,0,0,1-1.72-2.54,7.86,7.86,0,0,1-.61-3.12v-8.2h3.94v7.63a3.79,3.79,0,0,0,.32,1.54,4.35,4.35,0,0,0,.86,1.25,3.72,3.72,0,0,0,1.25.82,3.67,3.67,0,0,0,1.54.33h7.7a2.94,2.94,0,0,0,3-3v-.93l-10-2.36v-4.19a7.91,7.91,0,0,1,.46-2.69,7.65,7.65,0,0,1,1.37-2.22,6.68,6.68,0,0,1,2-1.61,7.23,7.23,0,0,1,2.58-.82l5-.65.64,4.3-5.73.75a3,3,0,0,0-1.86,1,2.88,2.88,0,0,0-.71,1.93v1Zm15.77-7.06v6.7a1.3,1.3,0,0,0,.54,1.07,1.89,1.89,0,0,0,1.18.4h2.61a.44.44,0,0,1,.5.5v3.65a.44.44,0,0,1-.5.5h-2a4.44,4.44,0,0,1-1.29-.21,1.84,1.84,0,0,1-1.07-.9v.65A7.16,7.16,0,0,1,309,440a8.11,8.11,0,0,1-1.21,2.29,8.37,8.37,0,0,1-1.87,1.79,8.66,8.66,0,0,1-2.36,1.22L298.61,447l-1.22-3.69,5.16-1.68A4,4,0,0,0,304.7,440a4.33,4.33,0,0,0,.82-2.55V425.09Zm5.26,17.12h4.12v4.12h-4.12Zm5.16-8.95a1.68,1.68,0,0,0,1.22-.5,1.81,1.81,0,0,0,.5-1.26v-7.41h3.94v7.41A6.43,6.43,0,0,1,325,434a6.75,6.75,0,0,1-1.4,2,6.29,6.29,0,0,1-2,1.36,6,6,0,0,1-2.47.5h-5.34a.48.48,0,0,1-.36-.14.61.61,0,0,1-.14-.36V433.8a.49.49,0,0,1,.14-.36.45.45,0,0,1,.36-.18Zm4,13.79-1.22-3.69,5.16-1.69a4.11,4.11,0,0,0,2.15-1.61,4.24,4.24,0,0,0,.83-2.54V425.13h3.94v12a8.59,8.59,0,0,1-.43,2.68,8.48,8.48,0,0,1-1.22,2.4,7.64,7.64,0,0,1-1.86,1.86,8.59,8.59,0,0,1-2.41,1.29Zm23-9.64a.44.44,0,0,1-.5.5h-1a6.46,6.46,0,0,1-2.44-.46,6.62,6.62,0,0,1-2-1.36,6.49,6.49,0,0,1-1.36-2,5.87,5.87,0,0,1-.5-2.43V413.38H343v18.16a1.64,1.64,0,0,0,.5,1.22,1.67,1.67,0,0,0,1.22.5h1.68a.45.45,0,0,1,.36.18.49.49,0,0,1,.14.36Zm4,.5h-4.55a.45.45,0,0,1-.36-.14.59.59,0,0,1-.14-.39v-3.62a.37.37,0,0,1,.18-.32.4.4,0,0,1,.32-.18h4.94a3.1,3.1,0,0,0,1.75-.5,3.23,3.23,0,0,0,1.11-1.29,3.29,3.29,0,0,0,.36-1.69,2.93,2.93,0,0,0-.64-1.68l-6.13-8.27V417l12.14-6.13,1.76,3.48-9.81,4.94,5.26,6.55a6.53,6.53,0,0,1,1.29,2.58,7,7,0,0,1,.18,2.73,7.08,7.08,0,0,1-.79,2.54,8.53,8.53,0,0,1-1.65,2.18,8,8,0,0,1-2.36,1.51A7.7,7.7,0,0,1,350.94,437.91Zm37.17-4.65a1.71,1.71,0,0,0,1.72-1.72v-7.45h3.94v7.45a6.29,6.29,0,0,1-.51,2.51,6.05,6.05,0,0,1-1.39,2,6.51,6.51,0,0,1-2,1.36,6,6,0,0,1-2.47.5H373.75a7.23,7.23,0,0,1-5.12-2.11,7.16,7.16,0,0,1-1.54-2.29,6.92,6.92,0,0,1-.58-2.83v-6.59h3.94v6.2a2.94,2.94,0,0,0,3,3Zm-10,13h4.12v-4.11h-4.12Zm27.47-8.88a.44.44,0,0,1-.5.5h-1a6.37,6.37,0,0,1-2.43-.46,6.41,6.41,0,0,1-3.37-3.37,6,6,0,0,1-.5-2.43V413.38h3.94v18.16a1.71,1.71,0,0,0,1.72,1.72h1.68a.45.45,0,0,1,.36.18.49.49,0,0,1,.14.36Zm9.05.5a5.67,5.67,0,0,1-2.4-.5,5.15,5.15,0,0,1-2-1.61,5.09,5.09,0,0,1-2,1.61,5.7,5.7,0,0,1-2.4.5H405a.41.41,0,0,1-.32-.14.52.52,0,0,1-.18-.36V433.8a.43.43,0,0,1,.18-.36.4.4,0,0,1,.32-.18h1.47a1.78,1.78,0,0,0,1.21-.54,1.64,1.64,0,0,0,.51-1.22v-6.41h3.94v6.48a1.65,1.65,0,0,0,.53,1.19,1.68,1.68,0,0,0,1.15.5H415a2,2,0,0,0,1.26-.43,2.08,2.08,0,0,0,.68-1.18l1.25-6.49,3.87.72L421,431.32a1.46,1.46,0,0,0,.32,1.37,1.72,1.72,0,0,0,1.29.57h1a1.74,1.74,0,0,0,1.22-.47,1.67,1.67,0,0,0,.5-1.22v-7.41h3.94v7.38a1.64,1.64,0,0,0,.5,1.22,1.67,1.67,0,0,0,1.22.5h1.43a.45.45,0,0,1,.36.18.45.45,0,0,1,.14.32v3.62a.64.64,0,0,1-.14.39.4.4,0,0,1-.36.14h-.79a5.67,5.67,0,0,1-2.4-.5,4.9,4.9,0,0,1-1.93-1.61,5,5,0,0,1-2,1.61,5.87,5.87,0,0,1-2.43.5,5.78,5.78,0,0,1-2.26-.46,4.25,4.25,0,0,1-1.83-1.65,5,5,0,0,1-1.89,1.65A5.64,5.64,0,0,1,414.6,437.91Zm17.28-4.11a.56.56,0,0,1,.18-.36.43.43,0,0,1,.33-.18h6.41a9.8,9.8,0,0,0,3-.47,6.07,6.07,0,0,0,2.51-1.61l2.08-2.22.32-.32c.09-.1.15-.14.18-.14l-7.52-2.26a.77.77,0,0,0-.65.07.92.92,0,0,0-.39.47l-1.36,3.58-3.44-.93.93-3.3a5,5,0,0,1,1-1.9A5.42,5.42,0,0,1,437,423a5.32,5.32,0,0,1,3.83-.36l14.25,4.26-1.18,3.69-1.68-.5a2.49,2.49,0,0,0-1.4,0,3,3,0,0,0-1,.72l-4.11,4.08a9.47,9.47,0,0,1-3.59,2.26,12.46,12.46,0,0,1-4.19.71h-5.51a.44.44,0,0,1-.51-.5Zm30.71-5.38a6.19,6.19,0,0,1,.35-2.11,6.43,6.43,0,0,1,1-1.86,7,7,0,0,1,1.5-1.43,5.61,5.61,0,0,1,2-.86l4.73-1.15v-2.69h3.94v13a1.82,1.82,0,0,0,.61,1.37,2.13,2.13,0,0,0,1.46.57h1.08a.47.47,0,0,1,.32.14.45.45,0,0,1,.18.36v3.65a.55.55,0,0,1-.5.5h-1.08a5.3,5.3,0,0,1-3.11-.89,6.84,6.84,0,0,1-2.11-2.4,3.19,3.19,0,0,1-1.08.46,5.81,5.81,0,0,1-1.25.15H467.1a4.36,4.36,0,0,1-1.76-.36,4.58,4.58,0,0,1-1.43-1,4.47,4.47,0,0,1-1-1.43,4.31,4.31,0,0,1-.35-1.75Zm9.56-3.18-3.66.89a2.49,2.49,0,0,0-1.43.93,2.67,2.67,0,0,0-.53,1.65v1.86h5.62Zm8,17h4.12v4.12h-4.12Zm5.16-8.95a1.68,1.68,0,0,0,1.22-.5,1.81,1.81,0,0,0,.5-1.26v-7.41H491v7.41a6.43,6.43,0,0,1-.5,2.51,6.75,6.75,0,0,1-1.4,2,6.29,6.29,0,0,1-2,1.36,6,6,0,0,1-2.47.5h-5.34a.48.48,0,0,1-.36-.14.61.61,0,0,1-.14-.36V433.8a.49.49,0,0,1,.14-.36.45.45,0,0,1,.36-.18Zm17.89,4.65a4.92,4.92,0,0,1-1.83-.35,5.3,5.3,0,0,1-1.5-1,5,5,0,0,1-1-1.51,4.89,4.89,0,0,1-.36-1.86V428.5h3.37v3.93a.81.81,0,0,0,.25.61.83.83,0,0,0,.57.22h5.91a2.14,2.14,0,0,0,1.15-.32,2.25,2.25,0,0,0,.82-.83,1.9,1.9,0,0,0,.33-1.07,2.18,2.18,0,0,0-.29-1.18l-4.44-7.92,3.33-2.18,4.76,8.45a5.83,5.83,0,0,1,.83,3.33,6.78,6.78,0,0,1-.9,3.15A6.89,6.89,0,0,1,511.9,437a6.24,6.24,0,0,1-3.33.89Zm29.52-.75a8.37,8.37,0,0,1-.43,2.69,8.49,8.49,0,0,1-1.22,2.4,7.92,7.92,0,0,1-1.86,1.93,8.57,8.57,0,0,1-2.43,1.29l-4.91,1.68-1.22-3.76,5.05-1.68a4.64,4.64,0,0,0,2.19-1.5,3.8,3.8,0,0,0,.86-2.48v-.25a4.53,4.53,0,0,1-2.12.43h-2.4a5.61,5.61,0,0,1-2.43-.53,6.25,6.25,0,0,1-1.9-1.51,5.79,5.79,0,0,1-1.08-2.11,5.73,5.73,0,0,1-.07-2.51l.61-3.26a5.4,5.4,0,0,1,.68-1.79,6.43,6.43,0,0,1,1.26-1.47,5.57,5.57,0,0,1,3.54-1.28h2a5.71,5.71,0,0,1,2.29.46A5.55,5.55,0,0,1,531,425.2a6,6,0,0,1,1.25,1.86,5.72,5.72,0,0,1,.47,2.29Zm-3.94-3.9v-3.94a1.33,1.33,0,0,0-.39-1,1.3,1.3,0,0,0-1-.43h-2.9a1.25,1.25,0,0,0-.86.32,1.57,1.57,0,0,0-.47.83l-.57,2.86a1.08,1.08,0,0,0,.22.93,1.12,1.12,0,0,0,.89.4Zm5.87,13.79-1.22-3.69,5.16-1.69a4.15,4.15,0,0,0,2.15-1.61,4.23,4.23,0,0,0,.82-2.54V425.13h3.94v12a8.31,8.31,0,0,1-.43,2.68,8,8,0,0,1-1.22,2.4,7.47,7.47,0,0,1-1.86,1.86,8.4,8.4,0,0,1-2.4,1.29Zm28.88-9.89a8.37,8.37,0,0,1-.43,2.69,8.49,8.49,0,0,1-1.22,2.4,7.92,7.92,0,0,1-1.86,1.93,8.43,8.43,0,0,1-2.43,1.29l-4.91,1.68-1.22-3.76,5-1.68a4.64,4.64,0,0,0,2.19-1.5,3.8,3.8,0,0,0,.86-2.48v-.25a6.41,6.41,0,0,1-1,.33,6.3,6.3,0,0,1-1.15.1h-2.4a5.61,5.61,0,0,1-2.43-.53,6.38,6.38,0,0,1-1.9-1.51,5.62,5.62,0,0,1-1.15-4.62l.61-3.26a5.4,5.4,0,0,1,.68-1.79,6.43,6.43,0,0,1,1.26-1.47,5.57,5.57,0,0,1,3.54-1.28h2a5.71,5.71,0,0,1,2.29.46,5.55,5.55,0,0,1,1.86,1.29,6.17,6.17,0,0,1,1.26,1.86,5.71,5.71,0,0,1,.46,2.29Zm-3.94-3.9v-3.94a1.33,1.33,0,0,0-.39-1,1.29,1.29,0,0,0-1-.43h-2.9a1.27,1.27,0,0,0-.86.32,1.57,1.57,0,0,0-.47.83l-.57,2.86a1.08,1.08,0,0,0,.22.93,1.13,1.13,0,0,0,.89.4Z"/><path class="cls-6" d="M109.09,369.64H538.85v-2.23H109.09ZM538.85,492.75H109.09V495H538.85Zm-429.76,0A61.56,61.56,0,0,1,47.53,431.2H45.3A63.79,63.79,0,0,0,109.09,495ZM600.4,431.2a61.55,61.55,0,0,1-61.55,61.55V495a63.79,63.79,0,0,0,63.79-63.79Zm-61.55-61.56A61.56,61.56,0,0,1,600.4,431.2h2.24a63.79,63.79,0,0,0-63.79-63.79Zm-429.76-2.23A63.79,63.79,0,0,0,45.3,431.2h2.23a61.56,61.56,0,0,1,61.56-61.56Z"/></g></svg>