<svg xmlns="http://www.w3.org/2000/svg" xmlns:xlink="http://www.w3.org/1999/xlink" viewBox="0 0 648 648"><defs><style>.cls-1{fill:none;}.cls-2,.cls-8{fill:#fff;}.cls-2{fill-opacity:0.85;}.cls-3{fill:#f2f4f2;}.cls-4,.cls-5,.cls-7{fill:#232423;}.cls-5{fill-rule:evenodd;}.cls-6{clip-path:url(#clip-path);}.cls-7{fill-opacity:0.04;}.cls-8{fill-opacity:0.1;}.cls-9{fill:#80db6b;}</style><clipPath id="clip-path"><rect class="cls-1" x="45.36" y="132.05" width="557.28" height="49.54"/></clipPath></defs><g id="Graphic"><rect class="cls-2" x="45.36" y="45.36" width="557.28" height="148.61"/><path class="cls-3" d="M603.14,194.47H44.86V44.86H603.14Zm-557.28-1H602.14V45.86H45.86Z"/><path class="cls-4" d="M85.61,98a12.2,12.2,0,0,0,7.58-2.63l8.83,8.82,2.16-2.16-8.82-8.83A12.2,12.2,0,0,0,98,85.61,12.39,12.39,0,1,0,85.61,98Zm0-21.67a9.29,9.29,0,1,1-9.29,9.29A9.32,9.32,0,0,1,85.61,76.32Z"/><path class="cls-4" d="M353.4,88.7H341v12.39H353.4Z"/><path class="cls-4" d="M307,70.13H294.57v31H307Z"/><path class="cls-4" d="M337.92,70.13H325.53v31h12.39Z"/><path class="cls-4" d="M316.25,101.09a6.2,6.2,0,1,0-6.2-6.19A6.19,6.19,0,0,0,316.25,101.09Z"/><path class="cls-4" d="M347.21,116.57a6.2,6.2,0,1,0-6.2-6.19A6.19,6.19,0,0,0,347.21,116.57Z"/><path class="cls-5" d="M574.78,76.32h-31v3.1h31Zm0,10.84h-31v3.09h31ZM543.82,98h31v3.1h-31Z"/><g class="cls-6"><path class="cls-7" d="M-41.33,156.82a24.77,24.77,0,0,1,24.77-24.77H33a24.77,24.77,0,0,1,24.76,24.77h0A24.76,24.76,0,0,1,33,181.58H-16.56a24.76,24.76,0,0,1-24.77-24.76Z"/><path class="cls-8" d="M-16.56,132.05H33a24.77,24.77,0,0,1,24.76,24.77h0A24.77,24.77,0,0,1,33,181.58H-16.56a24.77,24.77,0,0,1-24.77-24.76h0A24.77,24.77,0,0,1-16.56,132.05Z"/><path class="cls-7" d="M70.13,156.82A24.77,24.77,0,0,1,94.9,132.05h58.82a24.77,24.77,0,0,1,24.77,24.77h0a24.76,24.76,0,0,1-24.77,24.76H94.9a24.76,24.76,0,0,1-24.77-24.76Z"/><path class="cls-8" d="M94.9,132.05h58.82a24.77,24.77,0,0,1,24.77,24.77h0a24.77,24.77,0,0,1-24.77,24.76H94.9a24.77,24.77,0,0,1-24.77-24.76h0A24.77,24.77,0,0,1,94.9,132.05Z"/><path class="cls-4" d="M94.9,159.91l-4.65-4.64h9.29Z"/><path class="cls-4" d="M117.76,161.46a2.53,2.53,0,0,1-.91-.17,2.7,2.7,0,0,1-.76-.52,2.86,2.86,0,0,1-.5-.76,2.53,2.53,0,0,1-.17-.91v-2.3h1.28v2a1,1,0,0,0,.22.65.77.77,0,0,0,.65.26H121a1.82,1.82,0,0,0,1.06-.28,1.76,1.76,0,0,0,.61-.67,1.8,1.8,0,0,0,.17-.89,1.83,1.83,0,0,0-.24-.87l-2.49-4.44,1.26-.84,2.47,4.42a3.61,3.61,0,0,1,.52,1.9,3.41,3.41,0,0,1-.44,1.72,3.29,3.29,0,0,1-1.21,1.25,3.36,3.36,0,0,1-1.8.48Zm11.29-6.67v3.4a1.39,1.39,0,0,0,.46,1.06,1.57,1.57,0,0,0,1.1.43h2.17a.28.28,0,0,1,.22.11.33.33,0,0,1,.08.22v1.15a.27.27,0,0,1-.3.3h-1.91a2.5,2.5,0,0,1-1-.22,1.88,1.88,0,0,1-.8-.65v1a4.41,4.41,0,0,1-.24,1.45,4.33,4.33,0,0,1-.67,1.3,4.12,4.12,0,0,1-1,1,4.62,4.62,0,0,1-1.32.69l-2.47.87-.48-1.5,2.63-.86a2.87,2.87,0,0,0,1.51-1.11,3,3,0,0,0,.57-1.78v-6.84Zm6.46,6.67h-2.73a.27.27,0,0,1-.3-.3V160c0-.21.1-.31.3-.31h2.93a2.34,2.34,0,0,0,2.14-1.28,2.41,2.41,0,0,0,.24-1.32,3,3,0,0,0-.61-1.49L134,150.8v-1.26l6.66-3.4.69,1.36-5.83,3,3.21,4.29a4.38,4.38,0,0,1,.91,2.3,4.1,4.1,0,0,1-.41,2.17,4.09,4.09,0,0,1-3.71,2.23Zm2.91,5.4-.48-1.48,2.65-.86a2.85,2.85,0,0,0,1.47-1.11,3,3,0,0,0,.59-1.78v-6.87h1.47v6.74a4.47,4.47,0,0,1-.24,1.46,4.18,4.18,0,0,1-.65,1.3,4,4,0,0,1-1,1,4.68,4.68,0,0,1-1.3.71Zm13.38-5.7a.27.27,0,0,1-.3.3h-.81a3.33,3.33,0,0,1-3.31-3.32v-11h1.49v10.94a1.53,1.53,0,0,0,.46,1.11,1.57,1.57,0,0,0,1.1.45h1.07a.26.26,0,0,1,.21.11.29.29,0,0,1,.09.22Zm2.42.3h-2.73a.27.27,0,0,1-.3-.3V160c0-.21.1-.31.3-.31h2.92a2.34,2.34,0,0,0,2.15-1.28,2.41,2.41,0,0,0,.24-1.32,3,3,0,0,0-.61-1.49l-3.49-4.79v-1.26l6.66-3.4.69,1.36-5.83,3,3.21,4.29a4.38,4.38,0,0,1,.91,2.3,4.2,4.2,0,0,1-.41,2.17,4.09,4.09,0,0,1-3.71,2.23Z"/><path class="cls-7" d="M190.87,156.82a24.77,24.77,0,0,1,24.77-24.77h61.92a24.77,24.77,0,0,1,24.77,24.77h0a24.76,24.76,0,0,1-24.77,24.76H215.64a24.76,24.76,0,0,1-24.77-24.76Z"/><path class="cls-8" d="M215.64,132.05h61.92a24.77,24.77,0,0,1,24.77,24.77h0a24.77,24.77,0,0,1-24.77,24.76H215.64a24.77,24.77,0,0,1-24.77-24.76h0A24.77,24.77,0,0,1,215.64,132.05Z"/><path class="cls-4" d="M215.64,159.91,211,155.27h9.28Z"/><path class="cls-4" d="M242,154.16h1.84v-1.85H242Zm3,0h1.84v-1.85h-1.84Zm-6.81,0v3.23a2.58,2.58,0,0,0,.17.91,2.46,2.46,0,0,0,.52.71,3.11,3.11,0,0,0,.74.5,2.34,2.34,0,0,0,.91.17h8.58a1.51,1.51,0,0,0,1.11-.45,1.52,1.52,0,0,0,.45-1.11v-3.36h1.5v3.36a1.52,1.52,0,0,0,.45,1.11,1.54,1.54,0,0,0,1.11.45h.65c.2,0,.3.1.3.31v1.17a.27.27,0,0,1-.3.3H254a3,3,0,0,1-2.58-1.43,3,3,0,0,1-2.6,1.43h-8.23a3.89,3.89,0,0,1-1.52-.3,4.49,4.49,0,0,1-1.24-.83,3.78,3.78,0,0,1-1.12-2.73v-3.44Zm16.18,7.3a.27.27,0,0,1-.3-.3V160a.27.27,0,0,1,.09-.2.26.26,0,0,1,.21-.11h.7a1.59,1.59,0,0,0,1.08-.39,1.57,1.57,0,0,0,.58-1l.46-2.23a2.61,2.61,0,0,1,.35-.94,2.76,2.76,0,0,1,.62-.73,2.86,2.86,0,0,1,.83-.48,2.8,2.8,0,0,1,1-.17h1.21a3,3,0,0,1,2.14.88,3,3,0,0,1,.65,1,2.85,2.85,0,0,1,.24,1.17v1.32a1.52,1.52,0,0,0,.46,1.13,1.5,1.5,0,0,0,1.1.45h.7a.26.26,0,0,1,.21.11.27.27,0,0,1,.09.2v1.17a.27.27,0,0,1-.3.3H266a3.06,3.06,0,0,1-1.24-.26,2.65,2.65,0,0,1-1-.82,1.26,1.26,0,0,1-.58.86,2,2,0,0,1-1,.22h-2.64a2.57,2.57,0,0,1-1.28-.33,2.33,2.33,0,0,1-.93-1.1,2.47,2.47,0,0,1-1,1.1,3,3,0,0,1-1.37.33Zm5.07-1.78h3.3v-2.9a1.26,1.26,0,0,0-.41-.95,1.29,1.29,0,0,0-1-.42h-1.41a1.28,1.28,0,0,0-.87.33,1.37,1.37,0,0,0-.47.78l-.33,1.75a1.15,1.15,0,0,0,1.17,1.41Zm8.43,6.22h1.84v-1.84h-1.84Zm3,0h1.84v-1.84h-1.84Zm3.44-4.74a.27.27,0,0,1-.3.3h-1.35a2.64,2.64,0,0,1-.73-.11,2.9,2.9,0,0,1-.7-.3,2.5,2.5,0,0,1-.56-.46,1.41,1.41,0,0,1-.33-.56,2.86,2.86,0,0,1-1.06,1,2.8,2.8,0,0,1-1.43.39h-1.34a.27.27,0,0,1-.3-.3V160a.29.29,0,0,1,.08-.22.28.28,0,0,1,.22-.11h1.41a1.59,1.59,0,0,0,1.08-.39,1.71,1.71,0,0,0,.61-1l.67-3.43,1.47.24L271.1,158a1.42,1.42,0,0,0,0,.65,1.27,1.27,0,0,0,.31.54,1.68,1.68,0,0,0,.52.37,1.54,1.54,0,0,0,.65.13h1.32a.26.26,0,0,1,.21.11.29.29,0,0,1,.09.22Zm3.55-5h3.16v-2.75a1.25,1.25,0,0,0-.41-1,1.29,1.29,0,0,0-1-.41h-1.33a1.4,1.4,0,0,0-.88.3,1.3,1.3,0,0,0-.46.81l-.3,1.58a1.11,1.11,0,0,0,.26,1A1.18,1.18,0,0,0,277.77,156.13Zm4.66,2a3.16,3.16,0,0,1-.28,1.3,3.43,3.43,0,0,1-.72,1.06,3.21,3.21,0,0,1-1.06.72,3.35,3.35,0,0,1-1.3.26h-5.16a.27.27,0,0,1-.3-.3V160a.23.23,0,0,1,.11-.2.24.24,0,0,1,.19-.11h5.27a2,2,0,0,0,1.21-.39,1.48,1.48,0,0,0,.52-1.28v-.3a1.56,1.56,0,0,1-.41.15,3.46,3.46,0,0,1-.46,0h-2.12a2.83,2.83,0,0,1-1.26-.28,2.93,2.93,0,0,1-1-.76,2.86,2.86,0,0,1-.56-1.08,2.91,2.91,0,0,1,0-1.28l.35-1.82a2.83,2.83,0,0,1,.35-.93,2.66,2.66,0,0,1,.63-.74,2.78,2.78,0,0,1,.82-.47,2.81,2.81,0,0,1,1-.18h1.12a2.85,2.85,0,0,1,1.17.24,3,3,0,0,1,1.63,1.63,2.85,2.85,0,0,1,.24,1.17Zm-6-12.16h1.85v1.85H276.4Zm3,0h1.84v1.85h-1.84Z"/><path class="cls-7" d="M314.71,156.82a24.77,24.77,0,0,1,24.77-24.77H440.1a24.77,24.77,0,0,1,24.77,24.77h0a24.76,24.76,0,0,1-24.77,24.76H339.48a24.76,24.76,0,0,1-24.77-24.76Z"/><path class="cls-8" d="M339.48,132.05H440.1a24.77,24.77,0,0,1,24.77,24.77h0a24.77,24.77,0,0,1-24.77,24.76H339.48a24.77,24.77,0,0,1-24.77-24.76h0A24.77,24.77,0,0,1,339.48,132.05Z"/><path class="cls-4" d="M339.48,159.91l-4.64-4.64h9.28Z"/><path class="cls-4" d="M364.12,165.25a4.25,4.25,0,0,1-1.69-.34,4.65,4.65,0,0,1-1.36-.94,4.42,4.42,0,0,1-.93-1.38,4.1,4.1,0,0,1-.35-1.67v-5.18h1.5v4.92a2.74,2.74,0,0,0,.21,1.08,2.85,2.85,0,0,0,.61.91,3,3,0,0,0,.89.61,2.88,2.88,0,0,0,1.1.22h3.77a2.06,2.06,0,0,0,.91-.2,2.19,2.19,0,0,0,.76-.5,1.94,1.94,0,0,0,.5-.73,2.26,2.26,0,0,0,.2-.94V147.18h1.49v14.19a3.72,3.72,0,0,1-.3,1.5,3.66,3.66,0,0,1-.83,1.23,3.44,3.44,0,0,1-1.23.85,3.72,3.72,0,0,1-1.5.3Zm21.19-5.57h.45a.28.28,0,0,1,.22.11.29.29,0,0,1,.09.22v1.15a.27.27,0,0,1-.31.3h-.41a2.86,2.86,0,0,1-1.5-.41,3.3,3.3,0,0,1-1.08-1.22,3.19,3.19,0,0,1-1.17,1.22,3.09,3.09,0,0,1-1.54.41h-3a2.58,2.58,0,0,1-.91-.17,2.7,2.7,0,0,1-.73-.52,2.84,2.84,0,0,1-.5-.74,2.34,2.34,0,0,1-.18-.91v-2.3h1.28v1.91a1.1,1.1,0,0,0,.22.67.76.76,0,0,0,.65.28h3.16a1.75,1.75,0,0,0,.83-.19,1.88,1.88,0,0,0,.6-.52,1.73,1.73,0,0,0,.35-.72,1.75,1.75,0,0,0,0-.82l-1.6-5.83,1.4-.52,2.06,7.37a1.69,1.69,0,0,0,.59.89A1.63,1.63,0,0,0,385.31,159.68Zm5.52,0h3.3v-2.9a1.26,1.26,0,0,0-.41-.95,1.29,1.29,0,0,0-1-.42h-1.41a1.28,1.28,0,0,0-.87.33,1.37,1.37,0,0,0-.47.78l-.33,1.75a1.15,1.15,0,0,0,1.17,1.41Zm-2.71-1.36.46-2.23a2.61,2.61,0,0,1,.35-.94,2.76,2.76,0,0,1,.62-.73,2.86,2.86,0,0,1,.83-.48,2.8,2.8,0,0,1,1-.17h1.21a3,3,0,0,1,2.14.88,3,3,0,0,1,.65,1,2.85,2.85,0,0,1,.24,1.17v2.73a1.85,1.85,0,0,1-2,2H391a2.57,2.57,0,0,1-1.28-.33,2.45,2.45,0,0,1-.93-1.1,2.47,2.47,0,0,1-1,1.1,3,3,0,0,1-1.37.33h-.63a.27.27,0,0,1-.3-.3V160a.27.27,0,0,1,.09-.2.26.26,0,0,1,.21-.11h.7a1.59,1.59,0,0,0,1.08-.39A1.57,1.57,0,0,0,388.12,158.32Zm20.5,3.21a4.94,4.94,0,0,1-1.93,3.83,4.16,4.16,0,0,1-1.32.69l-2.47.85-.48-1.5,2.6-.86a3,3,0,0,0,1.49-1.11,2.78,2.78,0,0,0,.59-1.75v-.39a1.25,1.25,0,0,1-.41.15l-.46,0H404a2.83,2.83,0,0,1-1.26-.28,2.93,2.93,0,0,1-1.51-1.84,3.07,3.07,0,0,1,0-1.28l.37-2a2.5,2.5,0,0,1,.35-.91,2.66,2.66,0,0,1,.63-.74,2.73,2.73,0,0,1,1.82-.65h1.21a2.85,2.85,0,0,1,1.17.24,3,3,0,0,1,1,.65,2.81,2.81,0,0,1,.65.95,2.85,2.85,0,0,1,.24,1.17Zm-1.5-1.85V156.8a1.26,1.26,0,0,0-.41-1,1.24,1.24,0,0,0-.95-.41h-1.43a1.31,1.31,0,0,0-.87.3,1.35,1.35,0,0,0-.48.8l-.32,1.73a1.1,1.1,0,0,0,.26,1,1.16,1.16,0,0,0,.93.41Zm17.93,0h.46a.28.28,0,0,1,.22.11.33.33,0,0,1,.08.22v1.15a.27.27,0,0,1-.3.3h-.41a2.86,2.86,0,0,1-1.5-.41,3.13,3.13,0,0,1-1.08-1.22,3.19,3.19,0,0,1-1.17,1.22,3.09,3.09,0,0,1-1.54.41h-3a2.53,2.53,0,0,1-.91-.17,2.75,2.75,0,0,1-.74-.52,3.11,3.11,0,0,1-.5-.74,2.53,2.53,0,0,1-.17-.91v-2.3h1.28v1.91a1,1,0,0,0,.22.67.76.76,0,0,0,.65.28h3.16a1.71,1.71,0,0,0,.82-.19,1.82,1.82,0,0,0,.61-.52,1.86,1.86,0,0,0,.35-.72,1.89,1.89,0,0,0,0-.82L420,151.6l1.41-.52,2.06,7.37a1.74,1.74,0,0,0,.58.89A1.67,1.67,0,0,0,425.05,159.68Zm3.08,0a1.54,1.54,0,0,0,1.11-.45,1.51,1.51,0,0,0,.45-1.09v-4h1.5v4a3.28,3.28,0,0,1-.26,1.3,3.6,3.6,0,0,1-.72,1.07,3.35,3.35,0,0,1-1.06.69,3.18,3.18,0,0,1-1.28.26h-2.36a.27.27,0,0,1-.3-.3V160a.29.29,0,0,1,.08-.22.28.28,0,0,1,.22-.11Zm1.32-8.1h1.84v-1.84h-1.84Zm6.55,3.21v3.4a1.42,1.42,0,0,0,.46,1.06,1.57,1.57,0,0,0,1.1.43h2.17a.28.28,0,0,1,.22.11.29.29,0,0,1,.08.22v1.15a.27.27,0,0,1-.3.3h-1.91a2.42,2.42,0,0,1-1-.22,1.85,1.85,0,0,1-.81-.65v1a4.4,4.4,0,0,1-.23,1.45,4.6,4.6,0,0,1-.68,1.3,4.25,4.25,0,0,1-1,1,4.81,4.81,0,0,1-1.33.69l-2.47.87-.47-1.5,2.62-.86a2.93,2.93,0,0,0,1.52-1.11,3.06,3.06,0,0,0,.56-1.78v-6.84Zm5.92,4.89a1.54,1.54,0,0,0,1.11-.45,1.57,1.57,0,0,0,.45-1.11v-4H445v4a3.28,3.28,0,0,1-.26,1.3,3.6,3.6,0,0,1-.72,1.07,3.47,3.47,0,0,1-1.06.69,3.18,3.18,0,0,1-1.28.26h-1.93a.27.27,0,0,1-.3-.3V160a.33.33,0,0,1,.08-.22.28.28,0,0,1,.22-.11Zm-1.78,6.22H442v-1.84h-1.85Z"/><path class="cls-9" d="M477.25,156.82A24.77,24.77,0,0,1,502,132.05h60.37a24.77,24.77,0,0,1,24.77,24.77h0a24.76,24.76,0,0,1-24.77,24.76H502a24.76,24.76,0,0,1-24.77-24.76Z"/><path class="cls-4" d="M501.88,154.79v3.4a1.41,1.41,0,0,0,.45,1.06,1.6,1.6,0,0,0,1.11.43h2.16a.28.28,0,0,1,.22.11.29.29,0,0,1,.09.22v1.15c0,.2-.1.3-.31.3h-1.9a2.43,2.43,0,0,1-1-.22,1.82,1.82,0,0,1-.8-.65v1a4.41,4.41,0,0,1-.24,1.45,4.58,4.58,0,0,1-.67,1.3,4.49,4.49,0,0,1-1,1,4.9,4.9,0,0,1-1.32.69l-2.48.87-.47-1.5,2.62-.86a2.89,2.89,0,0,0,1.52-1.11,3.06,3.06,0,0,0,.56-1.78v-6.84Zm5.11-2.48h1.84v-1.84H507Zm3,0h1.84v-1.84H510Zm3.44,8.85a.27.27,0,0,1-.3.3h-1.34a2.71,2.71,0,0,1-.74-.11,2.83,2.83,0,0,1-.69-.3,2.35,2.35,0,0,1-.57-.46,1.51,1.51,0,0,1-.32-.56,2.94,2.94,0,0,1-1.06,1,2.82,2.82,0,0,1-1.43.39H505.6a.27.27,0,0,1-.3-.3V160a.29.29,0,0,1,.09-.22.26.26,0,0,1,.21-.11H507a1.59,1.59,0,0,0,1.08-.39,1.71,1.71,0,0,0,.61-1l.67-3.43,1.48.24-.57,2.86a1.58,1.58,0,0,0,0,.65,1.27,1.27,0,0,0,.31.54,1.81,1.81,0,0,0,.52.37,1.57,1.57,0,0,0,.65.13h1.32a.28.28,0,0,1,.22.11.29.29,0,0,1,.08.22Zm6.89-1.48c.2,0,.3.1.3.31v1.17a.27.27,0,0,1-.3.3h-1a3.14,3.14,0,0,1-1.45-.35,3.33,3.33,0,0,1-1.12-.91,3.28,3.28,0,0,1-2.58,1.26h-1.07a.27.27,0,0,1-.3-.3V160c0-.21.1-.31.3-.31h1.35a1.59,1.59,0,0,0,1.56-1.56V147.18h1.49v11a1.49,1.49,0,0,0,.48,1,1.54,1.54,0,0,0,1.08.41Zm1.39,6.22h1.84v-1.84h-1.84Zm3,0h1.84v-1.84h-1.84Zm3.44-4.74a.27.27,0,0,1-.3.3h-1.34a2.87,2.87,0,0,1-1.43-.41,2.35,2.35,0,0,1-.57-.46,1.28,1.28,0,0,1-.32-.56,2.94,2.94,0,0,1-1.06,1,2.83,2.83,0,0,1-1.44.39h-1.34a.27.27,0,0,1-.3-.3V160a.33.33,0,0,1,.08-.22.28.28,0,0,1,.22-.11h1.41a1.59,1.59,0,0,0,1.08-.39,1.71,1.71,0,0,0,.61-1l.67-3.43,1.48.24L525,158a1.58,1.58,0,0,0,0,.65,1.27,1.27,0,0,0,.31.54,1.68,1.68,0,0,0,.52.37,1.57,1.57,0,0,0,.65.13h1.32a.28.28,0,0,1,.22.11.33.33,0,0,1,.08.22Zm3.55-5h3.17v-2.78a1.25,1.25,0,0,0-.42-.95,1.36,1.36,0,0,0-1-.39H532.1a1.41,1.41,0,0,0-.89.3,1.3,1.3,0,0,0-.46.81l-.3,1.58a1.14,1.14,0,0,0,.26,1A1.18,1.18,0,0,0,531.64,156.13Zm4.64,2a3.49,3.49,0,0,1-.26,1.32,3.36,3.36,0,0,1-1.8,1.78,3.35,3.35,0,0,1-1.3.26h-5.14a.27.27,0,0,1-.21-.09.36.36,0,0,1-.09-.24V160a.28.28,0,0,1,.11-.22.26.26,0,0,1,.19-.11h5.27a2,2,0,0,0,1.21-.39,1.48,1.48,0,0,0,.52-1.28v-.3a2.17,2.17,0,0,1-.89.17h-2.1a2.79,2.79,0,0,1-1.25-.28,2.91,2.91,0,0,1-1.52-1.84,2.91,2.91,0,0,1,0-1.28l.32-1.82a2.83,2.83,0,0,1,2.8-2.32h1.15a3,3,0,0,1,2.12.89,3.16,3.16,0,0,1,.65,1,2.85,2.85,0,0,1,.24,1.17ZM531.81,146h1.85v1.85h-1.85Z"/><path class="cls-5" d="M559.16,150.64a2.31,2.31,0,0,0-4.37,0h-3.23v1.54h3.23a2.34,2.34,0,0,0,.84,1.14,2.3,2.3,0,0,0,1.34.43,2.3,2.3,0,0,0,2.19-1.57h14.07v-1.54Zm7.1,4.63a2.27,2.27,0,0,0-1.33.43,2.36,2.36,0,0,0-.85,1.12H551.56v1.54h12.52a2.26,2.26,0,0,0,.84,1.13,2.3,2.3,0,0,0,2.68,0,2.2,2.2,0,0,0,.84-1.13h4.79v-1.54h-4.79a2.34,2.34,0,0,0-.84-1.12A2.3,2.3,0,0,0,566.26,155.27Zm-10.62,6.62a2.29,2.29,0,0,1,2.67,0,2.36,2.36,0,0,1,.85,1.12h14.07v1.55H559.16a2.36,2.36,0,0,1-.84,1.13,2.33,2.33,0,0,1-1.35.43,2.3,2.3,0,0,1-1.34-.43,2.36,2.36,0,0,1-.84-1.13h-3.23V163h3.23A2.36,2.36,0,0,1,555.64,161.89Z"/></g><rect class="cls-2" x="45.36" y="243.5" width="557.28" height="86.69"/><path class="cls-3" d="M603.14,330.69H44.86V243H603.14Zm-557.28-1H602.14V244H45.86Z"/><path class="cls-4" d="M85.61,296.14a12.15,12.15,0,0,0,7.58-2.64l8.83,8.83,2.16-2.17-8.82-8.82A12.23,12.23,0,0,0,98,283.75a12.39,12.39,0,1,0-12.38,12.39Zm0-21.68a9.29,9.29,0,1,1-9.29,9.29A9.32,9.32,0,0,1,85.61,274.46Z"/><path class="cls-4" d="M353.4,286.85H341v12.38H353.4Z"/><path class="cls-4" d="M307,268.27H294.57v31H307Z"/><path class="cls-4" d="M337.92,268.27H325.53v31h12.39Z"/><path class="cls-4" d="M316.25,299.23a6.19,6.19,0,1,0-6.2-6.19A6.19,6.19,0,0,0,316.25,299.23Z"/><path class="cls-4" d="M347.21,314.71a6.19,6.19,0,1,0-6.2-6.19A6.19,6.19,0,0,0,347.21,314.71Z"/><path class="cls-5" d="M574.78,274.46h-31v3.1h31Zm0,10.84h-31v3.1h31Zm-31,10.84h31v3.09h-31Z"/><rect class="cls-2" x="45.36" y="379.73" width="557.28" height="86.69"/><path class="cls-3" d="M603.14,466.92H44.86V379.23H603.14Zm-557.28-1H602.14V380.23H45.86Z"/><path class="cls-4" d="M98,418.43a4.67,4.67,0,0,0-3.22,1.3l-10.71-5.39a2.62,2.62,0,0,0,0-.56,4.67,4.67,0,0,0-3.71-4.55A4.64,4.64,0,0,0,75,415.08a4.65,4.65,0,0,0,4.83,3.33,4.7,4.7,0,0,0,2.85-1.28l10.83,5.38a3.73,3.73,0,0,0-.12.56,2.62,2.62,0,0,0,0,.56L82.51,429a4.64,4.64,0,1,0-5.13,7.63,4.64,4.64,0,0,0,6.68-4.29,2.62,2.62,0,0,0,0-.56l10.84-5.38a4.63,4.63,0,0,0,2,1.12,4.55,4.55,0,0,0,2.26.06,4.63,4.63,0,0,0,2-1,4.63,4.63,0,0,0,.77-6.2,4.6,4.6,0,0,0-1.71-1.48A4.67,4.67,0,0,0,98,418.43Z"/><path class="cls-4" d="M166.1,418.43h-1.54L161,410.24l-.79-.16a49.57,49.57,0,0,0-19.19,0l-.79.16-3.55,8.19h-1.55v3.09h1.55V437h3.1v-4.33a48,48,0,0,0,21.67,0V437h3.1V421.52h1.54Zm-4.64,6.81-3.76,2.48h-7.08v3.09a46.48,46.48,0,0,1-10.83-1.28v-4.29l3.76,2.48h7.07v-3.1h-6.19l-4.64-3.1v-2.41l2.65-6.19a45.77,45.77,0,0,1,8.18-.68v12.38h6.2l4.64-3.1Z"/><path class="cls-4" d="M209.45,432.36a12.2,12.2,0,0,0,7.58-2.63l8.83,8.82,2.16-2.17-8.82-8.82a12.22,12.22,0,0,0,2.63-7.58,12.39,12.39,0,1,0-12.38,12.38Zm0-21.67a9.29,9.29,0,1,1-9.29,9.29A9.32,9.32,0,0,1,209.45,410.69Z"/><path class="cls-5" d="M574.78,410.69h-31v3.09h31Zm0,10.83h-31v3.1h31Zm-31,10.84h31v3.1h-31Z"/><rect class="cls-2" x="45.36" y="515.95" width="557.28" height="86.69"/><path class="cls-3" d="M603.14,603.14H44.86V515.45H603.14Zm-557.28-1H602.14V516.45H45.86Z"/><path class="cls-5" d="M571.68,559.3l-13.93,13.93-2.17-2.17,10.22-10.22H545.36v-3.09H565.8l-10.22-10.22,2.17-2.17Z"/></g></svg>