<svg xmlns="http://www.w3.org/2000/svg" viewBox="0 0 648 648"><defs><style>.cls-1{fill:#fff;}.cls-2{fill:#f2f4f2;}.cls-3,.cls-5{fill:#767876;}.cls-4{fill:#aaaba9;}.cls-5{fill-rule:evenodd;}.cls-6{fill:#e2e4e2;}</style></defs><g id="Graphic"><rect class="cls-1" x="45.36" y="168.43" width="557.28" height="86.69"/><path class="cls-2" d="M603.41,255.89H44.59V167.65H603.41ZM46.13,254.34H601.87V169.2H46.13Z"/><path class="cls-3" d="M85.61,221.06a12.2,12.2,0,0,0,7.58-2.63l8.83,8.82,2.16-2.17-8.82-8.82A12.23,12.23,0,0,0,98,208.67a12.39,12.39,0,1,0-12.38,12.39Zm0-21.67a9.29,9.29,0,1,1-9.29,9.28A9.31,9.31,0,0,1,85.61,199.39Z"/><path class="cls-4" d="M419.63,213.19h.69a.29.29,0,0,1,.22.13.31.31,0,0,1,.13.25v2.5a.42.42,0,0,1-.1.24.33.33,0,0,1-.25.1h-.5a3.79,3.79,0,0,1-1.75-.39,5.08,5.08,0,0,1-1.27-.89,4.89,4.89,0,0,1-1.41.94,4.31,4.31,0,0,1-1.73.34h-3.25a3.36,3.36,0,0,1-1.26-.24,3.65,3.65,0,0,1-1-.72,3.14,3.14,0,0,1-1-2.33V209.9h2.33v2.72a.61.61,0,0,0,.17.43.65.65,0,0,0,.4.14h3.64a1.82,1.82,0,0,0,.7-.14,1.94,1.94,0,0,0,.57-.43,1.55,1.55,0,0,0,.29-.59,1.16,1.16,0,0,0,0-.69l-2-7.16,2.58-.94,2.52,9a1.38,1.38,0,0,0,.47.69A1.27,1.27,0,0,0,419.63,213.19Zm4.9,0a1.14,1.14,0,0,0,.84-.34,1.24,1.24,0,0,0,.34-.87v-5.13h2.73V212a4.38,4.38,0,0,1-.35,1.73,4.69,4.69,0,0,1-1,1.42,4.51,4.51,0,0,1-1.42.94,4.16,4.16,0,0,1-1.7.34h-3.69a.32.32,0,0,1-.25-.1.36.36,0,0,1-.1-.24v-2.5a.32.32,0,0,1,.1-.25.31.31,0,0,1,.25-.13Zm1.06-8.59h2.85v-2.85h-2.85Zm8.71,3v4.63a.9.9,0,0,0,.37.74,1.37,1.37,0,0,0,.82.27h1.81a.31.31,0,0,1,.34.35v2.53a.3.3,0,0,1-.34.34h-1.37a3.28,3.28,0,0,1-.89-.14,1.32,1.32,0,0,1-.74-.62v.44a5.11,5.11,0,0,1-.32,1.79,5.61,5.61,0,0,1-.85,1.58,5.79,5.79,0,0,1-1.28,1.24,6.06,6.06,0,0,1-1.64.84l-3.42,1.17-.84-2.56,3.57-1.16a2.75,2.75,0,0,0,1.48-1.11,3,3,0,0,0,.57-1.76v-8.57Zm3.64,11.84h2.85v2.84h-2.85Zm3.57-6.2a1.14,1.14,0,0,0,.84-.34,1.24,1.24,0,0,0,.34-.87v-5.13h2.73V212a4.38,4.38,0,0,1-.35,1.73,4.69,4.69,0,0,1-1,1.42,4.51,4.51,0,0,1-1.42.94,4.16,4.16,0,0,1-1.7.34H437.3a.3.3,0,0,1-.25-.1.36.36,0,0,1-.1-.24v-2.5a.32.32,0,0,1,.1-.25.3.3,0,0,1,.25-.13Zm19.4-6.76a4.07,4.07,0,0,1,1.59.32,4.56,4.56,0,0,1,2.18,2.18,3.85,3.85,0,0,1,.32,1.56v2.93a2.69,2.69,0,0,1-.25,1.16,3,3,0,0,1-.64,1,3.15,3.15,0,0,1-1,.64,3,3,0,0,1-1.16.22H459.1a3.76,3.76,0,0,1-1.68-.37,4.17,4.17,0,0,1-1.29-1,4.31,4.31,0,0,1-.77-1.49,3.88,3.88,0,0,1-.05-1.73l.42-2.28h-1.21a1.11,1.11,0,0,0-.84.35,1.15,1.15,0,0,0-.35.84v12.06h-2.72V210.87a4.21,4.21,0,0,1,.34-1.71,4.42,4.42,0,0,1,4.09-2.73Zm1.36,6.76v-2.72a.9.9,0,0,0-.29-.67.92.92,0,0,0-.67-.27h-2.78l-.52,2.72a.75.75,0,0,0,.75.94Zm10.89,2.88a.31.31,0,0,1-.35.34h-.72a4.33,4.33,0,0,1-1.68-.32,4.42,4.42,0,0,1-2.33-2.33,4.14,4.14,0,0,1-.35-1.68V199.45h2.73V212a1.14,1.14,0,0,0,.34.84,1.18,1.18,0,0,0,.85.34h1.16a.33.33,0,0,1,.25.13.36.36,0,0,1,.1.25Zm3.85-2.88a1.14,1.14,0,0,0,.84-.34,1.25,1.25,0,0,0,.35-.87v-5.13h2.73V212a4.38,4.38,0,0,1-.35,1.73,4.54,4.54,0,0,1-1,1.42,4.35,4.35,0,0,1-1.41.94,4.25,4.25,0,0,1-1.71.34H472.8a.33.33,0,0,1-.25-.1.42.42,0,0,1-.1-.24v-2.5a.36.36,0,0,1,.1-.25.33.33,0,0,1,.25-.13Zm1.07-8.59h2.85v-2.85h-2.85Zm21.44,7.83a2.72,2.72,0,0,1,1.56,1,2.67,2.67,0,0,1,.61,1.76V216a4.92,4.92,0,0,1-.39,1.95,5.17,5.17,0,0,1-1.09,1.64,4.93,4.93,0,0,1-1.61,1.09,5,5,0,0,1-2,.4h-5a5.25,5.25,0,0,1-2.15-.45,5.55,5.55,0,0,1-3-3,5.46,5.46,0,0,1-.42-2.15v-5.67h2.72v5.27a2.56,2.56,0,0,0,.22,1.07,2.77,2.77,0,0,0,.6.86,2.49,2.49,0,0,0,.86.57,2.57,2.57,0,0,0,1.07.23h5.32a2,2,0,0,0,2.06-2.06v-.64L492,213.54v-2.9a4.92,4.92,0,0,1,1.26-3.39,4.63,4.63,0,0,1,1.41-1.11,5,5,0,0,1,1.78-.57l3.47-.45.45,3-4,.52a2,2,0,0,0-1.28.67,1.94,1.94,0,0,0-.5,1.34v.72Zm8.64,4a3.76,3.76,0,0,1-1.68-.37,4,4,0,0,1-1.29-1,4.26,4.26,0,0,1-.77-1.46,3.88,3.88,0,0,1-.05-1.73l.42-2.26a3.88,3.88,0,0,1,.47-1.24,4.5,4.5,0,0,1,.87-1,3.37,3.37,0,0,1,1.12-.64,3.53,3.53,0,0,1,1.33-.25H510a4.07,4.07,0,0,1,1.59.32,4.11,4.11,0,0,1,2.47,3.76v2.7h1.74a.31.31,0,0,1,.34.35v2.53a.3.3,0,0,1-.34.34H514v.13a1.38,1.38,0,0,1,0,.25,5.18,5.18,0,0,1-1.26,2.94,6.22,6.22,0,0,1-2.8,1.91l-3.39,1.16-.84-2.6,3.49-1.16a3.26,3.26,0,0,0,1.51-1,2.58,2.58,0,0,0,.59-1.71v-.17a4.38,4.38,0,0,1-.67.22,4.15,4.15,0,0,1-.79.07Zm-.34-3.22h3.49v-2.72a.92.92,0,0,0-.27-.67.89.89,0,0,0-.67-.3h-2a.84.84,0,0,0-.59.23,1,1,0,0,0-.33.57l-.39,2a.75.75,0,0,0,.15.64A.8.8,0,0,0,507.82,213.19Zm7.94,3.22a.31.31,0,0,1-.35-.34v-2.5a.36.36,0,0,1,.1-.25.31.31,0,0,1,.22-.13h4.46a6.61,6.61,0,0,0,2.06-.32,4.23,4.23,0,0,0,1.73-1.11l1.44-1.54.22-.22a.43.43,0,0,1,.12-.1l-5.2-1.56a.52.52,0,0,0-.44,0,.62.62,0,0,0-.27.32l-1,2.48-2.37-.65.64-2.27a3.34,3.34,0,0,1,1.78-2.16,3.39,3.39,0,0,1,1.32-.37,3.3,3.3,0,0,1,1.33.12l9.86,2.95-.82,2.55-1.16-.35a1.82,1.82,0,0,0-.72,0,1.49,1.49,0,0,0-.52.19V212a1.18,1.18,0,0,0,1.19,1.18h3.29a.31.31,0,0,1,.35.35v2.53c0,.23-.11.34-.35.34h-2.84a3.9,3.9,0,0,1-2.53-.84,4.47,4.47,0,0,1-1.41-2.2l-1,1a6.53,6.53,0,0,1-2.48,1.56,8.7,8.7,0,0,1-2.9.49Zm6.81,3h2.85v2.85h-2.85Zm11.06-14h2.85v-2.85h-2.85Zm4.14,0h2.84v-2.85h-2.84Zm4.58,10.7a.36.36,0,0,1-.1.24.33.33,0,0,1-.25.1h-1.88a3.38,3.38,0,0,1-1.59-.42,2.37,2.37,0,0,1-1.06-1,2.18,2.18,0,0,1-.5.57,5.46,5.46,0,0,1-.71.47,4,4,0,0,1-.82.32,3.44,3.44,0,0,1-.84.1h-1.89a.3.3,0,0,1-.34-.34v-2.5a.32.32,0,0,1,.1-.25.29.29,0,0,1,.24-.13h2.13a1.31,1.31,0,0,0,1.34-1.09l.92-4.45,2.67.47-.74,3.74a1,1,0,0,0,.22.94,1.14,1.14,0,0,0,.89.39H542a.33.33,0,0,1,.25.13.32.32,0,0,1,.1.25Zm6.26.34a4,4,0,0,1-1.65-.34,3.62,3.62,0,0,1-1.37-1.12,3.57,3.57,0,0,1-1.38,1.12,4,4,0,0,1-1.66.34H542a.3.3,0,0,1-.22-.1.36.36,0,0,1-.13-.24v-2.5a.31.31,0,0,1,.13-.25.31.31,0,0,1,.22-.13h1a1.21,1.21,0,0,0,.84-.37,1.15,1.15,0,0,0,.35-.84v-4.43h2.72V212a1.13,1.13,0,0,0,.37.82,1.14,1.14,0,0,0,.79.34h.8a1.3,1.3,0,0,0,.86-.29,1.4,1.4,0,0,0,.47-.82l.87-4.48,2.68.49-.75,3.77a1,1,0,0,0,.23.94,1.17,1.17,0,0,0,.89.39h.69a1.16,1.16,0,0,0,.84-.32A1.15,1.15,0,0,0,556,212V206.9h2.72V212a1.18,1.18,0,0,0,1.19,1.18h1a.31.31,0,0,1,.25.13.28.28,0,0,1,.1.22V216a.39.39,0,0,1-.1.27.28.28,0,0,1-.25.1h-.54a4,4,0,0,1-1.66-.34,3.46,3.46,0,0,1-1.34-1.12,3.57,3.57,0,0,1-1.38,1.12,4.18,4.18,0,0,1-1.69.34,3.89,3.89,0,0,1-1.56-.32,2.87,2.87,0,0,1-1.26-1.14,3.42,3.42,0,0,1-1.31,1.14A3.84,3.84,0,0,1,548.61,216.41Zm12-2.84a.35.35,0,0,1,.12-.25.31.31,0,0,1,.23-.13h4.43a6.66,6.66,0,0,0,2.06-.32,4.23,4.23,0,0,0,1.73-1.11l1.44-1.54.22-.22a.43.43,0,0,1,.12-.1l-5.2-1.56a.52.52,0,0,0-.44,0,.68.68,0,0,0-.28.32l-.94,2.48-2.38-.65.65-2.27A3.54,3.54,0,0,1,563,207a3.89,3.89,0,0,1,1.09-.84,3.39,3.39,0,0,1,1.31-.37,3.33,3.33,0,0,1,1.34.12l9.86,2.95-.82,2.55-1.16-.35a1.72,1.72,0,0,0-1,0,2.09,2.09,0,0,0-.72.49l-2.84,2.83a6.53,6.53,0,0,1-2.48,1.56,8.7,8.7,0,0,1-2.9.49h-3.81a.31.31,0,0,1-.35-.34Zm7.18,8.69h2.85v-2.85h-2.85Z"/><rect class="cls-1" x="45.36" y="286.07" width="557.28" height="86.69"/><path class="cls-2" d="M603.41,373.54H44.59V285.3H603.41ZM46.13,372H601.87V286.85H46.13Z"/><path class="cls-3" d="M85.61,338.71a12.15,12.15,0,0,0,7.58-2.64L102,344.9l2.16-2.17-8.82-8.82A12.23,12.23,0,0,0,98,326.32a12.39,12.39,0,1,0-12.38,12.39Zm0-21.68a9.29,9.29,0,1,1-9.29,9.29A9.32,9.32,0,0,1,85.61,317Z"/><path class="cls-4" d="M357.71,330.84h.69a.26.26,0,0,1,.22.13.29.29,0,0,1,.13.24v2.51a.42.42,0,0,1-.1.24.33.33,0,0,1-.25.1h-.5a3.79,3.79,0,0,1-1.75-.39,5.1,5.1,0,0,1-1.27-.9,4.92,4.92,0,0,1-1.41,1,4.31,4.31,0,0,1-1.73.34h-3.25a3.18,3.18,0,0,1-1.26-.25,3.24,3.24,0,0,1-2-3v-3.22h2.33v2.72a.57.57,0,0,0,.17.42.6.6,0,0,0,.4.15h3.64a1.66,1.66,0,0,0,.7-.15,1.76,1.76,0,0,0,.57-.42,1.55,1.55,0,0,0,.29-.59,1.19,1.19,0,0,0,0-.7l-2-7.15,2.58-.94,2.52,9a1.38,1.38,0,0,0,.47.69A1.27,1.27,0,0,0,357.71,330.84Zm4.9,0a1.14,1.14,0,0,0,.84-.34,1.24,1.24,0,0,0,.34-.87V324.5h2.73v5.13a4.38,4.38,0,0,1-.35,1.73,4.48,4.48,0,0,1-2.38,2.36,4.16,4.16,0,0,1-1.7.34H358.4a.32.32,0,0,1-.25-.1.36.36,0,0,1-.1-.24v-2.51a.3.3,0,0,1,.1-.24.29.29,0,0,1,.25-.13Zm1.06-8.59h2.85V319.4h-2.85Zm8.71,2.95v4.63a.91.91,0,0,0,.37.74,1.37,1.37,0,0,0,.82.27h1.81a.31.31,0,0,1,.34.35v2.53a.3.3,0,0,1-.34.34H374a3,3,0,0,1-.89-.15,1.28,1.28,0,0,1-.74-.62v.45a5,5,0,0,1-.32,1.78,5.54,5.54,0,0,1-.85,1.59,5.79,5.79,0,0,1-1.28,1.24,6.06,6.06,0,0,1-1.64.84l-3.42,1.16L364,337.8l3.57-1.16a2.72,2.72,0,0,0,1.48-1.12,2.92,2.92,0,0,0,.57-1.76V325.2ZM376,337h2.85v2.85H376Zm3.57-6.19a1.14,1.14,0,0,0,.84-.34,1.24,1.24,0,0,0,.34-.87V324.5h2.73v5.13a4.38,4.38,0,0,1-.35,1.73,4.48,4.48,0,0,1-2.38,2.36,4.16,4.16,0,0,1-1.7.34h-3.69a.3.3,0,0,1-.25-.1.36.36,0,0,1-.1-.24v-2.51a.3.3,0,0,1,.1-.24.28.28,0,0,1,.25-.13Zm19.4-6.76a4.07,4.07,0,0,1,1.59.32,4,4,0,0,1,1.28.89,4.16,4.16,0,0,1,.9,1.29,3.85,3.85,0,0,1,.32,1.56v2.93a2.69,2.69,0,0,1-.25,1.16,3.09,3.09,0,0,1-.64,1,3.34,3.34,0,0,1-1,.64,3,3,0,0,1-1.16.22h-2.88a3.76,3.76,0,0,1-1.68-.37,4.05,4.05,0,0,1-1.29-1,4.18,4.18,0,0,1-.77-1.48,3.88,3.88,0,0,1-.05-1.73l.42-2.28H392.6a1.14,1.14,0,0,0-.84.34,1.17,1.17,0,0,0-.35.85v12.06h-2.72V328.51a4.25,4.25,0,0,1,.34-1.71,4.61,4.61,0,0,1,1-1.41,4.52,4.52,0,0,1,1.41-1,4.38,4.38,0,0,1,1.73-.35Zm1.36,6.76v-2.72a.88.88,0,0,0-.29-.67.92.92,0,0,0-.67-.27h-2.78l-.52,2.72a.75.75,0,0,0,.75.94Zm10.89,2.88a.31.31,0,0,1-.35.34h-.72a4.33,4.33,0,0,1-1.68-.32,4.42,4.42,0,0,1-2.33-2.33,4.18,4.18,0,0,1-.35-1.68V317.1h2.73v12.55a1.16,1.16,0,0,0,1.19,1.19h1.16a.3.3,0,0,1,.25.13.33.33,0,0,1,.1.24Zm3.85-2.88a1.14,1.14,0,0,0,.84-.34,1.25,1.25,0,0,0,.35-.87V324.5H419v5.13a4.49,4.49,0,0,1-2.73,4.09,4.25,4.25,0,0,1-1.71.34h-3.69a.33.33,0,0,1-.25-.1.42.42,0,0,1-.1-.24v-2.51a.33.33,0,0,1,.1-.24.3.3,0,0,1,.25-.13Zm1.07-8.59H419V319.4h-2.85Zm21.44,7.82a2.73,2.73,0,0,1,1.56,1,2.67,2.67,0,0,1,.61,1.76v.87a4.92,4.92,0,0,1-.39,1.95,5.28,5.28,0,0,1-1.09,1.64,4.93,4.93,0,0,1-1.61,1.09,5,5,0,0,1-2,.39h-5a5.63,5.63,0,0,1-3.93-1.63,5.53,5.53,0,0,1-1.19-1.76,5.46,5.46,0,0,1-.42-2.15v-5.68h2.72v5.28a2.52,2.52,0,0,0,.22,1.06,2.94,2.94,0,0,0,.6.87,2.49,2.49,0,0,0,.86.57,2.56,2.56,0,0,0,1.07.22H435a2,2,0,0,0,1.47-.59,2,2,0,0,0,.59-1.46v-.65l-6.93-1.63v-2.9a5.2,5.2,0,0,1,.32-1.86,5.09,5.09,0,0,1,.94-1.53,4.51,4.51,0,0,1,1.41-1.12,5.38,5.38,0,0,1,1.78-.57l3.47-.44.45,3-4,.52a2,2,0,0,0-1.28.67,1.92,1.92,0,0,0-.5,1.34V329Zm8.64,4a3.76,3.76,0,0,1-1.68-.37,4,4,0,0,1-1.29-1,4.35,4.35,0,0,1-.77-1.46,3.88,3.88,0,0,1-.05-1.73l.42-2.26a3.88,3.88,0,0,1,.47-1.24,4.5,4.5,0,0,1,.87-1,3.58,3.58,0,0,1,1.12-.65,3.73,3.73,0,0,1,1.33-.24h1.39a3.9,3.9,0,0,1,1.59.32,4.11,4.11,0,0,1,2.47,3.76v2.7h1.74a.31.31,0,0,1,.34.35v2.53a.3.3,0,0,1-.34.34h-1.76v.13a1.29,1.29,0,0,1,0,.24,5.21,5.21,0,0,1-1.26,2.95,6.22,6.22,0,0,1-2.8,1.91l-3.39,1.16-.84-2.6,3.49-1.16a3.26,3.26,0,0,0,1.51-1,2.58,2.58,0,0,0,.59-1.71v-.18a3.46,3.46,0,0,1-.67.23,4.15,4.15,0,0,1-.79.07Zm-.34-3.22h3.49v-2.72a.9.9,0,0,0-.27-.67.89.89,0,0,0-.67-.3h-2a.88.88,0,0,0-.59.22,1,1,0,0,0-.33.57l-.39,2a.75.75,0,0,0,.15.64A.8.8,0,0,0,445.9,330.84Zm7.94,3.22a.31.31,0,0,1-.35-.34v-2.51a.36.36,0,0,1,.1-.24.28.28,0,0,1,.22-.13h4.46a6.61,6.61,0,0,0,2.06-.32,4.23,4.23,0,0,0,1.73-1.11l1.44-1.54.22-.22a.43.43,0,0,1,.12-.1l-5.2-1.56a.52.52,0,0,0-.44.05.58.58,0,0,0-.27.32l-.95,2.48-2.37-.65.64-2.28a3.35,3.35,0,0,1,1.78-2.15,3.23,3.23,0,0,1,1.32-.37,3.3,3.3,0,0,1,1.33.12l9.86,2.95-.82,2.55-1.16-.35a2.06,2.06,0,0,0-.72-.05,1.75,1.75,0,0,0-.52.2v.84a1.19,1.19,0,0,0,.35.85,1.14,1.14,0,0,0,.84.34h3.29a.31.31,0,0,1,.35.35v2.53c0,.23-.11.34-.35.34H468a3.9,3.9,0,0,1-2.53-.84A4.47,4.47,0,0,1,464,331l-1,1a6.53,6.53,0,0,1-2.48,1.56,8.7,8.7,0,0,1-2.9.49Zm6.81,3h2.85v2.85h-2.85Zm11.06-14h2.85v-2.85h-2.85Zm4.14,0h2.84v-2.85h-2.84Zm4.58,10.7a.36.36,0,0,1-.1.24.33.33,0,0,1-.25.1H478.2a3.38,3.38,0,0,1-1.59-.42,2.42,2.42,0,0,1-1.06-1,2.18,2.18,0,0,1-.5.57,5.46,5.46,0,0,1-.71.47,4,4,0,0,1-.82.32,3.44,3.44,0,0,1-.84.1h-1.89a.3.3,0,0,1-.34-.34v-2.51a.3.3,0,0,1,.1-.24.27.27,0,0,1,.24-.13h2.13a1.35,1.35,0,0,0,.87-.3,1.29,1.29,0,0,0,.47-.79l.92-4.46,2.67.47-.74,3.74a1.06,1.06,0,0,0,.22.95,1.14,1.14,0,0,0,.89.39h1.86a.3.3,0,0,1,.25.13.3.3,0,0,1,.1.24Zm6.26.34a4,4,0,0,1-1.65-.34,3.71,3.71,0,0,1-1.37-1.12,3.66,3.66,0,0,1-1.38,1.12,4,4,0,0,1-1.66.34h-.55a.3.3,0,0,1-.22-.1.36.36,0,0,1-.13-.24v-2.51a.29.29,0,0,1,.13-.24.28.28,0,0,1,.22-.13h1a1.21,1.21,0,0,0,.84-.37,1.15,1.15,0,0,0,.35-.84V325.2H485v4.48a1.13,1.13,0,0,0,.37.82,1.14,1.14,0,0,0,.79.34h.8a1.31,1.31,0,0,0,.86-.3,1.34,1.34,0,0,0,.47-.81l.87-4.49,2.68.5-.75,3.76a1.06,1.06,0,0,0,.23.95,1.17,1.17,0,0,0,.89.39h.69a1.16,1.16,0,0,0,.84-.32,1.15,1.15,0,0,0,.35-.84v-5.13h2.72v5.1a1.19,1.19,0,0,0,.35.85,1.14,1.14,0,0,0,.84.34h1a.29.29,0,0,1,.25.13.28.28,0,0,1,.1.22v2.5a.39.39,0,0,1-.1.27.28.28,0,0,1-.25.1h-.54a4,4,0,0,1-1.66-.34,3.55,3.55,0,0,1-1.34-1.12,3.66,3.66,0,0,1-1.38,1.12,4.18,4.18,0,0,1-1.69.34,3.89,3.89,0,0,1-1.56-.32,2.87,2.87,0,0,1-1.26-1.14,3.42,3.42,0,0,1-1.31,1.14A3.84,3.84,0,0,1,486.69,334.06Zm12-2.85a.35.35,0,0,1,.12-.24.28.28,0,0,1,.23-.13h4.43a6.66,6.66,0,0,0,2.06-.32,4.23,4.23,0,0,0,1.73-1.11l1.44-1.54.22-.22a.43.43,0,0,1,.12-.1L503.8,326a.52.52,0,0,0-.44.05.64.64,0,0,0-.28.32l-.94,2.48-2.38-.65.65-2.28a3.49,3.49,0,0,1,.69-1.31,3.89,3.89,0,0,1,1.09-.84,3.22,3.22,0,0,1,1.31-.37,3.33,3.33,0,0,1,1.34.12l9.86,2.95-.82,2.55-1.16-.35a1.72,1.72,0,0,0-1,0,2.09,2.09,0,0,0-.72.49L508.19,332a6.53,6.53,0,0,1-2.48,1.56,8.7,8.7,0,0,1-2.9.49H499a.31.31,0,0,1-.35-.34Zm7.18,8.7h2.85v-2.85h-2.85Z"/><path class="cls-5" d="M571.68,329.42l-13.93,13.93-2.17-2.17L565.8,331H545.36v-3.1H565.8l-10.22-10.22,2.17-2.16Z"/><rect class="cls-1" x="45.36" y="392.89" width="557.28" height="86.69"/><path class="cls-2" d="M603.41,480.35H44.59V392.11H603.41ZM46.13,478.8H601.87V393.66H46.13Z"/><path class="cls-3" d="M81,440.87l-7.74-7.74H88.7Z"/><path class="cls-4" d="M126.26,437.65H127a.29.29,0,0,1,.22.13.31.31,0,0,1,.13.25v2.5a.42.42,0,0,1-.1.24.33.33,0,0,1-.25.1h-.5a3.79,3.79,0,0,1-1.75-.39,5.08,5.08,0,0,1-1.27-.89,4.89,4.89,0,0,1-1.41.94,4.31,4.31,0,0,1-1.73.34H117a3.36,3.36,0,0,1-1.26-.24,3.46,3.46,0,0,1-1-.72,3.14,3.14,0,0,1-1-2.33v-3.22h2.33v2.72a.61.61,0,0,0,.17.43.65.65,0,0,0,.4.14h3.64a1.82,1.82,0,0,0,.7-.14,1.77,1.77,0,0,0,.56-.43,1.38,1.38,0,0,0,.3-.59,1.16,1.16,0,0,0,0-.69l-2-7.16,2.58-.94,2.52,9a1.38,1.38,0,0,0,.47.69A1.27,1.27,0,0,0,126.26,437.65Zm4.89,0a1.15,1.15,0,0,0,.85-.34,1.24,1.24,0,0,0,.34-.87v-5.13h2.73v5.13a4.38,4.38,0,0,1-.35,1.73,4.69,4.69,0,0,1-1,1.42,4.51,4.51,0,0,1-1.42.94,4.18,4.18,0,0,1-1.71.34h-3.69a.31.31,0,0,1-.24-.1.36.36,0,0,1-.1-.24V438a.32.32,0,0,1,.1-.25.31.31,0,0,1,.24-.13Zm1.07-8.59h2.85v-2.85h-2.85Zm8.71,2.95v4.63a.9.9,0,0,0,.37.74,1.37,1.37,0,0,0,.82.27h1.8a.31.31,0,0,1,.35.35v2.53c0,.23-.11.34-.35.34h-1.36a3.22,3.22,0,0,1-.89-.14,1.32,1.32,0,0,1-.74-.62v.44a5.11,5.11,0,0,1-.32,1.79,5.61,5.61,0,0,1-.85,1.58,5.79,5.79,0,0,1-1.28,1.24,6.06,6.06,0,0,1-1.64.84l-3.42,1.17-.84-2.56,3.57-1.16a2.71,2.71,0,0,0,1.48-1.11,3,3,0,0,0,.57-1.76V432Zm3.64,11.84h2.85v2.84h-2.85Zm3.56-6.2a1.16,1.16,0,0,0,.85-.34,1.24,1.24,0,0,0,.34-.87v-5.13h2.73v5.13a4.38,4.38,0,0,1-.35,1.73,4.69,4.69,0,0,1-1,1.42,4.51,4.51,0,0,1-1.42.94,4.18,4.18,0,0,1-1.71.34h-3.69a.31.31,0,0,1-.24-.1.36.36,0,0,1-.1-.24V438a.32.32,0,0,1,.1-.25.31.31,0,0,1,.24-.13Zm24,0a1.18,1.18,0,0,0,.85-.34,1.14,1.14,0,0,0,.34-.84v-5.16h2.73v5.16a4.42,4.42,0,0,1-.35,1.73,4.2,4.2,0,0,1-1,1.39,4.35,4.35,0,0,1-1.41.94,4.25,4.25,0,0,1-1.71.34h-9.41a5,5,0,0,1-5-5v-4.56H160v4.29a2,2,0,0,0,.6,1.46,2,2,0,0,0,1.46.59Zm-6.93,9h2.85v-2.85h-2.85Zm19-6.14a.31.31,0,0,1-.35.34h-.72a4.33,4.33,0,0,1-1.68-.32,4.42,4.42,0,0,1-2.33-2.33,4.14,4.14,0,0,1-.35-1.68V423.91h2.73v12.56a1.14,1.14,0,0,0,.34.84,1.18,1.18,0,0,0,.85.34h1.16a.33.33,0,0,1,.25.13.36.36,0,0,1,.1.25Zm3.41-15.46h2.84v2.85h-2.84Zm-3.77,15.8a.3.3,0,0,1-.34-.34V438a.35.35,0,0,1,.12-.25.29.29,0,0,1,.22-.13h4.44a6.6,6.6,0,0,0,2.05-.32,4.1,4.1,0,0,0,1.73-1.11l1.44-1.54.22-.22c.07-.07.11-.1.13-.1l-5.2-1.56a.54.54,0,0,0-.45.05.67.67,0,0,0-.27.32l-.94,2.48-2.38-.65.64-2.27a3.41,3.41,0,0,1,.7-1.32,3.29,3.29,0,0,1,1.09-.84,3.73,3.73,0,0,1,2.65-.25l9.85,2.95-.81,2.55-1.17-.35a1.82,1.82,0,0,0-.72,0,1.49,1.49,0,0,0-.52.19v.85a1.18,1.18,0,0,0,1.19,1.18h3.3a.31.31,0,0,1,.34.35v2.53a.3.3,0,0,1-.34.34H198a3.92,3.92,0,0,1-2.53-.84,4.61,4.61,0,0,1-1.41-2.2l-1,1a6.45,6.45,0,0,1-2.48,1.56,8.64,8.64,0,0,1-2.89.49Zm17.87-11h2.85V427h-2.85Zm4.14,0h2.85V427h-2.85Zm4.58,10.7a.36.36,0,0,1-.1.24.3.3,0,0,1-.24.1h-1.89a3.34,3.34,0,0,1-1.58-.42,2.34,2.34,0,0,1-1.07-1,2.13,2.13,0,0,1-.49.57,6.39,6.39,0,0,1-.72.47,4,4,0,0,1-.82.32,3.44,3.44,0,0,1-.84.1h-1.88a.31.31,0,0,1-.35-.34V438a.32.32,0,0,1,.1-.25.33.33,0,0,1,.25-.13H203a1.3,1.3,0,0,0,.86-.29,1.35,1.35,0,0,0,.48-.8l.91-4.45,2.68.47-.75,3.74a1,1,0,0,0,.23.94,1.12,1.12,0,0,0,.89.39h1.86a.29.29,0,0,1,.24.13.32.32,0,0,1,.1.25Zm3.87-2.88a1.14,1.14,0,0,0,.84-.34,1.25,1.25,0,0,0,.35-.87v-5.13h2.72v5.13a4.38,4.38,0,0,1-.35,1.73,4.69,4.69,0,0,1-1,1.42,4.58,4.58,0,0,1-1.41.94,4.25,4.25,0,0,1-1.71.34h-3.69a.32.32,0,0,1-.25-.1.36.36,0,0,1-.1-.24V438a.32.32,0,0,1,.1-.25.31.31,0,0,1,.25-.13Zm1.06-8.59h2.85v-2.85H215.4Zm8.3,11.81H221v-17h2.73Z"/><rect class="cls-6" x="249.7" y="405.27" width="1.55" height="61.92"/><path class="cls-3" d="M289.94,445.52a12.23,12.23,0,0,0,7.59-2.63l8.82,8.82,2.17-2.17-8.82-8.82a12.23,12.23,0,0,0,2.63-7.59,12.39,12.39,0,1,0-12.39,12.39Zm0-21.67a9.29,9.29,0,1,1-9.28,9.28A9.31,9.31,0,0,1,289.94,423.85Z"/><path class="cls-4" d="M507.26,436.89a2.72,2.72,0,0,1,1.56,1,2.67,2.67,0,0,1,.61,1.76v.87a4.92,4.92,0,0,1-.39,1.95,5.17,5.17,0,0,1-1.09,1.64,4.93,4.93,0,0,1-1.61,1.09,5,5,0,0,1-2,.4h-5a5.25,5.25,0,0,1-2.15-.45,5.55,5.55,0,0,1-3-2.95,5.46,5.46,0,0,1-.42-2.15v-5.67h2.72v5.27a2.56,2.56,0,0,0,.22,1.07,2.77,2.77,0,0,0,.6.86,2.49,2.49,0,0,0,.86.57,2.57,2.57,0,0,0,1.07.23h5.32a2,2,0,0,0,2.06-2.06v-.64L499.78,438v-2.9a4.92,4.92,0,0,1,1.26-3.39,4.63,4.63,0,0,1,1.41-1.11,5,5,0,0,1,1.78-.57l3.47-.45.45,3-4,.52a2,2,0,0,0-1.28.67,1.94,1.94,0,0,0-.5,1.34v.72Zm8.64,4a3.76,3.76,0,0,1-1.68-.37,4,4,0,0,1-1.29-1,4.26,4.26,0,0,1-.77-1.46,3.88,3.88,0,0,1,0-1.73l.42-2.26a3.88,3.88,0,0,1,.47-1.24,4.5,4.5,0,0,1,.87-1,3.37,3.37,0,0,1,1.12-.64,3.53,3.53,0,0,1,1.33-.25h1.39a3.9,3.9,0,0,1,1.59.32,3.83,3.83,0,0,1,1.28.89,4,4,0,0,1,.87,1.29,3.82,3.82,0,0,1,.32,1.58v2.7h1.74a.31.31,0,0,1,.34.35v2.53a.3.3,0,0,1-.34.34h-1.76V441a1.38,1.38,0,0,1,0,.25,5.18,5.18,0,0,1-1.26,2.94,6.22,6.22,0,0,1-2.8,1.91l-3.39,1.16-.84-2.6,3.49-1.16a3.26,3.26,0,0,0,1.51-1,2.58,2.58,0,0,0,.59-1.71v-.17a4.38,4.38,0,0,1-.67.22,4.15,4.15,0,0,1-.79.07Zm-.34-3.22h3.49v-2.72a.9.9,0,0,0-.27-.67.89.89,0,0,0-.67-.3h-2a.84.84,0,0,0-.59.23,1,1,0,0,0-.33.57l-.39,2a.75.75,0,0,0,.15.64A.8.8,0,0,0,515.56,437.65Zm7.94,3.22a.31.31,0,0,1-.35-.34V438a.36.36,0,0,1,.1-.25.31.31,0,0,1,.22-.13h4.46a6.61,6.61,0,0,0,2.06-.32,4.23,4.23,0,0,0,1.73-1.11l1.44-1.54.22-.22a.43.43,0,0,1,.12-.1l-5.2-1.56a.52.52,0,0,0-.44.05.62.62,0,0,0-.27.32l-1,2.48-2.37-.65.64-2.27a3.34,3.34,0,0,1,1.78-2.16,3.39,3.39,0,0,1,1.32-.37,3.3,3.3,0,0,1,1.33.12l9.86,2.95-.82,2.55-1.16-.35a1.82,1.82,0,0,0-.72,0,1.49,1.49,0,0,0-.52.19v.85a1.18,1.18,0,0,0,1.19,1.18h3.29a.31.31,0,0,1,.35.35v2.53c0,.23-.11.34-.35.34h-2.84a3.9,3.9,0,0,1-2.53-.84,4.47,4.47,0,0,1-1.41-2.2l-1,1a6.53,6.53,0,0,1-2.48,1.56,8.7,8.7,0,0,1-2.9.49Zm6.81,3h2.85v2.85h-2.85Zm11.06-14h2.85V427h-2.85Zm4.14,0h2.84V427h-2.84Zm4.58,10.7a.36.36,0,0,1-.1.24.33.33,0,0,1-.25.1h-1.88a3.38,3.38,0,0,1-1.59-.42,2.37,2.37,0,0,1-1.06-1,2.18,2.18,0,0,1-.5.57,5.46,5.46,0,0,1-.71.47,4,4,0,0,1-.82.32,3.44,3.44,0,0,1-.84.1h-1.89a.3.3,0,0,1-.34-.34V438a.32.32,0,0,1,.1-.25.29.29,0,0,1,.24-.13h2.13a1.31,1.31,0,0,0,1.34-1.09l.92-4.45,2.67.47-.74,3.74a1,1,0,0,0,.22.94,1.14,1.14,0,0,0,.89.39h1.86a.33.33,0,0,1,.25.13.32.32,0,0,1,.1.25Zm6.26.34a4,4,0,0,1-1.65-.34,3.53,3.53,0,0,1-1.37-1.12,3.48,3.48,0,0,1-1.38,1.12,4,4,0,0,1-1.66.34h-.55a.3.3,0,0,1-.22-.1.36.36,0,0,1-.13-.24V438a.31.31,0,0,1,.13-.25.31.31,0,0,1,.22-.13h1a1.21,1.21,0,0,0,.84-.37,1.15,1.15,0,0,0,.35-.84V432h2.72v4.48a1.13,1.13,0,0,0,.37.82,1.14,1.14,0,0,0,.79.34h.8a1.3,1.3,0,0,0,.86-.29,1.4,1.4,0,0,0,.47-.82l.87-4.48,2.68.49-.75,3.77a1,1,0,0,0,.23.94,1.17,1.17,0,0,0,.89.39h.69a1.16,1.16,0,0,0,.84-.32,1.15,1.15,0,0,0,.35-.84v-5.13h2.72v5.11a1.18,1.18,0,0,0,1.19,1.18h1a.31.31,0,0,1,.25.13.28.28,0,0,1,.1.22v2.5a.39.39,0,0,1-.1.27.28.28,0,0,1-.25.1h-.54a4,4,0,0,1-1.66-.34,3.38,3.38,0,0,1-1.34-1.12,3.48,3.48,0,0,1-1.38,1.12,4.18,4.18,0,0,1-1.69.34,3.89,3.89,0,0,1-1.56-.32,2.87,2.87,0,0,1-1.26-1.14,3.42,3.42,0,0,1-1.31,1.14A3.84,3.84,0,0,1,556.35,440.87Zm12-2.84a.35.35,0,0,1,.12-.25.31.31,0,0,1,.23-.13h4.43a6.66,6.66,0,0,0,2.06-.32,4.23,4.23,0,0,0,1.73-1.11l1.44-1.54.22-.22a.43.43,0,0,1,.12-.1l-5.2-1.56a.52.52,0,0,0-.44.05.68.68,0,0,0-.28.32l-.94,2.48-2.38-.65.65-2.27a3.54,3.54,0,0,1,.69-1.32,3.89,3.89,0,0,1,1.09-.84,3.39,3.39,0,0,1,1.31-.37,3.33,3.33,0,0,1,1.34.12l9.86,2.95-.82,2.55-1.16-.35a1.72,1.72,0,0,0-1,0,2.09,2.09,0,0,0-.72.49l-2.84,2.83a6.53,6.53,0,0,1-2.48,1.56,8.7,8.7,0,0,1-2.9.49h-3.81a.31.31,0,0,1-.35-.34Zm7.18,8.69h2.85v-2.85h-2.85Z"/></g></svg>