<svg xmlns="http://www.w3.org/2000/svg" viewBox="0 0 1152 648"><defs><style>.cls-1{fill:none;}.cls-2,.cls-3{fill:#adaeac;}.cls-3{fill-rule:evenodd;}</style></defs><g id="Graphic"><path d="M121.37,102.33h13.26l2.56-14.73a9.33,9.33,0,1,0-18.39,0Z"/><path d="M146.67,111.68l-1.31-.64a39.49,39.49,0,0,0-34.72,0l-1.31.64v11.65h37.34Z"/><rect class="cls-1" x="100" y="72" width="56" height="56"/><path d="M254.59,94.89A57.55,57.55,0,0,0,233,93.44V88.33a7,7,0,1,1,14,0h4.67a11.67,11.67,0,0,0-23.34,0v5.89c-1,.2-2,.41-2.92.67l-1.74.45v28h32.66v-28ZM242.33,114h-4.66V102.33h4.66Z"/><rect class="cls-1" x="212" y="72" width="56" height="56"/><path d="M368.33,93a7,7,0,0,0-4.95,2.06L342.59,84.38a5.71,5.71,0,0,0,.08-.71,7,7,0,1,0-2.05,4.94l20.79,10.68a5.51,5.51,0,0,0-.08.71,5.71,5.71,0,0,0,.08.71L340.6,111.38a6.93,6.93,0,0,0-4.93-2,7,7,0,1,0,7,7,5.82,5.82,0,0,0-.08-.73l20.79-10.66A7,7,0,1,0,368.33,93Z"/><rect class="cls-1" x="324" y="72" width="56" height="56"/><path d="M480.33,123.29V81.34l-1.74-.45a57.48,57.48,0,0,0-29.18,0l-1.74.45v41.94L464,112.62Z"/><rect class="cls-1" x="436" y="72" width="56" height="56"/><path d="M788.33,235.33h23.34l2.33-28h4.67v-12l-1.89-.37a83.52,83.52,0,0,0-14.45-1.66v-4.66h-4.66v4.66a83.54,83.54,0,0,0-14.45,1.59l-1.89.44v12H786ZM786,199.21a81.76,81.76,0,0,1,28,0v3.46H786Z"/><rect class="cls-1" x="772" y="184" width="56" height="56"/><path d="M936.36,107.24a39.54,39.54,0,0,0-12.69-3.77V76.67H886.33V114a9.34,9.34,0,0,0,9.34,9.33h32.67a9.33,9.33,0,0,0,9.33-9.33v-6.12Zm-19.69,4.43H905V107h11.67Zm0-7H893.33V100h23.34Zm0-7H893.33V86h23.34ZM933,114a4.67,4.67,0,0,1-4.92,4.66,5,5,0,0,1-4.41-5.06v-5.42a34.68,34.68,0,0,1,9.33,2.64Z"/><rect class="cls-1" x="884" y="72" width="56" height="56"/><path d="M132.67,219,121,207.33l7-7-11.67-11.66-11.66,11.66.47,1.38a54.46,54.46,0,0,0,33.15,33.15l1.38.47,11.66-11.66L139.67,212Z"/><rect class="cls-1" x="100" y="184" width="56" height="56"/><path d="M261,205l-5.31-12.34-1.2-.24a74.85,74.85,0,0,0-28.92,0l-1.2.24L219,205h-2.36v4.67H219V233h4.67v-6.53a72.62,72.62,0,0,0,32.66,0V233H261V209.67h2.33V205Zm-4.64,10.26L250.65,219h-21.3l-5.68-3.74v-5.59l7.08,4.66h18.5l7.08-4.66Z"/><rect class="cls-1" x="212" y="184" width="56" height="56"/><path d="M370.67,198h-5.05l.39-2.35-.7-.83a17.48,17.48,0,0,0-26.62,0l-.7.83.39,2.35h-5.05v4.67h5.84l1.18,7,2.32.94V212a39.26,39.26,0,0,0,4,17.36l.63,1.31h2.33v7h4.66v-7h2.33l.63-1.31a39.26,39.26,0,0,0,4-17.36v-1.39l2.32-.94,1.18-7h5.84ZM352,193.33a12.75,12.75,0,0,1,6.17,1.66l-1.5,3h-9.34l-1.5-3A12.75,12.75,0,0,1,352,193.33ZM354.33,205a2.33,2.33,0,1,1-2.33-2.33A2.33,2.33,0,0,1,354.33,205Zm0,19.36v-7.69h-4.66v7.69a34.49,34.49,0,0,1-2.31-11.86l4.64,1.87,4.64-1.87A34.49,34.49,0,0,1,354.33,224.36Z"/><rect class="cls-1" x="324" y="184" width="56" height="56"/><path d="M473.33,226h7a7,7,0,0,0,7-7v-17.3l-10-10L474,195l4,4v6a2.33,2.33,0,0,0,2.33,2.34h2.34V219a2.34,2.34,0,0,1-2.34,2.34h-7V191l-1.74-.45a57.48,57.48,0,0,0-29.18,0l-1.74.45v39.7H436v4.66h56v-4.66H473.33Zm-4.66-31.36V205H445.33V194.6A53.13,53.13,0,0,1,468.67,194.6Z"/><rect class="cls-1" x="436" y="184" width="56" height="56"/><path d="M550.33,228.33a7,7,0,1,0,9.34-6.57v-7.43h14v7.43a7,7,0,1,0,4.66,0v-7.43H597V202.24a7,7,0,1,0-4.67,0v7.43h-14v-7.43a7,7,0,1,0-4.66,0v7.43h-14v-7.43a7,7,0,1,0-4.67,0v19.52A7,7,0,0,0,550.33,228.33Z"/><path d="M601.67,224.83a5.84,5.84,0,0,0-5.84-5.83h-8.16v16.33h4.66v-4.66h0l3.5,4.66h5.84l-3.79-5.05A5.84,5.84,0,0,0,601.67,224.83Zm-9.34-1.16h3.5a1.17,1.17,0,1,1,0,2.33h-3.5Z"/><rect class="cls-1" x="548" y="184" width="56" height="56"/><path d="M708,199.07l0,0-.18-.13c-1-1.24-2.08-2.44-3.21-3.57a51.68,51.68,0,0,0-10.48-8.08l-1.55-.91-23.32,23.32,7.13,7.13-8.68,5.76a7,7,0,0,0,3.85,12.78c.24,0,.47,0,.7,0a7,7,0,0,0,5.12-3.08l5.76-8.68,7.14,7.14,23.32-23.31-.91-1.56A50.7,50.7,0,0,0,708,199.07ZM690.63,197a3.75,3.75,0,0,0,5.31,0,5,5,0,0,0,5.71,8,5,5,0,0,0,3.83,3.93l-8.61,8.61-14.42-14.42,7.37-7.37A3.68,3.68,0,0,0,690.63,197Z"/><rect class="cls-1" x="660" y="184" width="56" height="56"/><path class="cls-2" d="M590,538.67V527l-1.74-.46a57.74,57.74,0,0,0-29.19,0l-1.74.46v44.32H590v-14h-4.67v9.34H562v-36a53.09,53.09,0,0,1,23.33,0v8Z"/><polygon class="cls-2" points="579.3 541.97 576 538.67 566.67 548 576 557.33 579.3 554.03 575.6 550.33 599.33 550.33 599.33 545.67 575.6 545.67 579.3 541.97"/><rect class="cls-1" x="548" y="520" width="56" height="56"/><path d="M141,317c-.44-.16-.88-.28-1.32-.42V300.75l-1.52-.57a29,29,0,0,0-20.3,0l-1.52.57v15.87c-.44.14-.88.26-1.32.42l-6.5,2.44,1.64,4.37,6.18-2.32v25.72l1.52.57a28.77,28.77,0,0,0,20.3,0l1.52-.57V321.53l6.18,2.32,1.64-4.37Zm-6,22.4a28,28,0,0,1-14,0V334.6a24,24,0,0,0,14,0Zm0-19.28a32.1,32.1,0,0,0-14,0v-4.78a36.63,36.63,0,0,1,14,0Z"/><rect class="cls-1" x="100" y="296" width="56" height="56"/><path class="cls-2" d="M893.33,541v11.66l1.31.63a39.32,39.32,0,0,0,34.72,0l1.31-.63V541H926v8.71a34.72,34.72,0,0,1-28,0V541Z"/><rect class="cls-2" x="902.67" y="541" width="18.67" height="4.67"/><rect class="cls-1" x="884" y="520" width="56" height="56"/><path d="M370.08,312.33l-2.24-7.63-1.38-.28a74.85,74.85,0,0,0-28.92,0l-1.38.28-2.24,7.63h-5.25V345h46.66V312.33ZM352,338a12.84,12.84,0,1,1,12.83-12.83A12.84,12.84,0,0,1,352,338Z"/><rect class="cls-1" x="324" y="296" width="56" height="56"/><path d="M477.2,308.47a18.67,18.67,0,0,0-26.4,26.4l13.2,13.2,13.2-13.2A18.67,18.67,0,0,0,477.2,308.47ZM464,326.33a4.67,4.67,0,1,1,4.67-4.66A4.67,4.67,0,0,1,464,326.33Z"/><rect class="cls-1" x="436" y="296" width="56" height="56"/><path d="M564.33,319.33H555v16.34h9.33l4.67,4.66h16.33l7-7V314.67H569Z"/><rect x="548" y="319.33" width="4.67" height="16.33"/><polygon points="583 312.33 583 307.67 590 307.67 590 303 571.33 303 571.33 307.67 578.33 307.67 578.33 312.33 583 312.33"/><polygon points="599.33 321.67 594.67 321.67 594.67 326.33 599.33 326.33 599.33 333.33 604 333.33 604 314.67 599.33 314.67 599.33 321.67"/><rect class="cls-1" x="548" y="296" width="56" height="56"/><path d="M709.54,305.33H666.46l-.37,1.87a74.28,74.28,0,0,0,0,28.91l.37,1.88h5.21v9.31L688,338h21.55l.37-1.88a74.28,74.28,0,0,0,0-28.91Z"/><rect class="cls-1" x="660" y="296" width="56" height="56"/><path d="M804.67,344.77a47.53,47.53,0,0,1-9.34,0V345a4.67,4.67,0,0,0,9.34,0Z"/><path d="M797.67,298.33v4.88A14,14,0,0,0,786,317v9.33l-4.67,2.34V338l1.4.7a41.42,41.42,0,0,0,17.27,4,40.63,40.63,0,0,0,17.27-4l1.4-.7v-9.33L814,326.33V317a14,14,0,0,0-11.67-13.79v-4.88Z"/><rect class="cls-1" x="772" y="296" width="56" height="56"/><path d="M924.26,190.25a48.5,48.5,0,0,0-24.52,0l-1.74.46v42.58l1.74.46a48.36,48.36,0,0,0,24.52,0l1.74-.46V190.71ZM912,228.33a2.33,2.33,0,1,1,2.33-2.33A2.33,2.33,0,0,1,912,228.33Zm5.2-31.93A2.33,2.33,0,0,1,915,198h-6a2.33,2.33,0,0,1-2.22-1.6l-.86-2.59a43.93,43.93,0,0,1,12.12,0Z"/><rect class="cls-1" x="884" y="184" width="56" height="56"/><path class="cls-2" d="M669.33,531.67h7.4l8,8L676.33,548l8.37,8.37-8,8h-7.4V569h37.34v-4.67h-7.4l-8-8,8.37-8.37-8.37-8.37,8-8h7.4V527H669.33Zm23.34,32.66h-9.34l4.67-4.66Zm.4-16.33L688,553.07,682.93,548l5.07-5.07ZM688,536.33l-4.67-4.66h9.34Z"/><rect class="cls-1" x="660" y="520" width="56" height="56"/><path d="M800,76.67a25.7,25.7,0,0,0-25.67,25.66,25.41,25.41,0,0,0,8,18.59l1,1,1.36-.5a43.9,43.9,0,0,1,30.52,0l1.36.5,1-1a25.41,25.41,0,0,0,8-18.59A25.7,25.7,0,0,0,800,76.67Zm11.67,11.66a2.34,2.34,0,1,1-2.34,2.34A2.33,2.33,0,0,1,811.67,88.33ZM800,83.67A2.33,2.33,0,1,1,797.67,86,2.33,2.33,0,0,1,800,83.67Zm-16.33,21a2.34,2.34,0,1,1,2.33-2.34A2.34,2.34,0,0,1,783.67,104.67ZM788.33,93a2.34,2.34,0,1,1,2.34-2.33A2.33,2.33,0,0,1,788.33,93Zm16.34,14.54a4.68,4.68,0,1,1-4.64-5.21,4.62,4.62,0,0,1,2.77.93l12.61-5.4,1.84,4.28Z"/><rect class="cls-1" x="772" y="72" width="56" height="56"/><path d="M1003,227.45v3.22h4.67v-.33A9.3,9.3,0,0,1,1003,227.45Z"/><path d="M1045,202.67l-5.31-12.34-1.2-.24a74.46,74.46,0,0,0-28.92,0l-1.2.24L1003,202.67h-2.36v3.42l.18,1.24H1003v1.9a12.75,12.75,0,0,0-1.24.83l-.42.31a14,14,0,1,0,18,21.31l7.66,7.61,3.29-3.31-8-8a14,14,0,0,0,.88-2l.81,0a74.22,74.22,0,0,0,16.33-1.86v6.53H1045V207.33h2.33v-4.66Zm-29.25,26a9.6,9.6,0,0,1-.83.59c-.27.17-.56.32-.84.46a8.16,8.16,0,0,1-.81.34,7.68,7.68,0,0,1-1.09.34l-.5.11a9,9,0,0,1-1.65.17,9.21,9.21,0,0,1-1.76-.18,8.18,8.18,0,0,1-1.22-.36c-.13,0-.25-.06-.37-.11a9.34,9.34,0,0,1-5.34-5.33c0-.12-.07-.25-.11-.37a10.07,10.07,0,0,1-.36-1.22,9.25,9.25,0,0,1,0-3.53,10.07,10.07,0,0,1,.36-1.22c0-.12.07-.25.11-.37a9.31,9.31,0,0,1,1.72-2.79,9.21,9.21,0,0,1,4.64-2.86h0A9.36,9.36,0,0,1,1010,212a9.24,9.24,0,0,1,8.21,5l.15.28a9.14,9.14,0,0,1,.49,1.22c0,.15.1.3.14.45s.14.56.19.85a9.81,9.81,0,0,1,.14,1.34c0,.06,0,.12,0,.18a9.06,9.06,0,0,1-.21,1.82c0,.14,0,.29-.08.43a9.3,9.3,0,0,1-.5,1.4c-.09.21-.19.42-.3.62a9.43,9.43,0,0,1-2.3,2.87Zm24.61-15.73-5.68,3.74h-11.47l-.14-.24a14.06,14.06,0,0,0-2.5-4.21l-.13-.22h12.84l7.08-4.66Z"/><rect class="cls-1" x="996" y="184" width="56" height="56"/><polygon points="128 429 116.33 440.65 139.67 440.65 128 429"/><rect class="cls-1" x="100" y="408" width="56" height="56"/><polygon points="240 442.99 251.67 431.33 228.33 431.33 240 442.99"/><rect class="cls-1" x="212" y="408" width="56" height="56"/><polygon points="359 436 347.35 424.33 347.35 447.67 359 436"/><rect class="cls-1" x="324" y="408" width="56" height="56"/><polygon points="457 436 468.65 447.67 468.65 424.33 457 436"/><rect class="cls-1" x="436" y="408" width="56" height="56"/><path d="M258.67,326.33h0l-1.83-7H261v-4.66h-5.41l-1.89-7.24-.73-.49A23.23,23.23,0,0,0,240,303v4.67a18.56,18.56,0,0,1,9.64,2.68l1.13,4.32h-34.1v4.66h8.16l10.5,14h-5a9.34,9.34,0,1,0,0,4.67h10.83l11.64-15.52,1.33,5.08a9.25,9.25,0,1,0,4.53-1.23Zm-37.34,14a4.67,4.67,0,1,1,4-7h-4V338h4A4.65,4.65,0,0,1,221.33,340.33Zm37.34,0a4.66,4.66,0,0,1-3.28-8l1,3.91,4.51-1.18-1-3.89a4.65,4.65,0,0,1-1.24,9.14Z"/><rect class="cls-1" x="212" y="296" width="56" height="56"/><path d="M935.33,440.67v-9.34l-5.61-1.14a17.49,17.49,0,0,0-1.08-2.61l3.16-4.78-6.6-6.6-4.78,3.16a18.66,18.66,0,0,0-2.61-1.09l-1.15-5.6h-9.32l-1.15,5.6a18.66,18.66,0,0,0-2.61,1.09l-4.78-3.16-6.6,6.6,3.16,4.78a17.49,17.49,0,0,0-1.08,2.61l-5.61,1.14v9.34l5.61,1.14a17.49,17.49,0,0,0,1.08,2.61l-3.16,4.78,6.6,6.6,4.78-3.16a18.66,18.66,0,0,0,2.61,1.09l1.15,5.6h9.32l1.15-5.6a18.66,18.66,0,0,0,2.61-1.09l4.78,3.16,6.6-6.6-3.16-4.78a17.49,17.49,0,0,0,1.08-2.61ZM912,445.33a9.33,9.33,0,1,1,9.33-9.33A9.33,9.33,0,0,1,912,445.33Z"/><rect class="cls-1" x="884" y="408" width="56" height="56"/><path d="M929,324.68l-24-24-3.3,3.3,4.67,4.66-12.75,12.75a7,7,0,0,0,0,9.9l11.1,11.11a7,7,0,0,0,9.9,0l16-16.05Zm-7.29-.68H897.6l12.07-12.07Z"/><path d="M930.67,331l-3.3,3.3a4.67,4.67,0,0,0,6.6,6.6h0a4.67,4.67,0,0,0,0-6.6Z"/><rect class="cls-1" x="884" y="296" width="56" height="56"/><path d="M706.67,417.36H702l-.69.72a27.67,27.67,0,0,1-20.2,8.56H674a9.34,9.34,0,0,0,0,18.67h4.67v9.33h4.66v-9.22a27.6,27.6,0,0,1,18,8.53l.69.72h4.66l.64-1.31a39.45,39.45,0,0,0,0-34.7Zm-23.34,13.85a32.35,32.35,0,0,0,15.25-4.91,38.41,38.41,0,0,0,0,19.4,32.13,32.13,0,0,0-15.24-4.95Zm21,17.23a34.29,34.29,0,0,1,0-24.85,34.16,34.16,0,0,1,0,24.85Z"/><rect class="cls-1" x="660" y="408" width="56" height="56"/><path d="M1006.64,80.71l-1.31.64v9.28l9.34,9.33v25.69l18.66-6.22V100l9.34-9.33V81.35l-1.31-.64A39.49,39.49,0,0,0,1006.64,80.71Zm29.72,3a34.64,34.64,0,0,1-24.72,0A34.75,34.75,0,0,1,1036.36,83.67Z"/><rect class="cls-1" x="996" y="72" width="56" height="56"/><path d="M1005.33,418.64a53.13,53.13,0,0,1,23.34,0v12.69h4.66V415l-1.74-.46a57.7,57.7,0,0,0-29.18,0l-1.74.46v44.32H1024v-4.66h-18.67Z"/><rect x="1019.33" y="424.33" width="4.67" height="7"/><rect x="1010" y="424.33" width="4.67" height="7"/><rect x="1019.33" y="436" width="4.67" height="7"/><rect x="1010" y="436" width="4.67" height="7"/><path d="M1046.77,437l-1.31-.26a38.61,38.61,0,0,0-14.92,0l-1.31.26-2.89,8.34H1024V450h2.33v9.33H1031v-3a37.45,37.45,0,0,0,14,0v3h4.67V450H1052v-4.67h-2.34Zm-14,4.09a33.49,33.49,0,0,1,10.48,0l1.48,4.25h-13.44Z"/><rect class="cls-1" x="996" y="408" width="56" height="56"/><path class="cls-3" d="M443,548l21-21,3.27,3.27-15.4,15.4h30.8v4.66h-30.8l15.4,15.4L464,569Z"/><rect class="cls-1" x="436" y="520" width="56" height="56"/><path class="cls-3" d="M373,548l-21,21-3.27-3.27,15.4-15.4h-30.8v-4.66h30.8l-15.4-15.4L352,527Z"/><rect class="cls-1" x="324" y="520" width="56" height="56"/><path class="cls-3" d="M128,527l21,21-3.27,3.27-15.4-15.4v30.8h-4.66v-30.8l-15.4,15.4L107,548Z"/><rect class="cls-1" x="100" y="520" width="56" height="56"/><path class="cls-3" d="M240,566.67l-21-21,3.27-3.27,15.4,15.4V527h4.66v30.8l15.4-15.4,3.27,3.27Z"/><rect class="cls-1" x="212" y="520" width="56" height="56"/><rect class="cls-1" x="772" y="408" width="56" height="56"/><path d="M804.82,447.71c-1.48-1-3.46-2.35-5.07-3.28A29,29,0,0,0,790,441l-1.7-.28-7,14,4.17,2.09,5.43-10.85a24.29,24.29,0,0,1,6.48,2.57c2.7,1.56,6.75,4.5,6.79,4.53l2.13,1.55,11.78-21-4.07-2.28Z"/><path d="M793,436a11.67,11.67,0,1,0-11.67-11.67A11.68,11.68,0,0,0,793,436Z"/><circle cx="817.5" cy="423.17" r="5.83"/><rect class="cls-1" x="772" y="408" width="56" height="56"/><path d="M1035.67,343.22V338H1038v-4.67h-2.34l-2.89-8.34-1.31-.26a38.61,38.61,0,0,0-14.92,0l-1.31.26-2.89,8.34H1010V338h2.33v9.33H1017v-3a37.45,37.45,0,0,0,14,0v3h4.67Zm-16.92-14.14a33.62,33.62,0,0,1,10.5,0l1.47,4.25h-13.44ZM1017,339.6V338h14v1.6A34,34,0,0,1,1017,339.6Z"/><path d="M1024,300.67a49.78,49.78,0,0,0-22,5.12l-1.31.64v40.9h4.66v-28h37.34v28h4.66v-40.9l-1.31-.64A49.78,49.78,0,0,0,1024,300.67Z"/><rect class="cls-1" x="996" y="296" width="56" height="56"/><path d="M583.18,454.67a4.67,4.67,0,1,0,5.71-4.54l-.64-2.46h1.93V443H587l-1.64-6.27-.73-.49a15.24,15.24,0,0,0-8.48-2.57v4.66a10.46,10.46,0,0,1,5.16,1.35l.87,3.32h-20v4.67H568l3.5,4.66h-3a4.67,4.67,0,1,0,0,4.67h8.82l6.31-8.42.77,2.93A4.62,4.62,0,0,0,583.18,454.67Zm-7-3.89-2.33-3.11h4.66Z"/><path d="M599.51,459.33v-40.9l-1.31-.64a49.91,49.91,0,0,0-44,0l-1.31.64v40.9h4.66v-28h37.34v28Z"/><rect class="cls-1" x="548" y="408" width="56" height="56"/><path d="M706.67,114H674V85.92L690.32,72l9.35,7-2.61,7h9.61l.45,1.74A48.17,48.17,0,0,1,709,100a48.17,48.17,0,0,1-1.88,12.26Z"/><rect x="667" y="86" width="4.67" height="28"/><rect class="cls-1" x="660" y="72" width="56" height="56"/><rect class="cls-1" x="660" y="72" width="56" height="56"/><path d="M573.68,128l-9.35-7,2.61-7h-9.61l-.45-1.74A48.17,48.17,0,0,1,555,100a48.17,48.17,0,0,1,1.88-12.26l.45-1.74H590v28Z"/><rect x="592.33" y="86" width="4.67" height="28"/><rect class="cls-1" x="548" y="72" width="56" height="56"/><rect class="cls-1" x="548" y="72" width="56" height="56"/><path class="cls-2" d="M1041.87,546.46a18.55,18.55,0,0,0-13.2-5.46h-19.1l8.36-8.37-3.3-3.3-14,14,14,14,3.3-3.3-8.36-8.36h19.1a14,14,0,0,1,14,14V569h4.66v-9.33A18.55,18.55,0,0,0,1041.87,546.46Z"/><rect class="cls-1" x="996" y="520" width="56" height="56"/><rect class="cls-1" x="996" y="520" width="56" height="56"/><path class="cls-2" d="M823.33,541H821l-5.31-12.34-1.2-.24a74.46,74.46,0,0,0-28.92,0l-1.2.24L779,541h-2.36v4.67H779V569h4.67v-6.53a72.62,72.62,0,0,0,32.66,0V569H821V545.67h2.33Zm-7,10.26L810.65,555H800v4.66a69.72,69.72,0,0,1-16.33-1.94v-6.46l5.68,3.74H800v-4.67h-9.25l-7.08-4.66V542l4-9.26a70,70,0,0,1,12.35-1.1v18.66h9.26l7.07-4.66Z"/><rect class="cls-1" x="772" y="520" width="56" height="56"/></g></svg>