<svg xmlns="http://www.w3.org/2000/svg" viewBox="0 0 648 648"><defs><style>.cls-1{fill:#79e45e;}</style></defs><g id="Graphic"><rect class="cls-1" width="648" height="648"/><path d="M388.75,303.6v16.77a7.59,7.59,0,0,0,2.31,5.65,7.81,7.81,0,0,0,5.69,2.26h39.53a4.53,4.53,0,0,0,3.28-1.3,4.3,4.3,0,0,0,1.35-3.23V306.39h10.61v17.26a4.61,4.61,0,0,0,4.63,4.63H459a1.19,1.19,0,0,1,1.35,1.35v9.84a1.19,1.19,0,0,1-1.35,1.35H458a14.2,14.2,0,0,1-6.46-1.5,15.85,15.85,0,0,1-5.21-4.19,14.63,14.63,0,0,1-5.45,4.34,15.8,15.8,0,0,1-6.5,1.35H397.71a19,19,0,0,1-7.62-1.55,19.61,19.61,0,0,1-6.21-4.19,19.85,19.85,0,0,1-4.2-6.22,19,19,0,0,1-1.54-7.62V303.6Zm12.53,0h11.09V292.51H401.28Zm16.1,0h11.09V292.51H417.38Z"/><path d="M459,340.82a1.19,1.19,0,0,1-1.35-1.35v-9.84a1.19,1.19,0,0,1,1.35-1.35h3.09a5,5,0,0,0,3.32-1.16,5.19,5.19,0,0,0,1.79-3.08l1.93-9.93a13.86,13.86,0,0,1,1.88-4.87,15.56,15.56,0,0,1,3.32-3.86,15.21,15.21,0,0,1,4.39-2.51,14.68,14.68,0,0,1,5.16-.91h5.4a15.47,15.47,0,0,1,6.17,1.25,15.76,15.76,0,0,1,8.39,8.39,15.47,15.47,0,0,1,1.25,6.17v5.88a4.61,4.61,0,0,0,4.63,4.63h3.67a1.19,1.19,0,0,1,1.35,1.35v9.84a1.23,1.23,0,0,1-.44,1,1.35,1.35,0,0,1-.91.39h-1.84a14.87,14.87,0,0,1-5.35-1,12.67,12.67,0,0,1-4.68-3.18,9.6,9.6,0,0,1-8.1,4.15H482.28a11.76,11.76,0,0,1-10.22-5.6,12.81,12.81,0,0,1-4.92,4.34,13.52,13.52,0,0,1-5.79,1.26Zm21.89-12.54h13.6V317.67a3.55,3.55,0,0,0-1.07-2.6,3.51,3.51,0,0,0-2.6-1.06h-7.81a3.42,3.42,0,0,0-2.31.82,3.82,3.82,0,0,0-1.26,2.17l-1.54,7.71a2.79,2.79,0,0,0,.63,2.46A2.91,2.91,0,0,0,480.93,328.28Z"/><path d="M550.94,339.47a1.35,1.35,0,0,1-.39.91,1.24,1.24,0,0,1-1,.44h-7.33a12.68,12.68,0,0,1-6.17-1.69,9.1,9.1,0,0,1-4.15-4A8.05,8.05,0,0,1,530,337.3a19.32,19.32,0,0,1-2.75,1.83,13.49,13.49,0,0,1-3.18,1.25,13.25,13.25,0,0,1-3.33.44h-7.32a1.19,1.19,0,0,1-1.35-1.35v-9.74a1.47,1.47,0,0,1,.38-1,1.25,1.25,0,0,1,1-.44h8.29a5.19,5.19,0,0,0,3.37-1.16,5.06,5.06,0,0,0,1.84-3.08l3.56-17.36,10.42,1.83L538,323.07a3.92,3.92,0,0,0,.87,3.62,4.35,4.35,0,0,0,3.47,1.59h7.24a1.24,1.24,0,0,1,1,.44,1.44,1.44,0,0,1,.39,1Zm-33,24h11V352.39H518Zm16,0h11.09V352.39H534Z"/><path d="M591.34,323.56a16.75,16.75,0,0,1-1.35,6.7,17.48,17.48,0,0,1-9.21,9.21,16.75,16.75,0,0,1-6.7,1.35H549.59a1.25,1.25,0,0,1-1-.44,1.49,1.49,0,0,1-.38-1v-9.74a1.46,1.46,0,0,1,.33-.91,1.23,1.23,0,0,1,1-.44H576.1a4.61,4.61,0,0,0,4.63-4.63v-2a16.65,16.65,0,0,1-5.78,1.06h-5.69a14.81,14.81,0,0,1-6.66-1.54,15.66,15.66,0,0,1-5.16-4.1,15.38,15.38,0,0,1-3.13-12.68l1.45-7.72a13.64,13.64,0,0,1,1.88-4.92,16.88,16.88,0,0,1,3.32-3.85,14.68,14.68,0,0,1,9.55-3.47h5.21a15.12,15.12,0,0,1,6.12,1.25,16.21,16.21,0,0,1,5,3.38,15.49,15.49,0,0,1,3.32,5,15.21,15.21,0,0,1,1.21,6ZM559,264.73h11.08v11.09H559Zm8.67,45.42h13v-10a3.62,3.62,0,0,0-3.66-3.66h-7.43a3.7,3.7,0,0,0-2.41.87,3.39,3.39,0,0,0-1.25,2.22l-1.25,6.84a3,3,0,0,0,.62,2.61A2.88,2.88,0,0,0,567.71,310.15Zm7.43-45.42h11.09v11.09H575.14Z"/><path d="M196.76,422v18a3.43,3.43,0,0,0,1.45,2.85,5.09,5.09,0,0,0,3.18,1.11h7a1.19,1.19,0,0,1,1.35,1.35v9.83a1.19,1.19,0,0,1-1.35,1.35h-5.31a11.41,11.41,0,0,1-3.47-.58,5,5,0,0,1-2.89-2.41v1.74a20.23,20.23,0,0,1-1.21,7,23,23,0,0,1-3.32,6.12,23.2,23.2,0,0,1-5,4.87,23.82,23.82,0,0,1-6.36,3.23L167.54,481l-3.28-9.93,13.89-4.53a10.86,10.86,0,0,0,5.83-4.29,11.84,11.84,0,0,0,2.17-6.9V422Z"/><path d="M213.54,431.75a17.23,17.23,0,0,1,1.49-7.18,19.33,19.33,0,0,1,4-5.79,18.21,18.21,0,0,1,5.68-3.86,16.78,16.78,0,0,1,6.71-1.4h1.54a17.18,17.18,0,0,1,6.89,1.4,17.81,17.81,0,0,1,9.45,9.45,17.06,17.06,0,0,1,1.4,6.9v3.37a16.11,16.11,0,0,1-3.18,9.36h8.2a1.2,1.2,0,0,1,1,.43,1.64,1.64,0,0,1,.34,1v9.74a1.37,1.37,0,0,1-.39.92,1.23,1.23,0,0,1-1,.43H245.07c-1.16,0-2.22,0-3.18-.14a16.43,16.43,0,0,1-2.94-.58,20.72,20.72,0,0,1-3.14-1.21c-1.09-.51-2.38-1.19-3.85-2-1.48.83-2.77,1.51-3.86,2a22,22,0,0,1-3.09,1.21,15.58,15.58,0,0,1-2.89.58c-1,.09-2,.14-3.18.14H208.43a1.19,1.19,0,0,1-1.35-1.35v-9.74a1.63,1.63,0,0,1,.33-1,1.22,1.22,0,0,1,1-.43h8.19a16.11,16.11,0,0,1-3.08-9.36Zm10.22,3.37A5.08,5.08,0,0,0,226,439a20.87,20.87,0,0,0,5.94,3.18,21.25,21.25,0,0,0,5.83-3.18,5.09,5.09,0,0,0,2.27-3.86v-2.41a6.79,6.79,0,0,0-2.13-5.06,7,7,0,0,0-5.11-2.07H231a7,7,0,0,0-5.11,2.07,6.82,6.82,0,0,0-2.12,5.06Zm2.7-30.37h11.09V393.66H226.46Z"/><path d="M276,434.84a6.58,6.58,0,0,0,.53,3.27,4.17,4.17,0,0,1,.53.87l13.31-14.37a21.09,21.09,0,0,1,7.23-5.16,21.92,21.92,0,0,1,8.68-1.78h6a15.55,15.55,0,0,1,11.18,4.68,16.76,16.76,0,0,1,3.38,5,15.14,15.14,0,0,1,1.25,6.13v5.78a16.75,16.75,0,0,1-1.35,6.7,18,18,0,0,1-3.66,5.5,16.95,16.95,0,0,1-12.15,5.06H282.39a15.48,15.48,0,0,1-6.46-1.35,13.22,13.22,0,0,1-5.21-4.34,13.73,13.73,0,0,1-5.4,4.34,16.18,16.18,0,0,1-6.56,1.35h-3.08a1.24,1.24,0,0,1-1-.43,1.4,1.4,0,0,1-.38-.92v-9.64a1.53,1.53,0,0,1,.43-1.06,1.24,1.24,0,0,1,.92-.48h5.11a4.63,4.63,0,0,0,4.63-4.63V423.55H276ZM312.86,444a4.41,4.41,0,0,0,3.28-1.4,4.62,4.62,0,0,0,1.35-3.33v-4.92a4.61,4.61,0,0,0-4.63-4.63h-8.2a11,11,0,0,0-8.39,3.67L286.44,444Z"/><path d="M385.27,454.51a23.24,23.24,0,0,1-1.15,7.28,24.43,24.43,0,0,1-3.23,6.46,23.38,23.38,0,0,1-5,5.16,23.87,23.87,0,0,1-6.6,3.47l-13.21,4.53-3.28-10.12,13.59-4.54a12.63,12.63,0,0,0,5.93-4.05,10.23,10.23,0,0,0,2.27-6.65v-.68a12.48,12.48,0,0,1-2.6.82,14.13,14.13,0,0,1-3.09.34h-6.46a14.53,14.53,0,0,1-6.56-1.49,15.51,15.51,0,0,1-5.06-4,15.14,15.14,0,0,1-2.94-5.74,14.68,14.68,0,0,1-.19-6.7l1.64-8.78a13.94,13.94,0,0,1,1.88-4.87,16.33,16.33,0,0,1,3.32-3.9,14.47,14.47,0,0,1,4.39-2.56,14.68,14.68,0,0,1,5.16-.92h5.4a15.3,15.3,0,0,1,6.17,1.26,15.53,15.53,0,0,1,5,3.42,16.9,16.9,0,0,1,3.37,5.06,15.48,15.48,0,0,1,1.25,6.18ZM374.67,444V433.39a3.73,3.73,0,0,0-1.06-2.65,3.48,3.48,0,0,0-2.61-1.11h-7.81a3.32,3.32,0,0,0-2.31.87,4,4,0,0,0-1.26,2.21l-1.54,7.72a2.79,2.79,0,0,0,.63,2.46,2.92,2.92,0,0,0,2.36,1.11Z"/><path d="M390.48,481.12l-3.28-9.93,13.89-4.53a11.77,11.77,0,0,0,8-11.19V422.11H419.7v32.3a23.21,23.21,0,0,1-1.16,7.28,23.54,23.54,0,0,1-3.23,6.41,22.72,22.72,0,0,1-5,5.07,25.11,25.11,0,0,1-6.51,3.42Z"/><path d="M444,456.53a12.2,12.2,0,0,1-4.92-1,13.2,13.2,0,0,1-4.05-2.75,13,13,0,0,1-2.75-4.1,12.53,12.53,0,0,1-1-5V431.17h9.06v10.61a2.09,2.09,0,0,0,.68,1.59,2.19,2.19,0,0,0,1.54.63h15.91a5.84,5.84,0,0,0,3.14-.87,6.61,6.61,0,0,0,2.21-2.22,5.86,5.86,0,0,0,.87-2.94,5.92,5.92,0,0,0-.82-3.13l-12-21.32,9-5.88L473.7,430.4a16,16,0,0,1,2.26,9,18.35,18.35,0,0,1-2.46,8.43,17.88,17.88,0,0,1-6.17,6.27,16.59,16.59,0,0,1-9,2.46Z"/><path d="M500.6,456.53A14.56,14.56,0,0,1,494,455a15,15,0,0,1-5-4,16,16,0,0,1-2.94-5.74,14.27,14.27,0,0,1-.24-6.7l1.64-8.78a13.94,13.94,0,0,1,1.88-4.87,16.33,16.33,0,0,1,3.32-3.9,14.47,14.47,0,0,1,4.39-2.56,14.68,14.68,0,0,1,5.16-.92h5.4a15.27,15.27,0,0,1,6.17,1.26,15.53,15.53,0,0,1,5,3.42,16.9,16.9,0,0,1,3.37,5.06,15.31,15.31,0,0,1,1.25,6.18V444h6.75a1.19,1.19,0,0,1,1.35,1.35v9.83a1.19,1.19,0,0,1-1.35,1.35h-6.84V457a5.58,5.58,0,0,1-.1,1,20.34,20.34,0,0,1-4.87,11.47,24.45,24.45,0,0,1-10.94,7.43l-13.21,4.53L491,471.29l13.59-4.54a12.63,12.63,0,0,0,5.93-4.05,10.23,10.23,0,0,0,2.27-6.65v-.68a12.29,12.29,0,0,1-2.6.82,14.13,14.13,0,0,1-3.09.34ZM499.25,444h13.6V433.39a3.73,3.73,0,0,0-1.06-2.65,3.48,3.48,0,0,0-2.61-1.11h-7.81a3.32,3.32,0,0,0-2.31.87,4.05,4.05,0,0,0-1.26,2.21l-1.54,7.72a2.79,2.79,0,0,0,.63,2.46A2.92,2.92,0,0,0,499.25,444Z"/><path d="M528.85,445.44a1.45,1.45,0,0,1,.44-1,1.23,1.23,0,0,1,.91-.48h17.26a25.45,25.45,0,0,0,8-1.31,15.82,15.82,0,0,0,6.75-4.29l5.59-6,.87-.86q.39-.39.48-.39l-20.25-6.07a2,2,0,0,0-1.69.14,2.8,2.8,0,0,0-1.11,1.3l-3.66,9.65-9.26-2.51,2.51-8.87a12.94,12.94,0,0,1,2.75-5.11,14.26,14.26,0,0,1,4.24-3.33,13.79,13.79,0,0,1,5.06-1.45,13.58,13.58,0,0,1,5.21.53l38.38,11.48-3.18,9.93-4.53-1.35a6.83,6.83,0,0,0-3.72.05,8.17,8.17,0,0,0-2.84,2l-11.09,11a25.38,25.38,0,0,1-9.64,6.07,33.79,33.79,0,0,1-11.29,1.93H530.2a1.19,1.19,0,0,1-1.35-1.35Zm16-39.34H556V395H544.86Z"/><path d="M340.92,537.72v18a3.44,3.44,0,0,0,1.44,2.84,5.13,5.13,0,0,0,3.18,1.11h7a1.19,1.19,0,0,1,1.35,1.35v9.84a1.19,1.19,0,0,1-1.35,1.35h-5.3a11.72,11.72,0,0,1-3.47-.58,5,5,0,0,1-2.89-2.41V571a20.42,20.42,0,0,1-1.21,7,22.92,22.92,0,0,1-3.33,6.13,23.39,23.39,0,0,1-5,4.87,23.82,23.82,0,0,1-6.36,3.23l-13.31,4.53-3.28-9.93,13.89-4.54a10.89,10.89,0,0,0,5.83-4.29,11.81,11.81,0,0,0,2.17-6.89V537.72Z"/><path d="M390.09,570.9a1.38,1.38,0,0,1-.38.91,1.25,1.25,0,0,1-1,.44h-7.32a12.85,12.85,0,0,1-6.18-1.69,9.12,9.12,0,0,1-4.14-4,8.22,8.22,0,0,1-1.93,2.17,19.32,19.32,0,0,1-2.75,1.83,13.67,13.67,0,0,1-3.18,1.25,13.37,13.37,0,0,1-3.33.44h-7.33a1.19,1.19,0,0,1-1.35-1.35v-9.74a1.48,1.48,0,0,1,.39-1,1.23,1.23,0,0,1,1-.43h8.3a5.24,5.24,0,0,0,3.37-1.16,5,5,0,0,0,1.83-3.08l3.57-17.36,10.42,1.83-2.9,14.56a3.92,3.92,0,0,0,.87,3.62,4.35,4.35,0,0,0,3.47,1.59h7.23a1.24,1.24,0,0,1,1,.43,1.52,1.52,0,0,1,.38,1Zm-33.94-41.66h11.09V518.15H356.15Zm16.1,0h11.09V518.15H372.25Z"/><path d="M396.94,555.47l1.93-9.93a14.06,14.06,0,0,1,1.88-4.87,15.39,15.39,0,0,1,3.33-3.86,15.15,15.15,0,0,1,4.38-2.51,14.68,14.68,0,0,1,5.16-.91H419a15.23,15.23,0,0,1,6.17,1.25,15.67,15.67,0,0,1,8.39,8.39,15.27,15.27,0,0,1,1.26,6.17v11.28a11.64,11.64,0,0,1-.92,4.58,11.48,11.48,0,0,1-2.51,3.76,11.75,11.75,0,0,1-3.71,2.51,11.29,11.29,0,0,1-4.53.92H412a13,13,0,0,1-5.49-1.21,12,12,0,0,1-4.73-4.29,12.41,12.41,0,0,1-4.92,4.29,14.05,14.05,0,0,1-5.78,1.21h-2.32a1.2,1.2,0,0,1-1.35-1.35v-9.84a1.2,1.2,0,0,1,1.35-1.35h3.09a5.08,5.08,0,0,0,3.33-1.16A5.2,5.2,0,0,0,396.94,555.47Zm13.69,4.24h13.6V549.1a3.62,3.62,0,0,0-3.66-3.66h-7.81a3.43,3.43,0,0,0-2.32.82,3.81,3.81,0,0,0-1.25,2.17l-1.55,7.71a2.79,2.79,0,0,0,.63,2.46A2.92,2.92,0,0,0,410.63,559.71Z"/><path d="M459.52,572.25a14.37,14.37,0,0,1-6.55-1.5,14.83,14.83,0,0,1-5-4A15.88,15.88,0,0,1,445,561a14.26,14.26,0,0,1-.24-6.7l1.64-8.77a14.06,14.06,0,0,1,1.88-4.87,16.19,16.19,0,0,1,3.33-3.91,14.63,14.63,0,0,1,9.54-3.47h5.4a15.4,15.4,0,0,1,6.17,1.25,15.72,15.72,0,0,1,5,3.43,16.47,16.47,0,0,1,3.37,5.06,15.27,15.27,0,0,1,1.26,6.17v10.51h6.75a1.19,1.19,0,0,1,1.35,1.35v9.84a1.19,1.19,0,0,1-1.35,1.35h-6.85v.48a5.48,5.48,0,0,1-.1,1,20.34,20.34,0,0,1-4.87,11.48,24.46,24.46,0,0,1-10.94,7.42l-13.21,4.53L449.88,587l13.6-4.53a12.83,12.83,0,0,0,5.93-4.05,10.27,10.27,0,0,0,2.26-6.66v-.67a13.56,13.56,0,0,1-2.6.82,14.77,14.77,0,0,1-3.09.34Zm-1.35-12.54h13.6V549.1a3.7,3.7,0,0,0-1.06-2.65,3.48,3.48,0,0,0-2.61-1.11h-7.81a3.32,3.32,0,0,0-2.31.87,4,4,0,0,0-1.25,2.22l-1.55,7.71a2.79,2.79,0,0,0,.63,2.46A2.92,2.92,0,0,0,458.17,559.71Z"/><path d="M521.24,559.71a1.35,1.35,0,0,1,.91.39,1.21,1.21,0,0,1,.44,1v9.84a1.24,1.24,0,0,1-.44,1,1.35,1.35,0,0,1-.91.39H516.9a16.63,16.63,0,0,1-6.42-1.26,15.87,15.87,0,0,1-5.25-3.47,16.74,16.74,0,0,1-5.4,3.47,16.94,16.94,0,0,1-6.46,1.26h-4.25a1.2,1.2,0,0,1-1.35-1.35v-9.84a1.2,1.2,0,0,1,1.35-1.35h6.18a4.59,4.59,0,0,0,4.62-4.63V506.19h10.61v49.37a4.57,4.57,0,0,0,1.5,2.94,4.41,4.41,0,0,0,3.13,1.21Z"/><path d="M558.75,570.9a1.35,1.35,0,0,1-.39.91,1.24,1.24,0,0,1-1,.44h-7.33a12.79,12.79,0,0,1-6.17-1.69,9.15,9.15,0,0,1-4.15-4,8.05,8.05,0,0,1-1.93,2.17,19.32,19.32,0,0,1-2.75,1.83,13.67,13.67,0,0,1-3.18,1.25,13.31,13.31,0,0,1-3.33.44h-7.33a1.2,1.2,0,0,1-1.35-1.35v-9.74a1.48,1.48,0,0,1,.39-1,1.23,1.23,0,0,1,1-.43h8.3a5.24,5.24,0,0,0,3.37-1.16,5,5,0,0,0,1.83-3.08l3.57-17.36,10.42,1.83-2.9,14.56a3.92,3.92,0,0,0,.87,3.62,4.35,4.35,0,0,0,3.47,1.59h7.24a1.23,1.23,0,0,1,1,.43,1.48,1.48,0,0,1,.39,1Zm-33,24h11V583.82h-11Zm16,0h11.09V583.82H541.77Z"/><path d="M569.64,572.25H557.4a1.25,1.25,0,0,1-1-.44,1.49,1.49,0,0,1-.38-1v-9.74a1.4,1.4,0,0,1,.38-.92,1.24,1.24,0,0,1,1-.43h13.3a8.14,8.14,0,0,0,4.73-1.4,9,9,0,0,0,3-3.47,9.32,9.32,0,0,0,.91-4.48,7.82,7.82,0,0,0-1.73-4.54l-16.49-22.27v-7.62l32.69-16.49,4.72,9.36-26.42,13.3,14.17,17.65a18.2,18.2,0,0,1,3.52,6.94,19.65,19.65,0,0,1-1.68,14.18,22.53,22.53,0,0,1-4.44,5.83,20.45,20.45,0,0,1-14.08,5.55Z"/><path d="M63.06,61.85a7.25,7.25,0,0,1-5.12,1.59H53.87v8.62h-2V51.84h6.1a7.29,7.29,0,0,1,5.11,1.59,6,6,0,0,1,0,8.42Zm-.37-4.2a4,4,0,0,0-1.13-3.06,5.2,5.2,0,0,0-3.62-1H53.87V61.7h4.07C61.11,61.7,62.69,60.36,62.69,57.65Z"/><path d="M82.39,64.94H69.28A6.39,6.39,0,0,0,70.15,68a5.07,5.07,0,0,0,2.06,1.92,5.9,5.9,0,0,0,2.77.66,5.54,5.54,0,0,0,3.31-1,4.47,4.47,0,0,0,1.78-2.57h2.14a6.65,6.65,0,0,1-2.47,3.77A7.52,7.52,0,0,1,75,72.29a7.93,7.93,0,0,1-4-1,7,7,0,0,1-2.76-2.83,8.81,8.81,0,0,1-1-4.3,9.13,9.13,0,0,1,1-4.31A6.88,6.88,0,0,1,71,57a8.09,8.09,0,0,1,4-1,7.67,7.67,0,0,1,4,1,6.78,6.78,0,0,1,2.61,2.65,7.57,7.57,0,0,1,.91,3.68A15.59,15.59,0,0,1,82.39,64.94Zm-2.71-4.65a4.73,4.73,0,0,0-2-1.88,6,6,0,0,0-2.77-.64,5.49,5.49,0,0,0-3.85,1.45,5.79,5.79,0,0,0-1.77,4.08H80.39A5.53,5.53,0,0,0,79.68,60.29Z"/><path d="M99.17,56.27,89.79,79.5H87.68L90.75,72l-6.48-15.7H86.5l5.38,13.48,5.2-13.48Z"/><path d="M102,59.87A7.07,7.07,0,0,1,104.68,57a7.66,7.66,0,0,1,3.89-1,7.09,7.09,0,0,1,3.76,1,6.15,6.15,0,0,1,2.46,2.63v-9h2V72.06h-2V68.53a6.1,6.1,0,0,1-2.37,2.71,7.09,7.09,0,0,1-3.88,1.05,7.47,7.47,0,0,1-3.89-1A7,7,0,0,1,102,68.42a9.1,9.1,0,0,1-1-4.29A8.93,8.93,0,0,1,102,59.87Zm12,.94a5.52,5.52,0,0,0-2.13-2.23,5.79,5.79,0,0,0-3-.78,6,6,0,0,0-3,.75,5.29,5.29,0,0,0-2.1,2.19,7.07,7.07,0,0,0-.77,3.39,7.2,7.2,0,0,0,.77,3.4,5.33,5.33,0,0,0,2.1,2.23,5.91,5.91,0,0,0,3,.77,5.79,5.79,0,0,0,3-.78A5.59,5.59,0,0,0,114,67.52a7.61,7.61,0,0,0,0-6.71Z"/><path d="M121.49,59.87A6.89,6.89,0,0,1,124.18,57a7.64,7.64,0,0,1,3.89-1,7.05,7.05,0,0,1,3.89,1,6,6,0,0,1,2.35,2.66V56.27h2V72.06h-2v-3.5a6.36,6.36,0,0,1-2.38,2.68A7.05,7.05,0,0,1,128,72.29a7.39,7.39,0,0,1-3.86-1,7,7,0,0,1-2.69-2.86,9.1,9.1,0,0,1-1-4.29A8.93,8.93,0,0,1,121.49,59.87Zm12,.94a5.56,5.56,0,0,0-2.12-2.23,5.83,5.83,0,0,0-3-.78,6,6,0,0,0-3,.75,5.33,5.33,0,0,0-2.09,2.19,7.07,7.07,0,0,0-.77,3.39,7.2,7.2,0,0,0,.77,3.4,5.37,5.37,0,0,0,2.09,2.23,5.94,5.94,0,0,0,3,.77,5.83,5.83,0,0,0,3-.78,5.63,5.63,0,0,0,2.12-2.23,7.61,7.61,0,0,0,0-6.71Z"/><path d="M161.25,63.35a5,5,0,0,1,1.18,3.3,5.12,5.12,0,0,1-.76,2.76,5.25,5.25,0,0,1-2.25,1.94,8,8,0,0,1-3.53.71h-7V51.84h6.8a6.81,6.81,0,0,1,4.67,1.42A4.67,4.67,0,0,1,162,56.93a4.51,4.51,0,0,1-1,3,5.39,5.39,0,0,1-2.61,1.64A4.86,4.86,0,0,1,161.25,63.35Zm-10.33-2.57h4.71a4.66,4.66,0,0,0,3.17-1,3.38,3.38,0,0,0,1.12-2.68,3.31,3.31,0,0,0-1.12-2.63,4.9,4.9,0,0,0-3.25-1h-4.63Zm8.26,8.53a3.55,3.55,0,0,0,1.23-2.86,3.6,3.6,0,0,0-1.29-2.91,5.21,5.21,0,0,0-3.46-1.08h-4.74v7.89h4.83A5.11,5.11,0,0,0,159.18,69.31Z"/><path d="M169.07,71.29a7.19,7.19,0,0,1-2.8-2.83,9.43,9.43,0,0,1,0-8.59A7.29,7.29,0,0,1,169.11,57a8.62,8.62,0,0,1,8.06,0A7.18,7.18,0,0,1,180,59.87a8.67,8.67,0,0,1,1,4.29,8.57,8.57,0,0,1-1,4.29,7.17,7.17,0,0,1-2.86,2.84,8.27,8.27,0,0,1-4,1A8,8,0,0,1,169.07,71.29Zm6.9-1.47a5.42,5.42,0,0,0,2.16-2.14,8,8,0,0,0,0-7A5.25,5.25,0,0,0,176,58.51a6.26,6.26,0,0,0-5.79,0,5.2,5.2,0,0,0-2.12,2.14,8.12,8.12,0,0,0,0,7,5.24,5.24,0,0,0,2.11,2.14,6,6,0,0,0,2.88.71A6.09,6.09,0,0,0,176,69.82Z"/><path d="M186.76,50.65V72.06h-2V50.65Z"/><path d="M191.42,59.87a7,7,0,0,1,2.7-2.84A7.69,7.69,0,0,1,198,56a7.07,7.07,0,0,1,3.76,1,6.15,6.15,0,0,1,2.46,2.63v-9h2V72.06h-2V68.53a6.1,6.1,0,0,1-2.37,2.71A7.06,7.06,0,0,1,198,72.29a7.5,7.5,0,0,1-3.89-1,7.08,7.08,0,0,1-2.69-2.86,9.23,9.23,0,0,1-1-4.29A8.82,8.82,0,0,1,191.42,59.87Zm12,.94a5.56,5.56,0,0,0-2.12-2.23,5.83,5.83,0,0,0-3-.78,6,6,0,0,0-3,.75,5.35,5.35,0,0,0-2.1,2.19,7.07,7.07,0,0,0-.76,3.39,7.19,7.19,0,0,0,.76,3.4,5.4,5.4,0,0,0,2.1,2.23,5.94,5.94,0,0,0,3,.77,5.83,5.83,0,0,0,3-.78,5.63,5.63,0,0,0,2.12-2.23,7.61,7.61,0,0,0,0-6.71Z"/></g></svg>