<svg xmlns="http://www.w3.org/2000/svg" viewBox="0 0 1152 648"><defs><style>.cls-1{fill:#1e1f1e;}.cls-2{fill:#484a48;}.cls-3,.cls-4{fill:#232423;}.cls-4,.cls-5{fill-rule:evenodd;}.cls-5,.cls-6{fill:#fff;}.cls-7{fill:#79e45e;}.cls-8{fill:#e2e4e2;}</style></defs><g id="Graphic"><rect class="cls-1" width="576" height="648"/><path class="cls-2" d="M210.93,233H361.74a90.49,90.49,0,0,1,90.49,90.49h0A90.48,90.48,0,0,1,361.74,414H210.93a90.48,90.48,0,0,1-90.49-90.48h0A90.49,90.49,0,0,1,210.93,233Z"/><circle class="cls-3" cx="210.93" cy="323.5" r="75.41"/><path class="cls-4" d="M354.2,278.25a7.54,7.54,0,1,0,7.54-7.54A7.54,7.54,0,0,0,354.2,278.25Zm37.71,45.25a30.17,30.17,0,1,1-30.17-30.17A30.17,30.17,0,0,1,391.91,323.5Zm22.62,0A7.54,7.54,0,1,1,407,316,7.55,7.55,0,0,1,414.53,323.5Zm-98,7.54A7.54,7.54,0,1,0,309,323.5,7.55,7.55,0,0,0,316.5,331Zm45.24,45.24a7.54,7.54,0,1,1,7.54-7.54A7.54,7.54,0,0,1,361.74,376.28Zm-37.32-15.46a7.54,7.54,0,1,1,10.66,0A7.53,7.53,0,0,1,324.42,360.82Zm64-74.65a7.54,7.54,0,1,0,10.67,0A7.56,7.56,0,0,0,388.4,286.17Zm-64,0a7.54,7.54,0,1,1,0,10.67A7.54,7.54,0,0,1,324.42,286.17Zm74.65,64a7.54,7.54,0,1,0,0,10.66A7.54,7.54,0,0,0,399.07,350.16Z"/><path class="cls-5" d="M243.61,285.88q-1.25-.09-2.52-.09a37.71,37.71,0,0,0,0,75.41c.85,0,1.69,0,2.52-.08a45.25,45.25,0,1,1,0-75.24Z"/><path class="cls-6" d="M213.92,121.55a7.66,7.66,0,0,1,3.29,3.13,10.53,10.53,0,0,1,0,9.57,7.63,7.63,0,0,1-3.29,3.09,11.37,11.37,0,0,1-5.09,1.07h-5.59v-18h5.59A11.11,11.11,0,0,1,213.92,121.55Zm.22,13.08a7,7,0,0,0,1.82-5.16,7.13,7.13,0,0,0-1.84-5.23,7,7,0,0,0-5.29-1.88h-3.25v14.11h3.25A7.15,7.15,0,0,0,214.14,134.63Z"/><path class="cls-6" d="M221.45,127.5a6.42,6.42,0,0,1,2.41-2.54,6.61,6.61,0,0,1,3.41-.9,6.18,6.18,0,0,1,3.22.8,5.37,5.37,0,0,1,2,2v-2.57h2.37v14.12h-2.37v-2.63a5.58,5.58,0,0,1-2.07,2.05,6.22,6.22,0,0,1-3.21.81,6.36,6.36,0,0,1-3.4-.93,6.49,6.49,0,0,1-2.4-2.6,8.16,8.16,0,0,1-.87-3.81A8,8,0,0,1,221.45,127.5Zm10.43,1a4.47,4.47,0,0,0-1.73-1.82,4.94,4.94,0,0,0-4.81,0,4.4,4.4,0,0,0-1.72,1.8,5.75,5.75,0,0,0-.65,2.79,5.87,5.87,0,0,0,.65,2.82,4.48,4.48,0,0,0,1.72,1.83,4.68,4.68,0,0,0,2.4.63,4.76,4.76,0,0,0,2.41-.63,4.44,4.44,0,0,0,1.73-1.83,5.82,5.82,0,0,0,.65-2.8A5.74,5.74,0,0,0,231.88,128.54Z"/><path class="cls-6" d="M243,124.7a5.39,5.39,0,0,1,2.79-.67v2.42h-.62q-3.94,0-3.94,4.28v7.68h-2.34V124.29h2.34v2.29A4.46,4.46,0,0,1,243,124.7Z"/><path class="cls-6" d="M256.36,138.41l-5.54-6.24v6.24h-2.35V119.34h2.35v11.21l5.43-6.26h3.28l-6.65,7,6.67,7.09Z"/><path class="cls-6" d="M267.62,121.92v-2.14h4.84v18.63h-2.37V121.92Z"/><path class="cls-6" d="M277.92,122c1-1.65,2.65-2.48,5.05-2.48s4.06.83,5,2.48a13.78,13.78,0,0,1,1.45,6.92,14,14,0,0,1-1.45,7c-1,1.66-2.63,2.5-5,2.5s-4.09-.84-5.05-2.5a14.15,14.15,0,0,1-1.44-7A13.9,13.9,0,0,1,277.92,122Zm8.9,3.12a4.82,4.82,0,0,0-1.21-2.51,3.47,3.47,0,0,0-2.64-1,3.51,3.51,0,0,0-2.67,1,4.82,4.82,0,0,0-1.21,2.51,21.53,21.53,0,0,0-.29,3.8,22.23,22.23,0,0,0,.29,3.89,4.81,4.81,0,0,0,1.21,2.52,3.52,3.52,0,0,0,2.67,1,3.48,3.48,0,0,0,2.64-1,4.81,4.81,0,0,0,1.21-2.52,21.19,21.19,0,0,0,.3-3.89A20.52,20.52,0,0,0,286.82,125.1Z"/><rect class="cls-7" x="188.5" y="128.91" width="1" height="195.48"/><circle class="cls-7" cx="189" cy="324.21" r="3.76"/><circle class="cls-7" cx="189" cy="129.1" r="3.76"/><path class="cls-6" d="M386.66,121.55a7.63,7.63,0,0,1,3.3,3.13,10.53,10.53,0,0,1,0,9.57,7.6,7.6,0,0,1-3.3,3.09,11.34,11.34,0,0,1-5.09,1.07H376v-18h5.59A11.08,11.08,0,0,1,386.66,121.55Zm.22,13.08a7,7,0,0,0,1.83-5.16,7.13,7.13,0,0,0-1.84-5.23,7.06,7.06,0,0,0-5.3-1.88h-3.24v14.11h3.24A7.15,7.15,0,0,0,386.88,134.63Z"/><path class="cls-6" d="M394.2,127.5a6.28,6.28,0,0,1,2.41-2.54,6.58,6.58,0,0,1,3.41-.9,6.21,6.21,0,0,1,3.22.8,5.27,5.27,0,0,1,2,2v-2.57h2.37v14.12h-2.37v-2.63a5.51,5.51,0,0,1-2.07,2.05,6.22,6.22,0,0,1-3.21.81,6.38,6.38,0,0,1-5.79-3.53,8,8,0,0,1-.88-3.81A7.84,7.84,0,0,1,394.2,127.5Zm10.43,1a4.56,4.56,0,0,0-1.74-1.82,4.92,4.92,0,0,0-4.8,0,4.48,4.48,0,0,0-1.73,1.8,5.75,5.75,0,0,0-.64,2.79,5.87,5.87,0,0,0,.64,2.82,4.57,4.57,0,0,0,1.73,1.83,4.67,4.67,0,0,0,2.39.63,4.74,4.74,0,0,0,2.41-.63,4.52,4.52,0,0,0,1.74-1.83,5.82,5.82,0,0,0,.64-2.8A5.74,5.74,0,0,0,404.63,128.54Z"/><path class="cls-6" d="M415.72,124.7a5.43,5.43,0,0,1,2.8-.67v2.42h-.62q-3.94,0-3.94,4.28v7.68h-2.35V124.29H414v2.29A4.5,4.5,0,0,1,415.72,124.7Z"/><path class="cls-6" d="M429.1,138.41l-5.54-6.24v6.24h-2.34V119.34h2.34v11.21l5.44-6.26h3.27l-6.65,7,6.68,7.09Z"/><path class="cls-6" d="M442.42,122c1-1.65,2.65-2.48,5.05-2.48s4.06.83,5,2.48a13.78,13.78,0,0,1,1.45,6.92,14,14,0,0,1-1.45,7c-1,1.66-2.63,2.5-5,2.5s-4.09-.84-5.05-2.5a14.15,14.15,0,0,1-1.44-7A13.9,13.9,0,0,1,442.42,122Zm8.9,3.12a4.82,4.82,0,0,0-1.21-2.51,3.47,3.47,0,0,0-2.64-1,3.51,3.51,0,0,0-2.67,1,4.9,4.9,0,0,0-1.21,2.51,21.53,21.53,0,0,0-.29,3.8,22.23,22.23,0,0,0,.29,3.89,4.89,4.89,0,0,0,1.21,2.52,3.52,3.52,0,0,0,2.67,1,3.48,3.48,0,0,0,2.64-1,4.81,4.81,0,0,0,1.21-2.52,21.19,21.19,0,0,0,.3-3.89A20.52,20.52,0,0,0,451.32,125.1Z"/><rect class="cls-7" x="361.24" y="128.91" width="1" height="195.48"/><circle class="cls-7" cx="361.74" cy="324.21" r="3.76"/><circle class="cls-7" cx="361.74" cy="129.1" r="3.76"/><rect class="cls-7" x="361.24" y="393.59" width="1" height="122.72"/><circle class="cls-7" cx="361.74" cy="516.12" r="3.76"/><circle class="cls-7" cx="361.74" cy="393.78" r="3.76"/><path class="cls-6" d="M386.66,501.32a7.63,7.63,0,0,1,3.3,3.13,10.53,10.53,0,0,1,0,9.57,7.48,7.48,0,0,1-3.3,3.09,11.34,11.34,0,0,1-5.09,1.07H376V500.23h5.59A11.08,11.08,0,0,1,386.66,501.32Zm.22,13.09a7,7,0,0,0,1.83-5.17,6.47,6.47,0,0,0-7.14-7.11h-3.24v14.12h3.24A7.15,7.15,0,0,0,386.88,514.41Z"/><path class="cls-6" d="M394.2,507.27a6.28,6.28,0,0,1,2.41-2.54,6.58,6.58,0,0,1,3.41-.9,6.3,6.3,0,0,1,3.22.8,5.23,5.23,0,0,1,2,2v-2.58h2.37v14.12h-2.37v-2.63a5.43,5.43,0,0,1-2.07,2.05,6.22,6.22,0,0,1-3.21.81,6.33,6.33,0,0,1-5.79-3.53,8,8,0,0,1-.88-3.81A7.87,7.87,0,0,1,394.2,507.27Zm10.43,1a4.53,4.53,0,0,0-1.74-1.81,4.74,4.74,0,0,0-2.41-.63,4.66,4.66,0,0,0-2.39.62,4.48,4.48,0,0,0-1.73,1.8,5.74,5.74,0,0,0-.64,2.78,5.87,5.87,0,0,0,.64,2.82,4.57,4.57,0,0,0,1.73,1.83,4.67,4.67,0,0,0,2.39.63,4.74,4.74,0,0,0,2.41-.63,4.52,4.52,0,0,0,1.74-1.83,6.4,6.4,0,0,0,0-5.58Z"/><path class="cls-6" d="M415.72,504.48a5.43,5.43,0,0,1,2.8-.67v2.42h-.62q-3.94,0-3.94,4.27v7.68h-2.35V504.06H414v2.3A4.44,4.44,0,0,1,415.72,504.48Z"/><path class="cls-6" d="M429.1,518.18,423.56,512v6.23h-2.34V499.12h2.34v11.2l5.44-6.26h3.27l-6.65,7,6.68,7.08Z"/><path class="cls-6" d="M440.36,501.69v-2.13h4.84v18.62h-2.37V501.69Z"/><rect class="cls-7" x="188.5" y="379.85" width="1" height="136.45"/><circle class="cls-7" cx="189" cy="516.12" r="3.76"/><path class="cls-7" d="M192.76,380A3.76,3.76,0,1,0,189,383.8,3.76,3.76,0,0,0,192.76,380Z"/><path class="cls-6" d="M213.92,501.32a7.66,7.66,0,0,1,3.29,3.13,10.53,10.53,0,0,1,0,9.57,7.51,7.51,0,0,1-3.29,3.09,11.37,11.37,0,0,1-5.09,1.07h-5.59V500.23h5.59A11.1,11.1,0,0,1,213.92,501.32Zm.22,13.09a7,7,0,0,0,1.82-5.17,7.16,7.16,0,0,0-1.84-5.23,7.09,7.09,0,0,0-5.29-1.88h-3.25v14.12h3.25A7.15,7.15,0,0,0,214.14,514.41Z"/><path class="cls-6" d="M221.45,507.27a6.42,6.42,0,0,1,2.41-2.54,6.61,6.61,0,0,1,3.41-.9,6.28,6.28,0,0,1,3.22.8,5.33,5.33,0,0,1,2,2v-2.58h2.37v14.12h-2.37v-2.63a5.51,5.51,0,0,1-2.07,2.05,6.22,6.22,0,0,1-3.21.81,6.44,6.44,0,0,1-3.4-.92,6.52,6.52,0,0,1-2.4-2.61,8.11,8.11,0,0,1-.87-3.81A8,8,0,0,1,221.45,507.27Zm10.43,1a4.44,4.44,0,0,0-1.73-1.81,4.76,4.76,0,0,0-2.41-.63,4.67,4.67,0,0,0-2.4.62,4.4,4.4,0,0,0-1.72,1.8,5.74,5.74,0,0,0-.65,2.78,5.87,5.87,0,0,0,.65,2.82,4.48,4.48,0,0,0,1.72,1.83,4.68,4.68,0,0,0,2.4.63,4.76,4.76,0,0,0,2.41-.63,4.44,4.44,0,0,0,1.73-1.83,6.31,6.31,0,0,0,0-5.58Z"/><path class="cls-6" d="M243,504.48a5.39,5.39,0,0,1,2.79-.67v2.42h-.62q-3.94,0-3.94,4.27v7.68h-2.34V504.06h2.34v2.3A4.41,4.41,0,0,1,243,504.48Z"/><path class="cls-6" d="M256.36,518.18,250.82,512v6.23h-2.35V499.12h2.35v11.2l5.43-6.26h3.28l-6.65,7,6.67,7.08Z"/><path class="cls-6" d="M269.68,501.76q1.44-2.49,5.05-2.49c2.38,0,4.06.83,5,2.49a13.87,13.87,0,0,1,1.44,6.92,14.11,14.11,0,0,1-1.44,7c-1,1.67-2.64,2.5-5,2.5s-4.09-.83-5.05-2.5a14,14,0,0,1-1.45-7A13.76,13.76,0,0,1,269.68,501.76Zm8.9,3.12a4.89,4.89,0,0,0-1.21-2.52,3.51,3.51,0,0,0-2.64-.95,3.55,3.55,0,0,0-2.67.95,4.89,4.89,0,0,0-1.21,2.52,20.37,20.37,0,0,0-.3,3.8,21.27,21.27,0,0,0,.3,3.89,4.89,4.89,0,0,0,1.21,2.52,3.51,3.51,0,0,0,2.67.95,3.47,3.47,0,0,0,2.64-.95,4.89,4.89,0,0,0,1.21-2.52,22.31,22.31,0,0,0,.29-3.89A21.37,21.37,0,0,0,278.58,504.88Z"/><path class="cls-8" d="M782.81,233H933.62a90.49,90.49,0,0,1,90.49,90.49h0A90.48,90.48,0,0,1,933.62,414H782.81a90.48,90.48,0,0,1-90.49-90.48h0A90.49,90.49,0,0,1,782.81,233Z"/><circle class="cls-6" cx="933.62" cy="323.5" r="75.41"/><path class="cls-4" d="M926.08,278.25a7.54,7.54,0,1,0,7.54-7.54A7.54,7.54,0,0,0,926.08,278.25Zm37.7,45.25a30.16,30.16,0,1,1-30.16-30.17A30.16,30.16,0,0,1,963.78,323.5Zm22.63,0a7.54,7.54,0,1,1-7.54-7.54A7.55,7.55,0,0,1,986.41,323.5Zm-98,7.54a7.54,7.54,0,1,0-7.54-7.54A7.55,7.55,0,0,0,888.38,331Zm45.24,45.24a7.54,7.54,0,1,1,7.54-7.54A7.54,7.54,0,0,1,933.62,376.28ZM896.3,360.82a7.54,7.54,0,1,1,10.66,0A7.53,7.53,0,0,1,896.3,360.82Zm64-74.65a7.54,7.54,0,1,0,10.67,0A7.56,7.56,0,0,0,960.28,286.17Zm-64,0a7.54,7.54,0,1,1,0,10.67A7.54,7.54,0,0,1,896.3,286.17Zm74.65,64a7.54,7.54,0,1,0,0,10.66A7.54,7.54,0,0,0,971,350.16Z"/><path class="cls-5" d="M815.49,285.88q-1.25-.09-2.52-.09a37.71,37.71,0,0,0,0,75.41c.85,0,1.69,0,2.52-.08a45.25,45.25,0,1,1,0-75.24Z"/><path d="M777.46,137.39h6.29v1.9h-8.63V121.34h2.34Z"/><path d="M786.32,122.42a1.6,1.6,0,0,1,1.14-2.73,1.45,1.45,0,0,1,1.09.46,1.66,1.66,0,0,1,0,2.27,1.45,1.45,0,0,1-1.09.46A1.55,1.55,0,0,1,786.32,122.42Zm2.27,2.76v14.11h-2.34V125.18Z"/><path d="M801.61,125.74a5.29,5.29,0,0,1,2,2v-2.57H806V139.6a7.14,7.14,0,0,1-.82,3.44,5.89,5.89,0,0,1-2.36,2.36,7.3,7.3,0,0,1-3.57.85,7.82,7.82,0,0,1-4.64-1.32,5.17,5.17,0,0,1-2.19-3.58h2.32a3.72,3.72,0,0,0,1.6,2.08,5.27,5.27,0,0,0,2.91.78,4.3,4.3,0,0,0,3.16-1.21,4.59,4.59,0,0,0,1.22-3.4v-3a5.65,5.65,0,0,1-2.06,2.06,6.07,6.07,0,0,1-3.2.82,6.44,6.44,0,0,1-3.41-.92,6.54,6.54,0,0,1-2.41-2.61,8.11,8.11,0,0,1-.87-3.81,8,8,0,0,1,.87-3.8,6.48,6.48,0,0,1,2.41-2.54,6.61,6.61,0,0,1,3.41-.9A6.32,6.32,0,0,1,801.61,125.74Zm1.41,3.69a4.56,4.56,0,0,0-1.74-1.82,4.76,4.76,0,0,0-2.41-.63,4.67,4.67,0,0,0-2.4.62,4.46,4.46,0,0,0-1.72,1.8,5.74,5.74,0,0,0-.65,2.78,5.87,5.87,0,0,0,.65,2.82,4.54,4.54,0,0,0,1.72,1.83,4.68,4.68,0,0,0,2.4.63,4.76,4.76,0,0,0,2.41-.63A4.52,4.52,0,0,0,803,135a5.8,5.8,0,0,0,.64-2.79A5.71,5.71,0,0,0,803,129.43Z"/><path d="M819.89,125.6a4.87,4.87,0,0,1,2,2.05,6.93,6.93,0,0,1,.74,3.32v8.32h-2.32v-8a4.53,4.53,0,0,0-1.06-3.24,3.78,3.78,0,0,0-2.88-1.12,3.87,3.87,0,0,0-2.95,1.16,4.74,4.74,0,0,0-1.1,3.38v7.8H810V120.23h2.34v7a4.73,4.73,0,0,1,1.92-1.67,6.57,6.57,0,0,1,5.63.09Z"/><path d="M829.34,127.11v8.32a2,2,0,0,0,.44,1.45,2.12,2.12,0,0,0,1.52.43H833v2h-2.11a4.21,4.21,0,0,1-2.94-.9,3.88,3.88,0,0,1-1-3v-8.32h-1.83v-1.93H827v-3.56h2.34v3.56H833v1.93Z"/><path d="M841.74,122.8v-2.13h4.84v18.62h-2.37V122.8Z"/><path d="M852,122.87q1.44-2.49,5.05-2.49t5,2.49a13.87,13.87,0,0,1,1.45,6.92,14.1,14.1,0,0,1-1.45,7q-1.44,2.51-5,2.5t-5.05-2.5a14.11,14.11,0,0,1-1.44-7A13.87,13.87,0,0,1,852,122.87Zm8.9,3.12a4.89,4.89,0,0,0-1.21-2.52,3.51,3.51,0,0,0-2.64-1,3.55,3.55,0,0,0-2.67,1,4.89,4.89,0,0,0-1.21,2.52,20.54,20.54,0,0,0-.29,3.8,21.37,21.37,0,0,0,.29,3.89,4.85,4.85,0,0,0,1.21,2.52,3.51,3.51,0,0,0,2.67,1,3.47,3.47,0,0,0,2.64-1,4.85,4.85,0,0,0,1.21-2.52,21.27,21.27,0,0,0,.3-3.89A20.45,20.45,0,0,0,860.94,126Z"/><rect class="cls-7" x="760.38" y="129.8" width="1" height="195.48"/><circle class="cls-7" cx="760.88" cy="325.09" r="3.76"/><circle class="cls-7" cx="760.88" cy="129.99" r="3.76"/><path d="M958.54,122.43a7.8,7.8,0,0,1,3.3,3.13,10.61,10.61,0,0,1,0,9.57,7.59,7.59,0,0,1-3.3,3.09,11.21,11.21,0,0,1-5.09,1.07h-5.59V121.34h5.59A11.08,11.08,0,0,1,958.54,122.43Zm.22,13.09a7,7,0,0,0,1.83-5.17,7.2,7.2,0,0,0-1.84-5.23,7.11,7.11,0,0,0-5.3-1.88h-3.24v14.12h3.24A7.15,7.15,0,0,0,958.76,135.52Z"/><path d="M966.07,128.38a6.48,6.48,0,0,1,2.41-2.54,6.62,6.62,0,0,1,3.42-.9,6.3,6.3,0,0,1,3.22.8,5.23,5.23,0,0,1,2,2v-2.57h2.37v14.11h-2.37v-2.63a5.43,5.43,0,0,1-2.07,2.05,6.22,6.22,0,0,1-3.21.81,6.38,6.38,0,0,1-3.4-.92,6.59,6.59,0,0,1-2.4-2.61,8.11,8.11,0,0,1-.87-3.81A8,8,0,0,1,966.07,128.38Zm10.44,1.05a4.56,4.56,0,0,0-1.74-1.82,4.94,4.94,0,0,0-4.81,0,4.46,4.46,0,0,0-1.72,1.8,5.74,5.74,0,0,0-.65,2.78,5.87,5.87,0,0,0,.65,2.82,4.54,4.54,0,0,0,1.72,1.83,4.91,4.91,0,0,0,4.81,0,4.52,4.52,0,0,0,1.74-1.83,5.8,5.8,0,0,0,.64-2.79A5.71,5.71,0,0,0,976.51,129.43Z"/><path d="M987.6,125.59a5.39,5.39,0,0,1,2.79-.67v2.42h-.61c-2.63,0-3.95,1.42-3.95,4.28v7.67h-2.34V125.18h2.34v2.29A4.47,4.47,0,0,1,987.6,125.59Z"/><path d="M1001,139.29l-5.54-6.23v6.23H993.1V120.23h2.34v11.21l5.44-6.26h3.27l-6.65,7,6.68,7.08Z"/><path d="M1012.24,122.8v-2.13h4.84v18.62h-2.37V122.8Z"/><path d="M1022.54,122.87q1.46-2.49,5-2.49c2.39,0,4.06.83,5,2.49a13.87,13.87,0,0,1,1.44,6.92,14.11,14.11,0,0,1-1.44,7c-1,1.67-2.64,2.5-5,2.5s-4.08-.83-5-2.5a14.11,14.11,0,0,1-1.44-7A13.87,13.87,0,0,1,1022.54,122.87Zm8.9,3.12a4.81,4.81,0,0,0-1.21-2.52,4.17,4.17,0,0,0-5.3,0,4.81,4.81,0,0,0-1.21,2.52,20.45,20.45,0,0,0-.3,3.8,21.27,21.27,0,0,0,.3,3.89,4.78,4.78,0,0,0,1.21,2.52,4.17,4.17,0,0,0,5.3,0,4.78,4.78,0,0,0,1.21-2.52,21.27,21.27,0,0,0,.3-3.89A20.45,20.45,0,0,0,1031.44,126Z"/><rect class="cls-7" x="933.12" y="129.8" width="1" height="195.48"/><circle class="cls-7" cx="933.62" cy="325.09" r="3.76"/><circle class="cls-7" cx="933.62" cy="129.99" r="3.76"/><rect class="cls-7" x="933.12" y="394.48" width="1" height="122.72"/><circle class="cls-7" cx="933.62" cy="517.01" r="3.76"/><circle class="cls-7" cx="933.62" cy="394.67" r="3.76"/><path d="M958.54,502.21a7.74,7.74,0,0,1,3.3,3.13,10.61,10.61,0,0,1,0,9.57,7.59,7.59,0,0,1-3.3,3.09,11.34,11.34,0,0,1-5.09,1.07h-5.59v-18h5.59A11.08,11.08,0,0,1,958.54,502.21Zm.22,13.08a7,7,0,0,0,1.83-5.16,7.19,7.19,0,0,0-1.84-5.23,7.11,7.11,0,0,0-5.3-1.88h-3.24v14.12h3.24A7.16,7.16,0,0,0,958.76,515.29Z"/><path d="M966.07,508.16a6.42,6.42,0,0,1,2.41-2.54,6.62,6.62,0,0,1,3.42-.9,6.21,6.21,0,0,1,3.22.8,5.23,5.23,0,0,1,2,2V505h2.37v14.12h-2.37v-2.63a5.51,5.51,0,0,1-2.07,2,6.22,6.22,0,0,1-3.21.81,6.39,6.39,0,0,1-3.4-.93,6.56,6.56,0,0,1-2.4-2.6,8.16,8.16,0,0,1-.87-3.81A8,8,0,0,1,966.07,508.16Zm10.44,1a4.62,4.62,0,0,0-1.74-1.82,4.74,4.74,0,0,0-2.41-.63,4.79,4.79,0,0,0-2.4.62,4.53,4.53,0,0,0-1.72,1.8,5.78,5.78,0,0,0-.65,2.79,5.87,5.87,0,0,0,.65,2.82,4.54,4.54,0,0,0,1.72,1.83,4.91,4.91,0,0,0,4.81,0,4.52,4.52,0,0,0,1.74-1.83,5.82,5.82,0,0,0,.64-2.8A5.74,5.74,0,0,0,976.51,509.2Z"/><path d="M987.6,505.36a5.49,5.49,0,0,1,2.79-.67v2.42h-.61q-3.94,0-3.95,4.28v7.68h-2.34V505h2.34v2.29A4.58,4.58,0,0,1,987.6,505.36Z"/><path d="M1001,519.07l-5.54-6.24v6.24H993.1V500h2.34v11.21l5.44-6.26h3.27l-6.65,7,6.68,7.09Z"/><path d="M1014.3,502.64q1.44-2.47,5.05-2.48t5,2.48a13.89,13.89,0,0,1,1.45,6.92,14.14,14.14,0,0,1-1.45,7c-1,1.66-2.63,2.5-5,2.5s-4.09-.84-5.05-2.5a14.15,14.15,0,0,1-1.44-7A13.9,13.9,0,0,1,1014.3,502.64Zm8.9,3.12a4.86,4.86,0,0,0-1.21-2.51,3.47,3.47,0,0,0-2.64-.95,3.51,3.51,0,0,0-2.67.95,4.86,4.86,0,0,0-1.21,2.51,20.61,20.61,0,0,0-.29,3.8,21.3,21.3,0,0,0,.29,3.89,4.89,4.89,0,0,0,1.21,2.53,3.55,3.55,0,0,0,2.67.95A3.51,3.51,0,0,0,1022,516a4.89,4.89,0,0,0,1.21-2.53,21.19,21.19,0,0,0,.3-3.89A20.52,20.52,0,0,0,1023.2,505.76Z"/><rect class="cls-7" x="760.38" y="380.74" width="1" height="136.45"/><circle class="cls-7" cx="760.88" cy="517.01" r="3.76"/><circle class="cls-7" cx="760.88" cy="380.93" r="3.76"/><path d="M777.46,517.16h6.29v1.91h-8.63v-18h2.34Z"/><path d="M786.32,502.19a1.62,1.62,0,0,1,0-2.26,1.55,1.55,0,0,1,1.14-.47,1.46,1.46,0,0,1,1.09.47,1.64,1.64,0,0,1,0,2.26,1.46,1.46,0,0,1-1.09.47A1.55,1.55,0,0,1,786.32,502.19Zm2.27,2.76v14.12h-2.34V505Z"/><path d="M801.61,505.52a5.29,5.29,0,0,1,2,2V505H806v14.43a7.2,7.2,0,0,1-.82,3.44,5.87,5.87,0,0,1-2.36,2.35,7.2,7.2,0,0,1-3.57.85,7.82,7.82,0,0,1-4.64-1.31,5.19,5.19,0,0,1-2.19-3.58h2.32a3.67,3.67,0,0,0,1.6,2.07,5.19,5.19,0,0,0,2.91.79,4.34,4.34,0,0,0,3.16-1.21,4.59,4.59,0,0,0,1.22-3.4v-3a5.5,5.5,0,0,1-2.06,2.06,6.08,6.08,0,0,1-3.2.83,6.44,6.44,0,0,1-3.41-.93,6.51,6.51,0,0,1-2.41-2.6,8.16,8.16,0,0,1-.87-3.81,8,8,0,0,1,.87-3.8,6.42,6.42,0,0,1,2.41-2.54,6.61,6.61,0,0,1,3.41-.9A6.22,6.22,0,0,1,801.61,505.52ZM803,509.2a4.62,4.62,0,0,0-1.74-1.82,4.94,4.94,0,0,0-4.81,0,4.53,4.53,0,0,0-1.72,1.8,5.78,5.78,0,0,0-.65,2.79,5.87,5.87,0,0,0,.65,2.82,4.54,4.54,0,0,0,1.72,1.83,4.68,4.68,0,0,0,2.4.63,4.76,4.76,0,0,0,2.41-.63,4.52,4.52,0,0,0,1.74-1.83,5.82,5.82,0,0,0,.64-2.8A5.74,5.74,0,0,0,803,509.2Z"/><path d="M819.89,505.38a4.79,4.79,0,0,1,2,2,6.94,6.94,0,0,1,.74,3.33v8.32h-2.32v-8a4.51,4.51,0,0,0-1.06-3.23,3.74,3.74,0,0,0-2.88-1.12,3.83,3.83,0,0,0-2.95,1.16,4.71,4.71,0,0,0-1.1,3.37v7.81H810V500h2.34v7a4.75,4.75,0,0,1,1.92-1.68,6.29,6.29,0,0,1,2.74-.59A6,6,0,0,1,819.89,505.38Z"/><path d="M829.34,506.88v8.32a2,2,0,0,0,.44,1.46,2.18,2.18,0,0,0,1.52.42H833v2h-2.11a4.21,4.21,0,0,1-2.94-.9,3.9,3.9,0,0,1-1-3v-8.32h-1.83V505H827v-3.56h2.34V505H833v1.93Z"/><path d="M841.74,502.58v-2.14h4.84v18.63h-2.37V502.58Z"/></g></svg>