<svg xmlns="http://www.w3.org/2000/svg" viewBox="0 0 1152 648"><defs><style>.cls-1{fill:#79e45e;}.cls-2{fill:none;}.cls-2,.cls-3{stroke:#abff90;stroke-miterlimit:10;stroke-width:0.86px;}.cls-3{fill:#52c13e;}.cls-4{fill:#fff;}</style></defs><g id="Background"><rect class="cls-1" width="1152" height="648"/></g><g id="Graphic"><path d="M896.94,346.8H757.76L735.24,198.92a93.17,93.17,0,1,1,184.22,0ZM797,301.19h60.8l16.62-109.14a47.56,47.56,0,1,0-94,0Z"/><path d="M1013.54,556.73H641.16V440.47l13.06-6.38a392.21,392.21,0,0,1,346.26,0l13.06,6.38ZM687.71,510.18H967V469.86a345.25,345.25,0,0,0-279.28,0Z"/><line class="cls-2" x1="1083.36" y1="44.71" x2="1083.36" y2="603.28"/><line class="cls-2" x1="1106.63" y1="44.71" x2="1106.63" y2="603.28"/><line class="cls-2" x1="1060.09" y1="44.71" x2="1060.09" y2="603.28"/><line class="cls-2" x1="1036.81" y1="44.71" x2="1036.81" y2="603.28"/><line class="cls-2" x1="1013.54" y1="44.71" x2="1013.54" y2="603.28"/><line class="cls-2" x1="990.27" y1="44.71" x2="990.27" y2="603.28"/><line class="cls-2" x1="966.99" y1="44.71" x2="966.99" y2="603.28"/><line class="cls-2" x1="943.72" y1="44.71" x2="943.72" y2="603.28"/><line class="cls-2" x1="920.44" y1="44.71" x2="920.44" y2="603.28"/><line class="cls-2" x1="897.17" y1="44.72" x2="897.17" y2="603.28"/><line class="cls-2" x1="873.9" y1="44.72" x2="873.9" y2="603.28"/><line class="cls-2" x1="850.62" y1="44.72" x2="850.62" y2="603.28"/><line class="cls-2" x1="827.35" y1="44.72" x2="827.35" y2="603.28"/><line class="cls-2" x1="804.08" y1="44.72" x2="804.08" y2="603.28"/><line class="cls-2" x1="780.8" y1="44.72" x2="780.8" y2="603.29"/><line class="cls-2" x1="757.53" y1="44.72" x2="757.53" y2="603.29"/><line class="cls-2" x1="734.26" y1="44.72" x2="734.26" y2="603.29"/><line class="cls-2" x1="710.98" y1="44.72" x2="710.98" y2="603.29"/><line class="cls-2" x1="687.71" y1="44.72" x2="687.71" y2="603.29"/><line class="cls-2" x1="664.43" y1="44.72" x2="664.43" y2="603.29"/><line class="cls-2" x1="641.16" y1="44.72" x2="641.16" y2="603.29"/><line class="cls-2" x1="617.89" y1="44.72" x2="617.89" y2="603.29"/><line class="cls-2" x1="594.61" y1="44.72" x2="594.61" y2="603.29"/><line class="cls-2" x1="571.34" y1="44.72" x2="571.34" y2="603.29"/><line class="cls-2" x1="548.06" y1="44.72" x2="548.06" y2="603.29"/><line class="cls-2" x1="548.06" y1="67.99" x2="1106.63" y2="67.99"/><line class="cls-2" x1="548.06" y1="44.72" x2="1106.63" y2="44.72"/><line class="cls-2" x1="548.06" y1="91.26" x2="1106.63" y2="91.26"/><line class="cls-2" x1="548.06" y1="114.54" x2="1106.63" y2="114.54"/><line class="cls-2" x1="548.06" y1="137.81" x2="1106.63" y2="137.81"/><line class="cls-2" x1="548.06" y1="161.08" x2="1106.63" y2="161.08"/><line class="cls-2" x1="548.06" y1="184.36" x2="1106.63" y2="184.36"/><line class="cls-2" x1="548.06" y1="207.63" x2="1106.63" y2="207.63"/><line class="cls-2" x1="548.07" y1="230.91" x2="1106.63" y2="230.91"/><line class="cls-2" x1="548.07" y1="254.18" x2="1106.63" y2="254.18"/><line class="cls-2" x1="548.07" y1="277.45" x2="1106.63" y2="277.45"/><line class="cls-2" x1="548.07" y1="300.73" x2="1106.63" y2="300.73"/><line class="cls-2" x1="548.07" y1="324" x2="1106.63" y2="324"/><line class="cls-2" x1="548.07" y1="347.27" x2="1106.63" y2="347.27"/><line class="cls-2" x1="548.07" y1="370.55" x2="1106.64" y2="370.55"/><line class="cls-2" x1="548.07" y1="393.82" x2="1106.64" y2="393.82"/><line class="cls-2" x1="548.07" y1="417.09" x2="1106.64" y2="417.09"/><line class="cls-2" x1="548.07" y1="440.37" x2="1106.64" y2="440.37"/><line class="cls-2" x1="548.07" y1="463.64" x2="1106.64" y2="463.64"/><line class="cls-2" x1="548.07" y1="486.92" x2="1106.64" y2="486.92"/><line class="cls-2" x1="548.07" y1="510.19" x2="1106.64" y2="510.19"/><line class="cls-2" x1="548.07" y1="533.46" x2="1106.64" y2="533.46"/><line class="cls-2" x1="548.07" y1="556.74" x2="1106.64" y2="556.74"/><line class="cls-2" x1="548.07" y1="580.01" x2="1106.64" y2="580.01"/><line class="cls-2" x1="548.07" y1="603.29" x2="1106.64" y2="603.29"/><path d="M277.91,253.94H185.2L163.8,151.61a69.22,69.22,0,1,1,135.51,0Zm-74.19-22.8h55.66L277,147a46.42,46.42,0,1,0-90.87,0Z"/><path d="M371,393.59H92.14V301l7.91-2.54a426.11,426.11,0,0,1,263,0L371,301Zm-256-22.8H348.16V317.73a403,403,0,0,0-233.21,0Z"/><line class="cls-3" x1="45.36" y1="417.1" x2="417.75" y2="417.1"/><line class="cls-3" x1="45.36" y1="393.82" x2="417.75" y2="393.82"/><line class="cls-3" x1="45.36" y1="370.55" x2="417.75" y2="370.55"/><line class="cls-3" x1="45.36" y1="347.28" x2="417.75" y2="347.28"/><line class="cls-3" x1="45.36" y1="324" x2="417.75" y2="324"/><line class="cls-3" x1="45.36" y1="300.73" x2="417.75" y2="300.73"/><line class="cls-3" x1="45.36" y1="277.45" x2="417.75" y2="277.45"/><line class="cls-3" x1="45.36" y1="254.18" x2="417.75" y2="254.18"/><line class="cls-3" x1="45.36" y1="230.91" x2="417.75" y2="230.91"/><line class="cls-3" x1="45.36" y1="207.63" x2="417.75" y2="207.63"/><line class="cls-3" x1="45.36" y1="184.36" x2="417.75" y2="184.36"/><line class="cls-3" x1="45.36" y1="161.08" x2="417.75" y2="161.08"/><line class="cls-3" x1="45.36" y1="137.81" x2="417.75" y2="137.81"/><line class="cls-3" x1="45.36" y1="114.53" x2="417.75" y2="114.53"/><line class="cls-3" x1="45.36" y1="91.26" x2="417.75" y2="91.26"/><line class="cls-3" x1="45.36" y1="67.99" x2="417.75" y2="67.99"/><line class="cls-3" x1="45.36" y1="44.71" x2="417.75" y2="44.71"/><line class="cls-3" x1="45.36" y1="44.71" x2="45.36" y2="417.1"/><line class="cls-3" x1="68.63" y1="44.71" x2="68.63" y2="417.1"/><line class="cls-3" x1="91.91" y1="44.71" x2="91.91" y2="417.1"/><line class="cls-3" x1="115.18" y1="44.71" x2="115.18" y2="417.1"/><line class="cls-3" x1="138.46" y1="44.71" x2="138.46" y2="417.1"/><line class="cls-3" x1="161.73" y1="44.71" x2="161.73" y2="417.1"/><line class="cls-3" x1="185.01" y1="44.71" x2="185.01" y2="417.1"/><line class="cls-3" x1="208.28" y1="44.71" x2="208.28" y2="417.1"/><line class="cls-3" x1="231.55" y1="44.71" x2="231.55" y2="417.1"/><line class="cls-3" x1="254.83" y1="44.71" x2="254.83" y2="417.1"/><line class="cls-3" x1="278.1" y1="44.71" x2="278.1" y2="417.1"/><line class="cls-3" x1="301.38" y1="44.71" x2="301.38" y2="417.1"/><line class="cls-3" x1="324.65" y1="44.71" x2="324.65" y2="417.1"/><line class="cls-3" x1="347.92" y1="44.71" x2="347.92" y2="417.1"/><line class="cls-3" x1="371.2" y1="44.71" x2="371.2" y2="417.1"/><line class="cls-3" x1="394.47" y1="44.71" x2="394.47" y2="417.1"/><line class="cls-3" x1="417.75" y1="44.71" x2="417.75" y2="417.1"/><rect class="cls-4" x="1010.64" y="437" width="6" height="6"/><rect class="cls-4" x="1010.64" y="553" width="6" height="6"/><rect class="cls-4" x="639.26" y="554" width="4" height="4"/><rect class="cls-4" x="684.64" y="507" width="6" height="6"/><rect class="cls-4" x="684.64" y="467" width="6" height="6"/><rect class="cls-4" x="963.99" y="507" width="6" height="6"/><rect class="cls-4" x="963.99" y="467" width="6" height="6"/><rect class="cls-4" x="824.35" y="390.81" width="6" height="6"/><rect class="cls-4" x="368.2" y="297.99" width="6" height="6"/><rect class="cls-4" x="344.92" y="314.94" width="6" height="6"/><rect class="cls-4" x="89.14" y="298.03" width="6" height="6" transform="translate(184.29 602.06) rotate(-180)"/><rect class="cls-4" x="89.14" y="390.59" width="6" height="6" transform="translate(184.29 787.18) rotate(-180)"/><rect class="cls-4" x="112.42" y="367.55" width="6" height="6" transform="translate(230.83 741.1) rotate(-180)"/><rect class="cls-4" x="344.92" y="367.55" width="6" height="6" transform="translate(695.85 741.1) rotate(-180)"/><rect class="cls-4" x="368.2" y="390.82" width="6" height="6" transform="translate(742.4 787.65) rotate(-180)"/><rect class="cls-4" x="112.42" y="314.99" width="6" height="6" transform="translate(230.83 635.97) rotate(-180)"/><rect class="cls-4" x="228.55" y="297.99" width="6" height="6"/><rect class="cls-4" x="228.55" y="274.45" width="6" height="6"/><rect class="cls-4" x="274.91" y="250.94" width="6" height="6"/><rect class="cls-4" x="256.32" y="228.14" width="6" height="6"/><rect class="cls-4" x="274.98" y="134.81" width="6" height="6"/><rect class="cls-4" x="297.79" y="134.81" width="6" height="6"/><rect class="cls-4" x="182.13" y="250.94" width="6" height="6" transform="translate(370.26 507.89) rotate(-180)"/><rect class="cls-4" x="200.72" y="228.14" width="6" height="6" transform="translate(407.45 462.28) rotate(-180)"/><rect class="cls-4" x="182.06" y="134.81" width="6" height="6" transform="translate(370.12 275.62) rotate(-180)"/><rect class="cls-4" x="159.25" y="134.81" width="6" height="6" transform="translate(324.5 275.62) rotate(-180)"/><rect class="cls-4" x="228.55" y="88.26" width="6" height="6"/><rect class="cls-4" x="228.55" y="64.99" width="6" height="6"/><rect class="cls-4" x="893.94" y="343.8" width="6" height="6"/><rect class="cls-4" x="917.44" y="181.36" width="6" height="6"/><rect class="cls-4" x="870.9" y="181.36" width="6" height="6"/><rect class="cls-4" x="824.35" y="134.81" width="6" height="6" transform="translate(965.16 -689.54) rotate(90)"/><rect class="cls-4" x="824.35" y="88.26" width="6" height="6" transform="translate(918.61 -736.08) rotate(90)"/><rect class="cls-4" x="777.8" y="181.36" width="6" height="6"/><rect class="cls-4" x="731.18" y="181.36" width="6" height="6"/><rect class="cls-4" x="754.53" y="343.8" width="6" height="6"/><rect class="cls-4" x="793.91" y="297.73" width="6" height="6"/><rect class="cls-4" x="854.85" y="297.73" width="6" height="6"/><rect class="cls-4" x="824.35" y="437" width="6" height="6"/><rect class="cls-4" x="639.16" y="438.37" width="4" height="4"/><path d="M430.81,590.74v12.55h-1.64V590.74Z"/><path d="M441.33,594.34a4.19,4.19,0,0,1,1.11,3.14v5.81h-1.62v-5.58a3.19,3.19,0,0,0-.74-2.26,2.63,2.63,0,0,0-2-.78,2.69,2.69,0,0,0-2.06.81,3.3,3.3,0,0,0-.77,2.36v5.45H433.6v-9.86h1.64v1.4a3.33,3.33,0,0,1,1.32-1.17,4.08,4.08,0,0,1,1.85-.41A4,4,0,0,1,441.33,594.34Z"/><path d="M447.12,594.78v5.81a1.37,1.37,0,0,0,.31,1,1.49,1.49,0,0,0,1.06.29h1.21v1.39h-1.48a2.93,2.93,0,0,1-2.05-.63,2.69,2.69,0,0,1-.69-2.07v-5.81h-1.27v-1.35h1.27v-2.49h1.64v2.49h2.58v1.35Z"/><path d="M460.62,599h-7.88a3.1,3.1,0,0,0,3.2,3.1,3,3,0,0,0,1.77-.5,2.58,2.58,0,0,0,1-1.32h1.77a4.21,4.21,0,0,1-1.59,2.31,4.72,4.72,0,0,1-2.95.89,5,5,0,0,1-2.51-.63,4.41,4.41,0,0,1-1.74-1.79,5.54,5.54,0,0,1-.63-2.69,5.73,5.73,0,0,1,.61-2.68,4.32,4.32,0,0,1,1.72-1.77,5.08,5.08,0,0,1,2.55-.63,4.88,4.88,0,0,1,2.48.62,4.16,4.16,0,0,1,1.67,1.68,5,5,0,0,1,.58,2.42A8.63,8.63,0,0,1,460.62,599ZM458.57,596a2.74,2.74,0,0,0-1.13-1,3.52,3.52,0,0,0-1.57-.35,3,3,0,0,0-2.12.79,3.27,3.27,0,0,0-1,2.2H459A3.06,3.06,0,0,0,458.57,596Z"/><path d="M465.71,593.71a3.8,3.8,0,0,1,2-.46v1.69h-.43c-1.84,0-2.76,1-2.76,3v5.36h-1.64v-9.86h1.64V595A3.16,3.16,0,0,1,465.71,593.71Z"/><path d="M469.55,595.67a4.51,4.51,0,0,1,1.68-1.78,4.64,4.64,0,0,1,2.39-.63,4.42,4.42,0,0,1,2.25.56,3.7,3.7,0,0,1,1.42,1.41v-1.8H479v9.86h-1.66v-1.84a3.93,3.93,0,0,1-1.45,1.44,4.72,4.72,0,0,1-4.62-.09,4.5,4.5,0,0,1-1.67-1.81,5.65,5.65,0,0,1-.61-2.67A5.49,5.49,0,0,1,469.55,595.67Zm7.29.73a3.12,3.12,0,0,0-1.22-1.27,3.44,3.44,0,0,0-3.35,0,3.13,3.13,0,0,0-1.21,1.26,4,4,0,0,0-.45,1.94,4.07,4.07,0,0,0,.45,2,3.12,3.12,0,0,0,1.21,1.28,3.18,3.18,0,0,0,1.67.44,3.24,3.24,0,0,0,1.68-.44,3.14,3.14,0,0,0,1.22-1.28,4.43,4.43,0,0,0,0-3.89Z"/><path d="M481.72,595.67a4.35,4.35,0,0,1,1.7-1.78,5.38,5.38,0,0,1,5.49.26,4.14,4.14,0,0,1,1.55,2.44H488.7a2.52,2.52,0,0,0-1-1.42,3,3,0,0,0-1.81-.52,2.91,2.91,0,0,0-2.27,1,4.79,4.79,0,0,0,0,5.48,2.89,2.89,0,0,0,2.27,1,3,3,0,0,0,1.8-.51,2.52,2.52,0,0,0,1-1.44h1.76a4.29,4.29,0,0,1-1.58,2.42,4.71,4.71,0,0,1-3,.91,4.85,4.85,0,0,1-2.49-.63,4.29,4.29,0,0,1-1.7-1.78,5.66,5.66,0,0,1-.61-2.7A5.54,5.54,0,0,1,481.72,595.67Z"/><path d="M494.64,594.78v5.81a1.37,1.37,0,0,0,.31,1,1.48,1.48,0,0,0,1.06.29h1.2v1.39h-1.47a2.93,2.93,0,0,1-2.05-.63,2.69,2.69,0,0,1-.69-2.07v-5.81h-1.28v-1.35H493v-2.49h1.64v2.49h2.57v1.35Z"/><path d="M499.25,591.5a1.07,1.07,0,0,1-.33-.79,1.13,1.13,0,0,1,1.12-1.12,1,1,0,0,1,.77.33,1.08,1.08,0,0,1,.31.79,1.09,1.09,0,0,1-.31.79,1,1,0,0,1-.77.32A1,1,0,0,1,499.25,591.5Zm1.58,1.93v9.86h-1.64v-9.86Z"/><path d="M507.29,601.78l3.06-8.35h1.75l-3.87,9.86h-1.91l-3.87-9.86h1.77Z"/><path d="M522.67,599h-7.89a3.1,3.1,0,0,0,3.21,3.1,3,3,0,0,0,1.77-.5,2.63,2.63,0,0,0,1-1.32h1.76a4.2,4.2,0,0,1-1.58,2.31,4.74,4.74,0,0,1-3,.89,5,5,0,0,1-2.52-.63,4.45,4.45,0,0,1-1.73-1.79,5.54,5.54,0,0,1-.63-2.69,5.61,5.61,0,0,1,.61-2.68,4.26,4.26,0,0,1,1.72-1.77,5.08,5.08,0,0,1,2.55-.63,4.93,4.93,0,0,1,2.48.62,4.13,4.13,0,0,1,1.66,1.68,5,5,0,0,1,.59,2.42C522.72,598.29,522.7,598.62,522.67,599ZM520.61,596a2.72,2.72,0,0,0-1.12-1,3.59,3.59,0,0,0-1.58-.35,3,3,0,0,0-2.11.79,3.22,3.22,0,0,0-1,2.2H521A3,3,0,0,0,520.61,596Z"/><path d="M459.22,565.64a24.19,24.19,0,0,0,3.64-4.11,7.43,7.43,0,0,0,1.49-4.22,4.62,4.62,0,0,0-1-3.07,3.75,3.75,0,0,0-3-1.13,4,4,0,0,0-3.17,1.28,5.3,5.3,0,0,0-1.21,3.4h-2.64a7.21,7.21,0,0,1,2-5.19,7.74,7.74,0,0,1,9.85-.12,6.16,6.16,0,0,1,1.82,4.71,9,9,0,0,1-1.49,4.85,21.22,21.22,0,0,1-3.37,4.14q-1.89,1.79-4.83,4.15h10.32v2.28H453.25v-2Q457.06,567.6,459.22,565.64Z"/><path d="M470.17,568V566l10.53-14.58H484v14.28h3V568h-3v4.83h-2.7V568Zm11.22-13.8-8.07,11.43h8.07Z"/><path d="M495.29,557.09a7.25,7.25,0,0,1,3.74-1,7.68,7.68,0,0,1,4,1.05,7.43,7.43,0,0,1,2.81,3,9.21,9.21,0,0,1,1,4.42,9.44,9.44,0,0,1-1,4.44,7.49,7.49,0,0,1-6.78,4.11,7.18,7.18,0,0,1-3.71-.94,6.75,6.75,0,0,1-2.44-2.36v10.83h-2.73V556.41h2.73v3A6.48,6.48,0,0,1,495.29,557.09Zm8,4.24a5.2,5.2,0,0,0-2-2.1,5.59,5.59,0,0,0-2.8-.72,5.48,5.48,0,0,0-2.78.74,5.37,5.37,0,0,0-2,2.13,6.58,6.58,0,0,0-.76,3.22,6.68,6.68,0,0,0,.76,3.26,5.37,5.37,0,0,0,2,2.13,5.7,5.7,0,0,0,5.58,0,5.28,5.28,0,0,0,2-2.13,6.86,6.86,0,0,0,.75-3.29A6.68,6.68,0,0,0,503.29,561.33Z"/><path d="M519,572.85l-3.9-6.12-3.75,6.12h-2.85l5.31-8.16-5.31-8.28h3.09l3.9,6.09,3.72-6.09h2.85l-5.28,8.13,5.31,8.31Z"/><path d="M45.6,483v12.55H44V483Z"/><path d="M56.12,486.59a4.21,4.21,0,0,1,1.11,3.14v5.82H55.61V490a3.13,3.13,0,0,0-.74-2.26,2.63,2.63,0,0,0-2-.79,2.69,2.69,0,0,0-2.06.81,3.32,3.32,0,0,0-.77,2.36v5.46H48.39v-9.87H50v1.41a3.25,3.25,0,0,1,1.32-1.17,4.09,4.09,0,0,1,1.85-.42A4,4,0,0,1,56.12,486.59Z"/><path d="M63.93,487H61.86v8.52H60.22V487H58.94v-1.35h1.28V485a3.1,3.1,0,0,1,.85-2.42,4.07,4.07,0,0,1,2.75-.77v1.37a2.12,2.12,0,0,0-1.52.43,1.83,1.83,0,0,0-.44,1.39v.7h2.07Z"/><path d="M67.63,495.08a4.55,4.55,0,0,1-1.77-1.79,5.57,5.57,0,0,1-.64-2.69,5.35,5.35,0,0,1,.66-2.68,4.64,4.64,0,0,1,1.79-1.78,5.51,5.51,0,0,1,5.08,0,4.68,4.68,0,0,1,1.79,1.77,5.34,5.34,0,0,1,.66,2.69,5.27,5.27,0,0,1-.68,2.69,4.7,4.7,0,0,1-1.83,1.79,5.21,5.21,0,0,1-2.55.63A5,5,0,0,1,67.63,495.08Zm4.16-1.23A3,3,0,0,0,73,492.61a4.51,4.51,0,0,0,0-4,3.07,3.07,0,0,0-1.22-1.23,3.51,3.51,0,0,0-3.29,0,3,3,0,0,0-1.19,1.23,4.16,4.16,0,0,0-.45,2,4.2,4.2,0,0,0,.44,2,2.93,2.93,0,0,0,1.18,1.23,3.3,3.3,0,0,0,1.62.41A3.37,3.37,0,0,0,71.79,493.85Z"/><path d="M80.23,486a3.8,3.8,0,0,1,2-.47v1.69h-.43c-1.84,0-2.76,1-2.76,3v5.37H77.36v-9.87H79v1.6A3.13,3.13,0,0,1,80.23,486Z"/><path d="M98,486a3.52,3.52,0,0,1,1.43,1.43,4.88,4.88,0,0,1,.52,2.32v5.82H98.31V490a3.21,3.21,0,0,0-.73-2.26,2.58,2.58,0,0,0-2-.79,2.68,2.68,0,0,0-2,.82,3.4,3.4,0,0,0-.75,2.37v5.44H91.2V490a3.17,3.17,0,0,0-.73-2.26,2.58,2.58,0,0,0-2-.79,2.68,2.68,0,0,0-2,.82,3.4,3.4,0,0,0-.75,2.37v5.44H84.07v-9.87h1.64v1.42a3.22,3.22,0,0,1,1.3-1.18,3.92,3.92,0,0,1,1.81-.42,4.31,4.31,0,0,1,2.2.56,3.42,3.42,0,0,1,1.42,1.64,3.21,3.21,0,0,1,1.37-1.62,4,4,0,0,1,2.12-.58A4.28,4.28,0,0,1,98,486Z"/><path d="M102.61,487.92a4.48,4.48,0,0,1,1.68-1.77,4.64,4.64,0,0,1,2.39-.63,4.42,4.42,0,0,1,2.25.56,3.75,3.75,0,0,1,1.42,1.4v-1.8H112v9.87h-1.66v-1.84a3.83,3.83,0,0,1-1.45,1.43,4.31,4.31,0,0,1-2.24.57,4.5,4.5,0,0,1-2.38-.65,4.6,4.6,0,0,1-1.67-1.82,6.1,6.1,0,0,1,0-5.32Zm7.29.73a3.24,3.24,0,0,0-1.22-1.27,3.44,3.44,0,0,0-3.35,0,3.13,3.13,0,0,0-1.21,1.26,4,4,0,0,0-.45,1.95,4.12,4.12,0,0,0,.45,2,3.18,3.18,0,0,0,1.21,1.28,3.28,3.28,0,0,0,1.67.44,3.34,3.34,0,0,0,1.68-.44,3.21,3.21,0,0,0,1.22-1.28,4.07,4.07,0,0,0,.45-1.95A4,4,0,0,0,109.9,488.65Z"/><path d="M116.78,487v5.82a1.37,1.37,0,0,0,.3,1,1.51,1.51,0,0,0,1.06.3h1.21v1.39h-1.48a2.94,2.94,0,0,1-2.05-.63,2.73,2.73,0,0,1-.68-2.07V487h-1.28v-1.35h1.28V483.2h1.64v2.48h2.57V487Z"/><path d="M121.38,483.76a1.12,1.12,0,0,1,.8-1.91,1,1,0,0,1,.76.32,1.17,1.17,0,0,1,0,1.59,1,1,0,0,1-.76.32A1.11,1.11,0,0,1,121.38,483.76Zm1.59,1.92v9.87h-1.64v-9.87Z"/><path d="M129.43,494l3.06-8.35h1.75l-3.87,9.87h-1.91l-3.87-9.87h1.76Z"/><path d="M144.8,491.23h-7.88a3.1,3.1,0,0,0,3.2,3.09,3,3,0,0,0,1.77-.49,2.56,2.56,0,0,0,1-1.33h1.77a4.27,4.27,0,0,1-1.59,2.32,4.79,4.79,0,0,1-2.95.89,5,5,0,0,1-2.51-.63,4.48,4.48,0,0,1-1.74-1.79,5.57,5.57,0,0,1-.63-2.69,5.77,5.77,0,0,1,.61-2.69,4.44,4.44,0,0,1,1.72-1.77,5.18,5.18,0,0,1,2.55-.62,5,5,0,0,1,2.48.61,4.18,4.18,0,0,1,1.67,1.69,5,5,0,0,1,.58,2.42A8.63,8.63,0,0,1,144.8,491.23Zm-2.05-3a2.65,2.65,0,0,0-1.13-1,3.42,3.42,0,0,0-1.57-.35,3,3,0,0,0-2.12.79,3.26,3.26,0,0,0-1,2.19h6.23A3.08,3.08,0,0,0,142.75,488.28Z"/><path d="M43.72,445.91v-2.49h5.64v21.69H46.6v-19.2Z"/><path d="M62,445.25a4.42,4.42,0,0,0-4,2.05q-1.32,2.06-1.29,6.77a5.09,5.09,0,0,1,2.3-2.45,7.25,7.25,0,0,1,3.58-.88,6.51,6.51,0,0,1,4.93,1.92A7.31,7.31,0,0,1,69.4,458a8.2,8.2,0,0,1-.8,3.66,6.12,6.12,0,0,1-2.39,2.58,7.48,7.48,0,0,1-3.89,1,7.58,7.58,0,0,1-4.83-1.38A7.22,7.22,0,0,1,55.06,460a22.29,22.29,0,0,1-.69-6q0-11,7.68-11a6.15,6.15,0,0,1,6.6,5.61H66.13A3.76,3.76,0,0,0,62,445.25Zm-2.4,8.32a4.38,4.38,0,0,0-1.85,1.59,4.61,4.61,0,0,0-.7,2.6,5.22,5.22,0,0,0,1.32,3.7,4.9,4.9,0,0,0,3.78,1.43,4.4,4.4,0,0,0,3.34-1.31,4.89,4.89,0,0,0,1.25-3.52,5.31,5.31,0,0,0-1.2-3.68,4.47,4.47,0,0,0-3.51-1.33A5.74,5.74,0,0,0,59.62,453.57Z"/><path d="M78.68,449.34a7.24,7.24,0,0,1,3.74-.94,7.68,7.68,0,0,1,4,1.05,7.4,7.4,0,0,1,2.81,2.95,9.25,9.25,0,0,1,1,4.43,9.44,9.44,0,0,1-1,4.44,7.49,7.49,0,0,1-6.78,4.11,7.19,7.19,0,0,1-3.71-.95,6.73,6.73,0,0,1-2.44-2.35v10.83H73.54V448.67h2.73v3A6.51,6.51,0,0,1,78.68,449.34Zm8,4.25a5.2,5.2,0,0,0-2-2.1,5.59,5.59,0,0,0-2.8-.72,5.47,5.47,0,0,0-2.78.73,5.37,5.37,0,0,0-2,2.13,7.29,7.29,0,0,0,0,6.48,5.37,5.37,0,0,0,2,2.13,5.63,5.63,0,0,0,5.58,0,5.28,5.28,0,0,0,2-2.13,6.82,6.82,0,0,0,.75-3.28A6.68,6.68,0,0,0,86.68,453.59Z"/><path d="M102.4,465.11,98.5,459l-3.75,6.12H91.9L97.21,457l-5.31-8.28H95l3.9,6.09,3.72-6.09h2.85l-5.28,8.13,5.31,8.31Z"/></g></svg>