<svg xmlns="http://www.w3.org/2000/svg" xmlns:xlink="http://www.w3.org/1999/xlink" viewBox="0 0 1152 324"><defs><style>.cls-1{fill:none;}.cls-2{fill:#fff;}.cls-3,.cls-4{fill:#232423;}.cls-4{fill-rule:evenodd;}.cls-5{fill:#e2e4e2;}.cls-6{fill:#ed6262;}.cls-7{clip-path:url(#clip-path);}</style><clipPath id="clip-path"><rect class="cls-1" x="80.01" y="219.71" width="84" height="17.63"/></clipPath></defs><g id="Layer_1" data-name="Layer 1"><path class="cls-2" d="M56,59.47H1096v72H56Z"/><path class="cls-2" d="M80,95.47a20,20,0,0,1,20-20h88a20,20,0,0,1,20,20h0a20,20,0,0,1-20,20H100a20,20,0,0,1-20-20Z"/><path class="cls-3" d="M105.12,100.14a1.28,1.28,0,0,0,.95-.39,1.32,1.32,0,0,0,.41-.94v-.34h-3.14V96.39h6.27a.15.15,0,0,1,.16.07.17.17,0,0,1,.07.14v1.63a.23.23,0,0,1-.23.24h-1.42s0,0,0,.1a.73.73,0,0,1,0,.22v.26a3.07,3.07,0,0,1-.26,1.25,3.21,3.21,0,0,1-.7,1,3.3,3.3,0,0,1-1.06.67,3.35,3.35,0,0,1-1.28.24h-2.72a3.67,3.67,0,0,1-2.54-1.06A3.71,3.71,0,0,1,98.9,100a3.57,3.57,0,0,1-.27-1.4V94.41h1.76v4a1.81,1.81,0,0,0,.14.69,2,2,0,0,0,.39.56,1.5,1.5,0,0,0,.56.36,1.57,1.57,0,0,0,.68.15Zm5.4-3.75v-1.6a2.54,2.54,0,0,1,.19-1,2.87,2.87,0,0,1,.56-.84,2.54,2.54,0,0,1,.82-.54,2.52,2.52,0,0,1,1-.21h.66a2.5,2.5,0,0,1,1.56.58,2,2,0,0,1,.56.64,2.44,2.44,0,0,1,.32.8l.24,1.23a2.2,2.2,0,0,1,0,1.14,2.43,2.43,0,0,1-.49,1,2.89,2.89,0,0,1-.87.67,2.33,2.33,0,0,1-1.09.25h-.73a2.6,2.6,0,0,1-.5,0l-.46-.13v.14a1.55,1.55,0,0,0,.13.63.7.7,0,0,0,.56.38l1.87.35,1.61-2a4.08,4.08,0,0,1,1.24-1,3.19,3.19,0,0,1,1.55-.39h.19a.21.21,0,0,1,.14.07.17.17,0,0,1,.08.16v1.63a.19.19,0,0,1-.22.22H119a1.54,1.54,0,0,0-.72.18,1.61,1.61,0,0,0-.6.5l-.2.27-.4.49c-.15.21-.31.41-.48.63l-.47.59c-.14.19-.26.35-.37.48a1.73,1.73,0,0,1-.16.22l-3.52-.92a2,2,0,0,1-.64-.32,2.4,2.4,0,0,1-.48-.56,3.31,3.31,0,0,1-.3-.72,3.86,3.86,0,0,1-.1-.84h-.92c-.15,0-.23-.07-.23-.22V96.62a.21.21,0,0,1,.23-.23Zm1.76-1.6v1.6h2a.46.46,0,0,0,.38-.17.49.49,0,0,0,.11-.43l-.21-1.08a.54.54,0,0,0-.2-.36.6.6,0,0,0-.4-.15h-1.06a.58.58,0,0,0-.42.18A.58.58,0,0,0,112.28,94.79Zm9.52,3.68h-2.35a.23.23,0,0,1-.16-.06.28.28,0,0,1-.06-.18V96.6a.2.2,0,0,1,.06-.14.16.16,0,0,1,.14-.08H122a1.35,1.35,0,0,0,.78-.23,1.5,1.5,0,0,0,.5-.57,1.44,1.44,0,0,0,.16-.74,1.3,1.3,0,0,0-.29-.75l-2.74-3.7V89.13l5.43-2.74L126.6,88l-4.38,2.2,2.35,2.93a3,3,0,0,1,.58,1.15,3.36,3.36,0,0,1,.08,1.22,3.22,3.22,0,0,1-.36,1.14,3.8,3.8,0,0,1-.73,1,3.48,3.48,0,0,1-1.06.67A3.35,3.35,0,0,1,121.8,98.47Zm-2-11.47,5-2.56.55,1.23-5,2.58Zm11.11,11.47h-1.76V88.76h1.76ZM127,88.36v-.85a1.4,1.4,0,0,1,.46-1.12,1.6,1.6,0,0,1,1-.4h3.32v1.52H128.7a.31.31,0,0,0-.26.12.33.33,0,0,0-.08.22v.51Zm11.37,3.94h1.84V90.46h-1.84Zm2.68,0h1.84V90.46h-1.84Zm-4.76,0v2.78a1.28,1.28,0,0,0,.39,1,1.31,1.31,0,0,0,.94.36h6.56a.81.81,0,0,0,.55-.2.74.74,0,0,0,.22-.55V92.76h1.76v2.87a.77.77,0,0,0,.22.54.75.75,0,0,0,.55.22H148c.15,0,.22.08.22.23v1.63a.19.19,0,0,1-.22.22h-.18a2.43,2.43,0,0,1-1.07-.24,2.63,2.63,0,0,1-.86-.7,2.41,2.41,0,0,1-.92.72,2.53,2.53,0,0,1-1.07.22h-6.08a3.12,3.12,0,0,1-1.26-.25,3.37,3.37,0,0,1-1-.69,3.5,3.5,0,0,1-.69-1,3.16,3.16,0,0,1-.26-1.26V92.3Zm13.82,10H152v-1.84h-1.84Zm4.08-4a.27.27,0,0,1-.06.16.25.25,0,0,1-.16.06h-1.22a2.16,2.16,0,0,1-1-.27,1.45,1.45,0,0,1-.69-.67,1.54,1.54,0,0,1-.32.37,4.22,4.22,0,0,1-.47.3,2.18,2.18,0,0,1-.52.21,2.64,2.64,0,0,1-.55.06H148c-.15,0-.23-.07-.23-.22V96.63a.21.21,0,0,1,.07-.16.19.19,0,0,1,.16-.08h1.37a.86.86,0,0,0,.56-.19.9.9,0,0,0,.31-.51l.59-2.88,1.73.3-.48,2.42a.65.65,0,0,0,.14.61.73.73,0,0,0,.58.25H154a.23.23,0,0,1,.16.08.25.25,0,0,1,.06.16Zm5-7.41h-1.84V89h1.84Zm-2.67,0h-1.84V89h1.84Zm1.31-2.43H156V86.57h1.84Zm-1.16,8a.74.74,0,0,0,.55-.22.79.79,0,0,0,.22-.56V92.3h1.76v3.31a2.75,2.75,0,0,1-.85,2,2.75,2.75,0,0,1-.91.61,2.7,2.7,0,0,1-1.1.22H154a.21.21,0,0,1-.16-.06.23.23,0,0,1-.07-.16V96.63a.21.21,0,0,1,.07-.16.19.19,0,0,1,.16-.08Z"/><path class="cls-4" d="M181,88.47h-2v6h-6v2h6v6h2v-6h6v-2h-6Z"/><path class="cls-5" d="M100,76h88V75H100Zm88,39H100v1h88Zm-88,0a19.5,19.5,0,0,1-19.5-19.5h-1A20.5,20.5,0,0,0,100,116Zm107.5-19.5A19.5,19.5,0,0,1,188,115v1a20.5,20.5,0,0,0,20.5-20.5ZM188,76a19.5,19.5,0,0,1,19.5,19.5h1A20.5,20.5,0,0,0,188,75Zm-88-1a20.5,20.5,0,0,0-20.5,20.5h1A19.5,19.5,0,0,1,100,76Z"/><path class="cls-4" d="M240.12,92.59l-1.31,5.88h-5.6l-1.31-5.88a4.17,4.17,0,0,1,0-1.86,4.06,4.06,0,0,1,.82-1.68,4.26,4.26,0,0,1,2.35-1.46,4.21,4.21,0,0,1,5,5Zm-5.05-2.87a2.38,2.38,0,0,0-.78.58,2.24,2.24,0,0,0-.48,1.86l1,4.31h2.4l1-4.31a2.16,2.16,0,0,0,0-1,2.13,2.13,0,0,0-.43-.88,2.44,2.44,0,0,0-.77-.58,2.38,2.38,0,0,0-1-.2A2.33,2.33,0,0,0,235.07,89.72Zm.94,9.75a16.82,16.82,0,0,1,7.44,1.73l.56.27v5H228v-5l.56-.27A16.85,16.85,0,0,1,236,99.47Zm-6,3.27v1.73h12v-1.73a14.81,14.81,0,0,0-12,0Z"/><path class="cls-6" d="M236,89.47a8,8,0,0,1,8-8h7a8,8,0,0,1,8,8h0a8,8,0,0,1-8,8h-7a8,8,0,0,1-8-8Z"/><path class="cls-2" d="M247.11,88.68a1.12,1.12,0,0,1-.1.48,1.22,1.22,0,0,1-.64.65,1.19,1.19,0,0,1-.47.09h-.68a1.52,1.52,0,0,1-.59-.12,1.25,1.25,0,0,1-.49-.44,1.55,1.55,0,0,1-.47.43,1.1,1.1,0,0,1-.56.13,1.21,1.21,0,0,1-.34-.05.59.59,0,0,1-.32-.23v3.85h-1.1V89.1a6.64,6.64,0,0,0,0-.89c0-.3-.08-.6-.14-.9l-.17-.84,1.08-.21s0,.1,0,.21.06.26.09.44.08.39.11.61.08.46.1.7a.42.42,0,0,0,.16.28.52.52,0,0,0,.31.1H243a.53.53,0,0,0,.35-.12.49.49,0,0,0,.18-.32l.37-1.82,1.08.21-.31,1.56a.52.52,0,0,0,.09.34.41.41,0,0,0,.35.15H246V86.31h1.1Zm7.12,0a1.12,1.12,0,0,1-.1.48,1.22,1.22,0,0,1-.64.65,1.23,1.23,0,0,1-.47.09h-.68a1.52,1.52,0,0,1-.59-.12,1.25,1.25,0,0,1-.49-.44,1.55,1.55,0,0,1-.47.43,1.13,1.13,0,0,1-.56.13,1.21,1.21,0,0,1-.34-.05.59.59,0,0,1-.32-.23v3.85h-1.1V89.1a8.85,8.85,0,0,0-.05-.89c0-.3-.08-.6-.14-.9l-.17-.84,1.08-.21s0,.1,0,.21.06.26.09.44.08.39.11.61.07.46.1.7a.42.42,0,0,0,.16.28.5.5,0,0,0,.31.1h.14a.53.53,0,0,0,.35-.12.49.49,0,0,0,.18-.32l.37-1.82,1.08.21-.31,1.56a.52.52,0,0,0,.09.34.4.4,0,0,0,.35.15h.88V86.31h1.1Z"/><path class="cls-3" d="M285,101.47a7.88,7.88,0,0,0,4.9-1.7l5.7,5.7,1.4-1.4-5.7-5.7a7.88,7.88,0,0,0,1.7-4.9,8,8,0,1,0-8,8Zm0-14a6,6,0,1,1-6,6A6,6,0,0,1,285,87.47Z"/><path class="cls-3" d="M604.5,95.47h-12v12h12Z"/><path class="cls-3" d="M559.5,77.47h-12v30h12Z"/><path class="cls-3" d="M589.5,77.47h-12v30h12Z"/><path class="cls-3" d="M568.5,107.47a6,6,0,1,0-6-6A6,6,0,0,0,568.5,107.47Z"/><path class="cls-3" d="M598.5,122.47a6,6,0,1,0-6-6A6,6,0,0,0,598.5,122.47Z"/><path class="cls-3" d="M873.47,98.25a.2.2,0,0,1-.22.22h-.47a3.06,3.06,0,0,1-1.09-.2,2.91,2.91,0,0,1-1.5-1.51,2.66,2.66,0,0,1-.22-1.09V87.51h1.76v8.12a.75.75,0,0,0,.76.76h.76a.23.23,0,0,1,.16.08.25.25,0,0,1,.06.16Zm3.4-1.86h2.26V94.63a.58.58,0,0,0-.18-.43.57.57,0,0,0-.43-.17h-1.3a.53.53,0,0,0-.38.14.58.58,0,0,0-.21.35l-.25,1.28a.49.49,0,0,0,.09.42A.51.51,0,0,0,876.87,96.39Zm-2.27-.7.32-1.65a2.28,2.28,0,0,1,.3-.8,2.68,2.68,0,0,1,.56-.64,2.56,2.56,0,0,1,1.59-.57h.89a2.57,2.57,0,0,1,1.86.76,2.87,2.87,0,0,1,.56.84,2.52,2.52,0,0,1,.21,1v1.87a2,2,0,0,1-.16.77,2,2,0,0,1-.42.62,2.07,2.07,0,0,1-.61.42,1.86,1.86,0,0,1-.75.14H877.1a2.23,2.23,0,0,1-.92-.19,2.1,2.1,0,0,1-.78-.72,2.19,2.19,0,0,1-.82.72,2.32,2.32,0,0,1-1,.19h-.38a.19.19,0,0,1-.22-.22V96.62c0-.15.07-.23.22-.23h.51a.8.8,0,0,0,.55-.19A.84.84,0,0,0,874.6,95.69Zm11.56,2.56c0,.15-.08.22-.23.22h-.46a3.06,3.06,0,0,1-1.09-.2,2.91,2.91,0,0,1-1.5-1.51,2.66,2.66,0,0,1-.23-1.09V87.51h1.76v8.12a.74.74,0,0,0,.23.54.73.73,0,0,0,.54.22h.75a.19.19,0,0,1,.16.08.21.21,0,0,1,.07.16Zm.18,2.14h1.84v1.84h-1.84Zm2.31-4a.73.73,0,0,0,.54-.22.8.8,0,0,0,.23-.56V92.3h1.76v3.31a2.84,2.84,0,0,1-.23,1.12,3,3,0,0,1-.62.91,2.85,2.85,0,0,1-.91.61,2.75,2.75,0,0,1-1.11.22h-2.38a.21.21,0,0,1-.16-.06.23.23,0,0,1-.07-.16V96.63a.21.21,0,0,1,.07-.16.19.19,0,0,1,.16-.08Z"/><path class="cls-3" d="M921.06,92.3h1.84V90.46h-1.84Zm2.68,0h1.84V90.46h-1.84Zm-4.76,0v2.78a1.28,1.28,0,0,0,.39,1,1.31,1.31,0,0,0,.94.36h6.56a.83.83,0,0,0,.55-.2.78.78,0,0,0,.22-.55V92.76h1.76v2.87a.75.75,0,0,0,.77.76h.48c.15,0,.22.08.22.23v1.63a.19.19,0,0,1-.22.22h-.18a2.43,2.43,0,0,1-1.07-.24,2.63,2.63,0,0,1-.86-.7,2.49,2.49,0,0,1-.92.72,2.53,2.53,0,0,1-1.07.22h-6.08a3.12,3.12,0,0,1-1.26-.25,3.37,3.37,0,0,1-1-.69,3.5,3.5,0,0,1-.69-1,3.16,3.16,0,0,1-.26-1.26V92.3Zm17,4.09a.23.23,0,0,1,.15.07.19.19,0,0,1,.08.16v1.63a.21.21,0,0,1-.08.16.22.22,0,0,1-.15.06h-.72a3,3,0,0,1-1.07-.2,2.56,2.56,0,0,1-.86-.58,2.84,2.84,0,0,1-.9.58,3,3,0,0,1-1.07.2h-.71a.19.19,0,0,1-.22-.22V96.62c0-.15.07-.23.22-.23h1a.73.73,0,0,0,.54-.22.74.74,0,0,0,.23-.54V87.51h1.76v8.2a.79.79,0,0,0,.24.49.76.76,0,0,0,.52.19Zm2,2.08h-2a.18.18,0,0,1-.16-.08.27.27,0,0,1-.06-.17V96.6a.16.16,0,0,1,.08-.14.21.21,0,0,1,.14-.07h2.21a1.35,1.35,0,0,0,.78-.22,1.4,1.4,0,0,0,.5-.56,1.49,1.49,0,0,0,.16-.75,1.31,1.31,0,0,0-.29-.77l-2.73-3.7V89.13L942,86.39l.78,1.56-4.38,2.2,4.35,5.62a1.63,1.63,0,0,0,.55.46,1.45,1.45,0,0,0,.68.16h.2c.15,0,.22.08.22.23v1.63a.27.27,0,0,1-.06.16.25.25,0,0,1-.16.06h-.12a2.77,2.77,0,0,1-1.23-.28,2.89,2.89,0,0,1-1-.85l-.7-1a3.37,3.37,0,0,1-.51.83,4,4,0,0,1-.74.68,3.41,3.41,0,0,1-1.94.6Zm6.94,3.76h1.83v-1.84H945Zm2.66,0h1.84v-1.84h-1.84Zm2.81-4a.27.27,0,0,1-.06.16.23.23,0,0,1-.16.06H949a2.16,2.16,0,0,1-1-.27,1.54,1.54,0,0,1-.69-.67,1.35,1.35,0,0,1-.32.37,4.06,4.06,0,0,1-.46.3,2.25,2.25,0,0,1-.53.21,2.48,2.48,0,0,1-.54.06H944.2a.19.19,0,0,1-.22-.22V96.63a.25.25,0,0,1,.06-.16.21.21,0,0,1,.16-.08h1.38a.86.86,0,0,0,.56-.19.84.84,0,0,0,.3-.51l.59-2.88,1.73.3-.48,2.42a.71.71,0,0,0,.14.61.74.74,0,0,0,.58.25h1.2a.21.21,0,0,1,.16.08.25.25,0,0,1,.06.16Zm4.12.22a2.66,2.66,0,0,1-1.09-.22.9.9,0,0,0-1.76,0,2.56,2.56,0,0,1-1.07.22h-.42a.19.19,0,0,1-.22-.22V96.63a.19.19,0,0,1,.08-.16.19.19,0,0,1,.14-.08h.74a.71.71,0,0,0,.54-.24.78.78,0,0,0,.22-.56V92.75h1.76v2.86a.8.8,0,0,0,.23.56.73.73,0,0,0,.54.22h.47a.86.86,0,0,0,.56-.19.84.84,0,0,0,.3-.51l.59-2.9,1.73.32-.48,2.4a.7.7,0,0,0,.14.61.76.76,0,0,0,.58.27h1.18V92.31h1.76v4.21a1.87,1.87,0,0,1-.16.77,1.81,1.81,0,0,1-.41.62,2,2,0,0,1-.63.42,1.86,1.86,0,0,1-.75.14h-1a2.11,2.11,0,0,1-1-.22,1.94,1.94,0,0,1-.77-.74,2.12,2.12,0,0,1-.85.74A2.31,2.31,0,0,1,954.54,98.47Zm5.46,4.08-.55-1.64,2.31-.76a1.82,1.82,0,0,0,1-.72,1.92,1.92,0,0,0,.36-1.13V92.76h1.76v5.36a3.68,3.68,0,0,1-.19,1.2,3.84,3.84,0,0,1-.54,1.07,3.67,3.67,0,0,1-.83.84,4,4,0,0,1-1.08.57Zm9.11-4.08a2.45,2.45,0,0,1-1.09-.24,2.48,2.48,0,0,1-.83-.67,2.75,2.75,0,0,1-.5-.94,2.35,2.35,0,0,1,0-1.12l.27-1.46a2.28,2.28,0,0,1,.3-.8,3,3,0,0,1,.56-.65,2.38,2.38,0,0,1,.72-.42,2.35,2.35,0,0,1,.87-.16h.89a2.53,2.53,0,0,1,1,.21,2.56,2.56,0,0,1,.83.57,2.87,2.87,0,0,1,.56.84,2.52,2.52,0,0,1,.21,1v1.74H974c.15,0,.22.08.22.23v1.63a.19.19,0,0,1-.22.22h-1.14v.08a.92.92,0,0,1,0,.16,3.41,3.41,0,0,1-.82,1.91,4.07,4.07,0,0,1-1.81,1.23l-2.19.75-.54-1.68,2.25-.75a2.08,2.08,0,0,0,1-.67,1.72,1.72,0,0,0,.38-1.11v-.11a2.66,2.66,0,0,1-.43.15,2.92,2.92,0,0,1-.51,0Zm-.23-2.08h2.26V94.63a.58.58,0,0,0-.18-.43.56.56,0,0,0-.43-.19h-1.3a.57.57,0,0,0-.38.14.66.66,0,0,0-.21.37l-.25,1.28a.49.49,0,0,0,.09.42A.51.51,0,0,0,968.88,96.39Zm7.85,0a.74.74,0,0,0,.55-.22.79.79,0,0,0,.22-.56V92.3h1.76v3.31a2.75,2.75,0,0,1-.85,2,2.75,2.75,0,0,1-.91.61,2.7,2.7,0,0,1-1.1.22H974a.25.25,0,0,1-.16-.06.27.27,0,0,1-.06-.16V96.63a.25.25,0,0,1,.06-.16.23.23,0,0,1,.16-.08Zm-2-5.55h1.84V89h-1.84Zm2.67,0h1.84V89h-1.84Zm5.94,7.63a2.45,2.45,0,0,1-1.09-.24,2.48,2.48,0,0,1-.83-.67,2.75,2.75,0,0,1-.5-.94,2.35,2.35,0,0,1,0-1.12l.27-1.46a2.28,2.28,0,0,1,.3-.8,3,3,0,0,1,.56-.65,2.38,2.38,0,0,1,.72-.42,2.35,2.35,0,0,1,.87-.16h.89a2.53,2.53,0,0,1,1,.21,2.56,2.56,0,0,1,.83.57,2.87,2.87,0,0,1,.56.84,2.52,2.52,0,0,1,.21,1v1.74h1.12c.15,0,.22.08.22.23v1.63a.19.19,0,0,1-.22.22h-1.14v.08a.92.92,0,0,1,0,.16,3.41,3.41,0,0,1-.82,1.91,4.07,4.07,0,0,1-1.81,1.23l-2.19.75-.54-1.68,2.25-.75a2.08,2.08,0,0,0,1-.67,1.72,1.72,0,0,0,.38-1.11v-.11a2.66,2.66,0,0,1-.43.15,2.92,2.92,0,0,1-.51,0Zm-.23-2.08h2.26V94.63a.58.58,0,0,0-.18-.43.56.56,0,0,0-.43-.19h-1.3a.57.57,0,0,0-.38.14.66.66,0,0,0-.21.37l-.25,1.28a.49.49,0,0,0,.09.42A.51.51,0,0,0,983.13,96.39Zm8.77,0h2.25V94.63a.61.61,0,0,0-.17-.43.6.6,0,0,0-.44-.17h-1.29a.55.55,0,0,0-.39.14.61.61,0,0,0-.2.35l-.26,1.28a.48.48,0,0,0,.5.59Zm-2.28-.7.32-1.65a2.51,2.51,0,0,1,.31-.8,2.48,2.48,0,0,1,.56-.64,2.14,2.14,0,0,1,.72-.41,2.27,2.27,0,0,1,.86-.16h.9a2.59,2.59,0,0,1,2.41,1.6,2.52,2.52,0,0,1,.21,1v1.87a1.87,1.87,0,0,1-.16.77,1.81,1.81,0,0,1-.41.62,2.37,2.37,0,0,1-.61.42,1.92,1.92,0,0,1-.75.14h-1.86a2.18,2.18,0,0,1-.91-.19,2.12,2.12,0,0,1-.79-.72,2.1,2.1,0,0,1-.81.72,2.38,2.38,0,0,1-1,.19h-.39a.19.19,0,0,1-.22-.22V96.62c0-.15.07-.23.22-.23h.52a.79.79,0,0,0,.54-.19A.84.84,0,0,0,989.62,95.69Z"/><path class="cls-3" d="M1028.54,98.14a4.07,4.07,0,0,1-.19,1.2,3.74,3.74,0,0,1-.55,1.07,3.39,3.39,0,0,1-.83.86,3.67,3.67,0,0,1-1.09.58l-2.19.75-.54-1.68,2.25-.75a2.08,2.08,0,0,0,1-.67,1.72,1.72,0,0,0,.38-1.11v-.11a2.35,2.35,0,0,1-.43.15,2.92,2.92,0,0,1-.51,0h-1.07a2.45,2.45,0,0,1-1.09-.24,2.77,2.77,0,0,1-.85-.67,2.7,2.7,0,0,1-.48-.94,2.35,2.35,0,0,1,0-1.12l.27-1.46a2.49,2.49,0,0,1,.3-.8,3,3,0,0,1,.56-.65,2.38,2.38,0,0,1,.72-.42A2.35,2.35,0,0,1,1025,92h.89a2.53,2.53,0,0,1,1,.21,2.56,2.56,0,0,1,.83.57,2.69,2.69,0,0,1,.56.84,2.52,2.52,0,0,1,.21,1Zm-1.76-1.75V94.63a.58.58,0,0,0-.18-.43.54.54,0,0,0-.43-.19h-1.3a.59.59,0,0,0-.38.14.66.66,0,0,0-.21.37L1024,95.8a.49.49,0,0,0,.09.42.51.51,0,0,0,.4.17Zm2.62,6.16-.54-1.64,2.3-.76a1.74,1.74,0,0,0,1-.72,1.87,1.87,0,0,0,.37-1.13V92.76h1.76v5.36a3.68,3.68,0,0,1-.19,1.2,3.61,3.61,0,0,1-.55,1.07,3.48,3.48,0,0,1-.83.84,4.07,4.07,0,0,1-1.07.57Zm8.89-4.08a2.07,2.07,0,0,1-.82-.16,2.22,2.22,0,0,1-1.13-1.13,2.19,2.19,0,0,1-.16-.83V94.27h1.5V96a.4.4,0,0,0,.11.27.41.41,0,0,0,.26.09h2.64a.89.89,0,0,0,.51-.14,1.09,1.09,0,0,0,.37-.37,1,1,0,0,0,0-1l-2-3.53,1.49-1,2.13,3.78a2.58,2.58,0,0,1,.36,1.49,3,3,0,0,1-1.42,2.44,2.77,2.77,0,0,1-1.49.4Zm9.39,0a2.44,2.44,0,0,1-1.08-.24,2.62,2.62,0,0,1-.84-.67,2.91,2.91,0,0,1-.49-.94,2.35,2.35,0,0,1,0-1.12l.27-1.46a2.28,2.28,0,0,1,.3-.8,3,3,0,0,1,.56-.65,2.38,2.38,0,0,1,.72-.42A2.35,2.35,0,0,1,1048,92h.89a2.53,2.53,0,0,1,1,.21,2.67,2.67,0,0,1,.83.57,2.87,2.87,0,0,1,.56.84,2.52,2.52,0,0,1,.21,1v1.74h1.12c.15,0,.22.08.22.23v1.63a.19.19,0,0,1-.22.22h-1.14v.08a.47.47,0,0,1,0,.16,3.33,3.33,0,0,1-.81,1.91,4.07,4.07,0,0,1-1.81,1.23l-2.19.75-.55-1.68,2.26-.75a2.08,2.08,0,0,0,1-.67,1.72,1.72,0,0,0,.38-1.11v-.11a2.66,2.66,0,0,1-.43.15,2.92,2.92,0,0,1-.51,0Zm-.22-2.08h2.26V94.63a.58.58,0,0,0-.18-.43.56.56,0,0,0-.43-.19h-1.3a.57.57,0,0,0-.38.14.66.66,0,0,0-.21.37L1047,95.8a.5.5,0,0,0,.1.42A.51.51,0,0,0,1047.46,96.39Zm7.56-6.28h1.84V88.27H1055Zm-2.65,6.52a.22.22,0,0,1,.08-.16.19.19,0,0,1,.14-.08h2.87a4.59,4.59,0,0,0,1.32-.2,2.71,2.71,0,0,0,1.12-.72l.93-1,.15-.14s.06-.06.08-.06l-3.36-1a.36.36,0,0,0-.29,0,.38.38,0,0,0-.18.21l-.61,1.6-1.53-.42.41-1.47a2.39,2.39,0,0,1,.45-.85,2.43,2.43,0,0,1,.71-.54,2,2,0,0,1,.84-.24,2.12,2.12,0,0,1,.87.08l6.37,1.9-.53,1.65-.75-.22a1.1,1.1,0,0,0-.63,0,1.37,1.37,0,0,0-.46.32l-1.84,1.83a4.25,4.25,0,0,1-1.6,1,5.45,5.45,0,0,1-1.87.32h-2.47a.19.19,0,0,1-.22-.22Z"/><path class="cls-5" d="M56,59.47V59h-.5v.5Zm1040,0h.5V59h-.5Zm0,72v.5h.5v-.5Zm-1040,0h-.5v.5H56ZM56,60H1096V59H56Zm1039.48-.5v72h1v-72Zm.5,71.5H56v1H1096Zm-1039.48.5v-72h-1v72Z"/><path class="cls-2" d="M56,192.53H1096v72H56Z"/><g class="cls-7"><path class="cls-3" d="M105.51,226.09a6.16,6.16,0,0,0-4.12-1.5,6.38,6.38,0,1,0,0,12.75,6.6,6.6,0,0,0,4.12-1.5V237h3V225h-3Zm-3.75,8.62a3.75,3.75,0,1,1,3.75-3.75A3.71,3.71,0,0,1,101.76,234.71Z"/><path class="cls-3" d="M142.26,226.09a6.16,6.16,0,0,0-4.12-1.5,6.38,6.38,0,1,0,0,12.75,6.6,6.6,0,0,0,4.12-1.5V237h3V225h-3Zm-3.75,8.62a3.75,3.75,0,1,1,3.75-3.75A3.71,3.71,0,0,1,138.51,234.71Z"/><path class="cls-3" d="M87.14,224.59a6.62,6.62,0,0,0-4.13,1.5v-5.63H80V237h3v-1.12a6.24,6.24,0,0,0,4.13,1.5,6.38,6.38,0,0,0,0-12.75Zm-.38,10.12A3.75,3.75,0,1,1,90.51,231,3.71,3.71,0,0,1,86.76,234.71Z"/><path class="cls-3" d="M125.39,224.59a5,5,0,0,0-4.13,2.25,5,5,0,0,0-4.12-2.25,5,5,0,0,0-3.38,1.35v-1h-3v12h3v-7.12a2.63,2.63,0,1,1,5.25,0V237h3v-7.12a2.63,2.63,0,1,1,5.25,0V237h3v-7.5A4.86,4.86,0,0,0,125.39,224.59Z"/><path class="cls-3" d="M155,225h-3v12h3Z"/><path class="cls-3" d="M163.64,224.59a4.08,4.08,0,0,0-3.38,1.72V225h-3v12h3v-7.5a2.22,2.22,0,0,1,2.25-2.25H164v-2.62Z"/><path class="cls-3" d="M153.51,223.46a1.88,1.88,0,1,0-1.87-1.87A1.88,1.88,0,0,0,153.51,223.46Z"/><path class="cls-3" d="M148.64,237a1.88,1.88,0,1,0-1.88-1.87A1.87,1.87,0,0,0,148.64,237Z"/></g><path class="cls-4" d="M1049,219.53l2-2,9,9,9-9,2,2-9,9,9,9-2,2-9-9-9,9-2-2,9-9Z"/><path class="cls-5" d="M56,192.53V192h-.5v.5Zm1040,0h.5V192h-.5Zm0,72v.5h.5v-.5Zm-1040,0h-.5v.5H56ZM56,193H1096v-1H56Zm1039.48-.5v72h1v-72Zm.5,71.5H56v1H1096Zm-1039.48.5v-72h-1v72Z"/></g></svg>