<svg xmlns="http://www.w3.org/2000/svg" viewBox="0 0 648 648"><defs><style>.cls-1{fill:#79e45e;}</style></defs><g id="Graphic"><rect class="cls-1" width="648" height="648"/><path d="M393.08,308.32v14.37a10,10,0,0,0,.82,4,9.64,9.64,0,0,0,2.27,3.23,11.61,11.61,0,0,0,3.33,2.17,9.81,9.81,0,0,0,4,.82h38.18a6.91,6.91,0,0,0,6.95-6.94V311h6.65v15a6.9,6.9,0,0,0,6.94,6.94h2.89a1.19,1.19,0,0,1,1.35,1.35v5.21a1.19,1.19,0,0,1-1.35,1.35h-1.63A13.19,13.19,0,0,1,452,334.45a14.15,14.15,0,0,1-5.11,4.78,13.55,13.55,0,0,1-6.46,1.59H403.79a16.79,16.79,0,0,1-6.71-1.35,17.68,17.68,0,0,1-5.49-3.67,16.95,16.95,0,0,1-5.06-12.15V308.32Zm17.07,0h8.2v-8.2h-8.2Zm13.21,0h8.2v-8.2h-8.2Z"/><path d="M465.11,340.82a1.2,1.2,0,0,1-1.35-1.35v-5.21a1.37,1.37,0,0,1,.39-.92,1.23,1.23,0,0,1,1-.43h3.09a7.34,7.34,0,0,0,4.87-1.74,7.25,7.25,0,0,0,2.56-4.34l2-9.93a12,12,0,0,1,1.54-4.14,12.57,12.57,0,0,1,2.8-3.28,12.7,12.7,0,0,1,3.71-2.12,12.37,12.37,0,0,1,4.39-.78h5.4a13.12,13.12,0,0,1,5.26,1.07,13.74,13.74,0,0,1,4.29,2.89,13.93,13.93,0,0,1,2.89,4.24A12.74,12.74,0,0,1,509,320v5.88a6.82,6.82,0,0,0,2,5,6.73,6.73,0,0,0,4.92,2H519a1.22,1.22,0,0,1,1,.43,1.37,1.37,0,0,1,.39.92v5.21a1.19,1.19,0,0,1-1.35,1.35h-1.83a13.44,13.44,0,0,1-5.5-1.16,11.61,11.61,0,0,1-4.53-3.66,5.74,5.74,0,0,1-2.61,3.85,9.09,9.09,0,0,1-4.34,1H488.45a11.2,11.2,0,0,1-5.69-1.5,10.33,10.33,0,0,1-4.15-4.87,10.78,10.78,0,0,1-4.62,4.87,13.05,13.05,0,0,1-6.08,1.5Zm22.57-7.91h14.66V320a5.85,5.85,0,0,0-1.79-4.29,6,6,0,0,0-4.39-1.79H489.9a5.77,5.77,0,0,0-3.86,1.4,6.37,6.37,0,0,0-2.12,3.52l-1.45,7.81a5,5,0,0,0,1.11,4.39A5.14,5.14,0,0,0,487.68,332.91Z"/><path d="M553.73,339.47a1.19,1.19,0,0,1-1.35,1.35h-6a11.34,11.34,0,0,1-3.28-.49A13,13,0,0,1,540,339a10.91,10.91,0,0,1-2.51-2,6.1,6.1,0,0,1-1.44-2.51,12.86,12.86,0,0,1-4.68,4.58,12.47,12.47,0,0,1-6.41,1.79h-6a1.19,1.19,0,0,1-1.35-1.35v-5.11a1.52,1.52,0,0,1,.38-1,1.24,1.24,0,0,1,1-.43h6.27a7.36,7.36,0,0,0,4.87-1.74,7.7,7.7,0,0,0,2.65-4.34l3-15.23,6.55,1.06-2.5,12.73a6.06,6.06,0,0,0,.09,2.84,5.57,5.57,0,0,0,1.35,2.41,7.33,7.33,0,0,0,2.32,1.64,6.74,6.74,0,0,0,2.89.63h5.88a1.24,1.24,0,0,1,1,.43,1.52,1.52,0,0,1,.38,1Zm-28.54,21.11h8.2v-8.19h-8.2Zm13.21,0h8.2v-8.19h-8.2Z"/><path d="M590.28,326a13.9,13.9,0,0,1-1.21,5.78,15.58,15.58,0,0,1-3.23,4.73,14.88,14.88,0,0,1-4.72,3.18,14.57,14.57,0,0,1-5.79,1.16h-23a1.19,1.19,0,0,1-1.35-1.35v-5.21a1.31,1.31,0,0,1,.44-.92,1.26,1.26,0,0,1,.91-.43h23.43a8.73,8.73,0,0,0,5.4-1.74q2.32-1.73,2.32-5.69v-1.34a5.29,5.29,0,0,1-1.83.62,13.28,13.28,0,0,1-2,.15h-9.45a12.34,12.34,0,0,1-5.54-1.26,12.65,12.65,0,0,1-4.3-3.37,12.8,12.8,0,0,1-2.45-4.87,12.33,12.33,0,0,1-.15-5.64l1.54-8.1a12.12,12.12,0,0,1,1.55-4.15,12.7,12.7,0,0,1,2.79-3.28,13,13,0,0,1,3.72-2.12,12.54,12.54,0,0,1,4.38-.77h5a13.07,13.07,0,0,1,5.25,1.06,13.58,13.58,0,0,1,7.19,7.18,13.29,13.29,0,0,1,1.06,5.26Zm-26.81-54.1h8.2v8.2h-8.2Zm6.08,45.23h14.07V304.85a5.84,5.84,0,0,0-1.78-4.29,6,6,0,0,0-4.39-1.79h-5.88a6,6,0,0,0-3.9,1.35,5.67,5.67,0,0,0-2.08,3.57l-1.35,7a5.08,5.08,0,0,0,1.16,4.44A5.22,5.22,0,0,0,569.55,317.1Zm7.13-45.23h8.2v8.2h-8.2Z"/><path d="M206.5,426.83V442a6.22,6.22,0,0,0,2.07,4.73,6.92,6.92,0,0,0,4.87,1.92h9.64a1.25,1.25,0,0,1,1,.44,1.51,1.51,0,0,1,.38,1v5.11a1.19,1.19,0,0,1-1.35,1.35H214.6a11.32,11.32,0,0,1-4.54-1,8.24,8.24,0,0,1-3.56-2.9v4.25a20.37,20.37,0,0,1-1.06,6.51,21.71,21.71,0,0,1-2.94,5.73,20.56,20.56,0,0,1-4.59,4.58,21.33,21.33,0,0,1-5.88,3l-11,3.86L178.92,474l11.67-3.86a12.8,12.8,0,0,0,6.75-4.92,13.44,13.44,0,0,0,2.5-7.91V426.83Z"/><path d="M228.29,434.06a15.47,15.47,0,0,1,1.25-6.17,16.23,16.23,0,0,1,3.43-5.06,16,16,0,0,1,5-3.42,14.75,14.75,0,0,1,6-1.26h1.15a15,15,0,0,1,6.13,1.26,15.6,15.6,0,0,1,5,3.42,16.89,16.89,0,0,1,3.38,5,15.14,15.14,0,0,1,1.25,6.13v3a12.36,12.36,0,0,1-1.69,6.36,20.76,20.76,0,0,1-4.48,5.3h11.38a1.31,1.31,0,0,1,.92.44,1.43,1.43,0,0,1,.43,1v5.11a1.34,1.34,0,0,1-.43.92,1.29,1.29,0,0,1-.92.43H257.6a32.8,32.8,0,0,1-6.5-.63,39,39,0,0,1-6.61-2,36.53,36.53,0,0,1-6.51,2,33,33,0,0,1-6.51.63h-8.39a1.23,1.23,0,0,1-1-.43,1.37,1.37,0,0,1-.39-.92v-5.11a1.47,1.47,0,0,1,.39-1,1.24,1.24,0,0,1,1-.44h11.38a20.76,20.76,0,0,1-4.48-5.3,12.36,12.36,0,0,1-1.69-6.36Zm6.56,3.38a7.49,7.49,0,0,0,2.7,5.59,29.47,29.47,0,0,0,6.94,4.63,31.81,31.81,0,0,0,7-4.63,7.41,7.41,0,0,0,2.8-5.59v-2.8a8.83,8.83,0,0,0-2.7-6.41,10.07,10.07,0,0,0-2.9-1.93,8.76,8.76,0,0,0-3.57-.72h-1.35a8.56,8.56,0,0,0-3.47.72,9.27,9.27,0,0,0-2.84,1.93,9.1,9.1,0,0,0-1.93,2.84,8.83,8.83,0,0,0-.72,3.57Zm5.4-30.67h8.19v-8.19h-8.19Z"/><path d="M283.93,440a8.92,8.92,0,0,0,.34,2.7,6.15,6.15,0,0,0,.77,1.68,6.52,6.52,0,0,0,1.11,1.21l15.62-17a19.67,19.67,0,0,1,6.51-4.63A19,19,0,0,1,316,422.3h5.88a13.08,13.08,0,0,1,5.26,1.06,13.51,13.51,0,0,1,7.18,7.18,13.12,13.12,0,0,1,1.06,5.26v6.85a13.65,13.65,0,0,1-4,9.78,14.24,14.24,0,0,1-4.39,3,13.18,13.18,0,0,1-5.4,1.11H292.32a15.4,15.4,0,0,1-3.57-.43,16.28,16.28,0,0,1-3.42-1.21,11.88,11.88,0,0,1-2.9-2,8.35,8.35,0,0,1-2-2.75A13.21,13.21,0,0,1,269,456.53h-2.89a1.24,1.24,0,0,1-1-.43,1.51,1.51,0,0,1-.38-1v-5a1.51,1.51,0,0,1,.38-1,1.25,1.25,0,0,1,1-.44h4.15a6.85,6.85,0,0,0,5-2,6.63,6.63,0,0,0,2.07-4.92v-13.4h6.66Zm38.57,8.67a6.22,6.22,0,0,0,4.44-1.73,6,6,0,0,0,1.83-4.53v-6.08a6.51,6.51,0,0,0-1.88-4.72,6.28,6.28,0,0,0-4.68-1.93h-6.56a13.33,13.33,0,0,0-5.69,1.16,13,13,0,0,0-4.43,3.37L292,448.62Z"/><path d="M393.47,456.82a20.53,20.53,0,0,1-1.06,6.56,22.33,22.33,0,0,1-2.94,5.83,21.83,21.83,0,0,1-4.53,4.68A19.58,19.58,0,0,1,379,477l-11,3.77-2.12-6.66,11.57-3.86a13.73,13.73,0,0,0,6.7-4.87,12.74,12.74,0,0,0,2.56-7.85v-1.74a4.66,4.66,0,0,1-1.78.63,15.79,15.79,0,0,1-2.08.14h-9.93a12.47,12.47,0,0,1-5.54-1.25,12.55,12.55,0,0,1-6.75-8.25,12.33,12.33,0,0,1-.15-5.64l1.64-8.77a11.56,11.56,0,0,1,1.54-4.1,13,13,0,0,1,2.8-3.23,12.7,12.7,0,0,1,3.71-2.12,12.37,12.37,0,0,1,4.39-.77H380a13.12,13.12,0,0,1,5.26,1.06,14.14,14.14,0,0,1,4.29,2.84,13.23,13.23,0,0,1,4,9.5Zm-6.65-8.2V435.8a6.11,6.11,0,0,0-6.08-6.08h-6.36a5.88,5.88,0,0,0-3.86,1.35,6.21,6.21,0,0,0-2.12,3.57L367,442.36a4.93,4.93,0,0,0,1.16,4.38,5.23,5.23,0,0,0,4.15,1.88Z"/><path d="M398.29,480.54,396.17,474l11.76-3.86a13,13,0,0,0,6.61-4.92,13.29,13.29,0,0,0,2.55-7.91V426.74h6.56v30a21.2,21.2,0,0,1-1,6.51,21.5,21.5,0,0,1-2.89,5.79,20.76,20.76,0,0,1-4.54,4.63,22.71,22.71,0,0,1-5.83,3.13Z"/><path d="M448.53,456.53a10.15,10.15,0,0,1-4-.82,9.92,9.92,0,0,1-3.33-2.26,11.14,11.14,0,0,1-2.22-3.38,10.32,10.32,0,0,1-.82-4.05V435.8h5.69v8.77a4.38,4.38,0,0,0,1,2.85,3.47,3.47,0,0,0,2.89,1.2H462.8a8.2,8.2,0,0,0,4.73-1.25,7.81,7.81,0,0,0,2.7-3,8.09,8.09,0,0,0,.77-3.9,8.75,8.75,0,0,0-1.06-3.86L458.85,416.8l5.59-3.76,11,19.67a16.26,16.26,0,0,1,2.37,8.44,16,16,0,0,1-1.93,7.67,15.21,15.21,0,0,1-13.45,7.71Z"/><path d="M502.72,456.53a12.24,12.24,0,0,1-5.5-1.25A12.85,12.85,0,0,1,493,451.9a13.21,13.21,0,0,1-2.51-4.87,12.06,12.06,0,0,1-.19-5.64l1.64-8.77a11.56,11.56,0,0,1,1.54-4.1,13.23,13.23,0,0,1,2.8-3.23,12.7,12.7,0,0,1,3.71-2.12,12.37,12.37,0,0,1,4.39-.77h5.4a13.12,13.12,0,0,1,5.26,1.06,14.14,14.14,0,0,1,4.29,2.84,13.23,13.23,0,0,1,4,9.5v12.82h7.62a1.24,1.24,0,0,1,1,.44,1.35,1.35,0,0,1,.39.91v5.21a1.19,1.19,0,0,1-1.35,1.35h-7.72v1.16a20.37,20.37,0,0,1-4.09,11.81A21.22,21.22,0,0,1,508.8,477l-11,3.77-2.12-6.66,11.57-3.86a13.8,13.8,0,0,0,6.71-4.87,12.79,12.79,0,0,0,2.55-7.85v-1.74a4.6,4.6,0,0,1-1.78.63,15.79,15.79,0,0,1-2.08.14Zm-.67-7.91h14.56V435.8a6.11,6.11,0,0,0-6.08-6.08h-6.36a5.88,5.88,0,0,0-3.86,1.35,6.21,6.21,0,0,0-2.12,3.57l-1.45,7.72a4.93,4.93,0,0,0,1.16,4.38A5.23,5.23,0,0,0,502.05,448.62Z"/><path d="M529.53,450.07a1.57,1.57,0,0,1,.38-1,1.21,1.21,0,0,1,1-.49H546.6a26.19,26.19,0,0,0,8.92-1.54,22.53,22.53,0,0,0,7.66-4.63l8.49-7.9a9,9,0,0,1,1.73-1.35l-23-6.85a4.11,4.11,0,0,0-3.43.34,4.67,4.67,0,0,0-2.17,2.65l-2.5,7.71-5.79-1.64,2.22-7.61a11.08,11.08,0,0,1,2.17-4.1,11.69,11.69,0,0,1,3.47-2.85,11.57,11.57,0,0,1,4.24-1.3,11.24,11.24,0,0,1,4.49.44l37.22,11.18-2,6.46-3.85-1.16a8.13,8.13,0,0,0-4.73.2,13.27,13.27,0,0,0-3.66,2.41L564.82,449.4a27.31,27.31,0,0,1-8.73,5.3A28.36,28.36,0,0,1,546,456.53H530.88a1.19,1.19,0,0,1-1.35-1.35Zm16-41.85h8.19V400h-8.19Z"/><path d="M346.51,542.55v15.14a6.21,6.21,0,0,0,2.07,4.72,6.91,6.91,0,0,0,4.87,1.93h9.65a1.23,1.23,0,0,1,1,.43,1.48,1.48,0,0,1,.39,1v5.11a1.19,1.19,0,0,1-1.35,1.35h-8.49a11.32,11.32,0,0,1-4.53-1,8.24,8.24,0,0,1-3.57-2.89v4.24a20.1,20.1,0,0,1-1.06,6.51,21.77,21.77,0,0,1-2.94,5.74,20.94,20.94,0,0,1-4.58,4.58,21.33,21.33,0,0,1-5.88,3l-11,3.85-2.12-6.65,11.67-3.86a12.73,12.73,0,0,0,6.75-4.92,13.42,13.42,0,0,0,2.51-7.9V542.55Z"/><path d="M397.81,570.9a1.19,1.19,0,0,1-1.35,1.35h-6a11.34,11.34,0,0,1-3.28-.49,13,13,0,0,1-3.08-1.35,11.18,11.18,0,0,1-2.51-2,6.24,6.24,0,0,1-1.45-2.51,12.75,12.75,0,0,1-4.67,4.58,12.51,12.51,0,0,1-6.42,1.79h-6a1.19,1.19,0,0,1-1.35-1.35v-5.11a1.52,1.52,0,0,1,.38-1,1.24,1.24,0,0,1,1-.43h6.26a7.33,7.33,0,0,0,4.87-1.74,7.64,7.64,0,0,0,2.65-4.34l3-15.23,6.56,1.06-2.51,12.73a6.06,6.06,0,0,0,.1,2.84,5.63,5.63,0,0,0,1.35,2.41,7.37,7.37,0,0,0,2.32,1.64,6.71,6.71,0,0,0,2.89.63h5.88a1.21,1.21,0,0,1,1,.43,1.48,1.48,0,0,1,.39,1Zm-28.54-39.35h8.19v-8.19h-8.19Zm13.21,0h8.19v-8.19h-8.19Z"/><path d="M407,558.26l2-9.93a11.78,11.78,0,0,1,1.54-4.14,12.54,12.54,0,0,1,2.79-3.28,12.76,12.76,0,0,1,3.72-2.12,12.32,12.32,0,0,1,4.38-.78h5.4a13.25,13.25,0,0,1,5.26,1.06,13.72,13.72,0,0,1,7.18,7.14,12.74,12.74,0,0,1,1.06,5.21v12.15a8.22,8.22,0,0,1-8.77,8.68H419.8a10.37,10.37,0,0,1-9.84-6.37,10.8,10.8,0,0,1-4.63,4.87,13,13,0,0,1-6.07,1.5h-2.8a1.19,1.19,0,0,1-1.35-1.35v-5.21a1.37,1.37,0,0,1,.39-.92,1.21,1.21,0,0,1,1-.43h3.09a7.36,7.36,0,0,0,4.87-1.74A7.19,7.19,0,0,0,407,558.26Zm12,6.08h14.66V551.42a5.84,5.84,0,0,0-1.78-4.29,6,6,0,0,0-4.39-1.79h-6.27a5.79,5.79,0,0,0-3.86,1.4,6.37,6.37,0,0,0-2.12,3.52l-1.44,7.81a5,5,0,0,0,1.11,4.39A5.12,5.12,0,0,0,419,564.34Z"/><path d="M465.12,572.25a12.05,12.05,0,0,1-5.5-1.26,12.72,12.72,0,0,1-4.24-3.37,13.21,13.21,0,0,1-2.51-4.87,11.8,11.8,0,0,1-.19-5.64l1.64-8.78a11.44,11.44,0,0,1,1.54-4.1,12.73,12.73,0,0,1,6.51-5.35,12.55,12.55,0,0,1,4.39-.77h5.4a13.07,13.07,0,0,1,5.25,1.06A14.1,14.1,0,0,1,481.7,542a13.18,13.18,0,0,1,4,9.49v12.83h7.61a1.24,1.24,0,0,1,1,.43,1.4,1.4,0,0,1,.38.92v5.21a1.19,1.19,0,0,1-1.35,1.35h-7.71v1.15a20.44,20.44,0,0,1-4.1,11.82,21.18,21.18,0,0,1-10.27,7.47l-11,3.76-2.12-6.65,11.57-3.86a13.9,13.9,0,0,0,6.7-4.87,12.81,12.81,0,0,0,2.56-7.86v-1.74a4.49,4.49,0,0,1-1.79.63,14,14,0,0,1-2.07.15Zm-.68-7.91H479V551.51a6.08,6.08,0,0,0-6.07-6.07h-6.37a5.85,5.85,0,0,0-3.85,1.35,6.19,6.19,0,0,0-2.13,3.57l-1.44,7.71a5,5,0,0,0,1.15,4.39A5.29,5.29,0,0,0,464.44,564.34Z"/><path d="M525.29,564.34a1.19,1.19,0,0,1,1.35,1.35v5.21a1.19,1.19,0,0,1-1.35,1.35H521a13.84,13.84,0,0,1-6.46-1.55,15.22,15.22,0,0,1-5-4.05,14.44,14.44,0,0,1-11.47,5.6h-4.73a1.19,1.19,0,0,1-1.35-1.35v-5.21a1.19,1.19,0,0,1,1.35-1.35h6a6.74,6.74,0,0,0,4.87-2,6.62,6.62,0,0,0,2.07-4.91V508.7h6.66v49.18a6.34,6.34,0,0,0,2.12,4.58,6.86,6.86,0,0,0,4.82,1.88Z"/><path d="M560,570.9a1.19,1.19,0,0,1-1.35,1.35h-6a11.34,11.34,0,0,1-3.28-.49,13,13,0,0,1-3.08-1.35,11.18,11.18,0,0,1-2.51-2,6.24,6.24,0,0,1-1.45-2.51,12.75,12.75,0,0,1-4.67,4.58,12.51,12.51,0,0,1-6.42,1.79h-6a1.19,1.19,0,0,1-1.35-1.35v-5.11a1.52,1.52,0,0,1,.38-1,1.24,1.24,0,0,1,1-.43h6.26a7.33,7.33,0,0,0,4.87-1.74,7.66,7.66,0,0,0,2.66-4.34l3-15.23,6.56,1.06-2.51,12.73a6.06,6.06,0,0,0,.1,2.84,5.63,5.63,0,0,0,1.35,2.41,7.37,7.37,0,0,0,2.32,1.64,6.71,6.71,0,0,0,2.89.63h5.88a1.21,1.21,0,0,1,1,.43,1.48,1.48,0,0,1,.39,1ZM531.46,592h8.19v-8.19h-8.19Zm13.21,0h8.19v-8.19h-8.19Z"/><path d="M570.8,572.25H558.65a1.19,1.19,0,0,1-1.35-1.35v-5.21a1.19,1.19,0,0,1,1.35-1.35h13a10.67,10.67,0,0,0,5.74-1.59,10.36,10.36,0,0,0,3.85-4.15,10.47,10.47,0,0,0,1-5.83,13.5,13.5,0,0,0-2.7-6.66L564.05,524.8v-5.59l29.6-15.14,3.09,6.08L570.8,523.36l14.27,19.09a19.32,19.32,0,0,1,4,10.17,18.39,18.39,0,0,1-1.78,9.65,18,18,0,0,1-16.54,10Z"/><path d="M63.06,61.85a7.25,7.25,0,0,1-5.12,1.59H53.87v8.62h-2V51.84h6.1a7.29,7.29,0,0,1,5.11,1.59,6,6,0,0,1,0,8.42Zm-.37-4.2a4,4,0,0,0-1.13-3.06,5.2,5.2,0,0,0-3.62-1H53.87V61.7h4.07C61.11,61.7,62.69,60.36,62.69,57.65Z"/><path d="M82.39,64.94H69.28A6.39,6.39,0,0,0,70.15,68a5.07,5.07,0,0,0,2.06,1.92,5.9,5.9,0,0,0,2.77.66,5.54,5.54,0,0,0,3.31-1,4.47,4.47,0,0,0,1.78-2.57h2.14a6.65,6.65,0,0,1-2.47,3.77A7.52,7.52,0,0,1,75,72.29a7.93,7.93,0,0,1-4-1,7,7,0,0,1-2.76-2.83,8.81,8.81,0,0,1-1-4.3,9.13,9.13,0,0,1,1-4.31A6.88,6.88,0,0,1,71,57a8.09,8.09,0,0,1,4-1,7.67,7.67,0,0,1,4,1,6.78,6.78,0,0,1,2.61,2.65,7.57,7.57,0,0,1,.91,3.68A15.59,15.59,0,0,1,82.39,64.94Zm-2.71-4.65a4.73,4.73,0,0,0-2-1.88,6,6,0,0,0-2.77-.64,5.49,5.49,0,0,0-3.85,1.45,5.79,5.79,0,0,0-1.77,4.08H80.39A5.53,5.53,0,0,0,79.68,60.29Z"/><path d="M99.17,56.27,89.79,79.5H87.68L90.75,72l-6.48-15.7H86.5l5.38,13.48,5.2-13.48Z"/><path d="M102,59.87A7.07,7.07,0,0,1,104.68,57a7.66,7.66,0,0,1,3.89-1,7.09,7.09,0,0,1,3.76,1,6.15,6.15,0,0,1,2.46,2.63v-9h2V72.06h-2V68.53a6.1,6.1,0,0,1-2.37,2.71,7.09,7.09,0,0,1-3.88,1.05,7.47,7.47,0,0,1-3.89-1A7,7,0,0,1,102,68.42a9.1,9.1,0,0,1-1-4.29A8.93,8.93,0,0,1,102,59.87Zm12,.94a5.52,5.52,0,0,0-2.13-2.23,5.79,5.79,0,0,0-3-.78,6,6,0,0,0-3,.75,5.29,5.29,0,0,0-2.1,2.19,7.07,7.07,0,0,0-.77,3.39,7.2,7.2,0,0,0,.77,3.4,5.33,5.33,0,0,0,2.1,2.23,5.91,5.91,0,0,0,3,.77,5.79,5.79,0,0,0,3-.78A5.59,5.59,0,0,0,114,67.52a7.61,7.61,0,0,0,0-6.71Z"/><path d="M121.49,59.87A6.89,6.89,0,0,1,124.18,57a7.64,7.64,0,0,1,3.89-1,7.05,7.05,0,0,1,3.89,1,6,6,0,0,1,2.35,2.66V56.27h2V72.06h-2v-3.5a6.36,6.36,0,0,1-2.38,2.68A7.05,7.05,0,0,1,128,72.29a7.39,7.39,0,0,1-3.86-1,7,7,0,0,1-2.69-2.86,9.1,9.1,0,0,1-1-4.29A8.93,8.93,0,0,1,121.49,59.87Zm12,.94a5.56,5.56,0,0,0-2.12-2.23,5.83,5.83,0,0,0-3-.78,6,6,0,0,0-3,.75,5.33,5.33,0,0,0-2.09,2.19,7.07,7.07,0,0,0-.77,3.39,7.2,7.2,0,0,0,.77,3.4,5.37,5.37,0,0,0,2.09,2.23,5.94,5.94,0,0,0,3,.77,5.83,5.83,0,0,0,3-.78,5.63,5.63,0,0,0,2.12-2.23,7.61,7.61,0,0,0,0-6.71Z"/><path d="M159.66,72.06l-5-8.45h-3.73v8.45h-2V51.84H155a7.28,7.28,0,0,1,5.13,1.62,5.51,5.51,0,0,1,1.75,4.25,5.79,5.79,0,0,1-1.25,3.75,6,6,0,0,1-3.72,2l5.21,8.59ZM150.92,62H155a5,5,0,0,0,3.57-1.16,4.11,4.11,0,0,0,1.2-3.1,4,4,0,0,0-1.16-3.08A5.19,5.19,0,0,0,155,53.55h-4.05Z"/><path d="M180.11,64.94H167a6.39,6.39,0,0,0,.87,3.07,5.1,5.1,0,0,0,2,1.92,6,6,0,0,0,2.78.66,5.54,5.54,0,0,0,3.31-1,4.47,4.47,0,0,0,1.78-2.57h2.14a6.65,6.65,0,0,1-2.47,3.77,7.52,7.52,0,0,1-4.76,1.46,7.93,7.93,0,0,1-4-1A7,7,0,0,1,166,68.46a8.81,8.81,0,0,1-1-4.3,9.13,9.13,0,0,1,1-4.31A6.82,6.82,0,0,1,168.68,57a8.09,8.09,0,0,1,4-1,7.67,7.67,0,0,1,4,1,6.69,6.69,0,0,1,2.6,2.65,7.47,7.47,0,0,1,.92,3.68A15.59,15.59,0,0,1,180.11,64.94Zm-2.71-4.65a4.73,4.73,0,0,0-2-1.88,6,6,0,0,0-2.77-.64,5.49,5.49,0,0,0-3.85,1.45A5.79,5.79,0,0,0,167,63.3h11.11A5.62,5.62,0,0,0,177.4,60.29Z"/><path d="M194.37,57.08a6,6,0,0,1,2.37,2.63V56.27h2v16.2a7.8,7.8,0,0,1-.94,3.84,6.47,6.47,0,0,1-2.62,2.59,7.84,7.84,0,0,1-3.82.91,8.45,8.45,0,0,1-5-1.44,6.17,6.17,0,0,1-2.5-3.94h2a4.82,4.82,0,0,0,2,2.64,6.27,6.27,0,0,0,3.57,1,5.79,5.79,0,0,0,2.75-.65,4.73,4.73,0,0,0,1.91-1.93,6.18,6.18,0,0,0,.69-3V68.56a6.39,6.39,0,0,1-2.39,2.68,7,7,0,0,1-3.86,1.05,7.5,7.5,0,0,1-3.89-1,7,7,0,0,1-2.69-2.86,9.23,9.23,0,0,1-1-4.29,9,9,0,0,1,1-4.26A7,7,0,0,1,186.6,57a7.69,7.69,0,0,1,3.89-1A7.06,7.06,0,0,1,194.37,57.08ZM196,60.81a5.52,5.52,0,0,0-2.13-2.23,5.77,5.77,0,0,0-3-.78,6,6,0,0,0-3,.75,5.29,5.29,0,0,0-2.1,2.19,7.07,7.07,0,0,0-.76,3.39,7.19,7.19,0,0,0,.76,3.4,5.33,5.33,0,0,0,2.1,2.23,5.94,5.94,0,0,0,3,.77,5.77,5.77,0,0,0,3-.78A5.59,5.59,0,0,0,196,67.52a7.61,7.61,0,0,0,0-6.71Z"/><path d="M217.08,56.27V72.06h-2V69.28a4.79,4.79,0,0,1-2.14,2.26,6.69,6.69,0,0,1-3.24.78A6.35,6.35,0,0,1,205,70.57a6.81,6.81,0,0,1-1.79-5.08V56.27h2v9a5.56,5.56,0,0,0,1.28,3.94,4.64,4.64,0,0,0,3.52,1.36,4.73,4.73,0,0,0,3.64-1.45,6,6,0,0,0,1.36-4.25V56.27Z"/><path d="M223.73,50.65V72.06h-2V50.65Z"/><path d="M228.37,59.87A7,7,0,0,1,231.06,57a7.7,7.7,0,0,1,3.9-1,7.05,7.05,0,0,1,3.89,1,6,6,0,0,1,2.35,2.66V56.27h2V72.06h-2v-3.5a6.36,6.36,0,0,1-2.38,2.68,7.05,7.05,0,0,1-3.89,1.05,7.45,7.45,0,0,1-3.87-1,7.08,7.08,0,0,1-2.69-2.86,9.22,9.22,0,0,1-1-4.29A9,9,0,0,1,228.37,59.87Zm12,.94a5.56,5.56,0,0,0-2.12-2.23,5.83,5.83,0,0,0-3-.78,6,6,0,0,0-3,.75,5.33,5.33,0,0,0-2.09,2.19,7,7,0,0,0-.77,3.39,7.08,7.08,0,0,0,.77,3.4,5.37,5.37,0,0,0,2.09,2.23,5.94,5.94,0,0,0,3,.77,5.83,5.83,0,0,0,3-.78,5.63,5.63,0,0,0,2.12-2.23,7.61,7.61,0,0,0,0-6.71Z"/><path d="M251.92,56.79a6.54,6.54,0,0,1,3.37-.81v2.11h-.55a4.43,4.43,0,0,0-4.86,5.15v8.82h-2V56.27h2v2.8A5,5,0,0,1,251.92,56.79Z"/></g></svg>