<svg xmlns="http://www.w3.org/2000/svg" xmlns:xlink="http://www.w3.org/1999/xlink" viewBox="0 0 1152 648"><defs><style>.cls-1{fill:none;}.cls-2{clip-path:url(#clip-path);}.cls-3{fill:#79e45e;}.cls-4{fill:#52c13e;}.cls-5,.cls-7{fill:#7de065;}.cls-6,.cls-8{fill:#fff;}.cls-6,.cls-7{fill-rule:evenodd;}.cls-9{fill:#abff90;}.cls-10{clip-path:url(#clip-path-2);}.cls-11{clip-path:url(#clip-path-3);}</style><clipPath id="clip-path"><rect class="cls-1" width="1152" height="648"/></clipPath><clipPath id="clip-path-2"><circle class="cls-1" cx="616.05" cy="431.84" r="143.83"/></clipPath><clipPath id="clip-path-3"><rect class="cls-1" x="-1901.11" y="-862.77" width="3451.83" height="1941.66"/></clipPath></defs><g id="Graphic"><g class="cls-2"><rect class="cls-3" width="1152" height="648"/><rect class="cls-4" x="760.07" y="320.06" width="288" height="96" rx="48"/><path class="cls-4" d="M904.07,448.06h96a48,48,0,0,1,48,48h0a48,48,0,0,1-48,48h-96a48,48,0,0,1-48-48h0A48,48,0,0,1,904.07,448.06Z"/><circle class="cls-5" cx="1000.07" cy="496.06" r="40"/><path class="cls-6" d="M996.07,472.06a4,4,0,1,0,4-4A4,4,0,0,0,996.07,472.06Zm20,24a16,16,0,1,1-16-16A16,16,0,0,1,1016.07,496.06Zm12,0a4,4,0,1,1-4-4A4,4,0,0,1,1028.07,496.06Zm-52,4a4,4,0,1,0-4-4A4,4,0,0,0,976.07,500.06Zm24,24a4,4,0,1,1,4-4A4,4,0,0,1,1000.07,524.06Zm-19.8-8.2a4,4,0,1,1,5.66,0A4,4,0,0,1,980.27,515.86Zm33.94-39.6a4,4,0,1,0,5.66,0A4,4,0,0,0,1014.21,476.26Zm-33.94,0a4,4,0,1,1,0,5.66A4,4,0,0,1,980.27,476.26Zm39.6,33.94a4,4,0,1,0,0,5.66A4,4,0,0,0,1019.87,510.2Z"/><path class="cls-7" d="M921.4,476.1c-.44,0-.88,0-1.33,0a20,20,0,0,0,0,40c.45,0,.89,0,1.33,0a24,24,0,1,1,0-39.91Z"/><rect class="cls-4" x="-391.93" y="64.06" width="1440" height="224"/><path class="cls-8" d="M404,176.06H372v32h32Z"/><path class="cls-8" d="M284,128.06H252v80h32Z"/><path class="cls-8" d="M364,128.06H332v80h32Z"/><path class="cls-8" d="M308,208.06a16,16,0,1,0-16-16A16,16,0,0,0,308,208.06Z"/><path class="cls-8" d="M388,248.06a16,16,0,1,0-16-16A16,16,0,0,0,388,248.06Z"/><path class="cls-6" d="M976.07,144.06h-80v8h80Zm0,28h-80v8h80Zm-80,28h80v8h-80Z"/><path class="cls-4" d="M-391.93,432.06a112,112,0,0,1,112-112h896a112,112,0,0,1,112,112h0a112,112,0,0,1-112,112h-896a112,112,0,0,1-112-112Z"/><path class="cls-8" d="M-110,441.75a7.06,7.06,0,0,1,4,2.5,6.86,6.86,0,0,1,1.6,4.54V451a12.64,12.64,0,0,1-1,5.06,13.08,13.08,0,0,1-2.82,4.22,12.26,12.26,0,0,1-4.16,2.82,12.79,12.79,0,0,1-5.12,1h-12.8a13.69,13.69,0,0,1-5.57-1.15,14,14,0,0,1-4.6-3.07,14.75,14.75,0,0,1-3.08-4.54,14.22,14.22,0,0,1-1.08-5.57V435.16h7v13.63a6.72,6.72,0,0,0,.57,2.76,7.64,7.64,0,0,0,1.54,2.24,6.51,6.51,0,0,0,2.24,1.47,6.67,6.67,0,0,0,2.75.57h13.76A5.17,5.17,0,0,0-113,454.3a5.15,5.15,0,0,0,1.53-3.78v-1.66l-17.92-4.23v-7.48a13.75,13.75,0,0,1,.83-4.8,13.27,13.27,0,0,1,2.44-4,11.84,11.84,0,0,1,3.64-2.88,12.92,12.92,0,0,1,4.61-1.47l9-1.16,1.15,7.68L-118,431.9a5.27,5.27,0,0,0-3.32,1.73,5.06,5.06,0,0,0-1.28,3.45v1.86Zm28.17-12.6v12a2.36,2.36,0,0,0,1,1.92,3.48,3.48,0,0,0,2.11.71h4.67a.79.79,0,0,1,.9.89v6.53a.8.8,0,0,1-.9.9h-3.52a7.55,7.55,0,0,1-2.3-.39,3.3,3.3,0,0,1-1.92-1.6v1.16a12.85,12.85,0,0,1-.83,4.6,14.42,14.42,0,0,1-2.18,4.1,14.88,14.88,0,0,1-3.33,3.2,15.36,15.36,0,0,1-4.22,2.18l-8.83,3-2.18-6.59,9.22-3a7,7,0,0,0,3.84-2.88,7.6,7.6,0,0,0,1.47-4.54V429.15Zm9.4,30.59h7.36v7.36h-7.36Zm9.22-16a3,3,0,0,0,2.18-.9,3.19,3.19,0,0,0,.89-2.24V427.35h7V440.6a11.48,11.48,0,0,1-.89,4.48,11.81,11.81,0,0,1-2.5,3.65,11.27,11.27,0,0,1-3.65,2.43,10.8,10.8,0,0,1-4.41.9h-9.54a.87.87,0,0,1-.64-.26,1,1,0,0,1-.26-.64V444.7a.87.87,0,0,1,.26-.64.79.79,0,0,1,.64-.32Zm7.17,24.64-2.17-6.59,9.22-3a7.52,7.52,0,0,0,3.84-2.88,7.63,7.63,0,0,0,1.47-4.55V429.21h7v21.44a15.17,15.17,0,0,1-.77,4.8,15,15,0,0,1-2.18,4.29,13.64,13.64,0,0,1-3.32,3.33,15.32,15.32,0,0,1-4.3,2.3Zm41.12-17.22a.8.8,0,0,1-.9.9H-17.7a11.58,11.58,0,0,1-4.36-.83,11.54,11.54,0,0,1-3.58-2.44,11.57,11.57,0,0,1-2.43-3.58,10.69,10.69,0,0,1-.9-4.35V408.22h7v32.45a2.94,2.94,0,0,0,.9,2.17,3,3,0,0,0,2.17.9h3a.79.79,0,0,1,.64.32.87.87,0,0,1,.26.64Zm7.21.9h-8.13a.88.88,0,0,1-.64-.26,1.09,1.09,0,0,1-.25-.7v-6.47a.71.71,0,0,1,.32-.57.72.72,0,0,1,.57-.32H-7a5.51,5.51,0,0,0,3.14-.9,5.92,5.92,0,0,0,2-2.3,6.1,6.1,0,0,0,.64-3,5.13,5.13,0,0,0-1.15-3l-10.94-14.78v-5.06L8.32,403.74,11.46,410l-17.54,8.83,9.41,11.71a11.86,11.86,0,0,1,2.31,4.61A12.7,12.7,0,0,1,6,440a12.68,12.68,0,0,1-1.41,4.55,15.31,15.31,0,0,1-2.95,3.9,14.17,14.17,0,0,1-4.22,2.69A13.52,13.52,0,0,1-7.74,452.06Zm66.43-8.32a3.07,3.07,0,0,0,3.07-3.07V427.35h7v13.32a11.31,11.31,0,0,1-.9,4.48,10.89,10.89,0,0,1-2.49,3.58,11.38,11.38,0,0,1-3.65,2.43,10.85,10.85,0,0,1-4.42.9H33A12.46,12.46,0,0,1,28,451a12.79,12.79,0,0,1-6.85-6.84,12.67,12.67,0,0,1-1-5.06V427.35h7v11.08a5.24,5.24,0,0,0,5.31,5.31ZM40.77,467h7.36v-7.36H40.77Zm49.09-15.87a.8.8,0,0,1-.9.9H87.11a11.27,11.27,0,0,1-10.37-6.85,10.69,10.69,0,0,1-.9-4.35V408.22h7v32.45A3.07,3.07,0,0,0,86,443.74h3a.78.78,0,0,1,.64.32.83.83,0,0,1,.26.64Zm16.17.9a10.28,10.28,0,0,1-4.29-.9,9.24,9.24,0,0,1-3.52-2.88,9,9,0,0,1-3.58,2.88,10.24,10.24,0,0,1-4.29.9H88.94a.79.79,0,0,1-.57-.26.88.88,0,0,1-.32-.64V444.7a.76.76,0,0,1,.32-.64.74.74,0,0,1,.57-.32h2.63a3.18,3.18,0,0,0,2.17-1,3,3,0,0,0,.9-2.18V429.15h7v11.58a3.19,3.19,0,0,0,3,3h2A3.5,3.5,0,0,0,109,443a3.64,3.64,0,0,0,1.21-2.11l2.24-11.59,6.91,1.28-1.92,9.73a2.66,2.66,0,0,0,.58,2.43,3,3,0,0,0,2.3,1h1.8a3.1,3.1,0,0,0,2.17-.83,3,3,0,0,0,.9-2.18V427.48h7v13.19a2.93,2.93,0,0,0,.89,2.17,3,3,0,0,0,2.18.9h2.56a1,1,0,0,1,.9.89v6.47a1.1,1.1,0,0,1-.26.7.75.75,0,0,1-.64.26h-1.41a10.28,10.28,0,0,1-4.29-.9,8.7,8.7,0,0,1-3.45-2.88,9.08,9.08,0,0,1-3.59,2.88,10.66,10.66,0,0,1-4.35.9,10.38,10.38,0,0,1-4-.83,7.43,7.43,0,0,1-3.26-3,8.88,8.88,0,0,1-3.4,3A10.1,10.1,0,0,1,106,452.06Zm30.89-7.36a.94.94,0,0,1,.32-.64.74.74,0,0,1,.58-.32h11.46a17.62,17.62,0,0,0,5.31-.83,10.89,10.89,0,0,0,4.48-2.88l3.71-4c.21-.21.4-.41.58-.58s.27-.25.32-.25l-13.44-4a1.41,1.41,0,0,0-1.16.13,1.71,1.71,0,0,0-.7.83l-2.43,6.4-6.15-1.66,1.67-5.89a8.88,8.88,0,0,1,1.79-3.39,9.65,9.65,0,0,1,2.82-2.18,9.54,9.54,0,0,1,6.84-.64l25.48,7.62L176.28,439l-3-.89a4.3,4.3,0,0,0-2.5.06,5.15,5.15,0,0,0-1.86,1.28l-7.36,7.3a16.73,16.73,0,0,1-6.4,4,22.49,22.49,0,0,1-7.48,1.28h-9.86a.8.8,0,0,1-.9-.9Zm54.86-9.6a11.37,11.37,0,0,1,.64-3.78,11.63,11.63,0,0,1,1.8-3.33,12.77,12.77,0,0,1,2.68-2.56,10.56,10.56,0,0,1,3.52-1.53l8.45-2v-4.8h7v23.23a3.2,3.2,0,0,0,1.09,2.43,3.81,3.81,0,0,0,2.62,1h1.92a.79.79,0,0,1,.58.25.82.82,0,0,1,.32.64v6.53a.79.79,0,0,1-.32.64.8.8,0,0,1-.58.26h-1.92a9.47,9.47,0,0,1-5.56-1.6,12.32,12.32,0,0,1-3.78-4.29,5.73,5.73,0,0,1-1.92.83,11,11,0,0,1-2.24.26h-6.27a7.74,7.74,0,0,1-3.14-.64,8.26,8.26,0,0,1-2.56-1.73,8.15,8.15,0,0,1-1.73-2.56,7.91,7.91,0,0,1-.64-3.14Zm17.09-5.7-6.53,1.6a4.39,4.39,0,0,0-2.56,1.67,4.76,4.76,0,0,0-1,2.94v3.33h10.05Zm14.36,30.34h7.36v7.36h-7.36Zm9.22-16a2.94,2.94,0,0,0,2.17-.9,3.16,3.16,0,0,0,.9-2.24V427.35h7V440.6a11.31,11.31,0,0,1-.9,4.48,11.61,11.61,0,0,1-2.49,3.65,11.38,11.38,0,0,1-3.65,2.43,10.85,10.85,0,0,1-4.42.9h-9.53a.87.87,0,0,1-.64-.26,1,1,0,0,1-.26-.64V444.7a.87.87,0,0,1,.26-.64.79.79,0,0,1,.64-.32Zm32,8.32a8.31,8.31,0,0,1-3.26-.64,9.11,9.11,0,0,1-4.55-4.55,8.76,8.76,0,0,1-.64-3.32v-8.32h6v7a1.46,1.46,0,0,0,.45,1.08,1.5,1.5,0,0,0,1,.39H274a3.67,3.67,0,0,0,2.05-.58,4,4,0,0,0,1.47-1.47,3.54,3.54,0,0,0,.58-1.92,3.76,3.76,0,0,0-.52-2.11l-7.93-14.15,5.95-3.9,8.51,15.1a10.4,10.4,0,0,1,1.47,6,12.12,12.12,0,0,1-1.6,5.63,12.31,12.31,0,0,1-4.09,4.16,11.19,11.19,0,0,1-6,1.6Zm52.75-1.35a14.81,14.81,0,0,1-.77,4.8,15.19,15.19,0,0,1-2.17,4.29,14.2,14.2,0,0,1-3.33,3.46,15.07,15.07,0,0,1-4.35,2.3l-8.77,3-2.18-6.72,9-3a8.2,8.2,0,0,0,3.9-2.69,6.64,6.64,0,0,0,1.54-4.41v-.45a10.56,10.56,0,0,1-1.73.58,11.85,11.85,0,0,1-2,.19H302a9.84,9.84,0,0,1-4.35-1,11,11,0,0,1-3.39-2.69,10.11,10.11,0,0,1-1.92-3.78,9.94,9.94,0,0,1-.13-4.48l1.09-5.82a9.28,9.28,0,0,1,1.22-3.2,11,11,0,0,1,2.24-2.62,9.21,9.21,0,0,1,2.88-1.67,9.64,9.64,0,0,1,3.45-.64h3.59a10.19,10.19,0,0,1,7.42,3.14,10.72,10.72,0,0,1,2.24,3.33,10.24,10.24,0,0,1,.83,4.09Zm-7-7v-7a2.35,2.35,0,0,0-.7-1.73,2.27,2.27,0,0,0-1.73-.77h-5.18a2.19,2.19,0,0,0-1.54.58,2.64,2.64,0,0,0-.83,1.47l-1,5.12a2,2,0,0,0,.39,1.66,2.07,2.07,0,0,0,1.6.71Zm10.49,24.64-2.18-6.59,9.22-3a7.52,7.52,0,0,0,3.84-2.88,7.63,7.63,0,0,0,1.47-4.55V429.21h7v21.44a15.7,15.7,0,0,1-2.94,9.09,13.86,13.86,0,0,1-3.33,3.33,15.26,15.26,0,0,1-4.29,2.3Zm51.61-17.67a15.7,15.7,0,0,1-2.94,9.09,14.2,14.2,0,0,1-3.33,3.46,15.07,15.07,0,0,1-4.35,2.3l-8.77,3-2.18-6.72,9-3a8.2,8.2,0,0,0,3.9-2.69,6.64,6.64,0,0,0,1.54-4.41v-.45a10.56,10.56,0,0,1-1.73.58,11.76,11.76,0,0,1-2,.19h-4.29a9.87,9.87,0,0,1-4.35-1,11,11,0,0,1-3.39-2.69,10.11,10.11,0,0,1-1.92-3.78,9.94,9.94,0,0,1-.13-4.48l1.09-5.82a9.28,9.28,0,0,1,1.22-3.2,11,11,0,0,1,2.24-2.62,9.21,9.21,0,0,1,2.88-1.67,9.64,9.64,0,0,1,3.45-.64h3.59a10.19,10.19,0,0,1,7.42,3.14,10.72,10.72,0,0,1,2.24,3.33,10.07,10.07,0,0,1,.83,4.09Zm-7-7v-7a2.35,2.35,0,0,0-.7-1.73,2.27,2.27,0,0,0-1.73-.77h-5.18a2.2,2.2,0,0,0-1.54.58,2.64,2.64,0,0,0-.83,1.47l-1,5.12a2,2,0,0,0,.39,1.66,2.08,2.08,0,0,0,1.6.71Z"/><path class="cls-6" d="M481.27,423.26l2.8.8v48h-56v-48l2.8-.8c2-.4,3.6-.8,5.2-1.2h0v-10a20,20,0,0,1,40,0h-8a12,12,0,0,0-24,0v8.8A97.09,97.09,0,0,1,481.27,423.26Zm-45.2,7.2v33.6h40v-33.6A96.29,96.29,0,0,0,436.07,430.46Zm16,25.6v-20h8v20Z"/><rect class="cls-9" x="-391.93" y="319.56" width="1543.48" height="1"/><rect class="cls-9" x="-391.93" y="543.56" width="1543.48" height="1"/><rect class="cls-9" x="-391.93" y="511.56" width="1248.18" height="1"/><rect class="cls-9" x="-391.93" y="479.56" width="1248.18" height="1"/><rect class="cls-9" x="1048.07" y="511.56" width="103.48" height="1"/><rect class="cls-9" x="1048.07" y="479.56" width="103.48" height="1"/><rect class="cls-9" x="-2.65" y="607.56" width="1154.2" height="1"/><rect class="cls-9" x="-2.65" y="575.56" width="1154.2" height="1"/><rect class="cls-9" x="376.07" y="447.56" width="32" height="1"/><rect class="cls-9" x="376.07" y="415.56" width="32" height="1"/><rect class="cls-9" x="504.07" y="447.56" width="648.38" height="1"/><rect class="cls-9" x="856.25" y="455.56" width="191.82" height="1"/><rect class="cls-9" x="856.25" y="535.56" width="191.82" height="1"/><rect class="cls-9" x="1039.56" y="448.05" width="1" height="95.92"/><rect class="cls-9" x="959.57" y="448.05" width="1" height="95.92"/><rect class="cls-9" x="951.66" y="448.05" width="1" height="95.92"/><rect class="cls-9" x="943.56" y="448.05" width="1" height="95.92"/><rect class="cls-9" x="863.57" y="448.05" width="1" height="95.92"/><rect class="cls-9" x="504.07" y="415.56" width="647.48" height="1"/><rect class="cls-9" x="-391.93" y="383.56" width="1199.99" height="1"/><rect class="cls-9" x="-391.93" y="351.56" width="1199.99" height="1"/><rect class="cls-9" x="1000.05" y="383.56" width="152.4" height="1"/><rect class="cls-9" x="1000.05" y="351.56" width="152.4" height="1"/><rect class="cls-9" x="-391.93" y="63.56" width="1440" height="1"/><rect class="cls-9" x="-391.93" y="287.56" width="1544.01" height="1"/><rect class="cls-9" x="-391.93" y="255.56" width="1544.01" height="1"/><rect class="cls-9" x="408.07" y="223.56" width="744.01" height="1"/><rect class="cls-9" x="408.07" y="191.56" width="480" height="1"/><rect class="cls-9" x="408.07" y="159.56" width="480" height="1"/><rect class="cls-9" x="-231.93" y="191.56" width="479.98" height="1"/><rect class="cls-9" x="-231.93" y="159.56" width="479.98" height="1"/><rect class="cls-9" x="984.07" y="191.56" width="168.01" height="1"/><rect class="cls-9" x="984.07" y="159.56" width="168.01" height="1"/><rect class="cls-9" x="408.07" y="127.56" width="744.01" height="1"/><rect class="cls-9" x="-391.93" y="223.56" width="640" height="1"/><rect class="cls-9" x="-391.93" y="127.56" width="640" height="1"/><rect class="cls-9" x="-391.93" y="95.56" width="1544.01" height="1"/><rect class="cls-9" x="-391.93" y="63.56" width="1544.01" height="1"/><rect class="cls-9" x="823.57" width="1" height="336.05"/><rect class="cls-9" x="823.57" y="400.06" width="1" height="247.94"/><rect class="cls-9" x="599.57" y="0.01" width="1" height="648"/><rect class="cls-9" x="631.57" y="0.01" width="1" height="648"/><rect class="cls-9" x="663.57" y="0.01" width="1" height="648"/><rect class="cls-9" x="695.57" width="1" height="648"/><rect class="cls-9" x="727.57" width="1" height="648"/><rect class="cls-9" x="759.57" width="1" height="648"/><rect class="cls-9" x="791.57" width="1" height="648"/><rect class="cls-9" x="375.57" width="1" height="96.05"/><rect class="cls-9" x="375.57" y="256.06" width="1" height="391.94"/><rect class="cls-9" x="407.57" width="1" height="648"/><rect class="cls-9" x="439.56" width="1" height="384.05"/><rect class="cls-9" x="471.56" width="1" height="384.05"/><rect class="cls-9" x="503.57" width="1" height="648"/><rect class="cls-9" x="535.57" y="0.01" width="1" height="648"/><rect class="cls-9" x="567.57" y="0.01" width="1" height="648"/><rect class="cls-9" x="855.57" width="1" height="336.05"/><rect class="cls-9" x="855.57" y="400.06" width="1" height="247.94"/><rect class="cls-9" x="887.56" width="1" height="320.06"/><rect class="cls-9" x="887.56" y="400.06" width="1" height="48.74"/><rect class="cls-9" x="919.56" y="224.05" width="1" height="112.01"/><rect class="cls-9" x="951.56" y="224.05" width="1" height="112.01"/><rect class="cls-9" x="919.54" y="400.05" width="1" height="47.32"/><rect class="cls-9" x="951.54" y="400.05" width="1" height="47.32"/><rect class="cls-9" x="919.56" width="1" height="128.05"/><rect class="cls-9" x="951.56" width="1" height="128.05"/><rect class="cls-9" x="983.56" width="1" height="336.06"/><rect class="cls-9" x="983.56" y="400.06" width="1" height="48.74"/><rect class="cls-9" x="887.57" y="544.76" width="1" height="103.24"/><rect class="cls-9" x="919.54" y="544.75" width="1" height="103.25"/><rect class="cls-9" x="951.54" y="544.75" width="1" height="103.25"/><rect class="cls-9" x="983.57" y="544.76" width="1" height="103.24"/><rect class="cls-9" x="1015.57" y="544.76" width="1" height="103.24"/><rect class="cls-9" x="1015.56" width="1" height="448.05"/><rect class="cls-9" x="999.55" y="320.05" width="1" height="96.01"/><rect class="cls-9" x="807.56" y="320.05" width="1" height="96.01"/><rect class="cls-9" x="1047.57" width="1" height="648"/><rect class="cls-9" x="151.56" width="1" height="384.05"/><rect class="cls-9" x="183.56" width="1" height="384.05"/><rect class="cls-9" x="215.56" width="1" height="384.05"/><rect class="cls-9" x="247.56" width="1" height="384.05"/><rect class="cls-9" x="279.56" width="1" height="96.06"/><rect class="cls-9" x="279.56" y="256.06" width="1" height="127.99"/><rect class="cls-9" x="311.56" y="-0.01" width="1" height="96.06"/><rect class="cls-9" x="343.56" y="-0.01" width="1" height="96.06"/><rect class="cls-9" x="311.56" y="256.05" width="1" height="127.99"/><rect class="cls-9" x="343.56" y="256.05" width="1" height="127.99"/><rect class="cls-9" x="23.56" width="1" height="384.05"/><rect class="cls-9" x="55.56" width="1" height="384.05"/><rect class="cls-9" x="87.56" width="1" height="384.05"/><rect class="cls-9" x="119.56" width="1" height="384.05"/><rect class="cls-9" x="439.55" y="480.06" width="1" height="167.94"/><rect class="cls-9" x="471.55" y="480.06" width="1" height="167.94"/><rect class="cls-9" x="151.55" y="480.06" width="1" height="167.94"/><rect class="cls-9" x="183.55" y="480.06" width="1" height="167.94"/><rect class="cls-9" x="215.55" y="480.06" width="1" height="167.94"/><rect class="cls-9" x="247.55" y="480.06" width="1" height="167.94"/><rect class="cls-9" x="279.55" y="480.06" width="1" height="167.94"/><rect class="cls-9" x="311.55" y="480.06" width="1" height="167.94"/><rect class="cls-9" x="343.55" y="480.06" width="1" height="167.94"/><rect class="cls-9" x="23.55" y="480.06" width="1" height="167.94"/><rect class="cls-9" x="55.55" y="480.06" width="1" height="167.94"/><rect class="cls-9" x="87.55" y="480.06" width="1" height="167.94"/><rect class="cls-9" x="119.55" y="480.06" width="1" height="167.94"/><path class="cls-8" d="M820.56,377.42a5.48,5.48,0,0,1-2-.38,5.64,5.64,0,0,1-1.68-1.15,6.14,6.14,0,0,1-1.11-1.68,5.53,5.53,0,0,1-.38-2V367.1h2.83v4.37a2.31,2.31,0,0,0,.48,1.44,1.78,1.78,0,0,0,1.44.58h7.54a4,4,0,0,0,2.35-.63,3.87,3.87,0,0,0,1.34-1.49,4.06,4.06,0,0,0,.39-2,4.36,4.36,0,0,0-.53-1.92l-5.52-9.84,2.78-1.88,5.47,9.8a8,8,0,0,1,1.16,4.22,7.48,7.48,0,0,1-7.64,7.63Zm24.43,0h-3.32V345.79H845Zm-2.06,11.95-1.06-3.26,5.81-1.92a6.3,6.3,0,0,0,3.31-2.45,6.46,6.46,0,0,0,1.3-3.93V362.64h3.31v14.88a10.47,10.47,0,0,1-2,6.14,10.3,10.3,0,0,1-2.26,2.31,9.49,9.49,0,0,1-2.88,1.53Zm8.93-36.48h4.08V357h-4.08ZM864,377.42h-3.31V349.63H864Zm-9.26-29v-1.82a3.65,3.65,0,0,1,1-2.69,3.54,3.54,0,0,1,2.69-1.06h9.12v2.93h-9.17a1.23,1.23,0,0,0-1.2,1.25v1.39Zm22.85,17.71a7.74,7.74,0,0,1,1.58-5,7.94,7.94,0,0,1,4.18-2.64l6.62-1.68v-3.94h3.32v16.85a3.24,3.24,0,0,0,.33,1.44,4.5,4.5,0,0,0,.87,1.2,5,5,0,0,0,1.24.82,4.46,4.46,0,0,0,1.54.29h1.44a.59.59,0,0,1,.67.67v2.59a.59.59,0,0,1-.67.67h-1.44a6.8,6.8,0,0,1-4-1.2,7.44,7.44,0,0,1-2.6-3.12,3.24,3.24,0,0,1-2.16.72h-6.43a4.54,4.54,0,0,1-3.36-1.2,4.64,4.64,0,0,1-1.15-3.36ZM890,360.33l-5.9,1.54a3.94,3.94,0,0,0-2.35,1.68,4.78,4.78,0,0,0-.82,2.69v3.65H890Zm14.58,7.59a3.75,3.75,0,0,0,1.34,2.78,15.07,15.07,0,0,0,3.46,2.31,15.85,15.85,0,0,0,3.5-2.31,3.69,3.69,0,0,0,1.4-2.78v-1.39a4.07,4.07,0,0,0-.39-1.78,3.77,3.77,0,0,0-1-1.39,4.14,4.14,0,0,0-1.44-1,4,4,0,0,0-1.77-.39H909a3.94,3.94,0,0,0-1.72.39,4.14,4.14,0,0,0-1.44,1,4.65,4.65,0,0,0-1,1.39,4.52,4.52,0,0,0-.34,1.78Zm-3.26-1.68a7.56,7.56,0,0,1,.62-3.07,8.08,8.08,0,0,1,1.68-2.5,8.37,8.37,0,0,1,2.5-1.73,7.59,7.59,0,0,1,3-.62h.58a7.42,7.42,0,0,1,3,.62,7.68,7.68,0,0,1,2.5,1.73,8.08,8.08,0,0,1,1.68,2.5,7.35,7.35,0,0,1,.62,3v1.49a6.11,6.11,0,0,1-.86,3.17,10.09,10.09,0,0,1-2.21,2.64h5.66a.54.54,0,0,1,.43.24.57.57,0,0,1,.24.48v2.54a.69.69,0,0,1-.24.48.57.57,0,0,1-.43.19h-4.22a17.6,17.6,0,0,1-3.27-.29,22.5,22.5,0,0,1-3.26-1,20.44,20.44,0,0,1-3.26,1,16.84,16.84,0,0,1-3.22.29h-4.18a.65.65,0,0,1-.48-.19.81.81,0,0,1-.19-.48v-2.54a.66.66,0,0,1,.19-.48.6.6,0,0,1,.48-.24h5.67a11,11,0,0,1-2.26-2.64,6.36,6.36,0,0,1-.81-3.17ZM904,352.7h4.08v-4.08H904Zm6.58,0h4.08v-4.08h-4.08ZM955,376.75a.69.69,0,0,1-.24.48.59.59,0,0,1-.43.19h-1a6.79,6.79,0,0,1-3.21-.77,6.35,6.35,0,0,1-2.4-2.3,6,6,0,0,1-5.38,3.07H920.11a.6.6,0,0,1-.68-.67v-2.59a.6.6,0,0,1,.68-.67h3.07l5.33-5.72v-22h3.31v16.8a5.92,5.92,0,0,1-.15,1.39c-.09.39-.16.58-.19.58l.19-.19.39-.39a6.2,6.2,0,0,0,.43-.48l.38-.38a8.72,8.72,0,0,1,3-2,9.39,9.39,0,0,1,3.65-.72h3a6.38,6.38,0,0,1,2.59.53,6.49,6.49,0,0,1,2.16,1.44,6.09,6.09,0,0,1,1.44,2.11,6.22,6.22,0,0,1,.53,2.59V370a3.42,3.42,0,0,0,1,2.5,3.59,3.59,0,0,0,2.5,1h1.58a.59.59,0,0,1,.43.19.6.6,0,0,1,.24.48Zm-12.24-3.26a3.07,3.07,0,0,0,2.26-.92,3,3,0,0,0,.91-2.2v-3a3.28,3.28,0,0,0-3.31-3.31h-3.27a7.06,7.06,0,0,0-2.78.57,6.66,6.66,0,0,0-2.3,1.59l-6.77,7.25ZM961,357.17h4.08v-4.08H961Zm10.6,19.58a.59.59,0,0,1-.67.67h-3a5.81,5.81,0,0,1-1.64-.24,6.52,6.52,0,0,1-1.53-.67,5.43,5.43,0,0,1-1.25-1,3.12,3.12,0,0,1-.72-1.25,6.51,6.51,0,0,1-2.35,2.31,6.27,6.27,0,0,1-3.17.86h-3a.59.59,0,0,1-.67-.67v-2.54a.66.66,0,0,1,.19-.48.6.6,0,0,1,.48-.24h3.12a3.55,3.55,0,0,0,2.4-.87,3.72,3.72,0,0,0,1.35-2.16l1.49-7.58,3.26.53-1.25,6.33a3.19,3.19,0,0,0,0,1.44,3,3,0,0,0,.67,1.2,4.68,4.68,0,0,0,1.15.82,3.67,3.67,0,0,0,1.44.29h2.93a.6.6,0,0,1,.48.24.62.62,0,0,1,.19.48Zm10.55-3.26h7.3v-6.44a3.13,3.13,0,0,0-3.08-3h-3.12a2.83,2.83,0,0,0-1.92.72,3.06,3.06,0,0,0-1.05,1.73l-.72,3.89a2.55,2.55,0,0,0,.53,2.2A2.64,2.64,0,0,0,982.15,373.49Zm-6-3,1-4.94a5.89,5.89,0,0,1,.77-2.07,6.1,6.1,0,0,1,1.39-1.63,6.22,6.22,0,0,1,1.82-1.05,6.35,6.35,0,0,1,2.21-.39H986a6.38,6.38,0,0,1,2.59.53,6.7,6.7,0,0,1,2.16,1.44,6.82,6.82,0,0,1,1.44,2.11,6.42,6.42,0,0,1,.53,2.59v6.05a4.12,4.12,0,0,1-4.37,4.32h-5.86a5.75,5.75,0,0,1-2.83-.72,5.65,5.65,0,0,1-2.06-2.45,5.56,5.56,0,0,1-2.31,2.45,6.65,6.65,0,0,1-3,.72h-1.39a.59.59,0,0,1-.67-.67v-2.59a.57.57,0,0,1,.19-.43.6.6,0,0,1,.48-.24h1.53a3.55,3.55,0,0,0,2.4-.87A3.5,3.5,0,0,0,976.15,370.46Z"/><rect class="cls-9" x="760.07" y="335.56" width="288" height="1"/><rect class="cls-9" x="760.07" y="399.56" width="288" height="1"/></g><g class="cls-10"><g class="cls-11"><rect class="cls-5" x="-1901.11" y="-862.77" width="3451.83" height="1941.66"/><rect class="cls-4" x="376.34" y="96.25" width="862.96" height="287.65" rx="143.83"/><path class="cls-4" d="M807.82,479.78h287.65A143.83,143.83,0,0,1,1239.3,623.61h0a143.83,143.83,0,0,1-143.83,143.83H807.82A143.84,143.84,0,0,1,664,623.61h0A143.84,143.84,0,0,1,807.82,479.78Z"/><circle class="cls-5" cx="1095.47" cy="623.61" r="119.86"/><path class="cls-6" d="M1083.49,551.7a12,12,0,1,0,12-12A12,12,0,0,0,1083.49,551.7Zm59.93,71.91a47.95,47.95,0,1,1-48-47.94A47.94,47.94,0,0,1,1143.42,623.61Zm35.95,0a12,12,0,1,1-12-12A12,12,0,0,1,1179.37,623.61Zm-155.81,12a12,12,0,1,0-12-12A12,12,0,0,0,1023.56,635.6Zm71.91,71.91a12,12,0,1,1,12-12A12,12,0,0,1,1095.47,707.51Zm-59.32-24.57a12,12,0,1,1,16.95,0A12,12,0,0,1,1036.15,682.94Zm101.7-118.66a12,12,0,1,0,17,0A12,12,0,0,0,1137.85,564.28Zm-101.7,0a12,12,0,1,1,0,17A12,12,0,0,1,1036.15,564.28ZM1154.8,666a12,12,0,1,0,0,17A12,12,0,0,0,1154.8,666Z"/><path class="cls-7" d="M859.77,563.81c-1.32-.08-2.66-.13-4-.13a59.93,59.93,0,0,0,0,119.86c1.35,0,2.69,0,4-.13a71.91,71.91,0,1,1,0-119.6Z"/><rect class="cls-9" x="-390.73" y="479.28" width="1942.8" height="1"/><rect class="cls-9" x="664.53" y="503.25" width="574.77" height="1"/><rect class="cls-9" x="975.12" y="479.76" width="1" height="287.4"/><rect class="cls-9" x="951.41" y="479.76" width="1" height="287.4"/><rect class="cls-9" x="927.16" y="479.76" width="1" height="287.4"/><rect class="cls-9" x="687.48" y="479.76" width="1" height="287.41"/><rect class="cls-9" x="-390.73" y="383.4" width="1940.11" height="1"/><rect class="cls-9" x="1095.43" y="287.51" width="456.63" height="1"/><rect class="cls-9" x="1095.43" y="191.63" width="456.63" height="1"/><rect class="cls-9" x="567.61" y="-670.82" width="1" height="815.02"/><rect class="cls-9" x="567.61" y="335.96" width="1" height="742.93"/><rect class="cls-9" x="88.19" y="-670.82" width="1" height="1749.71"/><rect class="cls-9" x="184.07" y="-670.82" width="1" height="1749.71"/><rect class="cls-9" x="279.96" y="-670.82" width="1" height="1749.71"/><rect class="cls-9" x="375.84" y="-670.82" width="1" height="1749.71"/><rect class="cls-9" x="471.73" y="-670.82" width="1" height="1749.71"/><rect class="cls-9" x="663.49" y="-670.82" width="1" height="815.02"/><rect class="cls-9" x="663.49" y="335.96" width="1" height="742.93"/><rect class="cls-9" x="759.37" y="-670.83" width="1" height="767.08"/><rect class="cls-9" x="759.37" y="335.96" width="1" height="146.03"/><rect class="cls-9" x="855.23" y="-191.42" width="1" height="335.62"/><rect class="cls-9" x="951.11" y="-191.42" width="1" height="335.62"/><rect class="cls-9" x="855.18" y="335.94" width="1" height="141.78"/><rect class="cls-9" x="951.06" y="335.94" width="1" height="141.78"/><rect class="cls-9" x="1047.02" y="-670.83" width="1" height="815.03"/><rect class="cls-9" x="1047.02" y="335.96" width="1" height="146.03"/><rect class="cls-9" x="1142.9" y="-670.83" width="1" height="1150.61"/><rect class="cls-9" x="1094.93" y="96.22" width="1" height="287.67"/><rect class="cls-9" x="519.64" y="96.22" width="1" height="287.67"/><path class="cls-8" d="M557.6,268.13a16.06,16.06,0,0,1-6-1.15,16.8,16.8,0,0,1-5-3.45,18.45,18.45,0,0,1-3.31-5,16.11,16.11,0,0,1-1.15-6.05V237.21h8.49V250.3a6.9,6.9,0,0,0,1.43,4.31,5.31,5.31,0,0,0,4.32,1.73h22.58a12.28,12.28,0,0,0,7.05-1.87,11.91,11.91,0,0,0,4-4.46,12.37,12.37,0,0,0,1.15-5.9,12.92,12.92,0,0,0-1.59-5.75L573,208.88l8.35-5.61,16.39,29.34a23.72,23.72,0,0,1,3.45,12.65,22.42,22.42,0,0,1-22.86,22.87Zm73.19,0h-9.92V173.35h9.92Zm-6.16,35.81-3.17-9.78,17.4-5.75a19,19,0,0,0,9.93-7.33,19.55,19.55,0,0,0,3.88-11.8V223.83h9.93v44.59a31.28,31.28,0,0,1-6,18.41,30.89,30.89,0,0,1-6.76,6.9,28.82,28.82,0,0,1-8.63,4.61Zm26.75-109.3H663.6v12.22H651.38Zm36.36,73.49h-9.93V184.86h9.93ZM660,181.26V175.8a10.92,10.92,0,0,1,3.16-8.06,10.63,10.63,0,0,1,8.06-3.16h27.33v8.77H671.05a3.55,3.55,0,0,0-2.58,1.15,3.48,3.48,0,0,0-1,2.59v4.17Zm68.47,53.07q0-9.06,4.75-15a23.75,23.75,0,0,1,12.51-7.91l19.85-5V194.64h9.93v50.48a9.51,9.51,0,0,0,1,4.31,13.65,13.65,0,0,0,2.59,3.6,15.13,15.13,0,0,0,3.74,2.45,13.13,13.13,0,0,0,4.6.86h4.32a1.78,1.78,0,0,1,2,2v7.77a1.78,1.78,0,0,1-2,2h-4.32a20.45,20.45,0,0,1-11.93-3.59,22.3,22.3,0,0,1-7.77-9.35,9.75,9.75,0,0,1-6.47,2.15H742q-6.47,0-10.06-3.59t-3.46-10.07Zm37.11-17.4-17.69,4.6a11.78,11.78,0,0,0-7,5,14.41,14.41,0,0,0-2.44,8.05v10.93h27.18Zm43.67,22.72q0,4.6,4,8.35a44.39,44.39,0,0,0,10.36,6.9,47.52,47.52,0,0,0,10.5-6.9q4.17-3.75,4.17-8.35v-4.17a12.46,12.46,0,0,0-1.15-5.32,11.55,11.55,0,0,0-2.88-4.17,13.2,13.2,0,0,0-4.31-2.88,12.47,12.47,0,0,0-5.33-1.15h-2a12.13,12.13,0,0,0-5.18,1.15,13.1,13.1,0,0,0-4.31,2.88,14.72,14.72,0,0,0-2.88,4.17,13.88,13.88,0,0,0-1,5.32Zm-9.78-5a23,23,0,0,1,1.87-9.2,23.93,23.93,0,0,1,5-7.48,24.86,24.86,0,0,1,7.48-5.18,22.44,22.44,0,0,1,9.06-1.87h1.72a21.83,21.83,0,0,1,9.06,1.87,22.71,22.71,0,0,1,7.48,5.18,23.93,23.93,0,0,1,5,7.48,22,22,0,0,1,1.87,9.06v4.46a18.17,18.17,0,0,1-2.59,9.49,30.16,30.16,0,0,1-6.62,7.91h17a1.67,1.67,0,0,1,1.3.72,1.76,1.76,0,0,1,.72,1.44v7.62a2.07,2.07,0,0,1-.72,1.44,1.82,1.82,0,0,1-1.3.57H843.18a55,55,0,0,1-9.78-.86,66.12,66.12,0,0,1-9.78-3,60.15,60.15,0,0,1-9.78,3,52.7,52.7,0,0,1-9.64.86H791.69a2,2,0,0,1-1.44-.57,2.34,2.34,0,0,1-.58-1.44V258.5a2,2,0,0,1,.58-1.44,1.76,1.76,0,0,1,1.44-.72h17a32.89,32.89,0,0,1-6.76-7.91,18.93,18.93,0,0,1-2.45-9.49Zm8.2-40.56h12.23V181.84H807.65Zm19.71,0h12.22V181.84H827.36Zm133.08,72.06a2.07,2.07,0,0,1-.72,1.44,1.8,1.8,0,0,1-1.3.57h-3a20.73,20.73,0,0,1-9.63-2.3,18.89,18.89,0,0,1-7.19-6.9q-5.76,9.19-16.11,9.2H855.88a1.78,1.78,0,0,1-2-2v-7.77a1.78,1.78,0,0,1,2-2h9.2l16-17.12V173.35H891v50.34a18.49,18.49,0,0,1-.43,4.17c-.29,1.15-.48,1.73-.58,1.73l.58-.58,1.15-1.15a16.73,16.73,0,0,0,1.29-1.44c.48-.48.87-.86,1.15-1.15a26.11,26.11,0,0,1,9.06-5.9,28.34,28.34,0,0,1,10.94-2.15H923a19,19,0,0,1,7.77,1.58,20.09,20.09,0,0,1,6.47,4.31,18.73,18.73,0,0,1,4.32,6.33,19.17,19.17,0,0,1,1.58,7.77V246a10.16,10.16,0,0,0,3,7.48,10.74,10.74,0,0,0,7.48,2.88h4.74a2.23,2.23,0,0,1,2,2Zm-36.68-9.78a9.18,9.18,0,0,0,6.76-2.73,9,9,0,0,0,2.73-6.62v-8.92a9.8,9.8,0,0,0-9.92-9.92h-9.78a20.94,20.94,0,0,0-8.34,1.72,20,20,0,0,0-6.91,4.75L878,256.34Zm54.64-48.9h12.23V195.21H978.4Zm31.79,58.68a1.78,1.78,0,0,1-2,2h-8.91a17.24,17.24,0,0,1-4.89-.72,20,20,0,0,1-4.61-2,16.67,16.67,0,0,1-3.74-3,9.3,9.3,0,0,1-2.15-3.74,19.46,19.46,0,0,1-7,6.9,18.56,18.56,0,0,1-9.49,2.59h-8.92a1.78,1.78,0,0,1-2-2V258.5a2,2,0,0,1,.57-1.44,1.76,1.76,0,0,1,1.44-.72h9.35a10.66,10.66,0,0,0,7.19-2.59,11.37,11.37,0,0,0,4-6.47l4.45-22.73,9.78,1.58-3.73,19a9.38,9.38,0,0,0,.14,4.31,8.8,8.8,0,0,0,2,3.6,13.39,13.39,0,0,0,3.45,2.45,11,11,0,0,0,4.32.86h8.77a1.76,1.76,0,0,1,1.44.72,2,2,0,0,1,.58,1.44Zm31.59-9.78h21.87V237.07a8.35,8.35,0,0,0-2.74-6.33,8.54,8.54,0,0,0-6.47-2.74h-9.35a8.41,8.41,0,0,0-5.75,2.16,9.08,9.08,0,0,0-3.16,5.18L1034,247a7.79,7.79,0,0,0,1.58,6.62A7.94,7.94,0,0,0,1041.78,256.34Zm-18-9.06,3-14.82a17.84,17.84,0,0,1,2.3-6.18,18.7,18.7,0,0,1,4.17-4.89,18.5,18.5,0,0,1,12.08-4.32h8a19,19,0,0,1,7.77,1.59,20.09,20.09,0,0,1,6.47,4.31,20.51,20.51,0,0,1,4.32,6.33,19.14,19.14,0,0,1,1.58,7.77v18.12a12.65,12.65,0,0,1-3.6,9.35q-3.45,3.58-9.49,3.59h-17.54a17.18,17.18,0,0,1-8.49-2.16,17,17,0,0,1-6.18-7.33,16.54,16.54,0,0,1-6.91,7.33,20,20,0,0,1-9.06,2.16h-4.17a1.78,1.78,0,0,1-2-2v-7.77a2.23,2.23,0,0,1,2-2h4.6a11.33,11.33,0,0,0,11.08-9.06Z"/><rect class="cls-9" x="376.34" y="143.7" width="862.96" height="1"/><rect class="cls-9" x="376.34" y="335.46" width="862.96" height="1"/></g></g><path d="M616.05,576.84c-79.95,0-145-65.05-145-145s65.05-145,145-145,145,65.05,145,145S696,576.84,616.05,576.84Zm0-288c-78.85,0-143,64.15-143,143s64.15,143,143,143,143-64.15,143-143S694.9,288.84,616.05,288.84Z"/><path d="M840.13,480.91a49.07,49.07,0,1,1,49.07-49.07A49.12,49.12,0,0,1,840.13,480.91Zm0-96.13a47.07,47.07,0,1,0,47.07,47.06A47.11,47.11,0,0,0,840.13,384.78Z"/><rect x="678.66" y="514.07" width="194.72" height="2" transform="translate(-145.59 380.44) rotate(-25.26)"/><rect x="772.81" y="246.49" width="2" height="201.85" transform="translate(128.13 897.48) rotate(-64.61)"/><path d="M670.53,496.85c1.57-1.3,2.8-2.36,3.71-3.19a15.81,15.81,0,0,0,2.29-2.62,4.74,4.74,0,0,0,.93-2.66,2.37,2.37,0,0,0-.45-1.54,1.67,1.67,0,0,0-1.37-.55,1.71,1.71,0,0,0-1.43.68,3.2,3.2,0,0,0-.51,1.94h-4a6.8,6.8,0,0,1,.87-3.41,5.07,5.07,0,0,1,2.19-2,6.88,6.88,0,0,1,3-.65,5.82,5.82,0,0,1,4.31,1.47,5.2,5.2,0,0,1,1.45,3.81,7.54,7.54,0,0,1-1.75,4.77,25.91,25.91,0,0,1-4.47,4.28h6.48v3.34H669.78v-3.05Q670.61,496.8,670.53,496.85Z"/><path d="M597.87,418.6a13,13,0,0,1,2-7.09A13.87,13.87,0,0,1,606,406.4a27.45,27.45,0,0,1,20.12,0,14,14,0,0,1,6.09,5.11,13.09,13.09,0,0,1,2,7.09,12.34,12.34,0,0,1-1.83,6.77,13.1,13.1,0,0,1-4.94,4.54,13.54,13.54,0,0,1,8.07,12.81,15.05,15.05,0,0,1-2.59,8.82,16.4,16.4,0,0,1-7,5.66,25.87,25.87,0,0,1-19.66,0,16.4,16.4,0,0,1-7-5.66,15,15,0,0,1-2.59-8.82,14.05,14.05,0,0,1,2.09-7.74,13.79,13.79,0,0,1,5.9-5.07A12,12,0,0,1,597.87,418.6Zm12.75,18.47a6.4,6.4,0,0,0-2.09,5.08,6.55,6.55,0,0,0,2.05,5,7.7,7.7,0,0,0,5.51,1.94,7.44,7.44,0,0,0,5.43-1.94,6.68,6.68,0,0,0,2-5,6.48,6.48,0,0,0-2-5,7.63,7.63,0,0,0-5.36-1.87A8,8,0,0,0,610.62,437.07Zm10-21.17a7,7,0,0,0-9,0,6.15,6.15,0,0,0-1.69,4.61,5.79,5.79,0,0,0,1.72,4.43,6.28,6.28,0,0,0,4.47,1.62,6.16,6.16,0,0,0,4.46-1.66,5.89,5.89,0,0,0,1.73-4.46A6,6,0,0,0,620.59,415.9Z"/><path d="M531.17,369.54V364l12.64-18.08h7.64v17.68h3.28v5.92h-3.28v5.2h-6.84v-5.2Zm13.92-16.08-6.72,10.16h6.72Z"/></g></svg>