<svg xmlns="http://www.w3.org/2000/svg" viewBox="0 0 648 648"><defs><style>.cls-1{fill:#fff;}.cls-2{fill:#abff90;}.cls-3{fill:#79e45e;}</style></defs><g id="Background"><rect width="648" height="648"/></g><g id="Graphic"><rect class="cls-1" x="244" y="308" width="16" height="16"/><rect class="cls-1" x="252" y="372" width="16" height="32"/><polygon class="cls-1" points="360.52 356 287.47 356 255.6 335.01 264.4 321.64 292.27 340 355.73 340 383.6 321.64 392.4 335.01 360.52 356"/><path class="cls-1" d="M324,388a254.56,254.56,0,0,1-66.08-8.74l-5.92-1.6V308.25l18.31-42.55,4.12-.82a255.23,255.23,0,0,1,99.14,0l4.12.82L396,308.25v69.41l-5.92,1.6A254.56,254.56,0,0,1,324,388Zm-56-22.68a239,239,0,0,0,112,0V311.55L366.34,279.8a239,239,0,0,0-84.68,0L268,311.55Z"/><rect class="cls-1" x="388" y="308" width="16" height="16"/><rect class="cls-1" x="380" y="372" width="16" height="32"/><path class="cls-2" d="M324,756.2a244.59,244.59,0,1,1,173-71.64A243,243,0,0,1,324,756.2ZM324,269a242.61,242.61,0,1,0,171.54,71.06A241,241,0,0,0,324,269Z"/><path class="cls-3" d="M324,381A244.59,244.59,0,0,1,79.4,136.4,244.6,244.6,0,1,1,497,309.36,243,243,0,0,1,324,381Zm0-487.2A242.61,242.61,0,0,0,81.4,136.4,242.59,242.59,0,0,0,495.54,307.94a242.58,242.58,0,0,0,0-343.08A241,241,0,0,0,324-106.2Z"/></g></svg>