<?xml version="1.0" encoding="utf-8"?>
<!-- Generator: Adobe Illustrator 25.0.0, SVG Export Plug-In . SVG Version: 6.00 Build 0)  -->
<svg version="1.1" id="Layer_1" xmlns="http://www.w3.org/2000/svg" xmlns:xlink="http://www.w3.org/1999/xlink" x="0px" y="0px"
	 viewBox="0 0 24 24" style="enable-background:new 0 0 24 24;" xml:space="preserve">
<g>
	<path d="M15,16c-0.6,0-1,0.4-1,1v2c0,0.6-0.4,1-1,1H5c-0.6,0-1-0.4-1-1V5c0-0.6,0.4-1,1-1h8c0.6,0,1,0.4,1,1v2c0,0.6,0.4,1,1,1
		s1-0.4,1-1V5c0-1.7-1.3-3-3-3H5C3.3,2,2,3.3,2,5v14c0,1.7,1.3,3,3,3h8c1.7,0,3-1.3,3-3v-2C16,16.4,15.6,16,15,16z"/>
	<path d="M21.7,12.7l0.7-0.7l-0.7-0.7c0,0,0,0,0,0l-3-3c-0.4-0.4-1-0.4-1.4,0s-0.4,1,0,1.4l1.3,1.3H7c-0.6,0-1,0.4-1,1s0.4,1,1,1
		h11.6l-1.3,1.3c-0.4,0.4-0.4,1,0,1.4c0.2,0.2,0.5,0.3,0.7,0.3s0.5-0.1,0.7-0.3L21.7,12.7C21.7,12.7,21.7,12.7,21.7,12.7z"/>
</g>
</svg>
