<svg xmlns="http://www.w3.org/2000/svg" viewBox="0 0 648 648"><defs><style>.cls-1{fill:#d8d8d8;}.cls-2{fill:#8db943;}.cls-3{fill:#222221;}.cls-4{fill:#fff;}</style></defs><g id="Graphic"><rect class="cls-1" x="154.34" y="90.72" width="339.32" height="466.56"/><rect class="cls-2" x="154.34" y="366.41" width="339.32" height="190.87"/><path class="cls-3" d="M259.51,428.14a1.87,1.87,0,0,0,1.38-.55,1.94,1.94,0,0,0,.59-1.37v-.74h-3.72v-1.91h7.29c.19,0,.28.09.28.26v1.38c0,.18-.09.27-.28.27H263l.05.16a1.06,1.06,0,0,1,0,.27v.56a3.45,3.45,0,0,1-.29,1.41A3.65,3.65,0,0,1,262,429a3.75,3.75,0,0,1-1.17.76,3.58,3.58,0,0,1-1.43.28h-3.32a4,4,0,0,1-1.58-.32,4.13,4.13,0,0,1-2.15-2.15A4,4,0,0,1,252,426v-4.82h1.6v4.57a2.18,2.18,0,0,0,.19.93,2.53,2.53,0,0,0,.53.76,2.38,2.38,0,0,0,.77.52,2.5,2.5,0,0,0,.94.18Z"/><path class="cls-3" d="M268.4,420l-1.17-1.11,5.29-6.2,1.17,1.07-3.81,4.49h7.58a2.79,2.79,0,0,1,1.11.23,2.84,2.84,0,0,1,1.55,1.52,2.85,2.85,0,0,1,.22,1.13v1.44a2.77,2.77,0,0,1-.23,1.14,3,3,0,0,1-.63.92,2.82,2.82,0,0,1-.94.61,2.79,2.79,0,0,1-1.11.23l-12.38,0a.25.25,0,0,1-.19-.09.29.29,0,0,1-.08-.18v-1.35a.24.24,0,0,1,.27-.27h12.69a1,1,0,0,0,.71-.31,1,1,0,0,0,.3-.76V421.2a1.17,1.17,0,0,0-.34-.83,1.14,1.14,0,0,0-.81-.34Zm-2.24-3.4,4.13-4.87.83.76-4.1,4.83Z"/><path class="cls-3" d="M285.11,425.48a2.05,2.05,0,0,1-.88-.19,2.52,2.52,0,0,1-.72-.48,2.11,2.11,0,0,1-.48-.72,2.25,2.25,0,0,1-.18-.89V421h1.36v1.88a.73.73,0,0,0,.18.5.65.65,0,0,0,.51.2H288a1.51,1.51,0,0,0,.85-.22,1.35,1.35,0,0,0,.52-.57,1.63,1.63,0,0,0,.16-.73,1.38,1.38,0,0,0-.19-.71L287,417.23l1.34-.89,2.35,4.18a3.4,3.4,0,0,1,.47,1.74,3.37,3.37,0,0,1-.43,1.59,3.19,3.19,0,0,1-1.14,1.17,3,3,0,0,1-1.68.46Z"/><path class="cls-3" d="M295.26,425.48h-1.59v-13h1.59Z"/><path class="cls-3" d="M300.34,425.48a2.66,2.66,0,0,1-1.19-.27,2.92,2.92,0,0,1-.9-.72,3,3,0,0,1-.53-1,2.74,2.74,0,0,1-.05-1.21l.33-1.77a2.73,2.73,0,0,1,.95-1.6,2.63,2.63,0,0,1,1.72-.62h1.11a2.85,2.85,0,0,1,1.13.23,2.59,2.59,0,0,1,.91.62,2.74,2.74,0,0,1,.61.92,2.79,2.79,0,0,1,.23,1.11v2.43h1.48a.24.24,0,0,1,.27.27v1.37a.24.24,0,0,1-.27.27h-1.5v.1a.77.77,0,0,1,0,.15,4.1,4.1,0,0,1-.87,2.37,4.42,4.42,0,0,1-2.11,1.5l-2.39.82-.51-1.58,2.49-.83a2.64,2.64,0,0,0,1.31-.92,2.43,2.43,0,0,0,.48-1.51v-.28a1.16,1.16,0,0,1-.41.14,2.67,2.67,0,0,1-.48,0Zm-.18-1.91H303v-2.43a1.06,1.06,0,0,0-1.07-1.07h-1.38a1,1,0,0,0-1,.86l-.31,1.57a.87.87,0,0,0,.19.75A.9.9,0,0,0,300.16,423.57Z"/><path class="cls-3" d="M308.82,423.57a1.19,1.19,0,0,0,.88-.37,1.21,1.21,0,0,0,.37-.87v-3.74h1.59v3.74a3.07,3.07,0,0,1-.24,1.21,3.19,3.19,0,0,1-.67,1,3.24,3.24,0,0,1-1,.69,3.14,3.14,0,0,1-1.23.25h-2.37a.25.25,0,0,1-.2-.09.29.29,0,0,1-.08-.18v-1.35a.32.32,0,0,1,.08-.2.25.25,0,0,1,.2-.09Zm1.05-7.12h1.85V414.6h-1.85Z"/><path class="cls-3" d="M318.29,425.21a.24.24,0,0,1-.27.27h-.68a3.07,3.07,0,0,1-1.21-.24,3.36,3.36,0,0,1-1-.68,3,3,0,0,1-.67-1,3.11,3.11,0,0,1-.24-1.21v-9.87h1.59v9.85a1.21,1.21,0,0,0,.37.87,1.19,1.19,0,0,0,.88.37H318a.27.27,0,0,1,.2.09.31.31,0,0,1,.07.2Z"/><path class="cls-3" d="M317.75,423.86c0-.19.09-.29.27-.29h3.27a5.25,5.25,0,0,0,1.76-.3,4,4,0,0,0,1.47-.92l1.53-1.46a1.11,1.11,0,0,1,.32-.25l-4.48-1.35a.68.68,0,0,0-.56.06.79.79,0,0,0-.35.45l-.59,1.69-1.4-.39.47-1.61a2.41,2.41,0,0,1,.48-.91,2.51,2.51,0,0,1,.74-.6,2.3,2.3,0,0,1,.91-.27,2.38,2.38,0,0,1,1,.09l7.59,2.27-.51,1.54-.81-.26a1.2,1.2,0,0,0-.88,0,3.1,3.1,0,0,0-.7.51L325,424a5.29,5.29,0,0,1-1.83,1.13,6.27,6.27,0,0,1-2.12.39h-3a.23.23,0,0,1-.19-.09.24.24,0,0,1-.08-.18ZM321,415.6h1.85v-1.85H321Z"/><path class="cls-3" d="M342.51,418.26a2.85,2.85,0,0,1,1.13.23,2.74,2.74,0,0,1,.92.61,2.59,2.59,0,0,1,.62.91,2.85,2.85,0,0,1,.23,1.13v2.39a1.88,1.88,0,0,1-.56,1.4,1.91,1.91,0,0,1-1.41.55h-2.35a2.66,2.66,0,0,1-1.19-.27,2.92,2.92,0,0,1-.9-.72,3,3,0,0,1-.53-1,2.68,2.68,0,0,1,0-1.23l.4-2.16h-1a1.19,1.19,0,0,0-.88.39,1.27,1.27,0,0,0-.38.91v9h-1.6v-8.95a3,3,0,0,1,.26-1.23,3.06,3.06,0,0,1,.68-1,3.19,3.19,0,0,1,1-.69,3.14,3.14,0,0,1,1.23-.25Zm1.3,5.31v-2.45a1,1,0,0,0-.32-.75,1.08,1.08,0,0,0-.77-.3h-2.25l-.45,2.41a.88.88,0,0,0,.9,1.09Z"/><path class="cls-3" d="M352,425.21a.24.24,0,0,1-.27.27H351a3.07,3.07,0,0,1-1.21-.24,3.36,3.36,0,0,1-1-.68,3,3,0,0,1-.67-1,3.11,3.11,0,0,1-.24-1.21v-9.87h1.59v9.85a1.21,1.21,0,0,0,.37.87,1.19,1.19,0,0,0,.88.37h.95a.27.27,0,0,1,.2.09.31.31,0,0,1,.07.2Z"/><path class="cls-3" d="M354.38,423.57a1.19,1.19,0,0,0,.87-.37,1.17,1.17,0,0,0,.37-.87v-3.74h1.6v3.74a3.08,3.08,0,0,1-.25,1.21,2.89,2.89,0,0,1-.67,1,3.08,3.08,0,0,1-2.24.94h-2.37a.23.23,0,0,1-.19-.09.29.29,0,0,1-.08-.18v-1.35a.32.32,0,0,1,.08-.2.23.23,0,0,1,.19-.09Zm1.05-7.12h1.84V414.6h-1.84Z"/><path class="cls-3" d="M368.94,425.38a4.43,4.43,0,0,1-.82,2.6,4.64,4.64,0,0,1-1,1,4.26,4.26,0,0,1-1.23.65l-2.39.82-.51-1.58,2.49-.83a2.41,2.41,0,0,0,1.27-.92,2.82,2.82,0,0,0,.52-1.51l0-.28a1.28,1.28,0,0,1-.43.14,2.74,2.74,0,0,1-.48,0h-1.79a2.63,2.63,0,0,1-1.19-.27,2.69,2.69,0,0,1-1.43-1.75,2.6,2.6,0,0,1-.05-1.21l.33-1.77a2.73,2.73,0,0,1,.95-1.6,2.62,2.62,0,0,1,1.72-.62h1.11a2.8,2.8,0,0,1,1.12.23,2.62,2.62,0,0,1,.92.62,2.9,2.9,0,0,1,.61.92,2.78,2.78,0,0,1,.22,1.11Zm-1.59-1.81v-2.43a1,1,0,0,0-.32-.76,1.06,1.06,0,0,0-.77-.31h-1.38a1,1,0,0,0-1,.86l-.31,1.57a.84.84,0,0,0,.19.75.88.88,0,0,0,.72.32Z"/><path class="cls-3" d="M381.45,418.26a2.85,2.85,0,0,1,1.13.23,2.93,2.93,0,0,1,1.55,1.52,2.85,2.85,0,0,1,.22,1.13v2.39a1.87,1.87,0,0,1-.55,1.4,1.91,1.91,0,0,1-1.41.55H380a2.59,2.59,0,0,1-1.18-.27,2.85,2.85,0,0,1-.91-.72,3,3,0,0,1-.52-1,2.67,2.67,0,0,1-.05-1.23l.41-2.16h-1a1.19,1.19,0,0,0-.88.39,1.27,1.27,0,0,0-.38.91v9h-1.6v-8.95a3,3,0,0,1,.26-1.23,3.06,3.06,0,0,1,.68-1,3.19,3.19,0,0,1,1-.69,3.16,3.16,0,0,1,1.24-.25Zm1.3,5.31v-2.45a1,1,0,0,0-.32-.75,1.07,1.07,0,0,0-.76-.3h-2.26l-.45,2.41a.86.86,0,0,0,.17.76.88.88,0,0,0,.73.33Z"/><path class="cls-3" d="M390.91,425.21a.25.25,0,0,1-.28.27H390a3,3,0,0,1-1.2-.24,3.28,3.28,0,0,1-1-.68,3.19,3.19,0,0,1-.67-1,3.11,3.11,0,0,1-.24-1.21v-9.87h1.6v9.85a1.25,1.25,0,0,0,1.24,1.24h.95a.25.25,0,0,1,.2.09.32.32,0,0,1,.08.2Z"/><path class="cls-3" d="M393.32,423.57a1.26,1.26,0,0,0,1.24-1.24v-3.74h1.6v3.74a2.91,2.91,0,0,1-.25,1.21,2.89,2.89,0,0,1-.67,1,3.19,3.19,0,0,1-1,.69,3.14,3.14,0,0,1-1.23.25h-2.38a.23.23,0,0,1-.19-.09.29.29,0,0,1-.08-.18v-1.35a.32.32,0,0,1,.08-.2.23.23,0,0,1,.19-.09Zm1.05-7.12h1.85V414.6h-1.85Z"/><path class="cls-3" d="M292,446a2,2,0,0,1,1.06.63,1.74,1.74,0,0,1,.4,1.16v.76a3.65,3.65,0,0,1-1.06,2.6,3.72,3.72,0,0,1-2.58,1.06H286a4,4,0,0,1-1.58-.32,4.36,4.36,0,0,1-1.3-.87,4.06,4.06,0,0,1-.86-1.28,3.85,3.85,0,0,1-.32-1.58v-4.47h1.59v4.22a2.24,2.24,0,0,0,.2.92,2.44,2.44,0,0,0,1.29,1.29,2.46,2.46,0,0,0,.94.18H290a1.88,1.88,0,0,0,1.92-1.93v-.68l-5.34-1.26v-2.12a3.63,3.63,0,0,1,.25-1.37,3.76,3.76,0,0,1,.69-1.12,3.81,3.81,0,0,1,1-.8,3.43,3.43,0,0,1,1.26-.39l2.42-.31.25,1.71-2.74.37a1.78,1.78,0,0,0-1.15.64,1.92,1.92,0,0,0-.45,1.25v.82Z"/><path class="cls-3" d="M294.45,453.7l-.5-1.57,2.51-.82a2.52,2.52,0,0,0,1.29-.95,2.59,2.59,0,0,0,.48-1.52v-6.36h1.59v6.2a4.52,4.52,0,0,1-.21,1.38,4.85,4.85,0,0,1-.61,1.2,4.08,4.08,0,0,1-.93,1,4.35,4.35,0,0,1-1.22.66Z"/><path class="cls-3" d="M306.65,448.55a.24.24,0,0,1-.27.27h-.68a3.06,3.06,0,0,1-2.2-.91,3,3,0,0,1-.67-1,2.91,2.91,0,0,1-.25-1.21v-9.86h1.6v9.84a1.16,1.16,0,0,0,.37.87,1.17,1.17,0,0,0,.87.37h1a.25.25,0,0,1,.19.09.32.32,0,0,1,.08.21Z"/><path class="cls-3" d="M308.46,443.37l-1.19-1.1,5.31-6.21,1.17,1.07-3.81,4.49h7.58a2.85,2.85,0,0,1,1.13.23,2.9,2.9,0,0,1,.92.61,3,3,0,0,1,.61.91,2.85,2.85,0,0,1,.22,1.13v1.44a2.94,2.94,0,0,1-.23,1.14,2.85,2.85,0,0,1-.63.91,3,3,0,0,1-.94.61,2.83,2.83,0,0,1-1.12.22h-11.1a.25.25,0,0,1-.2-.09.29.29,0,0,1-.08-.18v-1.36a.25.25,0,0,1,.28-.28h11.36a1.05,1.05,0,0,0,.75-.31,1,1,0,0,0,.32-.76v-1.3a1.11,1.11,0,0,0-.32-.84,1.16,1.16,0,0,0-.83-.33Z"/><path class="cls-3" d="M329.25,452.22a3.77,3.77,0,0,1-1.57-.32,4,4,0,0,1-1.29-.86,4.11,4.11,0,0,1-.86-1.29,3.77,3.77,0,0,1-.32-1.57v-5.37h1.59v5.12a2.24,2.24,0,0,0,.2.92,2.52,2.52,0,0,0,.51.77,2.16,2.16,0,0,0,.77.51,2.31,2.31,0,0,0,.93.19h3.43a1.83,1.83,0,0,0,.77-.16,1.92,1.92,0,0,0,1.07-1.07,1.85,1.85,0,0,0,.16-.78v-5.83h1.59v6.13A3.51,3.51,0,0,1,336,450a3.73,3.73,0,0,1-.78,1.14,3.56,3.56,0,0,1-1.14.78,3.51,3.51,0,0,1-1.41.28Zm.55-11.59h1.84v1.85H329.8Z"/><path class="cls-3" d="M340.36,448.82h-1.6v-13h1.6Z"/><path class="cls-3" d="M345.44,448.82a2.63,2.63,0,0,1-1.19-.27,2.69,2.69,0,0,1-.91-.72,2.86,2.86,0,0,1-.52-1,2.59,2.59,0,0,1-.05-1.21l.33-1.77a2.66,2.66,0,0,1,.94-1.59,2.62,2.62,0,0,1,1.73-.63h1.11a2.8,2.8,0,0,1,1.12.23,2.77,2.77,0,0,1,.92.62,3,3,0,0,1,.61.92,2.78,2.78,0,0,1,.22,1.11v2.43h1.48a.25.25,0,0,1,.27.28v1.36a.24.24,0,0,1-.27.27h-1.5v.1a.39.39,0,0,1,0,.15,4,4,0,0,1-.86,2.38,4.33,4.33,0,0,1-2.11,1.49l-2.39.82-.51-1.57,2.49-.84a2.62,2.62,0,0,0,1.3-.91,2.43,2.43,0,0,0,.49-1.52v-.27a1.29,1.29,0,0,1-.42.13,2.59,2.59,0,0,1-.48,0Zm-.18-1.91h2.88v-2.43a1,1,0,0,0-.31-.76,1.07,1.07,0,0,0-.76-.31h-1.38a1,1,0,0,0-1,.86l-.31,1.57a.84.84,0,0,0,.19.75A.88.88,0,0,0,345.26,446.91Z"/><path class="cls-3" d="M358.41,448.55a.29.29,0,0,1-.08.18.25.25,0,0,1-.19.09h-1.31a2.13,2.13,0,0,1-.64-.1,2.62,2.62,0,0,1-.62-.26,2.2,2.2,0,0,1-.51-.4,1.7,1.7,0,0,1-.31-.48,2.51,2.51,0,0,1-.94.88,2.57,2.57,0,0,1-1.29.36h-1.29a.24.24,0,0,1-.27-.27v-1.36a.25.25,0,0,1,.27-.28h1.38a1.34,1.34,0,0,0,.89-.31,1.3,1.3,0,0,0,.47-.79l.67-3.23,1.57.27-.54,2.7a1.08,1.08,0,0,0,.26.95,1.15,1.15,0,0,0,.92.41h1.29a.25.25,0,0,1,.27.28ZM354,440.46h1.85v-1.85H354Z"/><path class="cls-3" d="M366.35,448.12l-3,.41c-.77.1-1.52.18-2.27.23s-1.48.08-2.22.08h-.76a.23.23,0,0,1-.19-.09.61.61,0,0,1-.09-.2v-1.34a.32.32,0,0,1,.08-.21.3.3,0,0,1,.24-.09h2.17a1.69,1.69,0,0,1-.21-.54l-.43-2.28a2.64,2.64,0,0,1,.05-1.19,2.81,2.81,0,0,1,1.45-1.74,2.59,2.59,0,0,1,1.17-.28h3.17v1.81h-3.27a1,1,0,0,0-.79.37,1,1,0,0,0-.2.84l.58,3,4.24-.45Z"/><rect class="cls-3" x="377.94" y="237.42" width="41.49" height="41.49"/><rect class="cls-3" x="228.57" y="179.33" width="41.49" height="99.58"/><rect class="cls-3" x="328.15" y="179.33" width="41.49" height="99.58"/><circle class="cls-3" cx="299.1" cy="258.17" r="20.75"/><circle class="cls-3" cx="398.69" cy="307.96" r="20.75"/><rect class="cls-4" x="313.4" y="88.6" width="21.21" height="84.83" rx="10.6" transform="translate(455.01 -192.99) rotate(90)"/><path class="cls-3" d="M307.34,516.63a6.44,6.44,0,1,0,0,9.8v1.16h3V515.47h-3Zm-3.79,8.69a3.79,3.79,0,1,1,3.79-3.79A3.79,3.79,0,0,1,303.55,525.32Z"/><path class="cls-3" d="M344.45,516.63a6.44,6.44,0,1,0,0,9.8v1.16h3V515.47h-3Zm-3.79,8.69a3.79,3.79,0,1,1,3.79-3.79A3.79,3.79,0,0,1,340.66,525.32Z"/><path class="cls-3" d="M288.78,515.09a6.37,6.37,0,0,0-4.16,1.54v-5.7h-3v16.66h3v-1.16a6.37,6.37,0,0,0,4.16,1.54,6.44,6.44,0,1,0,0-12.88Zm-.38,10.23a3.79,3.79,0,1,1,3.79-3.79A3.79,3.79,0,0,1,288.4,525.32Z"/><path class="cls-3" d="M327.41,515.09a4.93,4.93,0,0,0-4.17,2.31,4.9,4.9,0,0,0-7.57-.93v-1h-3v12.12h3v-7.2a2.65,2.65,0,0,1,5.3,0v7.2h3v-7.2a2.65,2.65,0,0,1,5.3,0v7.2h3V520A4.93,4.93,0,0,0,327.41,515.09Z"/><rect class="cls-3" x="354.3" y="515.47" width="3.03" height="12.12"/><path class="cls-3" d="M366,515.09a4.17,4.17,0,0,0-3.41,1.78v-1.4h-3v12.12h3V520a2.27,2.27,0,0,1,2.27-2.28h1.51v-2.65Z"/><circle class="cls-3" cx="355.81" cy="512.06" r="1.89"/><circle class="cls-3" cx="350.89" cy="525.7" r="1.89"/><rect class="cls-3" x="295.51" width="57.25" height="120.41"/></g></svg>