<svg xmlns="http://www.w3.org/2000/svg" viewBox="0 0 1152 648"><defs><style>.cls-1{fill:#e5e5e5;}.cls-2{fill:#8db943;}.cls-3{fill:none;stroke:#222221;stroke-miterlimit:10;stroke-width:0.25px;}.cls-4{fill:#222221;}</style></defs><g id="Graphic"><rect class="cls-1" x="351.73" y="-120.35" width="466.56" height="906.71" transform="translate(918.01 -252) rotate(90)"/></g><g id="Layer_1" data-name="Layer 1"><rect class="cls-2" x="342.72" y="-129.36" width="466.56" height="906.71" transform="translate(900 -252) rotate(90)"/><line class="cls-3" x1="223.88" y1="390.02" x2="928.12" y2="390.02"/><line class="cls-3" x1="223.88" y1="346.01" x2="928.12" y2="346.01"/><path class="cls-4" d="M558.71,488.68a6.68,6.68,0,1,0,0,10.18v1.2h3.14V487.48h-3.14Zm-3.93,9a3.93,3.93,0,1,1,3.93-3.93A3.93,3.93,0,0,1,554.78,497.7Z"/><path class="cls-4" d="M597.22,488.68a6.68,6.68,0,1,0,0,10.18v1.2h3.15V487.48h-3.15Zm-3.93,9a3.93,3.93,0,1,1,3.93-3.93A3.93,3.93,0,0,1,593.29,497.7Z"/><path class="cls-4" d="M539.45,487.09a6.63,6.63,0,0,0-4.32,1.59v-5.91H532v17.29h3.15v-1.2a6.68,6.68,0,1,0,4.32-11.77Zm-.39,10.61a3.93,3.93,0,1,1,3.93-3.93A3.93,3.93,0,0,1,539.06,497.7Z"/><path class="cls-4" d="M579.54,487.09a5.11,5.11,0,0,0-4.33,2.4,5.09,5.09,0,0,0-7.86-1v-1h-3.14v12.58h3.14v-7.47a2.76,2.76,0,0,1,5.51,0v7.47H576v-7.47a2.75,2.75,0,1,1,5.5,0v7.47h3.15V492.2A5.11,5.11,0,0,0,579.54,487.09Z"/><rect class="cls-4" x="607.44" y="487.48" width="3.14" height="12.58"/><path class="cls-4" d="M619.62,487.09a4.31,4.31,0,0,0-3.53,1.84v-1.45h-3.15v12.58h3.15V492.2a2.36,2.36,0,0,1,2.35-2.36H620v-2.75Z"/><circle class="cls-4" cx="609.01" cy="483.95" r="1.96"/><circle class="cls-4" cx="603.9" cy="498.1" r="1.96"/></g></svg>