<svg xmlns="http://www.w3.org/2000/svg" viewBox="0 0 1152 648"><defs><style>.cls-1{fill:#eaeaea;}.cls-2{fill:#d1d2d2;}.cls-3{font-size:9px;font-family:Peyda-Medium, Peyda;font-weight:500;}.cls-4{font-family:Poppins-Medium, Poppins;}.cls-5{fill:none;}</style></defs><g id="Background"><rect class="cls-1" x="260.08" y="178.1" width="651.85" height="311.81"/></g><g id="Graphic"><rect class="cls-2" x="250.08" y="168.1" width="651.85" height="311.81"/></g><g id="Layer_1" data-name="Layer 1"><rect x="558.48" y="254.95" width="61.62" height="61.62"/><rect x="336.64" y="168.68" width="61.62" height="147.89"/><polyline points="546.15 231.33 546.15 316.57 484.53 316.57 484.53 168.68 546.15 168.68 546.15 231.33"/><circle cx="441.4" cy="285.76" r="30.81"/><circle cx="589.29" cy="359.71" r="30.81"/><path d="M776.46,309.25a4.31,4.31,0,1,0,0,6.55v.77h2v-8.1h-2Zm-2.54,5.8a2.53,2.53,0,1,1,2.54-2.53A2.53,2.53,0,0,1,773.92,315.05Z"/><path d="M801.26,309.25a4.31,4.31,0,1,0,0,6.55v.77h2v-8.1h-2Zm-2.53,5.8a2.53,2.53,0,1,1,2.53-2.53A2.53,2.53,0,0,1,798.73,315.05Z"/><path d="M764.05,308.22a4.27,4.27,0,0,0-2.78,1v-3.81h-2v11.13h2v-.77a4.3,4.3,0,1,0,2.78-7.58Zm-.25,6.83a2.53,2.53,0,1,1,2.53-2.53A2.53,2.53,0,0,1,763.8,315.05Z"/><path d="M789.87,308.22a3.29,3.29,0,0,1-5.57,0,3.3,3.3,0,0,0-2.28.92v-.67h-2v8.1h2v-4.81a1.78,1.78,0,0,1,3.55,0v4.81h2v-4.81a1.78,1.78,0,0,1,3.55,0v4.81h2v-5.06A3.29,3.29,0,0,0,789.87,308.22Z"/><rect x="807.84" y="308.47" width="2.02" height="8.1"/><path d="M815.69,308.22a2.76,2.76,0,0,0-2.28,1.19v-.94h-2v8.1h2v-5.06a1.52,1.52,0,0,1,1.52-1.52h1v-1.77Z"/><circle cx="808.85" cy="306.2" r="1.27"/><circle cx="805.56" cy="315.31" r="1.27"/><text class="cls-3" transform="translate(336.64 376.53)">جاك نادیم زا رتلاب ،دابآ تداعس ،نارهت<tspan x="69.72" y="10.8" xml:space="preserve"> كلپ ،مشش نابایخ</tspan><tspan x="135.66" y="10.8"> </tspan><tspan class="cls-4"><tspan x="0" y="32.4">Unit 8, 3rd Floor, 6th St., Kaj Square</tspan><tspan x="0" y="43.2">Sa&apos;adat Abad Ave. - Tehran</tspan><tspan x="0" y="64.8">021 4340 7000 - 9100 7650</tspan><tspan x="0" y="75.6">info@bama.ir</tspan></tspan></text><rect class="cls-5" x="250.24" y="168.68" width="651.52" height="310.64"/></g></svg>