<svg xmlns="http://www.w3.org/2000/svg" viewBox="0 0 648 648"><defs><style>.cls-1{fill:#eaeaea;}.cls-2{fill:#bff534;}</style></defs><g id="Background"><rect class="cls-1" x="135.37" y="55.36" width="397.27" height="557.28"/></g><g id="Graphic"><rect class="cls-2" x="124.09" y="45.36" width="402.48" height="557.28"/></g><g id="Layer_1" data-name="Layer 1"><path d="M318,322.34a2.76,2.76,0,0,0-1.84-.68,2.84,2.84,0,0,0,0,5.68,2.81,2.81,0,0,0,1.84-.67v.51h1.34v-5.35H318Zm-1.67,3.83A1.67,1.67,0,1,1,318,324.5,1.67,1.67,0,0,1,316.3,326.17Z"/><path d="M334.36,322.34a2.8,2.8,0,0,0-1.84-.68,2.84,2.84,0,1,0,1.84,5v.51h1.33v-5.35h-1.33Zm-1.67,3.83a1.67,1.67,0,1,1,1.67-1.67A1.68,1.68,0,0,1,332.69,326.17Z"/><path d="M309.78,321.66a2.8,2.8,0,0,0-1.84.68v-2.52h-1.33v7.36h1.33v-.51a2.84,2.84,0,1,0,1.84-5Zm-.17,4.51a1.67,1.67,0,1,1,1.68-1.67A1.67,1.67,0,0,1,309.61,326.17Z"/><path d="M326.83,321.66a2.16,2.16,0,0,0-1.83,1,2.19,2.19,0,0,0-1.84-1,2.15,2.15,0,0,0-1.51.61v-.44h-1.34v5.35h1.34V324a1.17,1.17,0,1,1,2.34,0v3.18h1.34V324a1.17,1.17,0,0,1,2.34,0v3.18H329v-3.35A2.18,2.18,0,0,0,326.83,321.66Z"/><rect x="338.7" y="321.83" width="1.34" height="5.35"/><path d="M343.89,321.66a1.84,1.84,0,0,0-1.51.78v-.61H341v5.35h1.34v-3.35a1,1,0,0,1,1-1h.67v-1.17Z"/><circle cx="339.37" cy="320.32" r="0.84"/><circle cx="337.2" cy="326.34" r="0.84"/></g></svg>