<svg xmlns="http://www.w3.org/2000/svg" viewBox="0 0 648 648"><defs><style>.cls-1{fill:#eaeaea;}.cls-2{fill:#d1d2d2;}</style></defs><g id="Background"><path class="cls-1" d="M126.86,55.36H541.14a0,0,0,0,1,0,0V586.72a27,27,0,0,1-27,27H126.86a0,0,0,0,1,0,0V55.36a0,0,0,0,1,0,0Z" transform="translate(668 669.1) rotate(-180)"/></g><g id="Layer_1" data-name="Layer 1"><rect class="cls-2" x="116.86" y="44.81" width="414.28" height="558.38"/><path d="M316.92,323a2.74,2.74,0,1,0,0,4.17v.49h1.29v-5.15h-1.29Zm-1.6,3.69a1.61,1.61,0,1,1,1.6-1.6A1.61,1.61,0,0,1,315.32,326.65Z"/><path d="M332.68,323a2.74,2.74,0,1,0,0,4.17v.49H334v-5.15h-1.29Zm-1.6,3.69a1.61,1.61,0,1,1,1.6-1.6A1.61,1.61,0,0,1,331.08,326.65Z"/><path d="M309,322.31a2.77,2.77,0,0,0-1.77.65v-2.42H306v7.08h1.28v-.49a2.77,2.77,0,0,0,1.77.65,2.74,2.74,0,1,0,0-5.47Zm-.16,4.34a1.61,1.61,0,1,1,1.61-1.6A1.61,1.61,0,0,1,308.88,326.65Z"/><path d="M325.45,322.31a2.08,2.08,0,0,0-1.77,1,2.08,2.08,0,0,0-3.22-.39v-.43h-1.28v5.15h1.28v-3.06a1.13,1.13,0,0,1,2.25,0v3.06H324v-3.06a1.13,1.13,0,0,1,2.25,0v3.06h1.29V324.4A2.1,2.1,0,0,0,325.45,322.31Z"/><rect x="336.87" y="322.47" width="1.29" height="5.15"/><path d="M341.85,322.31a1.76,1.76,0,0,0-1.45.76v-.6h-1.28v5.15h1.28V324.4a1,1,0,0,1,1-1H342v-1.13Z"/><circle cx="337.51" cy="321.02" r="0.8"/><circle cx="335.42" cy="326.81" r="0.8"/></g></svg>