<svg xmlns="http://www.w3.org/2000/svg" viewBox="0 0 1152 648"><defs><style>.cls-1{fill:#e5e5e5;}.cls-2{fill:#8db943;}.cls-3{fill:#222221;}</style></defs><g id="Background"><rect class="cls-1" x="260.08" y="178.1" width="651.85" height="311.81"/></g><g id="Graphic"><rect class="cls-2" x="250.08" y="168.1" width="651.85" height="311.81"/></g><g id="Layer_1" data-name="Layer 1"><path class="cls-3" d="M735,427.22a2,2,0,0,1,.23-1,2,2,0,0,1,.63-.74l.46-.33c.17-.13.35-.27.54-.4l.51-.38.38-.27.16-.11.1-.06-1.81-.54a.3.3,0,0,0-.26,0,.46.46,0,0,0-.17.22l-.25.78-.67-.18.22-.75a1,1,0,0,1,.23-.42,1.09,1.09,0,0,1,.36-.28,1.55,1.55,0,0,1,.42-.12,1.16,1.16,0,0,1,.42,0l3.33,1-.22.7-.53-.14a.5.5,0,0,0-.24,0,.55.55,0,0,0-.22.1l-2.28,1.66a1.55,1.55,0,0,0-.41.48,1.25,1.25,0,0,0-.13.6,1.47,1.47,0,0,0,.11.56,1.49,1.49,0,0,0,.31.46,1.39,1.39,0,0,0,.45.31,1.33,1.33,0,0,0,.56.11h2.19v.88h-2.18a2.12,2.12,0,0,1-.87-.18,2.16,2.16,0,0,1-.72-.48,2.14,2.14,0,0,1-.65-1.57Zm2.45-.7h.85v.86h-.85Z"/><path class="cls-3" d="M742.85,426.4a.11.11,0,0,1-.12.12h-.32a1.33,1.33,0,0,1-.56-.11,1.77,1.77,0,0,1-.46-.31,1.62,1.62,0,0,1-.31-.46,1.56,1.56,0,0,1-.11-.57v-4.56h.74v4.55a.57.57,0,0,0,.17.41.58.58,0,0,0,.41.17h.44a.12.12,0,0,1,.09,0,.17.17,0,0,1,0,.1Z"/><path class="cls-3" d="M743.85,426.52h-1.12a.1.1,0,0,1-.09,0,.11.11,0,0,1,0-.09v-.62a.12.12,0,0,1,0-.09.1.1,0,0,1,.09,0h1.21a1,1,0,0,0,.51-.14.82.82,0,0,0,.33-.36,1,1,0,0,0,.1-.51,1,1,0,0,0-.23-.55l-1.47-2v-.59L746,420l.33.67-2.44,1.23,1.33,1.74a1.73,1.73,0,0,1,.39,1,1.81,1.81,0,0,1-.18.93,1.77,1.77,0,0,1-1.62,1Z"/><path class="cls-3" d="M749.85,428.1a1.77,1.77,0,0,1-.73-.15,1.84,1.84,0,0,1-1-1,1.75,1.75,0,0,1-.15-.72v-2.49h.74v2.37a1.07,1.07,0,0,0,.09.43,1.21,1.21,0,0,0,.24.35,1.13,1.13,0,0,0,.36.24,1,1,0,0,0,.43.09h1.58a.86.86,0,0,0,.36-.08.85.85,0,0,0,.3-.19,1.21,1.21,0,0,0,.2-.3,1.15,1.15,0,0,0,.07-.36v-2.7h.74v2.83a1.76,1.76,0,0,1-.13.66,1.71,1.71,0,0,1-.89.89,1.8,1.8,0,0,1-.66.13Zm.25-5.37H751v.86h-.85Z"/><path class="cls-3" d="M755,426.52h-.74v-6H755Z"/><path class="cls-3" d="M760.59,425.64h.22a.09.09,0,0,1,.08,0,.13.13,0,0,1,0,.1v.62a.11.11,0,0,1-.12.12h-.18a1.17,1.17,0,0,1-.62-.16,1.38,1.38,0,0,1-.46-.44,1.3,1.3,0,0,1-1.13.6h-1.21a1.11,1.11,0,0,1-.41-.08,1.5,1.5,0,0,1-.33-.23.83.83,0,0,1-.22-.33,1,1,0,0,1-.09-.41v-1h.64v.88a.38.38,0,0,0,.08.23.3.3,0,0,0,.23.09h1.31a.62.62,0,0,0,.31-.07.75.75,0,0,0,.24-.19.79.79,0,0,0,.13-.28.65.65,0,0,0,0-.31l-.69-2.48.7-.26.88,3.13a.54.54,0,0,0,.22.33A.56.56,0,0,0,760.59,425.64Z"/><path class="cls-3" d="M764.13,426.4a.09.09,0,0,1,0,.08.1.1,0,0,1-.09,0h-.6a1,1,0,0,1-.3,0,1.48,1.48,0,0,1-.29-.12,1.45,1.45,0,0,1-.23-.19.68.68,0,0,1-.14-.22,1.17,1.17,0,0,1-.44.41,1.2,1.2,0,0,1-.6.16h-.59c-.09,0-.13,0-.13-.12v-.63c0-.09,0-.13.13-.13h.64a.63.63,0,0,0,.63-.51l.3-1.5.73.13-.25,1.25a.51.51,0,0,0,.12.44.53.53,0,0,0,.43.19H764c.09,0,.13,0,.13.13Zm-2.8,2.06h.85v-.86h-.85Zm1.31,0h.86v-.86h-.86Z"/><path class="cls-3" d="M764.91,425.13l.18-.93a1.26,1.26,0,0,1,.44-.73,1.21,1.21,0,0,1,.8-.29h.5a1.31,1.31,0,0,1,.52.11,1.34,1.34,0,0,1,.42.28,1.37,1.37,0,0,1,.29.42,1.35,1.35,0,0,1,.1.53v1.09a.91.91,0,0,1-.25.66.88.88,0,0,1-.65.25h-1.09a1.17,1.17,0,0,1-.52-.12,1,1,0,0,1-.4-.44,1.11,1.11,0,0,1-.45.44,1.33,1.33,0,0,1-.55.12H764a.11.11,0,0,1-.12-.12v-.63a.16.16,0,0,1,0-.09.12.12,0,0,1,.09,0h.29a.65.65,0,0,0,.4-.14A.62.62,0,0,0,764.91,425.13Zm1.18.51h1.33v-1.13a.45.45,0,0,0-.14-.35.5.5,0,0,0-.35-.14h-.64a.49.49,0,0,0-.31.11.5.5,0,0,0-.17.29l-.14.72a.38.38,0,0,0,.09.35A.4.4,0,0,0,766.09,425.64Z"/><path class="cls-3" d="M769.64,428.78l-.24-.72,1.16-.39a1.1,1.1,0,0,0,.6-.43,1.17,1.17,0,0,0,.22-.71V423.6h.74v2.86a1.89,1.89,0,0,1-.1.63,2,2,0,0,1-.28.56,2,2,0,0,1-.43.45,2.13,2.13,0,0,1-.58.3Zm1.68-7h.85v.86h-.85Z"/><path class="cls-3" d="M774.17,426.52h-.74v-6h.74Z"/><path class="cls-3" d="M778.16,423.6v1.5a.51.51,0,0,0,.17.39.64.64,0,0,0,.42.15h.81c.09,0,.13,0,.13.13v.63c0,.08,0,.12-.13.12h-.69a1.09,1.09,0,0,1-.4-.07.7.7,0,0,1-.31-.26v.32a1.93,1.93,0,0,1-.39,1.17,1.84,1.84,0,0,1-.44.44,2.12,2.12,0,0,1-.56.29l-1.1.38-.24-.72,1.16-.39a1.14,1.14,0,0,0,.61-.44,1.17,1.17,0,0,0,.22-.71V423.6Z"/><path class="cls-3" d="M780.81,425.64a.56.56,0,0,0,.4-.17.57.57,0,0,0,.17-.41v-1.72h.74v1.72a1.56,1.56,0,0,1-.11.57,1.62,1.62,0,0,1-.31.46,1.7,1.7,0,0,1-.47.32,1.48,1.48,0,0,1-.57.11h-1.1a.12.12,0,0,1-.09,0,.11.11,0,0,1,0-.08v-.62a.17.17,0,0,1,0-.1.12.12,0,0,1,.09,0Zm-.87-3.28h.86v-.86h-.86Zm1.32,0h.86v-.86h-.86Z"/><path class="cls-3" d="M787,420.51v4.39a1.43,1.43,0,0,1-1.29,1.52l-2.47.35-.1-.79,1-.12-.43-4.67.75-.1.41,4.68.78-.1a.75.75,0,0,0,.47-.25.73.73,0,0,0,.17-.52v-4.39Z"/><path class="cls-3" d="M790,426.4c0,.08,0,.12-.13.12h-.31a1.33,1.33,0,0,1-.56-.11,1.77,1.77,0,0,1-.46-.31,1.62,1.62,0,0,1-.31-.46,1.56,1.56,0,0,1-.11-.57v-4.56h.74v4.55a.53.53,0,0,0,.17.41.56.56,0,0,0,.4.17h.44a.13.13,0,0,1,.1,0,.17.17,0,0,1,0,.1Z"/><path class="cls-3" d="M791.14,425.64a.56.56,0,0,0,.4-.17.53.53,0,0,0,.17-.41v-1.72h.74v1.72a1.56,1.56,0,0,1-.11.57,1.62,1.62,0,0,1-.31.46,1.65,1.65,0,0,1-.46.32,1.58,1.58,0,0,1-.58.11H789.9a.1.1,0,0,1-.09,0,.09.09,0,0,1,0-.08v-.62a.13.13,0,0,1,0-.1.1.1,0,0,1,.09,0Zm-1.06,2h.86v.86h-.86Z"/><path class="cls-3" d="M795.58,427l-.27-.1-.23-.12a1,1,0,0,1-.26-.2.5.5,0,0,1-.14-.33,1,1,0,0,1,.05-.33c0-.11.07-.21.1-.27l.38-1.13.53.18-.4,1.17.56.21Z"/><path class="cls-3" d="M798.2,426.52a1.06,1.06,0,0,1-.4-.08,1.36,1.36,0,0,1-.34-.23,1,1,0,0,1-.22-.33,1.15,1.15,0,0,1-.08-.41v-1h.63v.88a.38.38,0,0,0,.08.23.29.29,0,0,0,.23.09h1.43a.72.72,0,0,0,.4-.1.66.66,0,0,0,.24-.26.81.81,0,0,0,.08-.34.63.63,0,0,0-.09-.33l-1.07-1.9.62-.42,1.09,1.94a1.49,1.49,0,0,1,.22.8,1.51,1.51,0,0,1-.2.74,1.44,1.44,0,0,1-.53.54,1.41,1.41,0,0,1-.77.21Z"/><path class="cls-3" d="M804.05,426.4a.11.11,0,0,1-.12.12h-.32a1.33,1.33,0,0,1-.56-.11,1.77,1.77,0,0,1-.46-.31,1.62,1.62,0,0,1-.31-.46,1.56,1.56,0,0,1-.11-.57v-4.56h.74v4.55a.58.58,0,0,0,.58.58h.44a.12.12,0,0,1,.09,0,.17.17,0,0,1,0,.1Z"/><path class="cls-3" d="M805.17,425.64a.56.56,0,0,0,.4-.17.53.53,0,0,0,.17-.41v-1.72h.74v1.72a1.56,1.56,0,0,1-.11.57,1.62,1.62,0,0,1-.31.46,1.65,1.65,0,0,1-.46.32,1.58,1.58,0,0,1-.58.11h-1.09a.1.1,0,0,1-.09,0,.09.09,0,0,1,0-.08v-.62a.13.13,0,0,1,0-.1.1.1,0,0,1,.09,0Zm-1,2H805v.86h-.85Z"/><path class="cls-3" d="M806.37,421v-.39a.71.71,0,0,1,.22-.54.72.72,0,0,1,.53-.21h1.76v.65h-1.72a.21.21,0,0,0-.16.07.2.2,0,0,0-.06.15V421Zm1.89,5.52h-.73v-5.29h.73Z"/><path class="cls-3" d="M815.89,425.64a.56.56,0,0,0,.4-.17.52.52,0,0,0,.17-.41v-1.72h.74v1.72a1.4,1.4,0,0,1-.12.58,1.44,1.44,0,0,1-.31.46,1.62,1.62,0,0,1-.46.31,1.4,1.4,0,0,1-.58.11h-3.41a1.57,1.57,0,0,1-.65-.13,1.7,1.7,0,0,1-.54-.36,1.77,1.77,0,0,1-.36-.53,1.57,1.57,0,0,1-.13-.65v-1.51h.74v1.41a.82.82,0,0,0,.26.63.88.88,0,0,0,.64.26Zm-3.06-2.3h.85v-.86h-.85Zm1.32,0H815v-.86h-.85Z"/><path class="cls-3" d="M819.41,426.52a1.11,1.11,0,0,1-.41-.08,1.3,1.3,0,0,1-.33-.23,1,1,0,0,1-.23-.33,1.15,1.15,0,0,1-.08-.41v-1H819v.88a.38.38,0,0,0,.08.23.31.31,0,0,0,.24.09h1.43a.69.69,0,0,0,.39-.1.66.66,0,0,0,.24-.26.81.81,0,0,0,.08-.34.63.63,0,0,0-.09-.33l-1.06-1.9.62-.42,1.09,1.94a1.48,1.48,0,0,1,.21.8,1.41,1.41,0,0,1-.2.74,1.49,1.49,0,0,1-.52.54,1.47,1.47,0,0,1-.78.21Z"/><path class="cls-3" d="M825.25,426.4a.11.11,0,0,1-.12.12h-.32a1.29,1.29,0,0,1-.55-.11,1.49,1.49,0,0,1-.46-.31,1.44,1.44,0,0,1-.31-.46,1.39,1.39,0,0,1-.12-.57v-4.56h.74v4.55a.57.57,0,0,0,.17.41.58.58,0,0,0,.41.17h.44a.1.1,0,0,1,.09,0,.17.17,0,0,1,0,.1Z"/><path class="cls-3" d="M828.58,422.88a1.23,1.23,0,0,1,.47.09,1.34,1.34,0,0,1,.4.27,1.33,1.33,0,0,1,.26.39,1.12,1.12,0,0,1,.1.48v.23a.86.86,0,0,1-.1.41.87.87,0,0,1-.28.32l-.64.44.38.09a2.49,2.49,0,0,0,.49,0h1a.08.08,0,0,1,.09,0,.18.18,0,0,1,0,.1v.62a.12.12,0,0,1,0,.08.09.09,0,0,1-.08,0h-1.06a3.34,3.34,0,0,1-.84-.11,3.66,3.66,0,0,1-.79-.33,3.89,3.89,0,0,1-.79.33,3.34,3.34,0,0,1-.84.11h-1.17a.12.12,0,0,1-.09,0,.12.12,0,0,1,0-.08v-.62a.18.18,0,0,1,0-.1.12.12,0,0,1,.09,0h1.14l.45,0a1.52,1.52,0,0,0,.38-.09l-1-.68v-1.16a.82.82,0,0,1,.22-.58.74.74,0,0,1,.57-.22Zm-1.75,1.51.3.2.38.26.46.32,1.1-.74v-.24a.48.48,0,0,0-.14-.35.47.47,0,0,0-.35-.14h-1.75Z"/><path class="cls-3" d="M833,426.52a1.27,1.27,0,0,1-1.08-.57,1.26,1.26,0,0,1-.46.43,1.41,1.41,0,0,1-.62.14h-.24a.1.1,0,0,1-.09,0,.12.12,0,0,1,0-.08v-.63a.13.13,0,0,1,0-.09.12.12,0,0,1,.09,0H831a.54.54,0,0,0,.41-.18.56.56,0,0,0,.16-.41v-1.47h.75v1.48a.57.57,0,0,0,.17.41.54.54,0,0,0,.4.17h.2a.68.68,0,0,0,.41-.14.7.7,0,0,0,.22-.38l.29-1.49.73.13-.24,1.24a.47.47,0,0,0,.12.45.53.53,0,0,0,.43.19h.74v-2.31h.73v2.28a.91.91,0,0,1-.25.66.87.87,0,0,1-.65.25H835a1.22,1.22,0,0,1-.56-.14,1,1,0,0,1-.41-.44,1.22,1.22,0,0,1-1,.58Z"/><path class="cls-3" d="M839.65,427l-.27-.1-.24-.12a1,1,0,0,1-.26-.2.49.49,0,0,1-.13-.33.81.81,0,0,1,0-.33c0-.11.07-.21.09-.27l.39-1.13.52.18-.4,1.17.56.21Z"/><path class="cls-3" d="M843.08,428.1a1.75,1.75,0,0,1-.72-.15,1.84,1.84,0,0,1-1-1,1.75,1.75,0,0,1-.15-.72v-2.49H842v2.37a1.07,1.07,0,0,0,.09.43,1.16,1.16,0,0,0,.59.59,1.12,1.12,0,0,0,.44.09h1.58a.86.86,0,0,0,.36-.08.81.81,0,0,0,.49-.49.94.94,0,0,0,.08-.36v-2.7h.74v2.83a1.59,1.59,0,0,1-.14.66,1.56,1.56,0,0,1-.36.53,1.77,1.77,0,0,1-.53.36,1.71,1.71,0,0,1-.65.13Zm.26-5.37h.85v.86h-.85Z"/><path class="cls-3" d="M848.22,426.52h-.73v-6h.73Z"/><path class="cls-3" d="M850.23,423.6v1.5a.48.48,0,0,0,.18.39.59.59,0,0,0,.41.15h.81c.09,0,.13,0,.13.13v.63c0,.08,0,.12-.13.12h-.69a1.09,1.09,0,0,1-.4-.07.7.7,0,0,1-.31-.26v.32a1.79,1.79,0,0,1-.1.62,2.06,2.06,0,0,1-.29.55,1.84,1.84,0,0,1-.44.44,2.12,2.12,0,0,1-.56.29l-1.1.38-.24-.72,1.16-.39a1.14,1.14,0,0,0,.61-.44,1.17,1.17,0,0,0,.22-.71V423.6Z"/><path class="cls-3" d="M852.34,425.64v-1a1.3,1.3,0,0,1,.1-.52,1.29,1.29,0,0,1,.7-.7,1.27,1.27,0,0,1,.52-.11H854a1.25,1.25,0,0,1,1.23,1l.14.71a1.36,1.36,0,0,1,0,.57,1.23,1.23,0,0,1-.25.48,1.44,1.44,0,0,1-.43.34,1.22,1.22,0,0,1-.54.12h-.64a1,1,0,0,1-.43-.08v.09a.72.72,0,0,0,.6.83l.89.17.78-1.12a1.86,1.86,0,0,1,.62-.57,1.68,1.68,0,0,1,.81-.2h.12a.12.12,0,0,1,.09,0,.13.13,0,0,1,0,.09v.63c0,.08,0,.12-.13.12h-.27a.87.87,0,0,0-.76.44s-.08.12-.19.26l-.32.47-.31.45a2.55,2.55,0,0,1-.16.23l-1.55-.38a1.14,1.14,0,0,1-.73-.48,1.7,1.7,0,0,1-.26-1h-.72a.13.13,0,0,1-.08,0,.12.12,0,0,1,0-.09v-.63a.1.1,0,0,1,0-.09.1.1,0,0,1,.08,0Zm.74-1v1h1.16a.41.41,0,0,0,.33-.15.38.38,0,0,0,.09-.35l-.12-.62a.47.47,0,0,0-.16-.29.54.54,0,0,0-.32-.11h-.49a.5.5,0,0,0-.35.14A.48.48,0,0,0,853.08,424.61Z"/><path class="cls-3" d="M858.14,425.64a.58.58,0,0,0,.41-.17.57.57,0,0,0,.17-.41v-1.72h.74v1.72a1.39,1.39,0,0,1-.12.57,1.44,1.44,0,0,1-.31.46,1.52,1.52,0,0,1-.46.32,1.56,1.56,0,0,1-.57.11h-1.1a.1.1,0,0,1-.09,0,.12.12,0,0,1,0-.08v-.62a.18.18,0,0,1,0-.1.1.1,0,0,1,.09,0Zm-.86-3.28h.85v-.86h-.85Zm1.32,0h.86v-.86h-.86Z"/><path class="cls-3" d="M728.4,431.08a11,11,0,0,0,.18,1.21c.08.39.17.75.26,1.1s.21.67.33,1,.22.58.33.83a11.8,11.8,0,0,0,.85,1.59l-.64.53A13.6,13.6,0,0,1,729,436c-.1-.2-.2-.42-.29-.65s-.2-.48-.28-.73-.16-.51-.22-.77A7.27,7.27,0,0,1,728,433a6.51,6.51,0,0,1-.21,1.05c-.1.35-.21.68-.33,1s-.25.62-.39.89-.25.51-.36.71-.24.42-.38.65l-.64-.53a9.07,9.07,0,0,0,.8-1.47,18,18,0,0,0,.65-1.78,13.65,13.65,0,0,0,.5-2.46Z"/><path class="cls-3" d="M736.8,436.44H737a.12.12,0,0,1,.09,0,.18.18,0,0,1,0,.1v.62c0,.08,0,.12-.13.12h-.18a1.19,1.19,0,0,1-.62-.16,1.49,1.49,0,0,1-.46-.44,1.47,1.47,0,0,1-.48.45,1.43,1.43,0,0,1-.64.15h-1.22a1.06,1.06,0,0,1-.4-.08,1.36,1.36,0,0,1-.34-.23,1,1,0,0,1-.22-.33,1,1,0,0,1-.08-.41v-1H733v.88a.32.32,0,0,0,.08.23.28.28,0,0,0,.22.09h1.32a.67.67,0,0,0,.31-.07.63.63,0,0,0,.23-.2.87.87,0,0,0,.14-.27.81.81,0,0,0,0-.31l-.68-2.48.7-.26.87,3.13a.59.59,0,0,0,.22.33A.58.58,0,0,0,736.8,436.44Z"/><path class="cls-3" d="M736.9,436.58c0-.09,0-.14.12-.14h1.51a2.48,2.48,0,0,0,.82-.14,1.75,1.75,0,0,0,.68-.43l.71-.67.14-.12-2.07-.62a.3.3,0,0,0-.26,0,.35.35,0,0,0-.16.2l-.27.79-.65-.18.22-.75a1.2,1.2,0,0,1,.22-.42,1.13,1.13,0,0,1,.34-.28,1,1,0,0,1,.42-.12,1.13,1.13,0,0,1,.45,0l3.51,1.05-.24.71-.37-.12a.57.57,0,0,0-.41,0,1.67,1.67,0,0,0-.32.24l-1,1a2.46,2.46,0,0,1-.84.52,2.74,2.74,0,0,1-1,.18H737a.12.12,0,0,1-.09,0,.13.13,0,0,1,0-.08Z"/><path class="cls-3" d="M744.51,437.32h-.74v-6h.74Z"/><path class="cls-3" d="M748.86,437.28a2.31,2.31,0,0,1-.1.64,2,2,0,0,1-.29.56,2.08,2.08,0,0,1-.44.45,1.94,1.94,0,0,1-.57.3l-1.11.38-.23-.73,1.15-.39a1.11,1.11,0,0,0,.59-.42,1.36,1.36,0,0,0,.24-.7v-.13a.52.52,0,0,1-.2.06.86.86,0,0,1-.22,0h-.83a1.26,1.26,0,0,1-.55-.12,1.28,1.28,0,0,1-.42-.34,1.23,1.23,0,0,1-.24-.47,1.18,1.18,0,0,1,0-.56l.15-.82a1.25,1.25,0,0,1,1.23-1h.51a1.36,1.36,0,0,1,.53.11,1.22,1.22,0,0,1,.42.29,1.34,1.34,0,0,1,.28.42,1.31,1.31,0,0,1,.11.52Zm-.74-.84v-1.12A.49.49,0,0,0,748,435a.52.52,0,0,0-.36-.14H747a.47.47,0,0,0-.31.11.46.46,0,0,0-.17.29l-.15.73a.41.41,0,0,0,.09.34.43.43,0,0,0,.34.15Z"/><path class="cls-3" d="M752,437.81l-.27-.1-.23-.12a1,1,0,0,1-.26-.2.52.52,0,0,1-.14-.33,1,1,0,0,1,.05-.33c0-.11.07-.21.1-.27l.38-1.13.53.18-.4,1.17.56.21Z"/><path class="cls-3" d="M758.8,433.2a.88.88,0,0,1-.25.65.87.87,0,0,1-.65.25h-.6a1.14,1.14,0,0,1-.55-.13,1.16,1.16,0,0,1-.42-.38,1.4,1.4,0,0,1-.44.38,1.09,1.09,0,0,1-.55.13A1.19,1.19,0,0,1,755,434a.66.66,0,0,1-.32-.24v3.53h-.74v-3.8a7.3,7.3,0,0,0-.18-1.64l-.12-.61.73-.14a1.54,1.54,0,0,0,0,.16c0,.1,0,.22.08.37s.06.32.09.51.06.38.08.58a.43.43,0,0,0,.15.31.53.53,0,0,0,.41.16h.13a.57.57,0,0,0,.4-.15.62.62,0,0,0,.22-.37l.31-1.5.73.15-.26,1.26a.6.6,0,0,0,.13.42.52.52,0,0,0,.41.19h.8v-2.06h.75Z"/><path class="cls-3" d="M761,435.12a1.48,1.48,0,0,1,.32-1,1.52,1.52,0,0,1,.81-.52l1.23-.31v-.71h.74v3.19a.5.5,0,0,0,.06.24.6.6,0,0,0,.14.21,1,1,0,0,0,.22.13.66.66,0,0,0,.25.05h.27c.08,0,.12,0,.12.13v.63a.11.11,0,0,1-.12.12h-.27a1.31,1.31,0,0,1-.76-.22,1.47,1.47,0,0,1-.5-.6.53.53,0,0,1-.21.11.73.73,0,0,1-.25,0H762a.9.9,0,0,1-.68-.26,1,1,0,0,1-.26-.69Zm2.36-1-1,.26a.71.71,0,0,0-.41.29.74.74,0,0,0-.16.47v.62h1.62Z"/><path class="cls-3" d="M765.53,435.15a1.59,1.59,0,0,1,.13-.61,1.41,1.41,0,0,1,.33-.49,1.51,1.51,0,0,1,.49-.33,1.43,1.43,0,0,1,.58-.12h.13a1.45,1.45,0,0,1,.59.12,1.51,1.51,0,0,1,.49.33,1.47,1.47,0,0,1,.33.48,1.53,1.53,0,0,1,.12.6v.29a1.27,1.27,0,0,1-.13.55,1.74,1.74,0,0,1-.36.46h1a.12.12,0,0,1,.09,0,.13.13,0,0,1,0,.1v.62a.12.12,0,0,1,0,.09l-.09,0h-.85a2.74,2.74,0,0,1-.59-.06,2.88,2.88,0,0,1-.63-.23,3.3,3.3,0,0,1-.63.23,2.91,2.91,0,0,1-.6.06h-.84c-.09,0-.13,0-.13-.12v-.62a.13.13,0,0,1,0-.1.1.1,0,0,1,.09,0h1a1.52,1.52,0,0,1-.35-.46,1.27,1.27,0,0,1-.13-.55Zm.49-2.53h.85v-.86H766Zm.25,2.84a.64.64,0,0,0,.23.47.69.69,0,0,0,1.24,0,.62.62,0,0,0,.24-.47v-.24a.79.79,0,0,0-.23-.57.81.81,0,0,0-.57-.23H767a.74.74,0,0,0-.54.23.79.79,0,0,0-.23.57Zm1.07-2.84h.86v-.86h-.86Z"/><path class="cls-3" d="M772.52,437.2s0,.05,0,.08a.1.1,0,0,1-.09,0h-.6a1,1,0,0,1-.3,0,1.48,1.48,0,0,1-.29-.12A1.45,1.45,0,0,1,771,437a.68.68,0,0,1-.14-.22,1.34,1.34,0,0,1-.44.41,1.23,1.23,0,0,1-.6.16h-.59c-.09,0-.13,0-.13-.12v-.63c0-.09,0-.13.13-.13h.63a.68.68,0,0,0,.42-.14.61.61,0,0,0,.21-.37l.31-1.5.73.13-.25,1.25a.51.51,0,0,0,.12.44.53.53,0,0,0,.43.19h.59c.09,0,.13,0,.13.13Zm-2.14,2.07h.86v-.86h-.86Z"/><path class="cls-3" d="M778,435.92a1.41,1.41,0,0,1-.11.54,1.38,1.38,0,0,1-.75.75,1.24,1.24,0,0,1-.54.11h-4.17a.1.1,0,0,1-.09,0,.18.18,0,0,1,0-.09v-.62a.12.12,0,0,1,.13-.13H773l1-1.06v-4.07h.74v3.09l0,.14a.78.78,0,0,1,0,.14l0,0,.06-.06.06-.07,0,0a1.83,1.83,0,0,1,.59-.37,2,2,0,0,1,.68-.13h.56a1.27,1.27,0,0,1,.52.11,1.34,1.34,0,0,1,.42.28,1.37,1.37,0,0,1,.29.42,1.35,1.35,0,0,1,.1.53Zm-1.28.52a.53.53,0,0,0,.39-.16.52.52,0,0,0,.15-.38v-.53a.54.54,0,0,0-.16-.4.59.59,0,0,0-.4-.16H776a1.18,1.18,0,0,0-.9.4L774,436.44Z"/><path class="cls-3" d="M780,437.81l-.27-.1-.23-.12a1,1,0,0,1-.26-.2.52.52,0,0,1-.14-.33,1,1,0,0,1,0-.33c0-.11.07-.21.1-.27l.38-1.13.53.18-.4,1.17.56.21Z"/><path class="cls-3" d="M787.85,433.2a.88.88,0,0,1-.25.65.87.87,0,0,1-.65.25h-.6a1.14,1.14,0,0,1-.55-.13,1.16,1.16,0,0,1-.42-.38,1.3,1.3,0,0,1-.44.38,1.09,1.09,0,0,1-.55.13A1.24,1.24,0,0,1,784,434a.66.66,0,0,1-.32-.24v3.53H783v-3.8a7.93,7.93,0,0,0-.17-1.64l-.13-.61.73-.14a1.54,1.54,0,0,0,0,.16c0,.1.05.22.08.37s.06.32.09.51.06.38.08.58a.45.45,0,0,0,.16.31.49.49,0,0,0,.4.16h.13a.61.61,0,0,0,.41-.15.66.66,0,0,0,.21-.37l.31-1.5.73.15-.26,1.26a.6.6,0,0,0,.13.42.52.52,0,0,0,.41.19h.81v-2.06h.74Z"/><path class="cls-3" d="M793.5,433.78c-.15,0-.34,0-.58.08l-.74.1-.8.1a6.75,6.75,0,0,1-.75,0,1.86,1.86,0,0,1-.33,0,.79.79,0,0,1-.29-.17v3.42h-.74v-3.78a7.49,7.49,0,0,0-.09-1.14c-.06-.38-.12-.75-.2-1.11l.73-.14c0,.07,0,.17,0,.28s0,.25.08.39,0,.3.07.46.05.33.07.49a.61.61,0,0,0,.19.34.57.57,0,0,0,.36.13h.36a.36.36,0,0,1,0-.09.54.54,0,0,1,0-.15c0-.09,0-.17,0-.25s0-.14,0-.21l0-.18a1.14,1.14,0,0,1,0-.58,1.12,1.12,0,0,1,.25-.47,1.14,1.14,0,0,1,.42-.33,1.24,1.24,0,0,1,.53-.12h1.19v.78h-1.29a.37.37,0,0,0-.34.18.48.48,0,0,0-.08.37l.2,1,.47,0,.59-.05.72-.09Z"/><path class="cls-3" d="M796.48,434.14v1.41a.86.86,0,0,0,.26.63.9.9,0,0,0,.64.26H801a.57.57,0,0,0,.41-.17.54.54,0,0,0,.18-.41v-4.69h.74v4.69a1.39,1.39,0,0,1-.12.57,1.47,1.47,0,0,1-.32.46,1.38,1.38,0,0,1-1,.43h-3.42a1.62,1.62,0,0,1-.66-.13,1.77,1.77,0,0,1-.53-.36,1.47,1.47,0,0,1-.36-.53,1.65,1.65,0,0,1-.13-.66v-1.5Zm1.5.61,2.25-1.14-.25-.52-1.16.61-.12-.24a1.14,1.14,0,0,1-.1-.2.31.31,0,0,1,0-.25.32.32,0,0,1,.16-.18l.7-.3-.22-.54-.68.29a.81.81,0,0,0-.29.19,1.26,1.26,0,0,0-.19.28,1,1,0,0,0-.06.35.94.94,0,0,0,.08.36l.09.18a1.11,1.11,0,0,0,.07.13.3.3,0,0,0,.09.1.13.13,0,0,0,.08,0l-.68.33Z"/><path class="cls-3" d="M808.32,437.2a.1.1,0,0,1,0,.08.1.1,0,0,1-.09,0h-.32a1.33,1.33,0,0,1-.63-.15,1.4,1.4,0,0,1-.48-.39,1.36,1.36,0,0,1-.88.44l-2.48.35-.09-.78,1-.12-.43-4.68.73-.09.42,4.68.78-.11a.69.69,0,0,0,.47-.24.73.73,0,0,0,.18-.52v-4.4h.74v4.56a.48.48,0,0,0,.19.43.71.71,0,0,0,.43.14h.4c.09,0,.13,0,.13.13Z"/><path class="cls-3" d="M810,436.44a.58.58,0,0,0,.58-.58v-1.72h.74v1.72a1.56,1.56,0,0,1-.11.57,1.62,1.62,0,0,1-.31.46,1.7,1.7,0,0,1-.47.32,1.56,1.56,0,0,1-.57.11h-1.64a.12.12,0,0,1-.09,0,.13.13,0,0,1,0-.08v-.62a.17.17,0,0,1,0-.1.12.12,0,0,1,.09,0Zm-1.65,2.82h.85v-.86h-.85Zm.66,1.19h.86v-.86H809Zm.66-1.19h.86v-.86h-.86Z"/><path class="cls-3" d="M814.51,437.81l-.27-.1-.23-.12a1,1,0,0,1-.26-.2.52.52,0,0,1-.14-.33.81.81,0,0,1,0-.33c0-.11.07-.21.09-.27l.39-1.13.52.18-.39,1.17.56.21Z"/><path class="cls-3" d="M818.92,437.32a1.26,1.26,0,0,1-.55-.12,1.28,1.28,0,0,1-.42-.34,1.23,1.23,0,0,1-.24-.47,1.21,1.21,0,0,1,0-.57l.19-1h-.48a.53.53,0,0,0-.41.19.58.58,0,0,0-.18.42v4.16h-.73v-4.13a1.56,1.56,0,0,1,.11-.57,1.52,1.52,0,0,1,.32-.46,1.36,1.36,0,0,1,.46-.32,1.39,1.39,0,0,1,.57-.12h2a1.31,1.31,0,0,1,.52.11,1.52,1.52,0,0,1,.43.28,1.19,1.19,0,0,1,.28.42,1.36,1.36,0,0,1,.11.53v.54a.57.57,0,0,0,.17.41.56.56,0,0,0,.4.17h.63c.09,0,.13,0,.13.13v.63a.1.1,0,0,1,0,.08.1.1,0,0,1-.09,0h-.5a1.32,1.32,0,0,1-.51-.1,1,1,0,0,1-.43-.32.57.57,0,0,1-.27.33.82.82,0,0,1-.4.09Zm-.5-1.38a.43.43,0,0,0,.08.35.43.43,0,0,0,.35.15h1.33v-1.13A.45.45,0,0,0,820,435a.49.49,0,0,0-.35-.15h-1Z"/><path class="cls-3" d="M824.55,437.32a1.4,1.4,0,0,1-.61-.14,1.49,1.49,0,0,1-.48-.43,1.37,1.37,0,0,1-.47.43,1.4,1.4,0,0,1-.61.14h-.26a.14.14,0,0,1-.12-.12v-.63c0-.09,0-.13.12-.13h.39a.55.55,0,0,0,.41-.18.56.56,0,0,0,.17-.4v-1.48h.74v1.52a.51.51,0,0,0,.17.39.6.6,0,0,0,.4.15h.21a.67.67,0,0,0,.64-.52l.29-1.5.73.14L826,435.8a.49.49,0,0,0,.13.45.55.55,0,0,0,.45.19h.13a.58.58,0,0,0,.41-.17.57.57,0,0,0,.17-.41v-1.73h.74v1.76a.61.61,0,0,0,.19.39.5.5,0,0,0,.39.16H829a.12.12,0,0,1,.13.13v.63a.1.1,0,0,1,0,.08.1.1,0,0,1-.09,0h-.24a1.4,1.4,0,0,1-.61-.14,1.26,1.26,0,0,1-.46-.43,1.43,1.43,0,0,1-.49.43,1.36,1.36,0,0,1-.6.14,1.27,1.27,0,0,1-.58-.13,1,1,0,0,1-.42-.44,1.23,1.23,0,0,1-.47.44A1.27,1.27,0,0,1,824.55,437.32Zm.75-3.86h-.85v-.85h.85Zm.64-1.19h-.86v-.85h.86Zm.68,1.19h-.85v-.85h.85Z"/><path class="cls-3" d="M831.42,437.32a1.27,1.27,0,0,1-.61-.14,1.13,1.13,0,0,1-.47-.43,1.16,1.16,0,0,1-.48.43,1.25,1.25,0,0,1-.61.14H829c-.08,0-.13,0-.13-.12v-.62a.18.18,0,0,1,0-.1.12.12,0,0,1,.09,0h.39a.57.57,0,0,0,.41-.17.53.53,0,0,0,.17-.41v-1.47h.74v1.47a.55.55,0,0,0,.17.41.58.58,0,0,0,.41.17h.18a.63.63,0,0,0,.63-.51l.3-1.5.74.14-.24,1.23a.48.48,0,0,0,.11.45.56.56,0,0,0,.44.19h.73v-2.3h.74v2.27a.89.89,0,0,1-.25.66.87.87,0,0,1-.65.25h-.58a1.19,1.19,0,0,1-.56-.14,1.16,1.16,0,0,1-.42-.43,1.2,1.2,0,0,1-1,.57Zm.75-3.86h-.86v-.85h.86Zm.65-1.19H832v-.85h.86Zm.67,1.19h-.85v-.85h.85Z"/><path class="cls-3" d="M839,438.9a1.77,1.77,0,0,1-.73-.15,1.84,1.84,0,0,1-1-1,1.75,1.75,0,0,1-.15-.72v-2.49h.74v2.37a1.07,1.07,0,0,0,.09.43,1.21,1.21,0,0,0,.24.35,1.13,1.13,0,0,0,.36.24,1,1,0,0,0,.43.09h1.58a.86.86,0,0,0,.36-.08.85.85,0,0,0,.3-.19,1.21,1.21,0,0,0,.2-.3,1.15,1.15,0,0,0,.07-.36v-2.7h.74v2.83a1.8,1.8,0,0,1-.13.66,1.71,1.71,0,0,1-.89.89,1.8,1.8,0,0,1-.66.13Zm.25-5.37h.85v.86h-.85Z"/><path class="cls-3" d="M845.32,437.2c0,.08-.05.12-.13.12h-.31a1.3,1.3,0,0,1-.56-.11,1.49,1.49,0,0,1-.46-.31,1.44,1.44,0,0,1-.31-.46,1.38,1.38,0,0,1-.11-.57v-4.56h.73v4.55a.57.57,0,0,0,.17.41.58.58,0,0,0,.41.17h.44a.1.1,0,0,1,.09,0,.18.18,0,0,1,0,.1Z"/><path class="cls-3" d="M846.43,436.44a.58.58,0,0,0,.41-.17.57.57,0,0,0,.17-.41v-1.72h.74v1.72a1.39,1.39,0,0,1-.12.57,1.29,1.29,0,0,1-.31.46,1.52,1.52,0,0,1-.46.32,1.56,1.56,0,0,1-.57.11h-1.1a.1.1,0,0,1-.09,0s0,0,0-.08v-.62a.18.18,0,0,1,0-.1.1.1,0,0,1,.09,0Zm-1,2h.85v.86h-.85Z"/><path class="cls-3" d="M850.79,437.2c0,.08,0,.12-.13.12h-.31a1.3,1.3,0,0,1-.56-.11,1.62,1.62,0,0,1-.46-.31,1.44,1.44,0,0,1-.31-.46,1.56,1.56,0,0,1-.11-.57v-4.56h.74v4.55a.53.53,0,0,0,.17.41.56.56,0,0,0,.4.17h.44a.1.1,0,0,1,.09,0,.13.13,0,0,1,0,.1Z"/><path class="cls-3" d="M854,437.2a.13.13,0,0,1,0,.08.12.12,0,0,1-.09,0h-.61a1,1,0,0,1-.29,0,1.48,1.48,0,0,1-.29-.12,1.11,1.11,0,0,1-.23-.19.72.72,0,0,1-.15-.22,1.26,1.26,0,0,1-1,.57h-.6a.11.11,0,0,1-.12-.12v-.63c0-.09,0-.13.12-.13h.64a.66.66,0,0,0,.41-.14.62.62,0,0,0,.22-.37l.31-1.5.73.13-.26,1.25a.49.49,0,0,0,.13.44.52.52,0,0,0,.42.19h.6c.08,0,.12,0,.12.13Zm-2.8,2.06H852v-.86h-.85Zm1.32,0h.85v-.86h-.85Z"/><path class="cls-3" d="M853.73,436.58c0-.09,0-.14.13-.14h1.51a2.46,2.46,0,0,0,.81-.14,1.62,1.62,0,0,0,.68-.43l.71-.67a.64.64,0,0,1,.15-.12l-2.07-.62a.29.29,0,0,0-.26,0,.35.35,0,0,0-.16.2l-.27.79-.65-.18.21-.75a1.2,1.2,0,0,1,.22-.42,1.17,1.17,0,0,1,.35-.28,1,1,0,0,1,.42-.12,1.08,1.08,0,0,1,.44,0l3.51,1.05-.23.71-.38-.12a.55.55,0,0,0-.4,0,1.72,1.72,0,0,0-.33.24l-1,1a2.5,2.5,0,0,1-.85.52,2.7,2.7,0,0,1-1,.18h-1.4a.1.1,0,0,1-.09,0,.1.1,0,0,1,0-.08Zm1.5-3.83h.85v-.85h-.85Z"/><path class="cls-3" d="M293.69,420.26v4a1.42,1.42,0,0,0,.37,1.07,1.7,1.7,0,0,0,2.09,0,1.42,1.42,0,0,0,.37-1.07v-4h1v4a2.38,2.38,0,0,1-.33,1.29,2,2,0,0,1-.89.79,2.85,2.85,0,0,1-1.24.27,2.7,2.7,0,0,1-1.22-.27,1.92,1.92,0,0,1-.88-.79,2.38,2.38,0,0,1-.33-1.29v-4Z"/><path class="cls-3" d="M302.38,421.72a1.67,1.67,0,0,1,.72.72,2.28,2.28,0,0,1,.26,1.15v2.92h-1v-2.77a1.41,1.41,0,0,0-.34-1,1.16,1.16,0,0,0-.9-.36,1.21,1.21,0,0,0-.92.36,1.46,1.46,0,0,0-.34,1v2.77h-1v-5h1v.57a1.87,1.87,0,0,1,.65-.48,2.23,2.23,0,0,1,1.88.08Z"/><path class="cls-3" d="M304.67,420.71a.68.68,0,0,1,0-.94.65.65,0,0,1,.47-.19.66.66,0,0,1,0,1.32A.65.65,0,0,1,304.67,420.71Zm1,.84v5h-1v-5Z"/><path class="cls-3" d="M308.13,422.39v2.75a.56.56,0,0,0,.13.4.67.67,0,0,0,.45.12h.63v.85h-.81a1.58,1.58,0,0,1-1.06-.32,1.33,1.33,0,0,1-.37-1.05v-2.75h-.59v-.84h.59v-1.23h1v1.23h1.21v.84Z"/><path class="cls-3" d="M312.55,421.61a1.62,1.62,0,0,1,.25-.89,1.67,1.67,0,0,1,.73-.65,2.64,2.64,0,0,1,1.18-.24,2.72,2.72,0,0,1,1.19.24,1.72,1.72,0,0,1,.73.65,1.7,1.7,0,0,1,.24.89,1.54,1.54,0,0,1-.25.88,1.62,1.62,0,0,1-.68.59,1.74,1.74,0,0,1,.81.62,1.7,1.7,0,0,1,.29,1,1.83,1.83,0,0,1-.29,1,2,2,0,0,1-.83.69,2.9,2.9,0,0,1-1.21.24,2.86,2.86,0,0,1-1.2-.24,1.92,1.92,0,0,1-.82-.69,1.84,1.84,0,0,1-.3-1,1.67,1.67,0,0,1,.3-1,1.65,1.65,0,0,1,.8-.62A1.55,1.55,0,0,1,312.55,421.61Zm1.2,2.22a1,1,0,0,0-.38.84,1.05,1.05,0,0,0,.36.83,1.44,1.44,0,0,0,1,.32,1.42,1.42,0,0,0,1-.32,1.08,1.08,0,0,0,.36-.83,1,1,0,0,0-.37-.84,1.45,1.45,0,0,0-1-.3A1.47,1.47,0,0,0,313.75,423.83Zm1.83-2.87a1.29,1.29,0,0,0-.87-.27,1.26,1.26,0,0,0-.85.27,1,1,0,0,0-.32.78.94.94,0,0,0,.33.74,1.24,1.24,0,0,0,.84.28,1.27,1.27,0,0,0,.85-.29.94.94,0,0,0,.33-.74A1,1,0,0,0,315.58,421Z"/><path class="cls-3" d="M319.33,425.28l-1.09,2.48h-.67l.64-2.48Z"/><path class="cls-3" d="M323,420.27a2.39,2.39,0,0,1,1.51-.47,2.47,2.47,0,0,1,1.09.22,1.61,1.61,0,0,1,.69.62,1.58,1.58,0,0,1,.24.87,1.52,1.52,0,0,1-.3.95,1.44,1.44,0,0,1-.71.53v0a1.52,1.52,0,0,1,.83.59,1.92,1.92,0,0,1,.29,1.09,1.86,1.86,0,0,1-.24,1,1.69,1.69,0,0,1-.72.65,2.82,2.82,0,0,1-2.74-.26,1.84,1.84,0,0,1-.67-1.44h1a1.11,1.11,0,0,0,.37.78,1.29,1.29,0,0,0,.9.3,1.12,1.12,0,0,0,.84-.3,1.06,1.06,0,0,0,.3-.78,1,1,0,0,0-.4-.89,2.24,2.24,0,0,0-1.23-.27h-.23v-.84H324a2.17,2.17,0,0,0,1.11-.25.79.79,0,0,0,.39-.73.91.91,0,0,0-.28-.69,1.15,1.15,0,0,0-.8-.26,1.13,1.13,0,0,0-.78.26,1,1,0,0,0-.33.63h-1A1.69,1.69,0,0,1,323,420.27Z"/><path class="cls-3" d="M329.38,421.68a1.76,1.76,0,0,1,.88-.21v1.07H330a1.26,1.26,0,0,0-.91.3,1.44,1.44,0,0,0-.31,1.06v2.61h-1v-5h1v.72A1.7,1.7,0,0,1,329.38,421.68Z"/><path class="cls-3" d="M331.12,422.69a2.24,2.24,0,0,1,.85-.9,2.34,2.34,0,0,1,2.15-.11,1.92,1.92,0,0,1,.75.57v-2.4h1v6.66h-1v-.74a1.87,1.87,0,0,1-.7.59,2.08,2.08,0,0,1-1,.23,2.3,2.3,0,0,1-1.18-.32,2.36,2.36,0,0,1-.85-.92,2.94,2.94,0,0,1-.31-1.34A2.8,2.8,0,0,1,331.12,422.69Zm3.54.45a1.47,1.47,0,0,0-.55-.58,1.48,1.48,0,0,0-2,.56,1.8,1.8,0,0,0-.21.89,1.87,1.87,0,0,0,.21.9,1.46,1.46,0,0,0,1.29.79,1.45,1.45,0,0,0,1.29-.78,2,2,0,0,0,0-1.78Z"/><path class="cls-3" d="M343.17,420.26v.83h-2.65v1.85h2.06v.84h-2.06v2.73h-1v-6.25Z"/><path class="cls-3" d="M345.1,419.85v6.66h-1v-6.66Z"/><path class="cls-3" d="M347.27,426.27a2.33,2.33,0,0,1-.89-.9,2.74,2.74,0,0,1-.32-1.34,2.66,2.66,0,0,1,.33-1.34,2.32,2.32,0,0,1,.91-.9,2.65,2.65,0,0,1,1.29-.32,2.68,2.68,0,0,1,1.29.32,2.29,2.29,0,0,1,.9.9,2.57,2.57,0,0,1,.34,1.34,2.69,2.69,0,0,1-.34,1.34,2.33,2.33,0,0,1-.94.9,2.58,2.58,0,0,1-1.3.32A2.5,2.5,0,0,1,347.27,426.27Zm2-.76a1.43,1.43,0,0,0,.56-.56,1.89,1.89,0,0,0,.21-.92,1.8,1.8,0,0,0-.2-.91,1.44,1.44,0,0,0-.55-.57,1.6,1.6,0,0,0-.74-.19,1.53,1.53,0,0,0-.73.19,1.35,1.35,0,0,0-.54.57,1.91,1.91,0,0,0-.2.91,1.77,1.77,0,0,0,.41,1.24,1.37,1.37,0,0,0,1,.43A1.52,1.52,0,0,0,349.29,425.51Z"/><path class="cls-3" d="M353,426.27a2.27,2.27,0,0,1-.89-.9,2.74,2.74,0,0,1-.32-1.34,2.66,2.66,0,0,1,.33-1.34,2.32,2.32,0,0,1,.91-.9,2.74,2.74,0,0,1,2.57,0,2.25,2.25,0,0,1,.91.9,2.66,2.66,0,0,1,.33,1.34,2.59,2.59,0,0,1-.34,1.34,2.3,2.3,0,0,1-.93.9,2.58,2.58,0,0,1-1.3.32A2.47,2.47,0,0,1,353,426.27Zm2-.76a1.46,1.46,0,0,0,.57-.56,1.89,1.89,0,0,0,.21-.92,1.8,1.8,0,0,0-.21-.91,1.42,1.42,0,0,0-.54-.57,1.6,1.6,0,0,0-.74-.19,1.57,1.57,0,0,0-.74.19,1.39,1.39,0,0,0-.53.57,1.91,1.91,0,0,0-.2.91,1.77,1.77,0,0,0,.41,1.24,1.35,1.35,0,0,0,1,.43A1.46,1.46,0,0,0,355,425.51Z"/><path class="cls-3" d="M359.39,421.68a1.8,1.8,0,0,1,.89-.21v1.07H360a1.29,1.29,0,0,0-.92.3,1.49,1.49,0,0,0-.31,1.06v2.61h-1v-5h1v.72A1.7,1.7,0,0,1,359.39,421.68Z"/><path class="cls-3" d="M362.29,425.28l-1.08,2.48h-.67l.64-2.48Z"/><path class="cls-3" d="M368.46,420.85a1.13,1.13,0,0,0-.73-.21,1.19,1.19,0,0,0-1.06.55,3.46,3.46,0,0,0-.37,1.8,1.62,1.62,0,0,1,.68-.61,2.3,2.3,0,0,1,1-.21,2.08,2.08,0,0,1,1,.25,1.72,1.72,0,0,1,.71.75,2.34,2.34,0,0,1,.26,1.16,2.4,2.4,0,0,1-.25,1.12,1.83,1.83,0,0,1-.73.78,2.68,2.68,0,0,1-2.62-.13,2.16,2.16,0,0,1-.74-1.15,7,7,0,0,1-.21-1.87c0-2.19.77-3.29,2.32-3.29a2,2,0,0,1,1.42.49,1.87,1.87,0,0,1,.6,1.19h-.94A1.15,1.15,0,0,0,368.46,420.85Zm-1.66,2.51a1.16,1.16,0,0,0-.38.95,1.37,1.37,0,0,0,.35,1,1.31,1.31,0,0,0,1,.37,1.18,1.18,0,0,0,.89-.35,1.33,1.33,0,0,0,.33-.94,1.46,1.46,0,0,0-.32-1,1.19,1.19,0,0,0-.94-.36A1.36,1.36,0,0,0,366.8,423.36Z"/><path class="cls-3" d="M372.35,422.39v2.75a.52.52,0,0,0,.13.4.64.64,0,0,0,.44.12h.63v.85h-.81a1.6,1.6,0,0,1-1.06-.32,1.36,1.36,0,0,1-.37-1.05v-2.75h-.58v-.84h.58v-1.23h1v1.23h1.2v.84Z"/><path class="cls-3" d="M378,421.72a1.68,1.68,0,0,1,.7.72,2.28,2.28,0,0,1,.26,1.15v2.92h-1v-2.77a1.46,1.46,0,0,0-.33-1,1.17,1.17,0,0,0-.91-.36,1.18,1.18,0,0,0-.91.36,1.41,1.41,0,0,0-.34,1v2.77h-1v-6.66h1v2.28a1.81,1.81,0,0,1,.66-.49,2.3,2.3,0,0,1,.88-.17A2,2,0,0,1,378,421.72Z"/><path class="cls-3" d="M383.44,426.36a1.91,1.91,0,0,1-.79-.63,1.61,1.61,0,0,1-.29-.94h1.1a1,1,0,0,0,.32.66,1.17,1.17,0,0,0,.8.26,1.25,1.25,0,0,0,.83-.25.88.88,0,0,0,.29-.67.72.72,0,0,0-.18-.51,1.38,1.38,0,0,0-.46-.31c-.18-.07-.44-.14-.76-.23a7.79,7.79,0,0,1-1-.33,1.62,1.62,0,0,1-.65-.52,1.47,1.47,0,0,1-.27-.93,1.68,1.68,0,0,1,.27-.95,1.74,1.74,0,0,1,.76-.62,2.8,2.8,0,0,1,1.12-.21,2.34,2.34,0,0,1,1.49.45,1.7,1.7,0,0,1,.65,1.25h-1.14a.84.84,0,0,0-.32-.59,1.21,1.21,0,0,0-.78-.24,1.09,1.09,0,0,0-.72.22.78.78,0,0,0-.28.65.7.7,0,0,0,.17.48,1.29,1.29,0,0,0,.45.29,6.15,6.15,0,0,0,.74.23,9.77,9.77,0,0,1,1,.34,1.69,1.69,0,0,1,.66.53,1.47,1.47,0,0,1,.28.95,1.71,1.71,0,0,1-.26.9,1.84,1.84,0,0,1-.75.68,2.44,2.44,0,0,1-1.15.26A3,3,0,0,1,383.44,426.36Z"/><path class="cls-3" d="M389.1,422.39v2.75a.52.52,0,0,0,.13.4.63.63,0,0,0,.44.12h.63v.85h-.81a1.6,1.6,0,0,1-1.06-.32,1.33,1.33,0,0,1-.37-1.05v-2.75h-.58v-.84h.58v-1.23h1v1.23h1.2v.84Z"/><path class="cls-3" d="M391.14,426.39a.64.64,0,0,1-.19-.47.65.65,0,0,1,.66-.66.62.62,0,0,1,.46.19.67.67,0,0,1,.19.47.68.68,0,0,1-.19.47.66.66,0,0,1-.93,0Z"/><path class="cls-3" d="M394.43,425.28l-1.09,2.48h-.66l.64-2.48Z"/><path class="cls-3" d="M401,426.51l-2.42-2.8v2.8h-1v-6.25h1v2.85l2.43-2.85h1.29l-2.72,3.13,2.76,3.12Z"/><path class="cls-3" d="M403.18,422.69a2.22,2.22,0,0,1,.84-.9,2.31,2.31,0,0,1,1.19-.32,2.09,2.09,0,0,1,1.71.8v-.72h1v5h-1v-.74a2,2,0,0,1-.71.59,2.13,2.13,0,0,1-1,.23,2.23,2.23,0,0,1-1.17-.32,2.27,2.27,0,0,1-.84-.92,2.82,2.82,0,0,1-.31-1.34A2.68,2.68,0,0,1,403.18,422.69Zm3.53.45a1.45,1.45,0,0,0-1.29-.78,1.49,1.49,0,0,0-.74.2,1.56,1.56,0,0,0-.55.56,1.8,1.8,0,0,0-.21.89,1.87,1.87,0,0,0,.21.9,1.46,1.46,0,0,0,1.29.79,1.37,1.37,0,0,0,.74-.2,1.4,1.4,0,0,0,.55-.58,2,2,0,0,0,0-1.78Z"/><path class="cls-3" d="M410.28,427.48a1.37,1.37,0,0,1-.36,1.06,1.55,1.55,0,0,1-1.06.33h-.53V428h.35a.62.62,0,0,0,.45-.13.55.55,0,0,0,.13-.4v-5.93h1Zm-1-6.77a.68.68,0,0,1,0-.94.66.66,0,1,1,0,.94Z"/><path class="cls-3" d="M414.79,426.36a1.85,1.85,0,0,1-.79-.63,1.61,1.61,0,0,1-.29-.94h1.1a1,1,0,0,0,.32.66,1.14,1.14,0,0,0,.79.26,1.23,1.23,0,0,0,.83-.25.86.86,0,0,0,.3-.67.72.72,0,0,0-.18-.51,1.49,1.49,0,0,0-.46-.31c-.19-.07-.44-.14-.76-.23a7.79,7.79,0,0,1-1-.33,1.62,1.62,0,0,1-.65-.52,1.47,1.47,0,0,1-.27-.93A1.68,1.68,0,0,1,414,421a1.77,1.77,0,0,1,.75-.62,2.85,2.85,0,0,1,1.13-.21,2.36,2.36,0,0,1,1.49.45,1.66,1.66,0,0,1,.64,1.25h-1.13a.85.85,0,0,0-.33-.59,1.17,1.17,0,0,0-.78-.24,1.12,1.12,0,0,0-.72.22.81.81,0,0,0-.28.65.66.66,0,0,0,.18.48,1.25,1.25,0,0,0,.44.29,6.8,6.8,0,0,0,.74.23,9,9,0,0,1,1,.34,1.65,1.65,0,0,1,.67.53,1.53,1.53,0,0,1,.27.95,1.7,1.7,0,0,1-.25.9,1.84,1.84,0,0,1-.75.68,2.48,2.48,0,0,1-1.16.26A2.92,2.92,0,0,1,414.79,426.36Z"/><path class="cls-3" d="M419.21,422.69a2.24,2.24,0,0,1,.85-.9,2.31,2.31,0,0,1,1.19-.32,2.08,2.08,0,0,1,1,.24,1.87,1.87,0,0,1,.69.56v-.72h1v7.32h-1v-3.08a1.94,1.94,0,0,1-.7.57,2.21,2.21,0,0,1-1,.23,2.23,2.23,0,0,1-1.17-.32,2.41,2.41,0,0,1-.84-.92,2.94,2.94,0,0,1-.31-1.34A2.8,2.8,0,0,1,419.21,422.69Zm3.54.45a1.54,1.54,0,0,0-.55-.58,1.48,1.48,0,0,0-2,.56,1.8,1.8,0,0,0-.21.89,1.87,1.87,0,0,0,.21.9,1.46,1.46,0,0,0,1.29.79,1.4,1.4,0,0,0,.74-.2,1.47,1.47,0,0,0,.55-.58,2,2,0,0,0,0-1.78Z"/><path class="cls-3" d="M429.78,421.55v5h-1v-.58a1.74,1.74,0,0,1-.64.48,2,2,0,0,1-.83.17,2.26,2.26,0,0,1-1.05-.24,1.75,1.75,0,0,1-.73-.72,2.41,2.41,0,0,1-.26-1.15v-2.92h1v2.77a1.46,1.46,0,0,0,.33,1,1.16,1.16,0,0,0,.91.35,1.18,1.18,0,0,0,.91-.35,1.41,1.41,0,0,0,.34-1v-2.77Z"/><path class="cls-3" d="M431.05,422.69a2.28,2.28,0,0,1,.84-.9,2.33,2.33,0,0,1,1.19-.32,2.19,2.19,0,0,1,1,.23,2.36,2.36,0,0,1,.7.57v-.72h1v5h-1v-.74a2.08,2.08,0,0,1-.71.59,2.17,2.17,0,0,1-1,.23,2.23,2.23,0,0,1-1.17-.32,2.41,2.41,0,0,1-.84-.92,2.82,2.82,0,0,1-.31-1.34A2.68,2.68,0,0,1,431.05,422.69Zm3.54.45a1.56,1.56,0,0,0-.56-.58,1.47,1.47,0,0,0-.74-.2,1.43,1.43,0,0,0-.73.2,1.5,1.5,0,0,0-.56.56,1.8,1.8,0,0,0-.21.89,1.87,1.87,0,0,0,.21.9,1.45,1.45,0,0,0,.56.59,1.49,1.49,0,0,0,.73.2,1.37,1.37,0,0,0,.74-.2,1.49,1.49,0,0,0,.56-.58,2,2,0,0,0,0-1.78Z"/><path class="cls-3" d="M438.75,421.68a1.8,1.8,0,0,1,.89-.21v1.07h-.26a1.29,1.29,0,0,0-.92.3,1.49,1.49,0,0,0-.31,1.06v2.61h-1v-5h1v.72A1.7,1.7,0,0,1,438.75,421.68Z"/><path class="cls-3" d="M445,424.42h-3.79a1.37,1.37,0,0,0,1.41,1.31,1.19,1.19,0,0,0,1.17-.69h1.11a2.26,2.26,0,0,1-.81,1.12,2.41,2.41,0,0,1-1.47.43,2.45,2.45,0,0,1-1.27-.32,2.18,2.18,0,0,1-.88-.9,2.63,2.63,0,0,1-.32-1.34,2.8,2.8,0,0,1,.31-1.35,2.26,2.26,0,0,1,.87-.89,2.62,2.62,0,0,1,1.29-.32,2.54,2.54,0,0,1,1.25.31,2.1,2.1,0,0,1,.86.86,2.62,2.62,0,0,1,.31,1.27A3.77,3.77,0,0,1,445,424.42Zm-1-.83a1.16,1.16,0,0,0-.4-.91,1.44,1.44,0,0,0-1-.34,1.32,1.32,0,0,0-.91.33,1.44,1.44,0,0,0-.45.92Z"/><path class="cls-3" d="M293.6,437.16a1.85,1.85,0,0,1-.79-.63,1.62,1.62,0,0,1-.29-.95h1.1a1,1,0,0,0,.32.67,1.14,1.14,0,0,0,.79.26,1.18,1.18,0,0,0,.83-.26.83.83,0,0,0,.3-.66.69.69,0,0,0-.19-.51,1.29,1.29,0,0,0-.46-.31,6.09,6.09,0,0,0-.76-.23,7.58,7.58,0,0,1-1-.33,1.62,1.62,0,0,1-.65-.52,1.47,1.47,0,0,1-.27-.93,1.68,1.68,0,0,1,.27-.95,1.77,1.77,0,0,1,.75-.62,2.85,2.85,0,0,1,1.13-.21,2.38,2.38,0,0,1,1.49.45,1.69,1.69,0,0,1,.64,1.25h-1.13a.83.83,0,0,0-.33-.59,1.19,1.19,0,0,0-.78-.24,1.12,1.12,0,0,0-.72.22.78.78,0,0,0-.28.65.66.66,0,0,0,.18.48,1.17,1.17,0,0,0,.44.29,6.8,6.8,0,0,0,.74.23,9.77,9.77,0,0,1,1,.34,1.72,1.72,0,0,1,.67.53,1.53,1.53,0,0,1,.27,1,1.7,1.7,0,0,1-.25.9,1.84,1.84,0,0,1-.75.68,2.48,2.48,0,0,1-1.16.26A2.92,2.92,0,0,1,293.6,437.16Z"/><path class="cls-3" d="M298,433.49a2.24,2.24,0,0,1,.85-.9,2.3,2.3,0,0,1,1.18-.32,2.19,2.19,0,0,1,1,.23,2.24,2.24,0,0,1,.7.57v-.72h1v5h-1v-.74a2,2,0,0,1-.71.59,2.14,2.14,0,0,1-1,.23,2.29,2.29,0,0,1-1.17-.32,2.41,2.41,0,0,1-.84-.92,2.94,2.94,0,0,1-.31-1.34A2.8,2.8,0,0,1,298,433.49Zm3.54.45a1.54,1.54,0,0,0-.55-.58,1.49,1.49,0,0,0-.74-.2,1.47,1.47,0,0,0-.74.2,1.41,1.41,0,0,0-.55.56,1.8,1.8,0,0,0-.21.89,1.87,1.87,0,0,0,.21.9,1.43,1.43,0,0,0,.55.59,1.52,1.52,0,0,0,.74.2,1.4,1.4,0,0,0,.74-.2,1.47,1.47,0,0,0,.55-.58,2,2,0,0,0,0-1.78Z"/><path class="cls-3" d="M304.66,430.14l-.11,1.84h-.7l-.12-1.84Z"/><path class="cls-3" d="M305.56,433.49a2.24,2.24,0,0,1,.85-.9,2.3,2.3,0,0,1,1.18-.32,2.26,2.26,0,0,1,1,.23,2.19,2.19,0,0,1,.69.57v-.72h1v5h-1v-.74a2,2,0,0,1-.71.59,2.13,2.13,0,0,1-1,.23,2.23,2.23,0,0,1-1.17-.32,2.36,2.36,0,0,1-.85-.92,2.94,2.94,0,0,1-.31-1.34A2.8,2.8,0,0,1,305.56,433.49Zm3.54.45a1.47,1.47,0,0,0-.55-.58,1.47,1.47,0,0,0-1.48,0,1.41,1.41,0,0,0-.55.56,1.8,1.8,0,0,0-.21.89,1.87,1.87,0,0,0,.21.9,1.46,1.46,0,0,0,1.29.79,1.45,1.45,0,0,0,1.29-.78,2,2,0,0,0,0-1.78Z"/><path class="cls-3" d="M311.61,433.49a2.24,2.24,0,0,1,.85-.9,2.31,2.31,0,0,1,1.19-.32,2.38,2.38,0,0,1,1,.21,2,2,0,0,1,.75.57v-2.4h1v6.66h-1v-.74a2,2,0,0,1-.7.59,2.08,2.08,0,0,1-1,.23,2.3,2.3,0,0,1-1.18-.32,2.36,2.36,0,0,1-.85-.92,2.94,2.94,0,0,1-.31-1.34A2.8,2.8,0,0,1,311.61,433.49Zm3.54.45a1.54,1.54,0,0,0-.55-.58,1.49,1.49,0,0,0-.74-.2,1.47,1.47,0,0,0-.74.2,1.41,1.41,0,0,0-.55.56,1.8,1.8,0,0,0-.21.89,1.87,1.87,0,0,0,.21.9,1.43,1.43,0,0,0,.55.59,1.52,1.52,0,0,0,.74.2,1.4,1.4,0,0,0,.74-.2,1.47,1.47,0,0,0,.55-.58,2,2,0,0,0,0-1.78Z"/><path class="cls-3" d="M317.66,433.49a2.24,2.24,0,0,1,.85-.9,2.27,2.27,0,0,1,1.18-.32,2.19,2.19,0,0,1,1,.23,2.36,2.36,0,0,1,.7.57v-.72h1v5h-1v-.74a2.08,2.08,0,0,1-.71.59,2.14,2.14,0,0,1-1,.23,2.29,2.29,0,0,1-1.17-.32,2.41,2.41,0,0,1-.84-.92,2.82,2.82,0,0,1-.31-1.34A2.68,2.68,0,0,1,317.66,433.49Zm3.54.45a1.49,1.49,0,0,0-.56-.58,1.43,1.43,0,0,0-.73-.2,1.47,1.47,0,0,0-.74.2,1.44,1.44,0,0,0-.56.56,1.8,1.8,0,0,0-.21.89,1.87,1.87,0,0,0,.21.9,1.45,1.45,0,0,0,.56.59,1.49,1.49,0,0,0,.74.2,1.34,1.34,0,0,0,.73-.2,1.43,1.43,0,0,0,.56-.58,2,2,0,0,0,0-1.78Z"/><path class="cls-3" d="M324.94,433.19v2.75a.54.54,0,0,0,.13.4.63.63,0,0,0,.44.12h.63v.85h-.81a1.6,1.6,0,0,1-1.06-.32,1.36,1.36,0,0,1-.37-1.05v-2.75h-.58v-.84h.58v-1.23h1v1.23h1.2v.84Z"/><path class="cls-3" d="M333.09,436h-2.62l-.45,1.28H329l2.24-6.26h1.19l2.24,6.26h-1.08Zm-.29-.83-1-2.91-1,2.91Z"/><path class="cls-3" d="M337.28,432.5a2.24,2.24,0,0,1,1-.23,2.28,2.28,0,0,1,1.19.32,2.33,2.33,0,0,1,.84.89,2.86,2.86,0,0,1,.3,1.33,2.93,2.93,0,0,1-.3,1.34,2.41,2.41,0,0,1-.84.92,2.33,2.33,0,0,1-1.19.32,2.25,2.25,0,0,1-1-.22,1.84,1.84,0,0,1-.7-.58v.72h-1v-6.66h1v2.44A2,2,0,0,1,337.28,432.5Zm2.09,1.42a1.44,1.44,0,0,0-.56-.56,1.49,1.49,0,0,0-.74-.2,1.52,1.52,0,0,0-.74.2,1.47,1.47,0,0,0-.55.58,2,2,0,0,0,0,1.78,1.4,1.4,0,0,0,.55.58,1.42,1.42,0,0,0,.74.2,1.49,1.49,0,0,0,.74-.2,1.45,1.45,0,0,0,.56-.59,1.87,1.87,0,0,0,.21-.9A1.8,1.8,0,0,0,339.37,433.92Z"/><path class="cls-3" d="M341.56,433.49a2.15,2.15,0,0,1,.84-.9,2.3,2.3,0,0,1,1.18-.32,2.23,2.23,0,0,1,1,.23,2.19,2.19,0,0,1,.69.57v-.72h1v5h-1v-.74a2,2,0,0,1-.71.59,2.13,2.13,0,0,1-1,.23,2.23,2.23,0,0,1-1.17-.32,2.27,2.27,0,0,1-.84-.92,2.82,2.82,0,0,1-.31-1.34A2.68,2.68,0,0,1,341.56,433.49Zm3.53.45a1.47,1.47,0,0,0-.55-.58,1.47,1.47,0,0,0-1.48,0,1.41,1.41,0,0,0-.55.56,1.8,1.8,0,0,0-.21.89,1.87,1.87,0,0,0,.21.9,1.46,1.46,0,0,0,1.29.79,1.45,1.45,0,0,0,1.29-.78,2,2,0,0,0,0-1.78Z"/><path class="cls-3" d="M347.6,433.49a2.24,2.24,0,0,1,.85-.9,2.34,2.34,0,0,1,2.15-.11,1.83,1.83,0,0,1,.75.57v-2.4h1v6.66h-1v-.74a2,2,0,0,1-.7.59,2.08,2.08,0,0,1-1,.23,2.3,2.3,0,0,1-1.18-.32,2.36,2.36,0,0,1-.85-.92,2.94,2.94,0,0,1-.31-1.34A2.8,2.8,0,0,1,347.6,433.49Zm3.54.45a1.54,1.54,0,0,0-.55-.58,1.49,1.49,0,0,0-.74-.2,1.47,1.47,0,0,0-.74.2,1.41,1.41,0,0,0-.55.56,1.8,1.8,0,0,0-.21.89,1.87,1.87,0,0,0,.21.9,1.39,1.39,0,0,0,.56.59,1.46,1.46,0,0,0,.73.2,1.4,1.4,0,0,0,.74-.2,1.47,1.47,0,0,0,.55-.58,2,2,0,0,0,0-1.78Z"/><path class="cls-3" d="M359.74,436h-2.62l-.45,1.28H355.6l2.24-6.26H359l2.24,6.26h-1.08Zm-.29-.83-1-2.91-1,2.91Z"/><path class="cls-3" d="M364.1,436.39l1.41-4h1.09l-1.89,5h-1.23l-1.88-5h1.1Z"/><path class="cls-3" d="M371.83,435.22H368a1.35,1.35,0,0,0,.44.95,1.39,1.39,0,0,0,1,.36,1.2,1.2,0,0,0,1.17-.69h1.11a2.22,2.22,0,0,1-.82,1.12,2.38,2.38,0,0,1-1.46.43,2.45,2.45,0,0,1-1.27-.32,2.27,2.27,0,0,1-.89-.9,2.73,2.73,0,0,1-.31-1.34,2.8,2.8,0,0,1,.31-1.35,2.13,2.13,0,0,1,.87-.89,2.72,2.72,0,0,1,2.54,0,2.16,2.16,0,0,1,.86.86,2.62,2.62,0,0,1,.3,1.27A3.89,3.89,0,0,1,371.83,435.22Zm-1-.83a1.16,1.16,0,0,0-.4-.91,1.46,1.46,0,0,0-1-.34,1.32,1.32,0,0,0-.91.33,1.35,1.35,0,0,0-.45.92Z"/><path class="cls-3" d="M372.76,437.19a.68.68,0,0,1-.19-.47.67.67,0,0,1,.19-.47.63.63,0,0,1,.47-.19.62.62,0,0,1,.46.19.63.63,0,0,1,.19.47.64.64,0,0,1-.19.47.66.66,0,0,1-.93,0Z"/><path class="cls-3" d="M381,433.62v.87h-3.69v-.87Z"/><path class="cls-3" d="M388.75,431.06v.83h-1.66v5.42h-1v-5.42h-1.67v-.83Z"/><path class="cls-3" d="M394.24,435.22h-3.78a1.35,1.35,0,0,0,.44.95,1.37,1.37,0,0,0,1,.36,1.2,1.2,0,0,0,1.17-.69h1.11a2.28,2.28,0,0,1-.82,1.12,2.38,2.38,0,0,1-1.46.43,2.48,2.48,0,0,1-1.28-.32,2.31,2.31,0,0,1-.88-.9,2.74,2.74,0,0,1-.32-1.34,2.92,2.92,0,0,1,.31-1.35,2.22,2.22,0,0,1,.88-.89,2.72,2.72,0,0,1,2.54,0,2.07,2.07,0,0,1,.85.86,2.52,2.52,0,0,1,.31,1.27A2.64,2.64,0,0,1,394.24,435.22Zm-1-.83a1.17,1.17,0,0,0-.41-.91,1.43,1.43,0,0,0-1-.34,1.36,1.36,0,0,0-.91.33,1.44,1.44,0,0,0-.45.92Z"/><path class="cls-3" d="M398.81,432.52a1.68,1.68,0,0,1,.7.72,2.28,2.28,0,0,1,.26,1.15v2.92h-1v-2.77a1.46,1.46,0,0,0-.33-1,1.17,1.17,0,0,0-.91-.36,1.18,1.18,0,0,0-.91.36,1.41,1.41,0,0,0-.34,1v2.77h-1v-6.66h1v2.28a1.81,1.81,0,0,1,.66-.49,2.3,2.3,0,0,1,.88-.17A2,2,0,0,1,398.81,432.52Z"/><path class="cls-3" d="M402.65,432.48a1.76,1.76,0,0,1,.88-.21v1.06h-.26a1.27,1.27,0,0,0-.91.31,1.44,1.44,0,0,0-.31,1.06v2.61h-1v-5h1v.72A1.62,1.62,0,0,1,402.65,432.48Z"/><path class="cls-3" d="M404.39,433.49a2.24,2.24,0,0,1,.85-.9,2.27,2.27,0,0,1,1.18-.32,2.19,2.19,0,0,1,1,.23,2.24,2.24,0,0,1,.7.57v-.72h1v5h-1v-.74a2,2,0,0,1-.71.59,2.14,2.14,0,0,1-1,.23,2.29,2.29,0,0,1-1.17-.32,2.41,2.41,0,0,1-.84-.92,2.82,2.82,0,0,1-.31-1.34A2.68,2.68,0,0,1,404.39,433.49Zm3.54.45a1.54,1.54,0,0,0-.55-.58,1.49,1.49,0,0,0-.74-.2,1.47,1.47,0,0,0-.74.2,1.41,1.41,0,0,0-.55.56,1.7,1.7,0,0,0-.22.89,1.77,1.77,0,0,0,.22.9,1.43,1.43,0,0,0,.55.59,1.49,1.49,0,0,0,.74.2,1.4,1.4,0,0,0,.74-.2,1.47,1.47,0,0,0,.55-.58,2,2,0,0,0,0-1.78Z"/><path class="cls-3" d="M414,432.52a1.75,1.75,0,0,1,.73.72,2.38,2.38,0,0,1,.26,1.15v2.92h-1v-2.77a1.46,1.46,0,0,0-.33-1,1.18,1.18,0,0,0-.91-.36,1.22,1.22,0,0,0-.92.36,1.46,1.46,0,0,0-.33,1v2.77h-1v-5h1v.57a1.83,1.83,0,0,1,.64-.48,2.23,2.23,0,0,1,1.88.08Z"/><path class="cls-3" d="M513.35,420.71a1.94,1.94,0,0,1,1.81-.88,2,2,0,0,1,1.82.88,4.78,4.78,0,0,1,.52,2.44,4.84,4.84,0,0,1-.52,2.46,2,2,0,0,1-1.82.89,1.93,1.93,0,0,1-1.81-.89,4.83,4.83,0,0,1-.53-2.46A4.78,4.78,0,0,1,513.35,420.71Zm3,1.2a1.65,1.65,0,0,0-.38-.82,1.11,1.11,0,0,0-.86-.32,1.09,1.09,0,0,0-.85.32,1.75,1.75,0,0,0-.39.82,7.24,7.24,0,0,0-.09,1.24,7.63,7.63,0,0,0,.09,1.27,1.61,1.61,0,0,0,.38.82,1.12,1.12,0,0,0,.86.32,1.11,1.11,0,0,0,.86-.32,1.53,1.53,0,0,0,.38-.82,7.63,7.63,0,0,0,.09-1.27A7.24,7.24,0,0,0,516.4,421.91Z"/><path class="cls-3" d="M519.1,425.12c.57-.5,1-.91,1.36-1.23a5.79,5.79,0,0,0,.83-1,2,2,0,0,0,.33-1.05,1.26,1.26,0,0,0-.25-.84,1,1,0,0,0-.81-.31,1,1,0,0,0-.82.34,1.34,1.34,0,0,0-.31.9h-1a2.13,2.13,0,0,1,.61-1.57,2.16,2.16,0,0,1,1.5-.54,2.11,2.11,0,0,1,1.54.54,1.91,1.91,0,0,1,.55,1.44,2.53,2.53,0,0,1-.33,1.24,5,5,0,0,1-.78,1.07c-.3.32-.69.68-1.16,1.1l-.4.36h2.85v.85h-4.37v-.74Z"/><path class="cls-3" d="M523.52,420.89V420h1.88v6.56h-1v-5.62Z"/><path class="cls-3" d="M528.9,425.14v-.77l3-4.34h1.24v4.22H534v.89h-.84v1.37h-1v-1.37Zm3.3-4.06-2.12,3.17h2.12Z"/><path class="cls-3" d="M535.41,420.27a2.35,2.35,0,0,1,1.51-.47A2.42,2.42,0,0,1,538,420a1.64,1.64,0,0,1,.7.62,1.66,1.66,0,0,1,.23.87,1.52,1.52,0,0,1-.3.95,1.36,1.36,0,0,1-.71.53v0a1.49,1.49,0,0,1,.83.59,2.07,2.07,0,0,1,.06,2,1.78,1.78,0,0,1-.73.65,2.46,2.46,0,0,1-1.14.24,2.51,2.51,0,0,1-1.6-.5,1.87,1.87,0,0,1-.67-1.44h1a1.15,1.15,0,0,0,.37.78,1.3,1.3,0,0,0,.9.3,1.14,1.14,0,0,0,.85-.3,1.06,1.06,0,0,0,.3-.78,1,1,0,0,0-.4-.89,2.24,2.24,0,0,0-1.23-.27h-.24v-.84h.25a2.22,2.22,0,0,0,1.11-.25.8.8,0,0,0,.38-.73.88.88,0,0,0-.28-.69,1.12,1.12,0,0,0-.79-.26,1.1,1.1,0,0,0-.78.26,1,1,0,0,0-.34.63h-1A1.7,1.7,0,0,1,535.41,420.27Z"/><path class="cls-3" d="M539.94,425.14v-.77l3-4.34h1.25v4.22H545v.89h-.83v1.37h-1v-1.37Zm3.3-4.06-2.12,3.17h2.12Z"/><path class="cls-3" d="M546.35,420.71a2.31,2.31,0,0,1,3.63,0,4.78,4.78,0,0,1,.53,2.44,4.83,4.83,0,0,1-.53,2.46,2.3,2.3,0,0,1-3.63,0,4.84,4.84,0,0,1-.52-2.46A4.78,4.78,0,0,1,546.35,420.71Zm3,1.2a1.65,1.65,0,0,0-.38-.82,1.3,1.3,0,0,0-1.71,0,1.65,1.65,0,0,0-.38.82,7.14,7.14,0,0,0-.1,1.24,7.63,7.63,0,0,0,.09,1.27,1.54,1.54,0,0,0,.39.82,1.3,1.3,0,0,0,1.71,0,1.54,1.54,0,0,0,.39-.82,7.63,7.63,0,0,0,.09-1.27A6.27,6.27,0,0,0,549.4,421.91Z"/><path class="cls-3" d="M558,420.74l-2.51,5.77h-1l2.53-5.66h-3.33V420H558Z"/><path class="cls-3" d="M559.31,420.71a2.31,2.31,0,0,1,3.63,0,4.78,4.78,0,0,1,.53,2.44,4.83,4.83,0,0,1-.53,2.46,2.3,2.3,0,0,1-3.63,0,4.84,4.84,0,0,1-.52-2.46A4.78,4.78,0,0,1,559.31,420.71Zm3.05,1.2a1.65,1.65,0,0,0-.38-.82,1.3,1.3,0,0,0-1.71,0,1.65,1.65,0,0,0-.38.82,7.14,7.14,0,0,0-.1,1.24,7.63,7.63,0,0,0,.09,1.27,1.54,1.54,0,0,0,.39.82,1.3,1.3,0,0,0,1.71,0,1.54,1.54,0,0,0,.39-.82,7.63,7.63,0,0,0,.09-1.27A6.27,6.27,0,0,0,562.36,421.91Z"/><path class="cls-3" d="M565,420.71a2.3,2.3,0,0,1,3.62,0,4.68,4.68,0,0,1,.53,2.44,4.73,4.73,0,0,1-.53,2.46,2.29,2.29,0,0,1-3.62,0,4.83,4.83,0,0,1-.53-2.46A4.78,4.78,0,0,1,565,420.71Zm3.05,1.2a1.65,1.65,0,0,0-.38-.82,1.12,1.12,0,0,0-.86-.32,1.09,1.09,0,0,0-.85.32,1.66,1.66,0,0,0-.39.82,7.24,7.24,0,0,0-.09,1.24,7.63,7.63,0,0,0,.09,1.27,1.61,1.61,0,0,0,.38.82,1.12,1.12,0,0,0,.86.32,1.11,1.11,0,0,0,.86-.32,1.53,1.53,0,0,0,.38-.82,7.63,7.63,0,0,0,.09-1.27A7.24,7.24,0,0,0,568.07,421.91Z"/><path class="cls-3" d="M570.72,420.71a2,2,0,0,1,1.82-.88,1.94,1.94,0,0,1,1.81.88,4.78,4.78,0,0,1,.53,2.44,4.83,4.83,0,0,1-.53,2.46,1.93,1.93,0,0,1-1.81.89,2,2,0,0,1-1.82-.89,4.84,4.84,0,0,1-.52-2.46A4.78,4.78,0,0,1,570.72,420.71Zm3,1.2a1.65,1.65,0,0,0-.38-.82,1.09,1.09,0,0,0-.85-.32,1.11,1.11,0,0,0-.86.32,1.65,1.65,0,0,0-.38.82,7.24,7.24,0,0,0-.09,1.24,9,9,0,0,0,.08,1.27,1.62,1.62,0,0,0,.39.82,1.11,1.11,0,0,0,.86.32,1.12,1.12,0,0,0,.86-.32,1.61,1.61,0,0,0,.38-.82,7.63,7.63,0,0,0,.09-1.27A6.27,6.27,0,0,0,573.77,421.91Z"/><path class="cls-3" d="M582.12,422.82v.87h-3.7v-.87Z"/><path class="cls-3" d="M587.32,425.42a1.31,1.31,0,0,0,.8.23,1,1,0,0,0,.94-.51,3.52,3.52,0,0,0,.3-1.71,1.45,1.45,0,0,1-.61.47,2.15,2.15,0,0,1-.85.16,2.32,2.32,0,0,1-1.06-.23,1.77,1.77,0,0,1-.75-.71,2.2,2.2,0,0,1-.28-1.15A2,2,0,0,1,588,419.8a1.89,1.89,0,0,1,1.74.81,4.73,4.73,0,0,1,.52,2.5,8.19,8.19,0,0,1-.19,1.9,2.08,2.08,0,0,1-.68,1.12,2.05,2.05,0,0,1-1.32.37,2,2,0,0,1-1.48-.5,1.92,1.92,0,0,1-.59-1.27h1A1.17,1.17,0,0,0,587.32,425.42Zm1.61-2.56a1.24,1.24,0,0,0,.31-.89,1.34,1.34,0,0,0-.33-1,1.31,1.31,0,0,0-1.79,0,1.32,1.32,0,0,0-.33.93,1.29,1.29,0,0,0,.32.9,1.25,1.25,0,0,0,1,.36A1.09,1.09,0,0,0,588.93,422.86Z"/><path class="cls-3" d="M591.18,420.89V420h1.87v6.56h-1v-5.62Z"/><path class="cls-3" d="M594.92,420.71a2,2,0,0,1,1.82-.88,1.94,1.94,0,0,1,1.81.88,4.78,4.78,0,0,1,.53,2.44,4.83,4.83,0,0,1-.53,2.46,1.93,1.93,0,0,1-1.81.89,2,2,0,0,1-1.82-.89,4.84,4.84,0,0,1-.52-2.46A4.78,4.78,0,0,1,594.92,420.71Zm3.06,1.2a1.66,1.66,0,0,0-.39-.82,1.09,1.09,0,0,0-.85-.32,1.12,1.12,0,0,0-.86.32,1.65,1.65,0,0,0-.38.82,7.24,7.24,0,0,0-.09,1.24,7.63,7.63,0,0,0,.09,1.27,1.53,1.53,0,0,0,.38.82,1.11,1.11,0,0,0,.86.32,1.12,1.12,0,0,0,.86-.32,1.61,1.61,0,0,0,.38-.82,7.63,7.63,0,0,0,.09-1.27A7.24,7.24,0,0,0,598,421.91Z"/><path class="cls-3" d="M600.63,420.71a2.31,2.31,0,0,1,3.63,0,4.78,4.78,0,0,1,.52,2.44,4.84,4.84,0,0,1-.52,2.46,2.3,2.3,0,0,1-3.63,0,4.83,4.83,0,0,1-.53-2.46A4.78,4.78,0,0,1,600.63,420.71Zm3,1.2a1.65,1.65,0,0,0-.38-.82,1.3,1.3,0,0,0-1.71,0,1.65,1.65,0,0,0-.38.82,6.27,6.27,0,0,0-.1,1.24,7.63,7.63,0,0,0,.09,1.27,1.61,1.61,0,0,0,.38.82,1.14,1.14,0,0,0,.86.32,1.11,1.11,0,0,0,.86-.32,1.54,1.54,0,0,0,.39-.82,7.63,7.63,0,0,0,.09-1.27A6.27,6.27,0,0,0,603.68,421.91Z"/><path class="cls-3" d="M612.25,420.74l-2.51,5.77h-1l2.53-5.66h-3.33V420h4.34Z"/><path class="cls-3" d="M616.23,420.85a1.11,1.11,0,0,0-.73-.21,1.2,1.2,0,0,0-1.06.55,3.56,3.56,0,0,0-.37,1.8,1.65,1.65,0,0,1,.69-.61,2.25,2.25,0,0,1,1-.21,2.14,2.14,0,0,1,1,.25,1.78,1.78,0,0,1,.71.75,2.45,2.45,0,0,1,.25,1.16,2.52,2.52,0,0,1-.24,1.12,1.85,1.85,0,0,1-.74.78,2.68,2.68,0,0,1-2.62-.13,2.16,2.16,0,0,1-.74-1.15,7,7,0,0,1-.21-1.87c0-2.19.77-3.29,2.32-3.29a2,2,0,0,1,1.42.49,1.94,1.94,0,0,1,.61,1.19h-.95A1,1,0,0,0,616.23,420.85Zm-1.66,2.51a1.19,1.19,0,0,0-.38.95,1.37,1.37,0,0,0,.35,1,1.31,1.31,0,0,0,1,.37,1.15,1.15,0,0,0,.89-.35,1.33,1.33,0,0,0,.33-.94,1.41,1.41,0,0,0-.32-1,1.18,1.18,0,0,0-.94-.36A1.39,1.39,0,0,0,614.57,423.36Z"/><path class="cls-3" d="M623,420.83h-3v1.79a1.63,1.63,0,0,1,.57-.42,1.93,1.93,0,0,1,.79-.17,2.16,2.16,0,0,1,1.23.32,1.85,1.85,0,0,1,.68.82,2.84,2.84,0,0,1,.2,1.05,2.63,2.63,0,0,1-.26,1.18,1.88,1.88,0,0,1-.76.82,2.54,2.54,0,0,1-1.25.29,2.41,2.41,0,0,1-1.57-.48,2,2,0,0,1-.71-1.29h1a1.12,1.12,0,0,0,.45.67,1.36,1.36,0,0,0,.85.25,1.16,1.16,0,0,0,1-.39,1.58,1.58,0,0,0,.32-1,1.39,1.39,0,0,0-.33-1,1.23,1.23,0,0,0-.95-.35,1.19,1.19,0,0,0-1.18.82h-1v-3.79h4Z"/><path class="cls-3" d="M625,420.71a2.31,2.31,0,0,1,3.63,0,4.78,4.78,0,0,1,.53,2.44,4.83,4.83,0,0,1-.53,2.46,2.3,2.3,0,0,1-3.63,0,4.84,4.84,0,0,1-.52-2.46A4.78,4.78,0,0,1,625,420.71Zm3,1.2a1.65,1.65,0,0,0-.38-.82,1.3,1.3,0,0,0-1.71,0,1.65,1.65,0,0,0-.38.82,7.14,7.14,0,0,0-.1,1.24,7.63,7.63,0,0,0,.09,1.27,1.54,1.54,0,0,0,.39.82,1.11,1.11,0,0,0,.86.32,1.14,1.14,0,0,0,.86-.32,1.61,1.61,0,0,0,.38-.82,7.63,7.63,0,0,0,.09-1.27A6.27,6.27,0,0,0,628,421.91Z"/><path class="cls-3" d="M513,431.51a.66.66,0,1,1,.47.19A.67.67,0,0,1,513,431.51Zm1,.84v5h-1v-5Z"/><path class="cls-3" d="M518.83,432.52a1.67,1.67,0,0,1,.72.72,2.28,2.28,0,0,1,.27,1.15v2.92h-1v-2.77a1.41,1.41,0,0,0-.34-1,1.16,1.16,0,0,0-.9-.36,1.21,1.21,0,0,0-.92.36,1.46,1.46,0,0,0-.33,1v2.77h-1v-5h1v.57a1.74,1.74,0,0,1,.64-.48,2.23,2.23,0,0,1,1.88.08Z"/><path class="cls-3" d="M523.15,433.19h-.92v4.12h-1v-4.12h-.58v-.84h.58V432a1.52,1.52,0,0,1,.46-1.24,2.15,2.15,0,0,1,1.42-.4v.86a1,1,0,0,0-.65.17.8.8,0,0,0-.19.61v.35h.92Z"/><path class="cls-3" d="M524.88,437.07a2.27,2.27,0,0,1-.89-.9,2.74,2.74,0,0,1-.32-1.34,2.66,2.66,0,0,1,.33-1.34,2.32,2.32,0,0,1,.91-.9,2.74,2.74,0,0,1,2.57,0,2.25,2.25,0,0,1,.91.9,2.66,2.66,0,0,1,.33,1.34,2.59,2.59,0,0,1-.34,1.34,2.3,2.3,0,0,1-.93.9,2.61,2.61,0,0,1-1.3.32A2.47,2.47,0,0,1,524.88,437.07Zm2-.76a1.46,1.46,0,0,0,.57-.56,1.89,1.89,0,0,0,.21-.92,1.8,1.8,0,0,0-.21-.91,1.42,1.42,0,0,0-.54-.57,1.6,1.6,0,0,0-.74-.19,1.57,1.57,0,0,0-.74.19,1.39,1.39,0,0,0-.53.57,1.91,1.91,0,0,0-.2.91,1.77,1.77,0,0,0,.41,1.24,1.35,1.35,0,0,0,1,.43A1.46,1.46,0,0,0,526.89,436.31Z"/><path class="cls-3" d="M536.08,431.88a2.64,2.64,0,0,1,1.14,1.05,3.14,3.14,0,0,1,.39,1.58,3.79,3.79,0,0,1-.25,1.38,2.55,2.55,0,0,1-.71,1.07,1.57,1.57,0,0,1-1.09.42,1.1,1.1,0,0,1-.72-.21.83.83,0,0,1-.33-.57,2,2,0,0,1-1.58.78,1.42,1.42,0,0,1-1.09-.42,1.61,1.61,0,0,1-.39-1.14,2.93,2.93,0,0,1,.29-1.28,2.3,2.3,0,0,1,.79-1,2,2,0,0,1,1.15-.35,1.15,1.15,0,0,1,1.1.53l.08-.45h.89l-.45,2.57c0,.13,0,.24,0,.33a.54.54,0,0,0,.09.35.41.41,0,0,0,.34.12.69.69,0,0,0,.58-.34,2.19,2.19,0,0,0,.37-.83,4.07,4.07,0,0,0,.12-1,2.23,2.23,0,0,0-.67-1.75,2.77,2.77,0,0,0-1.93-.6,3.67,3.67,0,0,0-1.9.5A3.46,3.46,0,0,0,531,434.1a4,4,0,0,0-.48,2,2.25,2.25,0,0,0,.68,1.76,2.89,2.89,0,0,0,2,.6,3.34,3.34,0,0,0,1.49-.32l.14.69a4.71,4.71,0,0,1-1.84.35,3.76,3.76,0,0,1-1.72-.37,2.76,2.76,0,0,1-1.14-1,3,3,0,0,1-.41-1.58,4.7,4.7,0,0,1,.6-2.35,4.44,4.44,0,0,1,1.66-1.67,4.62,4.62,0,0,1,2.4-.62A3.8,3.8,0,0,1,536.08,431.88Zm-2.15,4.48a1.47,1.47,0,0,0,.49-.58,1.72,1.72,0,0,0,.18-.78,1.05,1.05,0,0,0-.24-.71.85.85,0,0,0-.67-.27,1,1,0,0,0-.68.24,1.65,1.65,0,0,0-.45.61,2.18,2.18,0,0,0-.15.8,1,1,0,0,0,.2.67.79.79,0,0,0,.63.24A1.14,1.14,0,0,0,533.93,436.36Z"/><path class="cls-3" d="M540.6,432.5a2.24,2.24,0,0,1,1-.23,2.28,2.28,0,0,1,1.19.32,2.25,2.25,0,0,1,.84.89,2.86,2.86,0,0,1,.3,1.33,2.93,2.93,0,0,1-.3,1.34,2.41,2.41,0,0,1-.84.92,2.33,2.33,0,0,1-1.19.32,2.25,2.25,0,0,1-1-.22,2,2,0,0,1-.71-.58v.72h-1v-6.66h1v2.44A2.12,2.12,0,0,1,540.6,432.5Zm2.09,1.42a1.44,1.44,0,0,0-.56-.56,1.47,1.47,0,0,0-1.48,0,1.47,1.47,0,0,0-.55.58,1.91,1.91,0,0,0,0,1.78,1.45,1.45,0,0,0,1.29.78,1.49,1.49,0,0,0,.74-.2,1.45,1.45,0,0,0,.56-.59,1.87,1.87,0,0,0,.21-.9A1.8,1.8,0,0,0,542.69,433.92Z"/><path class="cls-3" d="M544.88,433.49a2.15,2.15,0,0,1,.84-.9,2.3,2.3,0,0,1,1.18-.32,2.26,2.26,0,0,1,1,.23,2.19,2.19,0,0,1,.69.57v-.72h1v5h-1v-.74a2,2,0,0,1-.71.59,2.13,2.13,0,0,1-1,.23,2.23,2.23,0,0,1-1.17-.32,2.27,2.27,0,0,1-.84-.92,2.82,2.82,0,0,1-.32-1.34A2.69,2.69,0,0,1,544.88,433.49Zm3.53.45a1.47,1.47,0,0,0-.55-.58,1.47,1.47,0,0,0-1.48,0,1.41,1.41,0,0,0-.55.56,1.8,1.8,0,0,0-.21.89,1.87,1.87,0,0,0,.21.9,1.46,1.46,0,0,0,1.29.79,1.45,1.45,0,0,0,1.29-.78,2,2,0,0,0,0-1.78Z"/><path class="cls-3" d="M558,432.52a1.75,1.75,0,0,1,.73.72,2.38,2.38,0,0,1,.26,1.15v2.92h-1v-2.77a1.46,1.46,0,0,0-.33-1,1.17,1.17,0,0,0-.91-.36,1.18,1.18,0,0,0-.91.36,1.41,1.41,0,0,0-.34,1v2.77h-1v-2.77a1.46,1.46,0,0,0-.33-1,1.17,1.17,0,0,0-.91-.36,1.18,1.18,0,0,0-.91.36,1.41,1.41,0,0,0-.34,1v2.77h-1v-5h1v.57a1.83,1.83,0,0,1,.64-.48,2.09,2.09,0,0,1,.83-.17,2.3,2.3,0,0,1,1.06.25,1.81,1.81,0,0,1,.72.73,1.6,1.6,0,0,1,.7-.71,2.06,2.06,0,0,1,1-.27A2.14,2.14,0,0,1,558,432.52Z"/><path class="cls-3" d="M560.22,433.49a2.24,2.24,0,0,1,.85-.9,2.27,2.27,0,0,1,1.18-.32,2.19,2.19,0,0,1,1,.23,2.36,2.36,0,0,1,.7.57v-.72h1v5h-1v-.74a2.08,2.08,0,0,1-.71.59,2.14,2.14,0,0,1-1,.23,2.29,2.29,0,0,1-1.17-.32,2.41,2.41,0,0,1-.84-.92,2.82,2.82,0,0,1-.31-1.34A2.68,2.68,0,0,1,560.22,433.49Zm3.54.45a1.49,1.49,0,0,0-.56-.58,1.43,1.43,0,0,0-.73-.2,1.47,1.47,0,0,0-.74.2,1.5,1.5,0,0,0-.56.56,1.8,1.8,0,0,0-.21.89,1.87,1.87,0,0,0,.21.9,1.52,1.52,0,0,0,.56.59,1.49,1.49,0,0,0,.74.2,1.34,1.34,0,0,0,.73-.2,1.43,1.43,0,0,0,.56-.58,2,2,0,0,0,0-1.78Z"/><path class="cls-3" d="M566.25,437.19a.64.64,0,0,1-.19-.47.63.63,0,0,1,.19-.47.65.65,0,0,1,.92,0,.63.63,0,0,1,.19.47.65.65,0,0,1-1.11.47Z"/><path class="cls-3" d="M568.47,431.51a.68.68,0,0,1,0-.94.65.65,0,0,1,.47-.19.66.66,0,0,1,0,1.32A.65.65,0,0,1,568.47,431.51Zm1,.84v5h-1v-5Z"/><path class="cls-3" d="M572.36,432.48a1.8,1.8,0,0,1,.89-.21v1.06H573a1.28,1.28,0,0,0-.92.31,1.49,1.49,0,0,0-.31,1.06v2.61h-1v-5h1v.72A1.62,1.62,0,0,1,572.36,432.48Z"/><rect x="612.11" y="312.66" width="27.73" height="27.73"/><rect x="512.28" y="273.84" width="27.73" height="66.55"/><rect x="578.83" y="273.84" width="27.73" height="66.55"/><circle cx="559.42" cy="326.53" r="13.87"/><circle cx="625.98" cy="359.8" r="13.87"/><path d="M535.85,363.63a5.89,5.89,0,1,0,0,9v1.06h2.78V362.58h-2.78Zm-3.46,8a3.47,3.47,0,1,1,3.46-3.47A3.47,3.47,0,0,1,532.39,371.59Z"/><path d="M569.82,363.63a5.89,5.89,0,1,0,0,9v1.06h2.78V362.58h-2.78Zm-3.46,8a3.47,3.47,0,1,1,3.46-3.47A3.47,3.47,0,0,1,566.36,371.59Z"/><path d="M518.87,362.23a5.85,5.85,0,0,0-3.81,1.4v-5.21h-2.78v15.25h2.78v-1.06a5.89,5.89,0,1,0,3.81-10.38Zm-.35,9.36a3.47,3.47,0,1,1,3.47-3.47A3.46,3.46,0,0,1,518.52,371.59Z"/><path d="M554.23,362.23a4.5,4.5,0,0,0-3.82,2.11,4.49,4.49,0,0,0-6.93-.85v-.91h-2.77v11.09h2.77v-6.59a2.43,2.43,0,1,1,4.85,0v6.59h2.78v-6.59a2.43,2.43,0,1,1,4.85,0v6.59h2.77v-6.94A4.51,4.51,0,0,0,554.23,362.23Z"/><rect x="578.84" y="362.58" width="2.77" height="11.09"/><path d="M589.58,362.23a3.81,3.81,0,0,0-3.12,1.62v-1.27h-2.77v11.09h2.77v-6.94a2.08,2.08,0,0,1,2.08-2.08h1.39v-2.42Z"/><circle cx="580.22" cy="359.46" r="1.73"/><circle cx="575.72" cy="371.93" r="1.73"/></g></svg>