<svg xmlns="http://www.w3.org/2000/svg" viewBox="0 0 648 648"><defs><style>.cls-1{fill:#e5e5e5;}.cls-2{fill:#585757;}.cls-3{fill:#8db943;}.cls-4{fill:#222221;}</style></defs><g id="Background"><path class="cls-1" d="M126.86,55.36H541.14a0,0,0,0,1,0,0V586.72a27,27,0,0,1-27,27H126.86a0,0,0,0,1,0,0V55.36a0,0,0,0,1,0,0Z" transform="translate(668 669.1) rotate(-180)"/></g><g id="Layer_1" data-name="Layer 1"><rect class="cls-2" x="116.86" y="44.81" width="414.28" height="558.38" transform="translate(648 648) rotate(-180)"/><rect class="cls-3" x="116.86" y="426.91" width="414.28" height="176.28" transform="translate(648 1030.1) rotate(-180)"/><path class="cls-4" d="M434,560.75a1.4,1.4,0,0,1,.14-.61,1.33,1.33,0,0,1,.41-.47l.29-.21.34-.26.33-.24.24-.17.1-.07.06,0-1.15-.34a.16.16,0,0,0-.16,0,.22.22,0,0,0-.11.14l-.16.49-.42-.11.13-.48a.72.72,0,0,1,.15-.27.76.76,0,0,1,.23-.17.77.77,0,0,1,.27-.08.57.57,0,0,1,.26,0l2.12.64L437,559l-.34-.09a.26.26,0,0,0-.15,0,.35.35,0,0,0-.14.06L434.89,560a.83.83,0,0,0-.26.3.71.71,0,0,0-.08.38.86.86,0,0,0,.07.36,1.12,1.12,0,0,0,.19.29,1,1,0,0,0,.29.2,1,1,0,0,0,.36.07h1.39v.55h-1.39a1.42,1.42,0,0,1-.55-.11,1.27,1.27,0,0,1-.45-.3,1.39,1.39,0,0,1-.31-.45A1.29,1.29,0,0,1,434,560.75Zm1.55-.45h.55v.55h-.55Z"/><path class="cls-4" d="M439,560.22c0,.06,0,.08-.08.08h-.2a.94.94,0,0,1-.84-.56.86.86,0,0,1-.07-.36v-2.9h.47v2.9a.33.33,0,0,0,.1.25.34.34,0,0,0,.26.11H439l.06,0a.14.14,0,0,1,0,.06Z"/><path class="cls-4" d="M439.68,560.3H439l-.06,0a.14.14,0,0,1,0-.06v-.4s0,0,0-.05l.06,0h.77a.6.6,0,0,0,.33-.09.52.52,0,0,0,.21-.23.56.56,0,0,0,.06-.32.74.74,0,0,0-.14-.35l-.94-1.28v-.37l1.82-.93.21.43-1.55.78.84,1.1a1.12,1.12,0,0,1-.27,1.65A1.09,1.09,0,0,1,439.68,560.3Z"/><path class="cls-4" d="M443.49,561.3a1.23,1.23,0,0,1-.47-.09,1.13,1.13,0,0,1-.63-.63,1.23,1.23,0,0,1-.09-.47v-1.57h.46V560a.6.6,0,0,0,.06.27.67.67,0,0,0,.38.38.65.65,0,0,0,.27,0h1a.55.55,0,0,0,.42-.17.52.52,0,0,0,.12-.19.59.59,0,0,0,.05-.23v-1.71h.47v1.8a1.16,1.16,0,0,1-.08.42,1.3,1.3,0,0,1-.23.33,1,1,0,0,1-.76.31Zm.16-3.4h.54v.54h-.54Z"/><path class="cls-4" d="M446.75,560.3h-.47v-3.82h.47Z"/><path class="cls-4" d="M450.31,559.74h.14a.05.05,0,0,1,.05,0,.09.09,0,0,1,0,.06v.39c0,.06,0,.08-.08.08h-.11a.77.77,0,0,1-.4-.1,1,1,0,0,1-.29-.28.76.76,0,0,1-.31.28.79.79,0,0,1-.4.1h-.78a.53.53,0,0,1-.25,0,1,1,0,0,1-.22-.14.69.69,0,0,1-.14-.22.71.71,0,0,1-.05-.26V559h.41v.56a.19.19,0,0,0,0,.14.17.17,0,0,0,.14.06h.84a.41.41,0,0,0,.19,0,.37.37,0,0,0,.15-.13.56.56,0,0,0,.09-.17.41.41,0,0,0,0-.19l-.43-1.58.44-.17.56,2a.34.34,0,0,0,.14.21A.34.34,0,0,0,450.31,559.74Z"/><path class="cls-4" d="M452.56,560.22a.14.14,0,0,1,0,.06l-.06,0h-.38a.63.63,0,0,1-.19,0,.48.48,0,0,1-.18-.07.44.44,0,0,1-.15-.12.37.37,0,0,1-.09-.14.88.88,0,0,1-.28.26.77.77,0,0,1-.38.1h-.38c-.05,0-.08,0-.08-.08v-.4a.07.07,0,0,1,.08-.08h.41a.41.41,0,0,0,.26-.09.43.43,0,0,0,.14-.23l.19-.95.46.08-.16.79a.35.35,0,0,0,.08.28.34.34,0,0,0,.27.12h.38a.07.07,0,0,1,.08.08Zm-1.78,1.31h.54V561h-.54Zm.84,0h.54V561h-.54Z"/><path class="cls-4" d="M453.06,559.42l.11-.59a.82.82,0,0,1,.28-.47.79.79,0,0,1,.51-.18h.32a.75.75,0,0,1,.33.07.8.8,0,0,1,.27.18.91.91,0,0,1,.18.27.88.88,0,0,1,.06.33v.7a.56.56,0,0,1-.16.41.53.53,0,0,1-.41.16h-.69a.62.62,0,0,1-.33-.08.55.55,0,0,1-.26-.28.63.63,0,0,1-.28.28.74.74,0,0,1-.35.08h-.16c-.05,0-.08,0-.08-.08v-.4s0,0,0-.05l.06,0h.18a.41.41,0,0,0,.26-.09A.43.43,0,0,0,453.06,559.42Zm.75.32h.84V559a.31.31,0,0,0-.31-.31h-.41a.32.32,0,0,0-.19.07.33.33,0,0,0-.11.19l-.09.45a.24.24,0,0,0,.06.23A.26.26,0,0,0,453.81,559.74Z"/><path class="cls-4" d="M456.06,561.74l-.15-.46.74-.24a.76.76,0,0,0,.52-.73v-1.87h.47v1.82a1.4,1.4,0,0,1-.06.41,1.66,1.66,0,0,1-.18.35,1.28,1.28,0,0,1-.64.48Zm1.07-4.46h.54v.54h-.54Z"/><path class="cls-4" d="M458.94,560.3h-.47v-3.82h.47Z"/><path class="cls-4" d="M461.48,558.44v1a.31.31,0,0,0,.11.25.39.39,0,0,0,.26.09h.52a.07.07,0,0,1,.08.08v.4c0,.06,0,.08-.08.08h-.44a.53.53,0,0,1-.25,0,.39.39,0,0,1-.2-.16v.21a1.28,1.28,0,0,1-.07.39,1.16,1.16,0,0,1-.18.35,1.24,1.24,0,0,1-.28.28,1.16,1.16,0,0,1-.35.18l-.71.24-.15-.45.74-.25a.78.78,0,0,0,.53-.73v-1.87Z"/><path class="cls-4" d="M463.16,559.74a.34.34,0,0,0,.26-.11.33.33,0,0,0,.1-.25v-1.1H464v1.1a.84.84,0,0,1-.07.35.79.79,0,0,1-.2.3,1,1,0,0,1-.29.2.86.86,0,0,1-.36.07h-.7l-.06,0a.14.14,0,0,1,0-.06v-.39a.14.14,0,0,1,0-.06l.06,0Zm-.55-2.08h.54v-.55h-.54Zm.84,0H464v-.55h-.54Z"/><path class="cls-4" d="M467.07,556.48v2.79a1,1,0,0,1-.23.67.94.94,0,0,1-.59.3l-1.57.22-.06-.5.61-.08-.27-3,.47-.07.27,3,.49-.06a.45.45,0,0,0,.41-.49v-2.79Z"/><path class="cls-4" d="M469,560.22c0,.06,0,.08-.08.08h-.2a.94.94,0,0,1-.84-.56.86.86,0,0,1-.07-.36v-2.9h.47v2.9a.38.38,0,0,0,.36.36h.28a.06.06,0,0,1,.06,0,.07.07,0,0,1,0,.06Z"/><path class="cls-4" d="M469.72,559.74a.33.33,0,0,0,.26-.11.34.34,0,0,0,.11-.25v-1.1h.47v1.1a1,1,0,0,1-.07.35.92.92,0,0,1-.5.5.86.86,0,0,1-.36.07h-.7l-.05,0a.09.09,0,0,1,0-.06v-.39a.09.09,0,0,1,0-.06.05.05,0,0,1,.05,0Zm-.67,1.25h.55v.54h-.55Z"/><path class="cls-4" d="M472.55,560.61l-.17-.06a.53.53,0,0,1-.15-.08.64.64,0,0,1-.17-.13.28.28,0,0,1-.08-.2.39.39,0,0,1,0-.21,1.25,1.25,0,0,1,.06-.18l.24-.71.34.11-.26.75.36.13Z"/><path class="cls-4" d="M474.21,560.3a.58.58,0,0,1-.26,0,.77.77,0,0,1-.21-.14.55.55,0,0,1-.14-.22.71.71,0,0,1-.05-.26V559h.4v.56a.24.24,0,0,0,.05.14.18.18,0,0,0,.15.06h.91a.49.49,0,0,0,.25-.06.4.4,0,0,0,.15-.17.54.54,0,0,0,.05-.21.37.37,0,0,0-.06-.21l-.67-1.21.39-.26.69,1.22a.91.91,0,0,1,.14.52.94.94,0,0,1-.12.47,1,1,0,0,1-.34.34.9.9,0,0,1-.49.13Z"/><path class="cls-4" d="M477.93,560.22c0,.06,0,.08-.08.08h-.2a.89.89,0,0,1-.36-.07.94.94,0,0,1-.29-.2.81.81,0,0,1-.19-.29.86.86,0,0,1-.08-.36v-2.9h.47v2.9a.34.34,0,0,0,.11.25.33.33,0,0,0,.26.11h.28l.06,0a.14.14,0,0,1,0,.06Z"/><path class="cls-4" d="M478.64,559.74a.34.34,0,0,0,.26-.11.33.33,0,0,0,.1-.25v-1.1h.47v1.1a.84.84,0,0,1-.07.35.79.79,0,0,1-.2.3,1,1,0,0,1-.29.2.86.86,0,0,1-.36.07h-.7l-.06,0a.14.14,0,0,1,0-.06v-.39a.14.14,0,0,1,0-.06l.06,0ZM478,561h.54v.54H478Z"/><path class="cls-4" d="M479.4,556.79v-.24a.46.46,0,0,1,.48-.48H481v.41h-1.1a.11.11,0,0,0-.09,0,.11.11,0,0,0,0,.09v.17Zm1.21,3.51h-.47v-3.36h.47Z"/><path class="cls-4" d="M485.45,559.74a.37.37,0,0,0,.26-.1.36.36,0,0,0,.11-.26v-1.1h.46v1.1a.86.86,0,0,1-.07.36,1,1,0,0,1-.2.29.84.84,0,0,1-.29.2.94.94,0,0,1-.37.07h-2.16a1,1,0,0,1-.42-.08.89.89,0,0,1-.34-.23,1,1,0,0,1-.23-.34.91.91,0,0,1-.08-.41v-1h.46v.9a.54.54,0,0,0,.17.4.56.56,0,0,0,.41.16Zm-1.94-1.46h.54v-.54h-.54Zm.84,0h.54v-.54h-.54Z"/><path class="cls-4" d="M487.69,560.3a.55.55,0,0,1-.26,0,.77.77,0,0,1-.21-.14.65.65,0,0,1-.2-.48V559h.4v.56a.24.24,0,0,0,.05.14.2.2,0,0,0,.15.06h.91a.46.46,0,0,0,.25-.06.4.4,0,0,0,.2-.38.46.46,0,0,0-.05-.21l-.68-1.21.4-.26.69,1.22a1.1,1.1,0,0,1,.14.52,1.06,1.06,0,0,1-.13.47,1,1,0,0,1-.33.34.93.93,0,0,1-.5.13Z"/><path class="cls-4" d="M491.4,560.22c0,.06,0,.08-.08.08h-.2a.94.94,0,0,1-.84-.56.86.86,0,0,1-.07-.36v-2.9h.47v2.9a.38.38,0,0,0,.36.36h.28a.07.07,0,0,1,.06,0,.07.07,0,0,1,0,.06Z"/><path class="cls-4" d="M493.51,558a.81.81,0,0,1,.31.06.79.79,0,0,1,.25.17.78.78,0,0,1,.16.24.67.67,0,0,1,.07.31v.14a.52.52,0,0,1-.07.27.55.55,0,0,1-.17.2l-.41.28.24.06.31,0h.61a.05.05,0,0,1,.05,0,.07.07,0,0,1,0,.06v.39a.09.09,0,0,1,0,.06l-.05,0h-.67a2,2,0,0,1-.54-.07.7.7,0,0,0-1,0,1.88,1.88,0,0,1-.53.07h-.75l-.05,0a.09.09,0,0,1,0-.06v-.39a.09.09,0,0,1,0-.06s0,0,.05,0h.73a1.46,1.46,0,0,0,.29,0l.24-.05-.65-.44v-.73a.5.5,0,0,1,.14-.37.48.48,0,0,1,.37-.14Zm-1.11,1,.2.13.24.16.29.21.7-.48v-.15a.29.29,0,0,0-.09-.22.32.32,0,0,0-.23-.09H492.4Z"/><path class="cls-4" d="M496.33,560.3a.85.85,0,0,1-.38-.09.3.3,0,0,0-.6,0,.86.86,0,0,1-.39.09h-.15l-.06,0a.07.07,0,0,1,0-.06v-.4s0,0,0-.05l.06,0h.24a.33.33,0,0,0,.26-.11.35.35,0,0,0,.1-.26v-.94h.48v1a.33.33,0,0,0,.1.25.33.33,0,0,0,.26.11h.12a.39.39,0,0,0,.26-.09.37.37,0,0,0,.14-.24l.19-.94.46.08-.15.79a.32.32,0,0,0,.07.28.38.38,0,0,0,.28.12h.47v-1.47h.47v1.46a.6.6,0,0,1-.16.41.56.56,0,0,1-.41.16h-.38a.73.73,0,0,1-.35-.09.59.59,0,0,1-.26-.28.67.67,0,0,1-.3.28A.78.78,0,0,1,496.33,560.3Z"/><path class="cls-4" d="M500.55,560.61l-.17-.06a.53.53,0,0,1-.15-.08.52.52,0,0,1-.17-.13.28.28,0,0,1-.08-.2.39.39,0,0,1,0-.21,1.25,1.25,0,0,1,.06-.18l.24-.71.33.11-.25.75.36.13Z"/><path class="cls-4" d="M502.73,561.3a1.18,1.18,0,0,1-.46-.09,1.25,1.25,0,0,1-.38-.25,1.19,1.19,0,0,1-.25-.38,1.07,1.07,0,0,1-.1-.47v-1.57H502V560a.6.6,0,0,0,.06.27.91.91,0,0,0,.15.23.76.76,0,0,0,.23.15.62.62,0,0,0,.27,0h1a.62.62,0,0,0,.23,0,.46.46,0,0,0,.18-.13.43.43,0,0,0,.13-.19.59.59,0,0,0,.05-.23v-1.71h.46v1.8a1,1,0,0,1-.08.42,1.14,1.14,0,0,1-.56.56,1,1,0,0,1-.42.08Zm.16-3.4h.55v.54h-.55Z"/><path class="cls-4" d="M506,560.3h-.47v-3.82H506Z"/><path class="cls-4" d="M507.27,558.44v1a.34.34,0,0,0,.11.25.43.43,0,0,0,.26.09h.52c.06,0,.08,0,.08.08v.4c0,.06,0,.08-.08.08h-.44a.56.56,0,0,1-.25,0,.43.43,0,0,1-.2-.16v.21a1.27,1.27,0,0,1-.06.39,1.48,1.48,0,0,1-.19.35,1.2,1.2,0,0,1-.27.28,1.22,1.22,0,0,1-.36.18l-.7.24-.15-.45.74-.25a.72.72,0,0,0,.38-.28.71.71,0,0,0,.14-.45v-1.87Z"/><path class="cls-4" d="M508.61,559.74v-.65a.72.72,0,0,1,.07-.33.8.8,0,0,1,.18-.27.68.68,0,0,1,.26-.18.88.88,0,0,1,.33-.07h.23a.8.8,0,0,1,.51.19.75.75,0,0,1,.27.46l.09.45a.86.86,0,0,1,0,.36.8.8,0,0,1-.43.52.69.69,0,0,1-.35.08h-.41a.65.65,0,0,1-.27,0v.06c0,.3.11.48.37.53l.57.1.5-.71a1.11,1.11,0,0,1,.39-.36,1,1,0,0,1,.52-.13h.07a.12.12,0,0,1,.08.08v.4c0,.06,0,.08-.08.08h-.17a.58.58,0,0,0-.49.28l-.11.17-.21.29c-.07.11-.14.2-.19.29l-.1.15-1-.24a.77.77,0,0,1-.47-.31,1.09,1.09,0,0,1-.16-.63h-.46a.06.06,0,0,1-.05,0,.06.06,0,0,1,0-.06v-.4a.05.05,0,0,1,0-.05l.05,0Zm.48-.65v.65h.73a.26.26,0,0,0,.21-.09.24.24,0,0,0,.06-.23L510,559a.27.27,0,0,0-.1-.18.31.31,0,0,0-.21-.07h-.31a.35.35,0,0,0-.22.08A.31.31,0,0,0,509.09,559.09Z"/><path class="cls-4" d="M512.3,559.74a.38.38,0,0,0,.37-.36v-1.1h.46v1.1a.84.84,0,0,1-.07.35.77.77,0,0,1-.19.3,1.21,1.21,0,0,1-.3.2.86.86,0,0,1-.36.07h-.7l-.06,0a.14.14,0,0,1,0-.06v-.39a.14.14,0,0,1,0-.06l.06,0Zm-.55-2.08h.54v-.55h-.54Zm.84,0h.54v-.55h-.54Z"/><path class="cls-4" d="M429.86,563.2a5.94,5.94,0,0,0,.11.77c0,.24.11.48.17.7s.13.42.2.62l.22.53a6.41,6.41,0,0,0,.54,1l-.41.34q-.26-.42-.48-.87l-.18-.41c-.07-.15-.12-.31-.18-.47s-.1-.32-.14-.49a4,4,0,0,1-.09-.5,4,4,0,0,1-.13.67c-.06.22-.14.43-.21.64a5.87,5.87,0,0,1-.25.56c-.08.17-.16.32-.23.45l-.24.42-.41-.34a6.16,6.16,0,0,0,.51-.93,10.11,10.11,0,0,0,.42-1.14,8.78,8.78,0,0,0,.31-1.56Z"/><path class="cls-4" d="M435.2,566.61h.14a.06.06,0,0,1,.05,0,.09.09,0,0,1,0,.06v.4a.07.07,0,0,1-.08.08h-.12a.77.77,0,0,1-.39-.11.78.78,0,0,1-.29-.28.83.83,0,0,1-.72.39h-.77a.58.58,0,0,1-.26-.06.64.64,0,0,1-.35-.35.58.58,0,0,1-.05-.26v-.66h.4v.56a.25.25,0,0,0,0,.15.19.19,0,0,0,.15.06h.83a.46.46,0,0,0,.2-.05.44.44,0,0,0,.15-.12.37.37,0,0,0,.08-.18.41.41,0,0,0,0-.19l-.44-1.58.45-.17.55,2a.4.4,0,0,0,.14.22A.41.41,0,0,0,435.2,566.61Z"/><path class="cls-4" d="M435.26,566.69c0-.06,0-.08.08-.08h1a1.44,1.44,0,0,0,.51-.09,1.25,1.25,0,0,0,.44-.27l.45-.43.09-.08-1.32-.39a.18.18,0,0,0-.16,0,.23.23,0,0,0-.1.14L436,566l-.41-.11.14-.48a.72.72,0,0,1,.14-.26.65.65,0,0,1,.22-.18.77.77,0,0,1,.27-.08.67.67,0,0,1,.28,0l2.23.67-.15.45-.24-.08a.38.38,0,0,0-.26,0,1.3,1.3,0,0,0-.2.15l-.66.62a1.51,1.51,0,0,1-.54.33,2.13,2.13,0,0,1-.62.12h-.89a.06.06,0,0,1-.06,0,.06.06,0,0,1,0,0Z"/><path class="cls-4" d="M440.09,567.17h-.46v-3.82h.46Z"/><path class="cls-4" d="M442.86,567.14a1.09,1.09,0,0,1-.07.4,1.22,1.22,0,0,1-.18.36,1.28,1.28,0,0,1-.64.48l-.7.24-.15-.46.73-.25a.68.68,0,0,0,.37-.27.93.93,0,0,0,.16-.45v-.08a.21.21,0,0,1-.12,0l-.15,0h-.52a.78.78,0,0,1-.35-.08.84.84,0,0,1-.27-.22.71.71,0,0,1-.15-.3.69.69,0,0,1,0-.35l.1-.52a.79.79,0,0,1,.28-.47.76.76,0,0,1,.5-.19H442a.88.88,0,0,1,.33.07.83.83,0,0,1,.45.45,1,1,0,0,1,.07.33Zm-.47-.53v-.72a.27.27,0,0,0-.1-.22.31.31,0,0,0-.22-.09h-.41a.34.34,0,0,0-.2.06.32.32,0,0,0-.1.19l-.09.46a.25.25,0,0,0,.05.22.3.3,0,0,0,.22.1Z"/><path class="cls-4" d="M444.88,567.47l-.17-.06-.15-.07a1,1,0,0,1-.17-.13.32.32,0,0,1-.08-.21.56.56,0,0,1,0-.21c0-.07.05-.13.06-.17l.25-.72.33.12-.25.74.35.13Z"/><path class="cls-4" d="M449.18,564.55a.6.6,0,0,1-.16.41.57.57,0,0,1-.42.16h-.38a.82.82,0,0,1-.35-.08.27.27,0,0,0-.54,0,.83.83,0,0,1-.36.08.66.66,0,0,1-.23,0,.36.36,0,0,1-.2-.15v2.24h-.48v-2.41a5.19,5.19,0,0,0-.1-1l-.08-.38.46-.09s0,0,0,.1,0,.14.05.23l.06.33c0,.12,0,.24,0,.37a.28.28,0,0,0,.1.2.36.36,0,0,0,.26.09H447a.37.37,0,0,0,.25-.09.37.37,0,0,0,.14-.23l.2-1,.46.09-.16.81a.33.33,0,0,0,.08.26.31.31,0,0,0,.26.12h.51v-1.31h.48Z"/><path class="cls-4" d="M450.58,565.76a.92.92,0,0,1,.2-.6.94.94,0,0,1,.52-.33l.78-.2v-.45h.47v2a.4.4,0,0,0,0,.15.64.64,0,0,0,.1.13.57.57,0,0,0,.13.08.32.32,0,0,0,.16,0h.17c.06,0,.08,0,.08.08v.4s0,.08-.08.08H453a.81.81,0,0,1-.48-.15,1,1,0,0,1-.32-.37.26.26,0,0,1-.13.06.45.45,0,0,1-.16,0h-.7a.59.59,0,0,1-.44-.17.61.61,0,0,1-.16-.43Zm1.5-.62-.67.16a.44.44,0,0,0-.26.18.52.52,0,0,0-.1.31v.39h1Z"/><path class="cls-4" d="M453.45,565.79a1,1,0,0,1,.08-.39,1.48,1.48,0,0,1,.21-.32,1.27,1.27,0,0,1,.31-.2.84.84,0,0,1,.38-.08h.08a.8.8,0,0,1,.37.08,1.1,1.1,0,0,1,.31.2,1.06,1.06,0,0,1,.21.31,1,1,0,0,1,.08.38V566a.73.73,0,0,1-.09.35,1.17,1.17,0,0,1-.22.29h.6s.05,0,.06,0a.09.09,0,0,1,0,.06v.4a.05.05,0,0,1,0,0,.06.06,0,0,1-.06,0h-.53a2.22,2.22,0,0,1-.38,0,.61.61,0,0,0-.8,0,2.22,2.22,0,0,1-.38,0h-.54a.07.07,0,0,1-.08-.08v-.4a.09.09,0,0,1,0-.06s0,0,.05,0h.62a1.22,1.22,0,0,1-.23-.29.85.85,0,0,1-.08-.35Zm.31-1.61h.55v-.55h-.55Zm.16,1.8a.4.4,0,0,0,.15.3.43.43,0,0,0,.78,0,.38.38,0,0,0,.16-.3v-.15a.51.51,0,0,0-.51-.51h-.09a.49.49,0,0,0-.35.15.52.52,0,0,0-.14.36Zm.68-1.8h.55v-.55h-.55Z"/><path class="cls-4" d="M457.89,567.09s0,0,0,0l-.06,0h-.38a.63.63,0,0,1-.19,0,.75.75,0,0,1-.18-.08.44.44,0,0,1-.15-.12.31.31,0,0,1-.09-.14.88.88,0,0,1-.28.26.79.79,0,0,1-.38.11h-.38a.07.07,0,0,1-.08-.08v-.4c0-.06,0-.08.08-.08h.41a.37.37,0,0,0,.26-.1.43.43,0,0,0,.14-.23l.19-.95.46.08-.16.8a.34.34,0,0,0,.08.27.35.35,0,0,0,.27.13h.38c.05,0,.08,0,.08.08Zm-1.35,1.31h.54v-.54h-.54Z"/><path class="cls-4" d="M461.35,566.27a.81.81,0,0,1-.07.35.92.92,0,0,1-.19.28.81.81,0,0,1-.29.19.77.77,0,0,1-.34.08h-2.65l-.06,0a.14.14,0,0,1,0-.06v-.39c0-.06,0-.08.08-.08h.37l.62-.68v-2.58h.48v1.87s0,.06,0,.09a.29.29,0,0,1,0,.09s0,.06,0,.08l0,0,0,0,0,0,0,0a1.36,1.36,0,0,1,.38-.24,1.26,1.26,0,0,1,.43-.08h.35a1,1,0,0,1,.34.07.8.8,0,0,1,.27.18,1.27,1.27,0,0,1,.18.27.88.88,0,0,1,.06.33Zm-.81.34a.35.35,0,0,0,.24-.1.33.33,0,0,0,.1-.25v-.33a.34.34,0,0,0-.36-.36h-.42a.75.75,0,0,0-.57.25l-.73.79Z"/><path class="cls-4" d="M462.65,567.47l-.17-.06-.15-.07a.91.91,0,0,1-.16-.13.4.4,0,0,1-.09-.21.88.88,0,0,1,0-.21,1.2,1.2,0,0,0,.06-.17l.25-.72.33.12-.25.74.35.13Z"/><path class="cls-4" d="M467.64,564.55a.6.6,0,0,1-.16.41.57.57,0,0,1-.42.16h-.38a.82.82,0,0,1-.35-.08.27.27,0,0,0-.54,0,.83.83,0,0,1-.36.08.66.66,0,0,1-.23,0,.36.36,0,0,1-.2-.15v2.24h-.48v-2.41a5.19,5.19,0,0,0-.1-1l-.08-.38.46-.09,0,.1c0,.06,0,.14.05.23s0,.21.06.33,0,.24.05.37a.28.28,0,0,0,.1.2.36.36,0,0,0,.26.09h.08a.37.37,0,0,0,.25-.09.37.37,0,0,0,.14-.23l.2-1,.46.09-.16.81a.33.33,0,0,0,.08.26.31.31,0,0,0,.26.12h.51v-1.31h.48Z"/><path class="cls-4" d="M471.22,564.91l-.36.05-.47.07-.51.06-.48,0-.21,0a.54.54,0,0,1-.18-.1v2.17h-.47v-2.4a4.59,4.59,0,0,0-.06-.73c0-.24-.08-.47-.13-.7l.46-.09s0,.1,0,.18,0,.15,0,.25,0,.18.05.29,0,.2,0,.31a.35.35,0,0,0,.12.21.3.3,0,0,0,.22.08h.23a.09.09,0,0,0,0,0s0-.06,0-.09,0-.12,0-.16a.59.59,0,0,0,0-.14l0-.12a.73.73,0,0,1,0-.36.72.72,0,0,1,.16-.3.71.71,0,0,1,.27-.21.77.77,0,0,1,.34-.08H471v.5h-.82a.25.25,0,0,0-.22.11.33.33,0,0,0-.05.24l.13.65.3,0,.37,0,.46-.06Z"/><path class="cls-4" d="M473.12,565.14v.9a.58.58,0,0,0,.57.57H476a.36.36,0,0,0,.26-.11.39.39,0,0,0,.11-.27v-3h.47v3a.94.94,0,0,1-.07.37,1,1,0,0,1-.2.29,1,1,0,0,1-.3.2.86.86,0,0,1-.36.08h-2.17a1,1,0,0,1-.42-.09,1,1,0,0,1-.34-.23,1.2,1.2,0,0,1-.23-.34,1.11,1.11,0,0,1-.08-.41v-1Zm.95.39,1.43-.73-.16-.32-.73.38-.08-.15-.07-.12a.2.2,0,0,1,0-.17.18.18,0,0,1,.1-.11l.44-.19-.14-.34-.44.18a.55.55,0,0,0-.3.3.54.54,0,0,0,0,.22.46.46,0,0,0,.06.23l.05.11a.31.31,0,0,0,.05.09.1.1,0,0,0,.05.06.06.06,0,0,0,0,0l-.43.21Z"/><path class="cls-4" d="M480.64,567.09s0,0,0,0l-.06,0h-.21a.87.87,0,0,1-.39-.1.84.84,0,0,1-.31-.25.86.86,0,0,1-.56.28l-1.57.23-.06-.5.61-.08-.27-3,.47-.06.26,3,.5-.07a.44.44,0,0,0,.3-.15.49.49,0,0,0,.11-.33v-2.79h.47v2.9a.32.32,0,0,0,.12.27.44.44,0,0,0,.27.09h.26c.05,0,.08,0,.08.08Z"/><path class="cls-4" d="M481.69,566.61a.36.36,0,0,0,.26-.11.38.38,0,0,0,.11-.26v-1.1h.47v1.1a1.1,1.1,0,0,1-.07.36,1,1,0,0,1-.2.29.88.88,0,0,1-.3.2.86.86,0,0,1-.36.08h-1l-.06,0s0,0,0,0v-.4a.14.14,0,0,1,0-.06.07.07,0,0,1,.06,0Zm-1.05,1.79h.54v-.55h-.54Zm.42.75h.55v-.54h-.55Zm.42-.75H482v-.55h-.54Z"/><path class="cls-4" d="M484.57,567.47l-.17-.06-.15-.07a.91.91,0,0,1-.16-.13A.4.4,0,0,1,484,567a.88.88,0,0,1,0-.21,1.2,1.2,0,0,0,.06-.17l.25-.72.33.12-.25.74.35.13Z"/><path class="cls-4" d="M487.38,567.17a.78.78,0,0,1-.35-.08.84.84,0,0,1-.27-.22.71.71,0,0,1-.15-.3.86.86,0,0,1,0-.36l.12-.64h-.3a.34.34,0,0,0-.26.12.4.4,0,0,0-.11.27v2.64h-.47V566a.94.94,0,0,1,.07-.37,1,1,0,0,1,.2-.29,1,1,0,0,1,.3-.2.86.86,0,0,1,.36-.08h1.29a1,1,0,0,1,.34.07.83.83,0,0,1,.45.45.88.88,0,0,1,.07.33v.34a.35.35,0,0,0,.11.27.34.34,0,0,0,.25.11h.4c.06,0,.08,0,.08.08v.4a.06.06,0,0,1,0,0,.07.07,0,0,1-.06,0h-.32a.71.71,0,0,1-.32-.07.6.6,0,0,1-.27-.2.41.41,0,0,1-.17.21.55.55,0,0,1-.26.06Zm-.32-.88a.25.25,0,0,0,.05.22.29.29,0,0,0,.22.1h.85v-.72a.29.29,0,0,0-.1-.23.29.29,0,0,0-.22-.09h-.67Z"/><path class="cls-4" d="M491,567.17a.76.76,0,0,1-.39-.1.88.88,0,0,1-.31-.27.77.77,0,0,1-.3.27.76.76,0,0,1-.39.1h-.16s0,0-.05,0,0,0,0,0v-.4c0-.06,0-.08.08-.08h.25a.38.38,0,0,0,.36-.38v-.93h.48v1a.34.34,0,0,0,.11.25.37.37,0,0,0,.25.1H491a.4.4,0,0,0,.26-.1.38.38,0,0,0,.15-.24l.18-.95.47.09-.16.79a.34.34,0,0,0,.08.29.37.37,0,0,0,.29.12h.08a.36.36,0,0,0,.26-.11.38.38,0,0,0,.11-.26v-1.1h.47v1.12a.39.39,0,0,0,.12.25.36.36,0,0,0,.25.1h.23c.06,0,.08,0,.08.08v.4a.06.06,0,0,1,0,0,.06.06,0,0,1-.06,0h-.15a.76.76,0,0,1-.39-.1.82.82,0,0,1-.29-.27.88.88,0,0,1-.31.27.75.75,0,0,1-.38.1.78.78,0,0,1-.37-.09.61.61,0,0,1-.27-.28.73.73,0,0,1-.3.28A.74.74,0,0,1,491,567.17Zm.47-2.46h-.54v-.54h.54Zm.41-.75h-.55v-.55h.55Zm.43.75h-.54v-.54h.54Z"/><path class="cls-4" d="M495.32,567.17a.86.86,0,0,1-.39-.09.3.3,0,0,0-.6,0,.86.86,0,0,1-.39.09h-.16a.07.07,0,0,1-.08-.08v-.4a.09.09,0,0,1,0-.06s0,0,0,0H494a.36.36,0,0,0,.26-.11.39.39,0,0,0,.11-.27v-.93h.47v.94a.33.33,0,0,0,.11.26.36.36,0,0,0,.25.11h.12a.37.37,0,0,0,.26-.1.43.43,0,0,0,.14-.23l.19-.95.47.09-.15.78a.33.33,0,0,0,.07.29.38.38,0,0,0,.28.12h.47v-1.47h.46v1.45a.55.55,0,0,1-.57.58h-.37a.64.64,0,0,1-.35-.1.28.28,0,0,0-.56,0A.81.81,0,0,1,495.32,567.17Zm.47-2.46h-.54v-.54h.54Zm.42-.75h-.55v-.55h.55Zm.43.75h-.55v-.54h.55Z"/><path class="cls-4" d="M500.15,568.17a1,1,0,0,1-.46-.1,1.13,1.13,0,0,1-.63-.63,1,1,0,0,1-.1-.46V565.4h.47v1.5a.6.6,0,0,0,.06.27.76.76,0,0,0,.15.23.51.51,0,0,0,.23.15.63.63,0,0,0,.27.06h1a.64.64,0,0,0,.23-.05.59.59,0,0,0,.19-.13.57.57,0,0,0,.12-.18.64.64,0,0,0,.05-.23V565.3h.47v1.8a1,1,0,0,1-.09.42,1,1,0,0,1-.23.34,1.06,1.06,0,0,1-.33.22,1,1,0,0,1-.42.09Zm.16-3.41h.55v.54h-.55Z"/><path class="cls-4" d="M504.15,567.09a.07.07,0,0,1-.08.08h-.2a.82.82,0,0,1-.35-.08,1,1,0,0,1-.3-.19.85.85,0,0,1-.19-.3.84.84,0,0,1-.07-.35v-2.9h.46v2.89a.38.38,0,0,0,.11.26.36.36,0,0,0,.26.11h.28a.07.07,0,0,1,.06,0,.14.14,0,0,1,0,.06Z"/><path class="cls-4" d="M504.86,566.61a.38.38,0,0,0,.37-.37v-1.1h.46v1.1a.89.89,0,0,1-.07.36,1,1,0,0,1-.19.29,1,1,0,0,1-.3.2.86.86,0,0,1-.36.08h-.7l-.06,0s0,0,0,0v-.4a.14.14,0,0,1,0-.06.07.07,0,0,1,.06,0Zm-.67,1.24h.54v.55h-.54Z"/><path class="cls-4" d="M507.63,567.09a.07.07,0,0,1-.08.08h-.2a.86.86,0,0,1-.36-.08.81.81,0,0,1-.29-.19.92.92,0,0,1-.27-.65v-2.9h.47v2.89a.38.38,0,0,0,.11.26.36.36,0,0,0,.26.11h.28s0,0,.05,0a.09.09,0,0,1,0,.06Z"/><path class="cls-4" d="M509.66,567.09s0,0,0,0a.05.05,0,0,1-.05,0h-.39l-.18,0-.19-.08-.15-.12a.42.42,0,0,1-.09-.14.71.71,0,0,1-.28.26.76.76,0,0,1-.38.11h-.37c-.06,0-.08,0-.08-.08v-.4c0-.06,0-.08.08-.08h.4a.35.35,0,0,0,.26-.1.37.37,0,0,0,.14-.23l.2-.95.46.08-.16.8a.3.3,0,0,0,.08.27.35.35,0,0,0,.27.13h.38c.05,0,.08,0,.08.08Zm-1.78,1.31h.54v-.55h-.54Zm.83,0h.55v-.55h-.55Z"/><path class="cls-4" d="M509.5,566.69c0-.06,0-.08.08-.08h1a1.54,1.54,0,0,0,.52-.09,1.21,1.21,0,0,0,.43-.27l.45-.43.09-.08-1.31-.39a.2.2,0,0,0-.17,0,.28.28,0,0,0-.1.14l-.17.49-.42-.11.14-.48a.72.72,0,0,1,.14-.26.76.76,0,0,1,.22-.18.77.77,0,0,1,.27-.08.67.67,0,0,1,.28,0l2.23.67L513,566l-.24-.08a.38.38,0,0,0-.26,0l-.2.15-.66.62a1.51,1.51,0,0,1-.54.33,2.13,2.13,0,0,1-.62.12h-.89a.07.07,0,0,1-.06,0s0,0,0,0Zm.95-2.43H511v-.54h-.54Z"/><path class="cls-4" d="M135.53,556.32v2.54a.89.89,0,0,0,.23.68,1.08,1.08,0,0,0,1.33,0,.89.89,0,0,0,.24-.68v-2.54H138v2.53a1.54,1.54,0,0,1-.21.82,1.32,1.32,0,0,1-.57.5,1.85,1.85,0,0,1-.78.17,1.79,1.79,0,0,1-.78-.17,1.29,1.29,0,0,1-.56-.5,1.54,1.54,0,0,1-.21-.82v-2.53Z"/><path class="cls-4" d="M141.05,557.25a1.13,1.13,0,0,1,.46.46,1.49,1.49,0,0,1,.16.73v1.86H141v-1.76a.87.87,0,0,0-.22-.65.83.83,0,0,0-1.15,0,.87.87,0,0,0-.22.65v1.76h-.65v-3.15h.65v.36a1.27,1.27,0,0,1,.41-.31,1.35,1.35,0,0,1,.53-.1A1.47,1.47,0,0,1,141.05,557.25Z"/><path class="cls-4" d="M142.5,556.61a.41.41,0,0,1-.12-.3.38.38,0,0,1,.12-.29.38.38,0,0,1,.3-.13.37.37,0,0,1,.29.13.38.38,0,0,1,.12.29.41.41,0,0,1-.12.3.4.4,0,0,1-.29.12A.41.41,0,0,1,142.5,556.61Zm.62.54v3.15h-.65v-3.15Z"/><path class="cls-4" d="M144.7,557.68v1.74a.33.33,0,0,0,.09.26.41.41,0,0,0,.28.08h.4v.54H145a1,1,0,0,1-.68-.21.83.83,0,0,1-.23-.67v-1.74h-.38v-.53h.38v-.79h.65v.79h.77v.53Z"/><path class="cls-4" d="M147.51,557.18a1,1,0,0,1,.16-.56,1,1,0,0,1,.46-.41,2,2,0,0,1,1.51,0,1,1,0,0,1,.46.41,1,1,0,0,1,.16.56,1,1,0,0,1-.17.56,1,1,0,0,1-.43.38,1.08,1.08,0,0,1,.52.39,1.15,1.15,0,0,1,.19.64,1.22,1.22,0,0,1-.19.66,1.28,1.28,0,0,1-.53.44,2,2,0,0,1-1.53,0,1.25,1.25,0,0,1-.52-.44,1.14,1.14,0,0,1-.19-.66,1.05,1.05,0,0,1,.19-.64,1,1,0,0,1,.51-.39A1,1,0,0,1,147.51,557.18Zm.76,1.41a.64.64,0,0,0-.24.54.7.7,0,0,0,.23.53.92.92,0,0,0,.62.2.88.88,0,0,0,.62-.21.66.66,0,0,0,.22-.52.65.65,0,0,0-.23-.54.94.94,0,0,0-.61-.18A1,1,0,0,0,148.27,558.59Zm1.16-1.82a.82.82,0,0,0-.55-.17.83.83,0,0,0-.54.17.63.63,0,0,0-.2.5.57.57,0,0,0,.21.46.79.79,0,0,0,.53.18.8.8,0,0,0,.54-.18.59.59,0,0,0,.21-.47A.59.59,0,0,0,149.43,556.77Z"/><path class="cls-4" d="M151.82,559.52l-.69,1.57h-.43l.41-1.57Z"/><path class="cls-4" d="M154.12,556.33a1.68,1.68,0,0,1,1.65-.15,1,1,0,0,1,.44.38,1.07,1.07,0,0,1,.15.56.92.92,0,0,1-.19.6.9.9,0,0,1-.45.34v0a.9.9,0,0,1,.52.37,1.15,1.15,0,0,1,.19.69,1.23,1.23,0,0,1-.15.61,1.09,1.09,0,0,1-.46.41,1.61,1.61,0,0,1-.73.15,1.51,1.51,0,0,1-1-.32,1.15,1.15,0,0,1-.43-.91h.63a.77.77,0,0,0,.24.5.85.85,0,0,0,.57.19.77.77,0,0,0,.54-.19.72.72,0,0,0,.19-.5.64.64,0,0,0-.26-.57,1.46,1.46,0,0,0-.78-.17h-.15v-.53h.16a1.45,1.45,0,0,0,.7-.16.51.51,0,0,0,.25-.47.54.54,0,0,0-.18-.43.73.73,0,0,0-.51-.17.69.69,0,0,0-.49.17.61.61,0,0,0-.21.4h-.64A1.08,1.08,0,0,1,154.12,556.33Z"/><path class="cls-4" d="M158.2,557.23a1.14,1.14,0,0,1,.57-.13v.67h-.17a.78.78,0,0,0-.58.2.91.91,0,0,0-.2.67v1.66h-.65v-3.15h.65v.45A1,1,0,0,1,158.2,557.23Z"/><path class="cls-4" d="M159.31,557.87a1.35,1.35,0,0,1,.54-.57,1.42,1.42,0,0,1,.76-.2,1.49,1.49,0,0,1,.61.13,1.16,1.16,0,0,1,.47.36v-1.52h.66v4.23h-.66v-.48a1.1,1.1,0,0,1-.44.38,1.36,1.36,0,0,1-.65.15,1.42,1.42,0,0,1-.75-.21,1.44,1.44,0,0,1-.54-.58,1.81,1.81,0,0,1-.2-.85A1.74,1.74,0,0,1,159.31,557.87Zm2.25.28a.93.93,0,0,0-.35-.36.91.91,0,0,0-.94,0,.93.93,0,0,0-.35.36,1.08,1.08,0,0,0-.14.56,1.15,1.15,0,0,0,.14.57,1.07,1.07,0,0,0,.35.38,1,1,0,0,0,.47.12,1,1,0,0,0,.47-.12,1,1,0,0,0,.35-.37,1.31,1.31,0,0,0,0-1.14Z"/><path class="cls-4" d="M167,556.32v.54h-1.69V558h1.32v.53h-1.32v1.74h-.65v-4Z"/><path class="cls-4" d="M168.19,556.07v4.23h-.65v-4.23Z"/><path class="cls-4" d="M169.57,560.15a1.53,1.53,0,0,1-.56-.57,1.74,1.74,0,0,1-.21-.86,1.7,1.7,0,0,1,.21-.85,1.51,1.51,0,0,1,.58-.57,1.78,1.78,0,0,1,1.64,0,1.51,1.51,0,0,1,.58.57,1.79,1.79,0,0,1,0,1.7,1.56,1.56,0,0,1-.59.58,1.78,1.78,0,0,1-.83.2A1.68,1.68,0,0,1,169.57,560.15Zm1.28-.49a.89.89,0,0,0,.36-.36,1.16,1.16,0,0,0,.14-.58,1.27,1.27,0,0,0-.13-.58.93.93,0,0,0-.35-.36,1,1,0,0,0-.94,0,.91.91,0,0,0-.34.36,1.28,1.28,0,0,0-.12.58,1.09,1.09,0,0,0,.26.79.86.86,0,0,0,.65.27A.94.94,0,0,0,170.85,559.66Z"/><path class="cls-4" d="M173.19,560.15a1.56,1.56,0,0,1-.57-.57,1.85,1.85,0,0,1-.2-.86,1.7,1.7,0,0,1,.21-.85,1.39,1.39,0,0,1,.58-.57,1.57,1.57,0,0,1,.81-.2,1.61,1.61,0,0,1,.82.2,1.39,1.39,0,0,1,.58.57,1.7,1.7,0,0,1,.21.85,1.61,1.61,0,0,1-.22.85,1.5,1.5,0,0,1-.59.58,1.74,1.74,0,0,1-.82.2A1.68,1.68,0,0,1,173.19,560.15Zm1.28-.49a.93.93,0,0,0,.35-.36,1.06,1.06,0,0,0,.14-.58,1.16,1.16,0,0,0-.13-.58.87.87,0,0,0-.35-.36.94.94,0,0,0-.47-.12.9.9,0,0,0-.46.12.79.79,0,0,0-.34.36,1.16,1.16,0,0,0-.13.58,1.14,1.14,0,0,0,.26.79.87.87,0,0,0,.66.27A1,1,0,0,0,174.47,559.66Z"/><path class="cls-4" d="M177.27,557.23a1.14,1.14,0,0,1,.57-.13v.67h-.17a.8.8,0,0,0-.58.2.91.91,0,0,0-.2.67v1.66h-.65v-3.15h.65v.45A1.12,1.12,0,0,1,177.27,557.23Z"/><path class="cls-4" d="M179.12,559.52l-.69,1.57H178l.41-1.57Z"/><path class="cls-4" d="M183,556.7a.73.73,0,0,0-.47-.13.75.75,0,0,0-.67.35,2.25,2.25,0,0,0-.24,1.14,1,1,0,0,1,.44-.39,1.44,1.44,0,0,1,.62-.13,1.29,1.29,0,0,1,.66.16,1.13,1.13,0,0,1,.45.47,1.56,1.56,0,0,1,.17.74,1.61,1.61,0,0,1-.16.71,1.13,1.13,0,0,1-.47.5,1.42,1.42,0,0,1-.74.18,1.48,1.48,0,0,1-.92-.26,1.36,1.36,0,0,1-.47-.74,4.33,4.33,0,0,1-.14-1.18c0-1.4.5-2.09,1.48-2.09a1.25,1.25,0,0,1,.9.31,1.2,1.2,0,0,1,.39.76h-.6A.75.75,0,0,0,183,556.7ZM182,558.29a.76.76,0,0,0-.24.61.79.79,0,0,0,.86.86.75.75,0,0,0,.57-.23.86.86,0,0,0,.2-.59.87.87,0,0,0-.2-.62.72.72,0,0,0-.6-.23A.86.86,0,0,0,182,558.29Z"/><path class="cls-4" d="M185.51,557.68v1.74a.33.33,0,0,0,.08.26.43.43,0,0,0,.28.08h.4v.54h-.51a1,1,0,0,1-.68-.21.86.86,0,0,1-.23-.67v-1.74h-.37v-.53h.37v-.79h.66v.79h.76v.53Z"/><path class="cls-4" d="M189.11,557.25a1.11,1.11,0,0,1,.45.46,1.49,1.49,0,0,1,.16.73v1.86h-.64v-1.76a.87.87,0,0,0-.22-.65.83.83,0,0,0-1.15,0,.87.87,0,0,0-.22.65v1.76h-.65v-4.23h.65v1.44a1.21,1.21,0,0,1,.42-.31,1.47,1.47,0,0,1,.56-.1A1.34,1.34,0,0,1,189.11,557.25Z"/><path class="cls-4" d="M192.56,560.2a1.19,1.19,0,0,1-.5-.4,1,1,0,0,1-.19-.6h.7a.64.64,0,0,0,.2.42.73.73,0,0,0,.51.17.8.8,0,0,0,.53-.16.54.54,0,0,0,.18-.42.49.49,0,0,0-.11-.33.77.77,0,0,0-.3-.19,2.77,2.77,0,0,0-.48-.15,4.6,4.6,0,0,1-.63-.21,1,1,0,0,1-.41-.33.93.93,0,0,1-.18-.6,1.06,1.06,0,0,1,.18-.6,1,1,0,0,1,.48-.39,1.73,1.73,0,0,1,.71-.14,1.51,1.51,0,0,1,.95.29,1.1,1.1,0,0,1,.41.79h-.72a.54.54,0,0,0-.21-.37.78.78,0,0,0-.5-.15.7.7,0,0,0-.46.14.52.52,0,0,0-.17.41.4.4,0,0,0,.11.3.82.82,0,0,0,.28.19l.47.15a4.8,4.8,0,0,1,.64.21,1.18,1.18,0,0,1,.43.34,1,1,0,0,1,.17.6,1.07,1.07,0,0,1-.16.57,1.21,1.21,0,0,1-.48.44,1.64,1.64,0,0,1-.73.16A1.81,1.81,0,0,1,192.56,560.2Z"/><path class="cls-4" d="M196.15,557.68v1.74a.37.37,0,0,0,.08.26.44.44,0,0,0,.29.08h.4v.54h-.52a1,1,0,0,1-.67-.21.83.83,0,0,1-.24-.67v-1.74h-.37v-.53h.37v-.79h.66v.79h.77v.53Z"/><path class="cls-4" d="M197.45,560.22a.42.42,0,0,1,.3-.72.4.4,0,0,1,.29.12.44.44,0,0,1,0,.6.4.4,0,0,1-.29.12A.41.41,0,0,1,197.45,560.22Z"/><path class="cls-4" d="M199.54,559.52l-.69,1.57h-.42l.4-1.57Z"/><path class="cls-4" d="M203.72,560.3l-1.54-1.78v1.78h-.65v-4h.65v1.82l1.55-1.82h.82l-1.73,2,1.75,2Z"/><path class="cls-4" d="M205.1,557.87a1.39,1.39,0,0,1,.53-.57,1.42,1.42,0,0,1,.76-.2,1.38,1.38,0,0,1,.65.14,1.44,1.44,0,0,1,.44.36v-.45h.66v3.15h-.66v-.47a1.28,1.28,0,0,1-.45.37,1.46,1.46,0,0,1-1.4-.06,1.49,1.49,0,0,1-.53-.58,1.81,1.81,0,0,1-.2-.85A1.74,1.74,0,0,1,205.1,557.87Zm2.24.28a.87.87,0,0,0-.35-.36.85.85,0,0,0-.47-.13.9.9,0,0,0-.47.13.93.93,0,0,0-.35.36,1.08,1.08,0,0,0-.13.56,1.14,1.14,0,0,0,.13.57,1,1,0,0,0,.36.38.93.93,0,0,0,.46.12.94.94,0,0,0,.47-.12,1,1,0,0,0,.35-.37,1.23,1.23,0,0,0,0-1.14Z"/><path class="cls-4" d="M209.61,560.92a.89.89,0,0,1-.23.67,1,1,0,0,1-.67.21h-.34v-.55h.22a.44.44,0,0,0,.29-.08.36.36,0,0,0,.08-.25v-3.77h.65Zm-.62-4.31a.41.41,0,0,1-.12-.3A.38.38,0,0,1,209,556a.38.38,0,0,1,.3-.13.36.36,0,0,1,.29.13.38.38,0,0,1,.12.29.41.41,0,0,1-.12.3.38.38,0,0,1-.29.12A.41.41,0,0,1,209,556.61Z"/><path class="cls-4" d="M212.48,560.2a1.29,1.29,0,0,1-.51-.4,1,1,0,0,1-.18-.6h.7a.6.6,0,0,0,.2.42.73.73,0,0,0,.51.17.75.75,0,0,0,.52-.16.52.52,0,0,0,.19-.42.49.49,0,0,0-.11-.33.77.77,0,0,0-.3-.19,2.77,2.77,0,0,0-.48-.15,4.6,4.6,0,0,1-.63-.21A1.1,1.1,0,0,1,212,558a1,1,0,0,1-.17-.6,1.13,1.13,0,0,1,.17-.6,1.15,1.15,0,0,1,.48-.39,1.81,1.81,0,0,1,.72-.14,1.53,1.53,0,0,1,1,.29,1.06,1.06,0,0,1,.4.79h-.72a.53.53,0,0,0-.2-.37.78.78,0,0,0-.5-.15.68.68,0,0,0-.46.14.49.49,0,0,0-.17.41.4.4,0,0,0,.11.3.82.82,0,0,0,.28.19l.47.15a4.8,4.8,0,0,1,.64.21,1.18,1.18,0,0,1,.43.34,1,1,0,0,1,.17.6,1.07,1.07,0,0,1-.16.57,1.21,1.21,0,0,1-.48.44,1.67,1.67,0,0,1-.73.16A1.81,1.81,0,0,1,212.48,560.2Z"/><path class="cls-4" d="M215.29,557.87a1.43,1.43,0,0,1,1.29-.77,1.48,1.48,0,0,1,.65.14,1.24,1.24,0,0,1,.44.36v-.45h.66v4.65h-.66v-2a1.19,1.19,0,0,1-.45.36,1.4,1.4,0,0,1-.66.15,1.36,1.36,0,0,1-.74-.21,1.49,1.49,0,0,1-.53-.58,1.81,1.81,0,0,1-.2-.85A1.74,1.74,0,0,1,215.29,557.87Zm2.25.28a.89.89,0,0,0-.36-.36.85.85,0,0,0-.47-.13.84.84,0,0,0-.46.13.89.89,0,0,0-.36.36,1.08,1.08,0,0,0-.13.56,1.14,1.14,0,0,0,.13.57,1,1,0,0,0,.36.38,1,1,0,0,0,.46.12.94.94,0,0,0,.47-.12,1,1,0,0,0,.36-.37,1.31,1.31,0,0,0,0-1.14Z"/><path class="cls-4" d="M222,557.15v3.15h-.65v-.37a.94.94,0,0,1-.4.3,1.2,1.2,0,0,1-.53.11,1.47,1.47,0,0,1-.67-.15,1.13,1.13,0,0,1-.46-.46,1.49,1.49,0,0,1-.17-.73v-1.85h.65v1.75a.91.91,0,0,0,.21.65.75.75,0,0,0,.58.23.77.77,0,0,0,.58-.23.91.91,0,0,0,.21-.65v-1.75Z"/><path class="cls-4" d="M222.81,557.87a1.5,1.5,0,0,1,1.94-.63,1.44,1.44,0,0,1,.44.36v-.45h.66v3.15h-.66v-.47a1.28,1.28,0,0,1-.45.37,1.38,1.38,0,0,1-.65.15,1.42,1.42,0,0,1-.75-.21,1.49,1.49,0,0,1-.53-.58,1.81,1.81,0,0,1-.2-.85A1.74,1.74,0,0,1,222.81,557.87Zm2.25.28a.89.89,0,0,0-.36-.36.85.85,0,0,0-.47-.13.84.84,0,0,0-.46.13.89.89,0,0,0-.36.36,1.08,1.08,0,0,0-.13.56,1.14,1.14,0,0,0,.13.57,1,1,0,0,0,.36.38,1,1,0,0,0,.46.12.94.94,0,0,0,.47-.12,1,1,0,0,0,.36-.37,1.31,1.31,0,0,0,0-1.14Z"/><path class="cls-4" d="M227.7,557.23a1.14,1.14,0,0,1,.57-.13v.67h-.17a.8.8,0,0,0-.58.2.91.91,0,0,0-.2.67v1.66h-.65v-3.15h.65v.45A1.12,1.12,0,0,1,227.7,557.23Z"/><path class="cls-4" d="M231.7,559h-2.41a.85.85,0,0,0,.28.6.9.9,0,0,0,.62.23.76.76,0,0,0,.74-.44h.71a1.42,1.42,0,0,1-.52.71,1.49,1.49,0,0,1-.93.28,1.68,1.68,0,0,1-.81-.2,1.46,1.46,0,0,1-.56-.57,1.73,1.73,0,0,1-.2-.86,1.78,1.78,0,0,1,.19-.85,1.34,1.34,0,0,1,.56-.57,1.58,1.58,0,0,1,.82-.2,1.57,1.57,0,0,1,.79.19,1.33,1.33,0,0,1,.55.55,1.62,1.62,0,0,1,.19.81C231.72,558.76,231.71,558.87,231.7,559Zm-.66-.53a.74.74,0,0,0-.26-.58.94.94,0,0,0-.62-.22.85.85,0,0,0-.58.22.89.89,0,0,0-.28.58Z"/><path class="cls-4" d="M135.47,567.06a1.13,1.13,0,0,1-.51-.4,1,1,0,0,1-.18-.6h.7a.62.62,0,0,0,.2.43.73.73,0,0,0,.51.16.75.75,0,0,0,.52-.16.56.56,0,0,0,.08-.75.77.77,0,0,0-.3-.19,2.77,2.77,0,0,0-.48-.15,4.6,4.6,0,0,1-.63-.21,1.1,1.1,0,0,1-.42-.33,1,1,0,0,1-.17-.59,1.08,1.08,0,0,1,.17-.6,1.14,1.14,0,0,1,.49-.4,1.73,1.73,0,0,1,.71-.13,1.53,1.53,0,0,1,1,.28,1.12,1.12,0,0,1,.41.8h-.73a.55.55,0,0,0-.2-.38.78.78,0,0,0-.5-.15.74.74,0,0,0-.46.14.53.53,0,0,0-.17.41.37.37,0,0,0,.11.3.82.82,0,0,0,.28.19,3.3,3.3,0,0,0,.47.15,3.61,3.61,0,0,1,.64.22,1.06,1.06,0,0,1,.43.33,1,1,0,0,1,.17.6,1.08,1.08,0,0,1-.16.58,1.19,1.19,0,0,1-.48.43,1.51,1.51,0,0,1-.73.16A1.81,1.81,0,0,1,135.47,567.06Z"/><path class="cls-4" d="M138.28,564.73a1.48,1.48,0,0,1,.54-.57,1.45,1.45,0,0,1,.75-.2,1.48,1.48,0,0,1,.65.14,1.34,1.34,0,0,1,.44.37V564h.66v3.15h-.66v-.47a1.28,1.28,0,0,1-.45.37,1.38,1.38,0,0,1-.65.15,1.42,1.42,0,0,1-.75-.21,1.49,1.49,0,0,1-.53-.58,1.81,1.81,0,0,1-.2-.85A1.74,1.74,0,0,1,138.28,564.73Zm2.25.29a.92.92,0,0,0-.36-.37.9.9,0,0,0-.93,0,.81.81,0,0,0-.35.36,1.11,1.11,0,0,0-.14.56,1.15,1.15,0,0,0,.14.57.86.86,0,0,0,.35.38,1,1,0,0,0,.47.13.94.94,0,0,0,.46-.13.92.92,0,0,0,.36-.37,1.14,1.14,0,0,0,.13-.57A1.13,1.13,0,0,0,140.53,565Z"/><path class="cls-4" d="M142.5,562.6l-.07,1.18H142l-.07-1.18Z"/><path class="cls-4" d="M143.07,564.73a1.48,1.48,0,0,1,.54-.57,1.5,1.5,0,0,1,.75-.2,1.48,1.48,0,0,1,.65.14,1.34,1.34,0,0,1,.44.37V564h.66v3.15h-.66v-.47a1.28,1.28,0,0,1-.45.37,1.38,1.38,0,0,1-.65.15,1.36,1.36,0,0,1-.74-.21,1.44,1.44,0,0,1-.54-.58,1.81,1.81,0,0,1-.2-.85A1.74,1.74,0,0,1,143.07,564.73Zm2.25.29a1,1,0,0,0-.35-.37,1,1,0,0,0-.47-.13,1,1,0,0,0-.47.13.87.87,0,0,0-.35.36,1.11,1.11,0,0,0-.14.56,1.15,1.15,0,0,0,.14.57,1,1,0,0,0,.35.38.91.91,0,0,0,.94,0,1,1,0,0,0,.35-.37,1.14,1.14,0,0,0,.13-.57A1.13,1.13,0,0,0,145.32,565Z"/><path class="cls-4" d="M146.91,564.73a1.56,1.56,0,0,1,.54-.57,1.51,1.51,0,0,1,.76-.2,1.46,1.46,0,0,1,.61.13,1.27,1.27,0,0,1,.48.36v-1.52H150v4.23h-.65v-.47a1.28,1.28,0,0,1-.45.37,1.36,1.36,0,0,1-.65.15,1.42,1.42,0,0,1-.75-.21,1.51,1.51,0,0,1-.54-.58,1.8,1.8,0,0,1-.19-.85A1.74,1.74,0,0,1,146.91,564.73Zm2.25.29a1,1,0,0,0-.35-.37.91.91,0,0,0-.94,0,.93.93,0,0,0-.35.36,1.1,1.1,0,0,0-.13.56,1.14,1.14,0,0,0,.13.57,1,1,0,0,0,.35.38,1,1,0,0,0,.47.13,1,1,0,0,0,.47-.13,1,1,0,0,0,.35-.37,1.21,1.21,0,0,0,0-1.13Z"/><path class="cls-4" d="M150.76,564.73a1.53,1.53,0,0,1,.53-.57,1.56,1.56,0,0,1,1.41-.06,1.34,1.34,0,0,1,.44.37V564h.66v3.15h-.66v-.47a1.28,1.28,0,0,1-.45.37,1.46,1.46,0,0,1-1.4-.06,1.49,1.49,0,0,1-.53-.58,1.81,1.81,0,0,1-.2-.85A1.74,1.74,0,0,1,150.76,564.73ZM153,565a.84.84,0,0,0-.35-.37.9.9,0,0,0-.93,0,.89.89,0,0,0-.36.36,1.1,1.1,0,0,0-.13.56,1.14,1.14,0,0,0,.13.57.91.91,0,0,0,1.29.38.84.84,0,0,0,.35-.37,1.21,1.21,0,0,0,0-1.13Z"/><path class="cls-4" d="M155.38,564.54v1.75a.36.36,0,0,0,.08.25.44.44,0,0,0,.29.08h.4v.54h-.52a1,1,0,0,1-.67-.2.86.86,0,0,1-.24-.67v-1.75h-.37V564h.37v-.78h.66V564h.77v.53Z"/><path class="cls-4" d="M160.56,566.35H158.9l-.29.81h-.68l1.43-4h.75l1.42,4h-.68Zm-.18-.53-.65-1.85-.65,1.85Z"/><path class="cls-4" d="M163.22,564.1a1.55,1.55,0,0,1,.65-.14,1.45,1.45,0,0,1,.75.2,1.33,1.33,0,0,1,.53.57,1.74,1.74,0,0,1,.2.84,1.81,1.81,0,0,1-.2.85,1.42,1.42,0,0,1-1.28.79,1.48,1.48,0,0,1-.65-.14,1.28,1.28,0,0,1-.45-.37v.46h-.65v-4.23h.65v1.55A1.3,1.3,0,0,1,163.22,564.1Zm1.33.91a.93.93,0,0,0-.35-.36,1,1,0,0,0-.48-.13,1,1,0,0,0-.46.13.92.92,0,0,0-.36.37,1.13,1.13,0,0,0-.13.56,1.14,1.14,0,0,0,.13.57.92.92,0,0,0,.36.37,1,1,0,0,0,.46.13,1,1,0,0,0,.48-.13,1,1,0,0,0,.35-.38,1.15,1.15,0,0,0,.14-.57A1.11,1.11,0,0,0,164.55,565Z"/><path class="cls-4" d="M165.94,564.73a1.48,1.48,0,0,1,.54-.57,1.5,1.5,0,0,1,.75-.2,1.48,1.48,0,0,1,.65.14,1.34,1.34,0,0,1,.44.37V564H169v3.15h-.66v-.47a1.28,1.28,0,0,1-.45.37,1.38,1.38,0,0,1-.65.15,1.36,1.36,0,0,1-.74-.21,1.44,1.44,0,0,1-.54-.58,1.81,1.81,0,0,1-.2-.85A1.74,1.74,0,0,1,165.94,564.73Zm2.25.29a1,1,0,0,0-.35-.37,1,1,0,0,0-.47-.13,1,1,0,0,0-.47.13.87.87,0,0,0-.35.36,1.11,1.11,0,0,0-.14.56,1.15,1.15,0,0,0,.14.57.92.92,0,0,0,.35.38.91.91,0,0,0,.94,0,1,1,0,0,0,.35-.37,1.14,1.14,0,0,0,.13-.57A1.13,1.13,0,0,0,168.19,565Z"/><path class="cls-4" d="M169.78,564.73a1.56,1.56,0,0,1,.54-.57,1.51,1.51,0,0,1,.76-.2,1.49,1.49,0,0,1,.61.13,1.27,1.27,0,0,1,.48.36v-1.52h.65v4.23h-.65v-.47a1.28,1.28,0,0,1-.45.37,1.36,1.36,0,0,1-.65.15,1.42,1.42,0,0,1-.75-.21,1.51,1.51,0,0,1-.54-.58,1.8,1.8,0,0,1-.19-.85A1.74,1.74,0,0,1,169.78,564.73ZM172,565a1,1,0,0,0-.35-.37.91.91,0,0,0-.94,0,.93.93,0,0,0-.35.36,1.1,1.1,0,0,0-.13.56,1.14,1.14,0,0,0,.13.57,1,1,0,0,0,.35.38,1,1,0,0,0,.47.13,1,1,0,0,0,.47-.13,1,1,0,0,0,.35-.37,1.21,1.21,0,0,0,0-1.13Z"/><path class="cls-4" d="M177.5,566.35h-1.67l-.28.81h-.69l1.43-4H177l1.43,4h-.69Zm-.19-.53-.64-1.85-.66,1.85Z"/><path class="cls-4" d="M180.27,566.58l.89-2.57h.69l-1.2,3.15h-.78L178.68,564h.7Z"/><path class="cls-4" d="M185.18,565.83h-2.41a.87.87,0,0,0,.9.83.75.75,0,0,0,.74-.44h.7a1.41,1.41,0,0,1-.51.72,1.74,1.74,0,0,1-1.74.07,1.46,1.46,0,0,1-.56-.57,1.71,1.71,0,0,1-.21-.86,1.78,1.78,0,0,1,.2-.85,1.34,1.34,0,0,1,.56-.57,1.66,1.66,0,0,1,.82-.2,1.59,1.59,0,0,1,.79.19,1.36,1.36,0,0,1,.54.55,1.62,1.62,0,0,1,.2.81A3,3,0,0,1,185.18,565.83Zm-.66-.53a.77.77,0,0,0-.26-.58.93.93,0,0,0-.62-.21.84.84,0,0,0-.58.21.9.9,0,0,0-.29.58Z"/><path class="cls-4" d="M185.77,567.08a.41.41,0,0,1-.12-.3.4.4,0,0,1,.12-.29.41.41,0,0,1,.3-.12.41.41,0,0,1,.41.41.41.41,0,0,1-.12.3.4.4,0,0,1-.29.12A.41.41,0,0,1,185.77,567.08Z"/><path class="cls-4" d="M191,564.82v.55h-2.35v-.55Z"/><path class="cls-4" d="M195.93,563.19v.53h-1.05v3.44h-.66v-3.44h-1.06v-.53Z"/><path class="cls-4" d="M199.42,565.83H197a.89.89,0,0,0,.28.6.87.87,0,0,0,.62.23.77.77,0,0,0,.75-.44h.7a1.49,1.49,0,0,1-.52.72,1.55,1.55,0,0,1-.93.27,1.57,1.57,0,0,1-.81-.2,1.53,1.53,0,0,1-.56-.57,1.82,1.82,0,0,1-.2-.86,1.67,1.67,0,0,1,.2-.85,1.32,1.32,0,0,1,.55-.57,1.69,1.69,0,0,1,.82-.2,1.63,1.63,0,0,1,.8.19,1.36,1.36,0,0,1,.54.55,2,2,0,0,1,.17,1.13Zm-.66-.53a.76.76,0,0,0-.25-.58,1,1,0,0,0-.63-.21.84.84,0,0,0-.57.21.9.9,0,0,0-.29.58Z"/><path class="cls-4" d="M202.32,564.11a1.17,1.17,0,0,1,.45.46,1.51,1.51,0,0,1,.16.73v1.86h-.64V565.4a.88.88,0,0,0-.22-.65.83.83,0,0,0-1.15,0,.88.88,0,0,0-.22.65v1.76h-.65v-4.23h.65v1.45a1,1,0,0,1,.42-.31,1.46,1.46,0,0,1,1.2,0Z"/><path class="cls-4" d="M204.76,564.09a1.13,1.13,0,0,1,.56-.13v.67h-.16a.78.78,0,0,0-.58.2.92.92,0,0,0-.2.67v1.66h-.65V564h.65v.46A1,1,0,0,1,204.76,564.09Z"/><path class="cls-4" d="M205.87,564.73a1.48,1.48,0,0,1,.54-.57,1.45,1.45,0,0,1,.75-.2,1.48,1.48,0,0,1,.65.14,1.34,1.34,0,0,1,.44.37V564h.66v3.15h-.66v-.47a1.28,1.28,0,0,1-.45.37,1.38,1.38,0,0,1-.65.15,1.42,1.42,0,0,1-.75-.21,1.49,1.49,0,0,1-.53-.58,1.81,1.81,0,0,1-.2-.85A1.74,1.74,0,0,1,205.87,564.73Zm2.25.29a1,1,0,0,0-.35-.37,1,1,0,0,0-.47-.13,1,1,0,0,0-.47.13.87.87,0,0,0-.35.36,1.11,1.11,0,0,0-.14.56,1.15,1.15,0,0,0,.14.57.92.92,0,0,0,.35.38,1,1,0,0,0,.47.13,1,1,0,0,0,.47-.13,1,1,0,0,0,.35-.37,1.14,1.14,0,0,0,.13-.57A1.13,1.13,0,0,0,208.12,565Z"/><path class="cls-4" d="M212,564.11a1.2,1.2,0,0,1,.46.46,1.51,1.51,0,0,1,.16.73v1.86H212V565.4a.92.92,0,0,0-.21-.65.85.85,0,0,0-1.16,0,.93.93,0,0,0-.22.65v1.76h-.65V564h.65v.36a1.12,1.12,0,0,1,.41-.3,1.23,1.23,0,0,1,.53-.11A1.47,1.47,0,0,1,212,564.11Z"/><path class="cls-4" d="M287.39,556.61a1.49,1.49,0,0,1,2.31,0,3.83,3.83,0,0,1,0,3.11,1.46,1.46,0,0,1-2.31,0,3.83,3.83,0,0,1,0-3.11Zm1.94.77a1.08,1.08,0,0,0-.24-.53.7.7,0,0,0-.54-.2.73.73,0,0,0-.55.2,1.08,1.08,0,0,0-.24.53,4.26,4.26,0,0,0-.06.78,4.62,4.62,0,0,0,.06.81,1,1,0,0,0,.24.52.69.69,0,0,0,.55.2.67.67,0,0,0,.54-.2.9.9,0,0,0,.24-.52,4.62,4.62,0,0,0,.06-.81A4.26,4.26,0,0,0,289.33,557.38Z"/><path class="cls-4" d="M291,559.41q.56-.46.87-.78a3.46,3.46,0,0,0,.53-.64,1.22,1.22,0,0,0,.21-.66.81.81,0,0,0-.16-.54.63.63,0,0,0-.51-.19.68.68,0,0,0-.53.21.9.9,0,0,0-.19.58h-.63a1.33,1.33,0,0,1,.39-1,1.51,1.51,0,0,1,1.93,0,1.23,1.23,0,0,1,.35.91,1.58,1.58,0,0,1-.21.79,3.15,3.15,0,0,1-.5.68c-.19.2-.44.44-.73.7l-.26.23h1.81v.54h-2.78v-.47Z"/><path class="cls-4" d="M293.86,556.72v-.59h1.19v4.17h-.66v-3.58Z"/><path class="cls-4" d="M297.27,559.43v-.49l1.92-2.76H300v2.68h.54v.57H300v.87h-.64v-.87Zm2.1-2.59-1.35,2h1.35Z"/><path class="cls-4" d="M301.41,556.33a1.49,1.49,0,0,1,1-.3,1.47,1.47,0,0,1,.69.15,1,1,0,0,1,.44.38,1.07,1.07,0,0,1,.15.56.92.92,0,0,1-.19.6.9.9,0,0,1-.45.34v0a.9.9,0,0,1,.52.37,1.15,1.15,0,0,1,.19.69,1.23,1.23,0,0,1-.15.61,1.09,1.09,0,0,1-.46.41,1.59,1.59,0,0,1-.72.15,1.54,1.54,0,0,1-1-.32,1.19,1.19,0,0,1-.43-.91h.63a.77.77,0,0,0,.24.5.85.85,0,0,0,.57.19.77.77,0,0,0,.54-.19.72.72,0,0,0,.19-.5.64.64,0,0,0-.26-.57,1.46,1.46,0,0,0-.78-.17h-.15v-.53h.16a1.42,1.42,0,0,0,.7-.16.51.51,0,0,0,.25-.47.54.54,0,0,0-.18-.43.72.72,0,0,0-.5-.17.7.7,0,0,0-.5.17.61.61,0,0,0-.21.4H301A1.08,1.08,0,0,1,301.41,556.33Z"/><path class="cls-4" d="M304.29,559.43v-.49l1.92-2.76H307v2.68h.53v.57H307v.87h-.64v-.87Zm2.1-2.59-1.35,2h1.35Z"/><path class="cls-4" d="M308.36,556.61a1.25,1.25,0,0,1,1.16-.55,1.23,1.23,0,0,1,1.15.55,3.83,3.83,0,0,1,0,3.11,1.22,1.22,0,0,1-1.15.57,1.24,1.24,0,0,1-1.16-.57,3.83,3.83,0,0,1,0-3.11Zm1.94.77a1.08,1.08,0,0,0-.24-.53.7.7,0,0,0-.54-.2.74.74,0,0,0-.55.2,1.08,1.08,0,0,0-.24.53,4.26,4.26,0,0,0-.06.78,4.62,4.62,0,0,0,.06.81,1,1,0,0,0,.24.52.69.69,0,0,0,.55.2.67.67,0,0,0,.54-.2,1,1,0,0,0,.25-.52,6,6,0,0,0,.05-.81A4.26,4.26,0,0,0,310.3,557.38Z"/><path class="cls-4" d="M315.74,556.63l-1.59,3.67h-.65l1.6-3.6H313v-.55h2.75Z"/><path class="cls-4" d="M316.6,556.61a1.48,1.48,0,0,1,2.3,0,3.73,3.73,0,0,1,0,3.11,1.45,1.45,0,0,1-2.3,0,3.73,3.73,0,0,1,0-3.11Zm1.94.77a1.08,1.08,0,0,0-.24-.53.74.74,0,0,0-.55-.2.7.7,0,0,0-.54.2,1.08,1.08,0,0,0-.24.53,4.26,4.26,0,0,0-.06.78,4.73,4.73,0,0,0,0,.81,1,1,0,0,0,.25.52.67.67,0,0,0,.54.2.7.7,0,0,0,.55-.2,1,1,0,0,0,.24-.52,4.62,4.62,0,0,0,.06-.81A4.26,4.26,0,0,0,318.54,557.38Z"/><path class="cls-4" d="M320.23,556.61a1.48,1.48,0,0,1,2.3,0,3.83,3.83,0,0,1,0,3.11,1.45,1.45,0,0,1-2.3,0,3.73,3.73,0,0,1,0-3.11Zm1.93.77a1.08,1.08,0,0,0-.24-.53.7.7,0,0,0-.54-.2.74.74,0,0,0-.55.2,1.08,1.08,0,0,0-.24.53,4.26,4.26,0,0,0-.06.78,4.62,4.62,0,0,0,.06.81,1,1,0,0,0,.24.52.7.7,0,0,0,.55.2.67.67,0,0,0,.54-.2,1,1,0,0,0,.25-.52,6,6,0,0,0,.05-.81A4.26,4.26,0,0,0,322.16,557.38Z"/><path class="cls-4" d="M323.85,556.61a1.23,1.23,0,0,1,1.15-.55,1.25,1.25,0,0,1,1.16.55,3.83,3.83,0,0,1,0,3.11,1.24,1.24,0,0,1-1.16.57,1.22,1.22,0,0,1-1.15-.57,3.83,3.83,0,0,1,0-3.11Zm1.94.77a1.08,1.08,0,0,0-.24-.53.74.74,0,0,0-.55-.2.7.7,0,0,0-.54.2,1.08,1.08,0,0,0-.24.53,4.26,4.26,0,0,0-.06.78,6,6,0,0,0,0,.81,1,1,0,0,0,.25.52.67.67,0,0,0,.54.2.69.69,0,0,0,.55-.2,1,1,0,0,0,.24-.52,4.62,4.62,0,0,0,.06-.81A4.26,4.26,0,0,0,325.79,557.38Z"/><path class="cls-4" d="M331.09,558v.55h-2.35V558Z"/><path class="cls-4" d="M334.4,559.6a.81.81,0,0,0,.51.15.63.63,0,0,0,.59-.32,2.23,2.23,0,0,0,.19-1.09.88.88,0,0,1-.38.3,1.4,1.4,0,0,1-.54.1,1.51,1.51,0,0,1-.68-.15,1.15,1.15,0,0,1-.48-.45,1.49,1.49,0,0,1-.17-.73,1.29,1.29,0,0,1,1.38-1.38,1.21,1.21,0,0,1,1.11.52,3,3,0,0,1,.33,1.59,4.93,4.93,0,0,1-.12,1.2,1.17,1.17,0,0,1-1.27.95,1.26,1.26,0,0,1-.94-.32,1.19,1.19,0,0,1-.38-.8h.6A.69.69,0,0,0,334.4,559.6Zm1-1.62a.81.81,0,0,0,.2-.57.84.84,0,0,0-.21-.61.85.85,0,0,0-1.14,0,.84.84,0,0,0-.21.59.81.81,0,0,0,.21.58.77.77,0,0,0,.61.22A.7.7,0,0,0,335.42,558Z"/><path class="cls-4" d="M336.85,556.72v-.59H338v4.17h-.66v-3.58Z"/><path class="cls-4" d="M339.23,556.61a1.48,1.48,0,0,1,2.3,0,3.73,3.73,0,0,1,0,3.11,1.45,1.45,0,0,1-2.3,0,3.73,3.73,0,0,1,0-3.11Zm1.94.77a1,1,0,0,0-.25-.53.83.83,0,0,0-1.08,0,1.08,1.08,0,0,0-.24.53,4.26,4.26,0,0,0-.06.78,4.73,4.73,0,0,0,0,.81,1,1,0,0,0,.25.52.67.67,0,0,0,.54.2.7.7,0,0,0,.55-.2,1,1,0,0,0,.24-.52,4.62,4.62,0,0,0,.06-.81A4.26,4.26,0,0,0,341.17,557.38Z"/><path class="cls-4" d="M342.85,556.61a1.25,1.25,0,0,1,1.16-.55,1.23,1.23,0,0,1,1.15.55,3.83,3.83,0,0,1,0,3.11,1.22,1.22,0,0,1-1.15.57,1.24,1.24,0,0,1-1.16-.57,3.83,3.83,0,0,1,0-3.11Zm1.94.77a1.08,1.08,0,0,0-.24-.53.7.7,0,0,0-.54-.2.74.74,0,0,0-.55.2,1.08,1.08,0,0,0-.24.53,4.26,4.26,0,0,0-.06.78,4.62,4.62,0,0,0,.06.81,1,1,0,0,0,.24.52.69.69,0,0,0,.55.2.67.67,0,0,0,.54-.2,1,1,0,0,0,.25-.52,6,6,0,0,0,.05-.81A4.26,4.26,0,0,0,344.79,557.38Z"/><path class="cls-4" d="M350.24,556.63l-1.59,3.67H348l1.6-3.6h-2.11v-.55h2.76Z"/><path class="cls-4" d="M352.77,556.7a.72.72,0,0,0-.46-.13.75.75,0,0,0-.68.35,2.16,2.16,0,0,0-.23,1.14,1,1,0,0,1,.43-.39,1.44,1.44,0,0,1,.62-.13,1.29,1.29,0,0,1,.66.16,1.16,1.16,0,0,1,.46.47,1.55,1.55,0,0,1,.16.74,1.49,1.49,0,0,1-.16.71,1.17,1.17,0,0,1-.46.5,1.71,1.71,0,0,1-1.67-.08,1.42,1.42,0,0,1-.47-.74,4.37,4.37,0,0,1-.13-1.18c0-1.4.49-2.09,1.47-2.09a1.25,1.25,0,0,1,.9.31,1.2,1.2,0,0,1,.39.76H353A.69.69,0,0,0,352.77,556.7Zm-1.06,1.59a.76.76,0,0,0-.24.61.85.85,0,0,0,.23.62.82.82,0,0,0,.63.24.75.75,0,0,0,.57-.23.82.82,0,0,0,.21-.59.88.88,0,0,0-.21-.62.71.71,0,0,0-.59-.23A.89.89,0,0,0,351.71,558.29Z"/><path class="cls-4" d="M357.07,556.69h-1.91v1.14a.86.86,0,0,1,.36-.27,1.18,1.18,0,0,1,.5-.11,1.33,1.33,0,0,1,.78.21,1.08,1.08,0,0,1,.43.52,1.79,1.79,0,0,1,0,1.41,1.23,1.23,0,0,1-.49.52,1.75,1.75,0,0,1-1.79-.12,1.27,1.27,0,0,1-.45-.82h.63a.74.74,0,0,0,.28.43,1,1,0,0,0,.55.16.73.73,0,0,0,.6-.25,1,1,0,0,0,.21-.65.86.86,0,0,0-.21-.63.78.78,0,0,0-.6-.22.74.74,0,0,0-.75.52h-.62v-2.41h2.51Z"/><path class="cls-4" d="M358.34,556.61a1.48,1.48,0,0,1,2.3,0,3.73,3.73,0,0,1,0,3.11,1.45,1.45,0,0,1-2.3,0,3.73,3.73,0,0,1,0-3.11Zm1.93.77a1.08,1.08,0,0,0-.24-.53.83.83,0,0,0-1.08,0,1,1,0,0,0-.25.53,4.26,4.26,0,0,0-.06.78,4.62,4.62,0,0,0,.06.81,1,1,0,0,0,.24.52.7.7,0,0,0,.55.2.67.67,0,0,0,.54-.2,1,1,0,0,0,.25-.52,4.73,4.73,0,0,0,.05-.81A4.26,4.26,0,0,0,360.27,557.38Z"/><path class="cls-4" d="M287.18,563.47a.4.4,0,0,1-.12-.29.41.41,0,0,1,.42-.42.4.4,0,0,1,.29.12.41.41,0,0,1,.12.3.41.41,0,0,1-.41.41A.41.41,0,0,1,287.18,563.47Zm.62.54v3.15h-.66V564Z"/><path class="cls-4" d="M290.88,564.11a1.2,1.2,0,0,1,.46.46,1.51,1.51,0,0,1,.16.73v1.86h-.64V565.4a.88.88,0,0,0-.22-.65.83.83,0,0,0-1.15,0,.88.88,0,0,0-.22.65v1.76h-.65V564h.65v.36a1,1,0,0,1,.41-.3,1.2,1.2,0,0,1,.53-.11A1.47,1.47,0,0,1,290.88,564.11Z"/><path class="cls-4" d="M293.62,564.54H293v2.62h-.65v-2.62H292V564h.37v-.22a1,1,0,0,1,.29-.8,1.38,1.38,0,0,1,.9-.24v.54a.59.59,0,0,0-.41.11.48.48,0,0,0-.13.39V564h.59Z"/><path class="cls-4" d="M294.72,567a1.46,1.46,0,0,1-.56-.57,1.85,1.85,0,0,1,0-1.71,1.39,1.39,0,0,1,.58-.57,1.72,1.72,0,0,1,.82-.2,1.68,1.68,0,0,1,.81.2,1.39,1.39,0,0,1,.58.57,1.7,1.7,0,0,1,.21.85,1.67,1.67,0,0,1-.21.85,1.59,1.59,0,0,1-.6.58,1.63,1.63,0,0,1-.82.2A1.57,1.57,0,0,1,294.72,567Zm1.28-.48a.89.89,0,0,0,.36-.36,1.2,1.2,0,0,0,.13-.59,1.16,1.16,0,0,0-.13-.58.81.81,0,0,0-.35-.36.93.93,0,0,0-.46-.12.94.94,0,0,0-.47.12.85.85,0,0,0-.34.36,1.27,1.27,0,0,0-.13.58,1.14,1.14,0,0,0,.26.79.91.91,0,0,0,.66.28A1,1,0,0,0,296,566.53Z"/><path class="cls-4" d="M301.84,563.71a1.73,1.73,0,0,1,.72.67,1.93,1.93,0,0,1,.25,1,2.37,2.37,0,0,1-.16.88,1.62,1.62,0,0,1-.45.68,1,1,0,0,1-.7.26.69.69,0,0,1-.45-.13.55.55,0,0,1-.21-.36,1.33,1.33,0,0,1-.45.36,1.18,1.18,0,0,1-.56.13.9.9,0,0,1-.68-.26,1,1,0,0,1-.25-.73,1.85,1.85,0,0,1,.18-.81,1.55,1.55,0,0,1,.5-.6,1.26,1.26,0,0,1,.73-.23.73.73,0,0,1,.7.34l.05-.29h.57l-.29,1.64a1.62,1.62,0,0,0,0,.21.34.34,0,0,0,.06.22.26.26,0,0,0,.21.08.43.43,0,0,0,.37-.22,1.35,1.35,0,0,0,.23-.53,2.18,2.18,0,0,0,.08-.61,1.44,1.44,0,0,0-.42-1.11,1.79,1.79,0,0,0-1.23-.38,2.35,2.35,0,0,0-1.21.32,2.22,2.22,0,0,0-.84.88,2.6,2.6,0,0,0-.3,1.25,1.4,1.4,0,0,0,.43,1.11,1.8,1.8,0,0,0,1.24.38,2,2,0,0,0,.95-.2l.09.44a2.94,2.94,0,0,1-1.17.22,2.5,2.5,0,0,1-1.09-.23,1.82,1.82,0,0,1-.73-.67,1.93,1.93,0,0,1-.25-1,2.9,2.9,0,0,1,.38-1.49,2.77,2.77,0,0,1,1.05-1.07,3,3,0,0,1,1.53-.39A2.51,2.51,0,0,1,301.84,563.71Zm-1.37,2.85a1,1,0,0,0,.31-.37,1.08,1.08,0,0,0,.12-.5.68.68,0,0,0-.15-.45.56.56,0,0,0-.43-.17.66.66,0,0,0-.43.15,1,1,0,0,0-.29.39,1.44,1.44,0,0,0-.1.5.69.69,0,0,0,.13.43.49.49,0,0,0,.4.16A.77.77,0,0,0,300.47,566.56Z"/><path class="cls-4" d="M304.71,564.1a1.54,1.54,0,0,1,1.4.06,1.39,1.39,0,0,1,.53.57,1.74,1.74,0,0,1,.19.84,1.8,1.8,0,0,1-.19.85,1.49,1.49,0,0,1-.53.58,1.43,1.43,0,0,1-.76.21,1.51,1.51,0,0,1-.65-.14,1.34,1.34,0,0,1-.44-.37v.46h-.66v-4.23h.66v1.55A1.3,1.3,0,0,1,304.71,564.1ZM306,565a.89.89,0,0,0-.36-.36,1,1,0,0,0-.47-.13,1,1,0,0,0-.47.13,1,1,0,0,0-.35.37,1.13,1.13,0,0,0-.13.56,1.14,1.14,0,0,0,.13.57,1,1,0,0,0,.35.37,1,1,0,0,0,.47.13.94.94,0,0,0,.83-.51,1.14,1.14,0,0,0,.13-.57A1.1,1.1,0,0,0,306,565Z"/><path class="cls-4" d="M307.43,564.73a1.53,1.53,0,0,1,.53-.57,1.51,1.51,0,0,1,.76-.2,1.44,1.44,0,0,1,.64.14,1.28,1.28,0,0,1,.45.37V564h.66v3.15h-.66v-.47a1.28,1.28,0,0,1-.45.37,1.4,1.4,0,0,1-.66.15A1.38,1.38,0,0,1,308,567a1.49,1.49,0,0,1-.53-.58,1.7,1.7,0,0,1-.2-.85A1.63,1.63,0,0,1,307.43,564.73Zm2.24.29a.9.9,0,0,0-.35-.37,1,1,0,0,0-.47-.13,1,1,0,0,0-.47.13.93.93,0,0,0-.35.36,1.1,1.1,0,0,0-.13.56,1.14,1.14,0,0,0,.13.57.91.91,0,0,0,1.29.38.9.9,0,0,0,.35-.37,1.21,1.21,0,0,0,0-1.13Z"/><path class="cls-4" d="M315.77,564.11a1.13,1.13,0,0,1,.46.46,1.41,1.41,0,0,1,.17.73v1.86h-.64V565.4a.88.88,0,0,0-.22-.65.83.83,0,0,0-1.15,0,.88.88,0,0,0-.22.65v1.76h-.64V565.4a.93.93,0,0,0-.22-.65.83.83,0,0,0-1.15,0,.88.88,0,0,0-.22.65v1.76h-.65V564h.65v.36a1,1,0,0,1,.41-.3,1.16,1.16,0,0,1,.52-.11,1.39,1.39,0,0,1,.68.16,1.13,1.13,0,0,1,.46.46,1,1,0,0,1,.44-.45,1.24,1.24,0,0,1,.65-.17A1.47,1.47,0,0,1,315.77,564.11Z"/><path class="cls-4" d="M317.18,564.73a1.53,1.53,0,0,1,.53-.57,1.56,1.56,0,0,1,1.41-.06,1.34,1.34,0,0,1,.44.37V564h.66v3.15h-.66v-.47a1.28,1.28,0,0,1-.45.37,1.4,1.4,0,0,1-.66.15,1.38,1.38,0,0,1-.74-.21,1.49,1.49,0,0,1-.53-.58,1.81,1.81,0,0,1-.2-.85A1.74,1.74,0,0,1,317.18,564.73Zm2.24.29a.9.9,0,0,0-.35-.37,1,1,0,0,0-.47-.13,1,1,0,0,0-.47.13.93.93,0,0,0-.35.36,1.1,1.1,0,0,0-.13.56,1.14,1.14,0,0,0,.13.57.91.91,0,0,0,1.29.38.9.9,0,0,0,.35-.37,1.21,1.21,0,0,0,0-1.13Z"/><path class="cls-4" d="M321,567.08a.41.41,0,0,1-.12-.3.4.4,0,0,1,.12-.29.41.41,0,0,1,.58,0,.4.4,0,0,1,.12.29.41.41,0,0,1-.12.3.41.41,0,0,1-.58,0Z"/><path class="cls-4" d="M322.42,563.47a.4.4,0,0,1-.12-.29.41.41,0,0,1,.42-.42.4.4,0,0,1,.29.12.41.41,0,0,1,.12.3.41.41,0,0,1-.41.41A.41.41,0,0,1,322.42,563.47Zm.62.54v3.15h-.66V564Z"/><path class="cls-4" d="M324.89,564.09a1.13,1.13,0,0,1,.56-.13v.67h-.16a.78.78,0,0,0-.58.2.92.92,0,0,0-.2.67v1.66h-.65V564h.65v.46A1.06,1.06,0,0,1,324.89,564.09Z"/></g></svg>