<svg xmlns="http://www.w3.org/2000/svg" viewBox="0 0 1152 648"><defs><style>.cls-1{fill:#eaeaea;}.cls-2{fill:#bff534;}</style></defs><g id="Background"><rect class="cls-1" x="234.17" y="100.72" width="703.66" height="466.56"/></g><g id="Layer_1" data-name="Layer 1"><rect class="cls-2" x="224.17" y="90.72" width="703.66" height="466.56"/><path d="M703.46,202.57a2.71,2.71,0,0,1,1.54,1,2.61,2.61,0,0,1,.6,1.72v.85a4.82,4.82,0,0,1-.39,1.93,5,5,0,0,1-1.06,1.59,4.76,4.76,0,0,1-1.57,1.07,4.93,4.93,0,0,1-2,.39h-4.86a5.41,5.41,0,0,1-2.11-.42,5.62,5.62,0,0,1-1.73-1.17,5.38,5.38,0,0,1-1.6-3.85v-5.56H693v5.17a2.63,2.63,0,0,0,.21,1,3,3,0,0,0,.59.85,2.65,2.65,0,0,0,.85.57,2.75,2.75,0,0,0,1,.2h5.22a2,2,0,0,0,2-2v-.63l-6.8-1.61v-2.84a5.06,5.06,0,0,1,1.24-3.34,4.89,4.89,0,0,1,1.38-1.09,5.42,5.42,0,0,1,1.75-.55l3.4-.43.44,2.91-3.89.51a2,2,0,0,0-1.25.66,1.91,1.91,0,0,0-.5,1.31v.7Z"/><path d="M714.15,197.79v4.54a.88.88,0,0,0,.36.72,1.31,1.31,0,0,0,.8.27h1.78a.31.31,0,0,1,.34.34v2.48a.3.3,0,0,1-.34.34h-1.34a3,3,0,0,1-.87-.14,1.25,1.25,0,0,1-.73-.61v.44a5,5,0,0,1-.31,1.76,6,6,0,0,1-.83,1.54,5.66,5.66,0,0,1-1.27,1.22,6,6,0,0,1-1.6.82l-3.35,1.14-.83-2.5,3.5-1.14a2.77,2.77,0,0,0,1.47-1.08,3,3,0,0,0,.55-1.74v-8.4Z"/><path d="M726.53,206.14a.32.32,0,0,1-.1.23.3.3,0,0,1-.24.11h-1.84a3.26,3.26,0,0,1-1.56-.42,2.31,2.31,0,0,1-1-1,2.22,2.22,0,0,1-.49.54,4.92,4.92,0,0,1-.69.47,3.69,3.69,0,0,1-.8.31,3.46,3.46,0,0,1-.84.11h-1.84a.3.3,0,0,1-.34-.34v-2.45a.41.41,0,0,1,.09-.26.34.34,0,0,1,.25-.11h2.08a1.32,1.32,0,0,0,1.32-1.06l.89-4.38,2.63.47-.73,3.66a1,1,0,0,0,.22.91,1.06,1.06,0,0,0,.87.4h1.82a.3.3,0,0,1,.24.11.37.37,0,0,1,.1.26Zm-8.3,6.05H721V209.4h-2.77Zm4,0h2.79V209.4h-2.79Z"/><path d="M735.64,206.14a.32.32,0,0,1-.1.23.3.3,0,0,1-.24.11h-1.85a3.23,3.23,0,0,1-1.55-.42,2.34,2.34,0,0,1-1-1,2,2,0,0,1-.48.54,4.92,4.92,0,0,1-.69.47,3.69,3.69,0,0,1-.8.31,3.59,3.59,0,0,1-.84.11h-1.85a.3.3,0,0,1-.34-.34v-2.45a.37.37,0,0,1,.1-.26.3.3,0,0,1,.24-.11h2.09a1.29,1.29,0,0,0,.85-.29,1.25,1.25,0,0,0,.46-.77l.9-4.38,2.62.47-.73,3.66a1,1,0,0,0,.22.91,1.1,1.1,0,0,0,.88.4h1.82a.3.3,0,0,1,.24.11.37.37,0,0,1,.1.26Zm-6.19,6.07h2.79v-2.79h-2.79Z"/><path d="M741.88,206.48a4,4,0,0,1-1.64-.35,3.58,3.58,0,0,1-1.32-1.08,3.84,3.84,0,0,1-1.35,1.08,4,4,0,0,1-1.64.35h-.63a.3.3,0,0,1-.34-.34v-2.45a.34.34,0,0,1,.11-.26.33.33,0,0,1,.23-.11h1.12a1.09,1.09,0,0,0,.82-.36,1.19,1.19,0,0,0,.34-.85v-4.32h2.67v4.34a1.18,1.18,0,0,0,.34.84,1.09,1.09,0,0,0,.83.35h.63a1.29,1.29,0,0,0,.85-.29,1.25,1.25,0,0,0,.46-.77l.9-4.4,2.69.49-.72,3.64a1,1,0,0,0,.23.92,1.06,1.06,0,0,0,.86.41h1.8v-6.19h2.67v6.39a3,3,0,0,1-.23,1.15,3.15,3.15,0,0,1-.63,1,2.92,2.92,0,0,1-.95.63,3,3,0,0,1-1.16.23h-1.5a3.17,3.17,0,0,1-1.46-.34A3,3,0,0,1,744.7,205a3.46,3.46,0,0,1-1.29,1.12A3.55,3.55,0,0,1,741.88,206.48Zm1.77-10.83h-2.79v-2.79h2.79Zm2-3.69h-2.79v-2.79h2.79Zm2.07,3.69h-2.8v-2.79h2.8Z"/><path d="M766.75,209a2.07,2.07,0,0,0,2.06-2l0-.51H764v-3.16h9.52a.28.28,0,0,1,.24.09.37.37,0,0,1,.1.23v2.48a.34.34,0,0,1-.34.36h-2.17s0,.07,0,.16a1.49,1.49,0,0,1,0,.33v.39a4.57,4.57,0,0,1-.39,1.89,5,5,0,0,1-1.07,1.53,4.72,4.72,0,0,1-1.59,1,5.29,5.29,0,0,1-2,.36h-4.12a5.42,5.42,0,0,1-2.12-.42,5.29,5.29,0,0,1-1.73-1.17,5.31,5.31,0,0,1-1.59-3.85v-6.41h2.67v6a2.43,2.43,0,0,0,.22,1,2.79,2.79,0,0,0,.58.85,2.65,2.65,0,0,0,.85.57,2.58,2.58,0,0,0,1,.21Z"/><path d="M781.63,203.32a.37.37,0,0,1,.23.1.3.3,0,0,1,.11.24v2.48a.28.28,0,0,1-.11.24.32.32,0,0,1-.23.1h-1.09a4.21,4.21,0,0,1-1.62-.31,4,4,0,0,1-1.32-.88,4.27,4.27,0,0,1-3,1.19h-1.07a.3.3,0,0,1-.34-.34v-2.48a.31.31,0,0,1,.34-.34h1.56a1.16,1.16,0,0,0,1.16-1.16V189.85h2.68v12.43a1.15,1.15,0,0,0,1.16,1Z"/><path d="M792.44,205.56l-4.13.56a44.69,44.69,0,0,1-5.63.36h-1c-.19,0-.31-.11-.34-.34v-2.45a.41.41,0,0,1,.09-.26.3.3,0,0,1,.25-.11h2.43a2.5,2.5,0,0,1-.21-.35,2.32,2.32,0,0,1-.13-.37l-.46-2.41a3.31,3.31,0,0,1,.07-1.66,3.88,3.88,0,0,1,.77-1.41,3.74,3.74,0,0,1,1.27-1,3.61,3.61,0,0,1,1.63-.37h4.32v3h-4.44a1,1,0,0,0-.76.35.91.91,0,0,0-.19.81l.68,3.28,5.39-.58Z"/><path d="M798.19,197.79v4.54a.86.86,0,0,0,.37.72,1.31,1.31,0,0,0,.8.27h1.77a.3.3,0,0,1,.34.34v2.48a.3.3,0,0,1-.34.34H799.8a3.16,3.16,0,0,1-.88-.14,1.28,1.28,0,0,1-.73-.61v.44a5.21,5.21,0,0,1-.3,1.76,5.77,5.77,0,0,1-.84,1.54,5.61,5.61,0,0,1-1.26,1.22,6.21,6.21,0,0,1-1.6.82l-3.35,1.14-.83-2.5,3.5-1.14a2.85,2.85,0,0,0,1.47-1.08,3,3,0,0,0,.54-1.74v-8.4Z"/><path d="M810.58,206.14a.32.32,0,0,1-.1.23.3.3,0,0,1-.24.11h-1.85a3.23,3.23,0,0,1-1.55-.42,2.34,2.34,0,0,1-1.05-1,2,2,0,0,1-.48.54,4.92,4.92,0,0,1-.69.47,3.58,3.58,0,0,1-.81.31,3.44,3.44,0,0,1-.83.11h-1.85a.3.3,0,0,1-.34-.34v-2.45a.37.37,0,0,1,.1-.26.3.3,0,0,1,.24-.11h2.09a1.29,1.29,0,0,0,.85-.29,1.25,1.25,0,0,0,.46-.77l.9-4.38,2.62.47-.73,3.66a1,1,0,0,0,.22.91,1.1,1.1,0,0,0,.88.4h1.82a.3.3,0,0,1,.24.11.37.37,0,0,1,.1.26Zm-8.31,6.05H805V209.4h-2.77Zm4,0h2.8V209.4h-2.8Z"/><path d="M812.3,202.26l.49-2.51a3.64,3.64,0,0,1,.47-1.22,4,4,0,0,1,.84-1,3.85,3.85,0,0,1,2.4-.87h1.36a3.92,3.92,0,0,1,1.56.32,4,4,0,0,1,2.11,2.11,3.92,3.92,0,0,1,.32,1.56v2.84a3,3,0,0,1-.87,2.1,2.84,2.84,0,0,1-.93.63,2.94,2.94,0,0,1-1.14.23h-2.82a3.23,3.23,0,0,1-1.38-.3,2.94,2.94,0,0,1-1.19-1.08,3.18,3.18,0,0,1-1.24,1.08,3.6,3.6,0,0,1-1.46.3h-.58a.3.3,0,0,1-.34-.34v-2.48a.3.3,0,0,1,.34-.34H811a1.22,1.22,0,0,0,.83-.29A1.24,1.24,0,0,0,812.3,202.26Zm3.45,1.06h3.42v-2.67a.87.87,0,0,0-.26-.65.9.9,0,0,0-.66-.27h-2a.86.86,0,0,0-.58.21.9.9,0,0,0-.31.54l-.39,2a.69.69,0,0,0,.16.62A.74.74,0,0,0,815.75,203.32Z"/><path d="M827.19,206.48h-2.67V189.85h2.67Z"/><path d="M735.83,239.85a5,5,0,0,1-3.57-1.5,5.42,5.42,0,0,1-1.08-1.61,5,5,0,0,1-.4-2v-6h2v5.66a2.75,2.75,0,0,0,.25,1.16,2.94,2.94,0,0,0,1.6,1.6,2.75,2.75,0,0,0,1.16.25h4.28a2.48,2.48,0,0,0,1-.2,2.43,2.43,0,0,0,.8-.53,2.46,2.46,0,0,0,.54-.8,2.66,2.66,0,0,0,.19-1V219.4h2v12.29a1.48,1.48,0,0,0,.46,1.09,1.52,1.52,0,0,0,1.12.46h1.33a.34.34,0,0,1,.25.11.35.35,0,0,1,.09.23v1.68a.38.38,0,0,1-.09.25.31.31,0,0,1-.25.11h-1a3,3,0,0,1-1-.18,2.1,2.1,0,0,1-.9-.74v.8a4,4,0,0,1-.33,1.58,4.47,4.47,0,0,1-2.35,2.39,4.45,4.45,0,0,1-1.84.38Z"/><path d="M749.92,231.86l.48-2.5a3.37,3.37,0,0,1,1.18-2,3.25,3.25,0,0,1,2.15-.78h1.36a3.69,3.69,0,0,1,1.41.28,3.55,3.55,0,0,1,1.9,1.91,3.51,3.51,0,0,1,.28,1.41v3a2.38,2.38,0,0,1-.68,1.76,2.33,2.33,0,0,1-1.74.69h-2.94a3,3,0,0,1-1.41-.34,2.55,2.55,0,0,1-1.09-1.19,2.76,2.76,0,0,1-1.21,1.19,3.35,3.35,0,0,1-1.49.34h-.66a.3.3,0,0,1-.34-.34v-1.7a.37.37,0,0,1,.1-.23.34.34,0,0,1,.24-.11h.78a1.63,1.63,0,0,0,1.08-.39A1.66,1.66,0,0,0,749.92,231.86Zm3.18,1.38h3.59v-3.06a1.24,1.24,0,0,0-.39-.93,1.31,1.31,0,0,0-.94-.38h-1.73a1.26,1.26,0,0,0-1.28,1.07l-.39,1.94a1.09,1.09,0,0,0,.24,1A1.13,1.13,0,0,0,753.1,233.24Z"/><path d="M766.89,235.28a.3.3,0,0,1-.34.34h-.85a3.9,3.9,0,0,1-3.58-2.39,3.89,3.89,0,0,1-.3-1.52V219.4h2v12.29a1.57,1.57,0,0,0,1.55,1.55h1.19a.3.3,0,0,1,.24.11.35.35,0,0,1,.1.26Z"/><path d="M776.8,234.75l-3.72.51c-1,.13-1.89.22-2.83.29s-1.85.1-2.78.1h-.94a.27.27,0,0,1-.23-.11.5.5,0,0,1-.11-.26v-1.67a.39.39,0,0,1,.09-.26.41.41,0,0,1,.3-.11h2.72a2,2,0,0,1-.27-.68l-.54-2.84a3.39,3.39,0,0,1,.06-1.49,3.57,3.57,0,0,1,.67-1.28,3.61,3.61,0,0,1,1.14-.9,3.33,3.33,0,0,1,1.46-.34h4V228H771.7a1.21,1.21,0,0,0-1,.46,1.18,1.18,0,0,0-.26,1l.73,3.71,5.29-.55Z"/><path d="M787.46,227.73v4.06a1.34,1.34,0,0,0,.47,1,1.68,1.68,0,0,0,1.11.41h2.21a.31.31,0,0,1,.34.34v1.7a.3.3,0,0,1-.34.34h-1.87a3,3,0,0,1-1.07-.2,1.91,1.91,0,0,1-.85-.7v.88a4.92,4.92,0,0,1-.28,1.67,5.66,5.66,0,0,1-.78,1.48,5.24,5.24,0,0,1-1.17,1.18,5.87,5.87,0,0,1-1.51.79l-3,1-.63-1.94,3.13-1.05a3.12,3.12,0,0,0,1.63-1.19,3.15,3.15,0,0,0,.61-1.91v-7.92Z"/><path d="M796.06,233.24a1.57,1.57,0,0,0,1.55-1.55V227h2v4.66a3.88,3.88,0,0,1-1.14,2.77,4.19,4.19,0,0,1-1.25.85,3.78,3.78,0,0,1-1.54.31h-4.42a.28.28,0,0,1-.24-.11.32.32,0,0,1-.1-.23v-1.67a.35.35,0,0,1,.1-.26.3.3,0,0,1,.24-.11Zm-4.62,5.3h2.28v2.3h-2.28Zm3.55,0h2.3v2.3H795Z"/><path d="M815.19,233.24h.58a.36.36,0,0,1,.34.37v1.67a.3.3,0,0,1-.34.34h-.48a3.2,3.2,0,0,1-1.68-.45,4,4,0,0,1-1.24-1.17,3.59,3.59,0,0,1-1.31,1.2,3.65,3.65,0,0,1-1.72.42h-3.28a2.51,2.51,0,0,1-1.09-.23,2.92,2.92,0,0,1-.9-.61,2.77,2.77,0,0,1-.61-.89,3,3,0,0,1-.22-1.11V230H805v2.36a.91.91,0,0,0,.22.62.73.73,0,0,0,.6.25h3.55a1.79,1.79,0,0,0,.84-.19,2,2,0,0,0,.63-.52,2,2,0,0,0,.36-.74,1.56,1.56,0,0,0,0-.83l-1.84-6.7,1.89-.71,2.36,8.45a1.56,1.56,0,0,0,.59.9A1.62,1.62,0,0,0,815.19,233.24Z"/><path d="M818.23,231.86l.48-2.5a3.37,3.37,0,0,1,1.18-2,3.25,3.25,0,0,1,2.15-.78h1.36a3.69,3.69,0,0,1,1.41.28,3.55,3.55,0,0,1,1.9,1.91,3.51,3.51,0,0,1,.28,1.41v3a2.38,2.38,0,0,1-.68,1.76,2.33,2.33,0,0,1-1.74.69h-2.94a3,3,0,0,1-1.41-.34,2.55,2.55,0,0,1-1.09-1.19,2.76,2.76,0,0,1-1.21,1.19,3.35,3.35,0,0,1-1.49.34h-.66a.3.3,0,0,1-.34-.34v-1.7a.37.37,0,0,1,.1-.23.34.34,0,0,1,.24-.11h.78a1.63,1.63,0,0,0,1.08-.39A1.66,1.66,0,0,0,818.23,231.86Zm3.18,1.38H825v-3.06a1.24,1.24,0,0,0-.39-.93,1.31,1.31,0,0,0-.94-.38h-1.73a1.26,1.26,0,0,0-1.28,1.07l-.39,1.94a1.09,1.09,0,0,0,.24,1A1.13,1.13,0,0,0,821.41,233.24Z"/><path d="M491.12,401.46a5.66,5.66,0,0,1,.62-2.6,5.4,5.4,0,0,1,1.71-2l1.23-.9,1.46-1.08c.49-.37,1-.71,1.39-1l1-.74c.16-.12.31-.21.44-.29l.27-.17-4.88-1.46a.79.79,0,0,0-.71.1,1.05,1.05,0,0,0-.46.58l-.68,2.11-1.8-.48.59-2a2.77,2.77,0,0,1,.62-1.13,3,3,0,0,1,1-.74,3.25,3.25,0,0,1,1.14-.33,2.85,2.85,0,0,1,1.13.11l9,2.72-.58,1.89-1.43-.39a1.29,1.29,0,0,0-.67-.06,1.47,1.47,0,0,0-.6.26l-6.14,4.49a3.84,3.84,0,0,0-1.09,1.29,3.33,3.33,0,0,0-.37,1.62,3.64,3.64,0,0,0,.31,1.51,4,4,0,0,0,.82,1.24,4.07,4.07,0,0,0,1.23.84,3.79,3.79,0,0,0,1.5.3h5.91v2.36h-5.88a5.82,5.82,0,0,1-2.36-.48,6.15,6.15,0,0,1-1.92-1.28,6,6,0,0,1-1.29-1.91A5.75,5.75,0,0,1,491.12,401.46Zm6.61-1.9H500v2.31h-2.3Z"/><path d="M512.37,399.22a.3.3,0,0,1-.34.34h-.85a3.9,3.9,0,0,1-3.58-2.39,3.89,3.89,0,0,1-.3-1.52V383.34h2v12.29a1.57,1.57,0,0,0,1.55,1.55H512a.3.3,0,0,1,.24.11.37.37,0,0,1,.1.26Z"/><path d="M515.07,399.56h-3a.28.28,0,0,1-.24-.11.33.33,0,0,1-.1-.25v-1.68a.34.34,0,0,1,.1-.23.3.3,0,0,1,.24-.11h3.28a2.51,2.51,0,0,0,1.37-.37,2.38,2.38,0,0,0,.9-1,2.54,2.54,0,0,0,.25-1.36,2.72,2.72,0,0,0-.6-1.48l-4-5.46v-1.58L521,382l.9,1.8-6.59,3.32,3.6,4.69a4.76,4.76,0,0,1,1,2.6,4.69,4.69,0,0,1-.49,2.5,4.74,4.74,0,0,1-1.71,1.88A4.69,4.69,0,0,1,515.07,399.56Z"/><path d="M531.24,403.81a4.85,4.85,0,0,1-2-.4,5.07,5.07,0,0,1-1.6-1.08,5.25,5.25,0,0,1-1.08-1.6,4.85,4.85,0,0,1-.4-2v-6.7h2v6.39a2.82,2.82,0,0,0,.24,1.15,3.32,3.32,0,0,0,.65,1,2.75,2.75,0,0,0,.95.64,3,3,0,0,0,1.17.23h4.27a2.52,2.52,0,0,0,1-.19,2.57,2.57,0,0,0,.8-.54,2.48,2.48,0,0,0,.53-.8,2.44,2.44,0,0,0,.2-1v-7.28h2v7.65a4.5,4.5,0,0,1-1.33,3.19,4.53,4.53,0,0,1-1.43,1,4.29,4.29,0,0,1-1.76.35Zm.68-14.47h2.31v2.31h-2.31Z"/><path d="M545.1,399.56h-2V383.34h2Z"/><path d="M560.23,397.18h.59a.35.35,0,0,1,.23.11.38.38,0,0,1,.11.26v1.67a.3.3,0,0,1-.34.34h-.49a3.19,3.19,0,0,1-1.67-.45,3.76,3.76,0,0,1-1.24-1.17,3.59,3.59,0,0,1-1.31,1.2,3.69,3.69,0,0,1-1.73.42H551.1a2.51,2.51,0,0,1-1.09-.23,3.08,3.08,0,0,1-.9-.6,2.81,2.81,0,0,1-.61-.9,3,3,0,0,1-.21-1.11V394H550v2.36a.91.91,0,0,0,.22.62.75.75,0,0,0,.61.25h3.54a1.79,1.79,0,0,0,.84-.19,1.87,1.87,0,0,0,.63-.52,2,2,0,0,0,.36-.74,1.67,1.67,0,0,0,0-.83l-1.85-6.7,1.9-.71,2.35,8.45a1.58,1.58,0,0,0,.6.9A1.59,1.59,0,0,0,560.23,397.18Z"/><path d="M569.78,399.22a.37.37,0,0,1-.1.23.29.29,0,0,1-.24.11h-1.63a2.82,2.82,0,0,1-.8-.12,3.39,3.39,0,0,1-.78-.33,2.54,2.54,0,0,1-.63-.49,2,2,0,0,1-.39-.61,3.07,3.07,0,0,1-1.18,1.1,3.19,3.19,0,0,1-1.61.45h-1.6a.3.3,0,0,1-.34-.34v-1.7a.3.3,0,0,1,.34-.34h1.72a1.71,1.71,0,0,0,1.11-.39,1.67,1.67,0,0,0,.59-1l.83-4,2,.34-.68,3.37a1.36,1.36,0,0,0,.33,1.18,1.44,1.44,0,0,0,1.15.52h1.61a.31.31,0,0,1,.34.34Zm-7.56,5.56h2.29v-2.3h-2.29Zm3.55,0h2.31v-2.3h-2.31Z"/><path d="M571.89,395.8l.49-2.5a3.35,3.35,0,0,1,1.17-2,3.27,3.27,0,0,1,2.15-.78h1.36a3.69,3.69,0,0,1,1.41.28,3.62,3.62,0,0,1,1.91,1.91,3.69,3.69,0,0,1,.28,1.41v3a2.42,2.42,0,0,1-.68,1.76,2.37,2.37,0,0,1-1.75.69h-2.94a3,3,0,0,1-1.41-.34,2.55,2.55,0,0,1-1.09-1.19,2.8,2.8,0,0,1-1.2,1.19,3.43,3.43,0,0,1-1.5.34h-.65a.3.3,0,0,1-.34-.34v-1.7a.37.37,0,0,1,.09-.23.34.34,0,0,1,.25-.11h.77a1.73,1.73,0,0,0,1.68-1.38Zm3.18,1.38h3.6v-3.06a1.24,1.24,0,0,0-.39-.93,1.33,1.33,0,0,0-.95-.38h-1.72a1.28,1.28,0,0,0-.84.29,1.29,1.29,0,0,0-.45.78l-.39,1.94a1.11,1.11,0,0,0,.24.95A1.1,1.1,0,0,0,575.07,397.18Z"/><path d="M584.64,405.66l-.63-1.94,3.13-1.05a3.12,3.12,0,0,0,1.61-1.18,3.16,3.16,0,0,0,.6-1.9v-7.92h2v7.72a5.48,5.48,0,0,1-.27,1.72,5.55,5.55,0,0,1-.75,1.5,5.45,5.45,0,0,1-1.18,1.22,5.8,5.8,0,0,1-1.54.81Zm4.54-18.94h2.31V389h-2.31Z"/><path d="M596.88,399.56h-2V383.34h2Z"/><path d="M607.64,391.67v4.06a1.29,1.29,0,0,0,.47,1,1.58,1.58,0,0,0,1.1.41h2.21a.3.3,0,0,1,.34.34v1.7a.3.3,0,0,1-.34.34h-1.87a2.93,2.93,0,0,1-1.06-.2,1.85,1.85,0,0,1-.85-.7v.88a5.18,5.18,0,0,1-.28,1.67,5.88,5.88,0,0,1-.78,1.49,5.46,5.46,0,0,1-1.18,1.17,5.38,5.38,0,0,1-1.5.79l-3,1-.63-1.94,3.13-1a3.22,3.22,0,0,0,2.23-3.11v-7.92Z"/><path d="M614.77,397.18a1.57,1.57,0,0,0,1.56-1.55V391h2v4.66a3.92,3.92,0,0,1-.3,1.52,4.29,4.29,0,0,1-.84,1.25,4.19,4.19,0,0,1-1.25.85,3.78,3.78,0,0,1-1.54.31h-3a.3.3,0,0,1-.24-.11.37.37,0,0,1-.1-.23v-1.67a.42.42,0,0,1,.1-.26.34.34,0,0,1,.24-.11Zm-2.33-8.86h2.31V386h-2.31Zm3.57,0h2.31V386H616Z"/><path d="M631.39,383.34v11.85a4,4,0,0,1-1,2.82,4.08,4.08,0,0,1-2.49,1.29l-6.68.94-.26-2.13,2.62-.34-1.17-12.58,2-.29,1.12,12.62,2.09-.26a1.94,1.94,0,0,0,1.74-2.07V383.34Z"/><path d="M639.64,399.22a.3.3,0,0,1-.34.34h-.85a3.83,3.83,0,0,1-2.74-1.14,3.72,3.72,0,0,1-.84-1.25,3.89,3.89,0,0,1-.3-1.52V383.34h2v12.29a1.57,1.57,0,0,0,1.55,1.55h1.19a.3.3,0,0,1,.24.11.37.37,0,0,1,.1.26Z"/><path d="M642.65,397.18a1.5,1.5,0,0,0,1.1-.46,1.52,1.52,0,0,0,.46-1.09V391h2v4.66a3.76,3.76,0,0,1-.31,1.52,4.07,4.07,0,0,1-.83,1.25,4.32,4.32,0,0,1-1.25.85,3.83,3.83,0,0,1-1.55.31h-3a.28.28,0,0,1-.24-.11.32.32,0,0,1-.1-.23v-1.67a.37.37,0,0,1,.1-.26.3.3,0,0,1,.24-.11Zm-2.84,5.3h2.31v2.3h-2.31Z"/><path d="M654.65,400.87l-.73-.27c-.23-.09-.43-.19-.61-.28a3.11,3.11,0,0,1-.71-.54,1.23,1.23,0,0,1-.38-.87,3.24,3.24,0,0,1,.15-.9,7.78,7.78,0,0,1,.24-.78l1-3,1.41.48L654,397.84l1.51.56Z"/><path d="M661.71,399.56a2.54,2.54,0,0,1-1.09-.23,3.08,3.08,0,0,1-.9-.6,2.63,2.63,0,0,1-.6-.9,2.78,2.78,0,0,1-.22-1.11V394h1.7v2.36a.91.91,0,0,0,.22.62.77.77,0,0,0,.63.25h3.86a1.92,1.92,0,0,0,1.07-.28,1.72,1.72,0,0,0,.64-.7,2,2,0,0,0,.21-.91,1.7,1.7,0,0,0-.25-.9l-2.86-5.12,1.67-1.12,2.94,5.22a4.13,4.13,0,0,1,0,4.17,4.1,4.1,0,0,1-1.42,1.45,3.89,3.89,0,0,1-2.1.57Z"/><path d="M677.5,399.22a.3.3,0,0,1-.34.34h-.85a3.84,3.84,0,0,1-1.51-.3,3.95,3.95,0,0,1-2.38-3.61V383.34h2v12.29a1.48,1.48,0,0,0,.46,1.09,1.47,1.47,0,0,0,1.09.46h1.19a.3.3,0,0,1,.24.11.37.37,0,0,1,.1.26Z"/><path d="M680.51,397.18a1.47,1.47,0,0,0,1.09-.46,1.48,1.48,0,0,0,.46-1.09V391h2v4.66a3.94,3.94,0,0,1-1.15,2.77,4.07,4.07,0,0,1-1.25.85,3.75,3.75,0,0,1-1.54.31h-3a.28.28,0,0,1-.24-.11.32.32,0,0,1-.1-.23v-1.67a.37.37,0,0,1,.1-.26.3.3,0,0,1,.24-.11Zm-2.84,5.3H680v2.3h-2.31Z"/><path d="M683.76,384.65v-1a1.91,1.91,0,0,1,.59-1.47,2,2,0,0,1,1.43-.55h4.76v1.75h-4.66a.58.58,0,0,0-.42.18.62.62,0,0,0-.17.4v.73Zm5.1,14.91h-2V385.28h2Z"/><path d="M709.43,397.18a1.53,1.53,0,0,0,1.1-.45,1.49,1.49,0,0,0,.46-1.1V391h2v4.66a3.79,3.79,0,0,1-.32,1.54,3.9,3.9,0,0,1-.85,1.25,3.72,3.72,0,0,1-1.25.84,4,4,0,0,1-1.54.3h-9.2a4.38,4.38,0,0,1-1.78-.35,4.46,4.46,0,0,1-1.44-1,4.53,4.53,0,0,1-1-1.43,4.33,4.33,0,0,1-.36-1.76V391h2v3.81a2.29,2.29,0,0,0,.7,1.71,2.36,2.36,0,0,0,1.72.69ZM701.18,391h2.3v-2.31h-2.3Zm3.57,0h2.3v-2.31h-2.3Z"/><path d="M718.93,399.56a2.55,2.55,0,0,1-1.1-.23,2.91,2.91,0,0,1-.89-.6,2.66,2.66,0,0,1-.61-.9,2.78,2.78,0,0,1-.22-1.11V394h1.7v2.36a.91.91,0,0,0,.22.62.77.77,0,0,0,.63.25h3.86a1.92,1.92,0,0,0,1.07-.28,1.65,1.65,0,0,0,.64-.7,2,2,0,0,0,.21-.91,1.78,1.78,0,0,0-.24-.9l-2.87-5.12,1.68-1.12,2.94,5.22a4.26,4.26,0,0,1,.58,2.17,4.2,4.2,0,0,1-.54,2,4.1,4.1,0,0,1-1.42,1.45,3.84,3.84,0,0,1-2.1.57Z"/><path d="M734.71,399.22a.3.3,0,0,1-.34.34h-.85a3.83,3.83,0,0,1-2.74-1.14,3.72,3.72,0,0,1-.84-1.25,3.89,3.89,0,0,1-.3-1.52V383.34h2v12.29a1.57,1.57,0,0,0,1.55,1.55h1.19a.3.3,0,0,1,.24.11.37.37,0,0,1,.1.26Z"/><path d="M743.67,389.73A3.3,3.3,0,0,1,745,390a3.21,3.21,0,0,1,1.06.72,3.65,3.65,0,0,1,.71,1.06,3.09,3.09,0,0,1,.27,1.3v.6a2.46,2.46,0,0,1-.27,1.12,2.26,2.26,0,0,1-.75.87l-1.72,1.19a7.61,7.61,0,0,0,1,.23,7.09,7.09,0,0,0,1.33.11h2.57a.25.25,0,0,1,.24.1.39.39,0,0,1,.1.27v1.67a.32.32,0,0,1-.1.23.25.25,0,0,1-.21.11h-2.87a8.24,8.24,0,0,1-2.27-.31,9.87,9.87,0,0,1-2.13-.88,9.79,9.79,0,0,1-2.12.88,8.24,8.24,0,0,1-2.27.31h-3.16a.3.3,0,0,1-.23-.11.33.33,0,0,1-.11-.23v-1.67a.38.38,0,0,1,.11-.26.33.33,0,0,1,.23-.11h3.09a8.57,8.57,0,0,0,1.21-.08,5.6,5.6,0,0,0,1-.23L737,395v-3.13a2.14,2.14,0,0,1,.58-1.57,2.11,2.11,0,0,1,1.56-.59ZM739,393.81l.82.54,1,.7,1.24.87,3-2v-.64a1.3,1.3,0,0,0-.39-1,1.32,1.32,0,0,0-1-.37H739Z"/><path d="M755.64,399.56a3.46,3.46,0,0,1-2.91-1.55,3.24,3.24,0,0,1-1.26,1.16,3.52,3.52,0,0,1-1.65.39h-.66a.28.28,0,0,1-.24-.11.32.32,0,0,1-.1-.23v-1.7a.34.34,0,0,1,.11-.24.37.37,0,0,1,.23-.1h1a1.45,1.45,0,0,0,1.11-.47,1.62,1.62,0,0,0,.44-1.13v-4h2v4a1.51,1.51,0,0,0,.45,1.09,1.44,1.44,0,0,0,1.08.46h.53a1.69,1.69,0,0,0,1.11-.39,1.61,1.61,0,0,0,.59-1l.81-4,2,.34-.65,3.35a1.32,1.32,0,0,0,.31,1.2,1.49,1.49,0,0,0,1.17.52h2v-6.24h2v6.17a2.42,2.42,0,0,1-.68,1.76,2.35,2.35,0,0,1-1.75.69h-1.58a3.05,3.05,0,0,1-1.5-.39,2.7,2.7,0,0,1-1.12-1.19,3.14,3.14,0,0,1-1.25,1.21A3.42,3.42,0,0,1,755.64,399.56Z"/><path d="M773.54,400.87l-.73-.27a6.14,6.14,0,0,1-.63-.31,2.54,2.54,0,0,1-.7-.56,1.33,1.33,0,0,1-.37-.87,2.42,2.42,0,0,1,.14-.89c.1-.31.19-.56.25-.74l1-3,1.4.48-1.06,3.16,1.5.56Z"/><path d="M782.82,403.81a4.85,4.85,0,0,1-2-.4,5.07,5.07,0,0,1-1.6-1.08,4.91,4.91,0,0,1-1.08-1.6,4.85,4.85,0,0,1-.4-2v-6.7h2v6.39a2.82,2.82,0,0,0,.24,1.15,3.5,3.5,0,0,0,.64,1,2.89,2.89,0,0,0,1,.64,2.94,2.94,0,0,0,1.17.23H787a2.43,2.43,0,0,0,1-.19,2.45,2.45,0,0,0,1.34-1.34,2.43,2.43,0,0,0,.19-1v-7.28h2v7.65a4.33,4.33,0,0,1-.36,1.76,4.59,4.59,0,0,1-2.4,2.4,4.29,4.29,0,0,1-1.76.35Zm.68-14.47h2.3v2.31h-2.3Z"/><path d="M796.68,399.56h-2V383.34h2Z"/><path d="M802.1,391.67v4.06a1.33,1.33,0,0,0,.47,1,1.63,1.63,0,0,0,1.11.41h2.21a.31.31,0,0,1,.34.34v1.7a.3.3,0,0,1-.34.34H804a3,3,0,0,1-1.07-.2,1.91,1.91,0,0,1-.85-.7v.88a4.92,4.92,0,0,1-.28,1.67,5.88,5.88,0,0,1-.78,1.49,5.24,5.24,0,0,1-1.18,1.17,5.38,5.38,0,0,1-1.5.79l-3,1-.63-1.94,3.13-1a3.24,3.24,0,0,0,2.24-3.11v-7.92Z"/><path d="M807.78,397.18v-2.79a3.41,3.41,0,0,1,.28-1.38,3.48,3.48,0,0,1,.77-1.14,3.54,3.54,0,0,1,1.13-.77,3.35,3.35,0,0,1,1.39-.28h1a3.25,3.25,0,0,1,2.15.78,3.37,3.37,0,0,1,1.18,2l.36,1.91a3.56,3.56,0,0,1,0,1.53,3.44,3.44,0,0,1-1.83,2.21,3.19,3.19,0,0,1-1.48.34h-1.72a3.12,3.12,0,0,1-1.17-.22.16.16,0,0,0,0,.08v.17a1.91,1.91,0,0,0,1.6,2.23l2.4.46,2.12-3a4.91,4.91,0,0,1,1.66-1.53,4.4,4.4,0,0,1,2.2-.54h.31a.37.37,0,0,1,.23.1.3.3,0,0,1,.11.24v1.7a.3.3,0,0,1-.34.34h-.72a2.38,2.38,0,0,0-2.07,1.19l-.48.71-.88,1.25c-.31.44-.59.85-.84,1.22s-.39.58-.42.61l-4.2-1a3.07,3.07,0,0,1-2-1.3,4.61,4.61,0,0,1-.7-2.66h-1.92a.35.35,0,0,1-.23-.09.31.31,0,0,1-.11-.25v-1.7a.3.3,0,0,1,.11-.24.37.37,0,0,1,.23-.1Zm2-2.79v2.79h3.11a1.13,1.13,0,0,0,.91-.41,1,1,0,0,0,.23-.95l-.32-1.65a1.25,1.25,0,0,0-.45-.79,1.34,1.34,0,0,0-.86-.3h-1.31a1.29,1.29,0,0,0-.94.38A1.26,1.26,0,0,0,809.8,394.39Z"/><path d="M823.44,397.18a1.49,1.49,0,0,0,1.1-.46,1.52,1.52,0,0,0,.46-1.09V391h2v4.66a3.92,3.92,0,0,1-.3,1.52,4.29,4.29,0,0,1-.84,1.25,4.19,4.19,0,0,1-1.25.85,3.78,3.78,0,0,1-1.54.31h-3a.3.3,0,0,1-.24-.11.37.37,0,0,1-.1-.23v-1.67a.42.42,0,0,1,.1-.26.34.34,0,0,1,.24-.11Zm-2.33-8.86h2.31V386h-2.31Zm3.57,0H827V386h-2.31Z"/><path d="M473.37,411.88a32.08,32.08,0,0,0,.49,3.25c.21,1,.45,2,.71,3s.56,1.82.87,2.64.6,1.56.89,2.24a33.83,33.83,0,0,0,2.31,4.3l-1.72,1.43a40.17,40.17,0,0,1-2-3.66c-.26-.55-.53-1.14-.79-1.78s-.52-1.28-.74-2-.43-1.37-.6-2.08a17.1,17.1,0,0,1-.37-2.12,19.22,19.22,0,0,1-.58,2.83c-.26.94-.56,1.85-.89,2.7s-.68,1.66-1,2.4-.68,1.38-1,1.93-.64,1.13-1,1.74l-1.73-1.43a25.05,25.05,0,0,0,2.17-4,44.42,44.42,0,0,0,1.76-4.82,37.53,37.53,0,0,0,1.34-6.61Z"/><path d="M496.05,426.32h.59a.35.35,0,0,1,.23.11.38.38,0,0,1,.11.26v1.67a.3.3,0,0,1-.34.34h-.49a3.23,3.23,0,0,1-1.68-.45,3.72,3.72,0,0,1-1.23-1.17,3.46,3.46,0,0,1-1.32,1.2,3.62,3.62,0,0,1-1.72.42h-3.28a2.51,2.51,0,0,1-1.09-.23,3.08,3.08,0,0,1-.9-.6,2.7,2.7,0,0,1-.61-.9,3,3,0,0,1-.22-1.11v-2.77h1.73v2.36a.91.91,0,0,0,.22.62.74.74,0,0,0,.6.25h3.55a1.79,1.79,0,0,0,.84-.19,1.87,1.87,0,0,0,.63-.52,2,2,0,0,0,.36-.74,1.67,1.67,0,0,0,0-.83l-1.85-6.7,1.89-.7,2.36,8.45a1.57,1.57,0,0,0,.59.89A1.62,1.62,0,0,0,496.05,426.32Z"/><path d="M496.3,426.69c0-.24.11-.37.34-.37h4.07a6.47,6.47,0,0,0,2.2-.37,4.84,4.84,0,0,0,1.84-1.16l1.91-1.82a2.2,2.2,0,0,1,.39-.31L501.47,421a.87.87,0,0,0-.71.07,1,1,0,0,0-.43.56l-.73,2.12-1.75-.49.58-2a3.19,3.19,0,0,1,1.52-1.88,3.15,3.15,0,0,1,1.14-.34,3.23,3.23,0,0,1,1.2.11l9.47,2.84-.63,1.92-1-.31a1.37,1.37,0,0,0-1.09,0,3.4,3.4,0,0,0-.87.63l-2.8,2.62a6.79,6.79,0,0,1-2.28,1.41,7.83,7.83,0,0,1-2.65.48h-3.78a.31.31,0,0,1-.25-.11.33.33,0,0,1-.09-.23Z"/><path d="M516.84,428.7h-2V412.48h2Z"/><path d="M528.57,428.58a5.55,5.55,0,0,1-1,3.24,5.74,5.74,0,0,1-1.19,1.22,5.32,5.32,0,0,1-1.55.81l-3,1-.63-2,3.1-1.05a3.19,3.19,0,0,0,1.6-1.14,3.62,3.62,0,0,0,.64-1.89l0-.34a1.74,1.74,0,0,1-.53.17,4.26,4.26,0,0,1-.61,0h-2.23a3.38,3.38,0,0,1-2.61-1.23,3.76,3.76,0,0,1-.66-1.29,3.2,3.2,0,0,1-.06-1.51l.41-2.21a3.44,3.44,0,0,1,1.18-2,3.25,3.25,0,0,1,2.15-.78H525a3.62,3.62,0,0,1,1.41.28,3.5,3.5,0,0,1,1.14.78,3.74,3.74,0,0,1,.77,1.15,3.45,3.45,0,0,1,.28,1.39Zm-2-2.26v-3a1.31,1.31,0,0,0-.4-1,1.34,1.34,0,0,0-1-.39h-1.73a1.27,1.27,0,0,0-.83.29,1.29,1.29,0,0,0-.45.78l-.39,2a1,1,0,0,0,.24.93,1.12,1.12,0,0,0,.9.4Z"/><path d="M537.16,430l-.72-.28a3.69,3.69,0,0,1-.63-.31,2.57,2.57,0,0,1-.71-.56,1.27,1.27,0,0,1-.36-.87,2.21,2.21,0,0,1,.13-.89c.11-.31.19-.56.25-.74l1-3,1.41.48L536.51,427l1.5.56Z"/><path d="M555.4,417.58A2.33,2.33,0,0,1,553,420h-1.62a3.12,3.12,0,0,1-1.47-.34,3.17,3.17,0,0,1-1.16-1,3.65,3.65,0,0,1-1.17,1,3.13,3.13,0,0,1-1.5.34,3.09,3.09,0,0,1-1-.16,1.7,1.7,0,0,1-.86-.64v9.52h-2V418.48a20.76,20.76,0,0,0-.46-4.44l-.34-1.63,2-.39a4.47,4.47,0,0,0,.09.44q.1.39.21,1l.24,1.38q.14.76.21,1.56a1.37,1.37,0,0,0,.42.85,1.46,1.46,0,0,0,1.11.41H546a1.6,1.6,0,0,0,1.09-.4,1.75,1.75,0,0,0,.59-1l.82-4,2,.38-.68,3.4a1.45,1.45,0,0,0,.34,1.14,1.35,1.35,0,0,0,1.11.51h2.17v-5.56h2Z"/><path d="M561.38,422.75a4,4,0,0,1,3-4l3.33-.85V416h2v8.62a1.52,1.52,0,0,0,.15.66,1.66,1.66,0,0,0,.4.55,2.12,2.12,0,0,0,.57.36,1.68,1.68,0,0,0,.68.13h.72a.3.3,0,0,1,.34.34v1.7a.3.3,0,0,1-.34.34h-.72a3.5,3.5,0,0,1-2-.6,4,4,0,0,1-1.36-1.61,1.58,1.58,0,0,1-.56.3,2.71,2.71,0,0,1-.68.09h-3a2.42,2.42,0,0,1-1.84-.7,2.53,2.53,0,0,1-.68-1.85Zm6.36-2.67-2.84.71a2,2,0,0,0-1.12.77,2.15,2.15,0,0,0-.41,1.29v1.65h4.37Z"/><path d="M573.57,422.85a4,4,0,0,1,.34-1.65,4.06,4.06,0,0,1,2.21-2.22,3.85,3.85,0,0,1,1.57-.33H578a4,4,0,0,1,1.61.33,4.25,4.25,0,0,1,1.31.88,4.13,4.13,0,0,1,.88,1.32,3.92,3.92,0,0,1,.33,1.6v.8a3.12,3.12,0,0,1-.35,1.47,4.23,4.23,0,0,1-1,1.25,1.68,1.68,0,0,0,.35,0h2.23a.36.36,0,0,1,.25.11.38.38,0,0,1,.11.26v1.67a.34.34,0,0,1-.11.25.38.38,0,0,1-.25.09h-2.29a6.89,6.89,0,0,1-1.6-.17,8.54,8.54,0,0,1-1.7-.6,8.54,8.54,0,0,1-1.7.6,6.89,6.89,0,0,1-1.6.17h-2.29a.3.3,0,0,1-.34-.34v-1.67a.42.42,0,0,1,.1-.26.34.34,0,0,1,.24-.11h2.25a1.68,1.68,0,0,0,.35,0,4.15,4.15,0,0,1-.94-1.25,3.24,3.24,0,0,1-.34-1.47Zm1.31-6.85h2.3v-2.3h-2.3Zm.68,7.68a1.68,1.68,0,0,0,.63,1.27,7,7,0,0,0,1.65,1.06,7.72,7.72,0,0,0,1.68-1.06,1.68,1.68,0,0,0,.65-1.27V423a2.06,2.06,0,0,0-.63-1.52,2.11,2.11,0,0,0-1.53-.62h-.36a2,2,0,0,0-1.49.62,2.11,2.11,0,0,0-.6,1.52Zm2.89-7.68h2.3v-2.3h-2.3Z"/><path d="M592.41,428.36a.3.3,0,0,1-.1.23.28.28,0,0,1-.24.11h-1.63a2.88,2.88,0,0,1-.8-.12,3.51,3.51,0,0,1-.77-.33,2.42,2.42,0,0,1-.64-.49,2.12,2.12,0,0,1-.38-.61,3.07,3.07,0,0,1-1.18,1.1,3.25,3.25,0,0,1-1.62.45h-1.6a.3.3,0,0,1-.34-.34v-1.7a.3.3,0,0,1,.34-.34h1.72a1.76,1.76,0,0,0,1.11-.38,1.72,1.72,0,0,0,.59-1l.83-4,2,.34-.68,3.37a1.35,1.35,0,0,0,.32,1.18,1.46,1.46,0,0,0,1.16.52h1.6a.3.3,0,0,1,.34.34ZM586.66,434H589v-2.31h-2.3Z"/><path d="M607.1,424.92a3.72,3.72,0,0,1-.3,1.47,3.85,3.85,0,0,1-.81,1.2,3.89,3.89,0,0,1-1.21.81,3.65,3.65,0,0,1-1.47.3H592.07a.28.28,0,0,1-.24-.11.33.33,0,0,1-.1-.25v-1.68a.3.3,0,0,1,.34-.34h1.55l2.65-2.86v-11h2v7.94a2.69,2.69,0,0,1,0,.4,2,2,0,0,1-.07.38,1.9,1.9,0,0,1-.12.36l.1-.09.15-.17.16-.17.1-.1a4.91,4.91,0,0,1,1.59-1,5.21,5.21,0,0,1,1.83-.34h1.51a3.69,3.69,0,0,1,1.41.28,3.88,3.88,0,0,1,1.14.77,3.45,3.45,0,0,1,.76,1.14,3.51,3.51,0,0,1,.28,1.41Zm-3.45,1.4a1.43,1.43,0,0,0,1-.42,1.41,1.41,0,0,0,.42-1v-1.44a1.41,1.41,0,0,0-.45-1.06,1.46,1.46,0,0,0-1.08-.44h-1.77a3.19,3.19,0,0,0-2.43,1.07l-3.11,3.32Z"/><path d="M612.64,430l-.73-.28a3.69,3.69,0,0,1-.63-.31,2.73,2.73,0,0,1-.71-.56,1.37,1.37,0,0,1-.36-.87,2.4,2.4,0,0,1,.13-.89c.11-.31.19-.56.26-.74l1-3,1.41.48L612,427l1.51.56Z"/><path d="M633.79,417.58a2.33,2.33,0,0,1-2.43,2.43h-1.63a3.11,3.11,0,0,1-1.46-.34,3.17,3.17,0,0,1-1.16-1,3.58,3.58,0,0,1-1.18,1,3.29,3.29,0,0,1-2.47.18,1.73,1.73,0,0,1-.87-.64v9.52h-2V418.48a20.76,20.76,0,0,0-.46-4.44l-.34-1.63,2-.39s0,.18.1.44.14.59.21,1l.24,1.38q.13.76.21,1.56a1.32,1.32,0,0,0,.42.85,1.46,1.46,0,0,0,1.11.41h.34a1.6,1.6,0,0,0,1.09-.4,1.69,1.69,0,0,0,.58-1l.83-4,2,.38-.68,3.4a1.45,1.45,0,0,0,.34,1.14,1.34,1.34,0,0,0,1.11.51h2.16v-5.56h2Z"/><path d="M649,419.14c-.41,0-.92.12-1.55.21l-2,.3c-.71.09-1.43.18-2.16.25s-1.4.11-2,.11a3.22,3.22,0,0,1-.88-.12,2,2,0,0,1-.79-.44v9.23h-2v-10.2a18.79,18.79,0,0,0-.25-3.07c-.16-1-.34-2-.55-3l2-.39c0,.2.08.45.15.77s.13.66.2,1,.15.8.21,1.24.12.88.17,1.31a1.66,1.66,0,0,0,.52.91,1.39,1.39,0,0,0,1,.35h1a1.28,1.28,0,0,1-.12-.24,1.39,1.39,0,0,1-.1-.39c0-.24-.08-.47-.12-.68s-.07-.38-.11-.58-.07-.36-.11-.49a3.44,3.44,0,0,1,1.9-3.7,3.22,3.22,0,0,1,1.43-.33H648v2.12h-3.48a1,1,0,0,0-.93.46,1.41,1.41,0,0,0-.21,1l.54,2.74c.3,0,.73-.05,1.26-.1l1.59-.15,2-.23Z"/><path d="M657.08,420.11v3.81a2.29,2.29,0,0,0,.7,1.71,2.38,2.38,0,0,0,1.73.69h9.71a1.5,1.5,0,0,0,1.1-.46,1.48,1.48,0,0,0,.48-1.11V412.12h2v12.63a3.79,3.79,0,0,1-.32,1.54,4,4,0,0,1-.85,1.25,4.07,4.07,0,0,1-1.25.85,3.68,3.68,0,0,1-1.51.31h-9.23a4.5,4.5,0,0,1-4.54-4.54v-4.05Zm4,1.65,6.07-3.09-.68-1.38-3.11,1.63c-.08-.16-.19-.38-.34-.65l-.27-.52a.83.83,0,0,1,0-.69.79.79,0,0,1,.42-.47l1.9-.83-.61-1.43-1.85.77a2.31,2.31,0,0,0-.76.51,2.58,2.58,0,0,0-.51.77,2.32,2.32,0,0,0-.18.92,2.25,2.25,0,0,0,.24,1,4.47,4.47,0,0,0,.22.47l.19.35a.87.87,0,0,0,.25.28.37.37,0,0,0,.21.09l-1.84.87Z"/><path d="M689,428.36a.3.3,0,0,1-.1.23.28.28,0,0,1-.24.11h-.87a3.54,3.54,0,0,1-1.69-.4,4.15,4.15,0,0,1-1.3-1.05,3.86,3.86,0,0,1-2.38,1.19l-6.68.94-.27-2.11,2.63-.34-1.17-12.6,2-.27,1.12,12.63,2.11-.29a2,2,0,0,0,1.28-.63,2.09,2.09,0,0,0,.47-1.41V412.48h2v12.31a1.35,1.35,0,0,0,.51,1.16,1.92,1.92,0,0,0,1.17.37h1.09a.3.3,0,0,1,.34.34Z"/><path d="M693.48,426.32a1.48,1.48,0,0,0,1.09-.46,1.47,1.47,0,0,0,.46-1.09v-4.66h2v4.66a3.92,3.92,0,0,1-.3,1.52,3.82,3.82,0,0,1-.84,1.25,4.07,4.07,0,0,1-1.25.85,3.78,3.78,0,0,1-1.54.31h-4.42a.28.28,0,0,1-.24-.11.3.3,0,0,1-.1-.23v-1.67a.37.37,0,0,1,.1-.26.3.3,0,0,1,.24-.11ZM689,433.93h2.31v-2.31H689Zm1.8,3.2h2.3v-2.31h-2.3Zm1.77-3.2h2.31v-2.31h-2.31Z"/><path d="M705.72,430l-.73-.28c-.23-.09-.43-.19-.61-.28a3.11,3.11,0,0,1-.71-.54,1.23,1.23,0,0,1-.38-.87,3.24,3.24,0,0,1,.15-.9,7.78,7.78,0,0,1,.24-.78l1-3,1.41.48L705.06,427l1.51.56Z"/><path d="M717.62,428.7a3.38,3.38,0,0,1-2.61-1.23,3.76,3.76,0,0,1-.66-1.29,3.28,3.28,0,0,1-.06-1.53l.51-2.72h-1.29a1.44,1.44,0,0,0-1.1.5,1.6,1.6,0,0,0-.48,1.15V434.8h-2V423.65a3.79,3.79,0,0,1,.32-1.54,4,4,0,0,1,.85-1.25,3.9,3.9,0,0,1,1.25-.85,3.79,3.79,0,0,1,1.54-.32h5.49a3.69,3.69,0,0,1,1.41.28,3.93,3.93,0,0,1,1.15.77,3.5,3.5,0,0,1,.78,1.14,3.69,3.69,0,0,1,.28,1.41v1.46a1.57,1.57,0,0,0,1.55,1.57h1.7a.3.3,0,0,1,.34.34v1.7a.3.3,0,0,1-.1.23.28.28,0,0,1-.24.11H724.9a3.59,3.59,0,0,1-1.37-.26,2.72,2.72,0,0,1-1.15-.88,1.65,1.65,0,0,1-.73.9,2.34,2.34,0,0,1-1.09.24ZM716.28,425a1.07,1.07,0,0,0,.21,1,1.11,1.11,0,0,0,.93.41H721v-3.06a1.29,1.29,0,0,0-.4-.94,1.34,1.34,0,0,0-1-.39h-2.82Z"/><path d="M732.82,428.7a3.64,3.64,0,0,1-1.65-.38,1.3,1.3,0,0,0-2.58,0,3.64,3.64,0,0,1-1.65.38h-.68a.3.3,0,0,1-.23-.11.31.31,0,0,1-.11-.23v-1.7a.31.31,0,0,1,.34-.34h1a1.45,1.45,0,0,0,1.09-.47,1.52,1.52,0,0,0,.46-1.1v-4h2v4.11a1.32,1.32,0,0,0,.46,1,1.51,1.51,0,0,0,1.07.41H733a1.77,1.77,0,0,0,1.73-1.4l.78-4,2,.37-.68,3.35a1.36,1.36,0,0,0,.34,1.21,1.54,1.54,0,0,0,1.21.51h.37a1.48,1.48,0,0,0,1.09-.46,1.47,1.47,0,0,0,.46-1.09v-4.69h2v4.76a1.64,1.64,0,0,0,.49,1.06,1.49,1.49,0,0,0,1.07.42h1a.3.3,0,0,1,.34.34v1.7a.32.32,0,0,1-.08.23.29.29,0,0,1-.26.11h-.65a3.62,3.62,0,0,1-1.63-.38,3.35,3.35,0,0,1-1.26-1.17,3.53,3.53,0,0,1-1.3,1.17,3.69,3.69,0,0,1-1.64.38,3.43,3.43,0,0,1-1.55-.36,2.49,2.49,0,0,1-1.14-1.19,3.26,3.26,0,0,1-1.27,1.19A3.43,3.43,0,0,1,732.82,428.7Zm2-10.41h-2.3V416h2.3Zm1.73-3.21h-2.31v-2.31h2.31Zm1.84,3.21h-2.3V416h2.3Z"/><path d="M751.35,428.7a3.63,3.63,0,0,1-1.65-.37,3.2,3.2,0,0,1-1.27-1.16,3.36,3.36,0,0,1-1.28,1.16,3.71,3.71,0,0,1-1.66.37h-.68a.3.3,0,0,1-.34-.34v-1.67a.38.38,0,0,1,.11-.26.35.35,0,0,1,.23-.11h1.05a1.52,1.52,0,0,0,1.12-.46,1.53,1.53,0,0,0,.46-1.11v-4h2v4a1.48,1.48,0,0,0,.46,1.11,1.54,1.54,0,0,0,1.09.44h.49a1.71,1.71,0,0,0,1.1-.38,1.68,1.68,0,0,0,.6-1l.82-4,2,.36-.65,3.33a1.3,1.3,0,0,0,.32,1.21,1.48,1.48,0,0,0,1.16.51h2v-6.21h2v6.14a2.36,2.36,0,0,1-.68,1.77,2.33,2.33,0,0,1-1.75.68h-1.57a3.16,3.16,0,0,1-1.51-.38,2.82,2.82,0,0,1-1.12-1.17,3.2,3.2,0,0,1-1.25,1.18A3.38,3.38,0,0,1,751.35,428.7Zm2-10.41h-2.3V416h2.3Zm1.75-3.21H752.8v-2.31h2.31Zm1.82,3.21h-2.3V416h2.3Z"/><path d="M771.87,433a5,5,0,0,1-3.57-1.48,4.91,4.91,0,0,1-1.08-1.6,4.85,4.85,0,0,1-.4-2v-6.7h2v6.39a2.82,2.82,0,0,0,.24,1.15,3.5,3.5,0,0,0,.64,1,3,3,0,0,0,2.13.87h4.27a2.43,2.43,0,0,0,1-.19A2.45,2.45,0,0,0,778.4,429a2.43,2.43,0,0,0,.19-1v-7.28h2v7.65a4.29,4.29,0,0,1-.35,1.76,4.59,4.59,0,0,1-2.4,2.4,4.29,4.29,0,0,1-1.76.35Zm.68-14.47h2.3v2.31h-2.3Z"/><path d="M788.84,428.36a.3.3,0,0,1-.34.34h-.85a3.9,3.9,0,0,1-3.58-2.39,3.89,3.89,0,0,1-.3-1.52V412.48h2v12.29a1.47,1.47,0,0,0,.46,1.09,1.48,1.48,0,0,0,1.09.46h1.19a.3.3,0,0,1,.24.11.37.37,0,0,1,.1.26Z"/><path d="M791.85,426.32a1.59,1.59,0,0,0,1.56-1.55v-4.66h2v4.66a3.76,3.76,0,0,1-.31,1.52,4,4,0,0,1-.83,1.25,4.32,4.32,0,0,1-1.25.85,3.83,3.83,0,0,1-1.55.31h-3a.28.28,0,0,1-.24-.11.3.3,0,0,1-.1-.23v-1.67a.37.37,0,0,1,.1-.26.3.3,0,0,1,.24-.11Zm-2.84,5.3h2.31v2.31H789Z"/><path d="M803.61,428.36a.3.3,0,0,1-.34.34h-.85a3.8,3.8,0,0,1-1.51-.3,3.9,3.9,0,0,1-2.38-3.61V412.48h2v12.29a1.47,1.47,0,0,0,.46,1.09,1.49,1.49,0,0,0,1.1.46h1.19a.34.34,0,0,1,.24.11.42.42,0,0,1,.1.26Z"/><path d="M812.23,428.36a.34.34,0,0,1-.1.23.3.3,0,0,1-.24.11h-1.63a2.82,2.82,0,0,1-.8-.12,3.39,3.39,0,0,1-.78-.33,2.54,2.54,0,0,1-.63-.49,2,2,0,0,1-.39-.61,3,3,0,0,1-1.18,1.1,3.19,3.19,0,0,1-1.61.45h-1.6a.3.3,0,0,1-.34-.34v-1.7a.3.3,0,0,1,.34-.34H805a1.71,1.71,0,0,0,1.1-.38,1.68,1.68,0,0,0,.6-1l.82-4,2,.34-.68,3.37a1.36,1.36,0,0,0,.33,1.18,1.44,1.44,0,0,0,1.15.52h1.61a.31.31,0,0,1,.34.34Zm-7.56,5.57H807v-2.31h-2.29Zm3.55,0h2.31v-2.31h-2.31Z"/><path d="M811.55,426.69c0-.24.11-.37.34-.37H816a6.46,6.46,0,0,0,2.19-.37,4.84,4.84,0,0,0,1.84-1.16l1.92-1.82a1.89,1.89,0,0,1,.38-.31L816.72,421a.87.87,0,0,0-.71.07,1,1,0,0,0-.43.56l-.73,2.12-1.75-.49.58-2a3.19,3.19,0,0,1,1.52-1.88,3.15,3.15,0,0,1,1.14-.34,3.21,3.21,0,0,1,1.2.11L827,422l-.63,1.92-1-.31a1.37,1.37,0,0,0-1.09,0,3.4,3.4,0,0,0-.87.63l-2.8,2.62a6.79,6.79,0,0,1-2.28,1.41,7.83,7.83,0,0,1-2.65.48h-3.78a.31.31,0,0,1-.25-.11.33.33,0,0,1-.09-.23Zm4-10.32h2.3v-2.31h-2.3Z"/><path d="M513.56,448.18a3.51,3.51,0,0,1,1.41.28,3.78,3.78,0,0,1,1.15.76,3.66,3.66,0,0,1,.78,1.15,3.43,3.43,0,0,1,.28,1.4V453a3.45,3.45,0,0,1-.28,1.39,3.77,3.77,0,0,1-.78,1.15,3.66,3.66,0,0,1-1.15.78,3.69,3.69,0,0,1-1.41.28h-1.19a3.58,3.58,0,0,1-1.38-.28,3.82,3.82,0,0,1-1.16-.78,3.58,3.58,0,0,1-.77-1.15,3.45,3.45,0,0,1-.28-1.39v-1.24a3.43,3.43,0,0,1,.28-1.4,3.6,3.6,0,0,1,.76-1.15,3.85,3.85,0,0,1,1.14-.76,3.51,3.51,0,0,1,1.41-.28Zm1.48,4.74v-1.17a1.28,1.28,0,0,0-.39-.94,1.34,1.34,0,0,0-1-.37h-1.41a1.3,1.3,0,0,0-.94.37,1.28,1.28,0,0,0-.39.94v1.17a1.24,1.24,0,0,0,.39.93,1.31,1.31,0,0,0,.94.38h1.41a1.34,1.34,0,0,0,1-.38A1.24,1.24,0,0,0,515,452.92Z"/><path d="M522.3,441.19c.13.55.24,1,.32,1.45s.16.89.24,1.41.14,1,.17,1.53a1.2,1.2,0,0,0,.51.9,1.67,1.67,0,0,0,1,.34H528v-5.54h2.11v5.47a2.33,2.33,0,0,1-2.42,2.43h-2.72a2.93,2.93,0,0,1-1-.17,2,2,0,0,1-.82-.64v9.5h-2V447.65a20.92,20.92,0,0,0-.12-2.25c-.09-.74-.2-1.47-.34-2.2l-.34-1.63Z"/><path d="M534.06,457.87V447.65a20.92,20.92,0,0,0-.12-2.25c-.09-.74-.2-1.47-.34-2.2l-.34-1.63,2-.38.36,1.84c.15.78.26,1.55.34,2.32a22.39,22.39,0,0,1,.12,2.32v10.2Z"/><path d="M554.58,448.28c-.41.05-.92.12-1.55.22l-2,.29c-.71.09-1.43.18-2.16.25s-1.4.11-2,.11A3.22,3.22,0,0,1,546,449a2,2,0,0,1-.79-.44v9.23h-2v-10.2a18.79,18.79,0,0,0-.25-3.07c-.16-1-.34-2-.55-3l2-.39c0,.2.08.45.15.77s.13.66.21,1.05.14.8.2,1.24.12.88.17,1.31a1.63,1.63,0,0,0,.52.91,1.4,1.4,0,0,0,1,.36h1a2,2,0,0,1-.12-.25,1.12,1.12,0,0,1-.09-.39c-.05-.24-.09-.46-.13-.68s-.06-.38-.11-.58-.07-.35-.1-.48a3.24,3.24,0,0,1,.07-1.55,3.36,3.36,0,0,1,.68-1.28,3.42,3.42,0,0,1,1.14-.88,3.22,3.22,0,0,1,1.43-.33h3.21v2.12H550a1,1,0,0,0-.94.46,1.41,1.41,0,0,0-.21,1l.54,2.74c.31,0,.73-.05,1.26-.09l1.59-.16,2-.23Z"/><path d="M571.75,446.72a2.37,2.37,0,0,1-.68,1.75,2.4,2.4,0,0,1-1.75.68h-1.63a3.18,3.18,0,0,1-1.47-.34,3.14,3.14,0,0,1-1.15-1,3.68,3.68,0,0,1-1.18,1,3.31,3.31,0,0,1-2.48.18,1.7,1.7,0,0,1-.86-.64v9.52h-2V447.62a20.76,20.76,0,0,0-.46-4.44l-.34-1.63,2-.39a3.31,3.31,0,0,0,.1.44c.06.26.13.59.2,1s.16.87.25,1.38.15,1,.2,1.56a1.34,1.34,0,0,0,.43.85,1.45,1.45,0,0,0,1.1.42h.34a1.67,1.67,0,0,0,1.1-.4,1.8,1.8,0,0,0,.58-1l.82-4.05,2,.38-.68,3.4a1.5,1.5,0,0,0,.34,1.15,1.37,1.37,0,0,0,1.12.51h2.16v-5.57h2Z"/><path d="M589.89,448.28c-.41.05-.92.12-1.55.22l-2,.29c-.71.09-1.43.18-2.16.25s-1.4.11-2,.11a3.22,3.22,0,0,1-.88-.12,2,2,0,0,1-.79-.44v9.23h-2v-10.2a20,20,0,0,0-.25-3.07c-.16-1-.35-2-.56-3l2-.39c0,.2.08.45.15.77s.13.66.2,1.05.15.8.21,1.24.12.88.17,1.31a1.63,1.63,0,0,0,.52.91,1.4,1.4,0,0,0,1,.36h1a2,2,0,0,1-.12-.25,1.39,1.39,0,0,1-.1-.39c0-.24-.08-.46-.12-.68s-.07-.38-.11-.58-.07-.35-.11-.48a3.46,3.46,0,0,1,.76-2.83,3.4,3.4,0,0,1,2.57-1.21h3.21v2.12h-3.48a1,1,0,0,0-.93.46,1.41,1.41,0,0,0-.21,1l.54,2.74c.3,0,.73-.05,1.26-.09l1.59-.16,2-.23Z"/><path d="M597.58,448.18a3.51,3.51,0,0,1,1.41.28,3.78,3.78,0,0,1,1.15.76,3.35,3.35,0,0,1,.78,1.15,3.43,3.43,0,0,1,.28,1.4V453a3.56,3.56,0,0,1-1.06,2.54,3.66,3.66,0,0,1-1.15.78,3.69,3.69,0,0,1-1.41.28h-1.19a3.62,3.62,0,0,1-1.38-.28,3.66,3.66,0,0,1-1.15-.78A3.56,3.56,0,0,1,592.8,453v-1.24a3.43,3.43,0,0,1,.28-1.4,3.6,3.6,0,0,1,.76-1.15,3.85,3.85,0,0,1,1.14-.76,3.51,3.51,0,0,1,1.41-.28Zm1.48,4.74v-1.17a1.31,1.31,0,0,0-.38-.94,1.36,1.36,0,0,0-1-.37h-1.4a1.3,1.3,0,0,0-.95.37,1.28,1.28,0,0,0-.39.94v1.17a1.24,1.24,0,0,0,.39.93,1.31,1.31,0,0,0,.95.38h1.4a1.37,1.37,0,0,0,1-.38A1.27,1.27,0,0,0,599.06,452.92Z"/><path d="M611.72,457.84a38.41,38.41,0,0,0-1.35-6.61,45.22,45.22,0,0,0-1.76-4.82,25.89,25.89,0,0,0-2.16-4l1.72-1.43c.39.61.73,1.19,1,1.74s.63,1.2,1,1.94.7,1.53,1,2.39.63,1.76.9,2.7a20.86,20.86,0,0,1,.57,2.83,17.59,17.59,0,0,1,.37-2.13c.17-.72.37-1.41.6-2.09s.47-1.33.74-2,.53-1.21.79-1.76a40.17,40.17,0,0,1,2-3.66l1.72,1.43a32.6,32.6,0,0,0-2.3,4.3c-.3.68-.6,1.43-.9,2.24s-.6,1.7-.87,2.63-.5,1.91-.71,3-.37,2.13-.49,3.26Z"/><path d="M626,448.18a3.48,3.48,0,0,1,1.41.28,4,4,0,0,1,1.16.76,3.47,3.47,0,0,1,.77,1.15,3.43,3.43,0,0,1,.28,1.4V453a3.45,3.45,0,0,1-.28,1.39,3.58,3.58,0,0,1-.77,1.15,3.82,3.82,0,0,1-1.16.78,3.66,3.66,0,0,1-1.41.28h-1.19a3.62,3.62,0,0,1-1.38-.28,3.66,3.66,0,0,1-1.15-.78,3.56,3.56,0,0,1-1.06-2.54v-1.24a3.43,3.43,0,0,1,.28-1.4,3.6,3.6,0,0,1,.76-1.15,3.85,3.85,0,0,1,1.14-.76,3.51,3.51,0,0,1,1.41-.28Zm1.48,4.74v-1.17a1.31,1.31,0,0,0-.38-.94,1.36,1.36,0,0,0-1-.37h-1.4a1.3,1.3,0,0,0-1,.37,1.28,1.28,0,0,0-.39.94v1.17a1.24,1.24,0,0,0,.39.93,1.31,1.31,0,0,0,1,.38h1.4a1.37,1.37,0,0,0,1-.38A1.27,1.27,0,0,0,627.52,452.92Z"/><path d="M640.27,448.18a3.48,3.48,0,0,1,1.41.28,4,4,0,0,1,1.16.76,3.47,3.47,0,0,1,.77,1.15,3.43,3.43,0,0,1,.28,1.4V453a3.45,3.45,0,0,1-.28,1.39,3.58,3.58,0,0,1-.77,1.15,3.82,3.82,0,0,1-1.16.78,3.66,3.66,0,0,1-1.41.28h-1.19a3.62,3.62,0,0,1-1.38-.28,3.66,3.66,0,0,1-1.15-.78,3.56,3.56,0,0,1-1.06-2.54v-1.24a3.43,3.43,0,0,1,.28-1.4,3.6,3.6,0,0,1,.76-1.15,3.85,3.85,0,0,1,1.14-.76,3.51,3.51,0,0,1,1.41-.28Zm1.48,4.74v-1.17a1.31,1.31,0,0,0-.38-.94,1.36,1.36,0,0,0-1-.37H639a1.3,1.3,0,0,0-1,.37,1.28,1.28,0,0,0-.39.94v1.17a1.24,1.24,0,0,0,.39.93,1.31,1.31,0,0,0,1,.38h1.4a1.37,1.37,0,0,0,1-.38A1.27,1.27,0,0,0,641.75,452.92Z"/><path d="M651.59,448.18a3.51,3.51,0,0,1,1.41.28,3.78,3.78,0,0,1,1.15.76,3.66,3.66,0,0,1,.78,1.15,3.61,3.61,0,0,1,.28,1.4V453a3.63,3.63,0,0,1-.28,1.39,3.77,3.77,0,0,1-.78,1.15,3.66,3.66,0,0,1-1.15.78,3.69,3.69,0,0,1-1.41.28H650.4a3.54,3.54,0,0,1-1.38-.28,3.7,3.7,0,0,1-1.16-.78,3.77,3.77,0,0,1-.78-1.15,3.62,3.62,0,0,1-.27-1.39v-1.24a3.6,3.6,0,0,1,.27-1.4,3.8,3.8,0,0,1,.77-1.15,3.61,3.61,0,0,1,1.14-.76,3.51,3.51,0,0,1,1.41-.28Zm1.48,4.74v-1.17a1.28,1.28,0,0,0-.39-.94,1.34,1.34,0,0,0-1-.37H650.3a1.3,1.3,0,0,0-1.33,1.31v1.17a1.24,1.24,0,0,0,.39.93,1.29,1.29,0,0,0,.94.38h1.41a1.34,1.34,0,0,0,1-.38A1.24,1.24,0,0,0,653.07,452.92Z"/><path d="M661.28,450.12h7.28v2.24h-7.28Z"/><path d="M682.92,451.41a16.27,16.27,0,0,0,.09,2.21c.08.73.2,1.46.34,2.21l.34,1.65-2,.36-.37-1.82a23.26,23.26,0,0,1-.36-2.32,17.78,17.78,0,0,1-.1-2.31V450l-.38.13a2,2,0,0,1-.64.08h-2.36a3.66,3.66,0,0,1-1.48-.3,3.22,3.22,0,0,1-1.14-.85,3.15,3.15,0,0,1-.65-1.29,3.67,3.67,0,0,1,0-1.59l.43-2.23a3.55,3.55,0,0,1,.43-1.09,3.33,3.33,0,0,1,.74-.88,3.38,3.38,0,0,1,1-.57,3.26,3.26,0,0,1,1.16-.21h1.36a3.63,3.63,0,0,1,1.39.28,3.69,3.69,0,0,1,1.93,1.93,3.63,3.63,0,0,1,.28,1.39Zm-2-6.58a1.25,1.25,0,0,0-.39-1,1.3,1.3,0,0,0-1-.37h-1.72a1.32,1.32,0,0,0-.84.29,1.4,1.4,0,0,0-.45.78l-.36,1.94a1.05,1.05,0,0,0,.23,1,1.16,1.16,0,0,0,.89.38h3.59Z"/><path d="M687.8,457.87V447.65a18.62,18.62,0,0,0-.13-2.25c-.08-.74-.19-1.47-.34-2.2l-.34-1.63,2-.38.36,1.84c.15.78.26,1.55.34,2.32a22.39,22.39,0,0,1,.12,2.32v10.2Z"/><path d="M700.67,448.18a3.43,3.43,0,0,1,1.4.28,3.82,3.82,0,0,1,1.16.76,3.66,3.66,0,0,1,.78,1.15,3.6,3.6,0,0,1,.27,1.4V453a3.62,3.62,0,0,1-.27,1.39,3.77,3.77,0,0,1-.78,1.15,3.7,3.7,0,0,1-1.16.78,3.61,3.61,0,0,1-1.4.28h-1.19a3.63,3.63,0,0,1-1.39-.28,3.69,3.69,0,0,1-1.93-1.93,3.63,3.63,0,0,1-.28-1.39v-1.24a3.56,3.56,0,0,1,2.19-3.31,3.48,3.48,0,0,1,1.41-.28Zm1.48,4.74v-1.17a1.28,1.28,0,0,0-.39-.94,1.34,1.34,0,0,0-1-.37h-1.41a1.32,1.32,0,0,0-1,.37,1.28,1.28,0,0,0-.39.94v1.17a1.24,1.24,0,0,0,.39.93,1.33,1.33,0,0,0,1,.38h1.41a1.34,1.34,0,0,0,1-.38A1.24,1.24,0,0,0,702.15,452.92Z"/><path d="M712,448.18a3.51,3.51,0,0,1,1.41.28,3.78,3.78,0,0,1,1.15.76,3.35,3.35,0,0,1,.78,1.15,3.43,3.43,0,0,1,.28,1.4V453a3.56,3.56,0,0,1-1.06,2.54,3.66,3.66,0,0,1-1.15.78,3.69,3.69,0,0,1-1.41.28h-1.19a3.62,3.62,0,0,1-1.38-.28,3.82,3.82,0,0,1-1.16-.78,3.58,3.58,0,0,1-.77-1.15,3.45,3.45,0,0,1-.28-1.39v-1.24a3.43,3.43,0,0,1,.28-1.4,3.6,3.6,0,0,1,.76-1.15,3.85,3.85,0,0,1,1.14-.76,3.51,3.51,0,0,1,1.41-.28Zm1.48,4.74v-1.17a1.31,1.31,0,0,0-.38-.94,1.36,1.36,0,0,0-1-.37h-1.4a1.3,1.3,0,0,0-1,.37,1.28,1.28,0,0,0-.39.94v1.17a1.24,1.24,0,0,0,.39.93,1.31,1.31,0,0,0,1,.38h1.4a1.37,1.37,0,0,0,1-.38A1.27,1.27,0,0,0,713.46,452.92Z"/><path d="M726.12,457.84a38.41,38.41,0,0,0-1.35-6.61,45.22,45.22,0,0,0-1.76-4.82,25.89,25.89,0,0,0-2.16-4l1.72-1.43c.39.61.73,1.19,1,1.74s.63,1.2,1,1.94.7,1.53,1,2.39.63,1.76.9,2.7a20.86,20.86,0,0,1,.57,2.83,17.59,17.59,0,0,1,.37-2.13c.17-.72.37-1.41.6-2.09s.47-1.33.74-2,.53-1.21.79-1.76a40.17,40.17,0,0,1,2-3.66l1.72,1.43a32.6,32.6,0,0,0-2.3,4.3c-.3.68-.6,1.43-.9,2.24s-.6,1.7-.87,2.63-.5,1.91-.71,3-.37,2.13-.49,3.26Z"/><path d="M740.42,439.73l1.09,1.55-2.94,2.48a1.35,1.35,0,0,0-.31.4,1.16,1.16,0,0,0-.14.47,1.31,1.31,0,0,0,.08.48.82.82,0,0,0,.3.4l3.47,2.6c.42-.57.86-1.12,1.33-1.65s1-1.06,1.47-1.56l1.33-1.29,1.48,1.49-1.21,1.14c-.29.27-.56.54-.8.79s-.48.51-.71.77-.45.55-.67.84-.45.62-.71,1l-5.83,8.4-1.75-1.24,5.13-7.26a1.78,1.78,0,0,1-.67-.16,2.08,2.08,0,0,1-.62-.33l-2.31-1.79a3,3,0,0,1-.95-1.2,3.39,3.39,0,0,1-.26-1.43,3.45,3.45,0,0,1,1.31-2.59Z"/><path d="M758.27,443.54l-.93-.82L758.7,441l2.8,2.57c.55.5,1.13,1.07,1.73,1.71a13.69,13.69,0,0,1,1.67,2.17,12.32,12.32,0,0,1,1.24,2.69,10.82,10.82,0,0,1,.48,3.32,6.47,6.47,0,0,1-.23,1.71,3.77,3.77,0,0,1-.72,1.41,3.44,3.44,0,0,1-1.21.94,3.93,3.93,0,0,1-1.75.35,3.47,3.47,0,0,1-1.58-.34,4.3,4.3,0,0,1-1.28-1,4.71,4.71,0,0,1-1.33,1,3.43,3.43,0,0,1-1.56.35,4.05,4.05,0,0,1-1.79-.36,3.3,3.3,0,0,1-1.2-1,4.19,4.19,0,0,1-.68-1.41,6,6,0,0,1-.22-1.66,9.86,9.86,0,0,1,.45-3.05,12,12,0,0,1,1.18-2.6,15.18,15.18,0,0,1,1.66-2.25C757,444.84,757.62,444.17,758.27,443.54Zm1.55,1.41c-.76.73-1.43,1.41-2,2.05a11.87,11.87,0,0,0-1.46,1.94,8.54,8.54,0,0,0-.88,2.07,9.5,9.5,0,0,0-.29,2.42,2.66,2.66,0,0,0,.38,1.44,1.39,1.39,0,0,0,1.27.6h.25a1.64,1.64,0,0,0,1.09-.39,2.16,2.16,0,0,0,.66-1.17l.51-2.18,2.08.36-.48,2.14a1.64,1.64,0,0,0,.61.83,1.59,1.59,0,0,0,1,.41h.24a1.43,1.43,0,0,0,1.29-.58,2.54,2.54,0,0,0,.39-1.46,10.27,10.27,0,0,0-.28-2.46,7.75,7.75,0,0,0-.86-2.06A11.42,11.42,0,0,0,761.9,447C761.31,446.36,760.61,445.68,759.82,445Z"/><path d="M774.32,448.18a3.51,3.51,0,0,1,1.41.28,3.9,3.9,0,0,1,1.15.76,3.66,3.66,0,0,1,.78,1.15,3.61,3.61,0,0,1,.28,1.4V453a3.63,3.63,0,0,1-.28,1.39,3.69,3.69,0,0,1-1.93,1.93,3.69,3.69,0,0,1-1.41.28h-1.19a3.63,3.63,0,0,1-1.39-.28,3.69,3.69,0,0,1-1.93-1.93,3.63,3.63,0,0,1-.28-1.39v-1.24a3.56,3.56,0,0,1,2.19-3.31,3.51,3.51,0,0,1,1.41-.28Zm1.48,4.74v-1.17a1.28,1.28,0,0,0-.39-.94,1.34,1.34,0,0,0-1-.37H773a1.32,1.32,0,0,0-.95.37,1.31,1.31,0,0,0-.38.94v1.17a1.27,1.27,0,0,0,.38.93,1.33,1.33,0,0,0,.95.38h1.41a1.34,1.34,0,0,0,1-.38A1.24,1.24,0,0,0,775.8,452.92Z"/><path d="M784,457.07v-6.7h2v6.38a2.87,2.87,0,0,0,.24,1.16,3.15,3.15,0,0,0,.65.95,2.77,2.77,0,0,0,1,.65,3.17,3.17,0,0,0,1.17.23h4.27a2.53,2.53,0,0,0,1-.2,2.38,2.38,0,0,0,.8-.53,2.6,2.6,0,0,0,.53-.8,2.48,2.48,0,0,0,.2-1V450h2v3.94a1.41,1.41,0,0,0,.51,1.19,1.87,1.87,0,0,0,1.16.39h1.36a.3.3,0,0,1,.34.34v1.69a.34.34,0,0,1-.1.24.3.3,0,0,1-.24.1h-1.14a2.41,2.41,0,0,1-1.19-.27,2.07,2.07,0,0,1-.7-.62v.87a3.82,3.82,0,0,1-.37,1.68,4.54,4.54,0,0,1-1,1.36,4.94,4.94,0,0,1-1.43.92,4.46,4.46,0,0,1-1.74.34h-4.2a4.85,4.85,0,0,1-2-.4,5,5,0,0,1-2.68-2.69A4.81,4.81,0,0,1,784,457.07Zm5.73-9.42h2.31V450h-2.31Z"/><path d="M802.12,452a4.2,4.2,0,0,1,.34-1.65,4.33,4.33,0,0,1,.9-1.33,4.11,4.11,0,0,1,1.31-.89,3.89,3.89,0,0,1,1.58-.33h.34a3.92,3.92,0,0,1,1.6.33,4.15,4.15,0,0,1,1.32.89,4.25,4.25,0,0,1,.88,1.31,3.92,3.92,0,0,1,.33,1.6v.8a3.25,3.25,0,0,1-.35,1.47,4.59,4.59,0,0,1-1,1.25,1.56,1.56,0,0,0,.35,0H812a.33.33,0,0,1,.24.1.42.42,0,0,1,.1.26v1.67a.3.3,0,0,1-.34.34H809.7a7.42,7.42,0,0,1-1.6-.16,2.67,2.67,0,0,0-3.4,0,7.51,7.51,0,0,1-1.61.16h-2.28a.3.3,0,0,1-.34-.34v-1.67a.37.37,0,0,1,.1-.26.3.3,0,0,1,.24-.1h2.25a1.56,1.56,0,0,0,.35,0,4.36,4.36,0,0,1-.95-1.25,3.37,3.37,0,0,1-.34-1.47Zm2,.83a1.66,1.66,0,0,0,.64,1.27,6.71,6.71,0,0,0,1.65,1.06,7.07,7.07,0,0,0,1.67-1.06,1.66,1.66,0,0,0,.66-1.27v-.66a2.06,2.06,0,0,0-.63-1.52,2.1,2.1,0,0,0-1.53-.61h-.37a2,2,0,0,0-1.48.61,2.12,2.12,0,0,0-.61,1.52Zm1.1-7.68h2.3v-2.3h-2.3Z"/><path d="M820.09,455.47a.3.3,0,0,1,.34.34v1.69a.3.3,0,0,1-.34.34H819a3.76,3.76,0,0,1-1.63-.35,3.47,3.47,0,0,1-1.26-1,3.7,3.7,0,0,1-1.3,1,3.77,3.77,0,0,1-1.64.35H812a.3.3,0,0,1-.34-.34v-1.69a.3.3,0,0,1,.34-.34h1.53a1.5,1.5,0,0,0,1.11-.47,1.48,1.48,0,0,0,.47-1.09V441.62h2V454a1.52,1.52,0,0,0,.48,1,1.49,1.49,0,0,0,1.07.42Z"/><path d="M823.44,455.47a1.59,1.59,0,0,0,1.56-1.56v-4.66h2v4.66a3.89,3.89,0,0,1-.3,1.52,4.16,4.16,0,0,1-.84,1.25,4,4,0,0,1-1.25.85,3.78,3.78,0,0,1-1.54.31h-3a.33.33,0,0,1-.24-.1.39.39,0,0,1-.1-.24v-1.67a.42.42,0,0,1,.1-.26.33.33,0,0,1,.24-.1Zm-2.33-8.87h2.31v-2.31h-2.31Zm3.57,0H827v-2.31h-2.31Z"/><path d="M324.39,316.91a6.16,6.16,0,0,1,2.28-2.41,6.09,6.09,0,0,1,3.2-.86,5.72,5.72,0,0,1,2.75.62,5.49,5.49,0,0,1,1.89,1.54v-1.95h2.79v13.39h-2.79v-2a5.41,5.41,0,0,1-1.92,1.58,6.24,6.24,0,0,1-5.93-.25,6.34,6.34,0,0,1-2.27-2.48,7.6,7.6,0,0,1-.84-3.61A7.41,7.41,0,0,1,324.39,316.91Zm9.55,1.22a4,4,0,0,0-1.5-1.56,4,4,0,0,0-5.47,1.52,4.78,4.78,0,0,0-.57,2.39,5,5,0,0,0,.57,2.43,4,4,0,0,0,1.5,1.59,3.8,3.8,0,0,0,2,.55,3.91,3.91,0,0,0,3.49-2.1,4.92,4.92,0,0,0,.57-2.42A4.84,4.84,0,0,0,333.94,318.13Z"/><path d="M359.82,314.29a4.78,4.78,0,0,1,2,1.94,6.3,6.3,0,0,1,.72,3.11v7.9h-2.75v-7.48a3.89,3.89,0,0,0-.9-2.76,3.62,3.62,0,0,0-4.91,0,3.85,3.85,0,0,0-.91,2.76v7.48h-2.75v-7.48a3.89,3.89,0,0,0-.9-2.76,3.19,3.19,0,0,0-2.45-1,3.25,3.25,0,0,0-2.47,1,3.89,3.89,0,0,0-.91,2.76v7.48H340.8V313.85h2.76v1.53a4.66,4.66,0,0,1,1.73-1.28,5.4,5.4,0,0,1,2.23-.46,5.88,5.88,0,0,1,2.87.68,4.64,4.64,0,0,1,1.94,2,4.56,4.56,0,0,1,1.89-1.93,5.71,5.71,0,0,1,2.77-.71A5.94,5.94,0,0,1,359.82,314.29Z"/><path d="M366,311.57a1.77,1.77,0,0,1,1.26-3,1.68,1.68,0,0,1,1.24.51,1.81,1.81,0,0,1,0,2.52,1.68,1.68,0,0,1-1.24.51A1.71,1.71,0,0,1,366,311.57Zm2.62,2.28v13.39h-2.77V313.85Z"/><path d="M376.53,314.21a4.78,4.78,0,0,1,2.39-.57v2.86h-.7a3.38,3.38,0,0,0-2.47.83,3.93,3.93,0,0,0-.84,2.86v7.05h-2.76V313.85h2.76v1.95A4.41,4.41,0,0,1,376.53,314.21Z"/><path d="M381.24,316.91a6.16,6.16,0,0,1,2.28-2.41,6.09,6.09,0,0,1,3.2-.86,5.72,5.72,0,0,1,2.75.62,5.45,5.45,0,0,1,1.88,1.54v-1.95h2.8v13.39h-2.8v-2a5.37,5.37,0,0,1-1.91,1.58,6.24,6.24,0,0,1-5.93-.25,6.34,6.34,0,0,1-2.27-2.48,7.6,7.6,0,0,1-.84-3.61A7.41,7.41,0,0,1,381.24,316.91Zm9.54,1.22A3.9,3.9,0,0,0,387.3,316a3.94,3.94,0,0,0-3.49,2,4.78,4.78,0,0,0-.57,2.39,5,5,0,0,0,.57,2.43,4,4,0,0,0,1.51,1.59,3.8,3.8,0,0,0,2,.55,3.88,3.88,0,0,0,3.48-2.1,4.92,4.92,0,0,0,.57-2.42A4.84,4.84,0,0,0,390.78,318.13Z"/><path d="M400.41,309.26v18h-2.77v-18Z"/><path d="M404.05,311.57a1.81,1.81,0,0,1,0-2.52,1.73,1.73,0,0,1,1.27-.51,1.77,1.77,0,0,1,0,3.54A1.73,1.73,0,0,1,404.05,311.57Zm2.63,2.28v13.39h-2.77V313.85Z"/><path d="M410,326.9a1.73,1.73,0,0,1-.51-1.27,1.74,1.74,0,0,1,1.77-1.77,1.68,1.68,0,0,1,1.24.51,1.71,1.71,0,0,1,.51,1.26,1.73,1.73,0,0,1-.51,1.27,1.68,1.68,0,0,1-1.24.51A1.71,1.71,0,0,1,410,326.9Z"/><path d="M417.91,326.88a5,5,0,0,1-2-1.55,3.85,3.85,0,0,1-.78-2.2H418a2,2,0,0,0,.81,1.42,3,3,0,0,0,1.86.57,3.12,3.12,0,0,0,1.81-.45,1.34,1.34,0,0,0,.64-1.15,1.2,1.2,0,0,0-.71-1.12,13.7,13.7,0,0,0-2.28-.8,20.81,20.81,0,0,1-2.45-.8,4.36,4.36,0,0,1-1.64-1.19,3.12,3.12,0,0,1-.69-2.11,3.32,3.32,0,0,1,.63-2,4.23,4.23,0,0,1,1.81-1.39,6.79,6.79,0,0,1,2.71-.51,5.59,5.59,0,0,1,3.68,1.15,4.13,4.13,0,0,1,1.49,3.14h-2.77a2,2,0,0,0-.73-1.43,2.73,2.73,0,0,0-1.77-.53,2.8,2.8,0,0,0-1.67.41,1.29,1.29,0,0,0-.59,1.09,1.17,1.17,0,0,0,.39.9,2.9,2.9,0,0,0,.95.57c.37.14.92.31,1.65.52a19.06,19.06,0,0,1,2.39.79,4.49,4.49,0,0,1,1.62,1.18,3.12,3.12,0,0,1,.7,2.07,3.47,3.47,0,0,1-.63,2,4.27,4.27,0,0,1-1.78,1.4,7.38,7.38,0,0,1-5.54-.06Z"/><path d="M438.36,314.29a4.72,4.72,0,0,1,1.89,1.94,6.52,6.52,0,0,1,.69,3.11v7.9H438.2v-7.48a3.89,3.89,0,0,0-.9-2.76,3.2,3.2,0,0,0-2.45-1,3.25,3.25,0,0,0-2.47,1,3.85,3.85,0,0,0-.91,2.76v7.48H428.7v-18h2.77v6.15a4.65,4.65,0,0,1,1.79-1.31,5.91,5.91,0,0,1,2.36-.46A5.63,5.63,0,0,1,438.36,314.29Z"/><path d="M446.7,326.59a6.19,6.19,0,0,1-2.41-2.43,7.33,7.33,0,0,1-.87-3.63,7.2,7.2,0,0,1,.9-3.62,6.13,6.13,0,0,1,2.45-2.42,7.51,7.51,0,0,1,6.94,0,6.16,6.16,0,0,1,2.46,2.42,7.2,7.2,0,0,1,.9,3.62,7,7,0,0,1-.93,3.62,6.33,6.33,0,0,1-2.51,2.44,7.18,7.18,0,0,1-3.51.86A6.79,6.79,0,0,1,446.7,326.59Zm5.42-2a3.86,3.86,0,0,0,1.52-1.53,4.92,4.92,0,0,0,.58-2.48,5,5,0,0,0-.55-2.46,3.87,3.87,0,0,0-1.48-1.52,4.08,4.08,0,0,0-2-.51,4,4,0,0,0-2,.51,3.72,3.72,0,0,0-1.44,1.52,5.14,5.14,0,0,0-.53,2.46,4.67,4.67,0,0,0,1.1,3.34,3.64,3.64,0,0,0,2.78,1.18A4.1,4.1,0,0,0,452.12,324.54Z"/><path d="M464.36,314.26a5.91,5.91,0,0,1,2.74-.62,6.1,6.1,0,0,1,3.2.85,5.92,5.92,0,0,1,2.26,2.41,7.59,7.59,0,0,1,.82,3.58,7.71,7.71,0,0,1-.82,3.61,6.19,6.19,0,0,1-2.27,2.48,6,6,0,0,1-3.19.88,6.09,6.09,0,0,1-2.76-.6,5.41,5.41,0,0,1-1.91-1.56v1.95h-2.77v-18h2.77v6.59A5.26,5.26,0,0,1,464.36,314.26Zm5.64,3.83a4,4,0,0,0-1.51-1.53,4,4,0,0,0-4,0,4,4,0,0,0-1.51,1.56,4.84,4.84,0,0,0-.57,2.4A4.92,4.92,0,0,0,463,323a3.94,3.94,0,0,0,3.49,2.1,3.84,3.84,0,0,0,2-.55,4,4,0,0,0,1.51-1.59,5,5,0,0,0,.57-2.43A4.78,4.78,0,0,0,470,318.09Z"/><path d="M488.15,321.58H477.93a3.67,3.67,0,0,0,1.19,2.57,3.73,3.73,0,0,0,2.62,1,3.24,3.24,0,0,0,3.16-1.87h3a6,6,0,0,1-2.2,3,6.46,6.46,0,0,1-3.94,1.17,6.79,6.79,0,0,1-3.44-.86,6.12,6.12,0,0,1-2.38-2.43,7.44,7.44,0,0,1-.86-3.63,7.6,7.6,0,0,1,.84-3.63,5.87,5.87,0,0,1,2.35-2.41,7,7,0,0,1,3.49-.85,6.78,6.78,0,0,1,3.37.82,5.86,5.86,0,0,1,2.31,2.32,7,7,0,0,1,.83,3.44A9.32,9.32,0,0,1,488.15,321.58Zm-2.79-2.24a3.15,3.15,0,0,0-1.1-2.45,3.91,3.91,0,0,0-2.64-.92,3.55,3.55,0,0,0-2.46.91,3.81,3.81,0,0,0-1.21,2.46Z"/><path d="M491,311.57a1.79,1.79,0,1,1,1.26.51A1.71,1.71,0,0,1,491,311.57Zm2.62,2.28v13.39h-2.77V313.85Z"/><path d="M501.47,314.21a4.78,4.78,0,0,1,2.39-.57v2.86h-.7a3.38,3.38,0,0,0-2.47.83,3.93,3.93,0,0,0-.84,2.86v7.05h-2.76V313.85h2.76v1.95A4.41,4.41,0,0,1,501.47,314.21Z"/><path d="M506.41,311.57a1.77,1.77,0,0,1,1.26-3,1.68,1.68,0,0,1,1.24.51,1.81,1.81,0,0,1,0,2.52,1.68,1.68,0,0,1-1.24.51A1.71,1.71,0,0,1,506.41,311.57Zm2.62,2.28v13.39h-2.77V313.85Z"/><path d="M529.77,312.57a7.19,7.19,0,0,1,3.07,2.85,8.31,8.31,0,0,1,1.06,4.26,10.35,10.35,0,0,1-.67,3.72,7.13,7.13,0,0,1-1.92,2.89,4.29,4.29,0,0,1-2.95,1.12,3.13,3.13,0,0,1-1.94-.55,2.37,2.37,0,0,1-.87-1.54,5.59,5.59,0,0,1-1.9,1.53,5.37,5.37,0,0,1-2.38.56,3.81,3.81,0,0,1-2.92-1.13,4.32,4.32,0,0,1-1.06-3.08,7.84,7.84,0,0,1,.76-3.44,6.45,6.45,0,0,1,2.15-2.57,5.35,5.35,0,0,1,3.11-1,3.14,3.14,0,0,1,3,1.44l.22-1.22h2.41l-1.22,6.95a6.2,6.2,0,0,0-.07.9,1.47,1.47,0,0,0,.25.94,1.14,1.14,0,0,0,.92.32,1.89,1.89,0,0,0,1.57-.91,6.45,6.45,0,0,0,1-2.25,10.77,10.77,0,0,0,.33-2.6,6,6,0,0,0-1.8-4.71,7.56,7.56,0,0,0-5.22-1.62,9.78,9.78,0,0,0-5.14,1.36,9.57,9.57,0,0,0-3.56,3.74,11,11,0,0,0-1.28,5.29,6,6,0,0,0,1.84,4.73,7.7,7.7,0,0,0,5.27,1.63,9,9,0,0,0,4-.85l.37,1.85a12.53,12.53,0,0,1-5,.94,10.32,10.32,0,0,1-4.64-1,7.34,7.34,0,0,1-3.08-2.83,8.13,8.13,0,0,1-1.09-4.26,12.74,12.74,0,0,1,1.61-6.34,12,12,0,0,1,4.48-4.53,12.67,12.67,0,0,1,6.49-1.66A10.47,10.47,0,0,1,529.77,312.57ZM524,324.67a4,4,0,0,0,1.32-1.58,4.57,4.57,0,0,0,.49-2.1,2.83,2.83,0,0,0-.64-1.9,2.26,2.26,0,0,0-1.81-.74,2.82,2.82,0,0,0-1.84.64,4.18,4.18,0,0,0-1.21,1.66,5.42,5.42,0,0,0-.43,2.14,2.74,2.74,0,0,0,.56,1.81,2.08,2.08,0,0,0,1.7.67A3.13,3.13,0,0,0,524,324.67Z"/><path d="M542,314.26a5.91,5.91,0,0,1,2.74-.62,6.1,6.1,0,0,1,3.2.85,5.92,5.92,0,0,1,2.26,2.41,7.59,7.59,0,0,1,.83,3.58,7.72,7.72,0,0,1-.83,3.61,6.19,6.19,0,0,1-2.27,2.48,6,6,0,0,1-3.19.88,6.09,6.09,0,0,1-2.76-.6,5.41,5.41,0,0,1-1.91-1.56v1.95h-2.77v-18H540v6.59A5.26,5.26,0,0,1,542,314.26Zm5.64,3.83a3.9,3.9,0,0,0-1.51-1.53,4,4,0,0,0-4,0,4,4,0,0,0-1.51,1.56,4.84,4.84,0,0,0-.57,2.4,4.92,4.92,0,0,0,.57,2.42,3.94,3.94,0,0,0,3.49,2.1,3.84,3.84,0,0,0,2-.55,3.93,3.93,0,0,0,1.51-1.59,5,5,0,0,0,.57-2.43A4.78,4.78,0,0,0,547.61,318.09Z"/><path d="M553.51,316.91a6.16,6.16,0,0,1,2.28-2.41,6.06,6.06,0,0,1,3.19-.86,5.74,5.74,0,0,1,2.76.62,5.45,5.45,0,0,1,1.88,1.54v-1.95h2.8v13.39h-2.8v-2a5.41,5.41,0,0,1-1.92,1.58,6.23,6.23,0,0,1-5.92-.25,6.27,6.27,0,0,1-2.27-2.48,7.6,7.6,0,0,1-.84-3.61A7.41,7.41,0,0,1,553.51,316.91Zm9.54,1.22a4.07,4.07,0,0,0-1.49-1.56,4,4,0,0,0-2-.53,3.94,3.94,0,0,0-3.49,2,4.78,4.78,0,0,0-.57,2.39,5,5,0,0,0,.57,2.43,3.93,3.93,0,0,0,1.51,1.59,3.8,3.8,0,0,0,2,.55,4,4,0,0,0,2-.53,4,4,0,0,0,1.49-1.57,4.92,4.92,0,0,0,.57-2.42A4.84,4.84,0,0,0,563.05,318.13Z"/><path d="M588.94,314.29a4.84,4.84,0,0,1,2,1.94,6.41,6.41,0,0,1,.71,3.11v7.9h-2.74v-7.48A3.89,3.89,0,0,0,588,317a3.2,3.2,0,0,0-2.45-1,3.25,3.25,0,0,0-2.47,1,3.89,3.89,0,0,0-.91,2.76v7.48h-2.74v-7.48a3.89,3.89,0,0,0-.9-2.76,3.2,3.2,0,0,0-2.45-1,3.25,3.25,0,0,0-2.47,1,3.85,3.85,0,0,0-.91,2.76v7.48h-2.77V313.85h2.77v1.53a4.62,4.62,0,0,1,1.72-1.28,5.48,5.48,0,0,1,2.24-.46,5.84,5.84,0,0,1,2.86.68,4.67,4.67,0,0,1,2,2,4.45,4.45,0,0,1,1.89-1.93,5.68,5.68,0,0,1,2.77-.71A6,6,0,0,1,588.94,314.29Z"/><path d="M594.91,316.91a6.11,6.11,0,0,1,2.29-2.41,6,6,0,0,1,3.19-.86,5.72,5.72,0,0,1,2.75.62A5.49,5.49,0,0,1,605,315.8v-1.95h2.79v13.39H605v-2a5.41,5.41,0,0,1-1.92,1.58,6.24,6.24,0,0,1-5.93-.25,6.34,6.34,0,0,1-2.27-2.48,7.6,7.6,0,0,1-.84-3.61A7.41,7.41,0,0,1,594.91,316.91Zm9.55,1.22a4,4,0,0,0-1.5-1.56,4,4,0,0,0-5.47,1.52,4.78,4.78,0,0,0-.57,2.39,5,5,0,0,0,.57,2.43,4,4,0,0,0,1.5,1.59,3.85,3.85,0,0,0,2,.55,3.91,3.91,0,0,0,3.49-2.1,4.92,4.92,0,0,0,.57-2.42A4.84,4.84,0,0,0,604.46,318.13Z"/><path d="M611.17,326.9a1.73,1.73,0,0,1-.51-1.27,1.74,1.74,0,0,1,1.77-1.77,1.68,1.68,0,0,1,1.24.51,1.71,1.71,0,0,1,.51,1.26,1.73,1.73,0,0,1-.51,1.27,1.68,1.68,0,0,1-1.24.51A1.71,1.71,0,0,1,611.17,326.9Z"/><path d="M617.17,311.57a1.77,1.77,0,0,1,1.26-3,1.68,1.68,0,0,1,1.24.51,1.81,1.81,0,0,1,0,2.52,1.68,1.68,0,0,1-1.24.51A1.71,1.71,0,0,1,617.17,311.57Zm2.62,2.28v13.39H617V313.85Z"/><path d="M627.67,314.21a4.78,4.78,0,0,1,2.39-.57v2.86h-.7a3.38,3.38,0,0,0-2.47.83,4,4,0,0,0-.83,2.86v7.05h-2.77V313.85h2.77v1.95A4.31,4.31,0,0,1,627.67,314.21Z"/><path d="M358.43,443a8.71,8.71,0,1,0,0,13.27v1.56h4.09V441.46h-4.09Zm-5.12,11.76a5.13,5.13,0,1,1,5.12-5.13A5.13,5.13,0,0,1,353.31,454.78Z"/><path d="M408.62,443a8.71,8.71,0,1,0,0,13.27v1.56h4.1V441.46h-4.1Zm-5.12,11.76a5.13,5.13,0,1,1,5.12-5.13A5.13,5.13,0,0,1,403.5,454.78Z"/><path d="M333.33,441A8.66,8.66,0,0,0,327.7,443v-7.71h-4.1v22.54h4.1v-1.56A8.7,8.7,0,1,0,333.33,441Zm-.51,13.83a5.13,5.13,0,1,1,5.12-5.13A5.13,5.13,0,0,1,332.82,454.78Z"/><path d="M385.57,441a6.66,6.66,0,0,0-5.63,3.12,6.65,6.65,0,0,0-10.25-1.26v-1.35H365.6v16.39h4.09v-9.73a3.59,3.59,0,0,1,7.18,0v9.73H381v-9.73a3.59,3.59,0,1,1,7.17,0v9.73h4.1V447.61A6.66,6.66,0,0,0,385.57,441Z"/><rect x="421.94" y="441.46" width="4.1" height="16.39"/><path d="M437.81,441a5.64,5.64,0,0,0-4.61,2.4v-1.89h-4.09v16.39h4.09V447.61a3.08,3.08,0,0,1,3.08-3.08h2.05V441Z"/><circle cx="423.99" cy="436.85" r="2.56"/><circle cx="417.33" cy="455.29" r="2.56"/></g></svg>