<svg xmlns="http://www.w3.org/2000/svg" viewBox="0 0 1152 648"><defs><style>.cls-1{fill:#e5e5e5;}.cls-2{fill:#8db943;}</style></defs><g id="Graphic"><rect class="cls-1" x="351.73" y="-120.35" width="466.56" height="906.71" transform="translate(918.01 -252) rotate(90)"/></g><g id="Layer_1" data-name="Layer 1"><rect class="cls-2" x="342.72" y="-129.36" width="466.56" height="906.71" transform="translate(900 -252) rotate(90)"/><rect x="655.19" y="299.25" width="60.92" height="60.92"/><rect x="435.88" y="213.96" width="60.92" height="146.21"/><rect x="582.09" y="213.96" width="60.92" height="146.21"/><circle cx="539.45" cy="329.71" r="30.46"/><circle cx="685.66" cy="402.82" r="30.46"/><path d="M487.67,411.23a13,13,0,1,0,0,19.72v2.33h6.09V408.91h-6.09Zm-7.62,17.48a7.62,7.62,0,1,1,7.62-7.62A7.62,7.62,0,0,1,480.05,428.71Z"/><path d="M562.29,411.23a13,13,0,1,0,0,19.72v2.33h6.1V408.91h-6.1Zm-7.61,17.48a7.62,7.62,0,1,1,7.61-7.62A7.62,7.62,0,0,1,554.68,428.71Z"/><path d="M450.35,408.15a12.88,12.88,0,0,0-8.37,3.08V399.77h-6.1v33.51H442V431a12.94,12.94,0,1,0,8.37-22.8Zm-.76,20.56a7.62,7.62,0,1,1,7.62-7.62A7.62,7.62,0,0,1,449.59,428.71Z"/><path d="M528,408.15a9.86,9.86,0,0,0-8.38,4.64,9.88,9.88,0,0,0-15.23-1.88v-2h-6.09v24.37h6.09V418.81a5.33,5.33,0,0,1,10.66,0v14.47h6.09V418.81a5.33,5.33,0,0,1,10.66,0v14.47h6.1V418.05A9.9,9.9,0,0,0,528,408.15Z"/><rect x="582.09" y="408.91" width="6.09" height="24.37"/><path d="M605.7,408.15a8.33,8.33,0,0,0-6.85,3.57v-2.81h-6.09v24.37h6.09V418.05a4.56,4.56,0,0,1,4.57-4.57h3v-5.33Z"/><circle cx="585.14" cy="402.05" r="3.81"/><circle cx="575.24" cy="429.47" r="3.81"/></g></svg>