<svg xmlns="http://www.w3.org/2000/svg" viewBox="0 0 1152 648"><defs><style>.cls-1{fill:#e5e5e5;}.cls-2{fill:#d8d8d8;}.cls-3{fill:#8db943;}.cls-4{fill:#222221;}</style></defs><g id="Background"><rect class="cls-1" x="234.17" y="100.72" width="703.66" height="466.56"/></g><g id="Layer_1" data-name="Layer 1"><rect class="cls-2" x="224.17" y="90.72" width="703.66" height="466.56"/><rect class="cls-3" x="224.17" y="350.77" width="703.66" height="206.51"/><path class="cls-4" d="M334.93,205.1h-6.36l-1,3H323.2l6.17-17h4.81l6.17,17H336Zm-1.07-3.2-2.11-6.24-2.09,6.24Z"/><path class="cls-4" d="M363.38,196a5.8,5.8,0,0,1,1.49,4.25v7.91h-4.13v-7.35a2.81,2.81,0,0,0-.69-2,2.88,2.88,0,0,0-3.81,0,2.81,2.81,0,0,0-.69,2v7.35h-4.13v-7.35a2.81,2.81,0,0,0-.69-2,2.88,2.88,0,0,0-3.81,0,2.77,2.77,0,0,0-.7,2v7.35h-4.15V194.56h4.15v1.7a4.58,4.58,0,0,1,1.65-1.35,5.22,5.22,0,0,1,2.31-.49,5.68,5.68,0,0,1,2.73.65,4.7,4.7,0,0,1,1.88,1.87,5.51,5.51,0,0,1,1.92-1.82,5.2,5.2,0,0,1,2.65-.7A5.37,5.37,0,0,1,363.38,196Z"/><path class="cls-4" d="M367.94,192.51a2.2,2.2,0,0,1,0-3.2,2.54,2.54,0,0,1,1.79-.65,2.48,2.48,0,0,1,1.76.65,2.2,2.2,0,0,1,0,3.2,2.48,2.48,0,0,1-1.76.64A2.53,2.53,0,0,1,367.94,192.51Zm3.85,2.05v13.55h-4.15V194.56Z"/><path class="cls-4" d="M380.63,195.06a4.69,4.69,0,0,1,2.43-.64v4.39h-1.14a3.52,3.52,0,0,0-2.33.67,3,3,0,0,0-.78,2.34v6.29h-4.15V194.56h4.15v2.26A5.56,5.56,0,0,1,380.63,195.06Z"/><path class="cls-4" d="M384.87,197.65a5.87,5.87,0,0,1,2.15-2.43,5.56,5.56,0,0,1,3-.85,5.21,5.21,0,0,1,2.52.58,4.32,4.32,0,0,1,1.66,1.53v-1.92h4.15v13.55h-4.15v-1.92a4.33,4.33,0,0,1-1.69,1.53,5.17,5.17,0,0,1-2.51.59,5.53,5.53,0,0,1-3-.86,6,6,0,0,1-2.15-2.46,8.11,8.11,0,0,1-.79-3.68A8,8,0,0,1,384.87,197.65Zm8.5,1.24a2.92,2.92,0,0,0-4.2,0,3.34,3.34,0,0,0-.86,2.44,3.43,3.43,0,0,0,.86,2.47,2.76,2.76,0,0,0,2.1.91,2.81,2.81,0,0,0,2.1-.9,3.92,3.92,0,0,0,0-4.9Z"/><path class="cls-4" d="M405.4,190.14v18h-4.15v-18Z"/><path class="cls-4" d="M408.57,192.51a2.2,2.2,0,0,1,0-3.2,2.52,2.52,0,0,1,1.79-.65,2.48,2.48,0,0,1,1.76.65,2.2,2.2,0,0,1,0,3.2,2.48,2.48,0,0,1-1.76.64A2.52,2.52,0,0,1,408.57,192.51Zm3.85,2.05v13.55h-4.15V194.56Z"/><path class="cls-4" d="M423.1,207.68a5.55,5.55,0,0,1-2.36-1.8,4.9,4.9,0,0,1-.94-2.87h4.42a2,2,0,0,0,2.11,2,2.29,2.29,0,0,0,1.46-.43,1.52,1.52,0,0,0,.11-2.22,3.35,3.35,0,0,0-1-.68,17.72,17.72,0,0,0-1.76-.61,19.48,19.48,0,0,1-2.7-1,5,5,0,0,1-1.8-1.5,4.22,4.22,0,0,1-.75-2.6,4.45,4.45,0,0,1,1.73-3.73,7,7,0,0,1,4.49-1.35,7.15,7.15,0,0,1,4.54,1.35,4.82,4.82,0,0,1,1.84,3.75H428a1.73,1.73,0,0,0-.61-1.3,2.16,2.16,0,0,0-1.43-.47,1.75,1.75,0,0,0-1.21.4A1.55,1.55,0,0,0,425,197a12.89,12.89,0,0,0,2.43,1,21.5,21.5,0,0,1,2.68,1.07,5.06,5.06,0,0,1,1.79,1.48,4,4,0,0,1,.75,2.5,4.83,4.83,0,0,1-.74,2.64,5.13,5.13,0,0,1-2.15,1.9,7.35,7.35,0,0,1-3.32.7A8.9,8.9,0,0,1,423.1,207.68Z"/><path class="cls-4" d="M447.15,196a6.09,6.09,0,0,1,1.4,4.24v7.91h-4.13v-7.35a3,3,0,0,0-.7-2.12,2.77,2.77,0,0,0-3.79,0,3,3,0,0,0-.7,2.12v7.35h-4.15v-18h4.15v6.24A4.51,4.51,0,0,1,441,195a5.62,5.62,0,0,1,2.46-.53A4.82,4.82,0,0,1,447.15,196Z"/><path class="cls-4" d="M453.88,207.46a6.28,6.28,0,0,1-2.5-2.43,7.88,7.88,0,0,1,0-7.37,6.32,6.32,0,0,1,2.53-2.44,8,8,0,0,1,7.19,0,6.23,6.23,0,0,1,2.52,2.44,7.16,7.16,0,0,1,.93,3.68,7.07,7.07,0,0,1-.94,3.68,6.3,6.3,0,0,1-2.55,2.44,7.68,7.68,0,0,1-3.6.85A7.58,7.58,0,0,1,453.88,207.46Zm5.61-3.62a3.47,3.47,0,0,0,.84-2.5,3.53,3.53,0,0,0-.81-2.5,2.61,2.61,0,0,0-2-.88,2.65,2.65,0,0,0-2,.86,4.36,4.36,0,0,0,0,5,2.54,2.54,0,0,0,2,.87A2.7,2.7,0,0,0,459.49,203.84Z"/><path class="cls-4" d="M472.45,195a5.21,5.21,0,0,1,2.5-.58,5.6,5.6,0,0,1,3,.85,5.85,5.85,0,0,1,2.14,2.43,8,8,0,0,1,.79,3.66,8.11,8.11,0,0,1-.79,3.68,6,6,0,0,1-2.14,2.46,5.61,5.61,0,0,1-3,.86,5.24,5.24,0,0,1-2.5-.57,4.5,4.5,0,0,1-1.68-1.52v1.89h-4.15v-18h4.15v6.34A4.31,4.31,0,0,1,472.45,195Zm3.39,3.92a2.87,2.87,0,0,0-2.13-.88,2.81,2.81,0,0,0-2.1.9,3.92,3.92,0,0,0,0,4.9,2.9,2.9,0,0,0,4.21,0,3.9,3.9,0,0,0,0-4.91Z"/><path class="cls-4" d="M495.66,202.33h-9.39a2.76,2.76,0,0,0,.81,1.93,2.46,2.46,0,0,0,1.76.67,2.18,2.18,0,0,0,2.16-1.31h4.42A6.08,6.08,0,0,1,492,207.7a7,7,0,0,1-3,.61,7.36,7.36,0,0,1-3.55-.85A6,6,0,0,1,483,205a8.3,8.3,0,0,1,0-7.38,5.9,5.9,0,0,1,2.42-2.43,7.88,7.88,0,0,1,7.06,0,6,6,0,0,1,2.4,2.36,7.2,7.2,0,0,1,.86,3.57A10.24,10.24,0,0,1,495.66,202.33Zm-4.17-2.3a2.14,2.14,0,0,0-.73-1.7,2.69,2.69,0,0,0-1.82-.63,2.63,2.63,0,0,0-1.76.6,2.69,2.69,0,0,0-.89,1.73Z"/><path class="cls-4" d="M498.08,192.51a2.2,2.2,0,0,1,0-3.2,2.52,2.52,0,0,1,1.79-.65,2.48,2.48,0,0,1,1.76.65,2.2,2.2,0,0,1,0,3.2,2.48,2.48,0,0,1-1.76.64A2.52,2.52,0,0,1,498.08,192.51Zm3.85,2.05v13.55h-4.15V194.56Z"/><path class="cls-4" d="M510.77,195.06a4.69,4.69,0,0,1,2.43-.64v4.39h-1.14a3.5,3.5,0,0,0-2.33.67,3,3,0,0,0-.78,2.34v6.29H504.8V194.56H509v2.26A5.46,5.46,0,0,1,510.77,195.06Z"/><path class="cls-4" d="M515.35,192.51a2.18,2.18,0,0,1,0-3.2,2.73,2.73,0,0,1,3.54,0,2.2,2.2,0,0,1,0,3.2,2.77,2.77,0,0,1-3.54,0Zm3.85,2.05v13.55H515V194.56Z"/><path class="cls-4" d="M324.86,224.34a8.22,8.22,0,0,1,3.14-3.08,9.24,9.24,0,0,1,9.13.22,7.57,7.57,0,0,1,3.05,3.75h-3.33a4.53,4.53,0,0,0-1.82-2,5.5,5.5,0,0,0-2.7-.65,5.93,5.93,0,0,0-3,.75,5.28,5.28,0,0,0-2,2.16,7.64,7.64,0,0,0,0,6.56,5.37,5.37,0,0,0,2,2.17,5.84,5.84,0,0,0,3,.77,5.4,5.4,0,0,0,2.7-.66,4.53,4.53,0,0,0,1.82-2h3.33a7.54,7.54,0,0,1-3.05,3.74,8.91,8.91,0,0,1-4.8,1.31,8.68,8.68,0,0,1-4.34-1.11,8.17,8.17,0,0,1-3.13-3.07,9.15,9.15,0,0,1,0-8.88Z"/><path class="cls-4" d="M346,222.61v4.95h5.83v2.26H346V235h6.55v2.25h-9.32v-16.9h9.32v2.26Z"/><path class="cls-4" d="M359.2,236.32a8.26,8.26,0,0,1-3.13-3.08,8.69,8.69,0,0,1-1.15-4.46,8.59,8.59,0,0,1,1.15-4.44,8.19,8.19,0,0,1,3.13-3.08,9.13,9.13,0,0,1,8.69,0,8.19,8.19,0,0,1,3.13,3.08,8.68,8.68,0,0,1,1.14,4.44,8.78,8.78,0,0,1-1.14,4.46,8.26,8.26,0,0,1-3.13,3.08,9.13,9.13,0,0,1-8.69,0Zm7.32-2.06a5.32,5.32,0,0,0,2.06-2.19,7.06,7.06,0,0,0,.74-3.29,7,7,0,0,0-.74-3.28,5.24,5.24,0,0,0-2.06-2.16,6.32,6.32,0,0,0-6,0,5.16,5.16,0,0,0-2.05,2.16,7.66,7.66,0,0,0,0,6.57,5.23,5.23,0,0,0,2.05,2.19,6.24,6.24,0,0,0,6,0Z"/><path class="cls-4" d="M324.39,316.91a6.16,6.16,0,0,1,2.28-2.41,6.09,6.09,0,0,1,3.2-.86,5.84,5.84,0,0,1,2.75.61,5.63,5.63,0,0,1,1.89,1.55v-1.95h2.79v13.38h-2.79v-2a5.51,5.51,0,0,1-1.92,1.58,6.24,6.24,0,0,1-5.93-.25,6.34,6.34,0,0,1-2.27-2.48,7.6,7.6,0,0,1-.84-3.61A7.41,7.41,0,0,1,324.39,316.91Zm9.55,1.22a4,4,0,0,0-1.5-1.56,4,4,0,0,0-5.47,1.52,4.78,4.78,0,0,0-.57,2.39,5,5,0,0,0,.57,2.43,4,4,0,0,0,1.5,1.59,3.82,3.82,0,0,0,2,.55,4,4,0,0,0,3.49-2.1,5,5,0,0,0,.57-2.42A4.84,4.84,0,0,0,333.94,318.13Z"/><path class="cls-4" d="M359.82,314.29a4.78,4.78,0,0,1,2,1.94,6.3,6.3,0,0,1,.72,3.11v7.89h-2.75v-7.48a3.88,3.88,0,0,0-.9-2.75,3.62,3.62,0,0,0-4.91,0,3.84,3.84,0,0,0-.91,2.75v7.48h-2.75v-7.48a3.88,3.88,0,0,0-.9-2.75,3.19,3.19,0,0,0-2.45-1,3.25,3.25,0,0,0-2.47,1,3.88,3.88,0,0,0-.91,2.75v7.48H340.8V313.85h2.76v1.53a4.55,4.55,0,0,1,1.73-1.28,5.4,5.4,0,0,1,2.23-.46,5.88,5.88,0,0,1,2.87.68,4.59,4.59,0,0,1,1.94,2,4.56,4.56,0,0,1,1.89-1.93,5.6,5.6,0,0,1,2.77-.71A5.94,5.94,0,0,1,359.82,314.29Z"/><path class="cls-4" d="M366,311.57a1.77,1.77,0,0,1,1.26-3,1.68,1.68,0,0,1,1.24.51,1.81,1.81,0,0,1,0,2.52,1.68,1.68,0,0,1-1.24.51A1.71,1.71,0,0,1,366,311.57Zm2.62,2.28v13.38h-2.77V313.85Z"/><path class="cls-4" d="M376.53,314.21a4.78,4.78,0,0,1,2.39-.57v2.86h-.7a3.38,3.38,0,0,0-2.47.83,3.93,3.93,0,0,0-.83,2.86v7h-2.77V313.85h2.77v1.95A4.31,4.31,0,0,1,376.53,314.21Z"/><path class="cls-4" d="M381.24,316.91a6.16,6.16,0,0,1,2.28-2.41,6.09,6.09,0,0,1,3.2-.86,5.84,5.84,0,0,1,2.75.61,5.59,5.59,0,0,1,1.88,1.55v-1.95h2.8v13.38h-2.8v-2a5.47,5.47,0,0,1-1.91,1.58,6.24,6.24,0,0,1-5.93-.25,6.34,6.34,0,0,1-2.27-2.48,7.6,7.6,0,0,1-.84-3.61A7.41,7.41,0,0,1,381.24,316.91Zm9.54,1.22A3.9,3.9,0,0,0,387.3,316a3.94,3.94,0,0,0-3.49,2,4.78,4.78,0,0,0-.57,2.39,5,5,0,0,0,.57,2.43,4,4,0,0,0,1.51,1.59,3.8,3.8,0,0,0,2,.55,3.93,3.93,0,0,0,3.48-2.1,5,5,0,0,0,.57-2.42A4.84,4.84,0,0,0,390.78,318.13Z"/><path class="cls-4" d="M400.41,309.26v18h-2.77v-18Z"/><path class="cls-4" d="M404.05,311.57a1.81,1.81,0,0,1,0-2.52,1.73,1.73,0,0,1,1.27-.51,1.77,1.77,0,0,1,0,3.54A1.73,1.73,0,0,1,404.05,311.57Zm2.63,2.28v13.38h-2.77V313.85Z"/><path class="cls-4" d="M410,326.89a1.77,1.77,0,0,1,1.26-3,1.68,1.68,0,0,1,1.24.51,1.81,1.81,0,0,1,0,2.52,1.68,1.68,0,0,1-1.24.51A1.71,1.71,0,0,1,410,326.89Z"/><path class="cls-4" d="M417.91,326.88a5,5,0,0,1-2-1.55,3.85,3.85,0,0,1-.78-2.2H418a2,2,0,0,0,.81,1.42,3,3,0,0,0,1.86.57,3.12,3.12,0,0,0,1.81-.45,1.34,1.34,0,0,0,.64-1.15,1.19,1.19,0,0,0-.71-1.12,13.87,13.87,0,0,0-2.27-.8,20.44,20.44,0,0,1-2.46-.8,4.36,4.36,0,0,1-1.64-1.19,3.14,3.14,0,0,1-.69-2.11,3.3,3.3,0,0,1,.63-2,4.23,4.23,0,0,1,1.81-1.39,6.79,6.79,0,0,1,2.71-.51,5.59,5.59,0,0,1,3.68,1.15,4.13,4.13,0,0,1,1.49,3.14h-2.77a1.93,1.93,0,0,0-.73-1.43,2.67,2.67,0,0,0-1.77-.53,2.8,2.8,0,0,0-1.67.41,1.27,1.27,0,0,0-.59,1.09,1.17,1.17,0,0,0,.39.9,2.9,2.9,0,0,0,.95.57c.37.14.92.31,1.65.52a19.06,19.06,0,0,1,2.39.79,4.49,4.49,0,0,1,1.62,1.18,3.11,3.11,0,0,1,.7,2.06,3.43,3.43,0,0,1-.63,2,4.22,4.22,0,0,1-1.78,1.41,7.38,7.38,0,0,1-5.54-.06Z"/><path class="cls-4" d="M438.36,314.29a4.72,4.72,0,0,1,1.89,1.94,6.52,6.52,0,0,1,.69,3.11v7.89H438.2v-7.48a3.88,3.88,0,0,0-.9-2.75,3.2,3.2,0,0,0-2.45-1,3.25,3.25,0,0,0-2.47,1,3.88,3.88,0,0,0-.91,2.75v7.48H428.7v-18h2.77v6.15a4.55,4.55,0,0,1,1.79-1.31,5.91,5.91,0,0,1,2.36-.46A5.63,5.63,0,0,1,438.36,314.29Z"/><path class="cls-4" d="M446.7,326.59a6.19,6.19,0,0,1-2.41-2.43,7.33,7.33,0,0,1-.87-3.63,7.2,7.2,0,0,1,.9-3.62,6.13,6.13,0,0,1,2.45-2.42,7.51,7.51,0,0,1,6.94,0,6.16,6.16,0,0,1,2.46,2.42,7.2,7.2,0,0,1,.9,3.62,7,7,0,0,1-.93,3.62,6.33,6.33,0,0,1-2.51,2.44,7.18,7.18,0,0,1-3.51.86A6.79,6.79,0,0,1,446.7,326.59Zm5.42-2a3.86,3.86,0,0,0,1.52-1.53,4.92,4.92,0,0,0,.59-2.48,5,5,0,0,0-.56-2.46,3.87,3.87,0,0,0-1.48-1.52,4.08,4.08,0,0,0-2-.51,4,4,0,0,0-2,.51,3.72,3.72,0,0,0-1.44,1.52,5.14,5.14,0,0,0-.53,2.46,4.67,4.67,0,0,0,1.1,3.34,3.64,3.64,0,0,0,2.78,1.18A4.1,4.1,0,0,0,452.12,324.54Z"/><path class="cls-4" d="M464.36,314.25a6,6,0,0,1,2.74-.61,6.1,6.1,0,0,1,3.2.85,5.92,5.92,0,0,1,2.26,2.41,7.59,7.59,0,0,1,.83,3.58,7.72,7.72,0,0,1-.83,3.61,6.19,6.19,0,0,1-2.27,2.48,6,6,0,0,1-3.19.88,6.09,6.09,0,0,1-2.76-.6,5.41,5.41,0,0,1-1.91-1.56v1.94h-2.76v-18h2.76v6.59A5.38,5.38,0,0,1,464.36,314.25Zm5.64,3.84a3.9,3.9,0,0,0-1.51-1.53,4,4,0,0,0-4,0,4,4,0,0,0-1.51,1.56,4.84,4.84,0,0,0-.57,2.4A5,5,0,0,0,463,323a4,4,0,0,0,3.49,2.1,3.84,3.84,0,0,0,2-.55,3.93,3.93,0,0,0,1.51-1.59,5,5,0,0,0,.57-2.43A4.78,4.78,0,0,0,470,318.09Z"/><path class="cls-4" d="M488.15,321.58H477.93a3.69,3.69,0,0,0,1.19,2.57,3.73,3.73,0,0,0,2.62,1,3.24,3.24,0,0,0,3.16-1.87h3a6,6,0,0,1-2.2,3,6.46,6.46,0,0,1-3.94,1.17,6.79,6.79,0,0,1-3.44-.86,6.12,6.12,0,0,1-2.38-2.43,7.44,7.44,0,0,1-.86-3.63,7.6,7.6,0,0,1,.84-3.63,5.87,5.87,0,0,1,2.35-2.41,7,7,0,0,1,3.49-.85,6.78,6.78,0,0,1,3.37.82,5.8,5.8,0,0,1,2.31,2.32,7,7,0,0,1,.83,3.44A9.32,9.32,0,0,1,488.15,321.58Zm-2.79-2.24a3.13,3.13,0,0,0-1.1-2.45,3.86,3.86,0,0,0-2.64-.92,3.51,3.51,0,0,0-2.45.91,3.75,3.75,0,0,0-1.22,2.46Z"/><path class="cls-4" d="M491,311.57a1.79,1.79,0,1,1,1.26.51A1.71,1.71,0,0,1,491,311.57Zm2.62,2.28v13.38h-2.77V313.85Z"/><path class="cls-4" d="M501.47,314.21a4.78,4.78,0,0,1,2.39-.57v2.86h-.7a3.38,3.38,0,0,0-2.47.83,3.93,3.93,0,0,0-.84,2.86v7h-2.76V313.85h2.76v1.95A4.41,4.41,0,0,1,501.47,314.21Z"/><path class="cls-4" d="M506.41,311.57a1.77,1.77,0,0,1,1.26-3,1.68,1.68,0,0,1,1.24.51,1.81,1.81,0,0,1,0,2.52,1.68,1.68,0,0,1-1.24.51A1.71,1.71,0,0,1,506.41,311.57Zm2.62,2.28v13.38h-2.77V313.85Z"/><path class="cls-4" d="M529.77,312.57a7.13,7.13,0,0,1,3.07,2.85,8.31,8.31,0,0,1,1.06,4.26,10.35,10.35,0,0,1-.67,3.72,7.13,7.13,0,0,1-1.92,2.89,4.28,4.28,0,0,1-2.95,1.11,3.13,3.13,0,0,1-1.94-.54,2.37,2.37,0,0,1-.87-1.54,5.59,5.59,0,0,1-1.9,1.53,5.36,5.36,0,0,1-2.38.55,3.81,3.81,0,0,1-2.92-1.12,4.32,4.32,0,0,1-1.06-3.08,7.91,7.91,0,0,1,.76-3.45,6.49,6.49,0,0,1,2.15-2.56,5.35,5.35,0,0,1,3.11-1,3.17,3.17,0,0,1,3,1.44l.21-1.22h2.41l-1.22,6.95a6.2,6.2,0,0,0-.07.9,1.46,1.46,0,0,0,.26.94,1.11,1.11,0,0,0,.91.32,1.89,1.89,0,0,0,1.57-.91,6.45,6.45,0,0,0,1-2.25,10.77,10.77,0,0,0,.33-2.6,6,6,0,0,0-1.8-4.71,7.56,7.56,0,0,0-5.22-1.62,9.8,9.8,0,0,0-5.14,1.36,9.61,9.61,0,0,0-3.56,3.73,11.07,11.07,0,0,0-1.28,5.3,6,6,0,0,0,1.84,4.73,7.7,7.7,0,0,0,5.27,1.63,9,9,0,0,0,4-.85l.37,1.85a12.53,12.53,0,0,1-5,.94,10.25,10.25,0,0,1-4.63-1,7.37,7.37,0,0,1-3.09-2.83,8.13,8.13,0,0,1-1.09-4.26,12.74,12.74,0,0,1,1.61-6.34,12,12,0,0,1,4.48-4.53,12.69,12.69,0,0,1,6.49-1.66A10.47,10.47,0,0,1,529.77,312.57ZM524,324.67a4,4,0,0,0,1.32-1.58,4.57,4.57,0,0,0,.49-2.1,2.83,2.83,0,0,0-.64-1.9,2.26,2.26,0,0,0-1.81-.74,2.82,2.82,0,0,0-1.84.64,4.18,4.18,0,0,0-1.21,1.66,5.6,5.6,0,0,0-.43,2.14,2.76,2.76,0,0,0,.56,1.81,2.08,2.08,0,0,0,1.7.67A3.13,3.13,0,0,0,524,324.67Z"/><path class="cls-4" d="M542,314.25a6,6,0,0,1,2.74-.61,6.1,6.1,0,0,1,3.2.85,5.92,5.92,0,0,1,2.26,2.41,7.59,7.59,0,0,1,.83,3.58,7.72,7.72,0,0,1-.83,3.61,6.19,6.19,0,0,1-2.27,2.48,6,6,0,0,1-3.19.88,6.09,6.09,0,0,1-2.76-.6,5.41,5.41,0,0,1-1.91-1.56v1.94h-2.76v-18H540v6.59A5.38,5.38,0,0,1,542,314.25Zm5.64,3.84a3.9,3.9,0,0,0-1.51-1.53,4,4,0,0,0-4,0,4.12,4.12,0,0,0-1.51,1.56,4.84,4.84,0,0,0-.57,2.4,5,5,0,0,0,.57,2.42,4,4,0,0,0,1.51,1.56,3.88,3.88,0,0,0,2,.54,3.84,3.84,0,0,0,2-.55,3.93,3.93,0,0,0,1.51-1.59,5,5,0,0,0,.57-2.43A4.78,4.78,0,0,0,547.61,318.09Z"/><path class="cls-4" d="M553.51,316.91a6.16,6.16,0,0,1,2.28-2.41,6.06,6.06,0,0,1,3.19-.86,5.85,5.85,0,0,1,2.76.61,5.59,5.59,0,0,1,1.88,1.55v-1.95h2.8v13.38h-2.8v-2a5.57,5.57,0,0,1-1.91,1.58,6,6,0,0,1-2.77.63,5.88,5.88,0,0,1-3.16-.88,6.27,6.27,0,0,1-2.27-2.48,7.6,7.6,0,0,1-.84-3.61A7.41,7.41,0,0,1,553.51,316.91Zm9.54,1.22a4.07,4.07,0,0,0-1.49-1.56,4,4,0,0,0-5.48,1.52,4.78,4.78,0,0,0-.57,2.39,5,5,0,0,0,.57,2.43,3.93,3.93,0,0,0,1.51,1.59,3.8,3.8,0,0,0,2,.55,3.89,3.89,0,0,0,2-.54,3.94,3.94,0,0,0,1.49-1.56,5,5,0,0,0,.57-2.42A4.84,4.84,0,0,0,563.05,318.13Z"/><path class="cls-4" d="M588.94,314.29a4.84,4.84,0,0,1,2,1.94,6.41,6.41,0,0,1,.71,3.11v7.89h-2.74v-7.48A3.88,3.88,0,0,0,588,317a3.2,3.2,0,0,0-2.45-1,3.25,3.25,0,0,0-2.47,1,3.88,3.88,0,0,0-.91,2.75v7.48h-2.74v-7.48a3.88,3.88,0,0,0-.9-2.75,3.2,3.2,0,0,0-2.45-1,3.25,3.25,0,0,0-2.47,1,3.88,3.88,0,0,0-.91,2.75v7.48h-2.77V313.85h2.77v1.53a4.48,4.48,0,0,1,1.73-1.28,5.4,5.4,0,0,1,2.23-.46,5.84,5.84,0,0,1,2.86.68,4.61,4.61,0,0,1,2,2,4.45,4.45,0,0,1,1.89-1.93,5.57,5.57,0,0,1,2.77-.71A6,6,0,0,1,588.94,314.29Z"/><path class="cls-4" d="M594.91,316.91a6.11,6.11,0,0,1,2.29-2.41,6,6,0,0,1,3.19-.86,5.91,5.91,0,0,1,2.76.61A5.69,5.69,0,0,1,605,315.8v-1.95h2.79v13.38H605v-2a5.51,5.51,0,0,1-1.92,1.58,6.24,6.24,0,0,1-5.93-.25,6.34,6.34,0,0,1-2.27-2.48,7.6,7.6,0,0,1-.83-3.61A7.41,7.41,0,0,1,594.91,316.91Zm9.55,1.22a4,4,0,0,0-1.5-1.56,4,4,0,0,0-5.47,1.52,4.78,4.78,0,0,0-.57,2.39,5,5,0,0,0,.57,2.43,4,4,0,0,0,1.5,1.59,3.89,3.89,0,0,0,4,0,3.89,3.89,0,0,0,1.5-1.56,5,5,0,0,0,.57-2.42A4.84,4.84,0,0,0,604.46,318.13Z"/><path class="cls-4" d="M611.17,326.89a1.77,1.77,0,0,1,1.26-3,1.68,1.68,0,0,1,1.24.51,1.81,1.81,0,0,1,0,2.52,1.68,1.68,0,0,1-1.24.51A1.71,1.71,0,0,1,611.17,326.89Z"/><path class="cls-4" d="M617.17,311.57a1.77,1.77,0,0,1,1.26-3,1.68,1.68,0,0,1,1.24.51,1.81,1.81,0,0,1,0,2.52,1.68,1.68,0,0,1-1.24.51A1.71,1.71,0,0,1,617.17,311.57Zm2.62,2.28v13.38H617V313.85Z"/><path class="cls-4" d="M627.67,314.21a4.78,4.78,0,0,1,2.39-.57v2.86h-.7a3.38,3.38,0,0,0-2.47.83,4,4,0,0,0-.83,2.86v7h-2.77V313.85h2.77v1.95A4.31,4.31,0,0,1,627.67,314.21Z"/><path class="cls-4" d="M327.22,382.75v10.76a3.85,3.85,0,0,0,1,2.89,3.89,3.89,0,0,0,2.8,1,3.93,3.93,0,0,0,2.83-1,3.85,3.85,0,0,0,1-2.89V382.75h2.77v10.71a6.46,6.46,0,0,1-.9,3.5,5.58,5.58,0,0,1-2.41,2.13,8.12,8.12,0,0,1-6.64,0,5.46,5.46,0,0,1-2.36-2.13,6.54,6.54,0,0,1-.88-3.5V382.75Z"/><path class="cls-4" d="M350.67,386.68a4.7,4.7,0,0,1,1.95,1.95,6.34,6.34,0,0,1,.71,3.1v7.9h-2.75v-7.48a3.89,3.89,0,0,0-.9-2.76,3.19,3.19,0,0,0-2.45-1,3.25,3.25,0,0,0-2.47,1,3.89,3.89,0,0,0-.91,2.76v7.48h-2.76V386.25h2.76v1.53a4.72,4.72,0,0,1,1.74-1.29,5.49,5.49,0,0,1,2.25-.46A6.11,6.11,0,0,1,350.67,386.68Z"/><path class="cls-4" d="M356.85,384a1.79,1.79,0,1,1,1.26.51A1.71,1.71,0,0,1,356.85,384Zm2.62,2.29v13.38H356.7V386.25Z"/><path class="cls-4" d="M366.19,388.5v7.41a1.41,1.41,0,0,0,.36,1.08,1.72,1.72,0,0,0,1.2.33h1.7v2.31h-2.19a4.17,4.17,0,0,1-2.86-.88,3.58,3.58,0,0,1-1-2.84V388.5h-1.58v-2.25h1.58v-3.33h2.79v3.33h3.26v2.25Z"/><path class="cls-4" d="M378.12,386.39a4.45,4.45,0,0,1,2.62-4.14,8.32,8.32,0,0,1,6.4,0,4.44,4.44,0,0,1,2.63,4.14,4.17,4.17,0,0,1-.69,2.39,4.55,4.55,0,0,1-1.83,1.59,4.45,4.45,0,0,1,2.18,1.67,4.59,4.59,0,0,1,.81,2.71,4.91,4.91,0,0,1-.81,2.79,5.15,5.15,0,0,1-2.23,1.87,8.45,8.45,0,0,1-6.5,0,5.29,5.29,0,0,1-2.22-1.87,5,5,0,0,1-.8-2.79,4.49,4.49,0,0,1,3-4.38A4.17,4.17,0,0,1,378.12,386.39Zm3.21,6a2.7,2.7,0,0,0-1,2.27,2.87,2.87,0,0,0,1,2.25,3.87,3.87,0,0,0,2.65.86,3.7,3.7,0,0,0,2.61-.88,2.87,2.87,0,0,0,1-2.23,2.74,2.74,0,0,0-1-2.26,4,4,0,0,0-2.58-.8A4.13,4.13,0,0,0,381.33,392.38Zm4.95-7.74a3.51,3.51,0,0,0-2.33-.72,3.45,3.45,0,0,0-2.31.72,2.63,2.63,0,0,0-.85,2.12,2.49,2.49,0,0,0,.88,2,3.76,3.76,0,0,0,4.56,0,2.5,2.5,0,0,0,.9-2A2.64,2.64,0,0,0,386.28,384.64Z"/><path class="cls-4" d="M396.4,396.3l-2.94,6.7h-1.79l1.72-6.7Z"/><path class="cls-4" d="M406.18,382.77a6.34,6.34,0,0,1,4.07-1.26,6.49,6.49,0,0,1,2.93.61,4.27,4.27,0,0,1,1.87,1.65,4.48,4.48,0,0,1,.64,2.35,4.14,4.14,0,0,1-.81,2.58,3.87,3.87,0,0,1-1.91,1.43v.1a4.06,4.06,0,0,1,2.23,1.59,5.09,5.09,0,0,1,.8,2.95,5,5,0,0,1-.65,2.55,4.59,4.59,0,0,1-2,1.76,6.8,6.8,0,0,1-3.08.64,6.72,6.72,0,0,1-4.31-1.34,5,5,0,0,1-1.81-3.88h2.67a3,3,0,0,0,1,2.1,3.41,3.41,0,0,0,2.42.82,3.06,3.06,0,0,0,2.29-.82,2.87,2.87,0,0,0,.8-2.1,2.67,2.67,0,0,0-1.08-2.41,6.08,6.08,0,0,0-3.32-.72h-.63v-2.28H409a6,6,0,0,0,3-.66,2.17,2.17,0,0,0,1-2,2.4,2.4,0,0,0-.75-1.86,3.08,3.08,0,0,0-2.14-.69,3,3,0,0,0-2.11.69,2.71,2.71,0,0,0-.9,1.72h-2.7A4.69,4.69,0,0,1,406.18,382.77Z"/><path class="cls-4" d="M423.52,386.6a4.78,4.78,0,0,1,2.39-.57v2.86h-.71a3.37,3.37,0,0,0-2.46.83,3.93,3.93,0,0,0-.84,2.86v7.05h-2.77V386.25h2.77v1.94A4.33,4.33,0,0,1,423.52,386.6Z"/><path class="cls-4" d="M428.23,389.31a6.08,6.08,0,0,1,5.5-3.28,6.27,6.27,0,0,1,2.58.57,5.2,5.2,0,0,1,2,1.52v-6.46h2.79v18h-2.79v-2a5.12,5.12,0,0,1-1.88,1.6,5.85,5.85,0,0,1-2.76.64,6,6,0,0,1-3.19-.89,6.29,6.29,0,0,1-2.28-2.48,7.59,7.59,0,0,1-.84-3.6A7.36,7.36,0,0,1,428.23,389.31Zm9.54,1.21a4,4,0,0,0-1.49-1.55,3.89,3.89,0,0,0-2-.54,4.08,4.08,0,0,0-2,.52,4,4,0,0,0-1.49,1.53,4.81,4.81,0,0,0-.57,2.4,5,5,0,0,0,.57,2.42,4,4,0,0,0,1.51,1.6,3.88,3.88,0,0,0,2,.54,4,4,0,0,0,2-.53,4,4,0,0,0,1.49-1.57,4.92,4.92,0,0,0,.57-2.42A4.84,4.84,0,0,0,437.77,390.52Z"/><path class="cls-4" d="M460.73,382.75V385h-7.16v5h5.58v2.25h-5.58v7.39H450.8V382.75Z"/><path class="cls-4" d="M465.93,381.66v18h-2.77v-18Z"/><path class="cls-4" d="M471.8,399a6.2,6.2,0,0,1-2.4-2.42,7.4,7.4,0,0,1-.87-3.64,7.24,7.24,0,0,1,.89-3.61,6.12,6.12,0,0,1,2.46-2.43,7.51,7.51,0,0,1,6.94,0,6.12,6.12,0,0,1,2.46,2.43,7.24,7.24,0,0,1,.89,3.61,7,7,0,0,1-.92,3.62,6.27,6.27,0,0,1-2.51,2.44,7.19,7.19,0,0,1-3.51.87A6.83,6.83,0,0,1,471.8,399Zm5.43-2.05a3.86,3.86,0,0,0,1.52-1.53,5.64,5.64,0,0,0,0-4.94,3.74,3.74,0,0,0-1.48-1.52,4.12,4.12,0,0,0-4,0,3.59,3.59,0,0,0-1.44,1.52,5.14,5.14,0,0,0-.54,2.46,4.66,4.66,0,0,0,1.11,3.34,3.62,3.62,0,0,0,2.78,1.18A4.1,4.1,0,0,0,477.23,396.93Z"/><path class="cls-4" d="M487.15,399a6.14,6.14,0,0,1-2.4-2.42,7.29,7.29,0,0,1-.88-3.64,7.14,7.14,0,0,1,.9-3.61,6.16,6.16,0,0,1,2.45-2.43,7.53,7.53,0,0,1,6.95,0,6.09,6.09,0,0,1,2.45,2.43,7.64,7.64,0,0,1,0,7.23,6.36,6.36,0,0,1-2.52,2.44,7.18,7.18,0,0,1-3.5.87A6.81,6.81,0,0,1,487.15,399Zm5.43-2.05a3.92,3.92,0,0,0,1.52-1.53,4.89,4.89,0,0,0,.58-2.48,5,5,0,0,0-.56-2.46,3.8,3.8,0,0,0-1.48-1.52,4.07,4.07,0,0,0-2-.51,4,4,0,0,0-2,.51,3.67,3.67,0,0,0-1.45,1.52,5.26,5.26,0,0,0-.53,2.46,4.7,4.7,0,0,0,1.1,3.34,3.66,3.66,0,0,0,2.79,1.18A4.1,4.1,0,0,0,492.58,396.93Z"/><path class="cls-4" d="M504.5,386.6a4.78,4.78,0,0,1,2.39-.57v2.86h-.7a3.36,3.36,0,0,0-2.46.83,3.93,3.93,0,0,0-.84,2.86v7.05h-2.77V386.25h2.77v1.94A4.31,4.31,0,0,1,504.5,386.6Z"/><path class="cls-4" d="M512.33,396.3l-2.94,6.7H507.6l1.72-6.7Z"/><path class="cls-4" d="M529,384.35a3.12,3.12,0,0,0-2-.56,3.17,3.17,0,0,0-2.86,1.47,9.53,9.53,0,0,0-1,4.87,4.2,4.2,0,0,1,1.85-1.65,5.92,5.92,0,0,1,2.62-.58,5.68,5.68,0,0,1,2.83.69,4.94,4.94,0,0,1,1.92,2,7.34,7.34,0,0,1,0,6.17,5,5,0,0,1-2,2.1,6.16,6.16,0,0,1-3.16.77,6.23,6.23,0,0,1-3.92-1.11,5.81,5.81,0,0,1-2-3.12,18.78,18.78,0,0,1-.57-5q0-8.88,6.27-8.88a5.34,5.34,0,0,1,3.82,1.31,5.18,5.18,0,0,1,1.64,3.23h-2.55A2.91,2.91,0,0,0,529,384.35Zm-4.48,6.77a3.18,3.18,0,0,0-1,2.56,3.66,3.66,0,0,0,1,2.66,3.57,3.57,0,0,0,2.68,1,3.14,3.14,0,0,0,2.41-.95,3.5,3.5,0,0,0,.89-2.52,3.9,3.9,0,0,0-.86-2.64,3.22,3.22,0,0,0-2.54-1A3.67,3.67,0,0,0,524.49,391.12Z"/><path class="cls-4" d="M539.46,388.5v7.41a1.44,1.44,0,0,0,.35,1.08,1.74,1.74,0,0,0,1.2.33h1.7v2.31h-2.18a4.19,4.19,0,0,1-2.87-.88,3.61,3.61,0,0,1-1-2.84V388.5h-1.58v-2.25h1.58v-3.33h2.79v3.33h3.25v2.25Z"/><path class="cls-4" d="M554.77,386.68a4.68,4.68,0,0,1,1.89,1.95,6.45,6.45,0,0,1,.7,3.1v7.9h-2.75v-7.48a3.89,3.89,0,0,0-.9-2.76,3.19,3.19,0,0,0-2.45-1,3.25,3.25,0,0,0-2.47,1,3.89,3.89,0,0,0-.91,2.76v7.48h-2.76v-18h2.76v6.14a4.65,4.65,0,0,1,1.79-1.31A5.93,5.93,0,0,1,552,386,5.68,5.68,0,0,1,554.77,386.68Z"/><path class="cls-4" d="M569.4,399.2a5,5,0,0,1-2.14-1.69,4.23,4.23,0,0,1-.77-2.55h3a2.66,2.66,0,0,0,.86,1.8,3.06,3.06,0,0,0,2.15.71,3.29,3.29,0,0,0,2.23-.7,2.23,2.23,0,0,0,.81-1.78,2,2,0,0,0-.5-1.39,3.36,3.36,0,0,0-1.24-.82,16.86,16.86,0,0,0-2-.63,19.18,19.18,0,0,1-2.69-.89,4.39,4.39,0,0,1-1.76-1.4,4.06,4.06,0,0,1-.73-2.52,4.54,4.54,0,0,1,.73-2.55,4.71,4.71,0,0,1,2-1.68,7.6,7.6,0,0,1,3-.58,6.34,6.34,0,0,1,4,1.23,4.51,4.51,0,0,1,1.73,3.36H575a2.21,2.21,0,0,0-.87-1.58,3.28,3.28,0,0,0-2.11-.65,3,3,0,0,0-1.95.6,2.13,2.13,0,0,0-.75,1.75,1.8,1.8,0,0,0,.47,1.28,3.48,3.48,0,0,0,1.21.79,20.27,20.27,0,0,0,2,.63,20.94,20.94,0,0,1,2.73.92,4.65,4.65,0,0,1,1.8,1.42,4.1,4.1,0,0,1,.74,2.56,4.62,4.62,0,0,1-.69,2.43,5.07,5.07,0,0,1-2,1.83,6.53,6.53,0,0,1-3.12.7A7.53,7.53,0,0,1,569.4,399.2Z"/><path class="cls-4" d="M584.65,388.5v7.41A1.44,1.44,0,0,0,585,397a1.76,1.76,0,0,0,1.2.33h1.7v2.31h-2.18a4.19,4.19,0,0,1-2.87-.88,3.61,3.61,0,0,1-1-2.84V388.5h-1.58v-2.25h1.58v-3.33h2.79v3.33h3.25v2.25Z"/><path class="cls-4" d="M590.16,399.29a1.78,1.78,0,0,1,1.26-3,1.68,1.68,0,0,1,1.24.51,1.82,1.82,0,0,1,0,2.53,1.68,1.68,0,0,1-1.24.51A1.71,1.71,0,0,1,590.16,399.29Z"/><path class="cls-4" d="M599.05,396.3l-2.94,6.7h-1.8l1.73-6.7Z"/><path class="cls-4" d="M616.8,399.63l-6.53-7.56v7.56H607.5V382.75h2.77v7.7l6.56-7.7h3.47L613,391.2l7.46,8.43Z"/><path class="cls-4" d="M622.64,389.31a6.12,6.12,0,0,1,2.28-2.42,6.19,6.19,0,0,1,3.2-.86,5.72,5.72,0,0,1,2.75.62,5.49,5.49,0,0,1,1.89,1.54v-1.94h2.79v13.38h-2.79v-2a5.49,5.49,0,0,1-1.92,1.57,6.17,6.17,0,0,1-5.93-.25,6.34,6.34,0,0,1-2.27-2.48,7.59,7.59,0,0,1-.84-3.6A7.36,7.36,0,0,1,622.64,389.31Zm9.55,1.21a4,4,0,0,0-1.5-1.55,3.86,3.86,0,0,0-2-.54,4,4,0,0,0-2,.52,3.92,3.92,0,0,0-1.49,1.53,4.71,4.71,0,0,0-.57,2.4,4.84,4.84,0,0,0,.57,2.42,4.07,4.07,0,0,0,1.5,1.6,3.88,3.88,0,0,0,2,.54,4,4,0,0,0,2-.53,4.06,4.06,0,0,0,1.5-1.57,4.92,4.92,0,0,0,.57-2.42A4.84,4.84,0,0,0,632.19,390.52Z"/><path class="cls-4" d="M641.81,402.25a3.65,3.65,0,0,1-1,2.85A4.14,4.14,0,0,1,638,406h-1.44v-2.33h1a1.72,1.72,0,0,0,1.2-.33,1.41,1.41,0,0,0,.36-1.08v-16h2.76ZM639.19,384a1.77,1.77,0,0,1,1.26-3,1.68,1.68,0,0,1,1.24.51,1.81,1.81,0,0,1,0,2.52,1.68,1.68,0,0,1-1.24.51A1.71,1.71,0,0,1,639.19,384Z"/><path class="cls-4" d="M654,399.2a5,5,0,0,1-2.14-1.69,4.23,4.23,0,0,1-.77-2.55h3a2.66,2.66,0,0,0,.86,1.8,3.06,3.06,0,0,0,2.15.71,3.29,3.29,0,0,0,2.23-.7,2.23,2.23,0,0,0,.81-1.78,2,2,0,0,0-.5-1.39,3.36,3.36,0,0,0-1.24-.82,16.86,16.86,0,0,0-2.05-.63,19.18,19.18,0,0,1-2.69-.89,4.46,4.46,0,0,1-1.76-1.4,4.06,4.06,0,0,1-.73-2.52,4.54,4.54,0,0,1,.73-2.55,4.71,4.71,0,0,1,2-1.68,7.6,7.6,0,0,1,3-.58,6.34,6.34,0,0,1,4,1.23,4.51,4.51,0,0,1,1.73,3.36h-3.06a2.21,2.21,0,0,0-.87-1.58,3.26,3.26,0,0,0-2.11-.65,3,3,0,0,0-2,.6,2.13,2.13,0,0,0-.75,1.75,1.8,1.8,0,0,0,.47,1.28,3.48,3.48,0,0,0,1.21.79,20.27,20.27,0,0,0,2,.63,20.94,20.94,0,0,1,2.73.92,4.65,4.65,0,0,1,1.8,1.42,4.1,4.1,0,0,1,.74,2.56,4.62,4.62,0,0,1-.69,2.43,5.07,5.07,0,0,1-2,1.83,6.53,6.53,0,0,1-3.12.7A7.53,7.53,0,0,1,654,399.2Z"/><path class="cls-4" d="M665.92,389.31a6,6,0,0,1,2.28-2.42,6.18,6.18,0,0,1,3.22-.86,5.84,5.84,0,0,1,2.75.63,5.31,5.31,0,0,1,1.86,1.53v-1.94h2.79V406H676v-8.31a5.21,5.21,0,0,1-1.9,1.53,6.09,6.09,0,0,1-2.81.64,5.86,5.86,0,0,1-3.15-.89,6.29,6.29,0,0,1-2.25-2.48,7.59,7.59,0,0,1-.84-3.6A7.36,7.36,0,0,1,665.92,389.31Zm9.54,1.21A3.93,3.93,0,0,0,674,389a3.84,3.84,0,0,0-2-.54,4.08,4.08,0,0,0-2,.52,4,4,0,0,0-1.49,1.53,4.81,4.81,0,0,0-.57,2.4,5,5,0,0,0,.57,2.42,4,4,0,0,0,1.51,1.6,3.87,3.87,0,0,0,2,.54,3.93,3.93,0,0,0,2-.53,4,4,0,0,0,1.5-1.57,4.92,4.92,0,0,0,.57-2.42A4.84,4.84,0,0,0,675.46,390.52Z"/><path class="cls-4" d="M694.44,386.25v13.38h-2.77v-1.58a4.58,4.58,0,0,1-1.71,1.3,5.57,5.57,0,0,1-2.25.47,6.08,6.08,0,0,1-2.83-.65,4.8,4.8,0,0,1-2-1.95,6.38,6.38,0,0,1-.71-3.11v-7.86h2.74v7.45a3.89,3.89,0,0,0,.9,2.76,3.2,3.2,0,0,0,2.45,1,3.25,3.25,0,0,0,2.47-1,3.85,3.85,0,0,0,.91-2.76v-7.45Z"/><path class="cls-4" d="M697.85,389.31a6.08,6.08,0,0,1,5.47-3.28,5.74,5.74,0,0,1,2.76.62,5.45,5.45,0,0,1,1.88,1.54v-1.94h2.8v13.38H708v-2a5.49,5.49,0,0,1-1.92,1.57,6.15,6.15,0,0,1-5.92-.25,6.27,6.27,0,0,1-2.27-2.48,7.59,7.59,0,0,1-.84-3.6A7.36,7.36,0,0,1,697.85,389.31Zm9.54,1.21A4,4,0,0,0,705.9,389a3.89,3.89,0,0,0-2-.54,4,4,0,0,0-2,.52,3.94,3.94,0,0,0-1.5,1.53,4.81,4.81,0,0,0-.57,2.4,5,5,0,0,0,.57,2.42,4,4,0,0,0,1.51,1.6,3.88,3.88,0,0,0,2,.54,4,4,0,0,0,2-.53,4,4,0,0,0,1.49-1.57,4.92,4.92,0,0,0,.57-2.42A4.84,4.84,0,0,0,707.39,390.52Z"/><path class="cls-4" d="M718.63,386.6A4.81,4.81,0,0,1,721,386v2.86h-.71a3.37,3.37,0,0,0-2.46.83,3.93,3.93,0,0,0-.84,2.86v7.05h-2.77V386.25H717v1.94A4.31,4.31,0,0,1,718.63,386.6Z"/><path class="cls-4" d="M735.6,394H725.37a3.69,3.69,0,0,0,1.19,2.57,3.77,3.77,0,0,0,2.63,1,3.22,3.22,0,0,0,3.15-1.87h3a6.1,6.1,0,0,1-2.2,3,6.46,6.46,0,0,1-3.94,1.18,6.79,6.79,0,0,1-3.44-.87,6.09,6.09,0,0,1-2.38-2.42,7.39,7.39,0,0,1-.86-3.64,7.6,7.6,0,0,1,.84-3.63,5.81,5.81,0,0,1,2.35-2.41,7,7,0,0,1,3.49-.85,6.81,6.81,0,0,1,3.37.82,5.86,5.86,0,0,1,2.31,2.32,7,7,0,0,1,.82,3.44A9.4,9.4,0,0,1,735.6,394Zm-2.8-2.24a3.14,3.14,0,0,0-1.09-2.45,3.92,3.92,0,0,0-2.65-.92,3.54,3.54,0,0,0-2.45.91,3.81,3.81,0,0,0-1.21,2.46Z"/><path class="cls-4" d="M327,428.34a5,5,0,0,1-2.14-1.68,4.28,4.28,0,0,1-.78-2.55h3a2.65,2.65,0,0,0,.86,1.79,3,3,0,0,0,2.15.71,3.26,3.26,0,0,0,2.23-.7,2.25,2.25,0,0,0,.8-1.78,1.89,1.89,0,0,0-.5-1.38,3.23,3.23,0,0,0-1.23-.83,20.88,20.88,0,0,0-2.06-.63,19,19,0,0,1-2.68-.89,4.45,4.45,0,0,1-1.76-1.39,4,4,0,0,1-.73-2.53,4.46,4.46,0,0,1,.73-2.55,4.71,4.71,0,0,1,2-1.68,7.56,7.56,0,0,1,3-.58,6.29,6.29,0,0,1,4,1.23,4.5,4.5,0,0,1,1.74,3.36h-3.06a2.25,2.25,0,0,0-.87-1.58,3.29,3.29,0,0,0-2.12-.65,3,3,0,0,0-1.94.6,2.13,2.13,0,0,0-.75,1.75,1.8,1.8,0,0,0,.47,1.28,3.53,3.53,0,0,0,1.2.79c.49.19,1.15.4,2,.63a21.15,21.15,0,0,1,2.74.92,4.55,4.55,0,0,1,1.79,1.42,4.06,4.06,0,0,1,.75,2.56,4.63,4.63,0,0,1-.7,2.43,5.06,5.06,0,0,1-2,1.84,6.71,6.71,0,0,1-3.12.69A7.46,7.46,0,0,1,327,428.34Z"/><path class="cls-4" d="M338.91,418.45a6.08,6.08,0,0,1,5.48-3.28,5.84,5.84,0,0,1,2.75.62,5.49,5.49,0,0,1,1.89,1.54v-1.94h2.79v13.38H349v-2a5.49,5.49,0,0,1-1.92,1.57,5.81,5.81,0,0,1-2.77.64,5.92,5.92,0,0,1-3.16-.89,6.34,6.34,0,0,1-2.27-2.48,7.59,7.59,0,0,1-.84-3.6A7.36,7.36,0,0,1,338.91,418.45Zm9.55,1.21a3.93,3.93,0,0,0-1.5-1.55,3.86,3.86,0,0,0-2-.54,4,4,0,0,0-2,.52,3.92,3.92,0,0,0-1.49,1.53,4.81,4.81,0,0,0-.57,2.4,5,5,0,0,0,.57,2.43A4.11,4.11,0,0,0,343,426a3.91,3.91,0,0,0,2,.54,3.91,3.91,0,0,0,3.49-2.1,4.91,4.91,0,0,0,.57-2.41A4.85,4.85,0,0,0,348.46,419.66Z"/><path class="cls-4" d="M356.82,409.41l-.29,5h-1.89l-.32-5Z"/><path class="cls-4" d="M359.26,418.45a6.08,6.08,0,0,1,5.48-3.28,5.84,5.84,0,0,1,2.75.62,5.49,5.49,0,0,1,1.89,1.54v-1.94h2.79v13.38h-2.79v-2a5.49,5.49,0,0,1-1.92,1.57,5.83,5.83,0,0,1-2.77.64,5.92,5.92,0,0,1-3.16-.89,6.34,6.34,0,0,1-2.27-2.48,7.59,7.59,0,0,1-.84-3.6A7.36,7.36,0,0,1,359.26,418.45Zm9.55,1.21a4,4,0,0,0-1.5-1.55,3.86,3.86,0,0,0-2-.54,4,4,0,0,0-2,.52,3.92,3.92,0,0,0-1.49,1.53,4.81,4.81,0,0,0-.57,2.4,5,5,0,0,0,.57,2.43,4.11,4.11,0,0,0,1.5,1.59,3.88,3.88,0,0,0,2,.54,4,4,0,0,0,2-.53,4.06,4.06,0,0,0,1.5-1.57,4.91,4.91,0,0,0,.57-2.41A4.85,4.85,0,0,0,368.81,419.66Z"/><path class="cls-4" d="M375.58,418.45a6.08,6.08,0,0,1,5.5-3.28,6.28,6.28,0,0,1,2.59.57,5.38,5.38,0,0,1,2,1.52V410.8h2.79v18H385.7v-2a5.24,5.24,0,0,1-1.89,1.6,5.72,5.72,0,0,1-2.75.64,6,6,0,0,1-3.2-.89,6.29,6.29,0,0,1-2.28-2.48,7.59,7.59,0,0,1-.84-3.6A7.36,7.36,0,0,1,375.58,418.45Zm9.54,1.21a3.91,3.91,0,0,0-1.49-1.55,3.86,3.86,0,0,0-2-.54,4,4,0,0,0-2,.52,3.92,3.92,0,0,0-1.49,1.53,4.71,4.71,0,0,0-.58,2.4,4.91,4.91,0,0,0,.58,2.43,4.11,4.11,0,0,0,1.5,1.59,3.88,3.88,0,0,0,2,.54,3.88,3.88,0,0,0,3.48-2.1,4.91,4.91,0,0,0,.58-2.41A4.86,4.86,0,0,0,385.12,419.66Z"/><path class="cls-4" d="M391.9,418.45a6.08,6.08,0,0,1,5.48-3.28,5.84,5.84,0,0,1,2.75.62,5.45,5.45,0,0,1,1.88,1.54v-1.94h2.8v13.38H402v-2a5.54,5.54,0,0,1-1.91,1.57,6.17,6.17,0,0,1-5.93-.25,6.27,6.27,0,0,1-2.27-2.48,7.59,7.59,0,0,1-.84-3.6A7.36,7.36,0,0,1,391.9,418.45Zm9.54,1.21a4,4,0,0,0-1.49-1.55,3.89,3.89,0,0,0-2-.54,4,4,0,0,0-2,.52,3.94,3.94,0,0,0-1.5,1.53,4.81,4.81,0,0,0-.57,2.4,5,5,0,0,0,.57,2.43A4.14,4.14,0,0,0,396,426a3.88,3.88,0,0,0,2,.54,4,4,0,0,0,2-.53,4,4,0,0,0,1.49-1.57,4.91,4.91,0,0,0,.57-2.41A4.85,4.85,0,0,0,401.44,419.66Z"/><path class="cls-4" d="M411.53,417.65v7.4a1.41,1.41,0,0,0,.36,1.08,1.72,1.72,0,0,0,1.2.33h1.7v2.31H412.6a4.17,4.17,0,0,1-2.86-.88,3.58,3.58,0,0,1-1-2.84v-7.4h-1.58v-2.26h1.58v-3.33h2.79v3.33h3.26v2.26Z"/><path class="cls-4" d="M433.53,425.32h-7.06l-1.22,3.45h-2.89l6.05-16.9h3.21l6,16.9h-2.91Zm-.77-2.26L430,415.22l-2.76,7.84Z"/><path class="cls-4" d="M444.84,415.79a6,6,0,0,1,2.73-.62,6.16,6.16,0,0,1,3.21.85,6,6,0,0,1,2.25,2.41,7.6,7.6,0,0,1,.83,3.59,7.7,7.7,0,0,1-.83,3.6,6.12,6.12,0,0,1-2.27,2.48,6,6,0,0,1-3.19.89,6.09,6.09,0,0,1-2.76-.61,5.35,5.35,0,0,1-1.9-1.55v1.94h-2.77v-18h2.77v6.58A5.18,5.18,0,0,1,444.84,415.79Zm5.63,3.83a3.94,3.94,0,0,0-1.5-1.53,4.18,4.18,0,0,0-2-.52,4,4,0,0,0-3.48,2.09,4.85,4.85,0,0,0-.57,2.41,4.91,4.91,0,0,0,.57,2.41A4,4,0,0,0,449,426a4.11,4.11,0,0,0,1.5-1.59A5,5,0,0,0,451,422,4.81,4.81,0,0,0,450.47,419.62Z"/><path class="cls-4" d="M456.37,418.45a6.11,6.11,0,0,1,5.48-3.28,5.91,5.91,0,0,1,2.76.62,5.55,5.55,0,0,1,1.88,1.54v-1.94h2.79v13.38h-2.79v-2a5.49,5.49,0,0,1-1.92,1.57,5.81,5.81,0,0,1-2.77.64,5.92,5.92,0,0,1-3.16-.89,6.34,6.34,0,0,1-2.27-2.48,7.58,7.58,0,0,1-.83-3.6A7.35,7.35,0,0,1,456.37,418.45Zm9.55,1.21a3.93,3.93,0,0,0-1.5-1.55,3.86,3.86,0,0,0-2-.54,4.08,4.08,0,0,0-2,.52,4,4,0,0,0-1.49,1.53,4.81,4.81,0,0,0-.57,2.4,5,5,0,0,0,.57,2.43,4.11,4.11,0,0,0,1.5,1.59,3.95,3.95,0,0,0,4,0,4,4,0,0,0,1.5-1.57,4.91,4.91,0,0,0,.57-2.41A4.85,4.85,0,0,0,465.92,419.66Z"/><path class="cls-4" d="M472.69,418.45a6.08,6.08,0,0,1,5.5-3.28,6.28,6.28,0,0,1,2.59.57,5.38,5.38,0,0,1,2,1.52V410.8h2.79v18h-2.79v-2a5.24,5.24,0,0,1-1.89,1.6,5.72,5.72,0,0,1-2.75.64,6,6,0,0,1-3.2-.89,6.29,6.29,0,0,1-2.28-2.48,7.59,7.59,0,0,1-.84-3.6A7.36,7.36,0,0,1,472.69,418.45Zm9.55,1.21a4,4,0,0,0-1.5-1.55,3.86,3.86,0,0,0-2-.54,4,4,0,0,0-2,.52,3.92,3.92,0,0,0-1.49,1.53,4.71,4.71,0,0,0-.57,2.4,4.9,4.9,0,0,0,.57,2.43,4.11,4.11,0,0,0,1.5,1.59,3.88,3.88,0,0,0,2,.54,4,4,0,0,0,2-.53,4.06,4.06,0,0,0,1.5-1.57,4.91,4.91,0,0,0,.57-2.41A4.85,4.85,0,0,0,482.24,419.66Z"/><path class="cls-4" d="M505.44,425.32h-7.07l-1.21,3.45h-2.89l6-16.9h3.21l6.05,16.9h-2.92Zm-.78-2.26-2.74-7.84-2.77,7.84Z"/><path class="cls-4" d="M517.22,426.29l3.78-10.9h2.94l-5.1,13.38h-3.3l-5.07-13.38h3Z"/><path class="cls-4" d="M538.05,423.11H527.83a3.65,3.65,0,0,0,1.19,2.57,3.73,3.73,0,0,0,2.62,1,3.26,3.26,0,0,0,3.16-1.87h3a6,6,0,0,1-2.19,3,6.49,6.49,0,0,1-4,1.18,6.82,6.82,0,0,1-3.44-.87,6.16,6.16,0,0,1-2.38-2.42,7.49,7.49,0,0,1-.86-3.63,7.61,7.61,0,0,1,.84-3.64,5.89,5.89,0,0,1,2.36-2.41,7,7,0,0,1,3.48-.85A6.85,6.85,0,0,1,535,416a5.9,5.9,0,0,1,2.3,2.32,7,7,0,0,1,.83,3.44A8,8,0,0,1,538.05,423.11Zm-2.79-2.23a3.19,3.19,0,0,0-1.09-2.46,4,4,0,0,0-2.65-.92,3.53,3.53,0,0,0-2.45.91,3.82,3.82,0,0,0-1.22,2.47Z"/><path class="cls-4" d="M540.58,428.43a1.78,1.78,0,0,1,1.26-3,1.68,1.68,0,0,1,1.24.51,1.82,1.82,0,0,1,0,2.53,1.68,1.68,0,0,1-1.24.51A1.71,1.71,0,0,1,540.58,428.43Z"/><path class="cls-4" d="M562.87,418.81v2.33h-10v-2.33Z"/><path class="cls-4" d="M583.73,411.89v2.26h-4.49v14.62h-2.77V414.15H572v-2.26Z"/><path class="cls-4" d="M598.54,423.11H588.32a3.69,3.69,0,0,0,1.19,2.57,3.73,3.73,0,0,0,2.62,1,3.26,3.26,0,0,0,3.16-1.87h3a6.08,6.08,0,0,1-2.2,3,6.49,6.49,0,0,1-4,1.18,6.75,6.75,0,0,1-3.43-.87,6,6,0,0,1-2.38-2.42,7.38,7.38,0,0,1-.87-3.63,7.61,7.61,0,0,1,.84-3.64,5.89,5.89,0,0,1,2.36-2.41,7,7,0,0,1,3.48-.85,6.85,6.85,0,0,1,3.38.82,5.9,5.9,0,0,1,2.3,2.32,7,7,0,0,1,.83,3.44A8,8,0,0,1,598.54,423.11Zm-2.79-2.23a3.19,3.19,0,0,0-1.09-2.46,4,4,0,0,0-2.65-.92,3.53,3.53,0,0,0-2.45.91,3.82,3.82,0,0,0-1.22,2.47Z"/><path class="cls-4" d="M610.87,415.82a4.68,4.68,0,0,1,1.89,1.95,6.5,6.5,0,0,1,.69,3.11v7.89h-2.74v-7.48a3.89,3.89,0,0,0-.9-2.76,3.2,3.2,0,0,0-2.45-1,3.25,3.25,0,0,0-2.47,1,3.89,3.89,0,0,0-.91,2.76v7.48h-2.77v-18H604v6.14a4.76,4.76,0,0,1,1.79-1.31,5.91,5.91,0,0,1,2.36-.46A5.75,5.75,0,0,1,610.87,415.82Z"/><path class="cls-4" d="M621.21,415.74a4.78,4.78,0,0,1,2.39-.57V418h-.7a3.38,3.38,0,0,0-2.47.83,4,4,0,0,0-.83,2.87v7h-2.77V415.39h2.77v1.94A4.31,4.31,0,0,1,621.21,415.74Z"/><path class="cls-4" d="M625.92,418.45a6.08,6.08,0,0,1,5.48-3.28,5.84,5.84,0,0,1,2.75.62,5.49,5.49,0,0,1,1.89,1.54v-1.94h2.79v13.38H636v-2a5.49,5.49,0,0,1-1.92,1.57,5.83,5.83,0,0,1-2.77.64,5.92,5.92,0,0,1-3.16-.89,6.34,6.34,0,0,1-2.27-2.48,7.59,7.59,0,0,1-.84-3.6A7.36,7.36,0,0,1,625.92,418.45Zm9.55,1.21a4,4,0,0,0-1.5-1.55,3.86,3.86,0,0,0-2-.54,4,4,0,0,0-2,.52,3.92,3.92,0,0,0-1.49,1.53,4.81,4.81,0,0,0-.57,2.4,5,5,0,0,0,.57,2.43A4.11,4.11,0,0,0,630,426a3.88,3.88,0,0,0,2,.54,4,4,0,0,0,2-.53,4.06,4.06,0,0,0,1.5-1.57,4.91,4.91,0,0,0,.57-2.41A4.85,4.85,0,0,0,635.47,419.66Z"/><path class="cls-4" d="M651.91,415.82a4.7,4.7,0,0,1,2,1.95,6.38,6.38,0,0,1,.7,3.11v7.89h-2.74v-7.48a3.89,3.89,0,0,0-.9-2.76,3.2,3.2,0,0,0-2.45-1,3.25,3.25,0,0,0-2.47,1,3.89,3.89,0,0,0-.91,2.76v7.48h-2.76V415.39h2.76v1.53a4.72,4.72,0,0,1,1.74-1.29,5.49,5.49,0,0,1,2.25-.46A6.11,6.11,0,0,1,651.91,415.82Z"/><path class="cls-4" d="M335.38,441v2.26h-4.49v14.62h-2.77V443.29H323.6V441Z"/><path class="cls-4" d="M345.25,442.26q1.42-2.37,4.89-2.37t4.9,2.37a12.87,12.87,0,0,1,1.42,6.57,13.13,13.13,0,0,1-1.42,6.64q-1.43,2.38-4.9,2.39t-4.89-2.39a13,13,0,0,1-1.42-6.64A12.77,12.77,0,0,1,345.25,442.26Zm8.23,3.24a4.41,4.41,0,0,0-1-2.22,2.94,2.94,0,0,0-2.31-.86,2.9,2.9,0,0,0-2.3.86,4.42,4.42,0,0,0-1,2.22,18.53,18.53,0,0,0-.25,3.33,20.43,20.43,0,0,0,.24,3.42,4.22,4.22,0,0,0,1,2.23,3.58,3.58,0,0,0,4.63,0,4.3,4.3,0,0,0,1-2.23,20.43,20.43,0,0,0,.24-3.42A18.44,18.44,0,0,0,353.48,445.5Z"/><path class="cls-4" d="M360.78,454.14q2.33-2,3.68-3.31a15,15,0,0,0,2.25-2.71,5.27,5.27,0,0,0,.89-2.81,3.46,3.46,0,0,0-.69-2.29,2.67,2.67,0,0,0-2.17-.82,2.75,2.75,0,0,0-2.22.91,3.74,3.74,0,0,0-.84,2.44H359a5.94,5.94,0,0,1,9.84-4.25,5.17,5.17,0,0,1,1.5,3.88,6.93,6.93,0,0,1-.89,3.37,13.59,13.59,0,0,1-2.11,2.89q-1.23,1.28-3.12,2.95l-1.09,1h7.69v2.31H359v-2Z"/><path class="cls-4" d="M372.75,442.73v-2.52h5.05v17.7H375V442.73Z"/><path class="cls-4" d="M387.3,454.22v-2.09l8.16-11.71h3.35v11.39h2.26v2.41h-2.26v3.69h-2.72v-3.69Zm8.91-11-5.73,8.57h5.73Z"/><path class="cls-4" d="M404.89,441.06a6.31,6.31,0,0,1,4.07-1.27,6.71,6.71,0,0,1,2.94.61,4.39,4.39,0,0,1,1.87,1.65,4.48,4.48,0,0,1,.63,2.36,4.18,4.18,0,0,1-.8,2.57,3.94,3.94,0,0,1-1.92,1.43v.1a4.06,4.06,0,0,1,2.23,1.59,5,5,0,0,1,.8,2.95,4.89,4.89,0,0,1-.65,2.55,4.56,4.56,0,0,1-1.94,1.76A6.84,6.84,0,0,1,409,458a6.69,6.69,0,0,1-4.31-1.35,5,5,0,0,1-1.81-3.88h2.67a3.08,3.08,0,0,0,1,2.11,3.5,3.5,0,0,0,2.43.81,3.07,3.07,0,0,0,2.28-.81,2.91,2.91,0,0,0,.8-2.11,2.68,2.68,0,0,0-1.08-2.41,6.07,6.07,0,0,0-3.31-.72h-.64v-2.28h.66a6,6,0,0,0,3-.66,2.15,2.15,0,0,0,1-2,2.43,2.43,0,0,0-.75-1.86,3.06,3.06,0,0,0-2.14-.69,3,3,0,0,0-2.11.69,2.87,2.87,0,0,0-.9,1.72h-2.7A4.65,4.65,0,0,1,404.89,441.06Z"/><path class="cls-4" d="M417.14,454.22v-2.09l8.16-11.71h3.35v11.39h2.26v2.41h-2.26v3.69h-2.72v-3.69Zm8.91-11-5.73,8.57h5.73Z"/><path class="cls-4" d="M434.47,442.26q1.42-2.37,4.89-2.37t4.89,2.37a12.76,12.76,0,0,1,1.43,6.57,13,13,0,0,1-1.43,6.64q-1.41,2.38-4.89,2.39t-4.89-2.39a13,13,0,0,1-1.42-6.64A12.77,12.77,0,0,1,434.47,442.26Zm8.23,3.24a4.41,4.41,0,0,0-1-2.22,3.53,3.53,0,0,0-4.62,0,4.5,4.5,0,0,0-1,2.22,18.53,18.53,0,0,0-.25,3.33,20.43,20.43,0,0,0,.24,3.42,4.29,4.29,0,0,0,1,2.23,3.59,3.59,0,0,0,4.64,0,4.21,4.21,0,0,0,1-2.23,19.31,19.31,0,0,0,.25-3.42A18.44,18.44,0,0,0,442.7,445.5Z"/><path class="cls-4" d="M465.86,442.34l-6.76,15.57h-2.79l6.82-15.28h-9v-2.35h11.71Z"/><path class="cls-4" d="M469.51,442.26q1.42-2.37,4.89-2.37t4.9,2.37a12.87,12.87,0,0,1,1.42,6.57,13.13,13.13,0,0,1-1.42,6.64q-1.43,2.38-4.9,2.39t-4.89-2.39a13,13,0,0,1-1.42-6.64A12.77,12.77,0,0,1,469.51,442.26Zm8.23,3.24a4.41,4.41,0,0,0-1-2.22,2.94,2.94,0,0,0-2.31-.86,2.9,2.9,0,0,0-2.3.86,4.42,4.42,0,0,0-1,2.22,18.53,18.53,0,0,0-.25,3.33,20.43,20.43,0,0,0,.24,3.42,4.29,4.29,0,0,0,1,2.23,3.59,3.59,0,0,0,4.64,0,4.21,4.21,0,0,0,1-2.23,19.31,19.31,0,0,0,.25-3.42A18.44,18.44,0,0,0,477.74,445.5Z"/><path class="cls-4" d="M484.93,442.26q1.43-2.37,4.89-2.37t4.9,2.37a12.87,12.87,0,0,1,1.42,6.57,13.13,13.13,0,0,1-1.42,6.64q-1.43,2.38-4.9,2.39t-4.89-2.39a13,13,0,0,1-1.42-6.64A12.77,12.77,0,0,1,484.93,442.26Zm8.23,3.24a4.41,4.41,0,0,0-1-2.22,2.94,2.94,0,0,0-2.31-.86,2.9,2.9,0,0,0-2.3.86,4.42,4.42,0,0,0-1,2.22,18.53,18.53,0,0,0-.25,3.33,20.43,20.43,0,0,0,.24,3.42,4.29,4.29,0,0,0,1,2.23,3.59,3.59,0,0,0,4.64,0,4.21,4.21,0,0,0,1-2.23,19.31,19.31,0,0,0,.25-3.42A18.44,18.44,0,0,0,493.16,445.5Z"/><path class="cls-4" d="M500.35,442.26q1.42-2.37,4.89-2.37t4.9,2.37a12.87,12.87,0,0,1,1.42,6.57,13.13,13.13,0,0,1-1.42,6.64q-1.42,2.38-4.9,2.39t-4.89-2.39a13,13,0,0,1-1.42-6.64A12.77,12.77,0,0,1,500.35,442.26Zm8.23,3.24a4.41,4.41,0,0,0-1-2.22,2.94,2.94,0,0,0-2.31-.86,2.9,2.9,0,0,0-2.3.86,4.42,4.42,0,0,0-1,2.22,18.53,18.53,0,0,0-.25,3.33,20.43,20.43,0,0,0,.24,3.42,4.29,4.29,0,0,0,1,2.23,3.59,3.59,0,0,0,4.64,0,4.21,4.21,0,0,0,1-2.23,19.31,19.31,0,0,0,.25-3.42A18.44,18.44,0,0,0,508.58,445.5Z"/><path class="cls-4" d="M531.15,448v2.33h-10V448Z"/><path class="cls-4" d="M545.24,455a3.39,3.39,0,0,0,2.16.63,2.74,2.74,0,0,0,2.53-1.36,9.82,9.82,0,0,0,.8-4.64,3.77,3.77,0,0,1-1.64,1.27,5.82,5.82,0,0,1-2.3.45,6.29,6.29,0,0,1-2.86-.64,4.76,4.76,0,0,1-2-1.92,6.09,6.09,0,0,1-.74-3.09,5.45,5.45,0,0,1,5.88-5.86,5.13,5.13,0,0,1,4.69,2.2c.94,1.47,1.4,3.71,1.4,6.74a20.57,20.57,0,0,1-.52,5.12,5.45,5.45,0,0,1-1.81,3,5.62,5.62,0,0,1-3.57,1,5.53,5.53,0,0,1-4-1.36,5.18,5.18,0,0,1-1.58-3.42h2.55A3,3,0,0,0,545.24,455Zm4.33-6.89a3.42,3.42,0,0,0,.84-2.41,3.64,3.64,0,0,0-.89-2.62,3.56,3.56,0,0,0-4.83,0,3.56,3.56,0,0,0-.88,2.51,3.48,3.48,0,0,0,.86,2.44,3.32,3.32,0,0,0,2.61,1A3,3,0,0,0,549.57,448.06Z"/><path class="cls-4" d="M555.66,442.73v-2.52h5.05v17.7h-2.79V442.73Z"/><path class="cls-4" d="M565.79,442.26q1.43-2.37,4.9-2.37t4.89,2.37a12.77,12.77,0,0,1,1.42,6.57,13,13,0,0,1-1.42,6.64q-1.43,2.38-4.89,2.39t-4.9-2.39a13.13,13.13,0,0,1-1.42-6.64A12.87,12.87,0,0,1,565.79,442.26ZM574,445.5a4.5,4.5,0,0,0-1-2.22,3.53,3.53,0,0,0-4.62,0,4.41,4.41,0,0,0-1,2.22,18.44,18.44,0,0,0-.26,3.33,19.31,19.31,0,0,0,.25,3.42,4.21,4.21,0,0,0,1,2.23,3.59,3.59,0,0,0,4.64,0,4.29,4.29,0,0,0,1-2.23,20.43,20.43,0,0,0,.24-3.42A18.53,18.53,0,0,0,574,445.5Z"/><path class="cls-4" d="M581.22,442.26q1.41-2.37,4.89-2.37t4.89,2.37a12.77,12.77,0,0,1,1.42,6.57,13,13,0,0,1-1.42,6.64q-1.43,2.38-4.89,2.39t-4.89-2.39a13,13,0,0,1-1.43-6.64A12.76,12.76,0,0,1,581.22,442.26Zm8.23,3.24a4.5,4.5,0,0,0-1-2.22,3.53,3.53,0,0,0-4.62,0,4.41,4.41,0,0,0-1,2.22,18.44,18.44,0,0,0-.26,3.33,20.31,20.31,0,0,0,.25,3.42,4.21,4.21,0,0,0,1,2.23,3.59,3.59,0,0,0,4.64,0,4.29,4.29,0,0,0,1-2.23,20.43,20.43,0,0,0,.24-3.42A18.53,18.53,0,0,0,589.45,445.5Z"/><path class="cls-4" d="M612.6,442.34l-6.75,15.57h-2.79l6.82-15.28h-9v-2.35h11.7Z"/><path class="cls-4" d="M623.38,442.63a3.09,3.09,0,0,0-2-.55,3.2,3.2,0,0,0-2.87,1.46,9.65,9.65,0,0,0-1,4.87,4.17,4.17,0,0,1,1.84-1.65,6,6,0,0,1,2.62-.58,5.65,5.65,0,0,1,2.83.69,4.78,4.78,0,0,1,1.92,2,6.61,6.61,0,0,1,.69,3.13,6.75,6.75,0,0,1-.66,3,5,5,0,0,1-2,2.1,7.2,7.2,0,0,1-7.08-.34,5.75,5.75,0,0,1-2-3.12,18.75,18.75,0,0,1-.57-5q0-8.9,6.26-8.89a5.41,5.41,0,0,1,3.83,1.31,5.23,5.23,0,0,1,1.64,3.23h-2.55A3,3,0,0,0,623.38,442.63Zm-4.48,6.77a3.18,3.18,0,0,0-1,2.56,3.65,3.65,0,0,0,1,2.66,3.59,3.59,0,0,0,2.68,1,3.13,3.13,0,0,0,2.42-1,3.54,3.54,0,0,0,.89-2.52,3.9,3.9,0,0,0-.86-2.64,3.23,3.23,0,0,0-2.54-1A3.75,3.75,0,0,0,618.9,449.4Z"/><path class="cls-4" d="M641.69,442.59h-8.13v4.83a3.67,3.67,0,0,1,1.52-1.14,5,5,0,0,1,2.15-.46,5.77,5.77,0,0,1,3.31.87,4.86,4.86,0,0,1,1.82,2.21,7.27,7.27,0,0,1,.55,2.82,7.12,7.12,0,0,1-.69,3.19,5.22,5.22,0,0,1-2.07,2.2,7.51,7.51,0,0,1-7.61-.51,5.31,5.31,0,0,1-1.92-3.48h2.7a2.91,2.91,0,0,0,1.19,1.81,3.77,3.77,0,0,0,2.3.67,3.19,3.19,0,0,0,2.59-1,4.25,4.25,0,0,0,.86-2.77,3.77,3.77,0,0,0-.87-2.68,3.35,3.35,0,0,0-2.58-.94,3.21,3.21,0,0,0-3.18,2.21H631V440.16h10.68Z"/><path class="cls-4" d="M647.07,442.26q1.42-2.37,4.9-2.37t4.89,2.37a12.77,12.77,0,0,1,1.42,6.57,13,13,0,0,1-1.42,6.64q-1.43,2.38-4.89,2.39t-4.9-2.39a13.13,13.13,0,0,1-1.42-6.64A12.87,12.87,0,0,1,647.07,442.26Zm8.24,3.24a4.42,4.42,0,0,0-1-2.22,3.52,3.52,0,0,0-4.61,0,4.41,4.41,0,0,0-1,2.22,18.44,18.44,0,0,0-.26,3.33,19.31,19.31,0,0,0,.25,3.42,4.21,4.21,0,0,0,1,2.23,3.59,3.59,0,0,0,4.64,0,4.29,4.29,0,0,0,1-2.23,20.43,20.43,0,0,0,.24-3.42A18.53,18.53,0,0,0,655.31,445.5Z"/><path class="cls-4" d="M748.37,443a8.71,8.71,0,1,0,0,13.27v1.56h4.1V441.46h-4.1Zm-5.12,11.76a5.13,5.13,0,1,1,5.12-5.13A5.13,5.13,0,0,1,743.25,454.78Z"/><path class="cls-4" d="M798.57,443a8.71,8.71,0,1,0,0,13.27v1.56h4.09V441.46h-4.09Zm-5.13,11.76a5.13,5.13,0,1,1,5.13-5.13A5.13,5.13,0,0,1,793.44,454.78Z"/><path class="cls-4" d="M723.28,441a8.69,8.69,0,0,0-5.64,2.07v-7.71h-4.1v22.54h4.1v-1.56A8.7,8.7,0,1,0,723.28,441Zm-.52,13.83a5.13,5.13,0,1,1,5.13-5.13A5.13,5.13,0,0,1,722.76,454.78Z"/><path class="cls-4" d="M775.52,441a6.66,6.66,0,0,0-5.64,3.12,6.64,6.64,0,0,0-10.24-1.26v-1.35h-4.1v16.39h4.1v-9.73a3.59,3.59,0,1,1,7.17,0v9.73h4.1v-9.73a3.59,3.59,0,1,1,7.17,0v9.73h4.1V447.61A6.66,6.66,0,0,0,775.52,441Z"/><rect class="cls-4" x="811.88" y="441.46" width="4.1" height="16.39"/><path class="cls-4" d="M827.76,441a5.62,5.62,0,0,0-4.61,2.4v-1.89h-4.1v16.39h4.1V447.61a3.08,3.08,0,0,1,3.07-3.08h2V441Z"/><circle class="cls-4" cx="813.93" cy="436.85" r="2.56"/><circle class="cls-4" cx="807.27" cy="455.29" r="2.56"/></g></svg>