<svg xmlns="http://www.w3.org/2000/svg" viewBox="0 0 648 648"><defs><style>.cls-1{fill:#bff534;}</style></defs><g id="Graphic"><rect x="179.4" y="64.07" width="8.73" height="26.04" rx="4.36" transform="translate(260.85 -106.68) rotate(90)"/><rect class="cls-1" x="192.55" y="90.72" width="262.9" height="466.56"/><rect x="174.98" y="77.09" width="17.57" height="570.91"/></g><g id="Isolation_Mode" data-name="Isolation Mode"><rect x="367.88" y="310.29" width="33.75" height="33.75"/><rect x="246.37" y="263.03" width="33.75" height="81.01"/><rect x="327.38" y="263.03" width="33.75" height="81.01"/><circle cx="303.75" cy="327.16" r="16.88"/><circle cx="384.75" cy="367.67" r="16.88"/><path d="M275.06,372.33a7.18,7.18,0,1,0,0,10.93v1.28h3.38V371h-3.38ZM270.84,382a4.22,4.22,0,1,1,4.22-4.22A4.22,4.22,0,0,1,270.84,382Z"/><path d="M316.41,372.33a7.18,7.18,0,1,0,0,10.93v1.28h3.37V371h-3.37ZM312.19,382a4.22,4.22,0,1,1,4.22-4.22A4.22,4.22,0,0,1,312.19,382Z"/><path d="M254.39,370.62a7.16,7.16,0,0,0-4.64,1.71V366h-3.38v18.56h3.38v-1.28a7.17,7.17,0,1,0,4.64-12.64ZM254,382a4.22,4.22,0,1,1,4.21-4.22A4.22,4.22,0,0,1,254,382Z"/><path d="M297.42,370.62a5.47,5.47,0,0,0-4.64,2.57,5.48,5.48,0,0,0-8.44-1V371H281v13.5h3.37v-8a3,3,0,1,1,5.91,0v8h3.37v-8a3,3,0,1,1,5.91,0v8h3.38v-8.43A5.49,5.49,0,0,0,297.42,370.62Z"/><rect x="327.38" y="371.04" width="3.38" height="13.5"/><path d="M340.46,370.62a4.63,4.63,0,0,0-3.8,2V371h-3.38v13.5h3.38v-8.43a2.54,2.54,0,0,1,2.53-2.54h1.69v-2.95Z"/><circle cx="329.06" cy="367.25" r="2.11"/><circle cx="323.58" cy="382.43" r="2.11"/></g></svg>