<svg xmlns="http://www.w3.org/2000/svg" viewBox="0 0 648 648"><defs><style>.cls-1{fill:#e5e5e5;}.cls-2{fill:#222221;}.cls-3{fill:#585757;}.cls-4{fill:#8db943;}</style></defs><g id="Graphic"><rect class="cls-1" x="127.27" y="55.36" width="413.47" height="557.28"/><path class="cls-2" d="M464.07,342.41a1.43,1.43,0,0,1-1.16,1.48,1.2,1.2,0,0,0,.21,2.38l.22,0a3.85,3.85,0,0,0,3.13-3.87,1.2,1.2,0,0,0-2.4,0Z"/><path class="cls-2" d="M464.85,312.68c-.63.17-1,1.07-.84,2s.82,1.58,1.46,1.41,1-1.08.84-2S465.49,312.5,464.85,312.68Z"/><path class="cls-2" d="M473.34,316.11c.64-.17,1-1.08.84-2s-.82-1.58-1.45-1.4-1,1.07-.84,2S472.71,316.28,473.34,316.11Z"/><path class="cls-2" d="M466.48,321.44a1.21,1.21,0,0,0,1.2,1.08h.12l4-.4-1.38-6.19a1.2,1.2,0,1,0-2.34.53l.79,3.54-1.31.13A1.2,1.2,0,0,0,466.48,321.44Z"/><path class="cls-2" d="M465.68,325.31a1.2,1.2,0,0,0,.43,1.64,6.28,6.28,0,0,0,3.22.89,6.41,6.41,0,0,0,5.5-3.15,1.2,1.2,0,1,0-2.07-1.21,4,4,0,0,1-5.43,1.4A1.22,1.22,0,0,0,465.68,325.31Z"/><path class="cls-2" d="M494.48,348.49c-1.11-1.93-4.07-2-5.53.64a7.47,7.47,0,0,1-2.39,2.8l-1.3-2.17,2.5-1.39-8.22-19.88a11.93,11.93,0,0,0,1.22-1.14c2-2.14,4.08-6,3-12.25-.36-1.89-.57-3.58.35-5.06,1.67-2.66.86-4.67-.34-5.57-2.19-1.65-4.69-.38-6.09,1.06l-.57-8.16a5.67,5.67,0,0,0-1.7-3.89,3.54,3.54,0,0,0-2.66-.86,3.39,3.39,0,0,0-1.65.53l0-.33a5.7,5.7,0,0,0-1.76-3.93,3.49,3.49,0,0,0-2.62-.83c-2,.19-3.33,2.07-3.64,4.07a3.46,3.46,0,0,0-1.81-.3c-2.65.25-3.86,2.87-3.69,5.32l.28,3.87a2.92,2.92,0,0,0-1.28-.15c-2.2.25-3.48,2.28-3.28,5.19l.87,12.21h0v.24s0,.05,0,.08c.49,5.83,2.92,9.2,5.15,11.1a11.73,11.73,0,0,1-7.72,12l-1,.37-7.12,2.18,2.16,7.22,2.08-.26a8.64,8.64,0,0,0-.35,6.3,3,3,0,0,0,4.13,2.18c1.62-.79,2.49-2.48,1-4.84-1.76-2.74-1-3.8-.54-4.16l.15,0,.62,2,.83.05c.57,0,1.11.05,1.65.05,11.18,0,14.06-7.31,14.18-7.64a1.2,1.2,0,1,0-2.25-.84c0,.06-2.49,6.34-12.62,6.07l-2-6.41h0a14.11,14.11,0,0,0,9.22-12.64,7.88,7.88,0,0,0,1.63.66l.26,0a1.2,1.2,0,0,0,.26-2.37c-.07,0-6.63-1.88-7.31-11.5l-.86-12.21c0-.25-.14-2.49,1.15-2.63a.5.5,0,0,1,.44.15,3.57,3.57,0,0,1,.9,2.3l0,.44.49,7a1.2,1.2,0,0,0,2.39-.17l-.43-6.1h0l-.06-.85,0-.43h0L460,297c-.08-1,.27-2.64,1.52-2.76a1.05,1.05,0,0,1,.85.26,3.41,3.41,0,0,1,.91,2.27v0l.81,11.56a1.2,1.2,0,0,0,1.2,1.11h.08a1.21,1.21,0,0,0,1.12-1.28l-1.06-14.94c-.09-1.29.68-2.69,1.52-2.77a1.09,1.09,0,0,1,.84.27,3.41,3.41,0,0,1,.93,2.27l1,14.93a1.2,1.2,0,1,0,2.4-.16l-.71-9.94s0,0,0,0c-.08-1,.27-2.68,1.49-2.77a1.17,1.17,0,0,1,.92.28,3.42,3.42,0,0,1,.87,2.25L476,315.48a.5.5,0,0,0,0,.12s0,.07,0,.09,0,.1.05.14l0,.08.07.12a1.14,1.14,0,0,0,.34.35l0,0,.14.07.07,0,.12,0,.1,0h.3l.11,0,.11,0,.11,0,.11,0,.1-.06.1-.06.09-.08.08-.08.07-.09.06-.09.06-.11,0-.1a.53.53,0,0,0,0-.12l0-.11a.57.57,0,0,0,0-.13v-.1c0-.49-.1-1.57-.16-2.36l-.05-.71a7.08,7.08,0,0,1,.94-4.72c.37-.49,2-2.09,3.22-1.16.53.4.44,1.29-.25,2.38-1.49,2.39-1,5-.67,6.75.87,5.27-.85,8.46-2.45,10.21a9.93,9.93,0,0,1-1.48,1.31,1,1,0,0,0-.25.17,8,8,0,0,1-4.7,1.45,1.2,1.2,0,1,0-.18,2.39,5.06,5.06,0,0,0,.55,0,10,10,0,0,0,4.57-1.22l5.31,12.85a3.75,3.75,0,0,1-2.85,1.86,1.2,1.2,0,0,0,.23,2.37l.24,0a6.75,6.75,0,0,0,3.43-1.68l.86,2.08-.69.39h0l-5.16,2.88-11.53-15.41a1.2,1.2,0,0,0-1.92,1.44l12.79,17.09h0l4.68,6.25,6.34-3.53-.87-1.46a11.16,11.16,0,0,0,4.26-1.66C495.05,351.64,495.07,349.53,494.48,348.49Z"/><rect class="cls-3" x="116.86" y="44.81" width="414.28" height="558.38" transform="translate(648 648) rotate(-180)"/><rect class="cls-4" x="116.86" y="426.91" width="414.28" height="176.28" transform="translate(648 1030.1) rotate(-180)"/><rect class="cls-2" x="477.5" y="119.49" width="17.62" height="17.62"/><rect class="cls-2" x="414.07" y="94.82" width="17.62" height="42.29"/><rect class="cls-2" x="456.35" y="94.82" width="17.62" height="42.29"/><circle class="cls-2" cx="444.02" cy="128.3" r="8.81"/><circle class="cls-2" cx="486.31" cy="149.45" r="8.81"/><path class="cls-2" d="M429,151.88a3.75,3.75,0,1,0,0,5.71v.67h1.77v-7H429Zm-2.2,5.06a2.21,2.21,0,1,1,2.2-2.21A2.2,2.2,0,0,1,426.84,156.94Z"/><path class="cls-2" d="M450.63,151.88a3.75,3.75,0,1,0,0,5.71v.67h1.76v-7h-1.76Zm-2.2,5.06a2.21,2.21,0,1,1,2.2-2.21A2.21,2.21,0,0,1,448.43,156.94Z"/><path class="cls-2" d="M418.25,151a3.75,3.75,0,0,0-2.42.89v-3.31h-1.76v9.69h1.76v-.67a3.75,3.75,0,1,0,2.42-6.6Zm-.22,5.95a2.21,2.21,0,1,1,2.2-2.21A2.2,2.2,0,0,1,418,156.94Z"/><path class="cls-2" d="M440.72,151a2.89,2.89,0,0,0-2.43,1.34,2.86,2.86,0,0,0-2.42-1.34,2.81,2.81,0,0,0-2,.8v-.58h-1.76v7h1.76v-4.19a1.54,1.54,0,0,1,3.08,0v4.19h1.77v-4.19a1.54,1.54,0,0,1,3.08,0v4.19h1.76v-4.41A2.86,2.86,0,0,0,440.72,151Z"/><rect class="cls-2" x="456.36" y="151.21" width="1.76" height="7.05"/><path class="cls-2" d="M463.18,151a2.42,2.42,0,0,0-2,1v-.81h-1.76v7h1.76v-4.41a1.32,1.32,0,0,1,1.32-1.32h.88V151Z"/><circle class="cls-2" cx="457.24" cy="149.23" r="1.1"/><circle class="cls-2" cx="454.37" cy="157.16" r="1.1"/></g></svg>