<svg xmlns="http://www.w3.org/2000/svg" viewBox="0 0 648 648"><defs><style>.cls-1{fill:#e5e5e5;}.cls-2{fill:#d8d8d8;}.cls-3{fill:#8db943;}.cls-4{fill:#222221;}</style></defs><g id="Background"><rect class="cls-1" x="135.37" y="55.36" width="397.27" height="557.28"/></g><g id="Layer_1" data-name="Layer 1"><rect class="cls-2" x="123.15" y="45.36" width="402.48" height="557.28"/><rect class="cls-3" x="123.15" y="517.5" width="402.48" height="85.14"/><path class="cls-4" d="M314.26,562.85a3.85,3.85,0,0,0-2.53-.94,3.92,3.92,0,1,0,2.53,6.9v.7h1.84v-7.37h-1.84Zm-2.3,5.28a2.31,2.31,0,1,1,2.3-2.3A2.3,2.3,0,0,1,312,568.13Z"/><path class="cls-4" d="M336.83,562.85a3.83,3.83,0,0,0-2.53-.94,3.92,3.92,0,1,0,0,7.83,3.88,3.88,0,0,0,2.53-.93v.7h1.85v-7.37h-1.85Zm-2.3,5.28a2.31,2.31,0,1,1,2.3-2.3A2.3,2.3,0,0,1,334.53,568.13Z"/><path class="cls-4" d="M303,561.91a3.85,3.85,0,0,0-2.53.94v-3.47H298.6v10.13h1.84v-.7a3.92,3.92,0,1,0,2.53-6.9Zm-.23,6.22a2.31,2.31,0,1,1,2.31-2.3A2.3,2.3,0,0,1,302.74,568.13Z"/><path class="cls-4" d="M326.47,561.91a3,3,0,0,0-2.54,1.41,3,3,0,0,0-4.6-.57v-.61h-1.85v7.37h1.85v-4.37a1.61,1.61,0,1,1,3.22,0v4.37h1.85v-4.37a1.61,1.61,0,1,1,3.22,0v4.37h1.84v-4.6A3,3,0,0,0,326.47,561.91Z"/><rect class="cls-4" x="342.82" y="562.14" width="1.84" height="7.37"/><path class="cls-4" d="M350,561.91a2.55,2.55,0,0,0-2.08,1.08v-.85h-1.84v7.37h1.84v-4.6a1.38,1.38,0,0,1,1.38-1.39h.93v-1.61Z"/><circle class="cls-4" cx="343.75" cy="560.07" r="1.15"/><circle class="cls-4" cx="340.75" cy="568.36" r="1.15"/><rect class="cls-4" x="346.27" y="102.46" width="16.83" height="16.83"/><rect class="cls-4" x="285.7" y="78.9" width="16.83" height="40.38"/><rect class="cls-4" x="326.08" y="78.9" width="16.83" height="40.38"/><circle class="cls-4" cx="314.3" cy="110.87" r="8.41"/><circle class="cls-4" cx="354.68" cy="131.06" r="8.41"/></g></svg>