<svg xmlns="http://www.w3.org/2000/svg" viewBox="0 0 648 648"><defs><style>.cls-1{fill:#bff534;}.cls-2{fill:#fff;}</style></defs><g id="Graphic"><rect class="cls-1" x="154.48" y="90.72" width="339.32" height="466.56"/><rect class="cls-2" x="313.53" y="88.6" width="21.21" height="84.83" rx="10.6" transform="translate(455.15 -193.12) rotate(90)"/><rect x="295.51" width="57.25" height="120.41"/></g><g id="Layer_1" data-name="Layer 1"><path d="M289.33,292.37a13.19,13.19,0,1,0,0,20.1v2.37h6.21V290h-6.21Zm-7.76,17.81a7.76,7.76,0,1,1,7.76-7.76A7.75,7.75,0,0,1,281.57,310.18Z"/><path d="M365.38,292.37a13.19,13.19,0,1,0,0,20.1v2.37h6.21V290h-6.21Zm-7.76,17.81a7.76,7.76,0,1,1,7.76-7.76A7.76,7.76,0,0,1,357.62,310.18Z"/><path d="M251.3,289.23a13.12,13.12,0,0,0-8.54,3.14V280.69h-6.21v34.15h6.21v-2.37a13.19,13.19,0,1,0,8.54-23.24Zm-.78,20.95a7.76,7.76,0,1,1,7.76-7.76A7.76,7.76,0,0,1,250.52,310.18Z"/><path d="M330.46,289.23a10.08,10.08,0,0,0-8.54,4.73,10.06,10.06,0,0,0-15.52-1.91V290h-6.21v24.84h6.21V300.09a5.44,5.44,0,0,1,10.87,0v14.75h6.21V300.09a5.43,5.43,0,0,1,10.86,0v14.75h6.21V299.32A10.09,10.09,0,0,0,330.46,289.23Z"/><rect x="385.56" y="290" width="6.21" height="24.83"/><path d="M409.62,289.23a8.5,8.5,0,0,0-7,3.64V290h-6.21v24.84h6.21V299.32a4.66,4.66,0,0,1,4.65-4.66h3.11v-5.43Z"/><circle cx="388.67" cy="283.02" r="3.88"/><circle cx="378.58" cy="310.96" r="3.88"/></g></svg>