<svg xmlns="http://www.w3.org/2000/svg" viewBox="0 0 648 648"><defs><style>.cls-1,.cls-4,.cls-6,.cls-7{fill:none;stroke-miterlimit:10;}.cls-1{stroke:#000;stroke-linecap:round;stroke-width:9.94px;}.cls-2{fill:#84ad36;}.cls-3{fill:#799e32;}.cls-4,.cls-6,.cls-7{stroke:#fff;isolation:isolate;opacity:0.5;}.cls-4{stroke-width:0.71px;}.cls-5{fill:#8db943;}.cls-6{stroke-width:0.62px;}.cls-7{stroke-width:0.44px;}</style></defs><g id="Layer_1" data-name="Layer 1"><g id="Graphic-2" data-name="Graphic"><path class="cls-1" d="M293.52,199V130.62A68.42,68.42,0,0,1,430.35,129c0,.56,0,1.11,0,1.66V199"/><rect class="cls-2" x="119.76" y="168.97" width="484.35" height="332.05"/><polygon class="cls-3" points="43.89 528.7 119.76 501.02 119.76 168.97 43.89 196.65 43.89 528.7"/><line class="cls-4" x1="528.24" y1="196.65" x2="528.24" y2="528.73"/><rect class="cls-5" x="43.89" y="196.65" width="484.35" height="332.05"/><line class="cls-6" x1="528.24" y1="459.53" x2="43.89" y2="459.53"/><polygon class="cls-3" points="604.11 501.02 528.24 528.73 528.24 196.68 604.11 168.97 604.11 501.02"/><line class="cls-7" x1="566.17" y1="182.82" x2="566.17" y2="514.87"/><line class="cls-7" x1="604.11" y1="431.85" x2="528.24" y2="459.56"/><polyline class="cls-7" points="528.24 528.73 566.17 445.72 604.11 501.04"/><path class="cls-1" d="M218.24,232V163.61a68.42,68.42,0,0,1,136.83,0V232"/></g></g><g id="Isolation_Mode" data-name="Isolation Mode"><rect x="323.83" y="342.76" width="23.32" height="23.32"/><rect x="239.88" y="310.11" width="23.32" height="55.97"/><rect x="295.85" y="310.11" width="23.32" height="55.97"/><circle cx="279.52" cy="354.42" r="11.66"/><circle cx="335.49" cy="382.4" r="11.66"/><path d="M259.7,385.63a4.9,4.9,0,0,0-3.2-1.19,5,5,0,0,0,0,9.92,4.9,4.9,0,0,0,3.2-1.19v.89H262v-9.32H259.7Zm-2.91,6.68a2.92,2.92,0,1,1,2.91-2.91A2.91,2.91,0,0,1,256.79,392.31Z"/><path d="M288.27,385.63a4.9,4.9,0,0,0-3.21-1.19,5,5,0,0,0,0,9.92,4.9,4.9,0,0,0,3.21-1.19v.89h2.33v-9.32h-2.33Zm-2.92,6.68a2.92,2.92,0,1,1,2.92-2.91A2.91,2.91,0,0,1,285.35,392.31Z"/><path d="M245.42,384.44a4.94,4.94,0,0,0-3.21,1.19v-4.39h-2.33v12.82h2.33v-.89a5,5,0,1,0,3.21-8.73Zm-.29,7.87A2.92,2.92,0,1,1,248,389.4,2.91,2.91,0,0,1,245.13,392.31Z"/><path d="M275.15,384.44a3.79,3.79,0,0,0-3.2,1.78,3.78,3.78,0,0,0-5.83-.72v-.76h-2.34v9.32h2.34v-5.53a2,2,0,1,1,4.08,0v5.53h2.33v-5.53a2,2,0,1,1,4.08,0v5.53h2.33v-5.83A3.79,3.79,0,0,0,275.15,384.44Z"/><rect x="295.85" y="384.74" width="2.33" height="9.33"/><path d="M304.88,384.44a3.22,3.22,0,0,0-2.62,1.37v-1.07h-2.33v9.32h2.33v-5.83a1.75,1.75,0,0,1,1.75-1.75h1.17v-2Z"/><circle cx="297.01" cy="382.11" r="1.46"/><circle cx="293.22" cy="392.61" r="1.46"/></g></svg>