<svg xmlns="http://www.w3.org/2000/svg" viewBox="0 0 648 648"><defs><style>.cls-1{fill:#bff534;}</style></defs><g id="_Layer_" data-name="&lt;Layer&gt;"><rect class="cls-1" x="90.72" y="257.9" width="466.56" height="132.19"/><rect x="195.43" y="315.26" width="21.53" height="21.53"/><rect x="117.94" y="285.12" width="21.53" height="51.66"/><rect x="169.6" y="285.12" width="21.53" height="51.66"/><circle cx="154.53" cy="326.02" r="10.76"/><circle cx="206.19" cy="351.85" r="10.76"/><path d="M136.23,354.82a4.53,4.53,0,0,0-3-1.09,4.58,4.58,0,0,0,0,9.15,4.53,4.53,0,0,0,3-1.09v.82h2.16V354h-2.16ZM133.54,361a2.69,2.69,0,1,1,2.69-2.69A2.7,2.7,0,0,1,133.54,361Z"/><path d="M162.6,354.82a4.58,4.58,0,1,0,0,7v.82h2.15V354H162.6ZM159.91,361a2.69,2.69,0,1,1,2.69-2.69A2.7,2.7,0,0,1,159.91,361Z"/><path d="M123.05,353.73a4.55,4.55,0,0,0-3,1.09v-4.05h-2.15v11.84h2.15v-.82a4.57,4.57,0,1,0,3-8.06Zm-.27,7.27a2.69,2.69,0,1,1,2.69-2.69A2.69,2.69,0,0,1,122.78,361Z"/><path d="M150.49,353.73a3.51,3.51,0,0,0-3,1.64,3.49,3.49,0,0,0-5.38-.66V354H140v8.61h2.15V357.5a1.89,1.89,0,0,1,3.77,0v5.11h2.15V357.5a1.89,1.89,0,0,1,3.77,0v5.11H154v-5.38A3.5,3.5,0,0,0,150.49,353.73Z"/><rect x="169.6" y="354" width="2.15" height="8.61"/><path d="M177.94,353.73a3,3,0,0,0-2.42,1.26v-1h-2.16v8.61h2.16v-5.38a1.61,1.61,0,0,1,1.61-1.61h1.08v-1.89Z"/><circle cx="170.67" cy="351.58" r="1.35"/><circle cx="167.18" cy="361.27" r="1.35"/><path d="M318.07,330.51a3,3,0,0,0,3.05-3v-1.15h-5.77v-2.95h11.32q.42,0,.42.39V326a.37.37,0,0,1-.42.42h-3.2c0,.07,0,.15.08.26a1.62,1.62,0,0,1,0,.41v.87a5.3,5.3,0,0,1-.45,2.19,5.45,5.45,0,0,1-1.22,1.75,6,6,0,0,1-1.81,1.18,5.75,5.75,0,0,1-2.22.44h-5.16a6.13,6.13,0,0,1-2.45-.5,6.52,6.52,0,0,1-2-1.34,6.44,6.44,0,0,1-1.34-2,6.09,6.09,0,0,1-.5-2.44v-7.48h2.48v7.09a3.52,3.52,0,0,0,.3,1.45,4,4,0,0,0,.81,1.17,3.7,3.7,0,0,0,1.21.8,3.79,3.79,0,0,0,1.45.29Z"/><path d="M331.86,317.93l-1.81-1.72,8.21-9.63,1.81,1.66-5.92,7h11.77a4.37,4.37,0,0,1,1.72.35,4.64,4.64,0,0,1,1.43.95,4.13,4.13,0,0,1,1,1.42,4.41,4.41,0,0,1,.35,1.75v2.23a4.21,4.21,0,0,1-.37,1.76,4.28,4.28,0,0,1-1,1.44,4.58,4.58,0,0,1-3.18,1.3l-19.19,0a.38.38,0,0,1-.3-.13.44.44,0,0,1-.12-.29v-2.08a.37.37,0,0,1,.42-.42h19.67a1.51,1.51,0,0,0,1.1-.49,1.44,1.44,0,0,0,.47-1.17v-2.05a1.74,1.74,0,0,0-.53-1.29,1.69,1.69,0,0,0-1.25-.52Zm-3.47-5.28,6.4-7.55,1.29,1.18-6.36,7.48Z"/><path d="M357.78,326.37a3.28,3.28,0,0,1-1.36-.28,3.89,3.89,0,0,1-1.12-.76,3.3,3.3,0,0,1-.75-1.11,3.57,3.57,0,0,1-.27-1.38V319.4h2.11v2.93a1.15,1.15,0,0,0,.27.77,1,1,0,0,0,.79.32h4.8a2.4,2.4,0,0,0,1.32-.35,2.08,2.08,0,0,0,.8-.87,2.61,2.61,0,0,0,.26-1.14,2.15,2.15,0,0,0-.3-1.11l-3.56-6.37,2.08-1.39,3.65,6.49a5.22,5.22,0,0,1,.72,2.7,5,5,0,0,1-2.43,4.29,4.8,4.8,0,0,1-2.6.7Z"/><path d="M373.53,326.37h-2.47V306.22h2.47Z"/><path d="M381.41,326.37a4,4,0,0,1-1.84-.42,4.1,4.1,0,0,1-1.41-1.11,4.56,4.56,0,0,1-.81-1.6,4.07,4.07,0,0,1-.08-1.87l.52-2.75a4.12,4.12,0,0,1,1.46-2.47,4,4,0,0,1,2.67-1h1.72a4.45,4.45,0,0,1,1.75.35,4.35,4.35,0,0,1,1.42,1,4.69,4.69,0,0,1,.95,1.44,4.34,4.34,0,0,1,.35,1.72v3.77h2.29a.37.37,0,0,1,.42.42V326a.37.37,0,0,1-.42.42h-2.32v.16a1,1,0,0,1,0,.24,6.35,6.35,0,0,1-1.34,3.68,6.79,6.79,0,0,1-3.27,2.32L379.72,334l-.79-2.45,3.86-1.29a4.13,4.13,0,0,0,2-1.42,3.79,3.79,0,0,0,.75-2.35v-.43a2,2,0,0,1-.65.21,4.71,4.71,0,0,1-.74.06Zm-.28-2.95h4.47v-3.77a1.64,1.64,0,0,0-1.66-1.66H381.8a1.59,1.59,0,0,0-1,.36,1.62,1.62,0,0,0-.56,1l-.48,2.45a1.34,1.34,0,0,0,.3,1.16A1.39,1.39,0,0,0,381.13,323.42Z"/><path d="M394.56,323.42a1.82,1.82,0,0,0,1.36-.58,1.85,1.85,0,0,0,.57-1.35v-5.8H399v5.8a4.78,4.78,0,0,1-.38,1.88,4.9,4.9,0,0,1-1,1.56A5.05,5.05,0,0,1,396,326a4.78,4.78,0,0,1-1.92.39H390.4a.38.38,0,0,1-.3-.13A.44.44,0,0,1,390,326v-2.08a.47.47,0,0,1,.12-.32.38.38,0,0,1,.3-.13Zm1.63-11.05h2.87v-2.86h-2.87Z"/><path d="M409.26,326a.37.37,0,0,1-.43.42h-1.05a4.66,4.66,0,0,1-1.87-.37,4.81,4.81,0,0,1-1.54-1,4.9,4.9,0,0,1-1-1.56,4.78,4.78,0,0,1-.38-1.88v-15.3h2.47v15.27a1.86,1.86,0,0,0,.58,1.35,1.82,1.82,0,0,0,1.36.58h1.47a.39.39,0,0,1,.31.13.47.47,0,0,1,.12.32Z"/><path d="M408.41,323.87q0-.45.42-.45h5.07a8.08,8.08,0,0,0,2.73-.47,6,6,0,0,0,2.28-1.43l2.39-2.27a2.13,2.13,0,0,1,.48-.39l-6.94-2.08a1,1,0,0,0-.88.09,1.25,1.25,0,0,0-.54.69l-.9,2.63-2.18-.6.73-2.51a3.69,3.69,0,0,1,.74-1.4,3.92,3.92,0,0,1,1.14-.94,3.95,3.95,0,0,1,2.92-.28L427.63,318l-.78,2.38-1.27-.39a1.76,1.76,0,0,0-1.36,0,4.57,4.57,0,0,0-1.08.78L419.67,324a8.26,8.26,0,0,1-2.84,1.75,10.09,10.09,0,0,1-3.29.6h-4.71a.38.38,0,0,1-.3-.13.44.44,0,0,1-.12-.29Zm5-12.82h2.87v-2.87h-2.87Z"/><path d="M446.83,315.18a4.48,4.48,0,0,1,1.75.35,4.64,4.64,0,0,1,1.43,1,4.43,4.43,0,0,1,1.31,3.17v3.71a2.92,2.92,0,0,1-.86,2.17,3,3,0,0,1-2.19.84h-3.65a4.08,4.08,0,0,1-1.84-.42,4.15,4.15,0,0,1-1.4-1.11,4.58,4.58,0,0,1-.82-1.6,4.19,4.19,0,0,1-.07-1.9l.63-3.35h-1.6a1.86,1.86,0,0,0-1.37.6,2,2,0,0,0-.59,1.42v14h-2.47V320.1a4.74,4.74,0,0,1,.39-1.92,4.91,4.91,0,0,1,1.06-1.55,5.08,5.08,0,0,1,1.55-1.06,4.71,4.71,0,0,1,1.92-.39Zm2,8.24v-3.8a1.56,1.56,0,0,0-.5-1.17,1.68,1.68,0,0,0-1.19-.46h-3.5l-.7,3.74a1.32,1.32,0,0,0,.26,1.17,1.35,1.35,0,0,0,1.13.52Z"/><path d="M461.49,326a.37.37,0,0,1-.42.42H460a4.69,4.69,0,0,1-1.87-.37,4.83,4.83,0,0,1-2.58-2.6,4.78,4.78,0,0,1-.38-1.88v-15.3h2.48v15.27a2,2,0,0,0,1.93,1.93h1.48a.38.38,0,0,1,.3.13.47.47,0,0,1,.12.32Z"/><path d="M465.23,323.42a2,2,0,0,0,1.93-1.93v-5.8h2.48v5.8a4.78,4.78,0,0,1-.38,1.88,4.9,4.9,0,0,1-1,1.56,5,5,0,0,1-1.56,1.05,4.69,4.69,0,0,1-1.91.39h-3.68a.42.42,0,0,1-.31-.13.44.44,0,0,1-.12-.29v-2.08a.47.47,0,0,1,.12-.32.42.42,0,0,1,.31-.13Zm1.63-11.05h2.87v-2.86h-2.87Z"/><path d="M487.83,326.22a7,7,0,0,1-.33,2.15,6.9,6.9,0,0,1-4.35,4.4L479.44,334l-.78-2.45,3.86-1.29a3.87,3.87,0,0,0,2-1.42,4.5,4.5,0,0,0,.8-2.35l0-.43a2,2,0,0,1-.67.21,4.93,4.93,0,0,1-.75.06h-2.78a4.08,4.08,0,0,1-1.84-.42,4.15,4.15,0,0,1-1.4-1.11,4.76,4.76,0,0,1-.82-1.6,4.07,4.07,0,0,1-.07-1.87l.51-2.75a4.13,4.13,0,0,1,1.47-2.47,4,4,0,0,1,2.67-1h1.72a4.48,4.48,0,0,1,1.75.35,4.3,4.3,0,0,1,1.41,1,4.51,4.51,0,0,1,1,1.44,4.17,4.17,0,0,1,.35,1.72Zm-2.47-2.8v-3.77a1.58,1.58,0,0,0-.5-1.18,1.65,1.65,0,0,0-1.19-.48h-2.14a1.57,1.57,0,0,0-1.6,1.32l-.49,2.45a1.32,1.32,0,0,0,.31,1.16,1.39,1.39,0,0,0,1.11.5Z"/><path d="M507.23,315.18a4.41,4.41,0,0,1,1.75.35,4.69,4.69,0,0,1,1.44,1,4.24,4.24,0,0,1,1,1.42,4.41,4.41,0,0,1,.35,1.75v3.71a2.92,2.92,0,0,1-.86,2.17,3,3,0,0,1-2.19.84H505a4.08,4.08,0,0,1-1.84-.42,4.15,4.15,0,0,1-1.4-1.11,4.58,4.58,0,0,1-.82-1.6,4.19,4.19,0,0,1-.07-1.9l.63-3.35h-1.6a1.86,1.86,0,0,0-1.37.6A2,2,0,0,0,498,320v14H495.5V320.1a4.74,4.74,0,0,1,.39-1.92,5.05,5.05,0,0,1,1.05-1.55,5.25,5.25,0,0,1,1.56-1.06,4.71,4.71,0,0,1,1.92-.39Zm2,8.24v-3.8a1.56,1.56,0,0,0-.5-1.17,1.68,1.68,0,0,0-1.19-.46h-3.5l-.7,3.74a1.32,1.32,0,0,0,.26,1.17,1.35,1.35,0,0,0,1.13.52Z"/><path d="M521.9,326a.37.37,0,0,1-.42.42h-1.06a4.69,4.69,0,0,1-1.87-.37,4.83,4.83,0,0,1-2.58-2.6,4.78,4.78,0,0,1-.38-1.88v-15.3h2.48v15.27a1.85,1.85,0,0,0,.57,1.35,1.82,1.82,0,0,0,1.36.58h1.48a.38.38,0,0,1,.3.13.47.47,0,0,1,.12.32Z"/><path d="M525.64,323.42a2,2,0,0,0,1.93-1.93v-5.8h2.48v5.8a4.78,4.78,0,0,1-.38,1.88,4.9,4.9,0,0,1-1,1.56,5,5,0,0,1-1.56,1.05,4.69,4.69,0,0,1-1.91.39h-3.68a.42.42,0,0,1-.31-.13.44.44,0,0,1-.12-.29v-2.08a.47.47,0,0,1,.12-.32.42.42,0,0,1,.31-.13Zm1.63-11.05h2.87v-2.86h-2.87Z"/><path d="M414.9,358.15a3,3,0,0,1,1.64,1,2.66,2.66,0,0,1,.62,1.8v1.17a5.5,5.5,0,0,1-.44,2.22,5.61,5.61,0,0,1-1.2,1.81,5.7,5.7,0,0,1-1.8,1.21,5.58,5.58,0,0,1-2.2.44h-6.07a6.3,6.3,0,0,1-5.8-3.84,5.92,5.92,0,0,1-.5-2.44v-6.94h2.47v6.55a3.49,3.49,0,0,0,.3,1.43,4,4,0,0,0,.82,1.19,3.72,3.72,0,0,0,2.65,1.09h6.31a2.94,2.94,0,0,0,3-3v-1.06l-8.3-2v-3.29a5.71,5.71,0,0,1,1.46-3.86,6,6,0,0,1,1.59-1.24,5.4,5.4,0,0,1,2-.6l3.74-.48.39,2.65-4.25.58a2.69,2.69,0,0,0-1.78,1,2.94,2.94,0,0,0-.7,1.93v1.27Z"/><path d="M418.64,370.16l-.78-2.45,3.89-1.26a3.88,3.88,0,0,0,2-1.48,4,4,0,0,0,.74-2.35v-9.87H427v9.62a6.78,6.78,0,0,1-.33,2.13,7.14,7.14,0,0,1-.94,1.87,6.72,6.72,0,0,1-3.35,2.52Z"/><path d="M437.56,362.16a.37.37,0,0,1-.42.42h-1.06a4.69,4.69,0,0,1-1.87-.37,4.83,4.83,0,0,1-2.58-2.6,4.78,4.78,0,0,1-.38-1.88v-15.3h2.48V357.7a1.85,1.85,0,0,0,.57,1.35,1.82,1.82,0,0,0,1.36.58h1.48a.38.38,0,0,1,.3.13.47.47,0,0,1,.12.32Z"/><path d="M440.37,354.14l-1.85-1.72,8.24-9.63,1.81,1.66-5.91,7h11.77a4.48,4.48,0,0,1,1.75.35,4.6,4.6,0,0,1,1.42,1,4.54,4.54,0,0,1,.95,1.42,4.4,4.4,0,0,1,.34,1.75v2.23a4.36,4.36,0,0,1-.36,1.76,4.24,4.24,0,0,1-1,1.42,4.65,4.65,0,0,1-1.45.94,4.45,4.45,0,0,1-1.73.34H437.14a.42.42,0,0,1-.31-.13.44.44,0,0,1-.12-.29v-2.11a.38.38,0,0,1,.43-.42h17.62a1.67,1.67,0,0,0,1.66-1.66v-2a1.64,1.64,0,0,0-.5-1.3,1.77,1.77,0,0,0-1.28-.51Z"/><path d="M472.62,367.87a6.09,6.09,0,0,1-2.44-.5,6.15,6.15,0,0,1-2-1.35,6.31,6.31,0,0,1-1.35-2,6.08,6.08,0,0,1-.49-2.44v-8.33h2.47v7.94a3.49,3.49,0,0,0,.3,1.43,4.08,4.08,0,0,0,.8,1.19,3.52,3.52,0,0,0,1.19.8,3.83,3.83,0,0,0,1.45.29h5.31a3.07,3.07,0,0,0,1.21-.24,3.25,3.25,0,0,0,1-.67,3.07,3.07,0,0,0,.66-1,3.15,3.15,0,0,0,.24-1.21v-9.05h2.48v9.5a5.46,5.46,0,0,1-.44,2.19,5.73,5.73,0,0,1-1.21,1.78,5.62,5.62,0,0,1-1.78,1.21,5.46,5.46,0,0,1-2.19.44Zm.85-18h2.86v2.87h-2.86Z"/><path d="M489.85,362.58h-2.47V342.43h2.47Z"/><path d="M497.73,362.58a4,4,0,0,1-1.84-.42,4.19,4.19,0,0,1-1.41-1.11,4.56,4.56,0,0,1-.81-1.6,4.07,4.07,0,0,1-.08-1.87l.52-2.75a4.17,4.17,0,0,1,1.46-2.47,4,4,0,0,1,2.67-1H500a4.45,4.45,0,0,1,1.75.35,4.35,4.35,0,0,1,1.42,1,4.69,4.69,0,0,1,.95,1.44,4.34,4.34,0,0,1,.35,1.72v3.77h2.29a.37.37,0,0,1,.42.42v2.11a.37.37,0,0,1-.42.42H504.4v.16a1,1,0,0,1,0,.24,6.36,6.36,0,0,1-1.35,3.68,6.79,6.79,0,0,1-3.27,2.32L496,370.25l-.79-2.44,3.87-1.3a4.15,4.15,0,0,0,2-1.42,3.79,3.79,0,0,0,.75-2.35v-.43a1.91,1.91,0,0,1-.65.21,3.7,3.7,0,0,1-.74.06Zm-.27-2.95h4.46v-3.77a1.64,1.64,0,0,0-1.66-1.66h-2.14a1.59,1.59,0,0,0-1,.36,1.62,1.62,0,0,0-.56,1L496,358a1.34,1.34,0,0,0,.3,1.16A1.39,1.39,0,0,0,497.46,359.63Z"/><path d="M517.85,362.16a.44.44,0,0,1-.12.29.38.38,0,0,1-.3.13h-2a3.62,3.62,0,0,1-1-.15,4.52,4.52,0,0,1-1-.4,3.44,3.44,0,0,1-.79-.62,2.31,2.31,0,0,1-.48-.76,3.9,3.9,0,0,1-1.46,1.38,4.06,4.06,0,0,1-2,.55h-2a.37.37,0,0,1-.42-.42v-2.11a.37.37,0,0,1,.42-.42h2.14a2.15,2.15,0,0,0,1.38-.48,2.12,2.12,0,0,0,.73-1.24l1-5,2.44.42-.84,4.2A1.65,1.65,0,0,0,514,359a1.81,1.81,0,0,0,1.43.65h2a.37.37,0,0,1,.42.42ZM511,349.61h2.87v-2.87H511Z"/><path d="M530.17,361.5l-4.62.63c-1.19.16-2.36.28-3.52.36s-2.3.13-3.45.13H517.4a.34.34,0,0,1-.28-.14.71.71,0,0,1-.14-.32v-2.08a.47.47,0,0,1,.12-.32.45.45,0,0,1,.36-.13h3.38a2.59,2.59,0,0,1-.33-.85l-.66-3.53a4,4,0,0,1,.07-1.85,4.4,4.4,0,0,1,.83-1.59,4.33,4.33,0,0,1,1.42-1.11,3.89,3.89,0,0,1,1.81-.43h4.92v2.81h-5.07a1.56,1.56,0,0,0-1.54,1.87l.91,4.62,6.57-.7Z"/></g></svg>