<svg xmlns="http://www.w3.org/2000/svg" viewBox="0 0 1152 648"><defs><style>.cls-1,.cls-3{font-size:33px;fill:#222221;}.cls-1{font-family:Poppins-Bold, Poppins;font-weight:700;}.cls-2,.cls-3{font-family:Poppins-Medium, Poppins;font-weight:500;}</style></defs><g id="Isolation_Mode" data-name="Isolation Mode"><text class="cls-1" transform="translate(555.38 269.5)">Amirali Shobeiri<tspan class="cls-2"><tspan x="0" y="39.6">CEO</tspan></tspan></text><text class="cls-3" transform="translate(555.14 365.96)">amirali.shobeiri@bama.ir</text><rect x="413.65" y="314.8" width="51.16" height="51.16"/><rect x="229.49" y="243.18" width="51.16" height="122.78"/><rect x="352.26" y="243.18" width="51.16" height="122.78"/><circle cx="316.45" cy="340.38" r="25.58"/><circle cx="439.23" cy="401.77" r="25.58"/><path d="M592.2,463a9.39,9.39,0,0,0-6-2.16,9.07,9.07,0,1,0,0,18.14,9.39,9.39,0,0,0,6-2.16v1.62h4.36V461.34H592.2Zm-5.45,12.24a5.34,5.34,0,1,1,5.45-5.33A5.39,5.39,0,0,1,586.75,475.21Z"/><path d="M645.61,463a9.39,9.39,0,0,0-6-2.16,9.07,9.07,0,1,0,0,18.14,9.39,9.39,0,0,0,6-2.16v1.62H650V461.34h-4.36Zm-5.45,12.24a5.34,5.34,0,1,1,5.45-5.33A5.39,5.39,0,0,1,640.16,475.21Z"/><path d="M565.49,460.81a9.38,9.38,0,0,0-6,2.16v-8h-4.36v23.47h4.36v-1.62a9.38,9.38,0,0,0,6,2.16,9.07,9.07,0,1,0,0-18.14Zm-.54,14.4a5.34,5.34,0,1,1,5.45-5.33A5.39,5.39,0,0,1,565,475.21Z"/><path d="M621.08,460.81a7.09,7.09,0,0,0-6,3.25,7.16,7.16,0,0,0-10.9-1.31v-1.41h-4.36v17.07h4.36V468.28a3.82,3.82,0,0,1,7.63,0v10.13h4.36V468.28a3.82,3.82,0,0,1,7.63,0v10.13h4.36V467.75A7,7,0,0,0,621.08,460.81Z"/><rect x="659.78" y="461.34" width="4.36" height="17.07"/><path d="M676.67,460.81a6,6,0,0,0-4.91,2.5v-2H667.4v17.07h4.36V467.75a3.25,3.25,0,0,1,3.27-3.21h2.18v-3.73Z"/><ellipse cx="661.96" cy="456.54" rx="2.72" ry="2.67"/><ellipse cx="654.87" cy="475.75" rx="2.72" ry="2.67"/></g></svg>