<svg xmlns="http://www.w3.org/2000/svg" viewBox="0 0 648 648"><defs><style>.cls-1{fill:#8db943;}.cls-2{fill:#fff;}.cls-3{fill:#222221;}</style></defs><g id="Graphic"><rect class="cls-1" x="154.48" y="90.72" width="339.32" height="466.56"/><rect class="cls-2" x="313.53" y="88.6" width="21.21" height="84.83" rx="10.6" transform="translate(455.15 -193.12) rotate(90)"/><rect x="393.49" y="302.33" width="53.35" height="53.35"/><rect x="201.44" y="227.64" width="53.35" height="128.03"/><rect x="329.47" y="227.64" width="53.35" height="128.03"/><circle cx="292.13" cy="329" r="26.67"/><circle cx="420.16" cy="393.02" r="26.67"/><path d="M246.79,400.39a11.34,11.34,0,1,0,0,17.27v2h5.33V398.35h-5.33Zm-6.67,15.3a6.67,6.67,0,1,1,6.67-6.67A6.67,6.67,0,0,1,240.12,415.69Z"/><path d="M312.14,400.39a11.34,11.34,0,1,0,0,17.27v2h5.33V398.35h-5.33Zm-6.67,15.3a6.67,6.67,0,1,1,6.67-6.67A6.67,6.67,0,0,1,305.47,415.69Z"/><path d="M214.11,397.68a11.24,11.24,0,0,0-7.33,2.71v-10h-5.34v29.34h5.34v-2a11.34,11.34,0,1,0,7.33-20Zm-.66,18a6.67,6.67,0,1,1,6.66-6.67A6.67,6.67,0,0,1,213.45,415.69Z"/><path d="M282.13,397.68a8.68,8.68,0,0,0-7.34,4.07,8.63,8.63,0,0,0-13.33-1.64v-1.76h-5.34v21.34h5.34V407a4.67,4.67,0,1,1,9.33,0v12.67h5.34V407a4.67,4.67,0,1,1,9.33,0v12.67h5.34V406.35A8.67,8.67,0,0,0,282.13,397.68Z"/><rect x="329.47" y="398.35" width="5.33" height="21.34"/><path d="M350.15,397.68a7.3,7.3,0,0,0-6,3.13v-2.46h-5.34v21.34h5.34V406.35a4,4,0,0,1,4-4h2.66v-4.67Z"/><circle cx="332.14" cy="392.35" r="3.33"/><circle cx="323.47" cy="416.36" r="3.33"/><rect class="cls-3" x="295.51" width="57.25" height="120.41"/></g></svg>