<svg xmlns="http://www.w3.org/2000/svg" viewBox="0 0 648 648"><defs><style>.cls-1,.cls-4,.cls-6,.cls-7{fill:none;stroke-miterlimit:10;}.cls-1{stroke:#000;stroke-linecap:round;stroke-width:9.94px;}.cls-2{fill:#84ad36;}.cls-3{fill:#799e32;}.cls-4,.cls-6,.cls-7{stroke:#fff;isolation:isolate;opacity:0.5;}.cls-4{stroke-width:0.71px;}.cls-5{fill:#8db943;}.cls-6{stroke-width:0.62px;}.cls-7{stroke-width:0.44px;}</style></defs><g id="Layer_1" data-name="Layer 1"><g id="Graphic-2" data-name="Graphic"><path class="cls-1" d="M293.52,199V130.62A68.42,68.42,0,0,1,430.35,129c0,.56,0,1.11,0,1.66V199"/><rect class="cls-2" x="119.76" y="168.97" width="484.35" height="332.05"/><polygon class="cls-3" points="43.89 528.7 119.76 501.02 119.76 168.97 43.89 196.65 43.89 528.7"/><line class="cls-4" x1="528.24" y1="196.65" x2="528.24" y2="528.73"/><rect class="cls-5" x="43.89" y="196.65" width="484.35" height="332.05"/><line class="cls-6" x1="528.24" y1="459.53" x2="43.89" y2="459.53"/><polygon class="cls-3" points="604.11 501.02 528.24 528.73 528.24 196.68 604.11 168.97 604.11 501.02"/><line class="cls-7" x1="566.17" y1="182.82" x2="566.17" y2="514.87"/><line class="cls-7" x1="604.11" y1="431.85" x2="528.24" y2="459.56"/><polyline class="cls-7" points="528.24 528.73 566.17 445.72 604.11 501.04"/><path class="cls-1" d="M218.24,232V163.61a68.42,68.42,0,0,1,136.83,0V232"/></g></g></svg>