<svg xmlns="http://www.w3.org/2000/svg" viewBox="0 0 1152 648"><defs><style>.cls-1{fill:#e5e5e5;}.cls-2{fill:#585757;}</style></defs><g id="Background"><rect class="cls-1" x="234.17" y="100.72" width="703.66" height="466.56"/></g><g id="Layer_1" data-name="Layer 1"><rect class="cls-2" x="224.17" y="90.72" width="703.66" height="466.56"/><rect x="673.27" y="293.6" width="74.82" height="74.82"/><rect x="403.91" y="188.85" width="74.82" height="179.57"/><rect x="583.48" y="188.85" width="74.82" height="179.57"/><circle cx="531.11" cy="331.01" r="37.41"/><circle cx="710.68" cy="420.8" r="37.41"/><path d="M467.51,431.14a15.9,15.9,0,1,0,0,24.22v2.85H475V428.28h-7.48Zm-9.35,21.46a9.35,9.35,0,1,1,9.35-9.35A9.35,9.35,0,0,1,458.16,452.6Z"/><path d="M559.17,431.14a15.9,15.9,0,1,0,0,24.22v2.85h7.48V428.28h-7.48Zm-9.35,21.46a9.35,9.35,0,1,1,9.35-9.35A9.36,9.36,0,0,1,549.82,452.6Z"/><path d="M421.68,427.35a15.8,15.8,0,0,0-10.28,3.79V417.06h-7.49v41.15h7.49v-2.85a15.89,15.89,0,1,0,10.28-28Zm-.93,25.25a9.35,9.35,0,1,1,9.35-9.35A9.35,9.35,0,0,1,420.75,452.6Z"/><path d="M517.08,427.35a12.15,12.15,0,0,0-10.29,5.7,12.12,12.12,0,0,0-18.7-2.3v-2.47h-7.48v29.93h7.48V440.44a6.55,6.55,0,0,1,13.09,0v17.77h7.48V440.44a6.55,6.55,0,0,1,13.1,0v17.77h7.48v-18.7A12.15,12.15,0,0,0,517.08,427.35Z"/><rect x="583.49" y="428.28" width="7.48" height="29.93"/><path d="M612.48,427.35a10.27,10.27,0,0,0-8.42,4.38v-3.45h-7.48v29.93h7.48v-18.7a5.61,5.61,0,0,1,5.61-5.61h3.75v-6.55Z"/><circle cx="587.23" cy="419.87" r="4.68"/><circle cx="575.07" cy="453.54" r="4.68"/></g></svg>