<svg xmlns="http://www.w3.org/2000/svg" viewBox="0 0 1152 648"><defs><style>.cls-1{fill:#e5e5e5;}.cls-2{fill:#585757;}</style></defs><g id="Background"><rect class="cls-1" x="234.17" y="100.72" width="703.66" height="466.56"/></g><g id="Layer_1" data-name="Layer 1"><rect class="cls-2" x="224.17" y="90.72" width="703.66" height="466.56"/><rect x="672.33" y="293.9" width="74.1" height="74.1"/><rect x="405.56" y="190.15" width="74.1" height="177.85"/><rect x="583.41" y="190.15" width="74.1" height="177.85"/><circle cx="531.54" cy="330.95" r="37.05"/><circle cx="709.39" cy="419.87" r="37.05"/><path d="M468.55,430.11a15.75,15.75,0,1,0,0,24v2.82H476V427.28h-7.42Zm-9.26,21.26a9.27,9.27,0,1,1,9.26-9.27A9.27,9.27,0,0,1,459.29,451.37Z"/><path d="M559.33,430.11a15.75,15.75,0,1,0,0,24v2.82h7.41V427.28h-7.41Zm-9.26,21.26a9.27,9.27,0,1,1,9.26-9.27A9.26,9.26,0,0,1,550.07,451.37Z"/><path d="M423.17,426.36A15.64,15.64,0,0,0,413,430.11V416.17h-7.41v40.75H413V454.1a15.74,15.74,0,1,0,10.19-27.74Zm-.93,25a9.27,9.27,0,1,1,9.26-9.27A9.26,9.26,0,0,1,422.24,451.37Z"/><path d="M517.65,426.36A12,12,0,0,0,507.46,432a12,12,0,0,0-18.53-2.28v-2.44h-7.41v29.64h7.41v-17.6a6.49,6.49,0,0,1,13,0v17.6h7.41v-17.6a6.49,6.49,0,0,1,13,0v17.6h7.41V438.4A12,12,0,0,0,517.65,426.36Z"/><rect x="583.42" y="427.28" width="7.41" height="29.64"/><path d="M612.13,426.36a10.17,10.17,0,0,0-8.34,4.34v-3.42h-7.41v29.64h7.41V438.4a5.56,5.56,0,0,1,5.56-5.56h3.71v-6.48Z"/><circle cx="587.12" cy="418.94" r="4.63"/><circle cx="575.08" cy="452.29" r="4.63"/></g></svg>