<svg xmlns="http://www.w3.org/2000/svg" viewBox="0 0 672 672"><g id="Layer_1" data-name="Layer 1"><rect x="457.14" y="332" width="80" height="80"/><rect x="169.14" y="220" width="80" height="192"/><rect x="361.14" y="220" width="80" height="192"/><circle cx="305.14" cy="372" r="40"/><circle cx="497.14" cy="468" r="40"/><path d="M127.75,353.71a14.58,14.58,0,1,0,22.2,0h2.62v-6.85H125.14v6.85Zm19.68,8.58a8.58,8.58,0,1,1-8.58-8.58A8.58,8.58,0,0,1,147.43,362.29Z"/><path d="M127.75,269.71a14.58,14.58,0,1,0,22.2,0h2.62v-6.85H125.14v6.85Zm19.68,8.58a8.58,8.58,0,1,1-8.58-8.58A8.58,8.58,0,0,1,147.43,278.29Z"/><path d="M124.28,395.71a14.51,14.51,0,0,0,3.47,9.43h-12.9V412h37.72v-6.86H150a14.57,14.57,0,1,0-25.67-9.43Zm23.15.86a8.58,8.58,0,1,1-8.58-8.57A8.57,8.57,0,0,1,147.43,396.57Z"/><path d="M124.28,308.29a11.11,11.11,0,0,0,5.23,9.42,11.11,11.11,0,0,0-2.11,17.15h-2.26v6.85h27.43v-6.85H136.28a6,6,0,1,1,0-12h16.29V316H136.28a6,6,0,1,1,0-12h16.29v-6.86H135.43A11.15,11.15,0,0,0,124.28,308.29Z"/><rect x="125.14" y="240.57" width="27.43" height="6.86"/><path d="M124.28,220.86a9.39,9.39,0,0,0,4,7.71h-3.16v6.86h27.43v-6.86H135.43a5.14,5.14,0,0,1-5.15-5.14V220h-6Z"/><circle cx="117.43" cy="244" r="4.29"/><circle cx="148.28" cy="255.14" r="4.29"/></g></svg>