<svg xmlns="http://www.w3.org/2000/svg" viewBox="0 0 1080 672"><defs><style>.cls-1{fill:#8fe044;}.cls-2{fill:#fff;}.cls-3{fill:#caff83;}</style></defs><g id="Layer_3" data-name="Layer 3"><rect class="cls-1" width="1080" height="672"/></g><g id="Layer_1" data-name="Layer 1"><rect class="cls-2" x="648" y="328" width="80" height="80"/><rect class="cls-2" x="360" y="216" width="80" height="192"/><rect class="cls-2" x="552" y="216" width="80" height="192"/><circle class="cls-2" cx="496" cy="368" r="40"/><circle class="cls-2" cx="688" cy="464" r="40"/><path class="cls-2" d="M428,475.05a17,17,0,1,0,0,25.9V504h8V472h-8ZM418,498a10,10,0,1,1,10-10A10,10,0,0,1,418,498Z"/><path class="cls-2" d="M526,475.05a17,17,0,1,0,0,25.9V504h8V472h-8ZM516,498a10,10,0,1,1,10-10A10,10,0,0,1,516,498Z"/><path class="cls-2" d="M379,471a16.92,16.92,0,0,0-11,4.05V460h-8v44h8V501A17,17,0,1,0,379,471Zm-1,27a10,10,0,1,1,10-10A10,10,0,0,1,378,498Z"/><path class="cls-2" d="M481,471a13,13,0,0,0-11,6.09,13,13,0,0,0-20-2.46V472h-8v32h8V485a7,7,0,0,1,14,0v19h8V485a7,7,0,0,1,14,0v19h8V484A13,13,0,0,0,481,471Z"/><rect class="cls-2" x="552.01" y="472" width="8" height="32"/><path class="cls-2" d="M583,471a11,11,0,0,0-9,4.69V472h-8v32h8V484a6,6,0,0,1,6-6h4v-7Z"/><circle class="cls-2" cx="556.01" cy="463" r="5"/><circle class="cls-2" cx="543.01" cy="499" r="5"/><rect class="cls-3" y="215.5" width="1080" height="1"/><rect class="cls-3" x="359.61" width="0.79" height="672"/><rect class="cls-3" x="727.61" width="0.79" height="672"/><path class="cls-3" d="M1076,408.5h-6v-1h6Zm-10,0h-6v-1h6Zm-10,0h-6v-1h6Zm-10,0h-6v-1h6Zm-10,0h-6v-1h6Zm-10,0h-6v-1h6Zm-10,0h-6v-1h6Zm-10,0h-6v-1h6Zm-10,0h-6v-1h6Zm-10,0h-6v-1h6Zm-10,0h-6v-1h6Zm-10,0h-6v-1h6Zm-10,0h-6v-1h6Zm-10,0h-6v-1h6Zm-10,0h-6v-1h6Zm-10,0h-6v-1h6Zm-10,0h-6v-1h6Zm-10,0h-6v-1h6Zm-10,0h-6v-1h6Zm-10,0h-6v-1h6Zm-10,0h-6v-1h6Zm-10,0h-6v-1h6Zm-10,0h-6v-1h6Zm-10,0h-6v-1h6Zm-10,0h-6v-1h6Zm-10,0h-6v-1h6Zm-10,0h-6v-1h6Zm-10,0h-6v-1h6Zm-10,0h-6v-1h6Zm-10,0h-6v-1h6Zm-10,0h-6v-1h6Zm-10,0h-6v-1h6Zm-10,0h-6v-1h6Zm-10,0h-6v-1h6Zm-10,0h-6v-1h6Zm-10,0h-6v-1h6Zm-10,0h-6v-1h6Zm-10,0h-6v-1h6Zm-10,0h-6v-1h6Zm-10,0h-6v-1h6Zm-10,0h-6v-1h6Zm-10,0h-6v-1h6Zm-10,0h-6v-1h6Zm-10,0h-6v-1h6Zm-10,0h-6v-1h6Zm-10,0h-6v-1h6Zm-10,0h-6v-1h6Zm-10,0h-6v-1h6Zm-10,0h-6v-1h6Zm-10,0h-6v-1h6Zm-10,0h-6v-1h6Zm-10,0h-6v-1h6Zm-10,0h-6v-1h6Zm-10,0h-6v-1h6Zm-10,0h-6v-1h6Zm-10,0h-6v-1h6Zm-10,0h-6v-1h6Zm-10,0h-6v-1h6Zm-10,0h-6v-1h6Zm-10,0h-6v-1h6Zm-10,0h-6v-1h6Zm-10,0h-6v-1h6Zm-10,0h-6v-1h6Zm-10,0h-6v-1h6Zm-10,0h-6v-1h6Zm-10,0h-6v-1h6Zm-10,0h-6v-1h6Zm-10,0h-6v-1h6Zm-10,0h-6v-1h6Zm-10,0h-6v-1h6Zm-10,0h-6v-1h6Zm-10,0h-6v-1h6Zm-10,0h-6v-1h6Zm-10,0h-6v-1h6Zm-10,0h-6v-1h6Zm-10,0h-6v-1h6Zm-10,0h-6v-1h6Zm-10,0h-6v-1h6Zm-10,0h-6v-1h6Zm-10,0h-6v-1h6Zm-10,0h-6v-1h6Zm-10,0h-6v-1h6Zm-10,0h-6v-1h6Zm-10,0h-6v-1h6Zm-10,0h-6v-1h6Zm-10,0h-6v-1h6Zm-10,0h-6v-1h6Zm-10,0h-6v-1h6Zm-10,0h-6v-1h6Zm-10,0h-6v-1h6Zm-10,0h-6v-1h6Zm-10,0h-6v-1h6Zm-10,0h-6v-1h6Zm-10,0h-6v-1h6Zm-10,0h-6v-1h6Zm-10,0h-6v-1h6Zm-10,0h-6v-1h6Zm-10,0h-6v-1h6Zm-10,0H90v-1h6Zm-10,0H80v-1h6Zm-10,0H70v-1h6Zm-10,0H60v-1h6Zm-10,0H50v-1h6Zm-10,0H40v-1h6Zm-10,0H30v-1h6Zm-10,0H20v-1h6Zm-10,0H10v-1h6Zm-10,0H0v-1H6Z"/><path class="cls-3" d="M1076,472.5h-6v-1h6Zm-10,0h-6v-1h6Zm-10,0h-6v-1h6Zm-10,0h-6v-1h6Zm-10,0h-6v-1h6Zm-10,0h-6v-1h6Zm-10,0h-6v-1h6Zm-10,0h-6v-1h6Zm-10,0h-6v-1h6Zm-10,0h-6v-1h6Zm-10,0h-6v-1h6Zm-10,0h-6v-1h6Zm-10,0h-6v-1h6Zm-10,0h-6v-1h6Zm-10,0h-6v-1h6Zm-10,0h-6v-1h6Zm-10,0h-6v-1h6Zm-10,0h-6v-1h6Zm-10,0h-6v-1h6Zm-10,0h-6v-1h6Zm-10,0h-6v-1h6Zm-10,0h-6v-1h6Zm-10,0h-6v-1h6Zm-10,0h-6v-1h6Zm-10,0h-6v-1h6Zm-10,0h-6v-1h6Zm-10,0h-6v-1h6Zm-10,0h-6v-1h6Zm-10,0h-6v-1h6Zm-10,0h-6v-1h6Zm-10,0h-6v-1h6Zm-10,0h-6v-1h6Zm-10,0h-6v-1h6Zm-10,0h-6v-1h6Zm-10,0h-6v-1h6Zm-10,0h-6v-1h6Zm-10,0h-6v-1h6Zm-10,0h-6v-1h6Zm-10,0h-6v-1h6Zm-10,0h-6v-1h6Zm-10,0h-6v-1h6Zm-10,0h-6v-1h6Zm-10,0h-6v-1h6Zm-10,0h-6v-1h6Zm-10,0h-6v-1h6Zm-10,0h-6v-1h6Zm-10,0h-6v-1h6Zm-10,0h-6v-1h6Zm-10,0h-6v-1h6Zm-10,0h-6v-1h6Zm-10,0h-6v-1h6Zm-10,0h-6v-1h6Zm-10,0h-6v-1h6Zm-10,0h-6v-1h6Zm-10,0h-6v-1h6Zm-10,0h-6v-1h6Zm-10,0h-6v-1h6Zm-10,0h-6v-1h6Zm-10,0h-6v-1h6Zm-10,0h-6v-1h6Zm-10,0h-6v-1h6Zm-10,0h-6v-1h6Zm-10,0h-6v-1h6Zm-10,0h-6v-1h6Zm-10,0h-6v-1h6Zm-10,0h-6v-1h6Zm-10,0h-6v-1h6Zm-10,0h-6v-1h6Zm-10,0h-6v-1h6Zm-10,0h-6v-1h6Zm-10,0h-6v-1h6Zm-10,0h-6v-1h6Zm-10,0h-6v-1h6Zm-10,0h-6v-1h6Zm-10,0h-6v-1h6Zm-10,0h-6v-1h6Zm-10,0h-6v-1h6Zm-10,0h-6v-1h6Zm-10,0h-6v-1h6Zm-10,0h-6v-1h6Zm-10,0h-6v-1h6Zm-10,0h-6v-1h6Zm-10,0h-6v-1h6Zm-10,0h-6v-1h6Zm-10,0h-6v-1h6Zm-10,0h-6v-1h6Zm-10,0h-6v-1h6Zm-10,0h-6v-1h6Zm-10,0h-6v-1h6Zm-10,0h-6v-1h6Zm-10,0h-6v-1h6Zm-10,0h-6v-1h6Zm-10,0h-6v-1h6Zm-10,0h-6v-1h6Zm-10,0h-6v-1h6Zm-10,0h-6v-1h6Zm-10,0h-6v-1h6Zm-10,0h-6v-1h6Zm-10,0H90v-1h6Zm-10,0H80v-1h6Zm-10,0H70v-1h6Zm-10,0H60v-1h6Zm-10,0H50v-1h6Zm-10,0H40v-1h6Zm-10,0H30v-1h6Zm-10,0H20v-1h6Zm-10,0H10v-1h6Zm-10,0H0v-1H6Z"/><path class="cls-3" d="M1076,440.5h-6v-1h6Zm-10,0h-6v-1h6Zm-10,0h-6v-1h6Zm-10,0h-6v-1h6Zm-10,0h-6v-1h6Zm-10,0h-6v-1h6Zm-10,0h-6v-1h6Zm-10,0h-6v-1h6Zm-10,0h-6v-1h6Zm-10,0h-6v-1h6Zm-10,0h-6v-1h6Zm-10,0h-6v-1h6Zm-10,0h-6v-1h6Zm-10,0h-6v-1h6Zm-10,0h-6v-1h6Zm-10,0h-6v-1h6Zm-10,0h-6v-1h6Zm-10,0h-6v-1h6Zm-10,0h-6v-1h6Zm-10,0h-6v-1h6Zm-10,0h-6v-1h6Zm-10,0h-6v-1h6Zm-10,0h-6v-1h6Zm-10,0h-6v-1h6Zm-10,0h-6v-1h6Zm-10,0h-6v-1h6Zm-10,0h-6v-1h6Zm-10,0h-6v-1h6Zm-10,0h-6v-1h6Zm-10,0h-6v-1h6Zm-10,0h-6v-1h6Zm-10,0h-6v-1h6Zm-10,0h-6v-1h6Zm-10,0h-6v-1h6Zm-10,0h-6v-1h6Zm-10,0h-6v-1h6Zm-10,0h-6v-1h6Zm-10,0h-6v-1h6Zm-10,0h-6v-1h6Zm-10,0h-6v-1h6Zm-10,0h-6v-1h6Zm-10,0h-6v-1h6Zm-10,0h-6v-1h6Zm-10,0h-6v-1h6Zm-10,0h-6v-1h6Zm-10,0h-6v-1h6Zm-10,0h-6v-1h6Zm-10,0h-6v-1h6Zm-10,0h-6v-1h6Zm-10,0h-6v-1h6Zm-10,0h-6v-1h6Zm-10,0h-6v-1h6Zm-10,0h-6v-1h6Zm-10,0h-6v-1h6Zm-10,0h-6v-1h6Zm-10,0h-6v-1h6Zm-10,0h-6v-1h6Zm-10,0h-6v-1h6Zm-10,0h-6v-1h6Zm-10,0h-6v-1h6Zm-10,0h-6v-1h6Zm-10,0h-6v-1h6Zm-10,0h-6v-1h6Zm-10,0h-6v-1h6Zm-10,0h-6v-1h6Zm-10,0h-6v-1h6Zm-10,0h-6v-1h6Zm-10,0h-6v-1h6Zm-10,0h-6v-1h6Zm-10,0h-6v-1h6Zm-10,0h-6v-1h6Zm-10,0h-6v-1h6Zm-10,0h-6v-1h6Zm-10,0h-6v-1h6Zm-10,0h-6v-1h6Zm-10,0h-6v-1h6Zm-10,0h-6v-1h6Zm-10,0h-6v-1h6Zm-10,0h-6v-1h6Zm-10,0h-6v-1h6Zm-10,0h-6v-1h6Zm-10,0h-6v-1h6Zm-10,0h-6v-1h6Zm-10,0h-6v-1h6Zm-10,0h-6v-1h6Zm-10,0h-6v-1h6Zm-10,0h-6v-1h6Zm-10,0h-6v-1h6Zm-10,0h-6v-1h6Zm-10,0h-6v-1h6Zm-10,0h-6v-1h6Zm-10,0h-6v-1h6Zm-10,0h-6v-1h6Zm-10,0h-6v-1h6Zm-10,0h-6v-1h6Zm-10,0h-6v-1h6Zm-10,0h-6v-1h6Zm-10,0h-6v-1h6Zm-10,0H90v-1h6Zm-10,0H80v-1h6Zm-10,0H70v-1h6Zm-10,0H60v-1h6Zm-10,0H50v-1h6Zm-10,0H40v-1h6Zm-10,0H30v-1h6Zm-10,0H20v-1h6Zm-10,0H10v-1h6Zm-10,0H0v-1H6Z"/><path class="cls-3" d="M552.5,672h-1v-6h1Zm0-10h-1v-6h1Zm0-10h-1v-6h1Zm0-10h-1v-6h1Zm0-10h-1v-6h1Zm0-10h-1v-6h1Zm0-10h-1v-6h1Zm0-10h-1v-6h1Zm0-10h-1v-6h1Zm0-10h-1v-6h1Zm0-10h-1v-6h1Zm0-10h-1v-6h1Zm0-10h-1v-6h1Zm0-10h-1v-6h1Zm0-10h-1v-6h1Zm0-10h-1v-6h1Zm0-10h-1v-6h1Zm0-10h-1v-6h1Zm0-10h-1v-6h1Zm0-10h-1v-6h1Zm0-10h-1v-6h1Zm0-10h-1v-6h1Zm0-10h-1v-6h1Zm0-10h-1v-6h1Zm0-10h-1v-6h1Zm0-10h-1v-6h1Zm0-10h-1v-6h1Zm0-10h-1v-6h1Zm0-10h-1v-6h1Zm0-10h-1v-6h1Zm0-10h-1v-6h1Zm0-10h-1v-6h1Zm0-10h-1v-6h1Zm0-10h-1v-6h1Zm0-10h-1v-6h1Zm0-10h-1v-6h1Zm0-10h-1v-6h1Zm0-10h-1v-6h1Zm0-10h-1v-6h1Zm0-10h-1v-6h1Zm0-10h-1v-6h1Zm0-10h-1v-6h1Zm0-10h-1v-6h1Zm0-10h-1v-6h1Zm0-10h-1v-6h1Zm0-10h-1v-6h1Zm0-10h-1v-6h1Zm0-10h-1v-6h1Zm0-10h-1v-6h1Zm0-10h-1v-6h1Zm0-10h-1v-6h1Zm0-10h-1v-6h1Zm0-10h-1v-6h1Zm0-10h-1v-6h1Zm0-10h-1v-6h1Zm0-10h-1v-6h1Zm0-10h-1v-6h1Zm0-10h-1V96h1Zm0-10h-1V86h1Zm0-10h-1V76h1Zm0-10h-1V66h1Zm0-10h-1V56h1Zm0-10h-1V46h1Zm0-10h-1V36h1Zm0-10h-1V26h1Zm0-10h-1V16h1Zm0-10h-1V6h1Zm0-10h-1V0h1Z"/><rect class="cls-3" y="503.5" width="1080" height="1"/></g></svg>