<?xml version="1.0" encoding="utf-8"?>
<!-- Generator: Adobe Illustrator 25.0.0, SVG Export Plug-In . SVG Version: 6.00 Build 0)  -->
<svg version="1.1" id="Layer_1" xmlns="http://www.w3.org/2000/svg" xmlns:xlink="http://www.w3.org/1999/xlink" x="0px" y="0px"
	 viewBox="0 0 1080 672" style="enable-background:new 0 0 1080 672;" xml:space="preserve">
<style type="text/css">
	.st0{fill:#8FE044;}
	.st1{fill:#FFFFFF;}
	.st2{fill:#B2E47F;}
	.st3{fill:#E3F5CF;}
	.st4{fill:#F9FCF5;}
	.st5{fill:#C9ECA7;}
	.st6{fill:#7EBC3C;}
	.st7{enable-background:new    ;}
</style>
<g id="Layer_3">
	<rect class="st0" width="1080" height="672"/>
</g>
<g id="Layer_1_1_">
	<rect x="862" y="440" class="st0" width="48" height="48"/>
	<rect x="854" y="440" class="st1" width="64" height="48"/>
	<rect x="862" y="432" class="st1" width="48" height="64"/>
	<rect x="862" y="424" class="st2" width="8" height="8"/>
	<rect x="870" y="424" class="st3" width="8" height="8"/>
	<rect x="878" y="424" class="st4" width="8" height="8"/>
	<rect x="886" y="424" class="st4" width="8" height="8"/>
	<rect x="894" y="424" class="st3" width="8" height="8"/>
	<rect x="902" y="424" class="st2" width="8" height="8"/>
	<rect x="862" y="496" class="st2" width="8" height="8"/>
	<rect x="870" y="496" class="st3" width="8" height="8"/>
	<rect x="878" y="496" class="st4" width="8" height="8"/>
	<rect x="886" y="496" class="st4" width="8" height="8"/>
	<rect x="894" y="496" class="st3" width="8" height="8"/>
	<rect x="902" y="496" class="st2" width="8" height="8"/>
	<rect x="846" y="440" class="st2" width="8" height="8"/>
	<rect x="846" y="448" class="st3" width="8" height="8"/>
	<rect x="846" y="456" class="st4" width="8" height="8"/>
	<rect x="846" y="464" class="st4" width="8" height="8"/>
	<rect x="846" y="472" class="st3" width="8" height="8"/>
	<rect x="846" y="480" class="st2" width="8" height="8"/>
	<rect x="918" y="440" class="st2" width="8" height="8"/>
	<rect x="910" y="432" class="st5" width="8" height="8"/>
	<rect x="854" y="432" class="st5" width="8" height="8"/>
	<rect x="854" y="488" class="st5" width="8" height="8"/>
	<rect x="910" y="488" class="st5" width="8" height="8"/>
	<rect x="918" y="448" class="st3" width="8" height="8"/>
	<rect x="918" y="456" class="st4" width="8" height="8"/>
	<rect x="918" y="464" class="st4" width="8" height="8"/>
	<rect x="918" y="472" class="st3" width="8" height="8"/>
	<rect x="918" y="480" class="st2" width="8" height="8"/>
	<rect x="558" y="216" class="st1" width="80" height="192"/>
	<rect x="750" y="216" class="st1" width="80" height="192"/>
	<rect x="846" y="328" class="st1" width="80" height="80"/>
	<rect x="670" y="344" class="st0" width="48" height="48"/>
	<rect x="662" y="344" class="st1" width="64" height="48"/>
	<rect x="670" y="336" class="st1" width="48" height="64"/>
	<rect x="670" y="328" class="st2" width="8" height="8"/>
	<rect x="678" y="328" class="st3" width="8" height="8"/>
	<rect x="686" y="328" class="st4" width="8" height="8"/>
	<rect x="694" y="328" class="st4" width="8" height="8"/>
	<rect x="702" y="328" class="st3" width="8" height="8"/>
	<rect x="710" y="328" class="st2" width="8" height="8"/>
	<rect x="670" y="400" class="st2" width="8" height="8"/>
	<rect x="678" y="400" class="st3" width="8" height="8"/>
	<rect x="686" y="400" class="st4" width="8" height="8"/>
	<rect x="694" y="400" class="st4" width="8" height="8"/>
	<rect x="702" y="400" class="st3" width="8" height="8"/>
	<rect x="710" y="400" class="st2" width="8" height="8"/>
	<rect x="654" y="344" class="st2" width="8" height="8"/>
	<rect x="654" y="352" class="st3" width="8" height="8"/>
	<rect x="654" y="360" class="st4" width="8" height="8"/>
	<rect x="654" y="368" class="st4" width="8" height="8"/>
	<rect x="654" y="376" class="st3" width="8" height="8"/>
	<rect x="654" y="384" class="st2" width="8" height="8"/>
	<rect x="726" y="344" class="st2" width="8" height="8"/>
	<rect x="718" y="336" class="st5" width="8" height="8"/>
	<rect x="662" y="336" class="st5" width="8" height="8"/>
	<rect x="662" y="392" class="st5" width="8" height="8"/>
	<rect x="718" y="392" class="st5" width="8" height="8"/>
	<rect x="726" y="352" class="st3" width="8" height="8"/>
	<rect x="726" y="360" class="st4" width="8" height="8"/>
	<rect x="726" y="368" class="st4" width="8" height="8"/>
	<rect x="726" y="376" class="st3" width="8" height="8"/>
	<rect x="726" y="384" class="st2" width="8" height="8"/>
	<path class="st6" d="M666,408.5c-6.9,0-12.5-5.6-12.5-12.5s5.6-12.5,12.5-12.5s12.5,5.6,12.5,12.5l0,0
		C678.5,402.9,672.9,408.5,666,408.5z M666,384.5c-6.4,0-11.5,5.1-11.5,11.5s5.1,11.5,11.5,11.5s11.5-5.1,11.5-11.5l0,0
		C677.5,389.7,672.3,384.5,666,384.5z"/>
	<rect x="323.9" y="441.8" transform="matrix(0.98 -0.1992 0.1992 0.98 -78.1217 108.103)" class="st6" width="348.5" height="1"/>
	<rect x="517.9" y="119" transform="matrix(0.4997 -0.8662 0.8662 0.4997 2.0681 597.6143)" class="st6" width="1" height="355.9"/>
	<path class="st2" d="M433.7,384c-14.5,41-46.7,73.2-87.7,87.7V384H433.7z"/>
	<path class="st2" d="M250,200.3V288h-87.7C176.8,247,209,214.8,250,200.3z"/>
	<rect x="250" y="288" class="st5" width="96" height="96"/>
	<path class="st1" d="M442,336c0,16.4-2.8,32.6-8.3,48H346v-96h-96v-87.7c15.4-5.5,31.6-8.3,48-8.3C377.5,192,442,256.5,442,336z"/>
	<g class="st7">
		<path d="M284.5,344.8h-2.7v-18.1l-5.5,2v-2.5l7.8-2.9h0.4V344.8z"/>
		<path d="M306.1,337c0,2.4-0.6,4.4-1.7,5.8s-2.6,2.2-4.5,2.2c-1.9,0-3.4-0.6-4.5-1.8v7.6h-2.7v-21.9h2.5l0.1,1.8
			c1.1-1.4,2.6-2.1,4.6-2.1c1.9,0,3.4,0.7,4.5,2.2s1.7,3.4,1.7,6V337z M303.4,336.7c0-1.8-0.4-3.2-1.1-4.2s-1.8-1.6-3.1-1.6
			c-1.6,0-2.9,0.7-3.7,2.2v7.6c0.8,1.4,2.1,2.2,3.7,2.2c1.3,0,2.3-0.5,3.1-1.5C303,340.3,303.4,338.7,303.4,336.7z"/>
		<path d="M314.6,334.7l3.5-5.8h3.2l-5.2,7.8l5.3,8h-3.1l-3.7-5.9l-3.7,5.9h-3.1l5.3-8l-5.2-7.8h3.1L314.6,334.7z"/>
	</g>
	<g class="st7">
		<path d="M284.5,247h-2.7v-18.1l-5.5,2v-2.5l7.8-2.9h0.4V247z"/>
		<path d="M306.1,239.3c0,2.4-0.6,4.4-1.7,5.8s-2.6,2.2-4.5,2.2c-1.9,0-3.4-0.6-4.5-1.8v7.6h-2.7v-21.9h2.5l0.1,1.8
			c1.1-1.4,2.6-2.1,4.6-2.1c1.9,0,3.4,0.7,4.5,2.2s1.7,3.4,1.7,6V239.3z M303.4,239c0-1.8-0.4-3.2-1.1-4.2s-1.8-1.6-3.1-1.6
			c-1.6,0-2.9,0.7-3.7,2.2v7.6c0.8,1.4,2.1,2.2,3.7,2.2c1.3,0,2.3-0.5,3.1-1.5C303,242.5,303.4,241,303.4,239z"/>
		<path d="M314.6,236.9l3.5-5.8h3.2l-5.2,7.8l5.3,8h-3.1l-3.7-5.9L311,247h-3.1l5.3-8l-5.2-7.8h3.1L314.6,236.9z"/>
	</g>
	<g class="st7">
		<path d="M284.5,446.1h-2.7V428l-5.5,2v-2.5l7.8-2.9h0.4V446.1z"/>
		<path d="M306.1,438.4c0,2.4-0.6,4.4-1.7,5.8s-2.6,2.2-4.5,2.2c-1.9,0-3.4-0.6-4.5-1.8v7.6h-2.7v-21.9h2.5l0.1,1.8
			c1.1-1.4,2.6-2.1,4.6-2.1c1.9,0,3.4,0.7,4.5,2.2s1.7,3.4,1.7,6V438.4z M303.4,438c0-1.8-0.4-3.2-1.1-4.2s-1.8-1.6-3.1-1.6
			c-1.6,0-2.9,0.7-3.7,2.2v7.6c0.8,1.4,2.1,2.2,3.7,2.2c1.3,0,2.3-0.5,3.1-1.5C303,441.6,303.4,440.1,303.4,438z"/>
		<path d="M314.6,436l3.5-5.8h3.2l-5.2,7.8l5.3,8h-3.1l-3.7-5.9l-3.7,5.9h-3.1l5.3-8l-5.2-7.8h3.1L314.6,436z"/>
	</g>
	<g class="st7">
		<path d="M377.9,344.8h-2.7v-18.1l-5.5,2v-2.5l7.8-2.9h0.4V344.8z"/>
		<path d="M399.5,337c0,2.4-0.6,4.4-1.7,5.8s-2.6,2.2-4.5,2.2c-1.9,0-3.4-0.6-4.5-1.8v7.6h-2.7v-21.9h2.5l0.1,1.8
			c1.1-1.4,2.6-2.1,4.6-2.1c1.9,0,3.4,0.7,4.5,2.2s1.7,3.4,1.7,6V337z M396.8,336.7c0-1.8-0.4-3.2-1.1-4.2s-1.8-1.6-3.1-1.6
			c-1.6,0-2.9,0.7-3.7,2.2v7.6c0.8,1.4,2.1,2.2,3.7,2.2c1.3,0,2.3-0.5,3.1-1.5C396.4,340.3,396.8,338.7,396.8,336.7z"/>
		<path d="M408.1,334.7l3.5-5.8h3.2l-5.2,7.8l5.3,8h-3.1l-3.7-5.9l-3.7,5.9h-3.1l5.3-8l-5.2-7.8h3.1L408.1,334.7z"/>
	</g>
	<g class="st7">
		<path d="M185,344.8h-2.7v-18.1l-5.5,2v-2.5l7.8-2.9h0.4V344.8z"/>
		<path d="M206.6,337c0,2.4-0.6,4.4-1.7,5.8s-2.6,2.2-4.5,2.2c-1.9,0-3.4-0.6-4.5-1.8v7.6h-2.7v-21.9h2.5l0.1,1.8
			c1.1-1.4,2.6-2.1,4.6-2.1c1.9,0,3.4,0.7,4.5,2.2s1.7,3.4,1.7,6V337z M203.9,336.7c0-1.8-0.4-3.2-1.1-4.2s-1.8-1.6-3.1-1.6
			c-1.6,0-2.9,0.7-3.7,2.2v7.6c0.8,1.4,2.1,2.2,3.7,2.2c1.3,0,2.3-0.5,3.1-1.5C203.6,340.3,203.9,338.7,203.9,336.7z"/>
		<path d="M215.2,334.7l3.5-5.8h3.2l-5.2,7.8l5.3,8h-3.1l-3.7-5.9l-3.7,5.9h-3.1l5.3-8l-5.2-7.8h3.1L215.2,334.7z"/>
	</g>
	<rect x="249.5" y="200.3" class="st6" width="1" height="271.7"/>
	<rect x="162.1" y="383.5" class="st6" width="271.7" height="1"/>
	<rect x="162.1" y="287.5" class="st6" width="271.7" height="1"/>
	<rect x="345.5" y="200.2" class="st6" width="1" height="271.5"/>
	<path class="st6" d="M298,480.5c-79.7,0-144.5-64.8-144.5-144.5c0-16.4,2.8-32.7,8.3-48.2c14.5-41.1,46.9-73.5,88-88
		c15.5-5.5,31.8-8.4,48.2-8.3c79.7,0,144.5,64.8,144.5,144.5c0,16.4-2.8,32.7-8.3,48.2c-14.5,41.1-46.9,73.5-88,88
		C330.7,477.7,314.4,480.5,298,480.5z M298,192.5c-16.3,0-32.5,2.8-47.8,8.2c-40.8,14.5-72.9,46.6-87.4,87.4
		c-5.5,15.3-8.3,31.5-8.3,47.8c0,79.1,64.4,143.5,143.5,143.5c16.3,0,32.5-2.8,47.8-8.2c40.8-14.5,72.9-46.6,87.4-87.4
		c5.5-15.3,8.3-31.5,8.2-47.8C441.5,256.9,377.1,192.5,298,192.5z"/>
</g>
</svg>
