<svg xmlns="http://www.w3.org/2000/svg" viewBox="0 0 1080 672"><g id="Layer_1" data-name="Layer 1"><rect x="648" y="328" width="80" height="80"/><rect x="360" y="216" width="80" height="192"/><rect x="552" y="216" width="80" height="192"/><circle cx="496" cy="368" r="40"/><circle cx="688" cy="464" r="40"/><path d="M428,475.05a17,17,0,1,0,0,25.9V504h8V472h-8ZM418,498a10,10,0,1,1,10-10A10,10,0,0,1,418,498Z"/><path d="M526,475.05a17,17,0,1,0,0,25.9V504h8V472h-8ZM516,498a10,10,0,1,1,10-10A10,10,0,0,1,516,498Z"/><path d="M379,471a16.92,16.92,0,0,0-11,4.05V460h-8v44h8V501A17,17,0,1,0,379,471Zm-1,27a10,10,0,1,1,10-10A10,10,0,0,1,378,498Z"/><path d="M481,471a13,13,0,0,0-11,6.09,13,13,0,0,0-20-2.46V472h-8v32h8V485a7,7,0,0,1,14,0v19h8V485a7,7,0,0,1,14,0v19h8V484A13,13,0,0,0,481,471Z"/><rect x="552.01" y="472" width="8" height="32"/><path d="M583,471a11,11,0,0,0-9,4.69V472h-8v32h8V484a6,6,0,0,1,6-6h4v-7Z"/><circle cx="556.01" cy="463" r="5"/><circle cx="543.01" cy="499" r="5"/></g></svg>