<svg xmlns="http://www.w3.org/2000/svg" viewBox="0 0 648 648"><defs><style>.cls-1{fill:#fff;}.cls-2{fill:#d3d3d3;}</style></defs><g id="Layer_1" data-name="Layer 1"><circle class="cls-1" cx="324" cy="517.79" r="130.21"/><path class="cls-2" d="M275.53,610.34l-.63,1.09-2.8-1.61L266.82,619l-1.34-.77,5.28-9.18-2.82-1.62.63-1.09Z"/><path class="cls-2" d="M273.59,622.08a4.37,4.37,0,0,1-.81-2.23,5.2,5.2,0,0,1,.51-2.56,5,5,0,0,1,1.62-2,4.23,4.23,0,0,1,2.24-.82,4.84,4.84,0,0,1,2.42.46,4.94,4.94,0,0,1,1.94,1.53,4.44,4.44,0,0,1,.84,2.23,5.44,5.44,0,0,1-2.13,4.61,4.4,4.4,0,0,1-2.28.81,4.92,4.92,0,0,1-2.44-.46A4.74,4.74,0,0,1,273.59,622.08Zm4.06.59a3,3,0,0,0,1.57-.57,3.77,3.77,0,0,0,1.2-1.55,3.83,3.83,0,0,0,.39-1.91,2.85,2.85,0,0,0-.57-1.54,3.29,3.29,0,0,0-1.24-1,3.37,3.37,0,0,0-1.58-.3,2.91,2.91,0,0,0-1.51.59,4.57,4.57,0,0,0-1.6,3.48,2.78,2.78,0,0,0,.53,1.52,3.07,3.07,0,0,0,1.23,1A3.31,3.31,0,0,0,277.65,622.67Z"/><path class="cls-2" d="M292.11,620.81a3.93,3.93,0,0,1,0,3.15l-1.77,5.2-1.45-.5,1.7-5a3,3,0,0,0,0-2.24,2.48,2.48,0,0,0-1.56-1.32,2.55,2.55,0,0,0-2.09.1,3.08,3.08,0,0,0-1.4,1.87L283.94,627l-1.46-.5,3-8.82,1.47.5-.43,1.26a3,3,0,0,1,1.54-.65,3.88,3.88,0,0,1,1.77.2A3.76,3.76,0,0,1,292.11,620.81Z"/><path class="cls-2" d="M302.66,628l-7.25-1.7a3,3,0,0,0,.43,2.31,3,3,0,0,0,1.85,1.22,2.79,2.79,0,0,0,1.73-.07,2.47,2.47,0,0,0,1.21-1l1.62.38a4,4,0,0,1-1.95,1.79,4.59,4.59,0,0,1-2.91.18,4.69,4.69,0,0,1-2.17-1.12,4.25,4.25,0,0,1-1.22-2,5.85,5.85,0,0,1,1.15-5,4,4,0,0,1,2-1.26,4.83,4.83,0,0,1,2.48,0,4.69,4.69,0,0,1,2.15,1.1,4.09,4.09,0,0,1,1.17,1.91,4.67,4.67,0,0,1,0,2.35A8.9,8.9,0,0,1,302.66,628Zm-1.25-3.15a2.59,2.59,0,0,0-.82-1.19,3.3,3.3,0,0,0-1.37-.66,2.84,2.84,0,0,0-2.11.27,3,3,0,0,0-1.4,1.81l5.73,1.34A3,3,0,0,0,301.41,624.85Z"/><path class="cls-2" d="M311.78,626.5l-.18,1.29-6.72-.94.18-1.29Z"/><path class="cls-2" d="M316.09,633.33a4.17,4.17,0,0,1-1.58-1.77A5.2,5.2,0,0,1,314,629a5,5,0,0,1,.74-2.5,4.2,4.2,0,0,1,1.77-1.6,5.22,5.22,0,0,1,4.78.22,4.3,4.3,0,0,1,1.62,1.76,5.41,5.41,0,0,1-.26,5.06,4.43,4.43,0,0,1-1.8,1.61,5.13,5.13,0,0,1-4.78-.22Zm4-1a3,3,0,0,0,1.23-1.12,4.28,4.28,0,0,0,.19-3.8,2.91,2.91,0,0,0-1.1-1.22,3.17,3.17,0,0,0-1.53-.45,3.08,3.08,0,0,0-1.57.31,2.75,2.75,0,0,0-1.19,1.11,4.55,4.55,0,0,0-.18,3.82,2.72,2.72,0,0,0,1.05,1.21,3.18,3.18,0,0,0,1.52.46A3.32,3.32,0,0,0,320.08,632.36Z"/><path class="cls-2" d="M329.34,625.87l-2,0,.23,8-1.55,0-.22-8-1.21,0,0-1.28,1.2,0,0-.66a2.92,2.92,0,0,1,.75-2.31,3.83,3.83,0,0,1,2.57-.8l0,1.3a2,2,0,0,0-1.43.43,1.77,1.77,0,0,0-.38,1.33l0,.67,1.95-.06Z"/><path class="cls-2" d="M337.61,626.33l.13,1.31-6.76.64-.12-1.3Z"/><path class="cls-2" d="M344.9,630.69l1.42-8.28,1.62-.3L346,631.93l-1.77.33-5.28-8.5,1.64-.31Z"/><path class="cls-2" d="M353.29,629.86a4.3,4.3,0,0,1-2.07-1.17,5.08,5.08,0,0,1-1.27-2.28,5,5,0,0,1-.09-2.6,4.19,4.19,0,0,1,1.17-2.08,4.89,4.89,0,0,1,2.14-1.22,5,5,0,0,1,2.47-.09,4.3,4.3,0,0,1,2.08,1.15,5.43,5.43,0,0,1,1.37,4.89,4.43,4.43,0,0,1-1.2,2.1,4.93,4.93,0,0,1-2.16,1.23A4.72,4.72,0,0,1,353.29,629.86Zm3.47-2.18a3,3,0,0,0,.81-1.45,3.78,3.78,0,0,0-.08-2,3.82,3.82,0,0,0-.95-1.71,2.91,2.91,0,0,0-1.43-.81,3.31,3.31,0,0,0-1.59.06,3.2,3.2,0,0,0-1.39.79,2.81,2.81,0,0,0-.77,1.43,3.88,3.88,0,0,0,.11,2,4,4,0,0,0,.92,1.73,2.79,2.79,0,0,0,1.39.82,3.14,3.14,0,0,0,1.58,0A3.33,3.33,0,0,0,356.76,627.68Z"/><path class="cls-2" d="M358.92,616.94a1.07,1.07,0,0,1-.51-1.4,1,1,0,0,1,.6-.55,1,1,0,0,1,.78,0,1,1,0,0,1,.54.6,1,1,0,0,1,0,.81,1,1,0,0,1-.58.53A1,1,0,0,1,358.92,616.94Zm2,1.21,3.16,8.76-1.46.53-3.16-8.77Z"/><path class="cls-2" d="M364.16,619.25a4.22,4.22,0,0,1,.8-2.18,4.74,4.74,0,0,1,1.92-1.49,4.68,4.68,0,0,1,2.93-.37,3.91,3.91,0,0,1,2.27,1.53l-1.52.67a2.42,2.42,0,0,0-1.39-.86,2.84,2.84,0,0,0-1.76.23,2.77,2.77,0,0,0-1.6,1.7,3.66,3.66,0,0,0,.29,2.68,3.76,3.76,0,0,0,1.79,2.06,2.75,2.75,0,0,0,2.33,0,2.85,2.85,0,0,0,1.36-1.12,2.4,2.4,0,0,0,.31-1.62l1.53-.67a4.18,4.18,0,0,1-.45,2.7,4.52,4.52,0,0,1-2.23,1.91,4.64,4.64,0,0,1-2.39.4,4.15,4.15,0,0,1-2.15-.9,5.39,5.39,0,0,1-1.55-2.1A5.31,5.31,0,0,1,364.16,619.25Z"/><path class="cls-2" d="M382.45,613.62l-6.51,3.63a3,3,0,0,0,1.88,1.42,3,3,0,0,0,2.19-.34,2.94,2.94,0,0,0,1.24-1.23,2.43,2.43,0,0,0,.21-1.55l1.46-.81a4.07,4.07,0,0,1-.25,2.64,4.51,4.51,0,0,1-2,2.09,4.79,4.79,0,0,1-2.36.64,4.3,4.3,0,0,1-2.26-.68,5.78,5.78,0,0,1-2.49-4.43,4.1,4.1,0,0,1,.61-2.25,4.83,4.83,0,0,1,1.81-1.68,4.63,4.63,0,0,1,2.33-.64,4,4,0,0,1,2.15.62,4.78,4.78,0,0,1,1.6,1.73C382.18,613,382.32,613.32,382.45,613.62Zm-3.05-1.48a2.44,2.44,0,0,0-1.4-.33,3.32,3.32,0,0,0-1.46.43,2.9,2.9,0,0,0-1.38,1.63,3,3,0,0,0,.19,2.27l5.13-2.86A2.72,2.72,0,0,0,379.4,612.14Z"/><rect class="cls-2" x="280.34" y="585.79" width="2.3" height="2.3" transform="translate(-362.44 491.6) rotate(-55.96)"/><path class="cls-2" d="M276.18,595a3.59,3.59,0,0,0,1.27-.52,3.29,3.29,0,0,0,1-1l2.32-3.43L279,588.82l-2.32,3.43a1,1,0,0,1-.62.41.88.88,0,0,1-.72-.14l-2.7-1.82-.31-.26a1.07,1.07,0,0,1-.26-1.26l3.18-6.84-2.07-.77L270.59,587a1,1,0,0,1-.35.42,1.2,1.2,0,0,1-.51.21,1.53,1.53,0,0,1-.56,0,1.3,1.3,0,0,1-.52-.27l-2.23-1.92a.44.44,0,0,1-.15-.31.43.43,0,0,1,.1-.34l1.44-1.67-1.43-1.22-1.69,2a2.39,2.39,0,0,0-.51.92,2.73,2.73,0,0,0-.13,1,2.81,2.81,0,0,0,.27,1,2.44,2.44,0,0,0,.64.83l2,1.71a3.58,3.58,0,0,0,1.26.7,3.93,3.93,0,0,0,1.35.16,4.2,4.2,0,0,0,.3,1.21,3,3,0,0,0,.87,1.17l.3.26,2.47,1.67a3.49,3.49,0,0,0,1.31.55A3.56,3.56,0,0,0,276.18,595Z"/><rect class="cls-2" x="282.34" y="602.84" width="2.3" height="2.3" transform="translate(-383.69 610.63) rotate(-65.43)"/><path class="cls-2" d="M290.63,594.86l-1.73,3.77a1,1,0,0,1-.54.51.91.91,0,0,1-.74,0l-3-1.36-1.15-.67a1.09,1.09,0,0,1-.46-.53.73.73,0,0,1,0-.66l1.87-3.24-1.9-1.1-3.47,6a2.5,2.5,0,0,1-1.1,1,2.28,2.28,0,0,1-1.5.16l-3-.63-.44,2.13,2.86.57a4.83,4.83,0,0,0,2.88-.28,4.32,4.32,0,0,0,1.23-.75,4.17,4.17,0,0,0,.95-1.13l.18-.31a1,1,0,0,0,.27.73,2.22,2.22,0,0,0,.56.47l.95.55,2.71,1.24a3.56,3.56,0,0,0,1.38.32,3.66,3.66,0,0,0,1.36-.22,3.74,3.74,0,0,0,1.17-.72,3.6,3.6,0,0,0,.84-1.15l1.72-3.76Z"/><path class="cls-2" d="M324.94,603.65a3.44,3.44,0,0,0-.66-1.07,3.58,3.58,0,0,0-1-.73,3.21,3.21,0,0,0-1.27-.31l-1.12,0a3.26,3.26,0,0,0-2,.64,3,3,0,0,0-.72.78,3.11,3.11,0,0,0-.43,1l-.47,2.05a1.1,1.1,0,0,1-.39.63,1.06,1.06,0,0,1-.7.21l-.5,0-1.12-.15a1,1,0,0,1-.61-.34.94.94,0,0,1-.22-.64l1.4-10.15-2.17-.3-1.4,10a.95.95,0,0,1-1.08.82l-1.1-.15-7.4-2-.69,2.5,3.78,1-.09.41a1.65,1.65,0,0,1-.8,1,1.63,1.63,0,0,1-1.28.14l-3.56-1a2.17,2.17,0,0,1-.79-.39A2.11,2.11,0,0,1,298,607a2.38,2.38,0,0,1-.28-.8,2.2,2.2,0,0,1,.06-.88l1.31-4.78-2.12-.58-1.4,5.09a4.32,4.32,0,0,0-.12,1.78,4.44,4.44,0,0,0,1.67,2.93,4.45,4.45,0,0,0,1.58.8l3.28.9a4.34,4.34,0,0,0,1.63.13,4,4,0,0,0,1.49-.46,3.84,3.84,0,0,0,1.18-1,3.61,3.61,0,0,0,.72-1.42l.09-.31a.93.93,0,0,0,0-.27.35.35,0,0,1,0-.13l1.71.47.88.12a3.55,3.55,0,0,0,2.57-.63,3.25,3.25,0,0,0,1,.86,3.36,3.36,0,0,0,1.28.44l.89.13h.48a2.88,2.88,0,0,0,1.21-.2,2.6,2.6,0,0,0,1.05-.86,2.47,2.47,0,0,0,.95.93,2.74,2.74,0,0,0,1.13.29l2.32.08a2.3,2.3,0,0,0,.94-.16,2.39,2.39,0,0,0,.79-.49,2.47,2.47,0,0,0,.55-.76,2.54,2.54,0,0,0,.22-.94l.08-2.34A3.07,3.07,0,0,0,324.94,603.65ZM322.88,607l-2.82-.1a.61.61,0,0,1-.48-.25.56.56,0,0,1-.11-.51l.37-1.59a.78.78,0,0,1,.28-.44.68.68,0,0,1,.48-.15l1.62,0a.73.73,0,0,1,.53.24.75.75,0,0,1,.21.55Z"/><rect class="cls-2" x="345.33" y="594.52" width="2.3" height="2.3" transform="translate(-155.57 123.64) rotate(-16.58)"/><path class="cls-2" d="M349.61,602.15l-1.18-4-2.11.63,1.18,4a.91.91,0,0,1-.07.74.87.87,0,0,1-.57.47l-3.1.93-1.93.32c-.35.06-.64.1-.9.12l-.42,0,.72-.69a2.14,2.14,0,0,0,.57-.93,2.37,2.37,0,0,0,.08-1.12l-.09-.51a3,3,0,0,0-.43-1.14,3.24,3.24,0,0,0-.81-.84,3.06,3.06,0,0,0-1.07-.49,2.73,2.73,0,0,0-1.21,0l-3.73.62a1.94,1.94,0,0,0-1.7,2.42l.46,2.74,1.93.89-.41.1-.38.07-.38.07-2.59.43-.8,0a.89.89,0,0,1-.69-.24.93.93,0,0,1-.32-.66L329.07,596l-2.2.13.6,10.19a3.3,3.3,0,0,0,.36,1.34,3.59,3.59,0,0,0,.82,1.07,3.5,3.5,0,0,0,2.54.87l.57,0,3-.5a7.83,7.83,0,0,0,3.43-1.46,7.66,7.66,0,0,0,3.69.27l2.51-.42,2.85-.86a3.53,3.53,0,0,0,1.26-.66,3.68,3.68,0,0,0,.87-1.06,3.57,3.57,0,0,0,.41-1.32A3.41,3.41,0,0,0,349.61,602.15Zm-11.82,2.72c-.4-.19-.77-.37-1.12-.52l-.85-.4-.58-.26-.17-1,3.59-.61a.87.87,0,0,1,1,.69l.06.36Z"/><rect class="cls-2" x="342.13" y="595.47" width="2.3" height="2.3" transform="translate(-156.07 122.87) rotate(-16.59)"/><rect class="cls-2" x="357.1" y="592.04" width="2.3" height="2.3" transform="translate(-223.24 216.24) rotate(-25.92)"/><path class="cls-2" d="M382,584.56a3.47,3.47,0,0,0-.74-1.21l-6.84-7.48-1.63,1.48,6.85,7.48a1,1,0,0,1-.06,1.36l-2.89,2.25a.94.94,0,0,1-.72.18,1,1,0,0,1-.63-.39l-.4-.55a1.42,1.42,0,0,1,.26-.38,1.53,1.53,0,0,1,.48-.31l.93-.32-.68-2.06-7.84,2.75a2.9,2.9,0,0,0-.94.55,2.85,2.85,0,0,0-.68.86,2.8,2.8,0,0,0-.3,1.08,2.72,2.72,0,0,0,.16,1.18l.66,1.8,1.86-.71-.56-2.06a.72.72,0,0,1,0-.36.48.48,0,0,1,.27-.23l4.14-1.44a.49.49,0,0,0,0,.12c0,.08,0,.16,0,.25l-.21,1.69a3.27,3.27,0,0,1-.61,1.54,5.33,5.33,0,0,1-1.18,1.19l-3.7,2.45a.93.93,0,0,1-.73.05,1,1,0,0,1-.55-.49l-1.56-3.22-2,1,2.73,5.63a1.71,1.71,0,0,1,.1,1.38,1.73,1.73,0,0,1-.93,1l-3.22,1.57a2.14,2.14,0,0,1-.85.22,2.11,2.11,0,0,1-.83-.11,2.34,2.34,0,0,1-.73-.43,2.2,2.2,0,0,1-.53-.7l-2.42-5-2,1,2.56,5.27a4.42,4.42,0,0,0,1.08,1.41,4.49,4.49,0,0,0,1.49.87,4.41,4.41,0,0,0,1.7.24,4.35,4.35,0,0,0,1.72-.45l3.13-1.52a4.07,4.07,0,0,0,2.05-2.17,3.91,3.91,0,0,0,.28-1.43,3.1,3.1,0,0,0-.32-1.42l-.22-.45a3.39,3.39,0,0,0,.51.18,1.5,1.5,0,0,0,.95-.2l3.37-2.24a6.88,6.88,0,0,0,1.66-1.7,5.25,5.25,0,0,0,.88-2.19l.17-1.12a3.6,3.6,0,0,0,2,.76,3,3,0,0,0,2-.63l2.54-2a3.44,3.44,0,0,0,.84-1.15,3.65,3.65,0,0,0,.32-1.32A3.72,3.72,0,0,0,382,584.56Z"/><circle class="cls-2" cx="324" cy="517.79" r="65.26"/><polygon class="cls-1" points="448.83 84.97 199.17 84.97 199.17 413.31 324 485.9 448.83 413.31 448.83 84.97"/><polygon class="cls-2" points="408.15 84.97 408.15 220.82 324 269.76 239.85 220.82 239.85 84.97 241.1 84.97 324 84.97 406.9 84.97 408.15 84.97"/><circle class="cls-1" cx="324" cy="84.97" r="84.15"/><polygon class="cls-2" points="239.85 234.04 239.85 335.5 324 384.44 408.15 335.5 408.15 234.04 324 282.97 239.85 234.04"/><path class="cls-1" d="M283.25,210.29l-.68-2.06,2.88-.94a2.33,2.33,0,0,0,1.21-.9,2.4,2.4,0,0,0,.45-1.42v-6.92h2.2v6.7a4.9,4.9,0,0,1-.91,2.84,4.71,4.71,0,0,1-1,1,5.12,5.12,0,0,1-1.35.71ZM287,193.91h2.3v2.3H287Z"/><path class="cls-1" d="M293.91,205.19h-2.2v-13.7h2.2Z"/><path class="cls-1" d="M306.19,202.59h.56a.26.26,0,0,1,.19.09.29.29,0,0,1,.09.21v2a.29.29,0,0,1-.08.19.25.25,0,0,1-.2.09h-.4a3,3,0,0,1-1.42-.32,4,4,0,0,1-1-.72,3.84,3.84,0,0,1-1.13.75,3.3,3.3,0,0,1-1.41.29h-2.62a2.52,2.52,0,0,1-1-.21,2.71,2.71,0,0,1-.84-.57,2.65,2.65,0,0,1-.57-.85,2.56,2.56,0,0,1-.21-1v-2.6H298v2.2a.42.42,0,0,0,.14.33.44.44,0,0,0,.32.13h2.94a1.25,1.25,0,0,0,.57-.13,1.28,1.28,0,0,0,.45-.34,1.23,1.23,0,0,0,.25-.48,1,1,0,0,0,0-.55l-1.6-5.78,2.08-.76,2,7.26a1,1,0,0,0,.38.56A1,1,0,0,0,306.19,202.59Z"/><path class="cls-1" d="M310.15,202.59a.89.89,0,0,0,.68-.29.94.94,0,0,0,.28-.69v-4.14h2.2v4.14A3.39,3.39,0,0,1,313,203a3.48,3.48,0,0,1-.77,1.14,3.53,3.53,0,0,1-1.14.77,3.42,3.42,0,0,1-1.39.28h-3a.25.25,0,0,1-.2-.09.29.29,0,0,1-.08-.19v-2a.32.32,0,0,1,.08-.21.25.25,0,0,1,.2-.09Zm.86-6.94h2.3v-2.3H311Z"/><path class="cls-1" d="M317.71,205.19h-2.2v-13.7h2.2Z"/><path class="cls-1" d="M328.77,205.19a3,3,0,0,1-1.36-.31,3.11,3.11,0,0,1-1-.82,3.2,3.2,0,0,1-.61-1.19,3,3,0,0,1-.05-1.4l.34-1.84h-1a1,1,0,0,0-.68.28.93.93,0,0,0-.28.68v9.72h-2.2v-9.6a3.45,3.45,0,0,1,.28-1.39,3.7,3.7,0,0,1,.77-1.14,3.88,3.88,0,0,1,1.14-.77,3.59,3.59,0,0,1,1.39-.28h4.74a3.25,3.25,0,0,1,1.28.26,3.47,3.47,0,0,1,1.05.71,3.37,3.37,0,0,1,.71,1,3.21,3.21,0,0,1,.26,1.27v1.2a.94.94,0,0,0,.28.69.89.89,0,0,0,.68.29h1.06a.25.25,0,0,1,.28.28v2a.24.24,0,0,1-.28.28h-.7a3.16,3.16,0,0,1-1.11-.19,2.41,2.41,0,0,1-1-.65,1.91,1.91,0,0,1-.76.65,2.17,2.17,0,0,1-.92.19Zm-.88-3.34a.57.57,0,0,0,.13.52.61.61,0,0,0,.49.22h2.82v-2.2a.74.74,0,0,0-.23-.54.8.8,0,0,0-.55-.22h-2.24Z"/><path class="cls-1" d="M341,205.19a3.16,3.16,0,0,1-1.34-.28,2.81,2.81,0,0,1-1.1-.9,2.77,2.77,0,0,1-1.11.9,3.23,3.23,0,0,1-1.35.28h-.52a.31.31,0,0,1-.28-.28v-2a.29.29,0,0,1,.09-.21.26.26,0,0,1,.19-.09h.9a.89.89,0,0,0,.68-.29.94.94,0,0,0,.28-.69V198h2.2v3.74a.71.71,0,0,0,.3.59,1,1,0,0,0,.64.23h.64a1,1,0,0,0,.7-.25,1.06,1.06,0,0,0,.38-.65l.7-3.62,2.18.4-.6,3a.8.8,0,0,0,.19.75.91.91,0,0,0,.71.33H346a.94.94,0,0,0,.68-.27.88.88,0,0,0,.28-.67v-4.14h2.2v4.14a.88.88,0,0,0,.28.67.94.94,0,0,0,.68.27H351a.25.25,0,0,1,.2.09.31.31,0,0,1,.08.19v2a.31.31,0,0,1-.07.21.26.26,0,0,1-.21.09h-.48a3.16,3.16,0,0,1-1.34-.28,2.69,2.69,0,0,1-1.08-.9,2.73,2.73,0,0,1-1.12.9,3.25,3.25,0,0,1-1.34.28,3.16,3.16,0,0,1-1.28-.27,2.28,2.28,0,0,1-1-.91,2.66,2.66,0,0,1-1.06.91A3,3,0,0,1,341,205.19Zm1.46-8.9h-2.3V194h2.3Zm1.64-3h-2.3V191h2.3Zm1.7,3h-2.3V194h2.3Z"/><path class="cls-1" d="M350.67,202.89a.32.32,0,0,1,.09-.2.28.28,0,0,1,.19-.1h3.58a5.29,5.29,0,0,0,1.66-.27,3.24,3.24,0,0,0,1.4-.89l1.16-1.24.18-.18.1-.08-4.2-1.26a.42.42,0,0,0-.35,0,.56.56,0,0,0-.23.27l-.76,2-1.92-.52.52-1.84a2.78,2.78,0,0,1,.57-1.06,3.05,3.05,0,0,1,.88-.69,3.17,3.17,0,0,1,1-.3,3,3,0,0,1,1.08.11l8,2.38-.66,2.06-.94-.28a1.5,1.5,0,0,0-.77,0,1.86,1.86,0,0,0-.59.41l-2.3,2.28a5.08,5.08,0,0,1-2,1.26,6.94,6.94,0,0,1-2.34.4H351a.24.24,0,0,1-.28-.28Zm4.12,7h2.3v-2.3h-2.3Zm1.64,3h2.3v-2.3h-2.3Zm1.7-3h2.3v-2.3h-2.3Z"/><path class="cls-1" d="M309.86,218.05l-4.48,11.85H303.6l-4.47-11.85h1.65l3.72,10.21,3.72-10.21Z"/><path class="cls-1" d="M311.61,218.76a1,1,0,0,1-.31-.75,1,1,0,0,1,1.05-1,1,1,0,0,1,.73.3,1,1,0,0,1,.29.75,1,1,0,0,1-.29.75,1,1,0,0,1-.73.31A1,1,0,0,1,311.61,218.76Zm1.49,1.82v9.32h-1.54v-9.32Z"/><path class="cls-1" d="M317.11,229.68a3.22,3.22,0,0,1-1.34-1,2.63,2.63,0,0,1-.54-1.5h1.6a1.57,1.57,0,0,0,.65,1.14,2.51,2.51,0,0,0,1.54.44,2.23,2.23,0,0,0,1.39-.39,1.2,1.2,0,0,0,.51-1,1,1,0,0,0-.54-.91,8.1,8.1,0,0,0-1.68-.58,11.65,11.65,0,0,1-1.7-.56,2.93,2.93,0,0,1-1.12-.83,2.18,2.18,0,0,1-.47-1.45,2.23,2.23,0,0,1,.43-1.31,2.77,2.77,0,0,1,1.21-.94,4.19,4.19,0,0,1,1.78-.35,3.81,3.81,0,0,1,2.5.78,2.84,2.84,0,0,1,1,2.14H320.8a1.58,1.58,0,0,0-.58-1.17,2.17,2.17,0,0,0-1.44-.44,2.21,2.21,0,0,0-1.33.35,1.13,1.13,0,0,0-.49.94,1,1,0,0,0,.3.75,2.2,2.2,0,0,0,.75.48,12.65,12.65,0,0,0,1.25.4,12.91,12.91,0,0,1,1.63.54A2.7,2.7,0,0,1,322,226a2.16,2.16,0,0,1,.47,1.37,2.4,2.4,0,0,1-.43,1.38,2.76,2.76,0,0,1-1.2,1,4.3,4.3,0,0,1-1.77.35A4.75,4.75,0,0,1,317.11,229.68Z"/><path class="cls-1" d="M326.3,229.45a4.16,4.16,0,0,1-1.66-1.69,5.51,5.51,0,0,1,0-5.06,4.36,4.36,0,0,1,1.69-1.69,5,5,0,0,1,2.4-.58,4.9,4.9,0,0,1,2.4.58,4.27,4.27,0,0,1,1.69,1.68,5,5,0,0,1,.62,2.53,4.92,4.92,0,0,1-.64,2.54,4.37,4.37,0,0,1-1.72,1.69,4.93,4.93,0,0,1-2.42.6A4.74,4.74,0,0,1,326.3,229.45Zm3.94-1.15a2.91,2.91,0,0,0,1.18-1.18,3.74,3.74,0,0,0,.45-1.9,3.84,3.84,0,0,0-.44-1.9,3,3,0,0,0-1.16-1.17,3.35,3.35,0,0,0-3.1,0,2.84,2.84,0,0,0-1.13,1.17,4,4,0,0,0-.43,1.9,4,4,0,0,0,.42,1.92,2.86,2.86,0,0,0,1.11,1.17,3.21,3.21,0,0,0,1.53.38A3.29,3.29,0,0,0,330.24,228.3Z"/><path class="cls-1" d="M335.54,218.76a1,1,0,0,1-.3-.75,1,1,0,0,1,1.05-1,1,1,0,0,1,.72.3,1.05,1.05,0,0,1,.3.75,1,1,0,0,1-.3.75,1,1,0,0,1-.72.31A1.06,1.06,0,0,1,335.54,218.76Zm1.5,1.82v9.32h-1.55v-9.32Z"/><path class="cls-1" d="M347,221.44a4,4,0,0,1,1,3v5.5h-1.53v-5.27a3,3,0,0,0-.7-2.14,2.49,2.49,0,0,0-1.9-.74,2.55,2.55,0,0,0-1.95.77,3.12,3.12,0,0,0-.72,2.22v5.16h-1.55v-9.32h1.55v1.33a3.06,3.06,0,0,1,1.25-1.11,3.9,3.9,0,0,1,1.74-.39A3.79,3.79,0,0,1,347,221.44Z"/><path class="cls-2" d="M285,82a2.25,2.25,0,0,1,1.27.78,2.15,2.15,0,0,1,.49,1.42v.7a4.09,4.09,0,0,1-2.49,3.78,4.13,4.13,0,0,1-1.61.32h-4a4.47,4.47,0,0,1-1.74-.35,4.39,4.39,0,0,1-1.43-1,4.45,4.45,0,0,1-1-1.42,4.41,4.41,0,0,1-.35-1.75V79.94h2.2V84.2a2.07,2.07,0,0,0,.18.86,2.29,2.29,0,0,0,.48.7,2.1,2.1,0,0,0,.7.47,2.24,2.24,0,0,0,.86.17h4.3a1.64,1.64,0,0,0,1.66-1.66v-.52l-5.6-1.32V80.56a4.14,4.14,0,0,1,1-2.75,3.85,3.85,0,0,1,1.14-.9,4.33,4.33,0,0,1,1.44-.45l2.8-.36.36,2.4-3.2.42a1.58,1.58,0,0,0-1,.54,1.6,1.6,0,0,0-.41,1.08v.58Z"/><path class="cls-2" d="M291.67,85.22a2.52,2.52,0,0,1-1-.21,2.71,2.71,0,0,1-.84-.57,2.65,2.65,0,0,1-.57-.85,2.6,2.6,0,0,1-.21-1V80h1.88v2.2a.45.45,0,0,0,.14.33.44.44,0,0,0,.32.13h3.3a1.2,1.2,0,0,0,.65-.18,1.35,1.35,0,0,0,.46-.46,1.31,1.31,0,0,0,.18-.61,1.2,1.2,0,0,0-.17-.65l-2.48-4.42,1.86-1.22,2.66,4.72a3.31,3.31,0,0,1,.47,1.86,3.75,3.75,0,0,1-.51,1.75,3.7,3.7,0,0,1-1.28,1.3,3.47,3.47,0,0,1-1.86.51Z"/><path class="cls-2" d="M303.41,85.22a3,3,0,0,1-1.36-.31,3.13,3.13,0,0,1-1-.83,3.36,3.36,0,0,1-.61-1.19,3,3,0,0,1,0-1.39l.34-1.82a3,3,0,0,1,.39-1,3.37,3.37,0,0,1,.69-.81,3.06,3.06,0,0,1,.91-.53,3,3,0,0,1,1.07-.19h1.12a3.25,3.25,0,0,1,1.28.26,3.15,3.15,0,0,1,1,.71,3.45,3.45,0,0,1,.7,1,3.25,3.25,0,0,1,.26,1.28v2.18h1.4a.24.24,0,0,1,.28.28v2a.24.24,0,0,1-.28.28h-1.42v.1a1.91,1.91,0,0,1,0,.2,4.26,4.26,0,0,1-1,2.38,5,5,0,0,1-2.27,1.54l-2.74.94-.68-2.1,2.82-.94a2.57,2.57,0,0,0,1.23-.84,2.16,2.16,0,0,0,.47-1.38V85a2.87,2.87,0,0,1-.54.17,2.79,2.79,0,0,1-.64.07Zm-.28-2.6H306v-2.2a.75.75,0,0,0-.22-.55.74.74,0,0,0-.54-.23h-1.62a.68.68,0,0,0-.48.18.85.85,0,0,0-.26.46l-.32,1.6a.56.56,0,0,0,.13.51A.62.62,0,0,0,303.13,82.62Z"/><path class="cls-2" d="M309.27,82.92a.3.3,0,0,1,.09-.2.24.24,0,0,1,.19-.1h3.58a5.29,5.29,0,0,0,1.66-.27,3.33,3.33,0,0,0,1.4-.89l1.16-1.24.18-.18a.34.34,0,0,1,.1-.08l-4.2-1.26a.42.42,0,0,0-.35,0,.56.56,0,0,0-.23.27l-.76,2-1.92-.52.52-1.84a2.71,2.71,0,0,1,.57-1.06,3.05,3.05,0,0,1,.88-.69,2.76,2.76,0,0,1,1.05-.3,2.81,2.81,0,0,1,1.08.11l8,2.38-.66,2.06-.94-.28a1.4,1.4,0,0,0-.77,0,1.71,1.71,0,0,0-.59.41L317,83.56a5.31,5.31,0,0,1-2,1.26,6.94,6.94,0,0,1-2.34.4h-3.08a.24.24,0,0,1-.28-.28Zm5.8,7h2.3v-2.3h-2.3Z"/><path class="cls-2" d="M332.11,84.8a4.82,4.82,0,0,1-.24,1.51,5,5,0,0,1-.67,1.34,4.79,4.79,0,0,1-1,1.07,4.72,4.72,0,0,1-1.37.72l-2.74.94-.68-2.1,2.82-.94a2.57,2.57,0,0,0,1.23-.84,2.16,2.16,0,0,0,.47-1.38V85a2.87,2.87,0,0,1-.54.17,2.79,2.79,0,0,1-.64.07h-1.34a3,3,0,0,1-1.36-.31,3.28,3.28,0,0,1-1.05-.83,3.06,3.06,0,0,1-.61-1.19,3.1,3.1,0,0,1,0-1.39l.34-1.82a3,3,0,0,1,.39-1,3.37,3.37,0,0,1,.69-.81,3.06,3.06,0,0,1,.91-.53,3,3,0,0,1,1.07-.19h1.12a3.25,3.25,0,0,1,1.28.26,3.15,3.15,0,0,1,1,.71,3.45,3.45,0,0,1,.7,1,3.25,3.25,0,0,1,.26,1.28Zm-2.2-2.18v-2.2a.75.75,0,0,0-.22-.55.74.74,0,0,0-.54-.23h-1.62a.68.68,0,0,0-.48.18.85.85,0,0,0-.26.46l-.32,1.6a.56.56,0,0,0,.13.51.62.62,0,0,0,.49.23Z"/><path class="cls-2" d="M341,88.72a4.47,4.47,0,0,1-1.74-.35A4.46,4.46,0,0,1,336.86,86a4.47,4.47,0,0,1-.35-1.74V79l2.2,0v4.94a2.07,2.07,0,0,0,.18.86,2.29,2.29,0,0,0,.48.7,2.1,2.1,0,0,0,.7.47,2.21,2.21,0,0,0,.84.17h3.6a1.78,1.78,0,0,0,1.8-1.78V71.52h2.2V81.68a.88.88,0,0,0,.28.67.94.94,0,0,0,.68.27h1.24a.25.25,0,0,1,.2.09.29.29,0,0,1,.08.19v2a.32.32,0,0,1-.08.21.25.25,0,0,1-.2.09h-.88a2.09,2.09,0,0,1-.74-.12,1.43,1.43,0,0,1-.6-.5V85a3.17,3.17,0,0,1-.28,1.26,4.33,4.33,0,0,1-.79,1.22,4.18,4.18,0,0,1-1.25.92,3.77,3.77,0,0,1-1.68.36Z"/><path class="cls-2" d="M358.49,84.94a.29.29,0,0,1-.08.19.25.25,0,0,1-.2.09h-1.52a2.68,2.68,0,0,1-1.28-.35,1.87,1.87,0,0,1-.86-.83,1.66,1.66,0,0,1-.4.45,3.33,3.33,0,0,1-.57.38,3.12,3.12,0,0,1-.66.26,2.72,2.72,0,0,1-.69.09h-1.52a.24.24,0,0,1-.28-.28v-2a.32.32,0,0,1,.08-.21.25.25,0,0,1,.2-.09h1.72a1.08,1.08,0,0,0,.7-.24,1,1,0,0,0,.38-.64l.74-3.6,2.16.38-.6,3a.79.79,0,0,0,.18.75.91.91,0,0,0,.72.33h1.5a.25.25,0,0,1,.2.09.32.32,0,0,1,.08.21Zm-6.84,5h2.28v-2.3h-2.28Zm3.32,0h2.3v-2.3H355Z"/><path class="cls-2" d="M357.93,82.9a.24.24,0,0,1,.28-.28h1.22a1,1,0,0,0,1-1V71.52h2.2V81.66a3.42,3.42,0,0,1-.28,1.39,3.54,3.54,0,0,1-1.89,1.89,3.42,3.42,0,0,1-1.39.28h-.82a.29.29,0,0,1-.19-.08.25.25,0,0,1-.09-.2Z"/><path class="cls-2" d="M367.43,85.22a2.52,2.52,0,0,1-1-.21,2.71,2.71,0,0,1-.84-.57,2.65,2.65,0,0,1-.57-.85,2.6,2.6,0,0,1-.21-1V80h1.88v2.2a.45.45,0,0,0,.14.33.44.44,0,0,0,.32.13h3.3a1.2,1.2,0,0,0,.65-.18,1.35,1.35,0,0,0,.46-.46,1.31,1.31,0,0,0,.18-.61,1.2,1.2,0,0,0-.17-.65l-2.48-4.42,1.86-1.22,2.66,4.72a3.31,3.31,0,0,1,.47,1.86,3.75,3.75,0,0,1-.51,1.75,3.7,3.7,0,0,1-1.28,1.3,3.47,3.47,0,0,1-1.86.51Z"/><path class="cls-2" d="M297.8,104a4.32,4.32,0,0,1-3.09,1h-2.28v4.94h-1.55V98.07h3.83a4.36,4.36,0,0,1,3.05,1,3.5,3.5,0,0,1,0,5Zm-1.19-.86a2.06,2.06,0,0,0,.62-1.6q0-2.19-2.52-2.19h-2.28v4.35h2.28A2.75,2.75,0,0,0,296.61,103.14Z"/><path class="cls-2" d="M309,100.61v9.31h-1.55v-1.37a3,3,0,0,1-1.23,1.11,3.77,3.77,0,0,1-1.74.4,4.19,4.19,0,0,1-2-.45,3.3,3.3,0,0,1-1.37-1.35,4.5,4.5,0,0,1-.5-2.2v-5.45h1.53v5.25a3,3,0,0,0,.7,2.12,2.49,2.49,0,0,0,1.9.74,2.56,2.56,0,0,0,2-.77,3.18,3.18,0,0,0,.71-2.23v-5.11Z"/><path class="cls-2" d="M314.32,100.88a3.63,3.63,0,0,1,1.84-.44V102h-.4q-2.61,0-2.61,2.82v5.06h-1.54v-9.31h1.54v1.51A3,3,0,0,1,314.32,100.88Z"/><path class="cls-2" d="M320.86,101a4.1,4.1,0,0,1,2.12-.54,4.3,4.3,0,0,1,2.25.6,4.13,4.13,0,0,1,1.59,1.67,5.2,5.2,0,0,1,.58,2.51,5.32,5.32,0,0,1-.58,2.52,4.17,4.17,0,0,1-1.59,1.71,4.23,4.23,0,0,1-2.25.62,4.05,4.05,0,0,1-2.1-.54,3.76,3.76,0,0,1-1.38-1.33v6.13H318V100.61h1.55v1.71A3.7,3.7,0,0,1,320.86,101Zm4.53,2.41a2.85,2.85,0,0,0-1.14-1.19,3.09,3.09,0,0,0-1.59-.41,3.14,3.14,0,0,0-1.57.41,3,3,0,0,0-1.16,1.21,4.13,4.13,0,0,0,0,3.67,3,3,0,0,0,1.16,1.21,3.05,3.05,0,0,0,1.57.42,3.1,3.1,0,0,0,1.59-.42,3,3,0,0,0,1.14-1.21,3.76,3.76,0,0,0,.43-1.86A3.7,3.7,0,0,0,325.39,103.4Z"/><path class="cls-2" d="M331.13,109.48a4.16,4.16,0,0,1-1.66-1.69,5.53,5.53,0,0,1,0-5.07,4.33,4.33,0,0,1,1.69-1.68,5.18,5.18,0,0,1,4.8,0,4.27,4.27,0,0,1,1.69,1.68,5,5,0,0,1,.62,2.53,4.92,4.92,0,0,1-.64,2.54,4.37,4.37,0,0,1-1.72,1.69,4.93,4.93,0,0,1-2.42.6A4.74,4.74,0,0,1,331.13,109.48Zm3.94-1.15a3,3,0,0,0,1.18-1.18,3.74,3.74,0,0,0,.45-1.9,3.91,3.91,0,0,0-.44-1.91,2.94,2.94,0,0,0-1.16-1.16,3.35,3.35,0,0,0-3.1,0,2.81,2.81,0,0,0-1.13,1.16,3.91,3.91,0,0,0-.43,1.91,4,4,0,0,0,.42,1.92,2.77,2.77,0,0,0,1.11,1.16,3.11,3.11,0,0,0,1.53.39A3.29,3.29,0,0,0,335.07,108.33Z"/><path class="cls-2" d="M341.7,109.71a3.19,3.19,0,0,1-1.35-1,2.73,2.73,0,0,1-.54-1.5h1.6a1.57,1.57,0,0,0,.65,1.14,2.53,2.53,0,0,0,1.54.44,2.26,2.26,0,0,0,1.4-.39,1.2,1.2,0,0,0,.51-1,1,1,0,0,0-.55-.91,7.8,7.8,0,0,0-1.68-.59,11.6,11.6,0,0,1-1.69-.55,3,3,0,0,1-1.13-.83,2.17,2.17,0,0,1-.46-1.45,2.2,2.2,0,0,1,.42-1.31,3,3,0,0,1,1.21-1,4.38,4.38,0,0,1,1.78-.35,3.8,3.8,0,0,1,2.5.79,2.77,2.77,0,0,1,1,2.14h-1.54a1.59,1.59,0,0,0-.59-1.17,2.56,2.56,0,0,0-2.76-.09,1.11,1.11,0,0,0-.5.94,1,1,0,0,0,.3.75,2.2,2.2,0,0,0,.75.48c.3.12.72.25,1.25.4a14.3,14.3,0,0,1,1.63.53,2.91,2.91,0,0,1,1.08.79,2.13,2.13,0,0,1,.47,1.38,2.33,2.33,0,0,1-.43,1.38,2.76,2.76,0,0,1-1.2,1,4.27,4.27,0,0,1-1.77.35A4.83,4.83,0,0,1,341.7,109.71Z"/><path class="cls-2" d="M357.64,105.84H350.2a2.93,2.93,0,0,0,3,2.93,2.89,2.89,0,0,0,1.68-.47,2.45,2.45,0,0,0,.94-1.25h1.67a4,4,0,0,1-1.5,2.19,4.53,4.53,0,0,1-2.79.84,4.69,4.69,0,0,1-2.37-.6,4.17,4.17,0,0,1-1.64-1.69,5.21,5.21,0,0,1-.59-2.54,5.36,5.36,0,0,1,.57-2.53,4.06,4.06,0,0,1,1.63-1.68,4.82,4.82,0,0,1,2.4-.59,4.73,4.73,0,0,1,2.35.58,4.07,4.07,0,0,1,1.57,1.59,4.7,4.7,0,0,1,.55,2.29A7.55,7.55,0,0,1,357.64,105.84Zm-1.93-2.78a2.61,2.61,0,0,0-1.07-1,3.19,3.19,0,0,0-1.48-.34,2.86,2.86,0,0,0-2,.75,3.06,3.06,0,0,0-1,2.08h5.89A2.9,2.9,0,0,0,355.71,103.06Z"/><path class="cls-1" d="M292.14,509.22v3.48a1.59,1.59,0,0,0,.48,1.17,1.63,1.63,0,0,0,1.18.47H302a.94.94,0,0,0,.68-.27.89.89,0,0,0,.28-.67v-3.6h2.2v3.58a.93.93,0,0,0,.28.68,1,1,0,0,0,.68.28h.6a.24.24,0,0,1,.28.28v2a.25.25,0,0,1-.28.28h-.22a3,3,0,0,1-1.34-.31,3.46,3.46,0,0,1-1.08-.87,3.09,3.09,0,0,1-1.13.9,3.4,3.4,0,0,1-1.35.28H294a4,4,0,0,1-1.58-.32,4.44,4.44,0,0,1-1.29-.87,4.08,4.08,0,0,1-.87-1.29,4,4,0,0,1-.32-1.58v-3.66Zm2.6,0H297v-2.3h-2.3Zm3.34,0h2.3v-2.3h-2.3Z"/><path class="cls-1" d="M314.5,516.66a.31.31,0,0,1-.08.19.25.25,0,0,1-.2.09H312.7a2.68,2.68,0,0,1-1.28-.35,1.92,1.92,0,0,1-.86-.83,1.66,1.66,0,0,1-.4.45,4,4,0,0,1-.57.38,3.12,3.12,0,0,1-.66.26,2.72,2.72,0,0,1-.69.09h-1.52a.25.25,0,0,1-.28-.28v-2a.32.32,0,0,1,.08-.21.25.25,0,0,1,.2-.09h1.72a1.08,1.08,0,0,0,.7-.24,1.06,1.06,0,0,0,.38-.64l.74-3.6,2.16.38-.6,3a.79.79,0,0,0,.18.75.91.91,0,0,0,.72.33h1.5a.25.25,0,0,1,.2.09.32.32,0,0,1,.08.21Zm-6.84,5h2.28v-2.3h-2.28Zm3.32,0h2.3v-2.3H311Z"/><path class="cls-1" d="M318.44,512.44a1.43,1.43,0,0,0,.11.68.71.71,0,0,1,.11.18l2.76-3a4.26,4.26,0,0,1,1.5-1.07,4.49,4.49,0,0,1,1.82-.37H326a3.09,3.09,0,0,1,1.28.26,3.3,3.3,0,0,1,1.05.71,3.26,3.26,0,0,1,.71,1,3.13,3.13,0,0,1,.26,1.27v1.26a.86.86,0,0,0,.28.65.94.94,0,0,0,.68.27H331a.25.25,0,0,1,.2.09.29.29,0,0,1,.08.19v2a.32.32,0,0,1-.08.21.25.25,0,0,1-.2.09h-.4a3.16,3.16,0,0,1-1.34-.29,3,3,0,0,1-1.08-.89,3.28,3.28,0,0,1-1.13.89,3.24,3.24,0,0,1-1.35.29h-5.9a3.4,3.4,0,0,1-1.35-.28,2.82,2.82,0,0,1-1.09-.9,2.91,2.91,0,0,1-1.12.9,3.42,3.42,0,0,1-1.34.28h-.66a.25.25,0,0,1-.28-.28v-2a.29.29,0,0,1,.09-.21.26.26,0,0,1,.19-.09h1.06a1,1,0,0,0,.68-.28.93.93,0,0,0,.28-.68V510.1h2.2Zm7.66,1.9a.92.92,0,0,0,.68-.29,1,1,0,0,0,.28-.69v-1a.91.91,0,0,0-.29-.68.94.94,0,0,0-.69-.28H324.4a2.27,2.27,0,0,0-1.74.76l-2,2.2Z"/><path class="cls-1" d="M331,516.94a.25.25,0,0,1-.28-.28v-2a.28.28,0,0,1,.09-.2.24.24,0,0,1,.19-.1h3.58a5.29,5.29,0,0,0,1.66-.27,3.33,3.33,0,0,0,1.4-.89l1.16-1.24.18-.18c.05-.06.09-.08.1-.08l-4.2-1.26a.42.42,0,0,0-.35,0,.56.56,0,0,0-.23.27l-.76,2-1.92-.52.52-1.84a2.76,2.76,0,0,1,.56-1.06,2.64,2.64,0,0,1,.88-.69,2.81,2.81,0,0,1,1.06-.3,2.63,2.63,0,0,1,1.08.11l8,2.38-.66,2.06-.94-.28a1.29,1.29,0,0,0-.57,0,1.12,1.12,0,0,0-.43.16v.68a.93.93,0,0,0,.28.68,1,1,0,0,0,.68.28h2.66a.24.24,0,0,1,.28.28v2a.25.25,0,0,1-.28.28h-2.3a3.06,3.06,0,0,1-2-.69,3.56,3.56,0,0,1-1.15-1.77l-.8.8a5.31,5.31,0,0,1-2,1.26,7.19,7.19,0,0,1-2.34.4Zm3-12.76h2.3v2.3H334Z"/><path class="cls-1" d="M350.1,516.94a3.24,3.24,0,0,1-1.35-.29,3,3,0,0,1-1.09-.89,3.13,3.13,0,0,1-1.11.89,3.24,3.24,0,0,1-1.35.29h-.52a.25.25,0,0,1-.28-.28v-2a.29.29,0,0,1,.09-.21.26.26,0,0,1,.19-.09h.92a.9.9,0,0,0,.68-.3,1,1,0,0,0,.28-.7v-3.56h2.2v3.58a1,1,0,0,0,.28.69.92.92,0,0,0,.68.29h.52a1.08,1.08,0,0,0,.7-.24,1.06,1.06,0,0,0,.38-.64l.74-3.62,2.22.4-.6,3a.82.82,0,0,0,.19.76.91.91,0,0,0,.71.34h1.48v-5.1h2.2v5.26a2.37,2.37,0,0,1-.19,1,2.39,2.39,0,0,1-1.3,1.3,2.56,2.56,0,0,1-.95.19h-1.24a2.71,2.71,0,0,1-1.2-.28,2.54,2.54,0,0,1-1-.92,2.86,2.86,0,0,1-1.06.92A3,3,0,0,1,350.1,516.94Zm1.46-8.92h-2.3v-2.3h2.3Zm1.64-3h-2.3v-2.3h2.3Zm1.7,3h-2.3v-2.3h2.3Z"/><path class="cls-1" d="M285.73,535.71a4.28,4.28,0,0,1-3.08,1h-2.28v4.95h-1.55V529.79h3.83a4.33,4.33,0,0,1,3.05,1,3.5,3.5,0,0,1,0,5Zm-1.18-.86a2,2,0,0,0,.61-1.59c0-1.47-.84-2.2-2.51-2.2h-2.28v4.36h2.28A2.71,2.71,0,0,0,284.55,534.85Z"/><path class="cls-1" d="M297.11,537.56h-7.44a2.92,2.92,0,0,0,3,2.92,2.82,2.82,0,0,0,1.68-.47,2.41,2.41,0,0,0,.94-1.25H297a4,4,0,0,1-1.5,2.19,4.53,4.53,0,0,1-2.79.84,4.79,4.79,0,0,1-2.37-.59,4.26,4.26,0,0,1-1.64-1.7,5.79,5.79,0,0,1,0-5.07,4,4,0,0,1,1.62-1.67,4.75,4.75,0,0,1,2.4-.59,4.63,4.63,0,0,1,2.35.58,3.94,3.94,0,0,1,1.57,1.59,4.64,4.64,0,0,1,.56,2.28A7.78,7.78,0,0,1,297.11,537.56Zm-1.93-2.78a2.51,2.51,0,0,0-1.07-1,3.28,3.28,0,0,0-1.48-.33,2.86,2.86,0,0,0-2,.75,3,3,0,0,0-.94,2.07h5.88A2.84,2.84,0,0,0,295.18,534.78Z"/><path class="cls-1" d="M301.92,532.59a3.63,3.63,0,0,1,1.84-.44v1.6h-.41c-1.73,0-2.6.94-2.6,2.82v5.07h-1.54v-9.32h1.54v1.51A3,3,0,0,1,301.92,532.59Z"/><path class="cls-1" d="M306.92,541.43a3.4,3.4,0,0,1-1.34-1,2.69,2.69,0,0,1-.54-1.51h1.59a1.58,1.58,0,0,0,.66,1.14,2.51,2.51,0,0,0,1.54.44,2.23,2.23,0,0,0,1.39-.39,1.2,1.2,0,0,0,.51-1,1,1,0,0,0-.54-.9,7.59,7.59,0,0,0-1.69-.59,13.49,13.49,0,0,1-1.69-.55,3.07,3.07,0,0,1-1.12-.84,2.34,2.34,0,0,1,0-2.76,2.77,2.77,0,0,1,1.21-.94,4.35,4.35,0,0,1,1.78-.35,3.83,3.83,0,0,1,2.5.78,2.85,2.85,0,0,1,1,2.14h-1.55a1.6,1.6,0,0,0-.58-1.17,2.23,2.23,0,0,0-1.44-.44,2.28,2.28,0,0,0-1.33.35,1.1,1.1,0,0,0-.49.94,1,1,0,0,0,.3.76,2.34,2.34,0,0,0,.75.47,12.65,12.65,0,0,0,1.25.4,12.91,12.91,0,0,1,1.63.54,2.8,2.8,0,0,1,1.08.79,2.1,2.1,0,0,1,.46,1.37,2.39,2.39,0,0,1-.42,1.38,2.76,2.76,0,0,1-1.2,1,4.35,4.35,0,0,1-1.78.35A4.9,4.9,0,0,1,306.92,541.43Z"/><path class="cls-1" d="M316.11,541.2a4.18,4.18,0,0,1-1.66-1.7,5.51,5.51,0,0,1,0-5.06,4.33,4.33,0,0,1,1.69-1.68,5.18,5.18,0,0,1,4.8,0,4.24,4.24,0,0,1,1.69,1.67,5.07,5.07,0,0,1,.62,2.53,4.89,4.89,0,0,1-.64,2.54,4.39,4.39,0,0,1-1.72,1.7,5,5,0,0,1-2.42.59A4.84,4.84,0,0,1,316.11,541.2Zm3.94-1.16a3,3,0,0,0,1.18-1.17,3.78,3.78,0,0,0,.45-1.91,3.84,3.84,0,0,0-.44-1.9,3,3,0,0,0-1.16-1.17,3.35,3.35,0,0,0-3.1,0,2.84,2.84,0,0,0-1.13,1.17,3.84,3.84,0,0,0-.43,1.9,4,4,0,0,0,.42,1.92,2.8,2.8,0,0,0,1.11,1.17,3.21,3.21,0,0,0,1.53.38A3.29,3.29,0,0,0,320.05,540Z"/><path class="cls-1" d="M332.59,533.18a3.94,3.94,0,0,1,1.06,3v5.49h-1.53v-5.27a3,3,0,0,0-.7-2.14,2.51,2.51,0,0,0-1.9-.74,2.55,2.55,0,0,0-1.95.77,3.13,3.13,0,0,0-.72,2.23v5.15H325.3v-9.32h1.55v1.33a3,3,0,0,1,1.25-1.11,3.84,3.84,0,0,1,1.74-.39A3.75,3.75,0,0,1,332.59,533.18Z"/><path class="cls-1" d="M336.18,534.44a4.22,4.22,0,0,1,1.59-1.68,4.39,4.39,0,0,1,2.25-.59,4.06,4.06,0,0,1,2.13.53,3.54,3.54,0,0,1,1.34,1.32v-1.7h1.56v9.32h-1.56V539.9a3.65,3.65,0,0,1-1.37,1.36,4.46,4.46,0,0,1-4.36-.08,4.31,4.31,0,0,1-1.58-1.72,5.25,5.25,0,0,1-.58-2.51A5.17,5.17,0,0,1,336.18,534.44Zm6.88.69a3,3,0,0,0-1.14-1.2,3.23,3.23,0,0,0-3.17,0,2.91,2.91,0,0,0-1.14,1.19,3.71,3.71,0,0,0-.43,1.84,3.81,3.81,0,0,0,.43,1.86,2.94,2.94,0,0,0,1.14,1.2,3,3,0,0,0,1.58.42,3.1,3.1,0,0,0,1.59-.42,2.94,2.94,0,0,0,1.14-1.2,3.77,3.77,0,0,0,.43-1.85A3.7,3.7,0,0,0,343.06,535.13Z"/><path class="cls-1" d="M349.22,529.06v12.58h-1.55V529.06Z"/><path class="cls-1" d="M351.9,530.5a1.06,1.06,0,0,1,.75-1.8,1,1,0,0,1,.73.31,1.1,1.1,0,0,1,0,1.49,1,1,0,0,1-.73.31A1,1,0,0,1,351.9,530.5Zm1.5,1.82v9.32h-1.55v-9.32Z"/><path class="cls-1" d="M357.92,533.6v5.49a1.33,1.33,0,0,0,.29,1,1.41,1.41,0,0,0,1,.28h1.14v1.31H359A2.77,2.77,0,0,1,357,541a2.54,2.54,0,0,1-.64-1.95V533.6h-1.21v-1.28h1.21V530h1.54v2.34h2.43v1.28Z"/><path class="cls-1" d="M370.25,532.32,364.64,546H363l1.84-4.48-3.76-9.22h1.72l2.92,7.55,2.89-7.55Z"/><path class="cls-1" d="M292.51,310.6v3.48a1.56,1.56,0,0,0,.48,1.17,1.63,1.63,0,0,0,1.18.47h8.2a.94.94,0,0,0,.68-.27.88.88,0,0,0,.28-.67v-3.6h2.2v3.58a1,1,0,0,0,1,1h.6a.24.24,0,0,1,.28.28v2a.24.24,0,0,1-.28.28h-.22a2.9,2.9,0,0,1-1.34-.31,3.46,3.46,0,0,1-1.08-.87,3.09,3.09,0,0,1-1.13.9,3.23,3.23,0,0,1-1.35.28h-7.6a4,4,0,0,1-1.58-.32,4.08,4.08,0,0,1-2.16-2.16,4,4,0,0,1-.32-1.58V310.6Zm2.6,0h2.3v-2.3h-2.3Zm3.34,0h2.3v-2.3h-2.3Z"/><path class="cls-1" d="M311.69,315.72a.92.92,0,0,0,.68-.29.94.94,0,0,0,.28-.69V310.6h2.2v4.14a3.42,3.42,0,0,1-.28,1.39,3.62,3.62,0,0,1-1.91,1.91,3.42,3.42,0,0,1-1.39.28h-4.18a.25.25,0,0,1-.2-.09.29.29,0,0,1-.08-.19v-2a.32.32,0,0,1,.08-.21.25.25,0,0,1,.2-.09Zm-4.3,7.3h2.28v-2.3h-2.28Zm3.32,0H313v-2.3h-2.3Z"/><path class="cls-1" d="M314.73,323.42l-.68-2.06,2.88-.94a2.33,2.33,0,0,0,1.21-.9,2.42,2.42,0,0,0,.45-1.42v-6.92h2.2v6.7a4.82,4.82,0,0,1-.24,1.51,4.74,4.74,0,0,1-1.71,2.38,5.12,5.12,0,0,1-1.35.71Z"/><path class="cls-1" d="M326.11,318.32a3,3,0,0,1-1.36-.31,3.13,3.13,0,0,1-1-.83,3.36,3.36,0,0,1-.61-1.19,3,3,0,0,1-.05-1.39l.34-1.82a3,3,0,0,1,.39-1,3.37,3.37,0,0,1,.69-.81,3.06,3.06,0,0,1,.91-.53,3,3,0,0,1,1.07-.19h1.12a3.25,3.25,0,0,1,1.28.26,3.15,3.15,0,0,1,1,.71,3.45,3.45,0,0,1,.7,1.05,3.25,3.25,0,0,1,.26,1.28v2.18h1.4a.24.24,0,0,1,.28.28v2a.24.24,0,0,1-.28.28h-1.42v.1a1.91,1.91,0,0,1,0,.2,4.26,4.26,0,0,1-1,2.38,5,5,0,0,1-2.27,1.54l-2.74.94-.68-2.1,2.82-.94a2.57,2.57,0,0,0,1.23-.84,2.16,2.16,0,0,0,.47-1.38v-.14a2.87,2.87,0,0,1-.54.17,2.79,2.79,0,0,1-.64.07Zm-.28-2.6h2.82v-2.2a.75.75,0,0,0-.22-.55.74.74,0,0,0-.54-.23h-1.62a.68.68,0,0,0-.48.18.85.85,0,0,0-.26.46l-.32,1.6a.56.56,0,0,0,.13.51A.62.62,0,0,0,325.83,315.72Z"/><path class="cls-1" d="M334,314.84l.4-2.06a3,3,0,0,1,.39-1,3.14,3.14,0,0,1,.69-.8,3.26,3.26,0,0,1,.91-.52,3,3,0,0,1,1.07-.19h1.12a3.28,3.28,0,0,1,3.28,3.28v2.34a2.37,2.37,0,0,1-.19.95,2.48,2.48,0,0,1-.52.78,2.55,2.55,0,0,1-.77.52,2.29,2.29,0,0,1-.94.19h-2.32a2.63,2.63,0,0,1-1.14-.25,2.47,2.47,0,0,1-1-.89,2.63,2.63,0,0,1-1,.89,2.84,2.84,0,0,1-1.2.25h-.48A.24.24,0,0,1,332,318v-2a.24.24,0,0,1,.28-.28h.64a1,1,0,0,0,.69-.24A1.07,1.07,0,0,0,334,314.84Zm2.84.88h2.82v-2.2a.75.75,0,0,0-.76-.76h-1.62a.72.72,0,0,0-.48.17.78.78,0,0,0-.26.45l-.32,1.6a.56.56,0,0,0,.13.51A.62.62,0,0,0,336.79,315.72Z"/><path class="cls-1" d="M342.41,303.7l1.44-.62-.16,0a.43.43,0,0,1-.26-.22,1.79,1.79,0,0,0-.11-.19,3.07,3.07,0,0,1-.17-.31,2.31,2.31,0,0,1-.21-.86,1.84,1.84,0,0,1,.14-.78,2,2,0,0,1,.44-.65,1.84,1.84,0,0,1,.65-.43l1.64-.68.7,1.66-1.58.66a.44.44,0,0,0-.19.21.29.29,0,0,0,0,.31l.36.66,2.2-1.16.78,1.56-4.9,2.5Zm3.82,11.06a.92.92,0,0,0,.29.68.94.94,0,0,0,.69.28h1.14a.26.26,0,0,1,.19.09.29.29,0,0,1,.09.21v2a.31.31,0,0,1-.28.28h-.8a3.31,3.31,0,0,1-1.36-.28,3.6,3.6,0,0,1-1.88-1.88,3.31,3.31,0,0,1-.28-1.36v-8.62h2.2Z"/><path class="cls-1" d="M350,314.84l.4-2.06a3,3,0,0,1,.39-1,3.14,3.14,0,0,1,.69-.8,3.26,3.26,0,0,1,.91-.52,3,3,0,0,1,1.07-.19h1.12a3.28,3.28,0,0,1,3.28,3.28v2.34a2.37,2.37,0,0,1-.19.95,2.48,2.48,0,0,1-.52.78,2.55,2.55,0,0,1-.77.52,2.29,2.29,0,0,1-.94.19h-2.32a2.63,2.63,0,0,1-1.14-.25,2.47,2.47,0,0,1-1-.89,2.63,2.63,0,0,1-1,.89,2.84,2.84,0,0,1-1.2.25h-.48a.24.24,0,0,1-.28-.28v-2a.24.24,0,0,1,.28-.28H349a1,1,0,0,0,.69-.24A1.07,1.07,0,0,0,350,314.84Zm2.84.88h2.82v-2.2a.75.75,0,0,0-.76-.76h-1.62a.72.72,0,0,0-.48.17.78.78,0,0,0-.26.45l-.32,1.6a.56.56,0,0,0,.13.51A.62.62,0,0,0,352.87,315.72Z"/><path class="cls-1" d="M306.07,331.26V343h-1.54v-8.77L300.62,343h-1.09l-3.93-8.79V343h-1.55V331.26h1.67l4.35,9.72,4.35-9.72Z"/><path class="cls-1" d="M308.74,331.89a1.05,1.05,0,0,1-.3-.75,1,1,0,0,1,.3-.75,1.06,1.06,0,0,1,.75-.31,1,1,0,0,1,.72.31,1,1,0,0,1,.3.75,1.05,1.05,0,0,1-.3.75,1,1,0,0,1-.72.3A1.05,1.05,0,0,1,308.74,331.89Zm1.5,1.81V343h-1.55V333.7Z"/><path class="cls-1" d="M314.25,342.81a3.33,3.33,0,0,1-1.34-1,2.77,2.77,0,0,1-.55-1.51H314a1.58,1.58,0,0,0,.66,1.14,2.44,2.44,0,0,0,1.53.44,2.26,2.26,0,0,0,1.4-.39,1.19,1.19,0,0,0,.51-1,1,1,0,0,0-.55-.91,7.29,7.29,0,0,0-1.68-.59,12,12,0,0,1-1.69-.55,3.07,3.07,0,0,1-1.12-.83,2.36,2.36,0,0,1,0-2.77,2.87,2.87,0,0,1,1.2-.94,4.4,4.4,0,0,1,1.79-.35,3.83,3.83,0,0,1,2.5.78,2.87,2.87,0,0,1,1,2.15h-1.55a1.6,1.6,0,0,0-.59-1.18,2.18,2.18,0,0,0-1.43-.44,2.21,2.21,0,0,0-1.33.36,1.1,1.1,0,0,0-.49.93,1,1,0,0,0,.3.76,2.06,2.06,0,0,0,.74.48c.3.11.72.25,1.25.4a12.05,12.05,0,0,1,1.63.53,2.91,2.91,0,0,1,1.08.79,2.11,2.11,0,0,1,.47,1.38,2.34,2.34,0,0,1-.42,1.37,3,3,0,0,1-1.2,1,4.35,4.35,0,0,1-1.78.34A4.9,4.9,0,0,1,314.25,342.81Z"/><path class="cls-1" d="M323.12,342.81a3.4,3.4,0,0,1-1.34-1,2.69,2.69,0,0,1-.54-1.51h1.6a1.53,1.53,0,0,0,.65,1.14,2.45,2.45,0,0,0,1.54.44,2.23,2.23,0,0,0,1.39-.39,1.19,1.19,0,0,0,.51-1,1,1,0,0,0-.54-.91,7.47,7.47,0,0,0-1.68-.59,11.78,11.78,0,0,1-1.7-.55,3.15,3.15,0,0,1-1.12-.83,2.21,2.21,0,0,1-.47-1.46,2.25,2.25,0,0,1,.43-1.31,2.84,2.84,0,0,1,1.21-.94,4.35,4.35,0,0,1,1.78-.35,3.81,3.81,0,0,1,2.5.78,2.87,2.87,0,0,1,1,2.15h-1.55a1.62,1.62,0,0,0-.58-1.18,2.6,2.6,0,0,0-2.77-.08,1.12,1.12,0,0,0-.49.93,1,1,0,0,0,.3.76,2.2,2.2,0,0,0,.75.48c.3.11.71.25,1.25.4a13.08,13.08,0,0,1,1.63.53,2.91,2.91,0,0,1,1.08.79,2.16,2.16,0,0,1,.47,1.38,2.35,2.35,0,0,1-.43,1.37,2.85,2.85,0,0,1-1.2,1,4.3,4.3,0,0,1-1.77.34A4.92,4.92,0,0,1,323.12,342.81Z"/><path class="cls-1" d="M330.67,331.89a1.05,1.05,0,0,1-.3-.75,1,1,0,0,1,.3-.75,1.06,1.06,0,0,1,.75-.31,1,1,0,0,1,.72.31,1,1,0,0,1,.3.75,1.05,1.05,0,0,1-.3.75,1,1,0,0,1-.72.3A1.05,1.05,0,0,1,330.67,331.89Zm1.5,1.81V343h-1.55V333.7Z"/><path class="cls-1" d="M336.49,342.58a4.28,4.28,0,0,1-1.66-1.69,5.21,5.21,0,0,1-.61-2.54,5,5,0,0,1,.63-2.53,4.2,4.2,0,0,1,1.69-1.68,5.16,5.16,0,0,1,4.79,0,4.31,4.31,0,0,1,1.69,1.67,5.47,5.47,0,0,1,0,5.08,4.46,4.46,0,0,1-1.73,1.69,4.92,4.92,0,0,1-2.41.59A4.75,4.75,0,0,1,336.49,342.58Zm3.94-1.16a3,3,0,0,0,1.18-1.17,3.76,3.76,0,0,0,.45-1.9,3.88,3.88,0,0,0-.44-1.91,2.82,2.82,0,0,0-1.16-1.16,3.35,3.35,0,0,0-3.1,0,2.75,2.75,0,0,0-1.13,1.16,4.63,4.63,0,0,0,0,3.83,2.73,2.73,0,0,0,1.12,1.16,3,3,0,0,0,1.53.38A3.28,3.28,0,0,0,340.43,341.42Z"/><path class="cls-1" d="M353,334.56a4,4,0,0,1,1,3V343H352.5v-5.27a3,3,0,0,0-.7-2.13,2.46,2.46,0,0,0-1.9-.74,2.55,2.55,0,0,0-1.95.76,3.15,3.15,0,0,0-.72,2.23V343h-1.55V333.7h1.55V335a3.11,3.11,0,0,1,1.25-1.1,3.9,3.9,0,0,1,1.74-.39A3.81,3.81,0,0,1,353,334.56Z"/><path class="cls-2" d="M299.27,420.13a.24.24,0,0,1-.28.28h-.58a3.49,3.49,0,0,1-2.48-1,3.64,3.64,0,0,1-.76-1.12,3.28,3.28,0,0,1-.28-1.36v-10.2h2.2v10.14a.9.9,0,0,0,.28.68.91.91,0,0,0,.68.28H299a.25.25,0,0,1,.2.09.32.32,0,0,1,.08.21Z"/><path class="cls-2" d="M299,420.41a.24.24,0,0,1-.28-.28v-2a.25.25,0,0,1,.28-.28h1.84a.4.4,0,0,1-.17-.24,1.25,1.25,0,0,1-.05-.36,2.93,2.93,0,0,1,0-.41c0-.14,0-.25.05-.35l.28-1.36a3.38,3.38,0,0,1,.4-1,3.1,3.1,0,0,1,.68-.8,3.26,3.26,0,0,1,.91-.52,3.21,3.21,0,0,1,1.07-.19h.82a3.11,3.11,0,0,1,1.25.26,3.54,3.54,0,0,1,1,.7,3.48,3.48,0,0,1,.7,1,3.15,3.15,0,0,1,.26,1.25v1a2.43,2.43,0,0,1-.08.64,2.54,2.54,0,0,1-.1.32h3v-2.88a1.24,1.24,0,0,0-.24-.75,1.33,1.33,0,0,0-.64-.47l-7.16-2.22.6-2.28,6.94,2.16a3.64,3.64,0,0,1,1.1.54,3.77,3.77,0,0,1,.85.84,4.11,4.11,0,0,1,.55,1.06,3.85,3.85,0,0,1,.2,1.22v2.86a2.45,2.45,0,0,1-.2,1,2.36,2.36,0,0,1-.54.8,2.5,2.5,0,0,1-.81.54,2.37,2.37,0,0,1-1,.2h-3.22V419a1.51,1.51,0,0,1-.45.68,3.06,3.06,0,0,1-1.35.7,2.2,2.2,0,0,1-.56.08Zm6.9-2.6v-2.2a.7.7,0,0,0-.22-.52.77.77,0,0,0-.54-.22h-1.3a.77.77,0,0,0-.5.18.72.72,0,0,0-.26.46l-.26,1.54a.6.6,0,0,0,.14.53.61.61,0,0,0,.5.23Z"/><path class="cls-2" d="M328.63,420.41a2.07,2.07,0,0,1-.69-.11,1.24,1.24,0,0,1-.63-.51v.5a3.17,3.17,0,0,1-.33,1.44,3.64,3.64,0,0,1-.88,1.14,4.17,4.17,0,0,1-1.27.76,4,4,0,0,1-1.5.28h-3.5a4.3,4.3,0,0,1-1.74-.35,4.39,4.39,0,0,1-1.43-1,4.29,4.29,0,0,1-1-1.43,4.4,4.4,0,0,1-.35-1.74v-5.86h2.2v5.52a2.2,2.2,0,0,0,.17.86,2.1,2.1,0,0,0,.47.7,2.29,2.29,0,0,0,.7.48,2.07,2.07,0,0,0,.86.18h3.6a1.7,1.7,0,0,0,1.28-.53,1.72,1.72,0,0,0,.52-1.27v-6.26h2.18v3.64a1,1,0,0,0,.31.66.88.88,0,0,0,.65.26h.58a1.08,1.08,0,0,0,.7-.24,1,1,0,0,0,.38-.64l.72-3.62,2.16.4-.6,3a.82.82,0,0,0,.19.77.93.93,0,0,0,.73.33h1.48v-5.16h2.2V418a2.34,2.34,0,0,1-.19.95,2.48,2.48,0,0,1-.52.78,2.38,2.38,0,0,1-.77.52,2.29,2.29,0,0,1-.94.19h-1.28a2.66,2.66,0,0,1-1.19-.27,2.35,2.35,0,0,1-.95-.91,2.66,2.66,0,0,1-1.06.91A3.12,3.12,0,0,1,328.63,420.41Zm1.48-8.94h-2.3v-2.3h2.3Zm1.62-3h-2.3v-2.3h2.3Zm1.72,3h-2.3v-2.3h2.3Z"/><path class="cls-2" d="M335.51,425.51l-.68-2.06,2.88-.94a2.33,2.33,0,0,0,1.21-.9,2.4,2.4,0,0,0,.45-1.42v-6.92h2.2V420a4.9,4.9,0,0,1-.91,2.84,4.71,4.71,0,0,1-1,1.05,5.12,5.12,0,0,1-1.35.71Zm3.76-16.38h2.3v2.3h-2.3Z"/><path class="cls-2" d="M342.65,425.51l-.68-2.06,2.88-.94a2.33,2.33,0,0,0,1.21-.9,2.4,2.4,0,0,0,.45-1.42v-6.92h2.2V420a4.9,4.9,0,0,1-.91,2.84,4.71,4.71,0,0,1-1,1.05,5.12,5.12,0,0,1-1.35.71Z"/><path class="cls-2" d="M353.31,420.41h-2.2v-13.7h2.2Z"/><path class="cls-2" d="M306.37,433.27l-4.47,11.85h-1.78l-4.48-11.85h1.65L301,443.48l3.72-10.21Z"/><path class="cls-2" d="M308.07,437.92a4.22,4.22,0,0,1,3.84-2.27,4.15,4.15,0,0,1,2.13.52,3.49,3.49,0,0,1,1.34,1.33v-1.7H317v9.32h-1.57v-1.74a3.49,3.49,0,0,1-1.37,1.35,4,4,0,0,1-2.11.54,4.2,4.2,0,0,1-3.83-2.33,5.44,5.44,0,0,1-.58-2.52A5.27,5.27,0,0,1,308.07,437.92Zm6.89.68a3,3,0,0,0-1.15-1.19,3.23,3.23,0,0,0-3.17,0,2.91,2.91,0,0,0-1.14,1.19,3.81,3.81,0,0,0-.43,1.83,3.87,3.87,0,0,0,.43,1.86,3,3,0,0,0,1.14,1.21,3,3,0,0,0,1.58.42,3.1,3.1,0,0,0,1.59-.42,3.05,3.05,0,0,0,1.15-1.21,4.24,4.24,0,0,0,0-3.68Z"/><path class="cls-2" d="M321.11,432.54v12.58h-1.55V432.54Z"/><path class="cls-2" d="M332,435.8v9.32h-1.55v-1.38a3.07,3.07,0,0,1-1.23,1.11,3.79,3.79,0,0,1-1.75.4,4.18,4.18,0,0,1-2-.45,3.3,3.3,0,0,1-1.37-1.35,4.49,4.49,0,0,1-.5-2.19V435.8h1.53v5.25a3,3,0,0,0,.7,2.12,2.49,2.49,0,0,0,1.9.74,2.56,2.56,0,0,0,2-.77,3.17,3.17,0,0,0,.71-2.22V435.8Z"/><path class="cls-2" d="M343.07,441h-7.44a2.92,2.92,0,0,0,3,2.92,2.89,2.89,0,0,0,1.68-.47,2.45,2.45,0,0,0,.94-1.25h1.67a4,4,0,0,1-1.5,2.19,4.53,4.53,0,0,1-2.79.84,4.69,4.69,0,0,1-2.37-.6,4.24,4.24,0,0,1-1.64-1.69,5.21,5.21,0,0,1-.59-2.54,5.36,5.36,0,0,1,.57-2.53,4.06,4.06,0,0,1,1.63-1.68,4.84,4.84,0,0,1,2.4-.58,4.73,4.73,0,0,1,2.35.57,4.07,4.07,0,0,1,1.57,1.59,4.7,4.7,0,0,1,.55,2.29A7.81,7.81,0,0,1,343.07,441Zm-1.93-2.78a2.51,2.51,0,0,0-1.07-1,3.28,3.28,0,0,0-1.48-.33,2.85,2.85,0,0,0-2,.74,3.06,3.06,0,0,0-.95,2.08h5.89A2.84,2.84,0,0,0,341.14,438.26Z"/><path class="cls-2" d="M346.54,444.9a3.16,3.16,0,0,1-1.34-1,2.74,2.74,0,0,1-.55-1.5h1.6a1.61,1.61,0,0,0,.66,1.14,2.51,2.51,0,0,0,1.54.44,2.25,2.25,0,0,0,1.39-.39,1.2,1.2,0,0,0,.51-1,1,1,0,0,0-.54-.91,7.66,7.66,0,0,0-1.69-.58,13.32,13.32,0,0,1-1.69-.56,2.86,2.86,0,0,1-1.12-.83,2.18,2.18,0,0,1-.47-1.45,2.14,2.14,0,0,1,.43-1.31,2.89,2.89,0,0,1,1.2-.95,4.4,4.4,0,0,1,1.79-.34,3.83,3.83,0,0,1,2.5.78,2.84,2.84,0,0,1,1,2.14h-1.55a1.56,1.56,0,0,0-.59-1.17,2.13,2.13,0,0,0-1.43-.44,2.21,2.21,0,0,0-1.33.35,1.1,1.1,0,0,0-.49.94,1,1,0,0,0,.3.75,2.06,2.06,0,0,0,.74.48c.3.12.72.25,1.25.4a14.55,14.55,0,0,1,1.64.53,3,3,0,0,1,1.08.8,2.1,2.1,0,0,1,.46,1.37,2.39,2.39,0,0,1-.42,1.38,2.88,2.88,0,0,1-1.2,1,4.35,4.35,0,0,1-1.78.35A4.73,4.73,0,0,1,346.54,444.9Z"/></g></svg>