<svg xmlns="http://www.w3.org/2000/svg" viewBox="0 0 648 648"><defs><style>.cls-1{fill:#fff;}.cls-2{fill:#79e45e;}</style></defs><g id="Layer_1" data-name="Layer 1"><circle cx="324" cy="517.62" r="130.38"/><path class="cls-1" d="M275.46,610.29l-.62,1.09L272,609.77,266.75,619l-1.35-.77,5.29-9.19-2.82-1.62.63-1.09Z"/><path class="cls-1" d="M273.53,622.05a4.23,4.23,0,0,1-.81-2.24,5.22,5.22,0,0,1,.51-2.56,5,5,0,0,1,1.62-2,4.33,4.33,0,0,1,2.24-.83,5,5,0,0,1,2.43.47,4.91,4.91,0,0,1,1.93,1.53,4.26,4.26,0,0,1,.84,2.23,5,5,0,0,1-.49,2.57,4.94,4.94,0,0,1-1.64,2,4.33,4.33,0,0,1-2.27.82,5.09,5.09,0,0,1-4.36-2Zm4.06.59a3,3,0,0,0,1.57-.58,4.32,4.32,0,0,0,1.6-3.46,2.93,2.93,0,0,0-.57-1.54,3.32,3.32,0,0,0-1.25-1,3.36,3.36,0,0,0-1.57-.3,2.91,2.91,0,0,0-1.52.59,4,4,0,0,0-1.18,1.56,3.94,3.94,0,0,0-.42,1.92,2.75,2.75,0,0,0,.52,1.52,3.1,3.1,0,0,0,1.24,1A3.31,3.31,0,0,0,277.59,622.64Z"/><path class="cls-1" d="M292.07,620.78a3.92,3.92,0,0,1,0,3.15l-1.78,5.2-1.45-.49,1.71-5a3,3,0,0,0,0-2.24,2.48,2.48,0,0,0-1.56-1.32,2.55,2.55,0,0,0-2.09.09,3.11,3.11,0,0,0-1.41,1.88l-1.67,4.88-1.46-.5,3-8.83,1.47.5-.43,1.26a3,3,0,0,1,1.54-.64,4.13,4.13,0,0,1,4.05,2.06Z"/><path class="cls-1" d="M302.63,628l-7.26-1.7a3,3,0,0,0,.43,2.31,3,3,0,0,0,1.85,1.23,2.89,2.89,0,0,0,1.74-.07,2.52,2.52,0,0,0,1.21-1l1.62.38a4,4,0,0,1-2,1.78,4.55,4.55,0,0,1-2.92.19,4.74,4.74,0,0,1-2.17-1.12,4.26,4.26,0,0,1-1.21-2,5.24,5.24,0,0,1,0-2.61,5.35,5.35,0,0,1,1.14-2.34,4,4,0,0,1,2-1.26,4.79,4.79,0,0,1,2.47,0,4.68,4.68,0,0,1,2.16,1.1,4.09,4.09,0,0,1,1.17,1.91,4.67,4.67,0,0,1,0,2.35A6.89,6.89,0,0,1,302.63,628Zm-1.25-3.15a2.59,2.59,0,0,0-.82-1.19,3.19,3.19,0,0,0-1.37-.66,2.87,2.87,0,0,0-2.12.27,3,3,0,0,0-1.39,1.81l5.73,1.34A2.87,2.87,0,0,0,301.38,624.82Z"/><path class="cls-1" d="M311.76,626.47l-.18,1.3-6.73-.94.19-1.3Z"/><path class="cls-1" d="M316.08,633.31a4.26,4.26,0,0,1-1.59-1.77A5.1,5.1,0,0,1,314,629a5,5,0,0,1,.74-2.49,4.16,4.16,0,0,1,1.77-1.61,4.89,4.89,0,0,1,2.42-.47,5,5,0,0,1,2.37.69,4.28,4.28,0,0,1,1.61,1.76,5.07,5.07,0,0,1,.51,2.56,5,5,0,0,1-.76,2.51,4.43,4.43,0,0,1-1.8,1.61,4.92,4.92,0,0,1-2.45.49A4.76,4.76,0,0,1,316.08,633.31Zm4-1a3,3,0,0,0,1.24-1.12,3.85,3.85,0,0,0,.54-1.88,3.9,3.9,0,0,0-.36-1.93,3,3,0,0,0-1.1-1.22,3.35,3.35,0,0,0-3.1-.14,2.81,2.81,0,0,0-1.19,1.11,3.89,3.89,0,0,0-.51,1.89,3.93,3.93,0,0,0,.33,1.94A2.68,2.68,0,0,0,317,632.2a3.11,3.11,0,0,0,1.51.46A3.32,3.32,0,0,0,320.07,632.34Z"/><path class="cls-1" d="M329.35,625.84l-2,0,.22,8.05-1.55,0-.22-8-1.21,0,0-1.28,1.2,0V624a3,3,0,0,1,.74-2.32,3.88,3.88,0,0,1,2.58-.79l0,1.29a2.06,2.06,0,0,0-1.42.44,1.77,1.77,0,0,0-.39,1.33l0,.67,2-.06Z"/><path class="cls-1" d="M337.63,626.31l.12,1.3-6.76.65-.12-1.31Z"/><path class="cls-1" d="M344.93,630.66l1.42-8.29,1.62-.3-1.91,9.84-1.77.33L339,623.72l1.64-.3Z"/><path class="cls-1" d="M353.32,629.84a4.17,4.17,0,0,1-2.06-1.18,5.1,5.1,0,0,1-1.28-2.28,5,5,0,0,1-.09-2.6,4.27,4.27,0,0,1,1.17-2.08,4.83,4.83,0,0,1,2.15-1.22,5,5,0,0,1,2.47-.09,4.22,4.22,0,0,1,2.08,1.15,5,5,0,0,1,1.29,2.27,4.89,4.89,0,0,1,.08,2.62,4.43,4.43,0,0,1-1.2,2.1,4.93,4.93,0,0,1-2.16,1.23A4.76,4.76,0,0,1,353.32,629.84Zm3.48-2.19a3,3,0,0,0,.82-1.45,3.9,3.9,0,0,0-.09-2,3.73,3.73,0,0,0-.95-1.71,2.91,2.91,0,0,0-1.43-.81,3.18,3.18,0,0,0-1.59.06,3.14,3.14,0,0,0-1.4.79,2.81,2.81,0,0,0-.77,1.43,4,4,0,0,0,.11,2,4.13,4.13,0,0,0,.93,1.74,2.73,2.73,0,0,0,1.39.81,3,3,0,0,0,1.58,0A3.23,3.23,0,0,0,356.8,627.65Z"/><path class="cls-1" d="M359,616.9a1,1,0,0,1-.54-.6,1,1,0,0,1,0-.81,1.06,1.06,0,0,1,.6-.54,1,1,0,0,1,.79,0,1,1,0,0,1,.53.6,1.08,1.08,0,0,1,0,.81,1,1,0,0,1-.58.53A1,1,0,0,1,359,616.9Zm2,1.21,3.16,8.78-1.46.52-3.16-8.77Z"/><path class="cls-1" d="M364.22,619.22A4.14,4.14,0,0,1,365,617a4.74,4.74,0,0,1,1.92-1.49,4.6,4.6,0,0,1,2.93-.37,3.91,3.91,0,0,1,2.27,1.53l-1.52.67a2.42,2.42,0,0,0-1.39-.86,2.88,2.88,0,0,0-1.77.23,2.77,2.77,0,0,0-1.6,1.7,3.74,3.74,0,0,0,.29,2.69,3.83,3.83,0,0,0,1.79,2.06,2.78,2.78,0,0,0,2.34,0,2.91,2.91,0,0,0,1.36-1.12,2.35,2.35,0,0,0,.31-1.62l1.53-.67a4,4,0,0,1-.45,2.69,4.49,4.49,0,0,1-2.23,1.92,4.66,4.66,0,0,1-2.4.4,4.18,4.18,0,0,1-2.15-.9,5.35,5.35,0,0,1-1.55-2.11A5.15,5.15,0,0,1,364.22,619.22Z"/><path class="cls-1" d="M382.52,613.58,376,617.21a3,3,0,0,0,1.87,1.42,3,3,0,0,0,2.2-.34,2.86,2.86,0,0,0,1.24-1.22,2.47,2.47,0,0,0,.21-1.56l1.46-.81a4,4,0,0,1-.24,2.64,4.56,4.56,0,0,1-2,2.1,4.67,4.67,0,0,1-2.36.63,4.18,4.18,0,0,1-2.26-.68,5.17,5.17,0,0,1-1.76-1.93,5.26,5.26,0,0,1-.73-2.5,4,4,0,0,1,.6-2.25A4.8,4.8,0,0,1,376,611a4.74,4.74,0,0,1,2.33-.64,4.06,4.06,0,0,1,2.15.63,4.62,4.62,0,0,1,1.6,1.73A8.24,8.24,0,0,1,382.52,613.58Zm-3-1.49a2.61,2.61,0,0,0-1.4-.33,3.29,3.29,0,0,0-1.46.44,2.8,2.8,0,0,0-1.38,1.63,3,3,0,0,0,.18,2.27l5.15-2.87A2.93,2.93,0,0,0,379.47,612.09Z"/><rect class="cls-1" x="280.28" y="585.72" width="2.3" height="2.3" transform="translate(-362.4 491.52) rotate(-55.96)"/><path class="cls-1" d="M276.12,594.92a3.69,3.69,0,0,0,1.27-.51,3.44,3.44,0,0,0,1-1l2.32-3.43-1.82-1.24-2.32,3.44a1,1,0,0,1-.62.41.9.9,0,0,1-.73-.14l-2.69-1.82-.31-.27a1,1,0,0,1-.34-.58,1,1,0,0,1,.07-.67l3.19-6.85-2.07-.78-2.56,5.43a1.06,1.06,0,0,1-.35.43,1.33,1.33,0,0,1-.51.2,1.2,1.2,0,0,1-.56,0,1.3,1.3,0,0,1-.52-.27l-2.23-1.92a.49.49,0,0,1-.16-.31.44.44,0,0,1,.11-.34l1.44-1.67-1.43-1.23-1.7,2a2.68,2.68,0,0,0-.51.92,2.53,2.53,0,0,0-.12,1,2.56,2.56,0,0,0,.9,1.81l2,1.71a3.43,3.43,0,0,0,1.26.7,4,4,0,0,0,1.35.17,4.2,4.2,0,0,0,.3,1.21,3.2,3.2,0,0,0,.87,1.17l.31.26,2.47,1.67a3.43,3.43,0,0,0,1.31.55A3.56,3.56,0,0,0,276.12,594.92Z"/><rect class="cls-1" x="282.29" y="602.79" width="2.3" height="2.3" transform="translate(-383.67 610.55) rotate(-65.43)"/><path class="cls-1" d="M290.58,594.79l-1.72,3.77a1,1,0,0,1-1.28.5l-3-1.37-1.16-.67a1,1,0,0,1-.46-.53.73.73,0,0,1,0-.66l1.87-3.24-1.9-1.1-3.47,6a2.5,2.5,0,0,1-1.11,1,2.28,2.28,0,0,1-1.5.16l-3-.63-.45,2.13,2.87.57a4.92,4.92,0,0,0,1.48.08,4.73,4.73,0,0,0,1.4-.36,4.52,4.52,0,0,0,1.24-.75,4.14,4.14,0,0,0,.94-1.13l.18-.31a1,1,0,0,0,.27.73,2.45,2.45,0,0,0,.57.47l.95.55,2.71,1.24a3.4,3.4,0,0,0,1.39.32,3.61,3.61,0,0,0,1.35-.22,3.51,3.51,0,0,0,1.18-.72,3.43,3.43,0,0,0,.83-1.15l1.73-3.77Z"/><path class="cls-1" d="M324.94,603.59a3.39,3.39,0,0,0-.66-1.06,3.43,3.43,0,0,0-1-.74,3.21,3.21,0,0,0-1.27-.31l-1.12,0a2.78,2.78,0,0,0-1.08.15,3,3,0,0,0-.93.49,3.54,3.54,0,0,0-.72.77,3,3,0,0,0-.42,1l-.48,2a1,1,0,0,1-.39.62,1,1,0,0,1-.7.22l-.5,0-1.12-.15a.94.94,0,0,1-.61-.34,1,1,0,0,1-.23-.65l1.41-10.15-2.18-.31-1.39,10.06a1,1,0,0,1-.37.64,1,1,0,0,1-.72.18l-1.1-.15-7.4-2-.69,2.51,3.78,1-.09.41a1.7,1.7,0,0,1-.81,1,1.61,1.61,0,0,1-1.27.14l-3.58-1a2.2,2.2,0,0,1-.78-.39,2.11,2.11,0,0,1-.55-.64,2.46,2.46,0,0,1-.28-.8,2,2,0,0,1,.05-.88l1.32-4.79-2.12-.58-1.4,5.1a4.32,4.32,0,0,0-.13,1.78,4.5,4.5,0,0,0,1.68,2.93,4.29,4.29,0,0,0,1.58.8l3.29.9a4.32,4.32,0,0,0,1.63.14,4.06,4.06,0,0,0,1.49-.47,3.85,3.85,0,0,0,1.9-2.4l.09-.31a.93.93,0,0,0,0-.27.35.35,0,0,1,0-.13l1.71.47.88.12a3.55,3.55,0,0,0,2.57-.63,3.25,3.25,0,0,0,1,.86,3.41,3.41,0,0,0,1.29.44l.89.13.48,0a3.06,3.06,0,0,0,1.21-.21,2.6,2.6,0,0,0,1.05-.86,2.54,2.54,0,0,0,.95.93,2.78,2.78,0,0,0,1.13.29l2.32.08a2.32,2.32,0,0,0,.95-.16,2.39,2.39,0,0,0,.79-.49,2.47,2.47,0,0,0,.55-.76,2.36,2.36,0,0,0,.22-.95l.08-2.34A3.13,3.13,0,0,0,324.94,603.59Zm-2.06,3.4-2.83-.1a.61.61,0,0,1-.48-.25.58.58,0,0,1-.11-.52l.38-1.59a.8.8,0,0,1,.27-.44.7.7,0,0,1,.49-.15l1.62.06a.68.68,0,0,1,.53.24.71.71,0,0,1,.2.54Z"/><rect class="cls-1" x="345.36" y="594.45" width="2.3" height="2.3" transform="translate(-155.55 123.64) rotate(-16.58)"/><path class="cls-1" d="M349.64,602.09l-1.18-4-2.11.63,1.18,4a.94.94,0,0,1-.07.75.93.93,0,0,1-.57.47l-3.11.92-1.93.33q-.51.09-.9.12l-.41,0,.71-.69a2.11,2.11,0,0,0,.57-.94,2.24,2.24,0,0,0,.08-1.12l-.09-.51a3,3,0,0,0-.43-1.14,3.11,3.11,0,0,0-1.88-1.34,3.07,3.07,0,0,0-1.21,0l-3.74.63a2,2,0,0,0-1.4.82,2,2,0,0,0-.3,1.6l.46,2.75,1.94.89-.41.1-.39.07-.38.07-2.59.43-.8.05a1,1,0,0,1-.69-.24.91.91,0,0,1-.32-.67l-.59-10.13-2.2.13.59,10.19a3.47,3.47,0,0,0,.36,1.35,3.62,3.62,0,0,0,.83,1.07,3.47,3.47,0,0,0,1.16.69,3.7,3.7,0,0,0,1.37.19l.58,0,3-.5a7.7,7.7,0,0,0,3.42-1.47,7.62,7.62,0,0,0,3.71.28l2.5-.43,2.86-.85a3.53,3.53,0,0,0,1.26-.66,3.72,3.72,0,0,0,.87-1.07,3.46,3.46,0,0,0,.41-1.31A3.29,3.29,0,0,0,349.64,602.09Zm-11.83,2.72-1.13-.52-.85-.39-.58-.26-.16-1,3.59-.6a.84.84,0,0,1,.64.14.81.81,0,0,1,.35.54l.06.36Z"/><rect class="cls-1" x="342.15" y="595.4" width="2.3" height="2.3" transform="translate(-156.06 122.87) rotate(-16.59)"/><rect class="cls-1" x="357.14" y="591.97" width="2.3" height="2.3" transform="translate(-223.21 216.26) rotate(-25.92)"/><path class="cls-1" d="M382.1,584.48a3.64,3.64,0,0,0-.73-1.22l-6.86-7.48-1.62,1.49,6.85,7.48a.94.94,0,0,1-.06,1.36l-2.9,2.26a.94.94,0,0,1-.71.17.91.91,0,0,1-.63-.39l-.4-.55a1.39,1.39,0,0,1,.25-.38,1.47,1.47,0,0,1,.49-.3l.93-.33-.68-2.06-7.85,2.75a2.8,2.8,0,0,0-.94.55,3,3,0,0,0-.68.87,2.65,2.65,0,0,0-.31,1.07,2.76,2.76,0,0,0,.17,1.19l.66,1.8,1.86-.71-.56-2.07a.53.53,0,0,1,0-.35.4.4,0,0,1,.26-.23l4.15-1.45a.48.48,0,0,0,0,.13c0,.07,0,.15,0,.25l-.21,1.68a3.27,3.27,0,0,1-.61,1.55,5.33,5.33,0,0,1-1.18,1.19L367,595.2a.91.91,0,0,1-.74,0,1,1,0,0,1-.55-.49l-1.56-3.22-2,1,2.74,5.64a1.75,1.75,0,0,1,.09,1.38,1.77,1.77,0,0,1-.93,1l-3.22,1.56a2.2,2.2,0,0,1-.85.23,2.38,2.38,0,0,1-.84-.12,2.27,2.27,0,0,1-.73-.43,2.35,2.35,0,0,1-.53-.7l-2.42-5-2,1,2.56,5.27a4.36,4.36,0,0,0,1.08,1.42,4.59,4.59,0,0,0,1.49.87,4.66,4.66,0,0,0,1.71.23,4.21,4.21,0,0,0,1.72-.44l3.13-1.52a4.27,4.27,0,0,0,1.25-.92,4,4,0,0,0,.8-1.26,3.93,3.93,0,0,0,.29-1.43,3.21,3.21,0,0,0-.33-1.42l-.22-.45a2.68,2.68,0,0,0,.51.17,1.46,1.46,0,0,0,1-.19l3.38-2.25a6.88,6.88,0,0,0,1.66-1.7,5.25,5.25,0,0,0,.88-2.19l.18-1.12a3.54,3.54,0,0,0,2,.76,3.12,3.12,0,0,0,2.05-.64l2.55-2a3.35,3.35,0,0,0,.83-1.15,3.46,3.46,0,0,0,.32-1.32A3.72,3.72,0,0,0,382.1,584.48Z"/><circle class="cls-2" cx="324" cy="517.62" r="65.34"/><polygon class="cls-1" points="448.99 84.26 199.01 84.26 199.01 413.01 324 485.7 448.99 413.01 448.99 84.26"/><polygon points="408.26 84.26 408.26 220.28 324 269.28 239.74 220.28 239.74 84.26 241 84.26 324 84.26 407 84.26 408.26 84.26"/><circle class="cls-2" cx="324" cy="84.26" r="84.26"/><polygon points="239.74 233.51 239.74 335.11 324 384.11 408.26 335.11 408.26 233.51 324 282.51 239.74 233.51"/><path class="cls-1" d="M283.2,209.74l-.68-2.06,2.88-.94a2.47,2.47,0,0,0,1.66-2.33v-6.93h2.21v6.71a4.77,4.77,0,0,1-.24,1.51,5.1,5.1,0,0,1-.67,1.34,4.75,4.75,0,0,1-1.05,1.05,5.1,5.1,0,0,1-1.35.71Zm3.76-16.4h2.31v2.3H287Z"/><path class="cls-1" d="M293.87,204.63h-2.2V190.92h2.2Z"/><path class="cls-1" d="M306.17,202h.56a.26.26,0,0,1,.19.09.29.29,0,0,1,.09.21v2a.29.29,0,0,1-.08.19.25.25,0,0,1-.2.09h-.4a3,3,0,0,1-1.42-.32,3.91,3.91,0,0,1-1-.72,3.72,3.72,0,0,1-1.13.75,3.3,3.3,0,0,1-1.41.29h-2.62a2.52,2.52,0,0,1-1-.21,2.71,2.71,0,0,1-.84-.57,2.65,2.65,0,0,1-.57-.85,2.45,2.45,0,0,1-.22-1v-2.6H298v2.2a.42.42,0,0,0,.14.33.44.44,0,0,0,.32.13h2.94a1.25,1.25,0,0,0,.57-.13,1.41,1.41,0,0,0,.45-.34,1.11,1.11,0,0,0,.25-.48.94.94,0,0,0,0-.55l-1.6-5.79,2.08-.76,2,7.27a1,1,0,0,0,.38.56A1,1,0,0,0,306.17,202Z"/><path class="cls-1" d="M310.13,202a.91.91,0,0,0,.68-.29.94.94,0,0,0,.28-.69V196.9h2.21v4.15a3.59,3.59,0,0,1-.28,1.39,3.88,3.88,0,0,1-.77,1.14,3.47,3.47,0,0,1-1.15.77,3.39,3.39,0,0,1-1.39.28h-3a.29.29,0,0,1-.28-.28v-2a.28.28,0,0,1,.08-.21.25.25,0,0,1,.2-.09Zm.86-6.95h2.31v-2.3H311Z"/><path class="cls-1" d="M317.7,204.63h-2.2V190.92h2.2Z"/><path class="cls-1" d="M328.78,204.63a3,3,0,0,1-1.37-.31,3.11,3.11,0,0,1-1-.82,3.28,3.28,0,0,1-.61-1.19,3,3,0,0,1-.05-1.4l.34-1.84h-1a.91.91,0,0,0-.68.28.9.9,0,0,0-.28.68v9.73h-2.2v-9.61a3.39,3.39,0,0,1,.28-1.39,3.47,3.47,0,0,1,.77-1.15,3.88,3.88,0,0,1,1.14-.77,3.59,3.59,0,0,1,1.39-.28h4.75a3.25,3.25,0,0,1,1.28.26,3.47,3.47,0,0,1,1.05.71,3.3,3.3,0,0,1,.71,1.05,3.13,3.13,0,0,1,.26,1.27v1.2a1,1,0,0,0,1,1h1.06a.24.24,0,0,1,.28.28v2a.24.24,0,0,1-.28.28h-.7a3.24,3.24,0,0,1-1.11-.19,2.41,2.41,0,0,1-1-.65,1.91,1.91,0,0,1-.76.65,2.17,2.17,0,0,1-.92.19Zm-.89-3.34a.6.6,0,0,0,.13.52.62.62,0,0,0,.5.22h2.82v-2.2a.71.71,0,0,0-.23-.54.77.77,0,0,0-.55-.22h-2.25Z"/><path class="cls-1" d="M341,204.63a3.16,3.16,0,0,1-1.34-.28,2.75,2.75,0,0,1-1.1-.9,2.77,2.77,0,0,1-1.11.9,3.25,3.25,0,0,1-1.36.28h-.52a.28.28,0,0,1-.19-.09.26.26,0,0,1-.09-.19v-2a.29.29,0,0,1,.09-.21.28.28,0,0,1,.19-.09h.9a.94.94,0,0,0,.69-.29,1,1,0,0,0,.28-.69v-3.59h2.2v3.75a.71.71,0,0,0,.3.59,1,1,0,0,0,.64.23h.64a1,1,0,0,0,.7-.25,1.08,1.08,0,0,0,.38-.65l.7-3.63,2.19.4-.6,3a.77.77,0,0,0,.19.75.91.91,0,0,0,.71.33H346a1,1,0,0,0,.68-.27.91.91,0,0,0,.28-.67v-4.15h2.2v4.15a.88.88,0,0,0,.28.67.94.94,0,0,0,.68.27H351a.29.29,0,0,1,.28.28v2a.31.31,0,0,1-.07.21.23.23,0,0,1-.21.09h-.48a3.16,3.16,0,0,1-1.34-.28,2.69,2.69,0,0,1-1.08-.9,2.73,2.73,0,0,1-1.12.9,3.29,3.29,0,0,1-1.34.28,3.25,3.25,0,0,1-1.29-.27,2.28,2.28,0,0,1-1-.91,2.6,2.6,0,0,1-1.06.91A3,3,0,0,1,341,204.63Zm1.46-8.91h-2.3v-2.3h2.3Zm1.64-3h-2.3v-2.3h2.3Zm1.71,3h-2.31v-2.3h2.31Z"/><path class="cls-1" d="M350.7,202.33a.3.3,0,0,1,.09-.2.26.26,0,0,1,.19-.1h3.59a5.29,5.29,0,0,0,1.66-.27,3.33,3.33,0,0,0,1.4-.89l1.16-1.24.18-.18c.06-.06.09-.08.1-.08l-4.2-1.26a.38.38,0,0,0-.35,0,.56.56,0,0,0-.23.27l-.76,2-1.93-.52.52-1.85a2.67,2.67,0,0,1,.58-1.06,2.88,2.88,0,0,1,1.93-1,3,3,0,0,1,1.08.11l8,2.39-.66,2.06-.94-.28a1.31,1.31,0,0,0-.77,0,1.62,1.62,0,0,0-.59.41L358.41,203a5.08,5.08,0,0,1-2,1.26,6.94,6.94,0,0,1-2.34.4H351a.25.25,0,0,1-.28-.28Zm4.13,7h2.3V207h-2.3Zm1.64,3h2.3v-2.3h-2.3Zm1.7-3h2.31V207h-2.31Z"/><path class="cls-1" d="M309.84,217.5l-4.48,11.87h-1.79L299.1,217.5h1.65l3.73,10.23,3.72-10.23Z"/><path class="cls-1" d="M311.59,218.22a1.06,1.06,0,0,1-.31-.75,1,1,0,0,1,.31-.75,1,1,0,0,1,.75-.31,1,1,0,0,1,.72.31,1,1,0,0,1,.3.75,1.05,1.05,0,0,1-.3.75,1,1,0,0,1-.72.3A1,1,0,0,1,311.59,218.22Zm1.5,1.82v9.33h-1.55V220Z"/><path class="cls-1" d="M317.11,229.15a3.19,3.19,0,0,1-1.35-1,2.66,2.66,0,0,1-.54-1.5h1.6a1.57,1.57,0,0,0,.65,1.14,2.53,2.53,0,0,0,1.54.44,2.26,2.26,0,0,0,1.4-.39,1.2,1.2,0,0,0,.51-1,1,1,0,0,0-.55-.91,7.8,7.8,0,0,0-1.68-.59,12.2,12.2,0,0,1-1.7-.55,3.15,3.15,0,0,1-1.12-.83,2.21,2.21,0,0,1-.47-1.46,2.23,2.23,0,0,1,.43-1.31,2.92,2.92,0,0,1,1.21-1,4.35,4.35,0,0,1,1.78-.34,3.84,3.84,0,0,1,2.51.78,2.85,2.85,0,0,1,1,2.14H320.8a1.58,1.58,0,0,0-.59-1.17,2.16,2.16,0,0,0-1.44-.44,2.25,2.25,0,0,0-1.32.35,1.11,1.11,0,0,0-.5.94,1,1,0,0,0,.3.76,2,2,0,0,0,.75.47,11.07,11.07,0,0,0,1.25.4,14.07,14.07,0,0,1,1.63.54,3,3,0,0,1,1.09.79,2.1,2.1,0,0,1,.46,1.38,2.39,2.39,0,0,1-.42,1.38,2.88,2.88,0,0,1-1.2,1,4.35,4.35,0,0,1-1.78.35A4.67,4.67,0,0,1,317.11,229.15Z"/><path class="cls-1" d="M326.31,228.92a4.18,4.18,0,0,1-1.67-1.69,5.53,5.53,0,0,1,0-5.07,4.32,4.32,0,0,1,1.7-1.69,4.9,4.9,0,0,1,2.4-.58,5,5,0,0,1,2.4.58,4.27,4.27,0,0,1,1.69,1.68,5,5,0,0,1,.62,2.54,4.92,4.92,0,0,1-.64,2.54,4.37,4.37,0,0,1-1.72,1.69,4.93,4.93,0,0,1-2.42.6A4.72,4.72,0,0,1,326.31,228.92Zm3.94-1.15a3,3,0,0,0,1.18-1.18,3.76,3.76,0,0,0,.45-1.9,3.88,3.88,0,0,0-.44-1.91,3,3,0,0,0-1.16-1.17,3.37,3.37,0,0,0-3.11,0,2.9,2.9,0,0,0-1.13,1.17,4.63,4.63,0,0,0,0,3.83,2.82,2.82,0,0,0,1.12,1.17,3.15,3.15,0,0,0,1.53.38A3.29,3.29,0,0,0,330.25,227.77Z"/><path class="cls-1" d="M335.56,218.22a1,1,0,0,1-.31-.75,1,1,0,0,1,.31-.75,1,1,0,0,1,.75-.31,1,1,0,0,1,.72.31,1,1,0,0,1,.3.75,1.05,1.05,0,0,1-.3.75,1,1,0,0,1-.72.3A1,1,0,0,1,335.56,218.22Zm1.49,1.82v9.33h-1.54V220Z"/><path class="cls-1" d="M347,220.9a4,4,0,0,1,1.06,3v5.5h-1.53v-5.28a3,3,0,0,0-.7-2.14,2.52,2.52,0,0,0-1.91-.74,2.58,2.58,0,0,0-2,.77,3.13,3.13,0,0,0-.72,2.23v5.16h-1.55V220h1.55v1.33a3.06,3.06,0,0,1,1.25-1.11,3.91,3.91,0,0,1,1.75-.39A3.75,3.75,0,0,1,347,220.9Z"/><path d="M284.92,81.29a2.22,2.22,0,0,1,1.27.78,2.15,2.15,0,0,1,.49,1.42v.7a3.9,3.9,0,0,1-.32,1.59,4.06,4.06,0,0,1-.87,1.31,3.79,3.79,0,0,1-1.3.88,4,4,0,0,1-1.61.32h-4a4.3,4.3,0,0,1-1.74-.35,4.45,4.45,0,0,1-2.74-4.13V79.22h2.2v4.27a2.07,2.07,0,0,0,.18.86,2.29,2.29,0,0,0,.48.7,2.21,2.21,0,0,0,.7.47,2.27,2.27,0,0,0,.86.17h4.31A1.64,1.64,0,0,0,284.48,84v-.52l-5.61-1.32V79.84a4.16,4.16,0,0,1,.27-1.5,4.41,4.41,0,0,1,.76-1.25,3.85,3.85,0,0,1,1.14-.9,4.33,4.33,0,0,1,1.44-.45l2.8-.36.36,2.4-3.2.42a1.63,1.63,0,0,0-1,.54,1.55,1.55,0,0,0-.41,1.08v.58Z"/><path d="M291.63,84.51a2.52,2.52,0,0,1-1-.21,2.71,2.71,0,0,1-.84-.57,2.76,2.76,0,0,1-.57-.85,2.6,2.6,0,0,1-.21-1V79.24h1.88v2.21a.45.45,0,0,0,.14.33.48.48,0,0,0,.32.13h3.3a1.26,1.26,0,0,0,.66-.18,1.55,1.55,0,0,0,.46-.46,1.35,1.35,0,0,0,.18-.62,1.32,1.32,0,0,0-.17-.65l-2.49-4.42,1.87-1.22,2.66,4.72a3.31,3.31,0,0,1,.47,1.86,3.76,3.76,0,0,1-.51,1.76,3.88,3.88,0,0,1-1.28,1.3,3.48,3.48,0,0,1-1.87.51Z"/><path d="M303.39,84.51A3,3,0,0,1,302,84.2a3.13,3.13,0,0,1-1-.83,3.45,3.45,0,0,1-.61-1.19,3,3,0,0,1-.05-1.4l.34-1.82a3,3,0,0,1,.39-1,3.89,3.89,0,0,1,.69-.81,3.06,3.06,0,0,1,.91-.53,3,3,0,0,1,1.08-.19h1.12a3.25,3.25,0,0,1,1.28.26,3.15,3.15,0,0,1,1,.71,3.45,3.45,0,0,1,.7,1,3.25,3.25,0,0,1,.26,1.28v2.19h1.4a.24.24,0,0,1,.28.28v2a.24.24,0,0,1-.28.28h-1.42v.1a1.91,1.91,0,0,1,0,.2,4.23,4.23,0,0,1-1,2.38,5,5,0,0,1-2.27,1.54l-2.75,1-.68-2.11,2.83-.94a2.66,2.66,0,0,0,1.23-.84,2.16,2.16,0,0,0,.47-1.38v-.14a3.09,3.09,0,0,1-1.18.24Zm-.28-2.6h2.82V79.7a.77.77,0,0,0-.22-.55.74.74,0,0,0-.54-.23h-1.62a.68.68,0,0,0-.48.18.84.84,0,0,0-.27.46l-.32,1.61a.61.61,0,0,0,.13.51A.63.63,0,0,0,303.11,81.91Z"/><path d="M309.25,82.21a.28.28,0,0,1,.09-.2.26.26,0,0,1,.19-.1h3.59a5.29,5.29,0,0,0,1.66-.27,3.26,3.26,0,0,0,1.4-.9l1.16-1.24.18-.18.1-.08L313.42,78a.42.42,0,0,0-.35,0,.56.56,0,0,0-.23.27l-.76,2-1.93-.52.52-1.84a2.71,2.71,0,0,1,.57-1.06,3.24,3.24,0,0,1,.89-.69,2.66,2.66,0,0,1,1.05-.3,2.81,2.81,0,0,1,1.08.11l8,2.38-.66,2.06-.94-.28a1.5,1.5,0,0,0-.77,0,1.76,1.76,0,0,0-.59.41L317,82.85a5.31,5.31,0,0,1-2,1.26,6.94,6.94,0,0,1-2.34.4h-3.09a.25.25,0,0,1-.28-.28Zm5.81,7h2.3V86.93h-2.3Z"/><path d="M332.12,84.09a5,5,0,0,1-.91,2.85,4.59,4.59,0,0,1-1,1.07,4.85,4.85,0,0,1-1.37.72l-2.75,1-.68-2.11,2.83-.94a2.66,2.66,0,0,0,1.23-.84,2.16,2.16,0,0,0,.47-1.38v-.14a3.09,3.09,0,0,1-1.18.24h-1.34A3,3,0,0,1,326,84.2a3.15,3.15,0,0,1-1.66-2,3.14,3.14,0,0,1,0-1.4l.34-1.82a3,3,0,0,1,.39-1,3.89,3.89,0,0,1,.69-.81,3.06,3.06,0,0,1,.91-.53,3,3,0,0,1,1.08-.19h1.12a3.25,3.25,0,0,1,1.28.26,3.15,3.15,0,0,1,1,.71,3.45,3.45,0,0,1,.7,1,3.25,3.25,0,0,1,.26,1.28Zm-2.2-2.18V79.7a.77.77,0,0,0-.22-.55.74.74,0,0,0-.54-.23h-1.62a.68.68,0,0,0-.48.18.84.84,0,0,0-.27.46l-.32,1.61a.61.61,0,0,0,.13.51.62.62,0,0,0,.49.23Z"/><path d="M341,88a4.3,4.3,0,0,1-1.74-.35,4.46,4.46,0,0,1-2.39-2.39,4.3,4.3,0,0,1-.35-1.74V78.24l2.2,0v4.95a2.07,2.07,0,0,0,.18.86,2.29,2.29,0,0,0,.48.7,2.1,2.1,0,0,0,.7.47,2.21,2.21,0,0,0,.84.17h3.61a1.74,1.74,0,0,0,1.28-.52,1.71,1.71,0,0,0,.52-1.26V70.79h2.2V81a.94.94,0,0,0,.28.68,1,1,0,0,0,.68.27h1.24a.29.29,0,0,1,.28.28v2a.28.28,0,0,1-.08.21.25.25,0,0,1-.2.09h-.88a2.13,2.13,0,0,1-.74-.12,1.43,1.43,0,0,1-.6-.5v.36a3.17,3.17,0,0,1-.28,1.26,4.33,4.33,0,0,1-.79,1.22,4,4,0,0,1-1.25.92,3.83,3.83,0,0,1-1.68.36Z"/><path d="M358.53,84.23a.29.29,0,0,1-.28.28h-1.52a2.68,2.68,0,0,1-1.28-.35,1.87,1.87,0,0,1-.86-.83,1.66,1.66,0,0,1-.4.45,4.35,4.35,0,0,1-.57.38,3.12,3.12,0,0,1-.66.26,2.84,2.84,0,0,1-.69.09h-1.53a.25.25,0,0,1-.28-.28v-2a.32.32,0,0,1,.08-.21.27.27,0,0,1,.2-.09h1.73a1.08,1.08,0,0,0,1.08-.88l.74-3.61,2.16.38-.6,3a.81.81,0,0,0,.18.76.91.91,0,0,0,.72.33h1.5a.25.25,0,0,1,.2.09.28.28,0,0,1,.08.21Zm-6.84,5H354V86.91h-2.28Zm3.32,0h2.3V86.91H355Z"/><path d="M358,82.19a.25.25,0,0,1,.28-.28h1.23a1,1,0,0,0,1-1V70.79h2.2V80.94a3.47,3.47,0,0,1-.28,1.4,3.54,3.54,0,0,1-1.89,1.89,3.47,3.47,0,0,1-1.4.28h-.82a.31.31,0,0,1-.19-.08.25.25,0,0,1-.09-.2Z"/><path d="M367.49,84.51a2.53,2.53,0,0,1-1-.21,2.71,2.71,0,0,1-.84-.57,2.76,2.76,0,0,1-.57-.85,2.6,2.6,0,0,1-.21-1V79.24h1.88v2.21a.45.45,0,0,0,.14.33.51.51,0,0,0,.33.13h3.3a1.2,1.2,0,0,0,.65-.18,1.44,1.44,0,0,0,.46-.46,1.35,1.35,0,0,0,.18-.62,1.22,1.22,0,0,0-.17-.65l-2.48-4.42L371,74.36l2.66,4.72a3.23,3.23,0,0,1,.47,1.86,3.76,3.76,0,0,1-.51,1.76,3.7,3.7,0,0,1-1.28,1.3,3.47,3.47,0,0,1-1.86.51Z"/><path d="M297.76,103.31a4.29,4.29,0,0,1-3.09,1h-2.28v4.95h-1.55V97.38h3.83a4.34,4.34,0,0,1,3.06,1,3.51,3.51,0,0,1,0,5Zm-1.18-.86a2.05,2.05,0,0,0,.61-1.6q0-2.19-2.52-2.19h-2.28V103h2.28A2.74,2.74,0,0,0,296.58,102.45Z"/><path d="M309,99.92v9.32h-1.55v-1.38a3,3,0,0,1-1.23,1.12,3.79,3.79,0,0,1-1.75.4,4.15,4.15,0,0,1-1.95-.45,3.21,3.21,0,0,1-1.37-1.36,4.38,4.38,0,0,1-.51-2.19V99.92h1.54v5.25a3,3,0,0,0,.69,2.12,2.48,2.48,0,0,0,1.91.74,2.55,2.55,0,0,0,2-.76,3.19,3.19,0,0,0,.71-2.23V99.92Z"/><path d="M314.31,100.19a3.53,3.53,0,0,1,1.84-.44v1.6h-.4q-2.61,0-2.61,2.82v5.07h-1.55V99.92h1.55v1.51A2.92,2.92,0,0,1,314.31,100.19Z"/><path d="M320.86,100.3a4.08,4.08,0,0,1,2.12-.54,4.3,4.3,0,0,1,2.25.6,4.22,4.22,0,0,1,1.6,1.67,5.83,5.83,0,0,1,0,5,4.29,4.29,0,0,1-1.6,1.72,4.23,4.23,0,0,1-2.25.62,4,4,0,0,1-2.1-.54,3.81,3.81,0,0,1-1.39-1.34v6.15h-1.55V99.92h1.55v1.71A3.73,3.73,0,0,1,320.86,100.3Zm4.54,2.41a2.93,2.93,0,0,0-1.15-1.19,3.14,3.14,0,0,0-1.59-.41,3.18,3.18,0,0,0-1.58.41,3.08,3.08,0,0,0-1.16,1.21,4.15,4.15,0,0,0,0,3.68,3,3,0,0,0,2.74,1.62,3.14,3.14,0,0,0,1.59-.41,3.05,3.05,0,0,0,1.15-1.21,3.93,3.93,0,0,0,.42-1.86A3.82,3.82,0,0,0,325.4,102.71Z"/><path d="M331.14,108.8a4.31,4.31,0,0,1-1.67-1.69,5.25,5.25,0,0,1-.6-2.55,5.13,5.13,0,0,1,.62-2.53,4.27,4.27,0,0,1,1.69-1.68,5,5,0,0,1,2.4-.59,4.9,4.9,0,0,1,2.4.59,4.29,4.29,0,0,1,1.7,1.68,5,5,0,0,1,.62,2.53,5,5,0,0,1-.64,2.55,4.46,4.46,0,0,1-1.73,1.69,4.9,4.9,0,0,1-2.41.6A4.75,4.75,0,0,1,331.14,108.8Zm3.94-1.16a3,3,0,0,0,1.18-1.17,3.78,3.78,0,0,0,.46-1.91,3.74,3.74,0,0,0-.45-1.9,2.88,2.88,0,0,0-1.15-1.17,3.2,3.2,0,0,0-1.55-.38,3.16,3.16,0,0,0-1.56.38,2.78,2.78,0,0,0-1.13,1.17,3.84,3.84,0,0,0-.43,1.9,4.08,4.08,0,0,0,.42,1.93,2.77,2.77,0,0,0,1.11,1.16,3.11,3.11,0,0,0,1.54.38A3.28,3.28,0,0,0,335.08,107.64Z"/><path d="M341.72,109a3.1,3.1,0,0,1-1.34-1,2.7,2.7,0,0,1-.55-1.51h1.6a1.54,1.54,0,0,0,.66,1.14,2.45,2.45,0,0,0,1.54.45,2.17,2.17,0,0,0,1.39-.4,1.19,1.19,0,0,0,.51-1,1,1,0,0,0-.54-.91,7.59,7.59,0,0,0-1.69-.59,13.49,13.49,0,0,1-1.69-.55,3,3,0,0,1-1.12-.84,2.13,2.13,0,0,1-.47-1.45,2.2,2.2,0,0,1,.42-1.31,2.91,2.91,0,0,1,1.21-1,4.4,4.4,0,0,1,1.79-.35,3.76,3.76,0,0,1,2.5.79,2.77,2.77,0,0,1,1,2.14h-1.55a1.58,1.58,0,0,0-.58-1.17,2.18,2.18,0,0,0-1.44-.45,2.21,2.21,0,0,0-1.33.36,1.1,1.1,0,0,0-.49.94,1,1,0,0,0,.29.75,2.2,2.2,0,0,0,.75.48c.3.12.72.25,1.25.4a12.59,12.59,0,0,1,1.64.54,2.8,2.8,0,0,1,1.08.79,2.11,2.11,0,0,1,.47,1.38,2.33,2.33,0,0,1-.43,1.38,2.91,2.91,0,0,1-1.2,1,4.31,4.31,0,0,1-1.78.35A4.9,4.9,0,0,1,341.72,109Z"/><path d="M357.69,105.16h-7.46a3,3,0,0,0,.95,2.15,3,3,0,0,0,2.08.78,2.89,2.89,0,0,0,1.68-.47,2.5,2.5,0,0,0,.94-1.25h1.67a4,4,0,0,1-1.5,2.18,4.47,4.47,0,0,1-2.79.85,4.66,4.66,0,0,1-2.37-.6,4.26,4.26,0,0,1-1.65-1.69,5.36,5.36,0,0,1-.59-2.55,5.25,5.25,0,0,1,.58-2.53,4,4,0,0,1,1.62-1.68,4.86,4.86,0,0,1,2.41-.59,4.73,4.73,0,0,1,2.35.58,4.07,4.07,0,0,1,1.57,1.59,4.71,4.71,0,0,1,.56,2.29C357.74,104.52,357.72,104.83,357.69,105.16Zm-1.94-2.79a2.71,2.71,0,0,0-1.07-1,3.33,3.33,0,0,0-1.49-.33,2.87,2.87,0,0,0-2,.75,3.05,3.05,0,0,0-.94,2.08h5.89A2.9,2.9,0,0,0,355.75,102.37Z"/><path d="M292.1,509v3.48a1.6,1.6,0,0,0,.48,1.18,1.63,1.63,0,0,0,1.18.47H302a.93.93,0,0,0,.68-.27.9.9,0,0,0,.28-.68v-3.6h2.21v3.58a1,1,0,0,0,1,1h.6a.24.24,0,0,1,.28.28v2a.24.24,0,0,1-.28.28h-.22a2.9,2.9,0,0,1-1.34-.31,3.24,3.24,0,0,1-1.08-.87,3.08,3.08,0,0,1-2.49,1.18H294a4,4,0,0,1-1.58-.32,4.08,4.08,0,0,1-2.16-2.16,3.86,3.86,0,0,1-.32-1.59V509Zm2.6,0H297v-2.3H294.7Zm3.35,0h2.3v-2.3h-2.3Z"/><path d="M314.49,516.49a.29.29,0,0,1-.08.19.27.27,0,0,1-.2.09h-1.52a2.72,2.72,0,0,1-1.29-.35,1.92,1.92,0,0,1-.86-.83,1.51,1.51,0,0,1-.4.45,3.33,3.33,0,0,1-.57.38,3.12,3.12,0,0,1-.66.26,2.72,2.72,0,0,1-.69.09H306.7a.24.24,0,0,1-.28-.28v-2a.28.28,0,0,1,.08-.21.25.25,0,0,1,.2-.09h1.72a1.08,1.08,0,0,0,.7-.24,1.06,1.06,0,0,0,.38-.64l.74-3.61,2.17.38-.61,3a.84.84,0,0,0,.19.76.88.88,0,0,0,.72.33h1.5a.27.27,0,0,1,.2.09.32.32,0,0,1,.08.21Zm-6.85,5h2.28v-2.31h-2.28Zm3.32,0h2.31v-2.31H311Z"/><path d="M318.43,512.26a1.38,1.38,0,0,0,.11.68.74.74,0,0,1,.11.18l2.77-3a4.21,4.21,0,0,1,1.5-1.07,4.49,4.49,0,0,1,1.82-.37H326a3.22,3.22,0,0,1,1.28.26,3.35,3.35,0,0,1,1.06.71,3.56,3.56,0,0,1,.71,1,3.21,3.21,0,0,1,.26,1.27v1.27a.86.86,0,0,0,.28.65.93.93,0,0,0,.68.27H331a.25.25,0,0,1,.2.09.29.29,0,0,1,.08.19v2a.32.32,0,0,1-.08.21.25.25,0,0,1-.2.09h-.4a3.16,3.16,0,0,1-1.34-.29,2.78,2.78,0,0,1-1.08-.89,3.28,3.28,0,0,1-1.14.89,3.24,3.24,0,0,1-1.35.29h-5.91a3.23,3.23,0,0,1-1.35-.28,2.82,2.82,0,0,1-1.09-.9,2.91,2.91,0,0,1-1.12.9,3.25,3.25,0,0,1-1.34.28h-.66a.24.24,0,0,1-.28-.28v-2a.29.29,0,0,1,.09-.21.26.26,0,0,1,.19-.09h1.06a1,1,0,0,0,.68-.28.94.94,0,0,0,.28-.69v-3.28h2.2Zm7.67,1.91a.91.91,0,0,0,.68-.29,1,1,0,0,0,.28-.7v-1a.9.9,0,0,0-.29-.68,1,1,0,0,0-.69-.28H324.4a2.3,2.3,0,0,0-1.74.76l-2,2.21Z"/><path d="M331,516.77a.24.24,0,0,1-.28-.28v-2a.28.28,0,0,1,.09-.2.24.24,0,0,1,.19-.1h3.58a5.35,5.35,0,0,0,1.67-.27,3.32,3.32,0,0,0,1.4-.9l1.16-1.24.18-.18a.34.34,0,0,1,.1-.08l-4.21-1.26a.42.42,0,0,0-.35,0,.62.62,0,0,0-.23.27l-.76,2-1.92-.52.52-1.84a2.83,2.83,0,0,1,.56-1.06,2.93,2.93,0,0,1,.88-.69,2.86,2.86,0,0,1,1.06-.3,2.77,2.77,0,0,1,1.08.11l8,2.38-.67,2.06-.94-.28a1.66,1.66,0,0,0-.57,0,1.4,1.4,0,0,0-.43.16v.68a1,1,0,0,0,1,1h2.67a.25.25,0,0,1,.28.28v2a.25.25,0,0,1-.28.28H342.4a3.06,3.06,0,0,1-2-.69,3.56,3.56,0,0,1-1.15-1.77l-.8.8a5.39,5.39,0,0,1-2,1.26,7,7,0,0,1-2.35.4ZM334,504h2.31v2.31H334Z"/><path d="M350.13,516.77a3.24,3.24,0,0,1-1.35-.29,2.88,2.88,0,0,1-1.09-.89,3,3,0,0,1-1.11.89,3.24,3.24,0,0,1-1.35.29h-.52a.24.24,0,0,1-.28-.28v-2a.29.29,0,0,1,.09-.21.26.26,0,0,1,.19-.09h.92a.91.91,0,0,0,.68-.3,1,1,0,0,0,.28-.71V509.6h2.2v3.58a1,1,0,0,0,.28.7.94.94,0,0,0,.68.29h.52a1.08,1.08,0,0,0,.7-.24,1.06,1.06,0,0,0,.38-.64l.75-3.63,2.22.4-.6,3a.81.81,0,0,0,.19.77.91.91,0,0,0,.71.34h1.48v-5.11h2.2v5.27a2.37,2.37,0,0,1-.19.95,2.32,2.32,0,0,1-.52.78,2.48,2.48,0,0,1-.78.52,2.37,2.37,0,0,1-.95.19h-1.24a2.58,2.58,0,0,1-1.2-.28,2.34,2.34,0,0,1-1-.92,2.73,2.73,0,0,1-1.07.92A2.9,2.9,0,0,1,350.13,516.77Zm1.47-8.93h-2.31v-2.3h2.31Zm1.64-3h-2.31v-2.3h2.31Zm1.7,3h-2.3v-2.3h2.3Z"/><path d="M285.68,535.57a4.28,4.28,0,0,1-3.08,1h-2.29v5h-1.54V529.64h3.83a4.33,4.33,0,0,1,3,1,3.49,3.49,0,0,1,0,5Zm-1.18-.86a2.05,2.05,0,0,0,.61-1.6c0-1.46-.84-2.19-2.51-2.19h-2.29v4.35h2.29A2.71,2.71,0,0,0,284.5,534.71Z"/><path d="M297.08,537.42h-7.46a3,3,0,0,0,.95,2.15,3,3,0,0,0,2.08.78,2.89,2.89,0,0,0,1.68-.47,2.52,2.52,0,0,0,.95-1.25h1.66a4,4,0,0,1-1.49,2.18,4.48,4.48,0,0,1-2.8.85,4.69,4.69,0,0,1-2.37-.6,4.17,4.17,0,0,1-1.64-1.69,5.76,5.76,0,0,1,0-5.08,4.06,4.06,0,0,1,1.63-1.68,4.82,4.82,0,0,1,2.4-.59,4.73,4.73,0,0,1,2.35.58,4.09,4.09,0,0,1,1.58,1.59,4.7,4.7,0,0,1,.55,2.29C297.13,536.78,297.11,537.09,297.08,537.42Zm-1.94-2.79a2.68,2.68,0,0,0-1.06-1,3.36,3.36,0,0,0-1.49-.33,2.86,2.86,0,0,0-2,.75,3.06,3.06,0,0,0-.95,2.08h5.89A2.9,2.9,0,0,0,295.14,534.63Z"/><path d="M301.89,532.45a3.55,3.55,0,0,1,1.85-.44v1.6h-.41q-2.61,0-2.61,2.82v5.07h-1.55v-9.32h1.55v1.51A3,3,0,0,1,301.89,532.45Z"/><path d="M306.9,541.29a3.16,3.16,0,0,1-1.34-1,2.77,2.77,0,0,1-.55-1.51h1.6a1.58,1.58,0,0,0,.66,1.14,2.45,2.45,0,0,0,1.54.45,2.17,2.17,0,0,0,1.39-.4,1.19,1.19,0,0,0,.51-1,1,1,0,0,0-.54-.91,7.4,7.4,0,0,0-1.69-.59,13.49,13.49,0,0,1-1.69-.55,3,3,0,0,1-1.12-.84,2.36,2.36,0,0,1-.05-2.76,2.91,2.91,0,0,1,1.21-1,4.43,4.43,0,0,1,1.79-.35,3.76,3.76,0,0,1,2.5.79,2.77,2.77,0,0,1,1,2.14H310.6a1.59,1.59,0,0,0-.59-1.17,2.18,2.18,0,0,0-1.44-.45,2.21,2.21,0,0,0-1.33.36,1.1,1.1,0,0,0-.49.94,1,1,0,0,0,.3.75,2,2,0,0,0,.75.48,12.65,12.65,0,0,0,1.25.4,12.38,12.38,0,0,1,1.63.54,2.8,2.8,0,0,1,1.08.79,2.11,2.11,0,0,1,.47,1.38,2.33,2.33,0,0,1-.43,1.38,2.91,2.91,0,0,1-1.2,1,4.31,4.31,0,0,1-1.78.35A4.9,4.9,0,0,1,306.9,541.29Z"/><path d="M316.1,541.06a4.31,4.31,0,0,1-1.67-1.69,5.25,5.25,0,0,1-.6-2.55,5.13,5.13,0,0,1,.62-2.53,4.27,4.27,0,0,1,1.69-1.68,5,5,0,0,1,2.4-.59,4.9,4.9,0,0,1,2.4.59,4.29,4.29,0,0,1,1.7,1.68,5,5,0,0,1,.62,2.53,5,5,0,0,1-.64,2.55,4.39,4.39,0,0,1-1.73,1.69,4.9,4.9,0,0,1-2.41.6A4.75,4.75,0,0,1,316.1,541.06ZM320,539.9a3,3,0,0,0,1.18-1.17,3.68,3.68,0,0,0,.46-1.91,3.74,3.74,0,0,0-.45-1.9,2.88,2.88,0,0,0-1.15-1.17,3.2,3.2,0,0,0-1.55-.38,3.16,3.16,0,0,0-1.56.38,2.78,2.78,0,0,0-1.13,1.17,3.84,3.84,0,0,0-.43,1.9,4.08,4.08,0,0,0,.42,1.93,2.77,2.77,0,0,0,1.11,1.16,3.11,3.11,0,0,0,1.54.38A3.28,3.28,0,0,0,320,539.9Z"/><path d="M332.6,533a4,4,0,0,1,1.06,3v5.49h-1.53v-5.27a3,3,0,0,0-.7-2.14,2.52,2.52,0,0,0-1.91-.74,2.58,2.58,0,0,0-1.95.77,3.13,3.13,0,0,0-.72,2.23v5.15H325.3v-9.32h1.55v1.32a3.11,3.11,0,0,1,1.25-1.1,3.91,3.91,0,0,1,1.75-.39A3.78,3.78,0,0,1,332.6,533Z"/><path d="M336.2,534.29a4.13,4.13,0,0,1,1.59-1.67A4.3,4.3,0,0,1,340,532a4.15,4.15,0,0,1,2.13.53,3.43,3.43,0,0,1,1.34,1.33v-1.7h1.57v9.32h-1.57v-1.73a3.63,3.63,0,0,1-1.37,1.35,4,4,0,0,1-2.11.54,4.23,4.23,0,0,1-2.25-.62,4.18,4.18,0,0,1-1.58-1.72,5.74,5.74,0,0,1,0-5Zm6.89.69a3,3,0,0,0-1.15-1.2,3.19,3.19,0,0,0-1.59-.41,3,3,0,0,0-1.58.41,2.91,2.91,0,0,0-1.14,1.19,3.71,3.71,0,0,0-.43,1.84,3.81,3.81,0,0,0,.43,1.86,3,3,0,0,0,1.14,1.21,3,3,0,0,0,1.58.41,3.09,3.09,0,0,0,1.59-.41,3,3,0,0,0,1.15-1.21,4.26,4.26,0,0,0,0-3.69Z"/><path d="M349.25,528.91V541.5H347.7V528.91Z"/><path d="M351.94,530.35a1.05,1.05,0,0,1,0-1.49,1,1,0,0,1,.75-.31,1,1,0,0,1,.72.31,1.08,1.08,0,0,1,0,1.49,1,1,0,0,1-.72.31A1,1,0,0,1,351.94,530.35Zm1.5,1.83v9.32h-1.55v-9.32Z"/><path d="M358,533.45V539a1.33,1.33,0,0,0,.28,1,1.44,1.44,0,0,0,1,.28h1.14v1.31H359a2.81,2.81,0,0,1-1.94-.59,2.57,2.57,0,0,1-.64-2v-5.5h-1.21v-1.27h1.21v-2.35H358v2.35h2.43v1.27Z"/><path d="M370.31,532.18l-5.62,13.71h-1.6l1.84-4.49-3.76-9.22h1.71l2.93,7.55,2.9-7.55Z"/><path class="cls-1" d="M292.47,310.17v3.49a1.59,1.59,0,0,0,.48,1.17,1.65,1.65,0,0,0,1.18.47h8.21A.93.93,0,0,0,303,315a.89.89,0,0,0,.28-.67v-3.61h2.21v3.59a1,1,0,0,0,1,1h.6a.24.24,0,0,1,.28.28v2a.24.24,0,0,1-.28.28h-.22a2.9,2.9,0,0,1-1.34-.31,3.24,3.24,0,0,1-1.08-.87,3.12,3.12,0,0,1-1.14.9,3.23,3.23,0,0,1-1.35.28h-7.61a4,4,0,0,1-1.58-.32,4.08,4.08,0,0,1-2.16-2.16,3.85,3.85,0,0,1-.32-1.58v-3.67Zm2.6,0h2.31v-2.3h-2.31Zm3.35,0h2.3v-2.3h-2.3Z"/><path class="cls-1" d="M311.67,315.3a.94.94,0,0,0,.69-.29,1,1,0,0,0,.28-.69v-4.15h2.2v4.15a3.45,3.45,0,0,1-.28,1.39,3.88,3.88,0,0,1-.77,1.14,3.7,3.7,0,0,1-1.14.77,3.47,3.47,0,0,1-1.4.28h-4.18a.25.25,0,0,1-.2-.09.29.29,0,0,1-.08-.19v-2a.32.32,0,0,1,.08-.21.25.25,0,0,1,.2-.09Zm-4.3,7.31h2.28V320.3h-2.28Zm3.32,0H313V320.3h-2.31Z"/><path class="cls-1" d="M314.72,323,314,321l2.88-.95a2.33,2.33,0,0,0,1.21-.9,2.4,2.4,0,0,0,.45-1.42v-6.93h2.21v6.71a4.77,4.77,0,0,1-.24,1.51,5,5,0,0,1-.67,1.33,4.59,4.59,0,0,1-1.05,1.06,5.1,5.1,0,0,1-1.35.71Z"/><path class="cls-1" d="M326.11,317.9a3,3,0,0,1-1.36-.31,3.13,3.13,0,0,1-1-.83,3.36,3.36,0,0,1-.61-1.19,3,3,0,0,1-.05-1.39l.34-1.83a3.12,3.12,0,0,1,.39-1,3.37,3.37,0,0,1,.69-.81,3.29,3.29,0,0,1,.91-.53,3,3,0,0,1,1.07-.19h1.12a3.27,3.27,0,0,1,1.29.26,3.3,3.3,0,0,1,1.74,1.76,3.27,3.27,0,0,1,.26,1.29v2.18h1.4a.24.24,0,0,1,.28.28v2a.24.24,0,0,1-.28.28h-1.42v.1a1.91,1.91,0,0,1,0,.2,4.23,4.23,0,0,1-1,2.38,5.08,5.08,0,0,1-2.28,1.55l-2.74.94-.68-2.1,2.82-1a2.64,2.64,0,0,0,1.24-.84,2.12,2.12,0,0,0,.47-1.38v-.14a3.09,3.09,0,0,1-1.19.24Zm-.28-2.6h2.83v-2.2a.82.82,0,0,0-.22-.56.74.74,0,0,0-.54-.23h-1.63a.72.72,0,0,0-.48.18.87.87,0,0,0-.26.47l-.32,1.6a.61.61,0,0,0,.13.51A.62.62,0,0,0,325.83,315.3Z"/><path class="cls-1" d="M334,314.42l.4-2.07a3.12,3.12,0,0,1,.39-1,3.59,3.59,0,0,1,.69-.8,3.32,3.32,0,0,1,.92-.52,2.94,2.94,0,0,1,1.07-.19h1.12a3.25,3.25,0,0,1,1.28.26,3.46,3.46,0,0,1,1,.7,3.23,3.23,0,0,1,.7,1,3.1,3.1,0,0,1,.26,1.29v2.34a2.37,2.37,0,0,1-.19,1,2.32,2.32,0,0,1-.52.78,2.55,2.55,0,0,1-.77.52,2.29,2.29,0,0,1-.94.19h-2.32a2.63,2.63,0,0,1-1.14-.25,2.49,2.49,0,0,1-1-.89,2.5,2.5,0,0,1-1,.89,2.84,2.84,0,0,1-1.2.25h-.48a.24.24,0,0,1-.28-.28v-2a.24.24,0,0,1,.28-.28h.64a1,1,0,0,0,.69-.24A1,1,0,0,0,334,314.42Zm2.85.88h2.82v-2.2a.74.74,0,0,0-.22-.55.77.77,0,0,0-.54-.22h-1.62a.72.72,0,0,0-.48.17.79.79,0,0,0-.26.46l-.32,1.6a.58.58,0,0,0,.13.51A.61.61,0,0,0,336.81,315.3Z"/><path class="cls-1" d="M342.43,303.26l1.45-.62a.46.46,0,0,1-.43-.24l-.11-.19-.17-.31A2.31,2.31,0,0,1,343,301a1.9,1.9,0,0,1,.58-1.43,1.83,1.83,0,0,1,.66-.43l1.64-.68.7,1.66-1.58.66a.39.39,0,0,0-.19.21.29.29,0,0,0,0,.31l.36.66,2.2-1.16.78,1.56-4.91,2.51Zm3.83,11.08a.94.94,0,0,0,.29.68,1,1,0,0,0,.69.28h1.14a.26.26,0,0,1,.19.09.29.29,0,0,1,.09.21v2a.31.31,0,0,1-.28.28h-.8a3.31,3.31,0,0,1-1.36-.28,3.64,3.64,0,0,1-1.12-.76,3.47,3.47,0,0,1-.76-1.12,3.31,3.31,0,0,1-.28-1.36v-8.63h2.2Z"/><path class="cls-1" d="M350.06,314.42l.4-2.07a3.12,3.12,0,0,1,.39-1,3.59,3.59,0,0,1,.69-.8,3.32,3.32,0,0,1,.92-.52,2.94,2.94,0,0,1,1.07-.19h1.12a3.25,3.25,0,0,1,1.28.26,3.46,3.46,0,0,1,1,.7,3.23,3.23,0,0,1,.7,1,3.1,3.1,0,0,1,.26,1.29v2.34a2.37,2.37,0,0,1-.19,1,2.32,2.32,0,0,1-.52.78,2.55,2.55,0,0,1-.77.52,2.29,2.29,0,0,1-.94.19h-2.32a2.63,2.63,0,0,1-1.14-.25,2.49,2.49,0,0,1-1-.89,2.5,2.5,0,0,1-1,.89,2.84,2.84,0,0,1-1.2.25h-.48a.24.24,0,0,1-.28-.28v-2a.24.24,0,0,1,.28-.28H349a1,1,0,0,0,.69-.24A1,1,0,0,0,350.06,314.42Zm2.85.88h2.82v-2.2a.74.74,0,0,0-.22-.55.77.77,0,0,0-.54-.22h-1.62a.72.72,0,0,0-.48.17.79.79,0,0,0-.26.46l-.32,1.6a.58.58,0,0,0,.13.51A.61.61,0,0,0,352.91,315.3Z"/><path class="cls-1" d="M306.05,330.86v11.78H304.5v-8.79l-3.91,8.79H299.5l-3.93-8.8v8.8H294V330.86h1.67l4.35,9.73,4.36-9.73Z"/><path class="cls-1" d="M308.72,331.49a1.05,1.05,0,0,1-.3-.75,1,1,0,0,1,1.05-1.06,1,1,0,0,1,.73.31,1.05,1.05,0,0,1,.29.75,1.08,1.08,0,0,1-.29.75,1,1,0,0,1-.73.3A1.05,1.05,0,0,1,308.72,331.49Zm1.5,1.82v9.33h-1.55v-9.33Z"/><path class="cls-1" d="M314.24,342.42a3.19,3.19,0,0,1-1.35-1,2.69,2.69,0,0,1-.54-1.51H314a1.57,1.57,0,0,0,.65,1.15,2.55,2.55,0,0,0,1.54.44,2.26,2.26,0,0,0,1.4-.39,1.2,1.2,0,0,0,.51-1,1,1,0,0,0-.54-.91,7.59,7.59,0,0,0-1.69-.59,11.6,11.6,0,0,1-1.69-.55,3.1,3.1,0,0,1-1.13-.84,2.16,2.16,0,0,1-.46-1.45,2.22,2.22,0,0,1,.42-1.31,3,3,0,0,1,1.21-.95,4.4,4.4,0,0,1,1.79-.35,3.84,3.84,0,0,1,2.5.79,2.8,2.8,0,0,1,1,2.14h-1.55a1.56,1.56,0,0,0-.59-1.17,2.13,2.13,0,0,0-1.43-.45,2.21,2.21,0,0,0-1.33.36,1.1,1.1,0,0,0-.49.94,1,1,0,0,0,.29.76,2.34,2.34,0,0,0,.75.47,11.07,11.07,0,0,0,1.25.4,12.59,12.59,0,0,1,1.64.54,2.8,2.8,0,0,1,1.08.79,2.16,2.16,0,0,1,.47,1.38,2.4,2.4,0,0,1-.43,1.38,2.76,2.76,0,0,1-1.2,1,4.35,4.35,0,0,1-1.78.35A4.73,4.73,0,0,1,314.24,342.42Z"/><path class="cls-1" d="M323.12,342.42a3.22,3.22,0,0,1-1.34-1,2.77,2.77,0,0,1-.55-1.51h1.6a1.62,1.62,0,0,0,.66,1.15,2.51,2.51,0,0,0,1.54.44,2.26,2.26,0,0,0,1.4-.39,1.2,1.2,0,0,0,.51-1,1,1,0,0,0-.55-.91,7.29,7.29,0,0,0-1.68-.59,11.78,11.78,0,0,1-1.7-.55,3.07,3.07,0,0,1-1.12-.84,2.34,2.34,0,0,1,0-2.76,2.86,2.86,0,0,1,1.21-.95,4.35,4.35,0,0,1,1.78-.35,3.82,3.82,0,0,1,2.5.79,2.81,2.81,0,0,1,1,2.14h-1.55a1.59,1.59,0,0,0-.59-1.17,2.18,2.18,0,0,0-1.44-.45,2.23,2.23,0,0,0-1.33.36,1.1,1.1,0,0,0-.49.94,1,1,0,0,0,.3.76,2.34,2.34,0,0,0,.75.47,10.43,10.43,0,0,0,1.25.4,12.38,12.38,0,0,1,1.63.54,2.8,2.8,0,0,1,1.08.79,2.11,2.11,0,0,1,.47,1.38,2.39,2.39,0,0,1-.42,1.38,2.88,2.88,0,0,1-1.2,1,4.35,4.35,0,0,1-1.78.35A4.75,4.75,0,0,1,323.12,342.42Z"/><path class="cls-1" d="M330.68,331.49a1.06,1.06,0,0,1-.31-.75,1,1,0,0,1,.31-.75,1,1,0,0,1,.75-.31,1,1,0,0,1,.72.31,1,1,0,0,1,.3.75,1.05,1.05,0,0,1-.3.75,1,1,0,0,1-.72.3A1,1,0,0,1,330.68,331.49Zm1.5,1.82v9.33h-1.55v-9.33Z"/><path class="cls-1" d="M336.51,342.19a4.18,4.18,0,0,1-1.67-1.69,5.22,5.22,0,0,1-.6-2.55,5,5,0,0,1,.62-2.52,4.23,4.23,0,0,1,1.69-1.69,5,5,0,0,1,2.4-.59,4.9,4.9,0,0,1,2.4.59,4.29,4.29,0,0,1,1.7,1.68,5,5,0,0,1,.62,2.53,4.93,4.93,0,0,1-.64,2.55,4.39,4.39,0,0,1-1.73,1.69,4.91,4.91,0,0,1-2.42.6A4.74,4.74,0,0,1,336.51,342.19Zm3.94-1.15a3,3,0,0,0,1.18-1.18,4.3,4.3,0,0,0,0-3.81,2.9,2.9,0,0,0-1.16-1.17,3.35,3.35,0,0,0-3.1,0,2.84,2.84,0,0,0-1.13,1.17,3.87,3.87,0,0,0-.43,1.9,4,4,0,0,0,.42,1.93,2.77,2.77,0,0,0,1.11,1.16,3.11,3.11,0,0,0,1.53.39A3.29,3.29,0,0,0,340.45,341Z"/><path class="cls-1" d="M353,334.17a3.92,3.92,0,0,1,1.06,3v5.5h-1.53v-5.28a3,3,0,0,0-.7-2.14,2.52,2.52,0,0,0-1.91-.74,2.55,2.55,0,0,0-1.95.77,3.13,3.13,0,0,0-.72,2.23v5.16h-1.55v-9.33h1.55v1.33a3.06,3.06,0,0,1,1.25-1.11,3.91,3.91,0,0,1,1.75-.39A3.75,3.75,0,0,1,353,334.17Z"/><path d="M299.24,419.84a.24.24,0,0,1-.28.28h-.58a3.44,3.44,0,0,1-1.36-.27,3.49,3.49,0,0,1-1.13-.75,3.64,3.64,0,0,1-.76-1.12,3.48,3.48,0,0,1-.28-1.36V406.41h2.21v10.15a.91.91,0,0,0,.28.68.9.9,0,0,0,.68.28H299a.25.25,0,0,1,.2.09.32.32,0,0,1,.08.21Z"/><path d="M299,420.12a.24.24,0,0,1-.28-.28v-2a.25.25,0,0,1,.28-.28h1.84a.4.4,0,0,1-.17-.24,1.36,1.36,0,0,1-.05-.36,2.93,2.93,0,0,1,0-.41c0-.14,0-.26.05-.35l.28-1.36a3.28,3.28,0,0,1,.4-1,3,3,0,0,1,.68-.8,3,3,0,0,1,.91-.52,3,3,0,0,1,1.07-.2h.83a3,3,0,0,1,1.25.27,3.3,3.3,0,0,1,1,.7,3.24,3.24,0,0,1,.7,1,3.11,3.11,0,0,1,.26,1.25v1a2.49,2.49,0,0,1-.08.64c-.05.19-.09.29-.1.32h3v-2.88a1.24,1.24,0,0,0-.24-.75,1.27,1.27,0,0,0-.64-.47l-7.17-2.23.6-2.28,6.95,2.16a3.78,3.78,0,0,1,2,1.39,4.26,4.26,0,0,1,.55,1.06,3.76,3.76,0,0,1,.2,1.22v2.86a2.45,2.45,0,0,1-.2,1,2.68,2.68,0,0,1-.54.8,2.44,2.44,0,0,1-.82.54,2.37,2.37,0,0,1-1,.2h-3.22v-1.46a1.51,1.51,0,0,1-.45.68,2.76,2.76,0,0,1-.66.45,3,3,0,0,1-.69.25,2.26,2.26,0,0,1-.56.08Zm6.91-2.6v-2.2a.74.74,0,0,0-.22-.52.73.73,0,0,0-.54-.22H303.8a.79.79,0,0,0-.5.18.74.74,0,0,0-.26.46l-.26,1.54a.6.6,0,0,0,.14.53.66.66,0,0,0,.5.23Z"/><path d="M328.64,420.12a2.17,2.17,0,0,1-.7-.11,1.24,1.24,0,0,1-.63-.51v.5a3.19,3.19,0,0,1-.33,1.45,3.64,3.64,0,0,1-.88,1.14,4.25,4.25,0,0,1-1.27.76,4,4,0,0,1-1.5.28h-3.51a4.47,4.47,0,0,1-1.74-.35,4.73,4.73,0,0,1-1.43-1,4.48,4.48,0,0,1-1.31-3.18v-5.86h2.2v5.52a2.2,2.2,0,0,0,.17.86,2.22,2.22,0,0,0,1.17,1.19,2.11,2.11,0,0,0,.86.18h3.61a1.74,1.74,0,0,0,1.28-.53,1.76,1.76,0,0,0,.52-1.28V413h2.18v3.64a1,1,0,0,0,.31.66.93.93,0,0,0,.66.26h.58a1.1,1.1,0,0,0,.7-.24,1.08,1.08,0,0,0,.38-.64l.72-3.62,2.16.4-.6,3a.83.83,0,0,0,.19.77.93.93,0,0,0,.73.33h1.48v-5.17h2.21v5.33a2.52,2.52,0,0,1-.19.95,2.48,2.48,0,0,1-.52.78,2.42,2.42,0,0,1-.78.52,2.26,2.26,0,0,1-.94.19h-1.28a2.66,2.66,0,0,1-1.19-.27,2.35,2.35,0,0,1-.95-.91,2.66,2.66,0,0,1-1.06.91A3.15,3.15,0,0,1,328.64,420.12Zm1.48-8.95h-2.31v-2.3h2.31Zm1.62-3h-2.3v-2.3h2.3Zm1.72,3h-2.3v-2.3h2.3Z"/><path d="M335.52,425.23l-.68-2.06,2.89-.94a2.49,2.49,0,0,0,1.21-.9,2.43,2.43,0,0,0,.45-1.43V413h2.2v6.7a4.9,4.9,0,0,1-.91,2.85,4.71,4.71,0,0,1-1,1.05,5.12,5.12,0,0,1-1.35.71Zm3.77-16.4h2.3v2.3h-2.3Z"/><path d="M342.67,425.23l-.68-2.06,2.89-.94a2.49,2.49,0,0,0,1.21-.9,2.43,2.43,0,0,0,.45-1.43V413h2.2v6.7a4.9,4.9,0,0,1-.91,2.85,4.71,4.71,0,0,1-1,1.05,5.12,5.12,0,0,1-1.35.71Z"/><path d="M353.35,420.12h-2.21V406.41h2.21Z"/><path d="M306.35,433l-4.48,11.87h-1.79L295.61,433h1.65L301,443.22,304.71,433Z"/><path d="M308.05,437.65a4.29,4.29,0,0,1,1.59-1.68,4.46,4.46,0,0,1,2.26-.59,4.11,4.11,0,0,1,2.13.53,3.54,3.54,0,0,1,1.34,1.32v-1.7h1.57v9.33h-1.57v-1.74a3.65,3.65,0,0,1-1.37,1.36,4.17,4.17,0,0,1-2.12.53,4.22,4.22,0,0,1-2.25-.61,4.31,4.31,0,0,1-1.58-1.72,5.44,5.44,0,0,1-.58-2.52A5.31,5.31,0,0,1,308.05,437.65Zm6.89.69a3,3,0,0,0-1.14-1.2,3.25,3.25,0,0,0-3.18,0,2.91,2.91,0,0,0-1.14,1.19,4.28,4.28,0,0,0,0,3.7,3,3,0,0,0,1.14,1.21,3.09,3.09,0,0,0,1.58.42,3.16,3.16,0,0,0,1.6-.42,3,3,0,0,0,1.14-1.21,4.15,4.15,0,0,0,0-3.68Z"/><path d="M321.11,432.26v12.6h-1.55v-12.6Z"/><path d="M332,435.53v9.33h-1.55v-1.38a3,3,0,0,1-1.24,1.11,3.74,3.74,0,0,1-1.74.4,4.19,4.19,0,0,1-2-.45,3.3,3.3,0,0,1-1.37-1.35,4.5,4.5,0,0,1-.5-2.2v-5.46h1.53v5.26a3,3,0,0,0,.7,2.12,2.5,2.5,0,0,0,1.91.74,2.54,2.54,0,0,0,1.95-.77,3.13,3.13,0,0,0,.72-2.23v-5.12Z"/><path d="M343.1,440.77h-7.46a2.93,2.93,0,0,0,3,2.93,2.82,2.82,0,0,0,1.68-.47,2.45,2.45,0,0,0,.94-1.25H343a4,4,0,0,1-1.5,2.19,4.53,4.53,0,0,1-2.79.84,4.79,4.79,0,0,1-2.37-.59,4.2,4.2,0,0,1-1.64-1.7,5.21,5.21,0,0,1-.6-2.54,5.29,5.29,0,0,1,.58-2.54,4.16,4.16,0,0,1,1.62-1.68,4.86,4.86,0,0,1,2.41-.58A4.63,4.63,0,0,1,341,436a4,4,0,0,1,1.58,1.59,4.79,4.79,0,0,1,.55,2.29C343.15,440.13,343.13,440.44,343.1,440.77ZM341.16,438a2.51,2.51,0,0,0-1.07-1,3.3,3.3,0,0,0-1.49-.33,2.87,2.87,0,0,0-2,.75,3,3,0,0,0-.94,2.07h5.89A2.86,2.86,0,0,0,341.16,438Z"/><path d="M346.57,444.65a3.2,3.2,0,0,1-1.34-1,2.64,2.64,0,0,1-.55-1.5h1.6a1.58,1.58,0,0,0,.66,1.14,2.51,2.51,0,0,0,1.54.44,2.23,2.23,0,0,0,1.39-.39,1.2,1.2,0,0,0,.51-1,1,1,0,0,0-.54-.91,7.92,7.92,0,0,0-1.69-.59,12,12,0,0,1-1.69-.55,3,3,0,0,1-1.12-.83,2.15,2.15,0,0,1-.47-1.46,2.24,2.24,0,0,1,.42-1.31,2.89,2.89,0,0,1,1.21-.94,4.24,4.24,0,0,1,1.79-.35,3.81,3.81,0,0,1,2.5.78,2.79,2.79,0,0,1,1,2.15h-1.55a1.62,1.62,0,0,0-.58-1.18,2.6,2.6,0,0,0-2.77-.08,1.09,1.09,0,0,0-.49.93,1.06,1.06,0,0,0,.29.76,2.2,2.2,0,0,0,.75.48c.3.11.72.25,1.25.4a14.55,14.55,0,0,1,1.64.53,2.91,2.91,0,0,1,1.08.79,2.13,2.13,0,0,1,.47,1.38,2.33,2.33,0,0,1-.43,1.38,2.76,2.76,0,0,1-1.2,1,4.16,4.16,0,0,1-1.78.35A4.9,4.9,0,0,1,346.57,444.65Z"/></g></svg>