<svg xmlns="http://www.w3.org/2000/svg" viewBox="0 0 1080 672"><defs><style>.cls-1{fill:#8fe044;}.cls-2{fill:#fff;}.cls-3{fill:#b2e47f;}.cls-4{fill:#e3f5cf;}.cls-5{fill:#f9fcf5;}.cls-6{fill:#c9eca7;}.cls-7{fill:#7ebc3c;}.cls-8{font-size:30px;font-family:Roboto-Regular, Roboto;}</style></defs><g id="Layer_3" data-name="Layer 3"><rect class="cls-1" width="1080" height="672"/></g><g id="Layer_1" data-name="Layer 1"><rect class="cls-1" x="862" y="440" width="48" height="48"/><rect class="cls-2" x="854" y="440" width="64" height="48"/><rect class="cls-2" x="862" y="432" width="48" height="64"/><rect class="cls-3" x="862" y="424" width="8" height="8"/><rect class="cls-4" x="870" y="424" width="8" height="8"/><rect class="cls-5" x="878" y="424" width="8" height="8"/><rect class="cls-5" x="886" y="424" width="8" height="8"/><rect class="cls-4" x="894" y="424" width="8" height="8"/><rect class="cls-3" x="902" y="424" width="8" height="8"/><rect class="cls-3" x="862" y="496" width="8" height="8"/><rect class="cls-4" x="870" y="496" width="8" height="8"/><rect class="cls-5" x="878" y="496" width="8" height="8"/><rect class="cls-5" x="886" y="496" width="8" height="8"/><rect class="cls-4" x="894" y="496" width="8" height="8"/><rect class="cls-3" x="902" y="496" width="8" height="8"/><rect class="cls-3" x="846" y="440" width="8" height="8" transform="translate(1294 -406) rotate(90)"/><rect class="cls-4" x="846" y="448" width="8" height="8" transform="translate(1302 -398) rotate(90)"/><rect class="cls-5" x="846" y="456" width="8" height="8" transform="translate(1310 -390) rotate(90)"/><rect class="cls-5" x="846" y="464" width="8" height="8" transform="translate(1318 -382) rotate(90)"/><rect class="cls-4" x="846" y="472" width="8" height="8" transform="translate(1326 -374) rotate(90)"/><rect class="cls-3" x="846" y="480" width="8" height="8" transform="translate(1334 -366) rotate(90)"/><rect class="cls-3" x="918" y="440" width="8" height="8" transform="translate(1366 -478) rotate(90)"/><rect class="cls-6" x="910" y="432" width="8" height="8" transform="translate(1350 -478) rotate(90)"/><rect class="cls-6" x="854" y="432" width="8" height="8" transform="translate(1294 -422) rotate(90)"/><rect class="cls-6" x="854" y="488" width="8" height="8" transform="translate(1350 -366) rotate(90)"/><rect class="cls-6" x="910" y="488" width="8" height="8" transform="translate(1406 -422) rotate(90)"/><rect class="cls-4" x="918" y="448" width="8" height="8" transform="translate(1374 -470) rotate(90)"/><rect class="cls-5" x="918" y="456" width="8" height="8" transform="translate(1382 -462) rotate(90)"/><rect class="cls-5" x="918" y="464" width="8" height="8" transform="translate(1390 -454) rotate(90)"/><rect class="cls-4" x="918" y="472" width="8" height="8" transform="translate(1398 -446) rotate(90)"/><rect class="cls-3" x="918" y="480" width="8" height="8" transform="translate(1406 -438) rotate(90)"/><rect class="cls-2" x="558" y="216" width="80" height="192"/><rect class="cls-2" x="750" y="216" width="80" height="192"/><rect class="cls-2" x="846" y="328" width="80" height="80"/><rect class="cls-1" x="670" y="344" width="48" height="48"/><rect class="cls-2" x="662" y="344" width="64" height="48"/><rect class="cls-2" x="670" y="336" width="48" height="64"/><rect class="cls-3" x="670" y="328" width="8" height="8"/><rect class="cls-4" x="678" y="328" width="8" height="8"/><rect class="cls-5" x="686" y="328" width="8" height="8"/><rect class="cls-5" x="694" y="328" width="8" height="8"/><rect class="cls-4" x="702" y="328" width="8" height="8"/><rect class="cls-3" x="710" y="328" width="8" height="8"/><rect class="cls-3" x="670" y="400" width="8" height="8"/><rect class="cls-4" x="678" y="400" width="8" height="8"/><rect class="cls-5" x="686" y="400" width="8" height="8"/><rect class="cls-5" x="694" y="400" width="8" height="8"/><rect class="cls-4" x="702" y="400" width="8" height="8"/><rect class="cls-3" x="710" y="400" width="8" height="8"/><rect class="cls-3" x="654" y="344" width="8" height="8" transform="translate(1006 -310) rotate(90)"/><rect class="cls-4" x="654" y="352" width="8" height="8" transform="translate(1014 -302) rotate(90)"/><rect class="cls-5" x="654" y="360" width="8" height="8" transform="translate(1022 -294) rotate(90)"/><rect class="cls-5" x="654" y="368" width="8" height="8" transform="translate(1030 -286) rotate(90)"/><rect class="cls-4" x="654" y="376" width="8" height="8" transform="translate(1038 -278) rotate(90)"/><rect class="cls-3" x="654" y="384" width="8" height="8" transform="translate(1046 -270) rotate(90)"/><rect class="cls-3" x="726" y="344" width="8" height="8" transform="translate(1078 -382) rotate(90)"/><rect class="cls-6" x="718" y="336" width="8" height="8" transform="translate(1062 -382) rotate(90)"/><rect class="cls-6" x="662" y="336" width="8" height="8" transform="translate(1006 -326) rotate(90)"/><rect class="cls-6" x="662" y="392" width="8" height="8" transform="translate(1062 -270) rotate(90)"/><rect class="cls-6" x="718" y="392" width="8" height="8" transform="translate(1118 -326) rotate(90)"/><rect class="cls-4" x="726" y="352" width="8" height="8" transform="translate(1086 -374) rotate(90)"/><rect class="cls-5" x="726" y="360" width="8" height="8" transform="translate(1094 -366) rotate(90)"/><rect class="cls-5" x="726" y="368" width="8" height="8" transform="translate(1102 -358) rotate(90)"/><rect class="cls-4" x="726" y="376" width="8" height="8" transform="translate(1110 -350) rotate(90)"/><rect class="cls-3" x="726" y="384" width="8" height="8" transform="translate(1118 -342) rotate(90)"/><path class="cls-7" d="M666,408.5A12.5,12.5,0,1,1,678.5,396,12.52,12.52,0,0,1,666,408.5Zm0-24A11.5,11.5,0,1,0,677.5,396,11.51,11.51,0,0,0,666,384.5Z"/><rect class="cls-7" x="323.95" y="441.8" width="348.51" height="1" transform="translate(-78.13 108.11) rotate(-11.49)"/><rect class="cls-7" x="517.86" y="119.03" width="1" height="355.94" transform="translate(2.09 597.61) rotate(-60.02)"/><path class="cls-3" d="M433.72,384A143.81,143.81,0,0,1,346,471.72V384Z"/><path class="cls-3" d="M250,200.28V288H162.29A143.77,143.77,0,0,1,250,200.28Z"/><rect class="cls-6" x="249.99" y="288" width="96" height="96" transform="translate(633.99 38.01) rotate(90)"/><path class="cls-2" d="M442,336a141.57,141.57,0,0,1-8.28,48H346V288H250V200.28A141.57,141.57,0,0,1,298,192,144,144,0,0,1,442,336Z"/><text class="cls-8" transform="translate(273.82 344.77)">1px</text><text class="cls-8" transform="translate(273.82 247.01)">1px</text><text class="cls-8" transform="translate(273.82 446.1)">1px</text><text class="cls-8" transform="translate(367.24 344.77)">1px</text><text class="cls-8" transform="translate(174.36 344.77)">1px</text><rect class="cls-7" x="249.5" y="200.28" width="1" height="271.72"/><rect class="cls-7" x="162.13" y="383.5" width="271.72" height="1"/><rect class="cls-7" x="162.13" y="287.5" width="271.72" height="1"/><rect class="cls-7" x="345.5" y="200.19" width="1" height="271.53"/><path class="cls-7" d="M298,480.5c-79.68,0-144.5-64.82-144.5-144.5a141.92,141.92,0,0,1,8.31-48.17,144.29,144.29,0,0,1,88-88A142,142,0,0,1,298,191.5c79.68,0,144.5,64.82,144.5,144.5a141.83,141.83,0,0,1-8.31,48.17,144.29,144.29,0,0,1-88,88A142,142,0,0,1,298,480.5Zm0-288a141,141,0,0,0-47.83,8.25,144.21,144.21,0,0,0-87.41,87.42A140.67,140.67,0,0,0,154.5,336c0,79.13,64.37,143.5,143.5,143.5a141,141,0,0,0,47.83-8.25,144.2,144.2,0,0,0,87.42-87.42A140.82,140.82,0,0,0,441.5,336C441.5,256.87,377.13,192.5,298,192.5Z"/></g></svg>