<svg xmlns="http://www.w3.org/2000/svg" viewBox="0 0 672 672"><g id="Layer_1" data-name="Layer 1"><path d="M521.5,413.5h-83v-83h83Zm-80-3h77v-77h-77Z"/><path d="M233.5,413.5h-83v-195h83Zm-80-3h77v-189h-77Z"/><path d="M425.5,413.5h-83v-195h83Zm-80-3h77v-189h-77Z"/><path d="M288,413.5A41.5,41.5,0,1,1,329.5,372,41.55,41.55,0,0,1,288,413.5Zm0-80A38.5,38.5,0,1,0,326.5,372,38.54,38.54,0,0,0,288,333.5Z"/><path d="M480,509.5A41.5,41.5,0,1,1,521.5,468,41.55,41.55,0,0,1,480,509.5Zm0-80A38.5,38.5,0,1,0,518.5,468,38.54,38.54,0,0,0,480,429.5Z"/></g></svg>