<svg xmlns="http://www.w3.org/2000/svg" viewBox="0 0 1080 672"><defs><style>.cls-1{fill:#8fe044;}.cls-2{fill:#fff;}.cls-3{fill:#caff83;}</style></defs><g id="Layer_3" data-name="Layer 3"><rect class="cls-1" width="1080" height="672"/></g><g id="Layer_1" data-name="Layer 1"><path class="cls-2" d="M420,297.15a51,51,0,1,0,0,77.7V384h24V288H420ZM390,366a30,30,0,1,1,30-30A30,30,0,0,1,390,366Z"/><path class="cls-2" d="M714,297.15a51,51,0,1,0,0,77.7V384h24V288H714ZM684,366a30,30,0,1,1,30-30A30,30,0,0,1,684,366Z"/><path class="cls-2" d="M273,285a50.81,50.81,0,0,0-33,12.15V252H216V384h24v-9.15A51,51,0,1,0,273,285Zm-3,81a30,30,0,1,1,30-30A30,30,0,0,1,270,366Z"/><path class="cls-2" d="M579,285a38.93,38.93,0,0,0-33,18.28,38.91,38.91,0,0,0-60-7.38V288H462v96h24V327a21,21,0,0,1,42,0v57h24V327a21,21,0,0,1,42,0v57h24V324A39,39,0,0,0,579,285Z"/><rect class="cls-2" x="792" y="288" width="24" height="96"/><path class="cls-2" d="M885,285a33,33,0,0,0-27,14.06V288H834v96h24V324a18,18,0,0,1,18-18h12V285Z"/><circle class="cls-2" cx="804" cy="261" r="15"/><circle class="cls-2" cx="765" cy="369" r="15"/><path class="cls-3" d="M874.22,342.38a18.17,18.17,0,0,1-5.93-1.59l.42-.91a17.49,17.49,0,0,0,5.6,1.51Zm4.1-.05-.13-1a17.2,17.2,0,0,0,5.56-1.67l.44.9A18.55,18.55,0,0,1,878.32,342.33Zm-13.54-3.66a18.64,18.64,0,0,1-4.2-4.48l.84-.55a17.73,17.73,0,0,0,4,4.24Zm22.86-.33-.63-.77a17.56,17.56,0,0,0,3.84-4.36l.85.53A18.38,18.38,0,0,1,887.64,338.34Zm-28.93-7.8a18.42,18.42,0,0,1-1.19-6l1,0a17.57,17.57,0,0,0,1.13,5.7Zm34.76-.5-.94-.33a17.61,17.61,0,0,0,1-5.73,18,18,0,0,0-.24-2.94l1-.17a18,18,0,0,1,.26,3.11A18.52,18.52,0,0,1,893.47,330Zm-34.63-9.42-1-.19a18.23,18.23,0,0,1,2.16-5.74l.86.5A17.42,17.42,0,0,0,858.84,320.62Zm33.33-3.31a17.63,17.63,0,0,0-3.08-4.92l.75-.66a18.63,18.63,0,0,1,3.25,5.2Zm-29-5.23-.74-.68a18.24,18.24,0,0,1,4.87-3.74l.47.88A17.19,17.19,0,0,0,863.2,312.08Zm23-2.29a17.09,17.09,0,0,0-5.21-2.56l.29-1a18.44,18.44,0,0,1,5.5,2.71Zm-14.8-2.68-.27-1a19.11,19.11,0,0,1,6.11-.6l-.07,1A17.58,17.58,0,0,0,871.41,307.11Z"/><path class="cls-3" d="M387,387.41a53.81,53.81,0,0,1-5.83-.32l.11-1a49.6,49.6,0,0,0,5.72.32h.21v1Zm4.24-.17-.08-1a50.42,50.42,0,0,0,5.88-.83l.2,1A50.37,50.37,0,0,1,391.24,387.24Zm-14.06-.76a53.71,53.71,0,0,1-5.87-1.5l.31-1a48.89,48.89,0,0,0,5.75,1.46Zm24-1-.27-1a49,49,0,0,0,5.6-2l.38.92A49.53,49.53,0,0,1,401.16,385.44Zm-33.65-1.84a52.52,52.52,0,0,1-5.45-2.63l.48-.87a51.49,51.49,0,0,0,5.35,2.57Zm43-1.87-.46-.89a51.52,51.52,0,0,0,5.11-3l.56.83A52.4,52.4,0,0,1,410.53,381.73Zm-51.93-2.85a55.11,55.11,0,0,1-4.84-3.64l.65-.76a51.56,51.56,0,0,0,4.75,3.56ZM419,376.26l-.62-.78a51.82,51.82,0,0,0,4.42-4l.71.7A50.79,50.79,0,0,1,419,376.26Zm-68.2-3.75a52.39,52.39,0,0,1-4.05-4.5l.78-.63a50.46,50.46,0,0,0,4,4.42Zm75.44-3.26-.76-.65a49.78,49.78,0,0,0,3.57-4.74l.84.55A50.66,50.66,0,0,1,426.23,369.25Zm-81.88-4.49a50.62,50.62,0,0,1-3.09-5.21l.89-.46a49.74,49.74,0,0,0,3,5.11ZM432,361l-.87-.49a51.56,51.56,0,0,0,2.58-5.35l.92.38A50.72,50.72,0,0,1,432,361Zm-92.43-5.07a50.9,50.9,0,0,1-2-5.71l1-.28a50.23,50.23,0,0,0,2,5.6ZM436,351.72l-.95-.31a51.58,51.58,0,0,0,1.48-5.75l1,.19A54.34,54.34,0,0,1,436,351.72Zm-99.42-5.45a52.67,52.67,0,0,1-.86-6l1-.09a48.39,48.39,0,0,0,.84,5.88Zm101.54-4.41-1-.11a50.82,50.82,0,0,0,.33-5.79v-.14h1V336A52.77,52.77,0,0,1,438.12,341.86Zm-102.58-5.62V336a53.09,53.09,0,0,1,.35-6l1,.12a50.88,50.88,0,0,0-.35,5.93v.28Zm101.75-4.38a50.4,50.4,0,0,0-.82-5.88l1-.19a50.18,50.18,0,0,1,.84,6Zm-99.79-5.74-1-.19a49.63,49.63,0,0,1,1.53-5.87l.95.31A49.56,49.56,0,0,0,337.5,326.12Zm98-4a50.33,50.33,0,0,0-2-5.61l.93-.38a52.11,52.11,0,0,1,2,5.71Zm-95.17-5.49-.93-.38a50.72,50.72,0,0,1,2.65-5.45l.87.49A49.54,49.54,0,0,0,340.37,316.65Zm91.55-3.7a49.32,49.32,0,0,0-3-5.11l.83-.56a52.4,52.4,0,0,1,3.08,5.21Zm-86.89-5-.83-.56a53.28,53.28,0,0,1,3.66-4.83l.76.65A51.29,51.29,0,0,0,345,307.94Zm81.53-3.3a48.8,48.8,0,0,0-3.95-4.43l.71-.71a52.42,52.42,0,0,1,4,4.52ZM351.3,300.3l-.7-.71a52.42,52.42,0,0,1,4.52-4l.62.79A50.31,50.31,0,0,0,351.3,300.3Zm68.4-2.77A49.88,49.88,0,0,0,415,294l.56-.83a51.39,51.39,0,0,1,4.83,3.65ZM358.94,294l-.56-.83a50.59,50.59,0,0,1,5.22-3.07l.45.89A51.43,51.43,0,0,0,358.94,294Zm52.64-2.14a50.45,50.45,0,0,0-5.34-2.58l.38-.93a52.6,52.6,0,0,1,5.45,2.64Zm-43.94-2.53-.38-.93a52.11,52.11,0,0,1,5.71-2l.28,1A48.33,48.33,0,0,0,367.64,289.35Zm34.88-1.42a49.52,49.52,0,0,0-5.75-1.49l.19-1a51.61,51.61,0,0,1,5.87,1.52Zm-25.43-1.46-.19-1a52.46,52.46,0,0,1,6-.83l.07,1A50.67,50.67,0,0,0,377.09,286.47Zm15.77-.63a49.69,49.69,0,0,0-5.86-.34l-.07-1H387a54,54,0,0,1,6,.34Z"/><path class="cls-3" d="M390,366.43a30.12,30.12,0,0,1-4.75-.37l.15-1a28.94,28.94,0,0,0,5.88.33l0,1Q390.66,366.43,390,366.43Zm5.36-.47-.17-1a30,30,0,0,0,5.66-1.61l.37.93A29.88,29.88,0,0,1,395.36,366Zm-14.08-.79a30.33,30.33,0,0,1-5.63-2.32l.47-.88a30,30,0,0,0,5.45,2.24Zm23.61-2.62-.49-.87a29.82,29.82,0,0,0,4.82-3.38l.65.76A30.54,30.54,0,0,1,404.89,362.55ZM372.2,360.7a31.17,31.17,0,0,1-4.56-4l.74-.68a29.74,29.74,0,0,0,4.41,3.9Zm40.57-4.49-.75-.66a29.89,29.89,0,0,0,3.46-4.77l.86.5A30.78,30.78,0,0,1,412.77,356.21Zm-47.69-2.7a30.05,30.05,0,0,1-3-5.3l.91-.4a30.17,30.17,0,0,0,2.9,5.13Zm53.07-5.87-.92-.38a29.82,29.82,0,0,0,1.7-5.64l1,.19A30.16,30.16,0,0,1,418.15,347.64Zm-57.44-3.25a30.24,30.24,0,0,1-1.09-6l1-.08a29.3,29.3,0,0,0,1.05,5.8Zm59.71-6.61-1-.06c0-.58.05-1.17.05-1.76a29.7,29.7,0,0,0-.28-4.12l1-.14a31.75,31.75,0,0,1,.29,4.26C420.47,336.57,420.45,337.18,420.42,337.78ZM360.52,336h-1a31.45,31.45,0,0,1,.6-6.06l1,.2A29.34,29.34,0,0,0,360.52,336Zm57.86-8a29.27,29.27,0,0,0-2.15-5.48l.89-.45a30.27,30.27,0,0,1,2.23,5.66Zm-56.24-1.69-.94-.32a29.81,29.81,0,0,1,2.56-5.53l.86.51A29.41,29.41,0,0,0,362.14,326.3Zm52.07-7.15a29.24,29.24,0,0,0-3.83-4.48l.7-.72a31.1,31.1,0,0,1,3.95,4.62Zm-47.37-1.43-.78-.62a30.13,30.13,0,0,1,4.22-4.38l.65.76A29.81,29.81,0,0,0,366.84,317.72Zm40.53-5.58a29.39,29.39,0,0,0-5.08-3l.42-.91a30.76,30.76,0,0,1,5.25,3.09Zm-33.28-1-.55-.84a30.47,30.47,0,0,1,5.43-2.76l.36.93A29.71,29.71,0,0,0,374.09,311.14Zm24.53-3.38a29.72,29.72,0,0,0-5.78-1.14l.1-1a30.36,30.36,0,0,1,6,1.19Zm-15.54-.46-.23-1a30.51,30.51,0,0,1,6-.83l0,1A29.33,29.33,0,0,0,383.08,307.3Z"/><path class="cls-3" d="M681,387.41a53.81,53.81,0,0,1-5.83-.32l.11-1a49.6,49.6,0,0,0,5.72.32h.21v1Zm4.24-.17-.08-1a50.42,50.42,0,0,0,5.88-.83l.2,1A50.37,50.37,0,0,1,685.24,387.24Zm-14.06-.76a53.71,53.71,0,0,1-5.87-1.5l.31-1a48.89,48.89,0,0,0,5.75,1.46Zm24-1-.27-1a49,49,0,0,0,5.6-2l.38.92A49.53,49.53,0,0,1,695.16,385.44Zm-33.64-1.84a51.72,51.72,0,0,1-5.46-2.63l.48-.87a51.49,51.49,0,0,0,5.35,2.57Zm43-1.87-.46-.89a51.52,51.52,0,0,0,5.11-3l.56.83A52.4,52.4,0,0,1,704.53,381.73Zm-51.93-2.85a55.11,55.11,0,0,1-4.84-3.64l.65-.76a50.24,50.24,0,0,0,4.75,3.56ZM713,376.26l-.62-.78a50.34,50.34,0,0,0,4.42-4l.71.7A49.42,49.42,0,0,1,713,376.26Zm-68.2-3.75a52.39,52.39,0,0,1-4-4.5l.78-.63a50.46,50.46,0,0,0,4,4.42Zm75.44-3.26-.76-.65a49.78,49.78,0,0,0,3.57-4.74l.84.55A50.66,50.66,0,0,1,720.23,369.25Zm-81.88-4.49a50.62,50.62,0,0,1-3.09-5.21l.89-.46a49.74,49.74,0,0,0,3,5.11ZM726,361l-.87-.49a51.56,51.56,0,0,0,2.58-5.35l.92.38A50.72,50.72,0,0,1,726,361Zm-92.43-5.07a50.21,50.21,0,0,1-2-5.71l1-.28a50.23,50.23,0,0,0,2,5.6ZM730,351.72l-1-.31a49.44,49.44,0,0,0,1.47-5.75l1,.19A53.75,53.75,0,0,1,730,351.72Zm-99.42-5.45a52.67,52.67,0,0,1-.86-6l1-.09a48.39,48.39,0,0,0,.84,5.88Zm101.54-4.41-1-.11a50.82,50.82,0,0,0,.33-5.79v-.14h1V336A52.81,52.81,0,0,1,732.12,341.86Zm-102.58-5.62V336a53,53,0,0,1,.35-6l1,.12a50.88,50.88,0,0,0-.35,5.93v.28Zm101.75-4.38a50.4,50.4,0,0,0-.82-5.88l1-.19a50.18,50.18,0,0,1,.84,6Zm-99.79-5.74-1-.19a51.61,51.61,0,0,1,1.52-5.87l1,.31A49.56,49.56,0,0,0,631.5,326.12Zm98-4a50.33,50.33,0,0,0-2-5.61l.93-.38a52.86,52.86,0,0,1,2,5.71Zm-95.17-5.49-.93-.38a50.72,50.72,0,0,1,2.65-5.45l.87.49A50.52,50.52,0,0,0,634.37,316.65Zm91.55-3.7a49.32,49.32,0,0,0-3-5.11l.83-.56a52.4,52.4,0,0,1,3.08,5.21Zm-86.89-5-.83-.56a53.28,53.28,0,0,1,3.66-4.83l.76.65A51.29,51.29,0,0,0,639,307.94Zm81.53-3.3a51.65,51.65,0,0,0-3.95-4.43l.71-.71a52.42,52.42,0,0,1,4,4.52ZM645.3,300.3l-.7-.71a52.42,52.42,0,0,1,4.52-4l.62.79A50.31,50.31,0,0,0,645.3,300.3Zm68.4-2.77A49.88,49.88,0,0,0,709,294l.56-.83a50.12,50.12,0,0,1,4.83,3.65ZM652.94,294l-.56-.83a51.53,51.53,0,0,1,5.21-3.07l.46.89A51.43,51.43,0,0,0,652.94,294Zm52.64-2.14a50.45,50.45,0,0,0-5.34-2.58l.38-.93a52.6,52.6,0,0,1,5.45,2.64Zm-43.94-2.53-.38-.93a52.11,52.11,0,0,1,5.71-2l.28,1A48.33,48.33,0,0,0,661.64,289.35Zm34.88-1.42a51.62,51.62,0,0,0-5.75-1.49l.19-1a51.61,51.61,0,0,1,5.87,1.52Zm-25.42-1.46-.2-1a52.46,52.46,0,0,1,6-.83l.07,1A50.21,50.21,0,0,0,671.1,286.47Zm15.76-.63a49.69,49.69,0,0,0-5.86-.34l-.07-1H681a54,54,0,0,1,6,.34Z"/><path class="cls-3" d="M684,366.43a30.12,30.12,0,0,1-4.75-.37l.15-1a28.94,28.94,0,0,0,5.88.33l0,1Q684.66,366.43,684,366.43Zm5.36-.47-.17-1a30,30,0,0,0,5.66-1.61l.37.93A29.88,29.88,0,0,1,689.36,366Zm-14.08-.79a30.33,30.33,0,0,1-5.63-2.32l.47-.88a30,30,0,0,0,5.45,2.24Zm23.61-2.62-.49-.87a29.82,29.82,0,0,0,4.82-3.38l.65.76A30.54,30.54,0,0,1,698.89,362.55ZM666.2,360.7a31.17,31.17,0,0,1-4.56-4l.74-.68a29.74,29.74,0,0,0,4.41,3.9Zm40.57-4.49-.75-.66a29.89,29.89,0,0,0,3.46-4.77l.86.5A30.78,30.78,0,0,1,706.77,356.21Zm-47.69-2.7a30.05,30.05,0,0,1-3-5.3l.91-.4a29.79,29.79,0,0,0,2.9,5.13Zm53.07-5.87-.92-.38a29.82,29.82,0,0,0,1.7-5.64l1,.19A30.16,30.16,0,0,1,712.15,347.64Zm-57.44-3.25a30.24,30.24,0,0,1-1.09-6l1-.08a29.3,29.3,0,0,0,1,5.8Zm59.71-6.61-1-.06c0-.58.05-1.17.05-1.76a29.7,29.7,0,0,0-.28-4.12l1-.14a31.75,31.75,0,0,1,.29,4.26C714.47,336.57,714.45,337.18,714.42,337.78ZM654.52,336h-1a31.45,31.45,0,0,1,.6-6.06l1,.2A29.34,29.34,0,0,0,654.52,336Zm57.86-8a29.27,29.27,0,0,0-2.15-5.48l.89-.46a30.64,30.64,0,0,1,2.23,5.67Zm-56.24-1.69-.95-.32a30.52,30.52,0,0,1,2.57-5.53l.86.51A28.75,28.75,0,0,0,656.14,326.3Zm52.07-7.15a29.24,29.24,0,0,0-3.83-4.48l.7-.72a31.1,31.1,0,0,1,3.95,4.62Zm-47.37-1.43-.78-.62a30.13,30.13,0,0,1,4.22-4.38l.65.76A29.81,29.81,0,0,0,660.84,317.72Zm40.53-5.58a29.77,29.77,0,0,0-5.08-3l.42-.91a30.76,30.76,0,0,1,5.25,3.09Zm-33.28-1-.55-.84a30.47,30.47,0,0,1,5.43-2.76l.36.93A29.71,29.71,0,0,0,668.09,311.14Zm24.53-3.38a29.72,29.72,0,0,0-5.78-1.14l.1-1a30.36,30.36,0,0,1,6,1.19Zm-15.54-.46-.23-1a30.51,30.51,0,0,1,6-.83l0,1A29.33,29.33,0,0,0,677.08,307.3Z"/><path class="cls-3" d="M273,387.5a54,54,0,0,1-6-.34l.11-1a49.69,49.69,0,0,0,5.86.34l.07,1Zm4.1-.16-.07-1a50.67,50.67,0,0,0,5.88-.81l.19,1A52.46,52.46,0,0,1,277.1,387.34Zm-14.06-.8a51.61,51.61,0,0,1-5.87-1.52l.31-.95a49.52,49.52,0,0,0,5.75,1.49Zm24-1-.28-1a48.33,48.33,0,0,0,5.61-2l.38.93A52.11,52.11,0,0,1,287,385.57Zm-33.65-1.94a52.6,52.6,0,0,1-5.45-2.64l.49-.87a50.45,50.45,0,0,0,5.34,2.58Zm43-1.75L296,381a51.43,51.43,0,0,0,5.11-3l.56.83A50.59,50.59,0,0,1,296.4,381.88Zm-51.92-3a51.39,51.39,0,0,1-4.83-3.65l.65-.76a49.88,49.88,0,0,0,4.74,3.58Zm60.4-2.44-.62-.79a50.31,50.31,0,0,0,4.44-3.95l.7.71A52.42,52.42,0,0,1,304.88,376.44Zm-68.2-3.94a52.42,52.42,0,0,1-4-4.52l.79-.62a48.8,48.8,0,0,0,3.95,4.43Zm75.46-3.06-.76-.64a51.29,51.29,0,0,0,3.59-4.74l.83.56A51.78,51.78,0,0,1,312.14,369.44Zm-81.87-4.72a52.4,52.4,0,0,1-3.08-5.21l.89-.46a49.32,49.32,0,0,0,3,5.11Zm87.64-3.54-.87-.49a49.54,49.54,0,0,0,2.59-5.34l.93.38A50.72,50.72,0,0,1,317.91,361.18Zm-92.42-5.33a52.11,52.11,0,0,1-2-5.71l1-.28a50.33,50.33,0,0,0,2,5.61ZM322,351.94l-.95-.31a49.56,49.56,0,0,0,1.5-5.75l1,.19A49.63,49.63,0,0,1,322,351.94Zm-99.4-5.73a50.18,50.18,0,0,1-.84-6l1-.08a50.4,50.4,0,0,0,.82,5.88Zm101.56-4.12-1-.12a50.88,50.88,0,0,0,.35-5.93v-.28h1V336A53.09,53.09,0,0,1,324.11,342.09Zm-102.57-5.9V336a52.77,52.77,0,0,1,.34-5.9l1,.11a50.82,50.82,0,0,0-.33,5.79v.14Zm101.74-4.38a48.39,48.39,0,0,0-.84-5.88l1-.2a52.67,52.67,0,0,1,.86,6Zm-99.81-5.47-1-.19a54.34,54.34,0,0,1,1.51-5.87l.95.31A51.58,51.58,0,0,0,223.47,326.34Zm98-4.25a50.23,50.23,0,0,0-2-5.6l.92-.39a50.9,50.9,0,0,1,2,5.71Zm-95.19-5.22-.92-.38A50.72,50.72,0,0,1,228,311l.87.49A51.56,51.56,0,0,0,226.31,316.87Zm91.54-4a49.74,49.74,0,0,0-3-5.11l.83-.56a50.62,50.62,0,0,1,3.09,5.21ZM231,308.14l-.84-.55a50.66,50.66,0,0,1,3.65-4.84l.76.65A49.78,49.78,0,0,0,231,308.14Zm81.52-3.52a50.46,50.46,0,0,0-4-4.42l.7-.71a52.39,52.39,0,0,1,4.05,4.5Zm-75.27-4.14-.71-.7a50.79,50.79,0,0,1,4.51-4l.62.78A51.82,51.82,0,0,0,237.21,300.48Zm68.38-3a51.56,51.56,0,0,0-4.75-3.56l.56-.84a55.11,55.11,0,0,1,4.84,3.64Zm-60.77-3.34-.56-.83a52.4,52.4,0,0,1,5.21-3.08l.46.89A51.52,51.52,0,0,0,244.82,294.18Zm52.64-2.28a51.49,51.49,0,0,0-5.35-2.57l.38-.93a52.52,52.52,0,0,1,5.45,2.63Zm-43.95-2.41-.38-.92a49.53,49.53,0,0,1,5.71-2l.27,1A49,49,0,0,0,253.51,289.49ZM288.38,288a48.89,48.89,0,0,0-5.75-1.46l.19-1a53.71,53.71,0,0,1,5.87,1.5ZM263,286.59l-.2-1a50.37,50.37,0,0,1,6-.85l.08,1A50.42,50.42,0,0,0,263,286.59Zm15.76-.68a49.6,49.6,0,0,0-5.72-.32h-.21v-1H273a53.81,53.81,0,0,1,5.83.32Z"/><path class="cls-3" d="M271.12,366.5l0-1a29.33,29.33,0,0,0,5.84-.8l.23,1A30.51,30.51,0,0,1,271.12,366.5Zm-4.06-.12a30.36,30.36,0,0,1-6-1.19l.29-.95a29.72,29.72,0,0,0,5.78,1.14Zm14-1.92-.36-.93a29.71,29.71,0,0,0,5.24-2.67l.55.84A30.47,30.47,0,0,1,281,364.46Zm-23.74-.71a30.76,30.76,0,0,1-5.25-3.09l.59-.8a29.39,29.39,0,0,0,5.08,3Zm32.43-4.47-.65-.76a29.81,29.81,0,0,0,4.09-4.24l.78.62A30.13,30.13,0,0,1,289.72,359.28Zm-40.8-1.23a31.1,31.1,0,0,1-3.95-4.62l.82-.58a29.24,29.24,0,0,0,3.83,4.48Zm47.32-6.5-.86-.51a29.41,29.41,0,0,0,2.48-5.34l.94.32A29.81,29.81,0,0,1,296.24,351.55Zm-53.36-1.61a30.27,30.27,0,0,1-2.23-5.66l1-.27a29.27,29.27,0,0,0,2.15,5.48Zm57-7.84-1-.2a29.34,29.34,0,0,0,.59-5.86h1A30.68,30.68,0,0,1,299.87,342.1Zm-60.05-1.8a31.75,31.75,0,0,1-.29-4.26c0-.61,0-1.22.05-1.82l1,.06c0,.58-.05,1.17-.05,1.76a29.7,29.7,0,0,0,.28,4.12Zm59.56-6.62a29.3,29.3,0,0,0-1.05-5.8l1-.27a30.24,30.24,0,0,1,1.09,6Zm-58.31-3.3-1-.19a30.16,30.16,0,0,1,1.76-5.83l.92.38A29.82,29.82,0,0,0,241.07,330.38ZM297,324.19a30.17,30.17,0,0,0-2.9-5.13l.82-.57a30.05,30.05,0,0,1,3,5.3Zm-52.48-3-.86-.5a30.78,30.78,0,0,1,3.57-4.93l.75.66A29.89,29.89,0,0,0,244.52,321.22Zm47.1-5.21a29.74,29.74,0,0,0-4.41-3.9l.59-.81a31.17,31.17,0,0,1,4.56,4Zm-40.84-2.31-.65-.76a30.54,30.54,0,0,1,5-3.49l.49.87A29.82,29.82,0,0,0,250.78,313.7Zm33.1-3.67a30,30,0,0,0-5.45-2.24l.29-1a30.62,30.62,0,0,1,5.63,2.32Zm-24.73-1.4-.37-.93a29.88,29.88,0,0,1,5.86-1.66l.17,1A30,30,0,0,0,259.15,308.63Zm15.45-1.7a28.94,28.94,0,0,0-5.88-.33l0-1a30.09,30.09,0,0,1,6.07.34Z"/><path class="cls-3" d="M513.09,363.47a40.46,40.46,0,0,1-4.81-.29l.12-1a38.81,38.81,0,0,0,5.91.27l0,1Zm5.28-.35-.13-1a39.12,39.12,0,0,0,5.78-1.24l.29,1A40,40,0,0,1,518.37,363.12Zm-14.08-.64a38.94,38.94,0,0,1-5.8-1.8l.37-.93a38.5,38.5,0,0,0,5.65,1.76Zm23.83-2-.38-.92a38.43,38.43,0,0,0,5.28-2.67l.52.85A39.33,39.33,0,0,1,528.12,360.5ZM494.81,359a39.32,39.32,0,0,1-5.15-3.23l.6-.8a38.23,38.23,0,0,0,5,3.14Zm42.08-3.5-.61-.8a39.29,39.29,0,0,0,4.43-3.92l.72.7A39.42,39.42,0,0,1,536.89,355.49Zm-50.36-2.29a40.44,40.44,0,0,1-4.16-4.42l.78-.63a38.43,38.43,0,0,0,4.06,4.31Zm57.57-4.78-.79-.62a39.37,39.37,0,0,0,3.3-4.91l.87.49A39.58,39.58,0,0,1,544.1,348.42ZM480,345.5a39.74,39.74,0,0,1-2.91-5.32l.91-.41a38.43,38.43,0,0,0,2.84,5.19Zm69.3-5.75-.92-.4a37.7,37.7,0,0,0,1.94-5.59l1,.25A39.7,39.7,0,0,1,549.29,339.75Zm-73.68-3.34a39.87,39.87,0,0,1-1.45-5.89l1-.17a38.81,38.81,0,0,0,1.42,5.74Zm76.49-6.36-1-.15a40,40,0,0,0,.45-5.9,39.23,39.23,0,0,0-.31-4.85l1-.13a41.35,41.35,0,0,1,.31,5A40.67,40.67,0,0,1,552.1,330.05Zm-78.4-3.56c-.05-.82-.08-1.66-.08-2.49,0-1.19.06-2.39.16-3.57l1,.09c-.1,1.15-.16,2.32-.16,3.48,0,.81,0,1.63.08,2.43Zm1.63-9.88-1-.19a39.41,39.41,0,0,1,1.62-5.86l.94.34A39,39,0,0,0,475.33,316.61Zm75.23-1.35a37.65,37.65,0,0,0-1.78-5.64l.93-.37a38.89,38.89,0,0,1,1.82,5.79Zm-72.12-8-.9-.44a39.8,39.8,0,0,1,3.06-5.24l.82.57A38.92,38.92,0,0,0,478.44,307.27Zm68.68-1.22a38.26,38.26,0,0,0-3.16-5l.8-.6a38.52,38.52,0,0,1,3.24,5.13Zm-63.29-7-.76-.65a39.49,39.49,0,0,1,4.28-4.3l.66.76A37.59,37.59,0,0,0,483.83,299Zm57.61-1a37.59,37.59,0,0,0-4.32-4.05l.63-.78a40.44,40.44,0,0,1,4.43,4.15Zm-50.32-5.59-.57-.82a39.83,39.83,0,0,1,5.23-3.08l.44.9A37.85,37.85,0,0,0,491.12,292.42Zm42.8-.76a39,39,0,0,0-5.2-2.82l.4-.91a38.75,38.75,0,0,1,5.34,2.89Zm-34.07-3.79-.34-.94a40.46,40.46,0,0,1,5.84-1.64l.19,1A38.77,38.77,0,0,0,499.85,287.87Zm25.18-.45a37.64,37.64,0,0,0-5.75-1.39l.16-1a40.6,40.6,0,0,1,5.9,1.43Zm-15.58-1.72-.1-1a39.67,39.67,0,0,1,6.07-.11l-.06,1A38.86,38.86,0,0,0,509.45,285.7Z"/><path class="cls-3" d="M507.09,348.48a21.07,21.07,0,0,1-3.08-.22l.14-1a20.77,20.77,0,0,0,5.84,0l.14,1A22,22,0,0,1,507.09,348.48Zm7-1.17-.33-.94a20.45,20.45,0,0,0,5.19-2.68l.58.82A21.41,21.41,0,0,1,514.1,347.31Zm-14.07,0a21.26,21.26,0,0,1-5.43-2.82l.58-.81a20.59,20.59,0,0,0,5.18,2.69Zm22.6-5.46-.72-.69a20.66,20.66,0,0,0,3.39-4.75l.89.46A21.35,21.35,0,0,1,522.63,341.83Zm-31.11,0a21.57,21.57,0,0,1-3.55-5l.89-.46a20.68,20.68,0,0,0,3.38,4.76Zm36.19-8.73-1-.29a20.38,20.38,0,0,0,.83-5.77c0-.61,0-1.23-.08-1.84l1-.09c.06.64.09,1.29.09,1.93A21.35,21.35,0,0,1,527.71,333.06ZM486.46,333a21.64,21.64,0,0,1-.85-6l1-.06a20.54,20.54,0,0,0,.81,5.78Zm.53-9.94-1-.19a21.24,21.24,0,0,1,2-5.78l.88.46A20.38,20.38,0,0,0,487,323.06Zm39.79-1.73a20.08,20.08,0,0,0-2.4-5.32l.85-.54a21.38,21.38,0,0,1,2.51,5.58ZM491,314.28l-.78-.62a21.88,21.88,0,0,1,4.44-4.21l.58.82A20.94,20.94,0,0,0,491,314.28Zm31-1.35a21.05,21.05,0,0,0-4.57-3.63l.5-.86a21.21,21.21,0,0,1,4.79,3.81Zm-23.34-4.6-.41-.91a21.21,21.21,0,0,1,5.88-1.7l.14,1A20.29,20.29,0,0,0,498.65,308.33Zm15.23-.66a20.31,20.31,0,0,0-5.73-1.13l.05-1a21.51,21.51,0,0,1,6,1.18Z"/><path class="cls-3" d="M579,363.47a40.72,40.72,0,0,1-4.81-.29l.12-1a38.93,38.93,0,0,0,5.91.27l0,1Zm5.29-.35-.14-1a39.24,39.24,0,0,0,5.79-1.24l.28,1A39.86,39.86,0,0,1,584.32,363.12Zm-14.09-.64a39.31,39.31,0,0,1-5.8-1.8l.37-.93a38.5,38.5,0,0,0,5.65,1.76Zm23.84-2-.38-.92a38.89,38.89,0,0,0,5.27-2.67l.52.85A39.79,39.79,0,0,1,594.07,360.5ZM560.75,359a38.56,38.56,0,0,1-5.14-3.23l.59-.8a38.34,38.34,0,0,0,5,3.14Zm42.08-3.5-.6-.8a39.29,39.29,0,0,0,4.43-3.92l.71.7A39.42,39.42,0,0,1,602.83,355.49Zm-50.35-2.29a39.58,39.58,0,0,1-4.17-4.42l.78-.63a39.37,39.37,0,0,0,4.06,4.31ZM610,348.42l-.78-.62a39.29,39.29,0,0,0,3.29-4.91l.87.49A39.58,39.58,0,0,1,610,348.42Zm-64.11-2.92a39.74,39.74,0,0,1-2.91-5.32l.92-.41a38.36,38.36,0,0,0,2.83,5.19Zm69.3-5.75-.92-.4a37.7,37.7,0,0,0,1.94-5.59l1,.25A38.57,38.57,0,0,1,615.23,339.75Zm-73.67-3.34a38.69,38.69,0,0,1-1.46-5.89l1-.17a37.6,37.6,0,0,0,1.42,5.74ZM618,330.05l-1-.15a38.68,38.68,0,0,0,.45-5.9,39.22,39.22,0,0,0-.3-4.85l1-.13a39.4,39.4,0,0,1,.31,5A40.67,40.67,0,0,1,618,330.05Zm-78.4-3.56c0-.82-.07-1.66-.07-2.49,0-1.19,0-2.39.16-3.57l1,.09c-.1,1.15-.15,2.32-.15,3.48,0,.81,0,1.62.07,2.43Zm1.64-9.88-1-.19a40.65,40.65,0,0,1,1.62-5.86l.94.34A37.39,37.39,0,0,0,541.28,316.61Zm75.22-1.35a37.65,37.65,0,0,0-1.78-5.64l.93-.37a38.93,38.93,0,0,1,1.83,5.79Zm-72.11-8-.9-.44a38.66,38.66,0,0,1,3-5.24l.83.57A37.83,37.83,0,0,0,544.39,307.27Zm68.67-1.22a38.26,38.26,0,0,0-3.16-5l.81-.6a40.67,40.67,0,0,1,3.24,5.13Zm-63.29-7-.76-.65a40.5,40.5,0,0,1,4.29-4.3l.65.76A38.46,38.46,0,0,0,549.77,299Zm57.62-1a39.28,39.28,0,0,0-4.32-4l.62-.78a39.56,39.56,0,0,1,4.43,4.15Zm-50.32-5.58-.57-.82a39.07,39.07,0,0,1,5.22-3.08l.44.9A37.74,37.74,0,0,0,557.07,292.42Zm42.79-.76a37.82,37.82,0,0,0-5.2-2.82l.41-.91a39.34,39.34,0,0,1,5.34,2.89Zm-34.07-3.79-.34-.94a40.46,40.46,0,0,1,5.84-1.64l.2,1A40.18,40.18,0,0,0,565.79,287.87Zm25.19-.45a37.92,37.92,0,0,0-5.75-1.39l.16-1a41.24,41.24,0,0,1,5.9,1.43Zm-15.59-1.72-.09-1a39.65,39.65,0,0,1,6.07-.11l-.06,1A39,39,0,0,0,575.39,285.7Z"/><path class="cls-3" d="M573,348.48a21.21,21.21,0,0,1-3.09-.22l.14-1a20.77,20.77,0,0,0,5.84,0l.14,1A21.93,21.93,0,0,1,573,348.48Zm7-1.17-.32-.94a20.62,20.62,0,0,0,5.19-2.68l.58.82A21.64,21.64,0,0,1,580,347.31Zm-14.06,0a21.32,21.32,0,0,1-5.44-2.82l.59-.81a20.26,20.26,0,0,0,5.18,2.69Zm22.6-5.46-.73-.69a20.08,20.08,0,0,0,3.39-4.75l.89.46A21.31,21.31,0,0,1,588.58,341.83Zm-31.12,0a21.53,21.53,0,0,1-3.54-5l.89-.46a20.38,20.38,0,0,0,3.38,4.76Zm36.19-8.73-1-.29a20.38,20.38,0,0,0,.83-5.77c0-.61,0-1.23-.08-1.84l1-.09c0,.64.08,1.29.08,1.93A21.35,21.35,0,0,1,593.65,333.06ZM552.41,333a21.27,21.27,0,0,1-.85-6l1-.06a20.54,20.54,0,0,0,.81,5.78Zm.52-9.94-1-.19a21.24,21.24,0,0,1,2-5.78l.89.46A20.4,20.4,0,0,0,552.93,323.06Zm39.8-1.73a20.4,20.4,0,0,0-2.4-5.32l.84-.54a21.74,21.74,0,0,1,2.52,5.58ZM557,314.28l-.78-.62a21.62,21.62,0,0,1,4.44-4.21l.58.82A20.43,20.43,0,0,0,557,314.28Zm30.95-1.35a20.81,20.81,0,0,0-4.57-3.63l.5-.86a21.26,21.26,0,0,1,4.8,3.81Zm-23.33-4.6-.41-.91a21,21,0,0,1,5.88-1.7l.13,1A20.22,20.22,0,0,0,564.6,308.33Zm15.22-.66a20.24,20.24,0,0,0-5.72-1.13l0-1a21.51,21.51,0,0,1,6,1.18Z"/><rect class="cls-3" x="215.61" width="0.79" height="672"/><path class="cls-3" d="M240.53,672h-1v-2h1Zm0-6h-1v-6h1Zm0-10h-1v-6h1Zm0-10h-1v-6h1Zm0-10h-1v-6h1Zm0-10h-1v-6h1Zm0-10h-1v-6h1Zm0-10h-1v-6h1Zm0-10h-1v-6h1Zm0-10h-1v-6h1Zm0-10h-1v-6h1Zm0-10h-1v-6h1Zm0-10h-1v-6h1Zm0-10h-1v-6h1Zm0-10h-1v-6h1Zm0-10h-1v-6h1Zm0-10h-1v-6h1Zm0-10h-1v-6h1Zm0-10h-1v-6h1Zm0-10h-1v-6h1Zm0-10h-1v-6h1Zm0-10h-1v-6h1Zm0-10h-1v-6h1Zm0-10h-1v-6h1Zm0-10h-1v-6h1Zm0-10h-1v-6h1Zm0-10h-1v-6h1Zm0-10h-1v-6h1Zm0-10h-1v-6h1Zm0-10h-1v-6h1Zm0-10h-1v-6h1Zm0-10h-1v-6h1Zm0-10h-1v-6h1Zm0-10h-1v-6h1Zm0-10h-1v-6h1Zm0-10h-1v-6h1Zm0-10h-1v-6h1Zm0-10h-1v-6h1Zm0-10h-1v-6h1Zm0-10h-1v-6h1Zm0-10h-1v-6h1Zm0-10h-1v-6h1Zm0-10h-1v-6h1Zm0-10h-1v-6h1Zm0-10h-1v-6h1Zm0-10h-1v-6h1Zm0-10h-1v-6h1Zm0-10h-1v-6h1Zm0-10h-1v-6h1Zm0-10h-1v-6h1Zm0-10h-1v-6h1Zm0-10h-1v-6h1Zm0-10h-1v-6h1Zm0-10h-1v-6h1Zm0-10h-1v-6h1Zm0-10h-1v-6h1Zm0-10h-1v-6h1Zm0-10h-1v-6h1Zm0-10h-1V90h1Zm0-10h-1V80h1Zm0-10h-1V70h1Zm0-10h-1V60h1Zm0-10h-1V50h1Zm0-10h-1V40h1Zm0-10h-1V30h1Zm0-10h-1V20h1Zm0-10h-1V10h1Zm0-10h-1V0h1Z"/><path class="cls-3" d="M420.47,672h-1v-2h1Zm0-6h-1v-6h1Zm0-10h-1v-6h1Zm0-10h-1v-6h1Zm0-10h-1v-6h1Zm0-10h-1v-6h1Zm0-10h-1v-6h1Zm0-10h-1v-6h1Zm0-10h-1v-6h1Zm0-10h-1v-6h1Zm0-10h-1v-6h1Zm0-10h-1v-6h1Zm0-10h-1v-6h1Zm0-10h-1v-6h1Zm0-10h-1v-6h1Zm0-10h-1v-6h1Zm0-10h-1v-6h1Zm0-10h-1v-6h1Zm0-10h-1v-6h1Zm0-10h-1v-6h1Zm0-10h-1v-6h1Zm0-10h-1v-6h1Zm0-10h-1v-6h1Zm0-10h-1v-6h1Zm0-10h-1v-6h1Zm0-10h-1v-6h1Zm0-10h-1v-6h1Zm0-10h-1v-6h1Zm0-10h-1v-6h1Zm0-10h-1v-6h1Zm0-10h-1v-6h1Zm0-10h-1v-6h1Zm0-10h-1v-6h1Zm0-10h-1v-6h1Zm0-10h-1v-6h1Zm0-10h-1v-6h1Zm0-10h-1v-6h1Zm0-10h-1v-6h1Zm0-10h-1v-6h1Zm0-10h-1v-6h1Zm0-10h-1v-6h1Zm0-10h-1v-6h1Zm0-10h-1v-6h1Zm0-10h-1v-6h1Zm0-10h-1v-6h1Zm0-10h-1v-6h1Zm0-10h-1v-6h1Zm0-10h-1v-6h1Zm0-10h-1v-6h1Zm0-10h-1v-6h1Zm0-10h-1v-6h1Zm0-10h-1v-6h1Zm0-10h-1v-6h1Zm0-10h-1v-6h1Zm0-10h-1v-6h1Zm0-10h-1v-6h1Zm0-10h-1v-6h1Zm0-10h-1v-6h1Zm0-10h-1V90h1Zm0-10h-1V80h1Zm0-10h-1V70h1Zm0-10h-1V60h1Zm0-10h-1V50h1Zm0-10h-1V40h1Zm0-10h-1V30h1Zm0-10h-1V20h1Zm0-10h-1V10h1Zm0-10h-1V0h1Z"/><path class="cls-3" d="M444.5,672h-1v-2h1Zm0-6h-1v-6h1Zm0-10h-1v-6h1Zm0-10h-1v-6h1Zm0-10h-1v-6h1Zm0-10h-1v-6h1Zm0-10h-1v-6h1Zm0-10h-1v-6h1Zm0-10h-1v-6h1Zm0-10h-1v-6h1Zm0-10h-1v-6h1Zm0-10h-1v-6h1Zm0-10h-1v-6h1Zm0-10h-1v-6h1Zm0-10h-1v-6h1Zm0-10h-1v-6h1Zm0-10h-1v-6h1Zm0-10h-1v-6h1Zm0-10h-1v-6h1Zm0-10h-1v-6h1Zm0-10h-1v-6h1Zm0-10h-1v-6h1Zm0-10h-1v-6h1Zm0-10h-1v-6h1Zm0-10h-1v-6h1Zm0-10h-1v-6h1Zm0-10h-1v-6h1Zm0-10h-1v-6h1Zm0-10h-1v-6h1Zm0-10h-1v-6h1Zm0-10h-1v-6h1Zm0-10h-1v-6h1Zm0-10h-1v-6h1Zm0-10h-1v-6h1Zm0-10h-1v-6h1Zm0-10h-1v-6h1Zm0-10h-1v-6h1Zm0-10h-1v-6h1Zm0-10h-1v-6h1Zm0-10h-1v-6h1Zm0-10h-1v-6h1Zm0-10h-1v-6h1Zm0-10h-1v-6h1Zm0-10h-1v-6h1Zm0-10h-1v-6h1Zm0-10h-1v-6h1Zm0-10h-1v-6h1Zm0-10h-1v-6h1Zm0-10h-1v-6h1Zm0-10h-1v-6h1Zm0-10h-1v-6h1Zm0-10h-1v-6h1Zm0-10h-1v-6h1Zm0-10h-1v-6h1Zm0-10h-1v-6h1Zm0-10h-1v-6h1Zm0-10h-1v-6h1Zm0-10h-1v-6h1Zm0-10h-1V90h1Zm0-10h-1V80h1Zm0-10h-1V70h1Zm0-10h-1V60h1Zm0-10h-1V50h1Zm0-10h-1V40h1Zm0-10h-1V30h1Zm0-10h-1V20h1Zm0-10h-1V10h1Zm0-10h-1V0h1Z"/><path class="cls-3" d="M462.5,672h-1v-2h1Zm0-6h-1v-6h1Zm0-10h-1v-6h1Zm0-10h-1v-6h1Zm0-10h-1v-6h1Zm0-10h-1v-6h1Zm0-10h-1v-6h1Zm0-10h-1v-6h1Zm0-10h-1v-6h1Zm0-10h-1v-6h1Zm0-10h-1v-6h1Zm0-10h-1v-6h1Zm0-10h-1v-6h1Zm0-10h-1v-6h1Zm0-10h-1v-6h1Zm0-10h-1v-6h1Zm0-10h-1v-6h1Zm0-10h-1v-6h1Zm0-10h-1v-6h1Zm0-10h-1v-6h1Zm0-10h-1v-6h1Zm0-10h-1v-6h1Zm0-10h-1v-6h1Zm0-10h-1v-6h1Zm0-10h-1v-6h1Zm0-10h-1v-6h1Zm0-10h-1v-6h1Zm0-10h-1v-6h1Zm0-10h-1v-6h1Zm0-10h-1v-6h1Zm0-10h-1v-6h1Zm0-10h-1v-6h1Zm0-10h-1v-6h1Zm0-10h-1v-6h1Zm0-10h-1v-6h1Zm0-10h-1v-6h1Zm0-10h-1v-6h1Zm0-10h-1v-6h1Zm0-10h-1v-6h1Zm0-10h-1v-6h1Zm0-10h-1v-6h1Zm0-10h-1v-6h1Zm0-10h-1v-6h1Zm0-10h-1v-6h1Zm0-10h-1v-6h1Zm0-10h-1v-6h1Zm0-10h-1v-6h1Zm0-10h-1v-6h1Zm0-10h-1v-6h1Zm0-10h-1v-6h1Zm0-10h-1v-6h1Zm0-10h-1v-6h1Zm0-10h-1v-6h1Zm0-10h-1v-6h1Zm0-10h-1v-6h1Zm0-10h-1v-6h1Zm0-10h-1v-6h1Zm0-10h-1v-6h1Zm0-10h-1V90h1Zm0-10h-1V80h1Zm0-10h-1V70h1Zm0-10h-1V60h1Zm0-10h-1V50h1Zm0-10h-1V40h1Zm0-10h-1V30h1Zm0-10h-1V20h1Zm0-10h-1V10h1Zm0-10h-1V0h1Z"/><path class="cls-3" d="M486.51,672h-1v-2h1Zm0-6h-1v-6h1Zm0-10h-1v-6h1Zm0-10h-1v-6h1Zm0-10h-1v-6h1Zm0-10h-1v-6h1Zm0-10h-1v-6h1Zm0-10h-1v-6h1Zm0-10h-1v-6h1Zm0-10h-1v-6h1Zm0-10h-1v-6h1Zm0-10h-1v-6h1Zm0-10h-1v-6h1Zm0-10h-1v-6h1Zm0-10h-1v-6h1Zm0-10h-1v-6h1Zm0-10h-1v-6h1Zm0-10h-1v-6h1Zm0-10h-1v-6h1Zm0-10h-1v-6h1Zm0-10h-1v-6h1Zm0-10h-1v-6h1Zm0-10h-1v-6h1Zm0-10h-1v-6h1Zm0-10h-1v-6h1Zm0-10h-1v-6h1Zm0-10h-1v-6h1Zm0-10h-1v-6h1Zm0-10h-1v-6h1Zm0-10h-1v-6h1Zm0-10h-1v-6h1Zm0-10h-1v-6h1Zm0-10h-1v-6h1Zm0-10h-1v-6h1Zm0-10h-1v-6h1Zm0-10h-1v-6h1Zm0-10h-1v-6h1Zm0-10h-1v-6h1Zm0-10h-1v-6h1Zm0-10h-1v-6h1Zm0-10h-1v-6h1Zm0-10h-1v-6h1Zm0-10h-1v-6h1Zm0-10h-1v-6h1Zm0-10h-1v-6h1Zm0-10h-1v-6h1Zm0-10h-1v-6h1Zm0-10h-1v-6h1Zm0-10h-1v-6h1Zm0-10h-1v-6h1Zm0-10h-1v-6h1Zm0-10h-1v-6h1Zm0-10h-1v-6h1Zm0-10h-1v-6h1Zm0-10h-1v-6h1Zm0-10h-1v-6h1Zm0-10h-1v-6h1Zm0-10h-1v-6h1Zm0-10h-1V90h1Zm0-10h-1V80h1Zm0-10h-1V70h1Zm0-10h-1V60h1Zm0-10h-1V50h1Zm0-10h-1V40h1Zm0-10h-1V30h1Zm0-10h-1V20h1Zm0-10h-1V10h1Zm0-10h-1V0h1Z"/><path class="cls-3" d="M528.58,672h-1v-2h1Zm0-6h-1v-6h1Zm0-10h-1v-6h1Zm0-10h-1v-6h1Zm0-10h-1v-6h1Zm0-10h-1v-6h1Zm0-10h-1v-6h1Zm0-10h-1v-6h1Zm0-10h-1v-6h1Zm0-10h-1v-6h1Zm0-10h-1v-6h1Zm0-10h-1v-6h1Zm0-10h-1v-6h1Zm0-10h-1v-6h1Zm0-10h-1v-6h1Zm0-10h-1v-6h1Zm0-10h-1v-6h1Zm0-10h-1v-6h1Zm0-10h-1v-6h1Zm0-10h-1v-6h1Zm0-10h-1v-6h1Zm0-10h-1v-6h1Zm0-10h-1v-6h1Zm0-10h-1v-6h1Zm0-10h-1v-6h1Zm0-10h-1v-6h1Zm0-10h-1v-6h1Zm0-10h-1v-6h1Zm0-10h-1v-6h1Zm0-10h-1v-6h1Zm0-10h-1v-6h1Zm0-10h-1v-6h1Zm0-10h-1v-6h1Zm0-10h-1v-6h1Zm0-10h-1v-6h1Zm0-10h-1v-6h1Zm0-10h-1v-6h1Zm0-10h-1v-6h1Zm0-10h-1v-6h1Zm0-10h-1v-6h1Zm0-10h-1v-6h1Zm0-10h-1v-6h1Zm0-10h-1v-6h1Zm0-10h-1v-6h1Zm0-10h-1v-6h1Zm0-10h-1v-6h1Zm0-10h-1v-6h1Zm0-10h-1v-6h1Zm0-10h-1v-6h1Zm0-10h-1v-6h1Zm0-10h-1v-6h1Zm0-10h-1v-6h1Zm0-10h-1v-6h1Zm0-10h-1v-6h1Zm0-10h-1v-6h1Zm0-10h-1v-6h1Zm0-10h-1v-6h1Zm0-10h-1v-6h1Zm0-10h-1V90h1Zm0-10h-1V80h1Zm0-10h-1V70h1Zm0-10h-1V60h1Zm0-10h-1V50h1Zm0-10h-1V40h1Zm0-10h-1V30h1Zm0-10h-1V20h1Zm0-10h-1V10h1Zm0-10h-1V0h1Z"/><path class="cls-3" d="M552.56,672h-1v-2h1Zm0-6h-1v-6h1Zm0-10h-1v-6h1Zm0-10h-1v-6h1Zm0-10h-1v-6h1Zm0-10h-1v-6h1Zm0-10h-1v-6h1Zm0-10h-1v-6h1Zm0-10h-1v-6h1Zm0-10h-1v-6h1Zm0-10h-1v-6h1Zm0-10h-1v-6h1Zm0-10h-1v-6h1Zm0-10h-1v-6h1Zm0-10h-1v-6h1Zm0-10h-1v-6h1Zm0-10h-1v-6h1Zm0-10h-1v-6h1Zm0-10h-1v-6h1Zm0-10h-1v-6h1Zm0-10h-1v-6h1Zm0-10h-1v-6h1Zm0-10h-1v-6h1Zm0-10h-1v-6h1Zm0-10h-1v-6h1Zm0-10h-1v-6h1Zm0-10h-1v-6h1Zm0-10h-1v-6h1Zm0-10h-1v-6h1Zm0-10h-1v-6h1Zm0-10h-1v-6h1Zm0-10h-1v-6h1Zm0-10h-1v-6h1Zm0-10h-1v-6h1Zm0-10h-1v-6h1Zm0-10h-1v-6h1Zm0-10h-1v-6h1Zm0-10h-1v-6h1Zm0-10h-1v-6h1Zm0-10h-1v-6h1Zm0-10h-1v-6h1Zm0-10h-1v-6h1Zm0-10h-1v-6h1Zm0-10h-1v-6h1Zm0-10h-1v-6h1Zm0-10h-1v-6h1Zm0-10h-1v-6h1Zm0-10h-1v-6h1Zm0-10h-1v-6h1Zm0-10h-1v-6h1Zm0-10h-1v-6h1Zm0-10h-1v-6h1Zm0-10h-1v-6h1Zm0-10h-1v-6h1Zm0-10h-1v-6h1Zm0-10h-1v-6h1Zm0-10h-1v-6h1Zm0-10h-1v-6h1Zm0-10h-1V90h1Zm0-10h-1V80h1Zm0-10h-1V70h1Zm0-10h-1V60h1Zm0-10h-1V50h1Zm0-10h-1V40h1Zm0-10h-1V30h1Zm0-10h-1V20h1Zm0-10h-1V10h1Zm0-10h-1V0h1Z"/><path class="cls-3" d="M618.5,672h-1v-2h1Zm0-6h-1v-6h1Zm0-10h-1v-6h1Zm0-10h-1v-6h1Zm0-10h-1v-6h1Zm0-10h-1v-6h1Zm0-10h-1v-6h1Zm0-10h-1v-6h1Zm0-10h-1v-6h1Zm0-10h-1v-6h1Zm0-10h-1v-6h1Zm0-10h-1v-6h1Zm0-10h-1v-6h1Zm0-10h-1v-6h1Zm0-10h-1v-6h1Zm0-10h-1v-6h1Zm0-10h-1v-6h1Zm0-10h-1v-6h1Zm0-10h-1v-6h1Zm0-10h-1v-6h1Zm0-10h-1v-6h1Zm0-10h-1v-6h1Zm0-10h-1v-6h1Zm0-10h-1v-6h1Zm0-10h-1v-6h1Zm0-10h-1v-6h1Zm0-10h-1v-6h1Zm0-10h-1v-6h1Zm0-10h-1v-6h1Zm0-10h-1v-6h1Zm0-10h-1v-6h1Zm0-10h-1v-6h1Zm0-10h-1v-6h1Zm0-10h-1v-6h1Zm0-10h-1v-6h1Zm0-10h-1v-6h1Zm0-10h-1v-6h1Zm0-10h-1v-6h1Zm0-10h-1v-6h1Zm0-10h-1v-6h1Zm0-10h-1v-6h1Zm0-10h-1v-6h1Zm0-10h-1v-6h1Zm0-10h-1v-6h1Zm0-10h-1v-6h1Zm0-10h-1v-6h1Zm0-10h-1v-6h1Zm0-10h-1v-6h1Zm0-10h-1v-6h1Zm0-10h-1v-6h1Zm0-10h-1v-6h1Zm0-10h-1v-6h1Zm0-10h-1v-6h1Zm0-10h-1v-6h1Zm0-10h-1v-6h1Zm0-10h-1v-6h1Zm0-10h-1v-6h1Zm0-10h-1v-6h1Zm0-10h-1V90h1Zm0-10h-1V80h1Zm0-10h-1V70h1Zm0-10h-1V60h1Zm0-10h-1V50h1Zm0-10h-1V40h1Zm0-10h-1V30h1Zm0-10h-1V20h1Zm0-10h-1V10h1Zm0-10h-1V0h1Z"/><path class="cls-3" d="M738.5,672h-1v-2h1Zm0-6h-1v-6h1Zm0-10h-1v-6h1Zm0-10h-1v-6h1Zm0-10h-1v-6h1Zm0-10h-1v-6h1Zm0-10h-1v-6h1Zm0-10h-1v-6h1Zm0-10h-1v-6h1Zm0-10h-1v-6h1Zm0-10h-1v-6h1Zm0-10h-1v-6h1Zm0-10h-1v-6h1Zm0-10h-1v-6h1Zm0-10h-1v-6h1Zm0-10h-1v-6h1Zm0-10h-1v-6h1Zm0-10h-1v-6h1Zm0-10h-1v-6h1Zm0-10h-1v-6h1Zm0-10h-1v-6h1Zm0-10h-1v-6h1Zm0-10h-1v-6h1Zm0-10h-1v-6h1Zm0-10h-1v-6h1Zm0-10h-1v-6h1Zm0-10h-1v-6h1Zm0-10h-1v-6h1Zm0-10h-1v-6h1Zm0-10h-1v-6h1Zm0-10h-1v-6h1Zm0-10h-1v-6h1Zm0-10h-1v-6h1Zm0-10h-1v-6h1Zm0-10h-1v-6h1Zm0-10h-1v-6h1Zm0-10h-1v-6h1Zm0-10h-1v-6h1Zm0-10h-1v-6h1Zm0-10h-1v-6h1Zm0-10h-1v-6h1Zm0-10h-1v-6h1Zm0-10h-1v-6h1Zm0-10h-1v-6h1Zm0-10h-1v-6h1Zm0-10h-1v-6h1Zm0-10h-1v-6h1Zm0-10h-1v-6h1Zm0-10h-1v-6h1Zm0-10h-1v-6h1Zm0-10h-1v-6h1Zm0-10h-1v-6h1Zm0-10h-1v-6h1Zm0-10h-1v-6h1Zm0-10h-1v-6h1Zm0-10h-1v-6h1Zm0-10h-1v-6h1Zm0-10h-1v-6h1Zm0-10h-1V90h1Zm0-10h-1V80h1Zm0-10h-1V70h1Zm0-10h-1V60h1Zm0-10h-1V50h1Zm0-10h-1V40h1Zm0-10h-1V30h1Zm0-10h-1V20h1Zm0-10h-1V10h1Zm0-10h-1V0h1Z"/><path class="cls-3" d="M816.5,672h-1v-2h1Zm0-6h-1v-6h1Zm0-10h-1v-6h1Zm0-10h-1v-6h1Zm0-10h-1v-6h1Zm0-10h-1v-6h1Zm0-10h-1v-6h1Zm0-10h-1v-6h1Zm0-10h-1v-6h1Zm0-10h-1v-6h1Zm0-10h-1v-6h1Zm0-10h-1v-6h1Zm0-10h-1v-6h1Zm0-10h-1v-6h1Zm0-10h-1v-6h1Zm0-10h-1v-6h1Zm0-10h-1v-6h1Zm0-10h-1v-6h1Zm0-10h-1v-6h1Zm0-10h-1v-6h1Zm0-10h-1v-6h1Zm0-10h-1v-6h1Zm0-10h-1v-6h1Zm0-10h-1v-6h1Zm0-10h-1v-6h1Zm0-10h-1v-6h1Zm0-10h-1v-6h1Zm0-10h-1v-6h1Zm0-10h-1v-6h1Zm0-10h-1v-6h1Zm0-10h-1v-6h1Zm0-10h-1v-6h1Zm0-10h-1v-6h1Zm0-10h-1v-6h1Zm0-10h-1v-6h1Zm0-10h-1v-6h1Zm0-10h-1v-6h1Zm0-10h-1v-6h1Zm0-10h-1v-6h1Zm0-10h-1v-6h1Zm0-10h-1v-6h1Zm0-10h-1v-6h1Zm0-10h-1v-6h1Zm0-10h-1v-6h1Zm0-10h-1v-6h1Zm0-10h-1v-6h1Zm0-10h-1v-6h1Zm0-10h-1v-6h1Zm0-10h-1v-6h1Zm0-10h-1v-6h1Zm0-10h-1v-6h1Zm0-10h-1v-6h1Zm0-10h-1v-6h1Zm0-10h-1v-6h1Zm0-10h-1v-6h1Zm0-10h-1v-6h1Zm0-10h-1v-6h1Zm0-10h-1v-6h1Zm0-10h-1V90h1Zm0-10h-1V80h1Zm0-10h-1V70h1Zm0-10h-1V60h1Zm0-10h-1V50h1Zm0-10h-1V40h1Zm0-10h-1V30h1Zm0-10h-1V20h1Zm0-10h-1V10h1Zm0-10h-1V0h1Z"/><path class="cls-3" d="M834.5,672h-1v-2h1Zm0-6h-1v-6h1Zm0-10h-1v-6h1Zm0-10h-1v-6h1Zm0-10h-1v-6h1Zm0-10h-1v-6h1Zm0-10h-1v-6h1Zm0-10h-1v-6h1Zm0-10h-1v-6h1Zm0-10h-1v-6h1Zm0-10h-1v-6h1Zm0-10h-1v-6h1Zm0-10h-1v-6h1Zm0-10h-1v-6h1Zm0-10h-1v-6h1Zm0-10h-1v-6h1Zm0-10h-1v-6h1Zm0-10h-1v-6h1Zm0-10h-1v-6h1Zm0-10h-1v-6h1Zm0-10h-1v-6h1Zm0-10h-1v-6h1Zm0-10h-1v-6h1Zm0-10h-1v-6h1Zm0-10h-1v-6h1Zm0-10h-1v-6h1Zm0-10h-1v-6h1Zm0-10h-1v-6h1Zm0-10h-1v-6h1Zm0-10h-1v-6h1Zm0-10h-1v-6h1Zm0-10h-1v-6h1Zm0-10h-1v-6h1Zm0-10h-1v-6h1Zm0-10h-1v-6h1Zm0-10h-1v-6h1Zm0-10h-1v-6h1Zm0-10h-1v-6h1Zm0-10h-1v-6h1Zm0-10h-1v-6h1Zm0-10h-1v-6h1Zm0-10h-1v-6h1Zm0-10h-1v-6h1Zm0-10h-1v-6h1Zm0-10h-1v-6h1Zm0-10h-1v-6h1Zm0-10h-1v-6h1Zm0-10h-1v-6h1Zm0-10h-1v-6h1Zm0-10h-1v-6h1Zm0-10h-1v-6h1Zm0-10h-1v-6h1Zm0-10h-1v-6h1Zm0-10h-1v-6h1Zm0-10h-1v-6h1Zm0-10h-1v-6h1Zm0-10h-1v-6h1Zm0-10h-1v-6h1Zm0-10h-1V90h1Zm0-10h-1V80h1Zm0-10h-1V70h1Zm0-10h-1V60h1Zm0-10h-1V50h1Zm0-10h-1V40h1Zm0-10h-1V30h1Zm0-10h-1V20h1Zm0-10h-1V10h1Zm0-10h-1V0h1Z"/><path class="cls-3" d="M858.52,672h-1v-2h1Zm0-6h-1v-6h1Zm0-10h-1v-6h1Zm0-10h-1v-6h1Zm0-10h-1v-6h1Zm0-10h-1v-6h1Zm0-10h-1v-6h1Zm0-10h-1v-6h1Zm0-10h-1v-6h1Zm0-10h-1v-6h1Zm0-10h-1v-6h1Zm0-10h-1v-6h1Zm0-10h-1v-6h1Zm0-10h-1v-6h1Zm0-10h-1v-6h1Zm0-10h-1v-6h1Zm0-10h-1v-6h1Zm0-10h-1v-6h1Zm0-10h-1v-6h1Zm0-10h-1v-6h1Zm0-10h-1v-6h1Zm0-10h-1v-6h1Zm0-10h-1v-6h1Zm0-10h-1v-6h1Zm0-10h-1v-6h1Zm0-10h-1v-6h1Zm0-10h-1v-6h1Zm0-10h-1v-6h1Zm0-10h-1v-6h1Zm0-10h-1v-6h1Zm0-10h-1v-6h1Zm0-10h-1v-6h1Zm0-10h-1v-6h1Zm0-10h-1v-6h1Zm0-10h-1v-6h1Zm0-10h-1v-6h1Zm0-10h-1v-6h1Zm0-10h-1v-6h1Zm0-10h-1v-6h1Zm0-10h-1v-6h1Zm0-10h-1v-6h1Zm0-10h-1v-6h1Zm0-10h-1v-6h1Zm0-10h-1v-6h1Zm0-10h-1v-6h1Zm0-10h-1v-6h1Zm0-10h-1v-6h1Zm0-10h-1v-6h1Zm0-10h-1v-6h1Zm0-10h-1v-6h1Zm0-10h-1v-6h1Zm0-10h-1v-6h1Zm0-10h-1v-6h1Zm0-10h-1v-6h1Zm0-10h-1v-6h1Zm0-10h-1v-6h1Zm0-10h-1v-6h1Zm0-10h-1v-6h1Zm0-10h-1V90h1Zm0-10h-1V80h1Zm0-10h-1V70h1Zm0-10h-1V60h1Zm0-10h-1V50h1Zm0-10h-1V40h1Zm0-10h-1V30h1Zm0-10h-1V20h1Zm0-10h-1V10h1Zm0-10h-1V0h1Z"/><path class="cls-3" d="M792.5,672h-1v-2h1Zm0-6h-1v-6h1Zm0-10h-1v-6h1Zm0-10h-1v-6h1Zm0-10h-1v-6h1Zm0-10h-1v-6h1Zm0-10h-1v-6h1Zm0-10h-1v-6h1Zm0-10h-1v-6h1Zm0-10h-1v-6h1Zm0-10h-1v-6h1Zm0-10h-1v-6h1Zm0-10h-1v-6h1Zm0-10h-1v-6h1Zm0-10h-1v-6h1Zm0-10h-1v-6h1Zm0-10h-1v-6h1Zm0-10h-1v-6h1Zm0-10h-1v-6h1Zm0-10h-1v-6h1Zm0-10h-1v-6h1Zm0-10h-1v-6h1Zm0-10h-1v-6h1Zm0-10h-1v-6h1Zm0-10h-1v-6h1Zm0-10h-1v-6h1Zm0-10h-1v-6h1Zm0-10h-1v-6h1Zm0-10h-1v-6h1Zm0-10h-1v-6h1Zm0-10h-1v-6h1Zm0-10h-1v-6h1Zm0-10h-1v-6h1Zm0-10h-1v-6h1Zm0-10h-1v-6h1Zm0-10h-1v-6h1Zm0-10h-1v-6h1Zm0-10h-1v-6h1Zm0-10h-1v-6h1Zm0-10h-1v-6h1Zm0-10h-1v-6h1Zm0-10h-1v-6h1Zm0-10h-1v-6h1Zm0-10h-1v-6h1Zm0-10h-1v-6h1Zm0-10h-1v-6h1Zm0-10h-1v-6h1Zm0-10h-1v-6h1Zm0-10h-1v-6h1Zm0-10h-1v-6h1Zm0-10h-1v-6h1Zm0-10h-1v-6h1Zm0-10h-1v-6h1Zm0-10h-1v-6h1Zm0-10h-1v-6h1Zm0-10h-1v-6h1Zm0-10h-1v-6h1Zm0-10h-1v-6h1Zm0-10h-1V90h1Zm0-10h-1V80h1Zm0-10h-1V70h1Zm0-10h-1V60h1Zm0-10h-1V50h1Zm0-10h-1V40h1Zm0-10h-1V30h1Zm0-10h-1V20h1Zm0-10h-1V10h1Zm0-10h-1V0h1Z"/><path class="cls-3" d="M714.5,672h-1v-2h1Zm0-6h-1v-6h1Zm0-10h-1v-6h1Zm0-10h-1v-6h1Zm0-10h-1v-6h1Zm0-10h-1v-6h1Zm0-10h-1v-6h1Zm0-10h-1v-6h1Zm0-10h-1v-6h1Zm0-10h-1v-6h1Zm0-10h-1v-6h1Zm0-10h-1v-6h1Zm0-10h-1v-6h1Zm0-10h-1v-6h1Zm0-10h-1v-6h1Zm0-10h-1v-6h1Zm0-10h-1v-6h1Zm0-10h-1v-6h1Zm0-10h-1v-6h1Zm0-10h-1v-6h1Zm0-10h-1v-6h1Zm0-10h-1v-6h1Zm0-10h-1v-6h1Zm0-10h-1v-6h1Zm0-10h-1v-6h1Zm0-10h-1v-6h1Zm0-10h-1v-6h1Zm0-10h-1v-6h1Zm0-10h-1v-6h1Zm0-10h-1v-6h1Zm0-10h-1v-6h1Zm0-10h-1v-6h1Zm0-10h-1v-6h1Zm0-10h-1v-6h1Zm0-10h-1v-6h1Zm0-10h-1v-6h1Zm0-10h-1v-6h1Zm0-10h-1v-6h1Zm0-10h-1v-6h1Zm0-10h-1v-6h1Zm0-10h-1v-6h1Zm0-10h-1v-6h1Zm0-10h-1v-6h1Zm0-10h-1v-6h1Zm0-10h-1v-6h1Zm0-10h-1v-6h1Zm0-10h-1v-6h1Zm0-10h-1v-6h1Zm0-10h-1v-6h1Zm0-10h-1v-6h1Zm0-10h-1v-6h1Zm0-10h-1v-6h1Zm0-10h-1v-6h1Zm0-10h-1v-6h1Zm0-10h-1v-6h1Zm0-10h-1v-6h1Zm0-10h-1v-6h1Zm0-10h-1v-6h1Zm0-10h-1V90h1Zm0-10h-1V80h1Zm0-10h-1V70h1Zm0-10h-1V60h1Zm0-10h-1V50h1Zm0-10h-1V40h1Zm0-10h-1V30h1Zm0-10h-1V20h1Zm0-10h-1V10h1Zm0-10h-1V0h1Z"/><path class="cls-3" d="M594.52,672h-1v-2h1Zm0-6h-1v-6h1Zm0-10h-1v-6h1Zm0-10h-1v-6h1Zm0-10h-1v-6h1Zm0-10h-1v-6h1Zm0-10h-1v-6h1Zm0-10h-1v-6h1Zm0-10h-1v-6h1Zm0-10h-1v-6h1Zm0-10h-1v-6h1Zm0-10h-1v-6h1Zm0-10h-1v-6h1Zm0-10h-1v-6h1Zm0-10h-1v-6h1Zm0-10h-1v-6h1Zm0-10h-1v-6h1Zm0-10h-1v-6h1Zm0-10h-1v-6h1Zm0-10h-1v-6h1Zm0-10h-1v-6h1Zm0-10h-1v-6h1Zm0-10h-1v-6h1Zm0-10h-1v-6h1Zm0-10h-1v-6h1Zm0-10h-1v-6h1Zm0-10h-1v-6h1Zm0-10h-1v-6h1Zm0-10h-1v-6h1Zm0-10h-1v-6h1Zm0-10h-1v-6h1Zm0-10h-1v-6h1Zm0-10h-1v-6h1Zm0-10h-1v-6h1Zm0-10h-1v-6h1Zm0-10h-1v-6h1Zm0-10h-1v-6h1Zm0-10h-1v-6h1Zm0-10h-1v-6h1Zm0-10h-1v-6h1Zm0-10h-1v-6h1Zm0-10h-1v-6h1Zm0-10h-1v-6h1Zm0-10h-1v-6h1Zm0-10h-1v-6h1Zm0-10h-1v-6h1Zm0-10h-1v-6h1Zm0-10h-1v-6h1Zm0-10h-1v-6h1Zm0-10h-1v-6h1Zm0-10h-1v-6h1Zm0-10h-1v-6h1Zm0-10h-1v-6h1Zm0-10h-1v-6h1Zm0-10h-1v-6h1Zm0-10h-1v-6h1Zm0-10h-1v-6h1Zm0-10h-1v-6h1Zm0-10h-1V90h1Zm0-10h-1V80h1Zm0-10h-1V70h1Zm0-10h-1V60h1Zm0-10h-1V50h1Zm0-10h-1V40h1Zm0-10h-1V30h1Zm0-10h-1V20h1Zm0-10h-1V10h1Zm0-10h-1V0h1Z"/><rect class="cls-3" y="251.5" width="1080" height="1"/><path class="cls-3" d="M1076,288.5h-6v-1h6Zm-10,0h-6v-1h6Zm-10,0h-6v-1h6Zm-10,0h-6v-1h6Zm-10,0h-6v-1h6Zm-10,0h-6v-1h6Zm-10,0h-6v-1h6Zm-10,0h-6v-1h6Zm-10,0h-6v-1h6Zm-10,0h-6v-1h6Zm-10,0h-6v-1h6Zm-10,0h-6v-1h6Zm-10,0h-6v-1h6Zm-10,0h-6v-1h6Zm-10,0h-6v-1h6Zm-10,0h-6v-1h6Zm-10,0h-6v-1h6Zm-10,0h-6v-1h6Zm-10,0h-6v-1h6Zm-10,0h-6v-1h6Zm-10,0h-6v-1h6Zm-10,0h-6v-1h6Zm-10,0h-6v-1h6Zm-10,0h-6v-1h6Zm-10,0h-6v-1h6Zm-10,0h-6v-1h6Zm-10,0h-6v-1h6Zm-10,0h-6v-1h6Zm-10,0h-6v-1h6Zm-10,0h-6v-1h6Zm-10,0h-6v-1h6Zm-10,0h-6v-1h6Zm-10,0h-6v-1h6Zm-10,0h-6v-1h6Zm-10,0h-6v-1h6Zm-10,0h-6v-1h6Zm-10,0h-6v-1h6Zm-10,0h-6v-1h6Zm-10,0h-6v-1h6Zm-10,0h-6v-1h6Zm-10,0h-6v-1h6Zm-10,0h-6v-1h6Zm-10,0h-6v-1h6Zm-10,0h-6v-1h6Zm-10,0h-6v-1h6Zm-10,0h-6v-1h6Zm-10,0h-6v-1h6Zm-10,0h-6v-1h6Zm-10,0h-6v-1h6Zm-10,0h-6v-1h6Zm-10,0h-6v-1h6Zm-10,0h-6v-1h6Zm-10,0h-6v-1h6Zm-10,0h-6v-1h6Zm-10,0h-6v-1h6Zm-10,0h-6v-1h6Zm-10,0h-6v-1h6Zm-10,0h-6v-1h6Zm-10,0h-6v-1h6Zm-10,0h-6v-1h6Zm-10,0h-6v-1h6Zm-10,0h-6v-1h6Zm-10,0h-6v-1h6Zm-10,0h-6v-1h6Zm-10,0h-6v-1h6Zm-10,0h-6v-1h6Zm-10,0h-6v-1h6Zm-10,0h-6v-1h6Zm-10,0h-6v-1h6Zm-10,0h-6v-1h6Zm-10,0h-6v-1h6Zm-10,0h-6v-1h6Zm-10,0h-6v-1h6Zm-10,0h-6v-1h6Zm-10,0h-6v-1h6Zm-10,0h-6v-1h6Zm-10,0h-6v-1h6Zm-10,0h-6v-1h6Zm-10,0h-6v-1h6Zm-10,0h-6v-1h6Zm-10,0h-6v-1h6Zm-10,0h-6v-1h6Zm-10,0h-6v-1h6Zm-10,0h-6v-1h6Zm-10,0h-6v-1h6Zm-10,0h-6v-1h6Zm-10,0h-6v-1h6Zm-10,0h-6v-1h6Zm-10,0h-6v-1h6Zm-10,0h-6v-1h6Zm-10,0h-6v-1h6Zm-10,0h-6v-1h6Zm-10,0h-6v-1h6Zm-10,0h-6v-1h6Zm-10,0h-6v-1h6Zm-10,0h-6v-1h6Zm-10,0h-6v-1h6Zm-10,0h-6v-1h6Zm-10,0H90v-1h6Zm-10,0H80v-1h6Zm-10,0H70v-1h6Zm-10,0H60v-1h6Zm-10,0H50v-1h6Zm-10,0H40v-1h6Zm-10,0H30v-1h6Zm-10,0H20v-1h6Zm-10,0H10v-1h6Zm-10,0H0v-1H6Z"/><rect class="cls-3" y="383.5" width="1080" height="1"/><rect class="cls-3" x="887.61" width="0.79" height="672"/></g></svg>