<svg xmlns="http://www.w3.org/2000/svg" viewBox="0 0 1080 672"><g id="Layer_1" data-name="Layer 1"><path d="M420,297.15a51,51,0,1,0,0,77.7V384h24V288H420ZM390,366a30,30,0,1,1,30-30A30,30,0,0,1,390,366Z"/><path d="M714,297.15a51,51,0,1,0,0,77.7V384h24V288H714ZM684,366a30,30,0,1,1,30-30A30,30,0,0,1,684,366Z"/><path d="M273,285a50.81,50.81,0,0,0-33,12.15V252H216V384h24v-9.15A51,51,0,1,0,273,285Zm-3,81a30,30,0,1,1,30-30A30,30,0,0,1,270,366Z"/><path d="M579,285a38.93,38.93,0,0,0-33,18.28,38.91,38.91,0,0,0-60-7.38V288H462v96h24V327a21,21,0,0,1,42,0v57h24V327a21,21,0,0,1,42,0v57h24V324A39,39,0,0,0,579,285Z"/><rect x="792" y="288" width="24" height="96"/><path d="M885,285a33,33,0,0,0-27,14.06V288H834v96h24V324a18,18,0,0,1,18-18h12V285Z"/><circle cx="804" cy="261" r="15"/><circle cx="765" cy="369" r="15"/></g></svg>