<svg xmlns="http://www.w3.org/2000/svg" viewBox="0 0 672 672"><defs><style>.cls-1{fill:#caff83;}.cls-2{fill:#fff;}</style></defs><g id="Layer_1" data-name="Layer 1"><circle class="cls-1" cx="336" cy="532" r="40"/><circle class="cls-1" cx="336" cy="612" r="40"/><path class="cls-2" d="M296,612a40,40,0,0,0,80,0Z"/><circle class="cls-1" cx="336" cy="452" r="40"/><circle class="cls-1" cx="336" cy="180" r="40"/><circle class="cls-1" cx="336" cy="100" r="40"/><rect class="cls-2" x="440" y="332" width="80" height="80"/><rect class="cls-2" x="152" y="220" width="80" height="192"/><rect class="cls-2" x="344" y="220" width="80" height="192"/><circle class="cls-2" cx="288" cy="372" r="40"/><circle class="cls-2" cx="480" cy="468" r="40"/><path class="cls-2" d="M612,220.5h-2v-1h2Zm-6,0h-6v-1h6Zm-10,0h-6v-1h6Zm-10,0h-6v-1h6Zm-10,0h-6v-1h6Zm-10,0h-6v-1h6Zm-10,0h-6v-1h6Zm-10,0h-6v-1h6Zm-10,0h-6v-1h6Zm-10,0h-6v-1h6Zm-10,0h-6v-1h6Zm-10,0h-6v-1h6Zm-10,0h-6v-1h6Zm-10,0h-6v-1h6Zm-10,0h-6v-1h6Zm-10,0h-6v-1h6Zm-10,0h-6v-1h6Zm-10,0h-6v-1h6Zm-10,0h-6v-1h6Zm-10,0h-6v-1h6Zm-10,0h-6v-1h6Zm-10,0h-6v-1h6Zm-10,0h-6v-1h6Zm-10,0h-6v-1h6Zm-10,0h-6v-1h6Zm-10,0h-6v-1h6Zm-10,0h-6v-1h6Zm-10,0h-6v-1h6Zm-10,0h-6v-1h6Zm-10,0h-6v-1h6Zm-10,0h-6v-1h6Zm-10,0h-6v-1h6Zm-10,0h-6v-1h6Zm-10,0h-6v-1h6Zm-10,0h-6v-1h6Zm-10,0h-6v-1h6Zm-10,0h-6v-1h6Zm-10,0h-6v-1h6Zm-10,0h-6v-1h6Zm-10,0h-6v-1h6Zm-10,0h-6v-1h6Zm-10,0h-6v-1h6Zm-10,0h-6v-1h6Zm-10,0h-6v-1h6Zm-10,0h-6v-1h6Zm-10,0h-6v-1h6Zm-10,0h-6v-1h6Zm-10,0h-6v-1h6Zm-10,0h-6v-1h6Zm-10,0h-6v-1h6Zm-10,0h-6v-1h6Zm-10,0h-6v-1h6Zm-10,0H90v-1h6Zm-10,0H80v-1h6Zm-10,0H70v-1h6Zm-10,0H60v-1h6Z"/><path class="cls-2" d="M612,412.5h-2v-1h2Zm-6,0h-6v-1h6Zm-10,0h-6v-1h6Zm-10,0h-6v-1h6Zm-10,0h-6v-1h6Zm-10,0h-6v-1h6Zm-10,0h-6v-1h6Zm-10,0h-6v-1h6Zm-10,0h-6v-1h6Zm-10,0h-6v-1h6Zm-10,0h-6v-1h6Zm-10,0h-6v-1h6Zm-10,0h-6v-1h6Zm-10,0h-6v-1h6Zm-10,0h-6v-1h6Zm-10,0h-6v-1h6Zm-10,0h-6v-1h6Zm-10,0h-6v-1h6Zm-10,0h-6v-1h6Zm-10,0h-6v-1h6Zm-10,0h-6v-1h6Zm-10,0h-6v-1h6Zm-10,0h-6v-1h6Zm-10,0h-6v-1h6Zm-10,0h-6v-1h6Zm-10,0h-6v-1h6Zm-10,0h-6v-1h6Zm-10,0h-6v-1h6Zm-10,0h-6v-1h6Zm-10,0h-6v-1h6Zm-10,0h-6v-1h6Zm-10,0h-6v-1h6Zm-10,0h-6v-1h6Zm-10,0h-6v-1h6Zm-10,0h-6v-1h6Zm-10,0h-6v-1h6Zm-10,0h-6v-1h6Zm-10,0h-6v-1h6Zm-10,0h-6v-1h6Zm-10,0h-6v-1h6Zm-10,0h-6v-1h6Zm-10,0h-6v-1h6Zm-10,0h-6v-1h6Zm-10,0h-6v-1h6Zm-10,0h-6v-1h6Zm-10,0h-6v-1h6Zm-10,0h-6v-1h6Zm-10,0h-6v-1h6Zm-10,0h-6v-1h6Zm-10,0h-6v-1h6Zm-10,0h-6v-1h6Zm-10,0h-6v-1h6Zm-10,0H90v-1h6Zm-10,0H80v-1h6Zm-10,0H70v-1h6Zm-10,0H60v-1h6Z"/><path class="cls-2" d="M336,612.5c-73.55,0-142.9-28.84-195.28-81.22S59.5,409.55,59.5,336s28.84-142.9,81.22-195.28S262.45,59.5,336,59.5s142.9,28.85,195.28,81.22S612.5,262.45,612.5,336s-28.84,142.9-81.22,195.28S409.55,612.5,336,612.5Zm0-552c-73.28,0-142.38,28.74-194.57,80.93S60.5,262.72,60.5,336s28.74,142.38,80.93,194.57S262.72,611.5,336,611.5s142.38-28.74,194.57-80.93S611.5,409.28,611.5,336s-28.74-142.38-80.93-194.57S409.28,60.5,336,60.5Z"/><path class="cls-2" d="M430.15,612.5H241.85A182.9,182.9,0,0,1,59.5,430.15V241.85A182.9,182.9,0,0,1,241.85,59.5h188.3A182.9,182.9,0,0,1,612.5,241.85v188.3A182.9,182.9,0,0,1,430.15,612.5Zm-188.3-552A181.88,181.88,0,0,0,60.5,241.85v188.3A181.88,181.88,0,0,0,241.85,611.5h188.3A181.88,181.88,0,0,0,611.5,430.15V241.85A181.88,181.88,0,0,0,430.15,60.5Z"/><path class="cls-2" d="M535.51,612.5h-399a77.08,77.08,0,0,1-77-77v-399a77.08,77.08,0,0,1,77-77h399a77.08,77.08,0,0,1,77,77v399A77.08,77.08,0,0,1,535.51,612.5Zm-399-552a76.08,76.08,0,0,0-76,76v399a76.08,76.08,0,0,0,76,76h399a76.08,76.08,0,0,0,76-76v-399a76.08,76.08,0,0,0-76-76Z"/><path class="cls-2" d="M612.5,612.5H59.5V59.5h553Zm-552-1h551V60.5H60.5Z"/></g></svg>