<svg xmlns="http://www.w3.org/2000/svg" viewBox="0 0 1080 672"><defs><style>.cls-1{fill:#7de065;}.cls-2{fill:#fff;}.cls-3,.cls-4,.cls-5{fill:none;stroke:#aeff94;stroke-miterlimit:10;}.cls-4{stroke-width:0.79px;}.cls-5{stroke-dasharray:6 4;}</style></defs><g id="Layer_3" data-name="Layer 3"><rect class="cls-1" width="1080" height="672"/></g><g id="Layer_1" data-name="Layer 1"><rect class="cls-2" x="648" y="328" width="80" height="80"/><rect class="cls-2" x="360" y="216" width="80" height="192"/><rect class="cls-2" x="552" y="216" width="80" height="192"/><circle class="cls-2" cx="496" cy="368" r="40"/><circle class="cls-2" cx="688" cy="464" r="40"/><path class="cls-2" d="M428,475.05a17,17,0,1,0,0,25.9V504h8V472h-8ZM418,498a10,10,0,1,1,10-10A10,10,0,0,1,418,498Z"/><path class="cls-2" d="M526,475.05a17,17,0,1,0,0,25.9V504h8V472h-8ZM516,498a10,10,0,1,1,10-10A10,10,0,0,1,516,498Z"/><path class="cls-2" d="M379,471a16.92,16.92,0,0,0-11,4.05V460h-8v44h8V501A17,17,0,1,0,379,471Zm-1,27a10,10,0,1,1,10-10A10,10,0,0,1,378,498Z"/><path class="cls-2" d="M481,471a13,13,0,0,0-11,6.09,13,13,0,0,0-20-2.46V472h-8v32h8V485a7,7,0,0,1,14,0v19h8V485a7,7,0,0,1,14,0v19h8V484A13,13,0,0,0,481,471Z"/><rect class="cls-2" x="552.01" y="472" width="8" height="32"/><path class="cls-2" d="M583,471a11,11,0,0,0-9,4.69V472h-8v32h8V484a6,6,0,0,1,6-6h4v-7Z"/><circle class="cls-2" cx="556.01" cy="463" r="5"/><circle class="cls-2" cx="543.01" cy="499" r="5"/><line class="cls-3" y1="216" x2="1080" y2="216"/><line class="cls-4" x1="360" x2="360" y2="672"/><line class="cls-4" x1="728" x2="728" y2="672"/><line class="cls-5" y1="408" x2="1080" y2="408"/><line class="cls-5" y1="472" x2="1080" y2="472"/><line class="cls-5" y1="440" x2="1080" y2="440"/><line class="cls-5" x1="552" y1="672" x2="552"/><line class="cls-3" y1="504" x2="1080" y2="504"/></g></svg>