<svg xmlns="http://www.w3.org/2000/svg" viewBox="0 0 672 672"><defs><style>.cls-1{fill:#8fe044;}</style></defs><g id="Layer_3" data-name="Layer 3"><rect class="cls-1" width="672" height="672"/></g><g id="Layer_1" data-name="Layer 1"><path d="M103.66,379.44a18.77,18.77,0,0,1-8,7.65q-5.5,3-14.1,3H69v28.2H57.56v-69.5h24a30.36,30.36,0,0,1,13.55,2.75,19.1,19.1,0,0,1,8.3,7.45,20.42,20.42,0,0,1,2.75,10.5A21,21,0,0,1,103.66,379.44Zm-12.4-1.65q3.19-3,3.2-8.35,0-11.4-12.9-11.4H69v22.7h12.6Q88.06,380.74,91.26,377.79Z"/><path d="M135.11,364.59a19.62,19.62,0,0,1,9.85-2.35V374h-2.9q-6.7,0-10.15,3.4t-3.45,11.8v29h-11.4v-55.1h11.4v8A17.86,17.86,0,0,1,135.11,364.59Z"/><path d="M156.06,353.74a7.3,7.3,0,0,1,5.2-12.5,6.94,6.94,0,0,1,5.1,2.1,7.49,7.49,0,0,1,0,10.4,6.94,6.94,0,0,1-5.1,2.1A7.06,7.06,0,0,1,156.06,353.74Zm10.8,9.4v55.1h-11.4v-55.1Z"/><path d="M181.51,375.69a24.5,24.5,0,0,1,9.55-9.95,27.63,27.63,0,0,1,14-3.5q10,0,16.55,4.75a23.45,23.45,0,0,1,8.85,13.55h-12.3a13,13,0,0,0-4.8-6.4,14.21,14.21,0,0,0-8.3-2.3,13.79,13.79,0,0,0-11.15,5q-4.16,4.95-4.15,13.85t4.15,13.9a13.74,13.74,0,0,0,11.15,5q9.9,0,13.1-8.7h12.3a24.62,24.62,0,0,1-9,13.35q-6.6,4.95-16.4,4.95a27.26,27.26,0,0,1-14-3.55,24.88,24.88,0,0,1-9.55-10,34.12,34.12,0,0,1,0-29.9Z"/><path d="M292,394.94h-42.1a15.25,15.25,0,0,0,4.9,10.6,15.44,15.44,0,0,0,10.8,4q9.19,0,13-7.7h12.3a24.85,24.85,0,0,1-9.05,12.45q-6.56,4.84-16.25,4.85a28.08,28.08,0,0,1-14.15-3.55,25.21,25.21,0,0,1-9.8-10,30.46,30.46,0,0,1-3.55-14.95,31.21,31.21,0,0,1,3.45-14.95,24.22,24.22,0,0,1,9.7-9.95,28.89,28.89,0,0,1,14.35-3.5,28,28,0,0,1,13.9,3.4,24.11,24.11,0,0,1,9.5,9.55,28.84,28.84,0,0,1,3.4,14.15A36.46,36.46,0,0,1,292,394.94Zm-11.5-9.2a13,13,0,0,0-4.5-10.1,16.12,16.12,0,0,0-10.9-3.8,14.63,14.63,0,0,0-10.1,3.75,15.65,15.65,0,0,0-5,10.15Z"/><path d="M339.35,415.59a25.52,25.52,0,0,1-9.9-10,30.16,30.16,0,0,1-3.6-14.95,29.65,29.65,0,0,1,3.7-14.9,25.62,25.62,0,0,1,10.1-10,31,31,0,0,1,28.6,0,25.49,25.49,0,0,1,10.1,10,29.54,29.54,0,0,1,3.7,14.9,28.9,28.9,0,0,1-3.8,14.9,26.31,26.31,0,0,1-10.35,10,29.77,29.77,0,0,1-14.45,3.55A28.18,28.18,0,0,1,339.35,415.59Zm22.35-8.45a16,16,0,0,0,6.25-6.3,20.25,20.25,0,0,0,2.4-10.2,20.61,20.61,0,0,0-2.3-10.15,15.44,15.44,0,0,0-6.1-6.25,16.65,16.65,0,0,0-8.2-2.1,16.41,16.41,0,0,0-8.15,2.1,15,15,0,0,0-6,6.25,21.54,21.54,0,0,0-2.2,10.15q0,8.89,4.55,13.75a15.06,15.06,0,0,0,11.45,4.85A16.93,16.93,0,0,0,361.7,407.14Z"/><path d="M416.45,372.44h-10.2v45.8h-11.5v-45.8h-6.5v-9.3h6.5v-3.9q0-9.5,5.05-13.85T415.65,341v9.5c-3.46,0-5.9.65-7.3,1.95s-2.1,3.55-2.1,6.75v3.9h10.2Z"/><path d="M79.36,490.74l25.4,27.5H89.36L69,494.54v23.7H57.56v-74H69v43l20-24.1h15.8Z"/><path d="M113.56,453.74a7.3,7.3,0,0,1,5.2-12.5,6.94,6.94,0,0,1,5.1,2.1,7.49,7.49,0,0,1,0,10.4,6.94,6.94,0,0,1-5.1,2.1A7.06,7.06,0,0,1,113.56,453.74Zm10.8,9.4v55.1H113v-55.1Z"/><path d="M150.76,444.24v74h-11.4v-74Z"/><path d="M175.56,515.59a25.52,25.52,0,0,1-9.9-10,30.16,30.16,0,0,1-3.6-14.95,29.54,29.54,0,0,1,3.7-14.9,25.49,25.49,0,0,1,10.1-10,31,31,0,0,1,28.6,0,25.62,25.62,0,0,1,10.1,10,29.65,29.65,0,0,1,3.7,14.9,29,29,0,0,1-3.8,14.9,26.45,26.45,0,0,1-10.35,10.05,29.82,29.82,0,0,1-14.45,3.55A28.18,28.18,0,0,1,175.56,515.59Zm22.35-8.45a16,16,0,0,0,6.25-6.3,20.25,20.25,0,0,0,2.4-10.2,20.72,20.72,0,0,0-2.3-10.15,15.57,15.57,0,0,0-6.1-6.25,16.71,16.71,0,0,0-8.2-2.1,16.39,16.39,0,0,0-8.15,2.1,14.93,14.93,0,0,0-5.95,6.25,21.42,21.42,0,0,0-2.2,10.15q0,8.89,4.55,13.75a15,15,0,0,0,11.45,4.85A17,17,0,0,0,197.91,507.14Z"/><path d="M307.91,464.94a19.56,19.56,0,0,1,8.1,8,26,26,0,0,1,2.95,12.8v32.5h-11.3v-30.8q0-7.4-3.7-11.35t-10.1-3.95q-6.41,0-10.15,3.95T280,487.44v30.8h-11.3v-30.8q0-7.4-3.7-11.35t-10.1-3.95q-6.41,0-10.15,3.95T241,487.44v30.8h-11.4v-55.1H241v6.3a18.87,18.87,0,0,1,7.1-5.3,22.42,22.42,0,0,1,9.2-1.9,24.46,24.46,0,0,1,11.8,2.8,19.23,19.23,0,0,1,8,8.1,18.44,18.44,0,0,1,7.8-7.95,23,23,0,0,1,11.4-2.95A24.74,24.74,0,0,1,307.91,464.94Z"/><path d="M383.55,494.94h-42.1a15.2,15.2,0,0,0,15.7,14.6q9.21,0,13-7.7h12.3a24.73,24.73,0,0,1-9.05,12.45q-6.54,4.85-16.25,4.85A28.13,28.13,0,0,1,343,515.59a25.35,25.35,0,0,1-9.8-10,30.57,30.57,0,0,1-3.55-14.95,31.21,31.21,0,0,1,3.45-14.95,24.28,24.28,0,0,1,9.7-9.95,28.91,28.91,0,0,1,14.35-3.5,28,28,0,0,1,13.9,3.4,24,24,0,0,1,9.5,9.55,28.73,28.73,0,0,1,3.4,14.15A35.24,35.24,0,0,1,383.55,494.94Zm-11.5-9.2a12.93,12.93,0,0,0-4.5-10.1,16.09,16.09,0,0,0-10.9-3.8,14.65,14.65,0,0,0-10.1,3.75,15.69,15.69,0,0,0-5,10.15Z"/><path d="M408.45,472.44v30.5c0,2.07.49,3.55,1.45,4.45s2.62,1.35,5,1.35h7v9.5h-9q-7.69,0-11.8-3.6t-4.1-11.7v-30.5h-6.5v-9.3H397v-13.7h11.5v13.7h13.4v9.3Z"/><path d="M482.45,494.94h-42.1a15.2,15.2,0,0,0,15.7,14.6q9.21,0,13-7.7h12.3a24.73,24.73,0,0,1-9.05,12.45q-6.54,4.85-16.25,4.85a28.13,28.13,0,0,1-14.15-3.55,25.35,25.35,0,0,1-9.8-10,30.57,30.57,0,0,1-3.55-14.95A31.21,31.21,0,0,1,432,475.69a24.28,24.28,0,0,1,9.7-9.95,28.91,28.91,0,0,1,14.35-3.5,28,28,0,0,1,13.9,3.4,24,24,0,0,1,9.5,9.55,28.73,28.73,0,0,1,3.4,14.15A35.24,35.24,0,0,1,482.45,494.94Zm-11.5-9.2a12.93,12.93,0,0,0-4.5-10.1,16.09,16.09,0,0,0-10.9-3.8,14.65,14.65,0,0,0-10.1,3.75,15.69,15.69,0,0,0-5,10.15Z"/><path d="M512.1,464.59a19.64,19.64,0,0,1,9.85-2.35V474h-2.9q-6.7,0-10.15,3.4t-3.45,11.8v29h-11.4v-55.1h11.4v8A17.93,17.93,0,0,1,512.1,464.59Z"/><path d="M67.66,608.94h25v9.3H54.46v-9.3l25.1-36.5H54.46v-9.3h38.2v9.3Z"/><path d="M154.76,594.94h-42.1a15.25,15.25,0,0,0,4.9,10.6,15.44,15.44,0,0,0,10.8,4q9.19,0,13-7.7h12.3a24.85,24.85,0,0,1-9,12.45q-6.56,4.85-16.25,4.85a28.11,28.11,0,0,1-14.15-3.55,25.21,25.21,0,0,1-9.8-10,30.46,30.46,0,0,1-3.55-15,31.21,31.21,0,0,1,3.45-14.95,24.22,24.22,0,0,1,9.7-10,28.89,28.89,0,0,1,14.35-3.5,28,28,0,0,1,13.9,3.4,24,24,0,0,1,9.5,9.55,28.84,28.84,0,0,1,3.4,14.15A36.46,36.46,0,0,1,154.76,594.94Zm-11.5-9.2a13,13,0,0,0-4.5-10.1,16.11,16.11,0,0,0-10.9-3.8,14.63,14.63,0,0,0-10.1,3.75,15.65,15.65,0,0,0-5,10.15Z"/><path d="M184.41,564.59a19.62,19.62,0,0,1,9.85-2.35V574h-2.9q-6.71,0-10.15,3.4t-3.45,11.8v29h-11.4v-55.1h11.4v8A17.86,17.86,0,0,1,184.41,564.59Z"/><path d="M214.56,615.59a25.52,25.52,0,0,1-9.9-10,30.16,30.16,0,0,1-3.6-15,29.54,29.54,0,0,1,3.7-14.9,25.49,25.49,0,0,1,10.1-10,31,31,0,0,1,28.6,0,25.62,25.62,0,0,1,10.1,10,29.65,29.65,0,0,1,3.7,14.9,29,29,0,0,1-3.8,14.9,26.45,26.45,0,0,1-10.35,10.05,29.82,29.82,0,0,1-14.45,3.55A28.18,28.18,0,0,1,214.56,615.59Zm22.35-8.45a16,16,0,0,0,6.25-6.3,20.25,20.25,0,0,0,2.4-10.2,20.72,20.72,0,0,0-2.3-10.15,15.57,15.57,0,0,0-6.1-6.25,16.71,16.71,0,0,0-8.2-2.1,16.39,16.39,0,0,0-8.15,2.1,14.93,14.93,0,0,0-5.95,6.25,21.42,21.42,0,0,0-2.2,10.15q0,8.9,4.55,13.75a15,15,0,0,0,11.45,4.85A17,17,0,0,0,236.91,607.14Z"/><path d="M294.21,575.69a24.47,24.47,0,0,1,9.54-10,27.69,27.69,0,0,1,14-3.5q10,0,16.55,4.75a23.35,23.35,0,0,1,8.85,13.55h-12.3a13,13,0,0,0-4.8-6.4,14.19,14.19,0,0,0-8.3-2.3,13.82,13.82,0,0,0-11.15,4.95q-4.14,5-4.14,13.85t4.14,13.9a13.77,13.77,0,0,0,11.15,5q9.9,0,13.1-8.7h12.3a24.62,24.62,0,0,1-9,13.35q-6.6,4.95-16.4,4.95a27.31,27.31,0,0,1-14-3.55,24.86,24.86,0,0,1-9.54-10,34,34,0,0,1,0-29.9Z"/><path d="M354.2,575.74a25.14,25.14,0,0,1,22.55-13.5,24,24,0,0,1,11.35,2.55,23,23,0,0,1,7.75,6.35v-8h11.5v55.1h-11.5V610a22.51,22.51,0,0,1-7.9,6.5,25.57,25.57,0,0,1-24.4-1,25.86,25.86,0,0,1-9.35-10.2,31.4,31.4,0,0,1-3.45-14.85A30.51,30.51,0,0,1,354.2,575.74Zm39.3,5a16.43,16.43,0,0,0-6.15-6.4,16,16,0,0,0-8.2-2.2,16.44,16.44,0,0,0-8.2,2.15,16.21,16.21,0,0,0-6.15,6.3,19.75,19.75,0,0,0-2.35,9.85,20.61,20.61,0,0,0,2.35,10A16.63,16.63,0,0,0,371,607a16.13,16.13,0,0,0,16.35,0,16.37,16.37,0,0,0,6.15-6.45,20.19,20.19,0,0,0,2.35-10A19.92,19.92,0,0,0,393.5,580.74Z"/><path d="M440.4,564.59a19.64,19.64,0,0,1,9.85-2.35V574h-2.9q-6.69,0-10.15,3.4t-3.45,11.8v29h-11.4v-55.1h11.4v8A18,18,0,0,1,440.4,564.59Z"/><path d="M65.4,64.14a7.54,7.54,0,0,1-5.31,1.65H55.86v8.94h-2.1v-21h6.33a7.56,7.56,0,0,1,5.3,1.65,6.25,6.25,0,0,1,0,8.73ZM65,59.79a4.12,4.12,0,0,0-1.17-3.18,5.42,5.42,0,0,0-3.75-1.08H55.86V64h4.23Q65,64,65,59.79Z"/><path d="M73.7,73.93A7.26,7.26,0,0,1,70.79,71a9,9,0,0,1-1.07-4.46,8.86,8.86,0,0,1,1.08-4.45,7.55,7.55,0,0,1,2.94-2.94,8.43,8.43,0,0,1,4.17-1,8.56,8.56,0,0,1,4.19,1A7.49,7.49,0,0,1,85,62.09a9.07,9.07,0,0,1,1.06,4.45A8.9,8.9,0,0,1,85,71a7.4,7.4,0,0,1-3,3,8.6,8.6,0,0,1-4.2,1A8.33,8.33,0,0,1,73.7,73.93Zm7.15-1.53a5.41,5.41,0,0,0,2.23-2.22,7.08,7.08,0,0,0,.86-3.64,7.26,7.26,0,0,0-.84-3.64,5.45,5.45,0,0,0-2.22-2.22,6.45,6.45,0,0,0-6,0,5.35,5.35,0,0,0-2.2,2.22,8.4,8.4,0,0,0,0,7.28,5.27,5.27,0,0,0,2.19,2.22,6,6,0,0,0,3,.74A6.17,6.17,0,0,0,80.85,72.4Z"/><path d="M94.48,59.21a7.29,7.29,0,0,1,4-1.1,7.82,7.82,0,0,1,4,1,7.2,7.2,0,0,1,2.79,2.94,9.33,9.33,0,0,1,1,4.42,9.44,9.44,0,0,1-1,4.44,7.28,7.28,0,0,1-2.79,3,7.73,7.73,0,0,1-4,1,7.21,7.21,0,0,1-4-1.1A6.53,6.53,0,0,1,92,71.13V82.47H89.94V58.35H92V62A6.6,6.6,0,0,1,94.48,59.21ZM103.4,63a5.62,5.62,0,0,0-2.18-2.27,6.23,6.23,0,0,0-3.12-.78,6.06,6.06,0,0,0-3.08.81,5.84,5.84,0,0,0-2.2,2.31,7.88,7.88,0,0,0,0,7A5.84,5.84,0,0,0,95,72.33a6.37,6.37,0,0,0,6.2,0A5.54,5.54,0,0,0,103.4,70a7.55,7.55,0,0,0,.79-3.52A7.44,7.44,0,0,0,103.4,63Z"/><path d="M114.73,59.21a7.29,7.29,0,0,1,4-1.1,7.82,7.82,0,0,1,4,1,7.2,7.2,0,0,1,2.79,2.94,9.33,9.33,0,0,1,1,4.42,9.44,9.44,0,0,1-1,4.44,7.28,7.28,0,0,1-2.79,3,7.73,7.73,0,0,1-4,1,7.21,7.21,0,0,1-4-1.1,6.53,6.53,0,0,1-2.49-2.74V82.47h-2.07V58.35h2.07V62A6.6,6.6,0,0,1,114.73,59.21ZM123.64,63a5.53,5.53,0,0,0-2.17-2.27,6.23,6.23,0,0,0-3.12-.78,6,6,0,0,0-3.08.81,5.77,5.77,0,0,0-2.2,2.31,7.88,7.88,0,0,0,0,7,5.77,5.77,0,0,0,2.2,2.31,6.37,6.37,0,0,0,6.2,0A5.46,5.46,0,0,0,123.64,70a7.43,7.43,0,0,0,.8-3.52A7.32,7.32,0,0,0,123.64,63Z"/><path d="M130.41,54.81A1.51,1.51,0,0,1,130,53.7a1.49,1.49,0,0,1,.45-1.1,1.57,1.57,0,0,1,2.16,0,1.49,1.49,0,0,1,.45,1.1,1.51,1.51,0,0,1-.45,1.11,1.52,1.52,0,0,1-2.16,0Zm2.13,3.54V74.73h-2.1V58.35Z"/><path d="M149.79,59.87a7,7,0,0,1,1.86,5.26v9.6h-2.07V65.37a5.71,5.71,0,0,0-1.34-4.08,4.77,4.77,0,0,0-3.64-1.41,4.94,4.94,0,0,0-3.78,1.5,6.21,6.21,0,0,0-1.41,4.41v8.94h-2.1V58.35h2.1v2.79a5.43,5.43,0,0,1,2.25-2.3,7,7,0,0,1,3.33-.79A6.59,6.59,0,0,1,149.79,59.87Z"/><path d="M157.33,73.66a4.74,4.74,0,0,1-2-3.55h2.16a3.06,3.06,0,0,0,1.3,2.23,5.12,5.12,0,0,0,3.11.86,4.06,4.06,0,0,0,2.68-.81,2.52,2.52,0,0,0,1-2A1.87,1.87,0,0,0,165,69a3.71,3.71,0,0,0-1.37-.85,18.88,18.88,0,0,0-2.23-.68,22.73,22.73,0,0,1-3-1,5.17,5.17,0,0,1-1.94-1.42,3.82,3.82,0,0,1-.79-2.54,3.77,3.77,0,0,1,.72-2.22,4.91,4.91,0,0,1,2-1.62,7.17,7.17,0,0,1,3-.6,6.54,6.54,0,0,1,4.26,1.33,4.87,4.87,0,0,1,1.74,3.68h-2.1a3.22,3.22,0,0,0-1.13-2.33,4.26,4.26,0,0,0-2.83-.88,4.16,4.16,0,0,0-2.58.75,2.26,2.26,0,0,0-1,1.86,2.16,2.16,0,0,0,.58,1.57,3.94,3.94,0,0,0,1.46,1c.58.23,1.36.48,2.34.76a22.1,22.1,0,0,1,2.82.93,4.89,4.89,0,0,1,1.8,1.32,3.53,3.53,0,0,1,.78,2.31,4.06,4.06,0,0,1-.72,2.36,4.89,4.89,0,0,1-2,1.63,7,7,0,0,1-3,.6A7.63,7.63,0,0,1,157.33,73.66Z"/><path d="M200.31,54v20.7h-2.1V58.2l-7.38,16.53H189.3l-7.38-16.47V74.73h-2.1V54H182l8,17.94,8-17.94Z"/><path d="M219.84,67.35H206.25a6.59,6.59,0,0,0,.9,3.18,5.38,5.38,0,0,0,2.13,2,6.36,6.36,0,0,0,2.88.67,5.77,5.77,0,0,0,3.43-1,4.66,4.66,0,0,0,1.85-2.67h2.22a7,7,0,0,1-2.57,3.92A7.83,7.83,0,0,1,212.16,75a8.26,8.26,0,0,1-4.14-1A7.23,7.23,0,0,1,205.15,71a9.21,9.21,0,0,1-1-4.46,9.39,9.39,0,0,1,1-4.47A7.09,7.09,0,0,1,208,59.13a8.42,8.42,0,0,1,4.17-1,8,8,0,0,1,4.09,1,7.1,7.1,0,0,1,2.7,2.74,7.88,7.88,0,0,1,1,3.83Q219.9,66.78,219.84,67.35ZM217,62.52a5,5,0,0,0-2.08-2,6.35,6.35,0,0,0-2.88-.66,5.72,5.72,0,0,0-4,1.5,6,6,0,0,0-1.83,4.23h11.52A5.82,5.82,0,0,0,217,62.52Z"/><path d="M223.8,62.09a7.29,7.29,0,0,1,2.8-2.94,7.92,7.92,0,0,1,4-1,7.4,7.4,0,0,1,3.9,1,6.42,6.42,0,0,1,2.55,2.73V52.53h2.1v22.2h-2.1V71.07a6.25,6.25,0,0,1-2.46,2.8,7.21,7.21,0,0,1-4,1.1,7.83,7.83,0,0,1-4-1,7.28,7.28,0,0,1-2.79-3,9.44,9.44,0,0,1-1-4.44A9.21,9.21,0,0,1,223.8,62.09Zm12.48,1a5.79,5.79,0,0,0-2.21-2.31,6,6,0,0,0-3.07-.81,6.23,6.23,0,0,0-3.12.78A5.55,5.55,0,0,0,225.7,63a7.32,7.32,0,0,0-.79,3.52A7.43,7.43,0,0,0,225.7,70a5.48,5.48,0,0,0,2.18,2.31,6.35,6.35,0,0,0,6.19,0A5.79,5.79,0,0,0,236.28,70a7.88,7.88,0,0,0,0-7Z"/><path d="M244,54.81a1.51,1.51,0,0,1-.45-1.11,1.49,1.49,0,0,1,.45-1.1,1.57,1.57,0,0,1,2.16,0,1.49,1.49,0,0,1,.45,1.1,1.51,1.51,0,0,1-.45,1.11,1.52,1.52,0,0,1-2.16,0Zm2.13,3.54V74.73H244V58.35Z"/><path d="M265.05,58.35V74.73H263V71.85a5,5,0,0,1-2.22,2.34,7,7,0,0,1-3.36.81,6.55,6.55,0,0,1-4.8-1.82,7,7,0,0,1-1.86-5.26V58.35h2.07v9.33a5.71,5.71,0,0,0,1.33,4.08,4.79,4.79,0,0,0,3.65,1.41,4.94,4.94,0,0,0,3.78-1.5A6.21,6.21,0,0,0,263,67.26V58.35Z"/><path d="M294,59.87a7.12,7.12,0,0,1,1.82,5.26v9.6h-2.07V65.37a5.84,5.84,0,0,0-1.29-4.08A4.52,4.52,0,0,0,289,59.88a4.73,4.73,0,0,0-3.69,1.53,6.42,6.42,0,0,0-1.38,4.44v8.88h-2.07V65.37a5.84,5.84,0,0,0-1.29-4.08A4.56,4.56,0,0,0,277,59.88a4.73,4.73,0,0,0-3.69,1.53A6.42,6.42,0,0,0,272,65.85v8.88h-2.1V58.35H272v2.82a5.44,5.44,0,0,1,2.22-2.33,6.64,6.64,0,0,1,3.21-.79,6.8,6.8,0,0,1,3.73,1,5.76,5.76,0,0,1,2.33,3,5.52,5.52,0,0,1,2.26-3,6.6,6.6,0,0,1,3.65-1A6.34,6.34,0,0,1,294,59.87Z"/></g></svg>