<svg xmlns="http://www.w3.org/2000/svg" viewBox="0 0 672 672"><g id="Layer_1" data-name="Layer 1"><path d="M70.27,314.65a17.3,17.3,0,0,1,8.19-1.89,18.34,18.34,0,0,1,9.71,2.65A18.61,18.61,0,0,1,95,322.92a24.24,24.24,0,0,1,2.53,11.29A24.65,24.65,0,0,1,95,345.57a19.13,19.13,0,0,1-6.87,7.67A18,18,0,0,1,78.46,356a17.36,17.36,0,0,1-8.19-1.85,15.93,15.93,0,0,1-5.62-4.8v6H54.07V299.4H64.65v20.16A15.16,15.16,0,0,1,70.27,314.65Zm15,13a10.62,10.62,0,0,0-4.08-4.19,10.86,10.86,0,0,0-5.47-1.44,10.59,10.59,0,0,0-5.4,1.47,11,11,0,0,0-4.08,4.27,14.78,14.78,0,0,0,0,13.14,11,11,0,0,0,4.08,4.27,10.59,10.59,0,0,0,5.4,1.47,10.44,10.44,0,0,0,5.47-1.51,11.16,11.16,0,0,0,4.08-4.31,13.49,13.49,0,0,0,1.55-6.64A13.14,13.14,0,0,0,85.22,327.68Z"/><path d="M149.63,323a18.59,18.59,0,0,1,6.87-7.55,18.33,18.33,0,0,1,9.7-2.65,17.06,17.06,0,0,1,8.2,1.89,16.67,16.67,0,0,1,5.62,4.76v-6h10.65v41.84H180v-6.12A15.72,15.72,0,0,1,174.4,354a17.26,17.26,0,0,1-8.27,1.93,17.8,17.8,0,0,1-9.63-2.72,19.13,19.13,0,0,1-6.87-7.67,24.53,24.53,0,0,1-2.53-11.36A24.15,24.15,0,0,1,149.63,323Zm28.88,4.79a10.73,10.73,0,0,0-4.08-4.23,10.88,10.88,0,0,0-5.51-1.47,10.64,10.64,0,0,0-9.47,5.63,13,13,0,0,0-1.55,6.53,13.48,13.48,0,0,0,1.55,6.61,11.23,11.23,0,0,0,4.07,4.34,10.35,10.35,0,0,0,5.4,1.51,10.88,10.88,0,0,0,5.51-1.47,10.73,10.73,0,0,0,4.08-4.23,15.22,15.22,0,0,0,0-13.22Z"/><path d="M309.93,317.56q4.72,4.72,4.72,13.18v24.54H304.08V332.17c0-3.27-.83-5.78-2.49-7.51a9,9,0,0,0-6.8-2.61,9.09,9.09,0,0,0-6.83,2.61c-1.69,1.73-2.53,4.24-2.53,7.51v23.11H274.86V332.17c0-3.27-.83-5.78-2.49-7.51a9,9,0,0,0-6.8-2.61,9.18,9.18,0,0,0-6.91,2.61c-1.68,1.73-2.53,4.24-2.53,7.51v23.11H245.56V313.44h10.57v5.06a14.12,14.12,0,0,1,5.25-4.15,16.35,16.35,0,0,1,7.06-1.51,18.11,18.11,0,0,1,8.76,2.08,14.55,14.55,0,0,1,6,5.92,15.18,15.18,0,0,1,5.92-5.81,16.9,16.9,0,0,1,8.42-2.19Q305.22,312.84,309.93,317.56Z"/><path d="M369.06,323a18.15,18.15,0,0,1,16.57-10.2,17,17,0,0,1,8.19,1.89,16.71,16.71,0,0,1,5.63,4.76v-6H410.1v41.84H399.45v-6.12a15.75,15.75,0,0,1-5.63,4.87,17.22,17.22,0,0,1-8.26,1.93,17.78,17.78,0,0,1-9.63-2.72,19,19,0,0,1-6.87-7.67,24.53,24.53,0,0,1-2.53-11.36A24.15,24.15,0,0,1,369.06,323Zm28.88,4.79a10.79,10.79,0,0,0-4.08-4.23,10.91,10.91,0,0,0-5.51-1.47,10.64,10.64,0,0,0-9.48,5.63,13.14,13.14,0,0,0-1.55,6.53,13.59,13.59,0,0,0,1.55,6.61,11.18,11.18,0,0,0,4.08,4.34,10.35,10.35,0,0,0,5.4,1.51,10.91,10.91,0,0,0,5.51-1.47,10.79,10.79,0,0,0,4.08-4.23,15.22,15.22,0,0,0,0-13.22Z"/><path d="M465,354a6.19,6.19,0,0,1,0-8.83,6.52,6.52,0,0,1,4.72-1.78,6.3,6.3,0,0,1,4.61,1.78,6.29,6.29,0,0,1,0,8.83,6.34,6.34,0,0,1-4.61,1.77A6.55,6.55,0,0,1,465,354Z"/><path d="M529.89,306.69a6.21,6.21,0,0,1,0-8.84,7,7,0,0,1,9.29,0,6.21,6.21,0,0,1,0,8.84,7,7,0,0,1-9.29,0Zm9.85,6.75v41.84H529.17V313.44Z"/><path d="M610.61,314.73a14.78,14.78,0,0,1,7.51-1.89v11.1h-2.79c-3.33,0-5.83.78-7.52,2.34s-2.53,4.28-2.53,8.16v20.84H594.71V313.44h10.57v6.5A14.86,14.86,0,0,1,610.61,314.73Z"/></g></svg>