<svg xmlns="http://www.w3.org/2000/svg" viewBox="0 0 1080 672"><defs><style>.cls-1{fill:#8fe044;}</style></defs><g id="Layer_3" data-name="Layer 3"><rect width="1080" height="672"/></g><g id="Layer_1" data-name="Layer 1"><path class="cls-1" d="M111.22,151.33H82.6l-5.49,14.94H70.45l23-62.1h7.11l22.86,62.1h-6.66Zm-1.89-5.22-12.42-34-12.42,34Z"/><path class="cls-1" d="M171.88,139.18a15.51,15.51,0,0,1,3.69,10.26,15.9,15.9,0,0,1-2.39,8.59,16.24,16.24,0,0,1-7,6,25.15,25.15,0,0,1-11,2.21H133.45V103.36H154.6q9.54,0,14.53,4.41a14.54,14.54,0,0,1,5,11.43,14,14,0,0,1-3.15,9.49,16.55,16.55,0,0,1-8.1,5.09A15.09,15.09,0,0,1,171.88,139.18Zm-32.13-8h14.67q6.39,0,9.85-3a10.45,10.45,0,0,0,3.47-8.32,10.22,10.22,0,0,0-3.47-8.19q-3.47-3-10.12-3h-14.4Zm25.69,26.55a11.06,11.06,0,0,0,3.83-8.91,11.24,11.24,0,0,0-4-9.05q-4-3.37-10.75-3.37H139.75V161h15Q161.62,161,165.44,157.72Z"/><path class="cls-1" d="M188.35,118.16a29.4,29.4,0,0,1,11.07-11.43,30.5,30.5,0,0,1,15.66-4.09q10.53,0,18,5a28.4,28.4,0,0,1,10.94,14.09h-7.38a21.65,21.65,0,0,0-8.24-10,24,24,0,0,0-13.36-3.6,24.23,24.23,0,0,0-12.47,3.24,22.48,22.48,0,0,0-8.68,9.31,33,33,0,0,0,0,28.13,22.56,22.56,0,0,0,8.68,9.27,26.24,26.24,0,0,0,25.83-.32,21.44,21.44,0,0,0,8.24-9.85h7.38a28.08,28.08,0,0,1-11,14,32.12,32.12,0,0,1-18,4.95,30.51,30.51,0,0,1-15.66-4.1,29.47,29.47,0,0,1-11.07-11.38,36,36,0,0,1,0-33.17Z"/><path class="cls-1" d="M293.11,107.14A26.39,26.39,0,0,1,304.54,118a34.25,34.25,0,0,1,4,16.92,33.78,33.78,0,0,1-4,16.78,26.2,26.2,0,0,1-11.43,10.8q-7.47,3.74-17.91,3.74H256.57V103.36H275.2Q285.64,103.36,293.11,107.14Zm2.11,47q6.88-6.89,6.89-19.21t-6.89-19.4q-6.89-7-20-7H262.87v52.47H275.2Q288.34,161.05,295.22,154.16Z"/><path class="cls-1" d="M326.41,108.49V132h23.85v5.22H326.41v23.85H353v5.22H320.11v-63H353v5.22Z"/><path class="cls-1" d="M399.4,103.36v5.22H371.68v23.49h23.4v5.22h-23.4v29h-6.3V103.36Z"/><path class="cls-1" d="M459.25,121.72A21.54,21.54,0,0,0,451,112a23.55,23.55,0,0,0-13-3.55,24.59,24.59,0,0,0-12.59,3.24,23.15,23.15,0,0,0-8.83,9.22,31.57,31.57,0,0,0,0,27.86,23.09,23.09,0,0,0,8.83,9.27,26.09,26.09,0,0,0,24.43.4,21.92,21.92,0,0,0,8.46-8.1A26.69,26.69,0,0,0,462,138H435.49v-5.13H468.6v4.59a31.84,31.84,0,0,1-4.5,15A29.49,29.49,0,0,1,453.26,163,30.29,30.29,0,0,1,438,166.9a31.1,31.1,0,0,1-15.83-4.1A29.47,29.47,0,0,1,411,151.37a35.75,35.75,0,0,1,0-33.21,29.47,29.47,0,0,1,11.21-11.43,33.05,33.05,0,0,1,33.47,1,28.57,28.57,0,0,1,11,14Z"/><path class="cls-1" d="M526.83,103.36v62.91h-6.29V136.84H486.42v29.43h-6.3V103.36h6.3v28.26h34.12V103.36Z"/><path class="cls-1" d="M547.53,103.36v62.91h-6.3V103.36Z"/><path class="cls-1" d="M590.91,103.36V151q0,7.2-4.41,11.56t-11.79,4.37q-7.65,0-12.19-4.64T558,149.71h6.39a13.83,13.83,0,0,0,2.57,8.37q2.48,3.24,7.78,3.24,5,0,7.47-3a11.27,11.27,0,0,0,2.43-7.38V103.36Z"/><path class="cls-1" d="M640.32,166.27,613.05,137.2v29.07h-6.3V103.36h6.3v29.43l27.27-29.43h8L618.9,134.77l29.7,31.5Z"/><path class="cls-1" d="M664.17,161.14h22.59v5.13H657.87V103.36h6.3Z"/><path class="cls-1" d="M757.23,104.17v62.1h-6.3V116.68l-22.14,49.59H724.2l-22.14-49.41v49.41h-6.3v-62.1h6.66l24,53.82,24-53.82Z"/><path class="cls-1" d="M819,166.27h-6.3l-34.83-52.92v52.92h-6.3V103.36h6.3l34.83,52.83V103.36H819Z"/><path class="cls-1" d="M845.7,162.8a29.54,29.54,0,0,1-11.21-11.43,35.75,35.75,0,0,1,0-33.21,29.54,29.54,0,0,1,11.21-11.43,32.89,32.89,0,0,1,31.77,0,29.21,29.21,0,0,1,11.16,11.43,36.07,36.07,0,0,1,0,33.21,29.21,29.21,0,0,1-11.16,11.43,32.82,32.82,0,0,1-31.77,0Zm28.44-4.63a23,23,0,0,0,8.82-9.32,32.13,32.13,0,0,0,0-28.12,23.07,23.07,0,0,0-8.82-9.27,26.12,26.12,0,0,0-25.2,0,23.07,23.07,0,0,0-8.82,9.27,32.13,32.13,0,0,0,0,28.12,23,23,0,0,0,8.82,9.32,26.12,26.12,0,0,0,25.2,0Z"/><path class="cls-1" d="M939.12,134.5q-5.31,5-15.93,4.95H910.5v26.82h-6.3V103.36h19q10.53,0,15.88,5t5.36,13.14Q944.43,129.55,939.12,134.5Zm-1.17-13q0-6.3-3.51-9.54t-11.25-3.24H910.5v25.38h12.69Q938,134.05,938,121.45Z"/><path class="cls-1" d="M126.7,278.6l-14-13.05A34,34,0,0,1,103,266.9a31.17,31.17,0,0,1-15.84-4.1A29.54,29.54,0,0,1,76,251.37a35.75,35.75,0,0,1,0-33.21,29.54,29.54,0,0,1,11.21-11.43,32.89,32.89,0,0,1,31.77,0,29.21,29.21,0,0,1,11.16,11.43,36.1,36.1,0,0,1-.18,33.57,28.85,28.85,0,0,1-11.61,11.39l16.83,15.48ZM81.61,248.85a23,23,0,0,0,8.82,9.32,26.12,26.12,0,0,0,25.2,0,23,23,0,0,0,8.82-9.32,32.13,32.13,0,0,0,0-28.12,23.07,23.07,0,0,0-8.82-9.27,26.12,26.12,0,0,0-25.2,0,23.07,23.07,0,0,0-8.82,9.27,32.13,32.13,0,0,0,0,28.12Z"/><path class="cls-1" d="M179.26,266.27,163.69,240H152.08v26.28h-6.3V203.36h18.9q10.53,0,16,5a17.19,17.19,0,0,1,5.45,13.23,17.87,17.87,0,0,1-3.92,11.65q-3.92,4.82-11.56,6.26l16.2,26.73Zm-27.18-31.41h12.69q7.38,0,11.11-3.6a12.76,12.76,0,0,0,3.74-9.63q0-6.21-3.6-9.59t-11.34-3.37h-12.6Z"/><path class="cls-1" d="M206.75,264.74a17.87,17.87,0,0,1-7.42-6,15.84,15.84,0,0,1-2.88-8.64h6.66a12.64,12.64,0,0,0,4,8.05q3.6,3.47,10.53,3.47,6.39,0,10.12-3.29a10.6,10.6,0,0,0,3.74-8.32,9.85,9.85,0,0,0-2.07-6.53,12.67,12.67,0,0,0-5.13-3.69,79.76,79.76,0,0,0-8.46-2.65,74,74,0,0,1-10-3.33,15.9,15.9,0,0,1-6.3-5q-2.61-3.42-2.61-9.27a15.45,15.45,0,0,1,2.52-8.69,16.87,16.87,0,0,1,7.11-6,24.46,24.46,0,0,1,10.53-2.16q8.73,0,14.08,4.27a16.08,16.08,0,0,1,6.17,11h-6.84a11.32,11.32,0,0,0-4.23-6.89q-3.6-3-9.72-3a14.67,14.67,0,0,0-9.45,3,10,10,0,0,0-3.78,8.24,9.52,9.52,0,0,0,2.07,6.39,13.18,13.18,0,0,0,5.17,3.69,76.8,76.8,0,0,0,8.42,2.7,76.08,76.08,0,0,1,9.9,3.37,16.14,16.14,0,0,1,6.39,5.09q2.61,3.42,2.61,9.18a16.2,16.2,0,0,1-2.34,8.37,17.08,17.08,0,0,1-6.93,6.39,23.18,23.18,0,0,1-11,2.43A26.08,26.08,0,0,1,206.75,264.74Z"/><path class="cls-1" d="M286.9,203.36v5.22H269.44v57.69h-6.3V208.58H245.59v-5.22Z"/><path class="cls-1" d="M302.92,203.36V243q0,9.36,4.45,13.86t12.2,4.5q7.73,0,12.1-4.46T336,243v-39.6h6.3v39.51q0,12-6.35,18t-16.51,6q-10.19,0-16.52-6t-6.34-18V203.36Z"/><path class="cls-1" d="M406.23,203.36l-23.85,62.91h-7.2l-23.85-62.91h6.84l20.62,56.07,20.79-56.07Z"/><path class="cls-1" d="M492,203.36l-17.82,62.91h-7l-15.84-53.64-16.2,53.64-6.84.09-17.46-63h6.75L432,258.53l16.11-55.17h7l15.66,55.17,14.49-55.17Z"/><path class="cls-1" d="M524.31,234.86l19.08,31.41h-7l-16-26.28-15.21,26.28h-7l19-31.68-19-31.23h7l15.93,26.19,15.39-26.19h7Z"/><path class="cls-1" d="M595.86,203.36,575.7,241.79v24.48h-6.3V241.79l-20.34-38.43h7.11L572.55,236l16.29-32.67Z"/><path class="cls-1" d="M609.09,260.69h32.13v5.58H601.71v-5l31.68-52.29H602.25v-5.58h38.52v5Z"/><path class="cls-1" d="M74.9,328.33a21.59,21.59,0,0,1,8.37-8.82,23.7,23.7,0,0,1,12.11-3.1,22,22,0,0,1,12.1,3.24,18.87,18.87,0,0,1,7.34,8.28v-10.8h6.3v49.14h-6.3V355.38a19.73,19.73,0,0,1-7.43,8.32A21.8,21.8,0,0,1,95.29,367a23.27,23.27,0,0,1-12-3.15,21.83,21.83,0,0,1-8.37-8.91,30.89,30.89,0,0,1,0-26.6Zm37.49,2.93a17.35,17.35,0,0,0-6.62-6.93,18,18,0,0,0-9.22-2.43,18.69,18.69,0,0,0-9.36,2.34A16.58,16.58,0,0,0,80.66,331a22.12,22.12,0,0,0-2.38,10.58,22.42,22.42,0,0,0,2.38,10.57,16.77,16.77,0,0,0,6.53,6.93,18.41,18.41,0,0,0,9.36,2.39,18,18,0,0,0,9.22-2.43,17.35,17.35,0,0,0,6.62-6.93,23.64,23.64,0,0,0,0-20.88Z"/><path class="cls-1" d="M149.24,319.65a21.9,21.9,0,0,1,12-3.24,23.44,23.44,0,0,1,12.06,3.1,21.67,21.67,0,0,1,8.32,8.82,30.8,30.8,0,0,1,0,26.6,21.83,21.83,0,0,1-8.37,8.91,23.23,23.23,0,0,1-12,3.15,22.3,22.3,0,0,1-12.11-3.2,19,19,0,0,1-7.42-8.32v10.8h-6.21v-66.6h6.21V328A19.92,19.92,0,0,1,149.24,319.65ZM175.88,331a16.56,16.56,0,0,0-6.52-6.79A18.69,18.69,0,0,0,160,321.9a18.06,18.06,0,0,0-9.23,2.43,17.33,17.33,0,0,0-6.61,6.93,23.64,23.64,0,0,0,0,20.88,17.33,17.33,0,0,0,6.61,6.93A18.06,18.06,0,0,0,160,361.5a18.41,18.41,0,0,0,9.36-2.39,16.75,16.75,0,0,0,6.52-6.93,22.42,22.42,0,0,0,2.39-10.57A22.12,22.12,0,0,0,175.88,331Z"/><path class="cls-1" d="M196.45,328.33a21.8,21.8,0,0,1,8.46-8.82,24.28,24.28,0,0,1,12.33-3.1q9.09,0,15,4.5a20.38,20.38,0,0,1,7.61,12.24h-6.75a13.84,13.84,0,0,0-5.45-8.33,17.3,17.3,0,0,0-10.39-3,17.71,17.71,0,0,0-8.91,2.25,15.77,15.77,0,0,0-6.26,6.7,23.7,23.7,0,0,0-2.29,10.94,24,24,0,0,0,2.29,11,15.74,15.74,0,0,0,6.26,6.75,17.71,17.71,0,0,0,8.91,2.25,17.31,17.31,0,0,0,10.39-3,13.85,13.85,0,0,0,5.45-8.41h6.75a20.61,20.61,0,0,1-7.65,12.15Q226.24,367,217.24,367a24.29,24.29,0,0,1-12.33-3.11,21.8,21.8,0,0,1-8.46-8.82,30.72,30.72,0,0,1,0-26.73Z"/><path class="cls-1" d="M251.62,328.33a21.88,21.88,0,0,1,8.41-8.82,23.7,23.7,0,0,1,12.11-3.1,22.2,22.2,0,0,1,11.7,3.15,19.27,19.27,0,0,1,7.65,8.19V299.67h6.3v66.6h-6.3v-11a18.92,18.92,0,0,1-7.38,8.41A21.88,21.88,0,0,1,272.05,367a23.44,23.44,0,0,1-12.11-3.15,21.83,21.83,0,0,1-8.37-8.91,28.31,28.31,0,0,1-3-13.32A27.72,27.72,0,0,1,251.62,328.33Zm37.44,2.93a17.35,17.35,0,0,0-6.62-6.93,18,18,0,0,0-9.22-2.43,18.69,18.69,0,0,0-9.36,2.34,16.58,16.58,0,0,0-6.53,6.79A22.12,22.12,0,0,0,255,341.61a22.42,22.42,0,0,0,2.38,10.57,16.77,16.77,0,0,0,6.53,6.93,18.41,18.41,0,0,0,9.36,2.39,18,18,0,0,0,9.22-2.43,17.35,17.35,0,0,0,6.62-6.93,23.64,23.64,0,0,0,0-20.88Z"/><path class="cls-1" d="M356.47,344.13H315.7a19.78,19.78,0,0,0,2.7,9.54,15.82,15.82,0,0,0,6.39,6,18.64,18.64,0,0,0,8.64,2,17.36,17.36,0,0,0,10.3-3,14,14,0,0,0,5.54-8h6.66a20.86,20.86,0,0,1-7.7,11.74q-5.89,4.55-14.8,4.55A24.8,24.8,0,0,1,321,363.88a21.91,21.91,0,0,1-8.59-8.82,27.55,27.55,0,0,1-3.1-13.36,28.17,28.17,0,0,1,3.06-13.41,21.15,21.15,0,0,1,8.55-8.82,25.23,25.23,0,0,1,12.51-3.06,24,24,0,0,1,12.28,3.06,21.14,21.14,0,0,1,8.1,8.23,23.51,23.51,0,0,1,2.84,11.48C356.65,341.34,356.58,343,356.47,344.13Zm-8.42-14.49a14.89,14.89,0,0,0-6.26-5.85,19,19,0,0,0-8.63-2,17.15,17.15,0,0,0-12,4.5q-5,4.5-5.49,12.69h34.55A17.46,17.46,0,0,0,348.05,329.64Z"/><path class="cls-1" d="M387.51,322.44H376.08v43.83h-6.29V322.44H363v-5.31h6.84v-3.42q0-8,4.09-11.79t13.28-3.78v5.4c-4.09,0-7,.78-8.6,2.34s-2.48,4.17-2.48,7.83v3.42h11.43Z"/><path class="cls-1" d="M430.08,319.65a18.9,18.9,0,0,1,7.38,8.19V317.13h6.3v50.4a24.07,24.07,0,0,1-2.92,12,20.28,20.28,0,0,1-8.14,8.05,24.56,24.56,0,0,1-11.89,2.84q-9.45,0-15.7-4.5a19,19,0,0,1-7.78-12.24h6.21a15.11,15.11,0,0,0,6.16,8.19,19.43,19.43,0,0,0,11.11,3.06,17.89,17.89,0,0,0,8.56-2,14.42,14.42,0,0,0,5.93-6,19.15,19.15,0,0,0,2.16-9.36V355.38A19.71,19.71,0,0,1,430,363.7,21.67,21.67,0,0,1,418,367a23.41,23.41,0,0,1-12.1-3.15,21.83,21.83,0,0,1-8.37-8.91,30.89,30.89,0,0,1,0-26.6,21.59,21.59,0,0,1,8.37-8.82,23.67,23.67,0,0,1,12.1-3.1A22.08,22.08,0,0,1,430.08,319.65Zm5,11.61a17.35,17.35,0,0,0-6.62-6.93,18,18,0,0,0-9.22-2.43,18.7,18.7,0,0,0-9.37,2.34,16.56,16.56,0,0,0-6.52,6.79,22.12,22.12,0,0,0-2.39,10.58,22.42,22.42,0,0,0,2.39,10.57,16.75,16.75,0,0,0,6.52,6.93,18.42,18.42,0,0,0,9.37,2.39,18,18,0,0,0,9.22-2.43,17.35,17.35,0,0,0,6.62-6.93,23.73,23.73,0,0,0,0-20.88Z"/><path class="cls-1" d="M491.6,318.57a16.66,16.66,0,0,1,7,7.15,24.73,24.73,0,0,1,2.56,11.75v28.8H495V338.19q0-8-4-12.24T480,321.72q-7.11,0-11.34,4.5t-4.23,13.23v26.82h-6.3v-66.6h6.3V325.5a16.3,16.3,0,0,1,6.89-6.84,22.69,22.69,0,0,1,20.25-.09Z"/><path class="cls-1" d="M515,306.51a4.52,4.52,0,0,1-1.35-3.33,4.39,4.39,0,0,1,1.35-3.29,4.69,4.69,0,0,1,6.48,0,4.39,4.39,0,0,1,1.35,3.29,4.52,4.52,0,0,1-1.35,3.33,4.56,4.56,0,0,1-6.48,0Zm6.39,10.62v49.14h-6.3V317.13Z"/><path class="cls-1" d="M542.4,377.88q0,5.94-3,8.77t-8.91,2.84h-4.41v-5.4h3.42q3.51,0,5-1.49t1.53-5V317.13h6.3Zm-6.3-71.37a4.52,4.52,0,0,1-1.35-3.33,4.39,4.39,0,0,1,1.35-3.29,4.49,4.49,0,0,1,3.24-1.3,4.35,4.35,0,0,1,3.2,1.3,4.46,4.46,0,0,1,1.3,3.29,4.6,4.6,0,0,1-1.3,3.33,4.28,4.28,0,0,1-3.2,1.35A4.42,4.42,0,0,1,536.1,306.51Z"/><path class="cls-1" d="M583.35,366.27l-20.25-22v22h-6.3v-66.6h6.3v39.42l19.8-22h8.82l-23.31,24.48,23.49,24.66Z"/><path class="cls-1" d="M606.3,299.67v66.6H600v-66.6Z"/><path class="cls-1" d="M693.2,321.67q5.43,5.44,5.44,15.8v28.8h-6.21V338.19q0-8-3.87-12.24T678,321.72A14.18,14.18,0,0,0,667,326.31q-4.14,4.59-4.14,13.32v26.64h-6.21V338.19q0-8-3.87-12.24t-10.62-4.23a14.18,14.18,0,0,0-11.07,4.59q-4.14,4.59-4.14,13.32v26.64h-6.3V317.13h6.3v8.46a16.12,16.12,0,0,1,6.66-7,19.58,19.58,0,0,1,9.63-2.38,20.48,20.48,0,0,1,11.21,3.06,17.29,17.29,0,0,1,7,9,16.61,16.61,0,0,1,6.79-9,19.75,19.75,0,0,1,10.94-3.1Q687.75,316.23,693.2,321.67Z"/><path class="cls-1" d="M750,321.67q5.58,5.44,5.58,15.8v28.8H749.4V338.19q0-8-4-12.24t-10.93-4.23q-7.11,0-11.34,4.5t-4.23,13.23v26.82h-6.3V317.13h6.3v8.37a16.09,16.09,0,0,1,6.75-6.89,20.66,20.66,0,0,1,10-2.38Q744.45,316.23,750,321.67Z"/><path class="cls-1" d="M778.6,363.88a22.44,22.44,0,0,1-8.73-8.82,29.39,29.39,0,0,1,0-26.73,22.66,22.66,0,0,1,8.82-8.82,26.87,26.87,0,0,1,25.06,0,22.27,22.27,0,0,1,8.82,8.82,29.26,29.26,0,0,1,0,26.69,22.4,22.4,0,0,1-8.91,8.86,25.8,25.8,0,0,1-12.6,3.11A25.06,25.06,0,0,1,778.6,363.88Zm21.47-4.59a16.82,16.82,0,0,0,6.7-6.66,21.58,21.58,0,0,0,2.57-10.93,21.94,21.94,0,0,0-2.52-10.94,16.54,16.54,0,0,0-6.66-6.66,19.51,19.51,0,0,0-18,0,16.27,16.27,0,0,0-6.62,6.66,25.44,25.44,0,0,0,0,21.87,16.34,16.34,0,0,0,6.57,6.66,18.61,18.61,0,0,0,9,2.21A18.85,18.85,0,0,0,800.07,359.29Z"/><path class="cls-1" d="M841,319.69a21.83,21.83,0,0,1,12.11-3.28,23.49,23.49,0,0,1,12,3.1,21.59,21.59,0,0,1,8.37,8.82,30.8,30.8,0,0,1,0,26.6,21.83,21.83,0,0,1-8.37,8.91,23.23,23.23,0,0,1-12,3.15A21.88,21.88,0,0,1,841,363.7a19.78,19.78,0,0,1-7.47-8.23v34h-6.21V317.13h6.21v10.8A19.87,19.87,0,0,1,841,319.69ZM867.7,331a16.56,16.56,0,0,0-6.52-6.79,18.69,18.69,0,0,0-9.36-2.34,18.06,18.06,0,0,0-9.23,2.43,17.33,17.33,0,0,0-6.61,6.93,23.64,23.64,0,0,0,0,20.88,17.33,17.33,0,0,0,6.61,6.93,18.06,18.06,0,0,0,9.23,2.43,18.41,18.41,0,0,0,9.36-2.39,16.75,16.75,0,0,0,6.52-6.93,22.42,22.42,0,0,0,2.39-10.57A22.12,22.12,0,0,0,867.7,331Z"/><path class="cls-1" d="M888.27,328.33a21.88,21.88,0,0,1,8.41-8.82,23.7,23.7,0,0,1,12.11-3.1,21.87,21.87,0,0,1,12.06,3.28,18.58,18.58,0,0,1,7.29,8.24v-10.8h6.3v72.36h-6.3v-34a18.5,18.5,0,0,1-7.34,8.23A22.25,22.25,0,0,1,908.61,367a23.27,23.27,0,0,1-12-3.15,21.83,21.83,0,0,1-8.37-8.91,28.31,28.31,0,0,1-3-13.32A27.72,27.72,0,0,1,888.27,328.33Zm37.44,2.93a17.35,17.35,0,0,0-6.62-6.93,18,18,0,0,0-9.22-2.43,18.69,18.69,0,0,0-9.36,2.34A16.58,16.58,0,0,0,894,331a22.12,22.12,0,0,0-2.38,10.58A22.42,22.42,0,0,0,894,352.18a16.77,16.77,0,0,0,6.53,6.93,18.41,18.41,0,0,0,9.36,2.39,18,18,0,0,0,9.22-2.43,17.35,17.35,0,0,0,6.62-6.93,23.64,23.64,0,0,0,0-20.88Z"/><path class="cls-1" d="M961.48,318.75A20.34,20.34,0,0,1,972,316.23v6.57h-1.71q-6.84,0-11,3.69t-4.14,12.33v27.45h-6.3V317.13h6.3v8.73A15.39,15.39,0,0,1,961.48,318.75Z"/><path class="cls-1" d="M77.87,463.07a14.25,14.25,0,0,1-6-10.66h6.48a9.28,9.28,0,0,0,3.91,6.7q3.47,2.56,9.32,2.57,5.13,0,8.05-2.43a7.54,7.54,0,0,0,2.93-6,5.61,5.61,0,0,0-1.62-4.14,11.52,11.52,0,0,0-4.1-2.57,64,64,0,0,0-6.7-2,68.18,68.18,0,0,1-8.91-2.88,15.21,15.21,0,0,1-5.81-4.28,12.32,12.32,0,0,1-.22-14.26,14.74,14.74,0,0,1,6.12-4.86,21.52,21.52,0,0,1,9-1.8q7.92,0,12.78,4a14.55,14.55,0,0,1,5.22,11H102a9.58,9.58,0,0,0-3.38-7q-3.1-2.65-8.5-2.65a12.48,12.48,0,0,0-7.74,2.25,6.77,6.77,0,0,0-3,5.58,6.56,6.56,0,0,0,1.75,4.72,12.08,12.08,0,0,0,4.37,2.88q2.61,1,7,2.3a66.29,66.29,0,0,1,8.46,2.79,14.67,14.67,0,0,1,5.4,4,10.6,10.6,0,0,1,2.34,6.93,12.06,12.06,0,0,1-2.16,7.06,14.7,14.7,0,0,1-6,4.91,20.91,20.91,0,0,1-8.91,1.8Q83.23,467,77.87,463.07Z"/><path class="cls-1" d="M128.86,422.44V453q0,4.5,1.71,6.21t6,1.71h5.76v5.4h-6.75q-6.66,0-9.9-3.11T122.47,453V422.44h-6.84v-5.31h6.84V404.8h6.39v12.33h13.5v5.31Z"/><path class="cls-1" d="M195.28,417.13v49.14H189v-8.64a15.1,15.1,0,0,1-6.66,7,20.87,20.87,0,0,1-10.08,2.43q-8.82,0-14.4-5.45t-5.58-15.79V417.13h6.21v28q0,8,4,12.24t10.94,4.23q7.11,0,11.34-4.5T189,443.86V417.13Z"/><path class="cls-1" d="M227.14,460.15l16.56-43h6.66l-19.71,49.14h-7.11l-19.71-49.14h6.75Z"/><path class="cls-1" d="M323.71,417.13l-15.39,49.14H302l-13.59-41.22-13.59,41.22h-6.39l-15.39-49.14h6.39l12.24,42.75,13.77-42.75h6.3L305.35,460l12.15-42.84Z"/><path class="cls-1" d="M358,466.27l-12.69-19.8-12.24,19.8h-6.66l15.84-24.57-15.66-24.57h7.11l12.51,19.53,12.15-19.53h6.57l-15.66,24.3,15.84,24.84Z"/><path class="cls-1" d="M414.16,417.13,385,489.4h-6.58L388,466,367.8,417.13h6.94l16.73,41.94,16.2-41.94Z"/><path class="cls-1" d="M426,461.05h25.73v5.22H418.83v-5.22l25.29-38.7H419.29v-5.22h32v5.22Z"/><path class="cls-1" d="M70.36,507.41v-5.67h15.3v64.53H79.27V507.41Z"/><path class="cls-1" d="M124,539q9-9.85,9-19.3,0-6.21-3.11-9.95t-10.12-3.73q-6.84,0-10.58,4.27T105,521.72H98.89q.54-10,6.16-15.53t14.72-5.53q8.73,0,14.13,4.9t5.4,13.91q0,10.89-9.05,21.1A141.46,141.46,0,0,1,108,560.51h33.3v5.31H98.35v-4.5Q114.91,548.9,124,539Z"/><path class="cls-1" d="M157.07,505.29q5.72-4.73,14.81-4.72a22.92,22.92,0,0,1,10.35,2.16,15.24,15.24,0,0,1,6.52,5.89A16.26,16.26,0,0,1,191,517a15.17,15.17,0,0,1-3.33,9.81,14.59,14.59,0,0,1-9.45,5.13v.45A17.67,17.67,0,0,1,188.35,538q3.78,4.27,3.78,11.21A16.64,16.64,0,0,1,187,561.81q-5.17,4.91-15,4.91-9.36,0-15.39-4.91t-6.93-13.9h6.12a15.25,15.25,0,0,0,5,9.76q4.23,3.74,11.16,3.74t10.48-3.6a12.36,12.36,0,0,0,3.65-9.18q0-13.68-19.71-13.68h-2v-5.31h2.07q18.36,0,18.36-12a11,11,0,0,0-3.42-8.42q-3.42-3.19-9.72-3.19a15.74,15.74,0,0,0-10.13,3.19,13,13,0,0,0-4.72,9h-6.12A17.75,17.75,0,0,1,157.07,505.29Z"/><path class="cls-1" d="M200.77,551V546.2l32.76-44.1H241v43.38h9.63V551H241v15.3h-6.21V551ZM235.06,509l-27,36.45h27Z"/><path class="cls-1" d="M299.32,507.14H266.38v23A16.39,16.39,0,0,1,273,525a21.77,21.77,0,0,1,9.36-2q7.38,0,12.06,3a17.34,17.34,0,0,1,6.75,7.83,25.84,25.84,0,0,1,2.07,10.31,26.47,26.47,0,0,1-2.39,11.38,18.37,18.37,0,0,1-7.29,8.06,23.15,23.15,0,0,1-12.19,3q-9.27,0-15-4.82a20.3,20.3,0,0,1-7-13h6.21a14.64,14.64,0,0,0,5.4,9.18,16.66,16.66,0,0,0,10.44,3.24q7.83,0,11.83-4.64t4-12.28q0-7.47-4.05-11.66t-11.61-4.18a17.2,17.2,0,0,0-9.18,2.43,14.76,14.76,0,0,0-5.85,6.57h-5.94V501.65h38.79Z"/><path class="cls-1" d="M337.57,505.79q-8.82,0-13.23,6.84t-4,22.41a15.48,15.48,0,0,1,6.88-8.51,21.93,21.93,0,0,1,11.66-3.1q9.45,0,15,5.8t5.54,16a24.66,24.66,0,0,1-2.3,10.75,17.9,17.9,0,0,1-7,7.7,22.18,22.18,0,0,1-11.74,2.88q-13.41,0-18.5-8.55t-5.08-24.21q0-33.3,22.86-33.3,8.64,0,13.59,4.72A19.59,19.59,0,0,1,357,517.49h-5.85Q349.18,505.79,337.57,505.79Zm-7.92,24.75a14.27,14.27,0,0,0-8.55,13.68,17.62,17.62,0,0,0,4.32,12.15q4.32,4.86,12.6,4.86,6.93,0,11.07-4.23t4.14-11.52q0-7.83-4.05-12.24t-11.52-4.41A19.21,19.21,0,0,0,329.65,530.54Z"/><path class="cls-1" d="M409.21,506.69,384.1,566.27h-6.39l25.38-59h-36v-5.4h42.12Z"/><path class="cls-1" d="M422.48,527.12a15.07,15.07,0,0,1-2.92-9.36,15.65,15.65,0,0,1,2.47-8.69,16.7,16.7,0,0,1,7.25-6,30.79,30.79,0,0,1,22.86,0,16.67,16.67,0,0,1,7.24,6,15.66,15.66,0,0,1,2.48,8.69,15.32,15.32,0,0,1-2.93,9.36,16,16,0,0,1-8.5,5.67,17.42,17.42,0,0,1,9.63,5.85,16.16,16.16,0,0,1,3.51,10.53,17.72,17.72,0,0,1-2.84,10,18.46,18.46,0,0,1-8,6.62,32,32,0,0,1-24,0,18.46,18.46,0,0,1-8-6.62,17.72,17.72,0,0,1-2.83-10,16.16,16.16,0,0,1,3.51-10.53,17.42,17.42,0,0,1,9.63-5.85A16.72,16.72,0,0,1,422.48,527.12Zm6.17,11.79Q424,542.24,424,549a12.44,12.44,0,0,0,4.5,10.17q4.5,3.69,12.24,3.69t12.15-3.74a12.46,12.46,0,0,0,4.5-10.12q0-6.66-4.64-10t-12-3.37Q433.33,535.58,428.65,538.91Zm23-29.61q-4.05-3.24-11-3.24t-11,3.19q-4.05,3.19-4.05,9.23a10.85,10.85,0,0,0,4.14,8.91q4.14,3.33,10.89,3.33t10.89-3.33a10.85,10.85,0,0,0,4.14-8.91Q455.74,512.54,451.69,509.3Z"/><path class="cls-1" d="M487.42,558.08q3.51,3.15,9.63,3.15,8.46,0,12.55-6.62t3.74-21.91a14.26,14.26,0,0,1-6.53,7.78,21.3,21.3,0,0,1-11,2.84q-9.45,0-15.17-5.67t-5.71-15.75A24.78,24.78,0,0,1,477.25,511a17.5,17.5,0,0,1,7.11-7.65,22.82,22.82,0,0,1,11.7-2.79q12.78,0,17.82,8.32t5,23.9q0,16.83-5,25.29t-17.14,8.46q-8.91,0-13.86-4.82a20.22,20.22,0,0,1-5.85-12.64h5.85A15,15,0,0,0,487.42,558.08Zm17.14-21.92a14,14,0,0,0,5.72-5.17,15,15,0,0,0,2.16-8.19,17.75,17.75,0,0,0-4.19-12.15q-4.19-4.77-12-4.77-6.93,0-11.12,4.32t-4.18,11.52q0,7.56,4.14,11.88t11.7,4.32A17.33,17.33,0,0,0,504.56,536.16Z"/><path class="cls-1" d="M535.57,509.39q4.77-8.55,17.1-8.55t17.1,8.55q4.77,8.55,4.77,24,0,15.75-4.77,24.39t-17.1,8.64q-12.42,0-17.15-8.64t-4.72-24.39Q530.8,517.94,535.57,509.39Zm31.59,9.9a18.08,18.08,0,0,0-4.59-9.27q-3.42-3.51-9.9-3.51t-9.9,3.51a18.08,18.08,0,0,0-4.59,9.27A72.37,72.37,0,0,0,537,533.42a74.73,74.73,0,0,0,1.17,14.44,18.13,18.13,0,0,0,4.59,9.32q3.42,3.51,9.9,3.51t9.9-3.51a18.13,18.13,0,0,0,4.59-9.32,74.73,74.73,0,0,0,1.17-14.44A72.37,72.37,0,0,0,567.16,519.29Z"/><path class="cls-1" d="M612.92,504.8a16.5,16.5,0,0,1,6.93,6.43,18.67,18.67,0,0,1,2.48,9.68q0,9.72-6,14.26T600,539.72l-.27,9.9h-5.4l-.36-14.4h2.34q9.27,0,14.62-2.93t5.36-11.38a12.35,12.35,0,0,0-3.74-9.45,13.79,13.79,0,0,0-9.85-3.51q-6.12,0-9.72,3.33a11.77,11.77,0,0,0-3.6,9.09h-6a17.54,17.54,0,0,1,2.47-9.41,16.72,16.72,0,0,1,6.84-6.21,22,22,0,0,1,10-2.2A22.3,22.3,0,0,1,612.92,504.8Zm-19.17,60.57a4.6,4.6,0,0,1-1.3-3.33,4.45,4.45,0,0,1,4.59-4.59,4.33,4.33,0,0,1,3.19,1.3,4.47,4.47,0,0,1,1.31,3.29,4.61,4.61,0,0,1-1.31,3.33,4.26,4.26,0,0,1-3.19,1.35A4.39,4.39,0,0,1,593.75,565.37Z"/><path class="cls-1" d="M661.48,481.67l-24.84,99.54h-6.21l24.66-99.54Z"/><path class="cls-1" d="M672.91,512.09h8L703.51,533l-22.59,20.88h-8L695.59,533Z"/><path class="cls-1" d="M734.65,482.21v5.22h-7.92V577.7h7.92V583H720.79V482.21Z"/><path class="cls-1" d="M765.34,583H751.48V577.7h7.92V487.43h-7.92v-5.22h13.86Z"/><path class="cls-1" d="M783.7,530.09q9.45-2.16,9.45-10.53a92.44,92.44,0,0,0-1-11.52c-.06-.54-.24-2.21-.54-5a72.3,72.3,0,0,1-.45-7.69q0-6.48,3.51-9.77t9.54-3.28h4.5v5.49H805.3q-4,0-6,1.89t-2,6.12a64.71,64.71,0,0,0,.45,7.15c.3,2.67.48,4.31.54,4.91a97.22,97.22,0,0,1,1,11.88,13.68,13.68,0,0,1-2.48,8.32,12.41,12.41,0,0,1-7.6,4.55v.18a12.4,12.4,0,0,1,7.6,4.54,13.71,13.71,0,0,1,2.48,8.33,96.92,96.92,0,0,1-1,11.79c-.06.66-.24,2.32-.54,5a64.87,64.87,0,0,0-.45,7.16q0,4.23,2,6.12t6,1.89h3.42v5.49h-4.5q-6,0-9.54-3.29t-3.51-9.76a72.48,72.48,0,0,1,.45-7.7c.3-2.79.48-4.48.54-5.08a94,94,0,0,0,1-11.43q0-8.37-9.45-10.62Z"/><path class="cls-1" d="M833,545.84a94,94,0,0,0,1,11.43c.06.6.24,2.29.54,5.08a72.48,72.48,0,0,1,.45,7.7q0,6.48-3.51,9.76T822,583.1h-4.5v-5.49h3.42q4,0,6-1.89t2-6.12a64.87,64.87,0,0,0-.45-7.16c-.3-2.67-.48-4.33-.54-5a96.92,96.92,0,0,1-1-11.79,13.71,13.71,0,0,1,2.47-8.33,12.43,12.43,0,0,1,7.61-4.54v-.18a12.44,12.44,0,0,1-7.61-4.55,13.68,13.68,0,0,1-2.47-8.32,97.22,97.22,0,0,1,1-11.88c.06-.6.24-2.24.54-4.91a64.71,64.71,0,0,0,.45-7.15q0-4.23-2-6.12t-6-1.89h-3.42V482.3H822q6,0,9.54,3.28t3.51,9.77a72.3,72.3,0,0,1-.45,7.69c-.3,2.79-.48,4.46-.54,5a92.44,92.44,0,0,0-1,11.52q0,8.37,9.45,10.53v5.13Q833,537.47,833,545.84Z"/><path class="cls-1" d="M863.44,561.54a85.6,85.6,0,0,1,.18-57.37,58.1,58.1,0,0,1,14.13-22h6.57v.63a62.15,62.15,0,0,0-14.63,22.59,79.15,79.15,0,0,0-.22,54.72,63.24,63.24,0,0,0,13.95,22.23V583h-6.66A58.11,58.11,0,0,1,863.44,561.54Z"/><path class="cls-1" d="M892.33,583v-.63a63.24,63.24,0,0,0,13.95-22.23,79.07,79.07,0,0,0-.23-54.72,62.13,62.13,0,0,0-14.62-22.59v-.63H898a58.1,58.1,0,0,1,14.13,22,85.6,85.6,0,0,1,.18,57.37A58.11,58.11,0,0,1,899,583Z"/><path class="cls-1" d="M930.53,565.37a4.6,4.6,0,0,1-1.3-3.33,4.45,4.45,0,0,1,4.59-4.59,4.33,4.33,0,0,1,3.19,1.3,4.47,4.47,0,0,1,1.31,3.29,4.61,4.61,0,0,1-1.31,3.33,4.26,4.26,0,0,1-3.19,1.35A4.39,4.39,0,0,1,930.53,565.37Z"/><path class="cls-1" d="M951.05,565.37a4.6,4.6,0,0,1-1.3-3.33,4.45,4.45,0,0,1,4.59-4.59,4.33,4.33,0,0,1,3.19,1.3,4.47,4.47,0,0,1,1.31,3.29,4.61,4.61,0,0,1-1.31,3.33,4.26,4.26,0,0,1-3.19,1.35A4.39,4.39,0,0,1,951.05,565.37Zm6.44-62-.81,46.26h-5.31l-.72-46.26Z"/></g></svg>