<svg xmlns="http://www.w3.org/2000/svg" viewBox="0 0 1080 672"><defs><style>.cls-1{fill:#8fe044;}</style></defs><g id="Layer_3" data-name="Layer 3"><rect width="1080" height="672"/></g><g id="Layer_1" data-name="Layer 1"><path class="cls-1" d="M91.34,188.28l-2-6.12,10.89-3.6a12.15,12.15,0,0,0,6.26-4.59,12.38,12.38,0,0,0,2.38-7.38V138.15h6.21v27.9a19.23,19.23,0,0,1-1,6.12,19.9,19.9,0,0,1-2.74,5.4,20.59,20.59,0,0,1-4.23,4.32,18.63,18.63,0,0,1-5.45,2.88Zm16.74-68.4h7.65v7.65h-7.65Z"/><path class="cls-1" d="M144.26,188.28l-2-6.12,11-3.6a12.15,12.15,0,0,0,6.16-4.59,12.39,12.39,0,0,0,2.39-7.38V138.06h6.12v28a19.83,19.83,0,0,1-3.65,11.47,19.25,19.25,0,0,1-4.23,4.32,21.13,21.13,0,0,1-5.44,2.93Z"/><path class="cls-1" d="M214.55,165.87a9.57,9.57,0,0,1-3.78-.77,9.36,9.36,0,0,1-3.11-2.11,10.26,10.26,0,0,1-2.07-3.15,9.56,9.56,0,0,1-.76-3.78v-9.54h5.31v8.19a4.11,4.11,0,0,0,.9,2.65,3.24,3.24,0,0,0,2.7,1.13h14.13a7.65,7.65,0,0,0,4.41-1.17,7.31,7.31,0,0,0,2.52-2.84,7.41,7.41,0,0,0,.72-3.64,8.19,8.19,0,0,0-1-3.6l-10.35-18.45,5.22-3.51,10.26,18.36a15.13,15.13,0,0,1,2.2,7.87,14.82,14.82,0,0,1-1.8,7.16,14.21,14.21,0,0,1-12.55,7.2Zm4.14-58.95h7.65v7.65h-7.65Z"/><path class="cls-1" d="M275.56,165.87a9.49,9.49,0,0,1-3.77-.77,9.26,9.26,0,0,1-3.11-2.11,10.26,10.26,0,0,1-2.07-3.15,9.57,9.57,0,0,1-.77-3.78v-9.54h5.31v8.19a4.11,4.11,0,0,0,.9,2.65,3.25,3.25,0,0,0,2.7,1.13h14.13a7.65,7.65,0,0,0,4.41-1.17,7.31,7.31,0,0,0,2.52-2.84,7.53,7.53,0,0,0,.73-3.64,8.2,8.2,0,0,0-1-3.6l-10.35-18.45,5.23-3.51,10.25,18.36a15.14,15.14,0,0,1,2.21,7.87,14.82,14.82,0,0,1-1.8,7.16,14.21,14.21,0,0,1-12.56,7.2Z"/><path class="cls-1" d="M328.21,173.52a21.5,21.5,0,0,1,2.39-9.59,20.21,20.21,0,0,1,6.34-7.33q1.89-1.44,4.68-3.47T347.2,149q2.79-2.07,5.31-3.92l3.87-2.83a13.79,13.79,0,0,1,2.34-1.44l-19-5.58a3.65,3.65,0,0,0-3.06.49,4.31,4.31,0,0,0-2,2.48l-2.34,7.2L326.86,144l2.07-7.11a10.63,10.63,0,0,1,5.58-6.57,11.45,11.45,0,0,1,4-1.08,10.27,10.27,0,0,1,3.87.36L375,139.41l-1.89,5.67-5-1.26a5.32,5.32,0,0,0-4.77.81l-22.77,16.65a14.86,14.86,0,0,0-4.23,5,13.75,13.75,0,0,0-1.53,6.39,14.55,14.55,0,0,0,1.17,5.85,15.23,15.23,0,0,0,8.06,8,14.85,14.85,0,0,0,5.89,1.17h21.15V195H349.9a20.77,20.77,0,0,1-8.41-1.71,22.66,22.66,0,0,1-6.89-4.64,21.68,21.68,0,0,1-4.68-6.84A20.55,20.55,0,0,1,328.21,173.52Zm6.39-62.64h7.65v7.65H334.6Z"/><path class="cls-1" d="M400.3,173.61a20.65,20.65,0,0,1,2.3-9.59,21,21,0,0,1,6.34-7.42l4.68-3.38,5.63-4.09q2.83-2.07,5.31-3.92t3.91-2.83a11.45,11.45,0,0,0,1.26-.9,3.83,3.83,0,0,1,1-.63l-18.9-5.58a3.76,3.76,0,0,0-3.1.49,4.28,4.28,0,0,0-2,2.57l-2.25,7.2L399,144.09l2.07-7.2a10.21,10.21,0,0,1,2.21-4,10.91,10.91,0,0,1,3.37-2.52,11.41,11.41,0,0,1,3.92-1.08,10.06,10.06,0,0,1,3.82.36L447,139.5l-1.89,5.67-5-1.26a5.45,5.45,0,0,0-4.77.81l-22.68,16.65a14.48,14.48,0,0,0-4.32,5,13,13,0,0,0-1.44,6.39,14.55,14.55,0,0,0,1.17,5.85,15.23,15.23,0,0,0,8.06,8,14.63,14.63,0,0,0,5.8,1.17h21.15v7.38H422a21.11,21.11,0,0,1-8.46-1.71A21.85,21.85,0,0,1,402,182,20.77,20.77,0,0,1,400.3,173.61Z"/><path class="cls-1" d="M472.3,173.52a20.33,20.33,0,0,1,2.34-9.59,21.45,21.45,0,0,1,6.39-7.42q1.89-1.35,4.68-3.38l5.62-4.09q2.84-2.07,5.31-3.92t3.92-2.83c.42-.3.82-.6,1.21-.9a4.56,4.56,0,0,1,1-.63l-19-5.58a3.65,3.65,0,0,0-3.06.49,4.31,4.31,0,0,0-2,2.57l-2.25,7.2L471,144l2.07-7.2a10.53,10.53,0,0,1,2.16-4,10.42,10.42,0,0,1,3.33-2.52,11.45,11.45,0,0,1,4-1.08,10.27,10.27,0,0,1,3.87.36l32.67,9.81-1.89,5.67-5-1.26a5.32,5.32,0,0,0-4.77.81l-22.68,16.65a14.48,14.48,0,0,0-4.32,5,13.75,13.75,0,0,0-1.53,6.39,14.09,14.09,0,0,0,1.21,5.85,16.36,16.36,0,0,0,3.24,4.77,14.51,14.51,0,0,0,4.82,3.24,15,15,0,0,0,5.85,1.17h21.15v7.38H494a20.89,20.89,0,0,1-8.37-1.71,22.48,22.48,0,0,1-6.93-4.64,21.68,21.68,0,0,1-4.68-6.84A20.77,20.77,0,0,1,472.3,173.52Zm21.42-9.9h7.2v7.2h-7.2Zm6,10.35H507v7.29h-7.2Zm5.58-10.35h7.2v7.2h-7.2Z"/><path class="cls-1" d="M544.3,173.52a20.33,20.33,0,0,1,2.34-9.59,21.45,21.45,0,0,1,6.39-7.42l4.68-3.38,5.62-4.09q2.83-2.07,5.31-3.92t3.92-2.83c.42-.3.82-.6,1.21-.9a4.56,4.56,0,0,1,1-.63l-19-5.58a3.65,3.65,0,0,0-3.06.49,4.31,4.31,0,0,0-2,2.57l-2.25,7.2L543,144l2.07-7.2a10.53,10.53,0,0,1,2.16-4,10.42,10.42,0,0,1,3.33-2.52,11.45,11.45,0,0,1,4-1.08,10.27,10.27,0,0,1,3.87.36l32.67,9.81-1.89,5.67-5-1.26a4.53,4.53,0,0,0-2.52-.18,5.87,5.87,0,0,0-2.25,1l-22.68,16.65a14.48,14.48,0,0,0-4.32,5,13.75,13.75,0,0,0-1.53,6.39,14.09,14.09,0,0,0,1.21,5.85,16.36,16.36,0,0,0,3.24,4.77,14.51,14.51,0,0,0,4.82,3.24,15,15,0,0,0,5.85,1.17h21.15v7.38H566a20.89,20.89,0,0,1-8.37-1.71,22.48,22.48,0,0,1-6.93-4.64,21.68,21.68,0,0,1-4.68-6.84A20.77,20.77,0,0,1,544.3,173.52Zm23.94-6.3h7.65v7.65h-7.65Z"/><path class="cls-1" d="M666.34,158.49A6.39,6.39,0,0,0,671,156.6a6.18,6.18,0,0,0,1.94-4.59V135.45h6.21V152a13.34,13.34,0,0,1-1.08,5.31,13.93,13.93,0,0,1-3,4.41,14.43,14.43,0,0,1-4.46,3,13.39,13.39,0,0,1-5.44,1.13H631.06a15.66,15.66,0,0,1-6.26-1.26,16.7,16.7,0,0,1-5.13-3.42,15.78,15.78,0,0,1-3.46-5.09,15.62,15.62,0,0,1-1.26-6.25v-14.4h6.21V149a8.93,8.93,0,0,0,.76,3.69,10,10,0,0,0,2.07,3,9.73,9.73,0,0,0,3.11,2.07,9.57,9.57,0,0,0,3.78.77Zm-29.34-23V127.8h7.65v7.65Zm5.94-11v-7.65h7.65v7.65Zm6.39,11V127.8H657v7.65Z"/><path class="cls-1" d="M754.45,158.49a6.39,6.39,0,0,0,4.63-1.89,6.28,6.28,0,0,0,1.94-4.68V135.45h6.21v16.47a13.85,13.85,0,0,1-8.46,12.87,13.56,13.56,0,0,1-5.4,1.08h-34.2a15.66,15.66,0,0,1-6.26-1.26,16.28,16.28,0,0,1-8.59-8.6,15.62,15.62,0,0,1-1.26-6.25V135.45h6.21v13.41a9.56,9.56,0,0,0,.76,3.78,9.19,9.19,0,0,0,2.07,3.06,10.25,10.25,0,0,0,3.06,2,9.27,9.27,0,0,0,3.74.77Zm-29.34-23h7.65V127.8h-7.65Zm12.33,0h7.65V127.8h-7.65Z"/><path class="cls-1" d="M842.55,158.49a6.39,6.39,0,0,0,4.64-1.89,6.28,6.28,0,0,0,1.93-4.68V135.45h6.21v16.47a14.06,14.06,0,0,1-4,9.9,14,14,0,0,1-4.41,3,13.65,13.65,0,0,1-5.41,1.08H807.28a15.63,15.63,0,0,1-6.26-1.26,16.34,16.34,0,0,1-8.6-8.6,15.61,15.61,0,0,1-1.25-6.25V135.45h6.21v13.41a9.56,9.56,0,0,0,.76,3.78,9.19,9.19,0,0,0,2.07,3.06,10.25,10.25,0,0,0,3.06,2,9.23,9.23,0,0,0,3.73.77Zm-28.26,25.83H822v-7.65h-7.66Zm6.3,11h7.66v-7.65h-7.66Zm6-11h7.66v-7.65h-7.66Z"/><path class="cls-1" d="M930.66,158.49a6.41,6.41,0,0,0,4.64-1.89,6.28,6.28,0,0,0,1.93-4.68V135.45h6.21v16.47A13.85,13.85,0,0,1,935,164.79a13.56,13.56,0,0,1-5.4,1.08h-34.2a15.62,15.62,0,0,1-6.25-1.26,16.34,16.34,0,0,1-8.6-8.6,15.62,15.62,0,0,1-1.26-6.25V135.45h6.21v13.41a9.57,9.57,0,0,0,.77,3.78,9.19,9.19,0,0,0,2.07,3.06,10.25,10.25,0,0,0,3.06,2,9.23,9.23,0,0,0,3.73.77Zm-23.13,25.74h7.65v-7.65h-7.65Z"/><path class="cls-1" d="M973.59,165.87h-6.21V106.56h6.21Z"/><path class="cls-1" d="M980.34,111.51v-3.42a6.92,6.92,0,0,1,1.94-5,6.78,6.78,0,0,1,5.08-2h17.1v5.49H987.27a2.14,2.14,0,0,0-1.57.67,2.28,2.28,0,0,0-.68,1.67v2.61Zm17.37,54.36H991.5V113.76h6.21Z"/><path class="cls-1" d="M118.88,235.54v13.77a8.94,8.94,0,0,0,2.56,6.61,9.08,9.08,0,0,0,6.71,2.57h35.28a8.35,8.35,0,0,0,5.08-1.62q2.2-1.62,2.12-5.31V250.3a9.18,9.18,0,0,1-3.6.72H158.3a11.61,11.61,0,0,1-5.18-1.17,11.82,11.82,0,0,1-4-3.15,12.39,12.39,0,0,1-2.34-4.55,11.12,11.12,0,0,1-.18-5.26l1.44-7.56a11.58,11.58,0,0,1,4.05-6.93,11.45,11.45,0,0,1,7.56-2.7h4.77a12.35,12.35,0,0,1,8.86,3.69,13.13,13.13,0,0,1,2.66,4,12.27,12.27,0,0,1,1,4.91V252a13.56,13.56,0,0,1-1.08,5.4A13.92,13.92,0,0,1,163,265.87H129.05a17,17,0,0,1-6.62-1.26,15.53,15.53,0,0,1-5.17-3.47,15.92,15.92,0,0,1-3.38-5.17,16.71,16.71,0,0,1-1.21-6.39v-14Zm51.84,8.19V232.3a5.58,5.58,0,0,0-1.67-4.1,5.44,5.44,0,0,0-4-1.66h-5.49a5.55,5.55,0,0,0-3.65,1.3,5.46,5.46,0,0,0-1.93,3.38l-1.26,6.57a4.72,4.72,0,0,0,1.08,4.14,4.86,4.86,0,0,0,3.87,1.8Zm-12.15-42.21h7.65v7.65h-7.65Z"/><path class="cls-1" d="M200.87,282.43a19.47,19.47,0,0,1,2.16-8.69,19.67,19.67,0,0,1,6.3-7.33,6.75,6.75,0,0,1-1.71-3.6l-2.34-13.41a10.94,10.94,0,0,1,.18-5.22,12,12,0,0,1,2.34-4.46,12.22,12.22,0,0,1,4-3.1,11.31,11.31,0,0,1,5.13-1.17h13v6.84h-13.5a4.86,4.86,0,0,0-4,1.89,5.2,5.2,0,0,0-1.17,4.23l2.88,15.75q1.53-.45,5-1.58l7.2-2.29q4.32-1.35,9.27-3l1.8,5.67-21,6.57a16.49,16.49,0,0,0-3.06,1.35,11,11,0,0,0-2.93,2.38,12.82,12.82,0,0,0-2.16,3.51,11.85,11.85,0,0,0-.85,4.64,14.11,14.11,0,0,0,1.17,5.67,14.72,14.72,0,0,0,3.24,4.72,16.16,16.16,0,0,0,4.81,3.24,14.43,14.43,0,0,0,5.9,1.22h16.38v7.29H222.56a21.11,21.11,0,0,1-8.46-1.71,22.33,22.33,0,0,1-6.89-4.59,21.82,21.82,0,0,1-4.63-6.71A19.71,19.71,0,0,1,200.87,282.43Zm13.68-58.77h7.65V216h-7.65Z"/><path class="cls-1" d="M263.51,282.52A20.33,20.33,0,0,1,272,266.41a6.75,6.75,0,0,1-1.71-3.6l-2.79-14a11.33,11.33,0,0,1,.13-5.22,11.85,11.85,0,0,1,6.3-7.65,11.61,11.61,0,0,1,5.18-1.17h13v6.84h-13.5a5.06,5.06,0,0,0-2.21.49,5,5,0,0,0-1.75,1.4,5.55,5.55,0,0,0-1,2,4.73,4.73,0,0,0,0,2.34l3.24,16.38q1.53-.45,5-1.58l7.2-2.29q4.32-1.35,9.27-3l1.8,5.67-21,6.57a16.49,16.49,0,0,0-3.06,1.35,11,11,0,0,0-2.93,2.38,12.82,12.82,0,0,0-2.16,3.51,12.1,12.1,0,0,0-.85,4.73,14.59,14.59,0,0,0,1.12,5.67,14.85,14.85,0,0,0,3.11,4.72,14.25,14.25,0,0,0,4.77,3.2,15.63,15.63,0,0,0,6.12,1.17h16.38v7.29H285.2a21.11,21.11,0,0,1-8.46-1.71,22.22,22.22,0,0,1-6.89-4.59,21.64,21.64,0,0,1-4.63-6.71A19.49,19.49,0,0,1,263.51,282.52Z"/><path class="cls-1" d="M326.14,258.49h4.95l10-10.71V206.56h6.12v31.59a9.79,9.79,0,0,1-.27,2.52,6.69,6.69,0,0,1-.27,1.17l.41-.41.72-.72c.27-.27.52-.54.76-.81s.45-.49.63-.67a16.65,16.65,0,0,1,5.72-3.87,17.91,17.91,0,0,1,6.88-1.35h5.49a12.27,12.27,0,0,1,4.91,1,12.67,12.67,0,0,1,6.7,6.7,12.28,12.28,0,0,1,1,4.91v6.3a12.84,12.84,0,0,1-3.74,9.13,13.42,13.42,0,0,1-4.1,2.79,12.32,12.32,0,0,1-5,1H326.14Zm41.67,0a5.89,5.89,0,0,0,4.19-1.67,5.41,5.41,0,0,0,1.75-4.09v-5.67a6.15,6.15,0,0,0-6.21-6.21h-6.12a12.71,12.71,0,0,0-5.22,1.08,13.52,13.52,0,0,0-4.32,3.06l-12.69,13.5Zm-8.64-35.1h7.65v-7.65h-7.65Z"/><path class="cls-1" d="M403.9,258.49h5l10-10.71V206.56H425v31.59a10.46,10.46,0,0,1-.27,2.52q-.27,1.08-.27,1.17l.45-.45c.24-.24.5-.51.77-.81l.76-.86.45-.49a17.61,17.61,0,0,1,5.81-3.87,17.91,17.91,0,0,1,6.88-1.35H445a12.27,12.27,0,0,1,4.91,1,12.67,12.67,0,0,1,6.7,6.7,12.27,12.27,0,0,1,1,4.91v6.3A12.78,12.78,0,0,1,453.9,262a13.42,13.42,0,0,1-4.1,2.79,12.32,12.32,0,0,1-5,1H403.9Zm41.67,0a5.64,5.64,0,0,0,4.14-1.71,5.54,5.54,0,0,0,1.71-4v-5.67a6.07,6.07,0,0,0-1.75-4.41,5.86,5.86,0,0,0-4.37-1.8h-6.12a12.71,12.71,0,0,0-5.22,1.08,13.52,13.52,0,0,0-4.32,3.06L417,258.49Z"/><path class="cls-1" d="M531.25,262.36V266a15.1,15.1,0,0,1-1.26,6.12,15.36,15.36,0,0,1-3.46,5,16.57,16.57,0,0,1-5.13,3.33,15.94,15.94,0,0,1-6.17,1.22H499.66a17.16,17.16,0,0,1-7-1.44,18.23,18.23,0,0,1-9.59-9.59,17.16,17.16,0,0,1-1.44-7V239.5h6.21v22.95a11.81,11.81,0,0,0,.9,4.59,11.6,11.6,0,0,0,2.52,3.78,11.75,11.75,0,0,0,3.74,2.52,11.46,11.46,0,0,0,4.54.9h15.66a9.89,9.89,0,0,0,7-2.88,10,10,0,0,0,2.12-3.11,9.44,9.44,0,0,0,.76-3.82V238.06h6.12v12.42a8.45,8.45,0,0,0,.32,2.52,5.82,5.82,0,0,0,.76,1.62,3.1,3.1,0,0,0,1.08,1.08L548,239.77a19.11,19.11,0,0,1,6.08-4.23,17.72,17.72,0,0,1,7.24-1.53h5.49a12.27,12.27,0,0,1,4.91,1,12.67,12.67,0,0,1,6.7,6.7,12.27,12.27,0,0,1,1,4.91v6.3a12.78,12.78,0,0,1-3.73,9.13,13.42,13.42,0,0,1-4.1,2.79,12.32,12.32,0,0,1-5,1H542.05a25.48,25.48,0,0,1-6.61-.77A7.06,7.06,0,0,1,531.25,262.36Zm7.65-3.87h28.44a5.8,5.8,0,0,0,4.14-1.62,5.56,5.56,0,0,0,1.71-4.23v-5.58a6.15,6.15,0,0,0-6.21-6.21h-6a12.53,12.53,0,0,0-5.31,1.08A12.81,12.81,0,0,0,551.5,245Zm18.63-42.75h7.65v7.65h-7.65Z"/><path class="cls-1" d="M664.63,262.36V266a15.1,15.1,0,0,1-1.26,6.12,15.38,15.38,0,0,1-3.47,5,16.45,16.45,0,0,1-5.13,3.33,15.89,15.89,0,0,1-6.16,1.22H633a17.21,17.21,0,0,1-7-1.44,18.26,18.26,0,0,1-9.58-9.59,17.16,17.16,0,0,1-1.44-7V239.5h6.21v22.95a11.81,11.81,0,0,0,.9,4.59,11.59,11.59,0,0,0,10.8,7.2h15.66a9.89,9.89,0,0,0,7-2.88,10,10,0,0,0,2.11-3.11,9.45,9.45,0,0,0,.77-3.82V238.06h6.12v12.42a8.48,8.48,0,0,0,.31,2.52,5.82,5.82,0,0,0,.77,1.62,3.1,3.1,0,0,0,1.08,1.08l14.58-15.93a19.07,19.07,0,0,1,6.07-4.23,17.77,17.77,0,0,1,7.25-1.53h5.49a12.23,12.23,0,0,1,4.9,1,12.64,12.64,0,0,1,6.71,6.7,12.27,12.27,0,0,1,1,4.91v6.3A12.73,12.73,0,0,1,709,262a13.37,13.37,0,0,1-4.09,2.79,12.32,12.32,0,0,1-5,1H675.43a25.56,25.56,0,0,1-6.62-.77A7,7,0,0,1,664.63,262.36Zm7.65-3.87h28.44a5.8,5.8,0,0,0,4.14-1.62,5.56,5.56,0,0,0,1.71-4.23v-5.58a6.15,6.15,0,0,0-6.21-6.21h-6a12.53,12.53,0,0,0-5.31,1.08,12.81,12.81,0,0,0-4.14,3.06Z"/><path class="cls-1" d="M794.14,265.87a11.84,11.84,0,0,1-4.14-.77,8.4,8.4,0,0,1-3.69-2.83v3.78a14.76,14.76,0,0,1-1.26,6.07,15,15,0,0,1-3.47,4.91,16.86,16.86,0,0,1-5.13,3.28,15.89,15.89,0,0,1-6.16,1.22H754.81A18,18,0,0,1,742,276.31a18.52,18.52,0,0,1-3.87-5.72,17.38,17.38,0,0,1-1.44-7.06v-24h6.21v23a11,11,0,0,0,.94,4.54,12.21,12.21,0,0,0,2.52,3.69,11.48,11.48,0,0,0,3.74,2.48,11.81,11.81,0,0,0,4.59.9h15.66a9.48,9.48,0,0,0,3.82-.77,10.44,10.44,0,0,0,3.11-2.07,9.47,9.47,0,0,0,2.88-6.88V238h6.21V252.1a6.09,6.09,0,0,0,1.89,4.54,6.33,6.33,0,0,0,4.59,1.85h1.53a7.17,7.17,0,0,0,4.59-1.58,6.61,6.61,0,0,0,2.43-4.09l2.88-14.22,6,1-2.25,11.52a6.24,6.24,0,0,0,.09,2.79,5.81,5.81,0,0,0,1.21,2.34,6.76,6.76,0,0,0,2.12,1.62,6,6,0,0,0,2.7.63H822V235.36h6.21v22.41a7.6,7.6,0,0,1-8.1,8.1h-5.94a10.77,10.77,0,0,1-5.58-1.49,11.25,11.25,0,0,1-4.14-4.45,11.57,11.57,0,0,1-4.5,4.5A12.24,12.24,0,0,1,794.14,265.87Zm7.83-38h-7.65v-7.65H802Zm5.85-11h-7.65v-7.65h7.65Zm6.48,11h-7.65v-7.65h7.65Z"/><path class="cls-1" d="M909.6,265.87a11.88,11.88,0,0,1-4.14-.77,8.4,8.4,0,0,1-3.69-2.83v3.78a14.76,14.76,0,0,1-1.26,6.07,15,15,0,0,1-3.46,4.91,16.86,16.86,0,0,1-5.13,3.28,15.9,15.9,0,0,1-6.17,1.22H870.27a18,18,0,0,1-12.78-5.22,18.69,18.69,0,0,1-3.87-5.72,17.38,17.38,0,0,1-1.44-7.06v-24h6.21v23a11,11,0,0,0,1,4.54,12.21,12.21,0,0,0,2.52,3.69,11.43,11.43,0,0,0,3.73,2.48,11.81,11.81,0,0,0,4.59.9h15.66a9.49,9.49,0,0,0,3.83-.77,10.27,10.27,0,0,0,3.1-2.07,9.37,9.37,0,0,0,2.88-6.88V238h6.21V252.1a6.09,6.09,0,0,0,1.89,4.54,6.33,6.33,0,0,0,4.59,1.85h1.54a7.16,7.16,0,0,0,4.58-1.58,6.52,6.52,0,0,0,2.43-4.09l2.88-14.22,6,1-2.25,11.52a6,6,0,0,0,.14,2.79,6.3,6.3,0,0,0,1.26,2.34,6.9,6.9,0,0,0,2.07,1.62,5.66,5.66,0,0,0,2.65.63h7.83V235.36h6.21v22.41a7.59,7.59,0,0,1-8.1,8.1h-5.94a10.79,10.79,0,0,1-5.58-1.49,11.25,11.25,0,0,1-4.14-4.45,11.57,11.57,0,0,1-4.5,4.5A12.24,12.24,0,0,1,909.6,265.87Z"/><path class="cls-1" d="M971,288.28l-2-6.12,11-3.6a12.17,12.17,0,0,0,6.17-4.59,12.38,12.38,0,0,0,2.38-7.38V238.06h6.12v28a19.6,19.6,0,0,1-.94,6.07,19.8,19.8,0,0,1-2.7,5.4,19.25,19.25,0,0,1-4.23,4.32,21.19,21.19,0,0,1-5.45,2.93Zm18.27-60.93H981.6V219.7h7.65Zm5.94-11h-7.65v-7.65h7.65Zm6.39,11h-7.65V219.7h7.65Z"/><path class="cls-1" d="M409.4,353.36A8.17,8.17,0,0,1,414,356a7.18,7.18,0,0,1,1.71,4.86v3.6a16,16,0,0,1-1.26,6.3,16.23,16.23,0,0,1-8.6,8.64,15.62,15.62,0,0,1-6.25,1.26H381.41a17.21,17.21,0,0,1-7-1.44,18.26,18.26,0,0,1-9.58-9.59,17.38,17.38,0,0,1-1.44-7.06v-20.7h6.21v19.71a11.46,11.46,0,0,0,.9,4.54,11.22,11.22,0,0,0,2.52,3.69,12.63,12.63,0,0,0,3.78,2.52,11.33,11.33,0,0,0,4.59.95h18.45a9.23,9.23,0,0,0,3.73-.77,9.84,9.84,0,0,0,3.06-2.07,9.68,9.68,0,0,0,2.07-3.1,9.57,9.57,0,0,0,.77-3.78V360l-24.57-5.76v-9.54a16.34,16.34,0,0,1,1.12-6.08,16.1,16.1,0,0,1,3.11-5,16.61,16.61,0,0,1,4.54-3.51,15.91,15.91,0,0,1,5.54-1.71l10.44-1.35,1,6.48-11.88,1.62a8.75,8.75,0,0,0-5.63,3.28,9.6,9.6,0,0,0-2.2,6.17V349Z"/><path class="cls-1" d="M447.92,325.46c.9.6,1.85,1.26,2.87,2,.84.6,1.82,1.26,2.93,2s2.26,1.5,3.46,2.34q4.05,2.79,9.28,6.3a11.66,11.66,0,0,1,3.82,4.59,13.84,13.84,0,0,1,1.3,5.94v3.24a14.89,14.89,0,0,1-1.08,5.58,14.67,14.67,0,0,1-13.76,9.27h-1.9a14.33,14.33,0,0,1-10.57-4.5,15.84,15.84,0,0,1-3.06-4.77,14.38,14.38,0,0,1-1.13-5.58v-3.06a13.49,13.49,0,0,1,1.49-6.35,11.1,11.1,0,0,1,3.92-4.36q1-.63,1.89-1.17l1.62-1,1.62-1.08-6-4.05Zm.62,17.91a6.78,6.78,0,0,0-1.57,1.8,5.74,5.74,0,0,0-.68,2.61v3.42a8.2,8.2,0,0,0,.63,3.15,8,8,0,0,0,1.76,2.65,8.63,8.63,0,0,0,2.65,1.8,8,8,0,0,0,3.25.68h2.51a7.72,7.72,0,0,0,3.33-.72,8.78,8.78,0,0,0,2.62-1.85,8.94,8.94,0,0,0,1.71-2.61,7.81,7.81,0,0,0,.63-3v-3.42a5.58,5.58,0,0,0-2.43-4.59c-.25-.18-.76-.53-1.53-1L459,340.67q-1.46-1-3.24-2.16Z"/><path class="cls-1" d="M525.67,366.14a19.23,19.23,0,0,1-1,6.12,20.59,20.59,0,0,1-2.74,5.44,20.13,20.13,0,0,1-4.23,4.37,18.38,18.38,0,0,1-5.54,2.88l-10.26,3.51-2-6.21,10.8-3.6A13,13,0,0,0,517,374.1a11.92,11.92,0,0,0,2.38-7.33v-1.62a4.2,4.2,0,0,1-1.66.58,13.73,13.73,0,0,1-1.94.14H506.5a11.57,11.57,0,0,1-5.17-1.17A11.71,11.71,0,0,1,495,357a11.52,11.52,0,0,1-.14-5.26l1.53-8.19a10.76,10.76,0,0,1,1.44-3.83,11.86,11.86,0,0,1,6.08-5A11.62,11.62,0,0,1,508,334h5a12.27,12.27,0,0,1,4.91,1,13.1,13.1,0,0,1,4,2.65,12.35,12.35,0,0,1,3.69,8.87Zm-6.21-7.65v-12a5.67,5.67,0,0,0-5.67-5.67h-5.94a5.49,5.49,0,0,0-3.6,1.26,5.76,5.76,0,0,0-2,3.33l-1.35,7.2a4.59,4.59,0,0,0,1.08,4.09,4.92,4.92,0,0,0,3.87,1.76Z"/><path class="cls-1" d="M568.33,381.62a17.88,17.88,0,0,1-18-18v-24h6.21v23a11.46,11.46,0,0,0,.9,4.54,11.58,11.58,0,0,0,2.48,3.69,11.43,11.43,0,0,0,3.73,2.48,11.81,11.81,0,0,0,4.59.9h15.57a9.79,9.79,0,0,0,3.87-.77,10.26,10.26,0,0,0,3.15-2.07,9.37,9.37,0,0,0,2.88-6.88V338.06h6.21V365.6a15.62,15.62,0,0,1-1.26,6.25,15.78,15.78,0,0,1-3.46,5.09,16.7,16.7,0,0,1-5.13,3.42,15.66,15.66,0,0,1-6.26,1.26Zm3-51.3H579V338H571.3Z"/><path class="cls-1" d="M657.88,334a12.27,12.27,0,0,1,4.91,1,13.1,13.1,0,0,1,4,2.65,12.35,12.35,0,0,1,3.69,8.87v11.25a7.58,7.58,0,0,1-8,8.1H651.31a11.31,11.31,0,0,1-5.13-1.17,12,12,0,0,1-4-3.15,12.39,12.39,0,0,1-2.34-4.55,11.12,11.12,0,0,1-.18-5.26l2-10.89h-4.86a6.11,6.11,0,0,0-4.63,2.07,6.74,6.74,0,0,0-1.94,4.77v40.59H624V347.87a13.1,13.1,0,0,1,1.13-5.4,14.56,14.56,0,0,1,3-4.41,13.93,13.93,0,0,1,4.41-3A13.56,13.56,0,0,1,638,334Zm6.39,24.48V346.43a5.53,5.53,0,0,0-5.58-5.58H648l-2.16,11.79a4.89,4.89,0,0,0,.9,4.09,4.79,4.79,0,0,0,4,1.76Z"/><path class="cls-1" d="M712.51,381.62a17.21,17.21,0,0,1-7-1.44,18.26,18.26,0,0,1-9.58-9.59,17.16,17.16,0,0,1-1.44-7V342.11h6.21v20.43a11.46,11.46,0,0,0,.9,4.54,11.81,11.81,0,0,0,6.25,6.26,11.51,11.51,0,0,0,4.55.9h15.66a9.45,9.45,0,0,0,3.82-.77A10.44,10.44,0,0,0,735,371.4a9.32,9.32,0,0,0,2.11-3.1,9.79,9.79,0,0,0,.77-3.87V306.56h6.21v58.95a15.62,15.62,0,0,1-1.26,6.25,16.7,16.7,0,0,1-3.42,5.13,15.81,15.81,0,0,1-5.09,3.47,15.62,15.62,0,0,1-6.25,1.26Z"/><path class="cls-1" d="M816.64,320.24l13.23,17.82a18,18,0,0,1,3.78,9.49,17.11,17.11,0,0,1-1.67,9,16.7,16.7,0,0,1-6.07,6.71,17.06,17.06,0,0,1-9.45,2.61H784.78a17,17,0,0,1-6.62-1.26,15.53,15.53,0,0,1-5.17-3.47,15.83,15.83,0,0,1-3.38-5.22,17,17,0,0,1-1.21-6.43V334.1h6.21v15.21a8.85,8.85,0,0,0,9.27,9.18h33.48a9.91,9.91,0,0,0,5.35-1.49,9.69,9.69,0,0,0,3.6-3.87,10,10,0,0,0,1-5.4,12.22,12.22,0,0,0-2.47-6.16l-14.49-19.89v-5.31l27.54-14.13,2.79,5.67Zm16.2-27.36-24.75,12.69,2.07,4.68,24.75-12.6Z"/><path class="cls-1" d="M906.72,365.87H875a17,17,0,0,1-6.61-1.26,15.67,15.67,0,0,1-5.18-3.47,16,16,0,0,1-3.37-5.22,17,17,0,0,1-1.21-6.43V334.1h6.21v15.21a8.85,8.85,0,0,0,9.27,9.18h33.47A9.92,9.92,0,0,0,913,357a9.49,9.49,0,0,0,4.55-9.27,12.72,12.72,0,0,0-2.53-6.16l-14.39-19.89v-5.31l27.54-14.13,2.78,5.67-24,12.33,13.22,17.82a18,18,0,0,1,3.79,9.49,17.21,17.21,0,0,1-1.67,9,16.65,16.65,0,0,1-6.08,6.71A17,17,0,0,1,906.72,365.87Z"/><path class="cls-1" d="M998.61,370a15.62,15.62,0,0,1-1.26,6.25,16.28,16.28,0,0,1-8.59,8.6,15.66,15.66,0,0,1-6.26,1.26H966.93a17.16,17.16,0,0,1-7-1.44,18.23,18.23,0,0,1-9.59-9.59,17.16,17.16,0,0,1-1.44-7v-21.6h6.21V367a11.33,11.33,0,0,0,1,4.59,12,12,0,0,0,2.52,3.73,12.21,12.21,0,0,0,3.69,2.52,11,11,0,0,0,4.54.95H982.5a9.79,9.79,0,0,0,3.87-.77,10.26,10.26,0,0,0,3.15-2.07,9.49,9.49,0,0,0,2.12-3.06,9.22,9.22,0,0,0,.76-3.73v-4.05c-.24.06-.69.19-1.35.4a7.74,7.74,0,0,1-2.34.32H980a11.57,11.57,0,0,1-5.17-1.17,11.86,11.86,0,0,1-4-3.15,12.39,12.39,0,0,1-2.34-4.55,11.46,11.46,0,0,1-.18-5.35l1.44-7.56a11.4,11.4,0,0,1,4-6.89,11.57,11.57,0,0,1,7.56-2.65H986a12.57,12.57,0,0,1,5,1,13,13,0,0,1,4,2.65,11.66,11.66,0,0,1,2.66,4,12.78,12.78,0,0,1,.94,4.91Zm-24.75-46.08h7.65v-7.65h-7.65Zm18.54,23.13a5.67,5.67,0,0,0-5.67-5.67h-5.58a5.37,5.37,0,0,0-3.6,1.3,5.55,5.55,0,0,0-1.89,3.38l-1.26,6.57a4.66,4.66,0,0,0,1,4.09,4.78,4.78,0,0,0,3.82,1.76H992.4Zm-6.21-23.13h7.74v-7.65h-7.74Z"/><path class="cls-1" d="M98.13,431.49a12.23,12.23,0,0,1,4.9,1,12.64,12.64,0,0,1,6.71,6.7,12.27,12.27,0,0,1,1,4.91v4.59a12,12,0,0,1-1,4.81A12.61,12.61,0,0,1,103,460.2a12.23,12.23,0,0,1-4.9,1H93.72a12.27,12.27,0,0,1-4.91-1,12.64,12.64,0,0,1-6.7-6.71,12,12,0,0,1-1-4.81v-4.59a12.27,12.27,0,0,1,1-4.91,12.67,12.67,0,0,1,6.7-6.7,12.27,12.27,0,0,1,4.91-1Zm6.21,16.74V444a5.42,5.42,0,0,0-1.67-4.05,5.63,5.63,0,0,0-4.09-1.62H93.27a5.55,5.55,0,0,0-4,1.62A5.41,5.41,0,0,0,87.6,444v4.23a5.68,5.68,0,0,0,5.67,5.67h5.31a5.56,5.56,0,0,0,4.09-1.67A5.45,5.45,0,0,0,104.34,448.23Z"/><path class="cls-1" d="M126.21,465.87V428.7a76.26,76.26,0,0,0-.45-8.33q-.45-4.1-1.26-8.23l-1.17-5.31,6.12-1.17,1.17,6.12a83.89,83.89,0,0,1,1.71,17v37.08Z"/><path class="cls-1" d="M152,405.66q.63,2.88,1.08,5.08c.3,1.47.6,3.14.9,5s.51,3.69.63,5.49a4.93,4.93,0,0,0,2.11,3.69,7,7,0,0,0,4.28,1.44h13.23V405.84h6.48v19.8a8,8,0,0,1-2.21,5.85,7.87,7.87,0,0,1-5.89,2.25H162a10,10,0,0,1-3.83-.72,8.42,8.42,0,0,1-3.28-2.61v35.46h-6.21V428.7a76.26,76.26,0,0,0-.45-8.33q-.45-4.1-1.26-8.23l-1.17-5.31Z"/><path class="cls-1" d="M243.48,425.64a8.1,8.1,0,0,1-2.16,5.85,7.85,7.85,0,0,1-5.94,2.25h-5.94a11.63,11.63,0,0,1-5.58-1.35,11.11,11.11,0,0,1-4.14-3.87,12.7,12.7,0,0,1-4.32,3.87,12.4,12.4,0,0,1-5.94,1.35,10.79,10.79,0,0,1-3.87-.72,8.45,8.45,0,0,1-3.42-2.52v35.37h-6.12V428.7a76.26,76.26,0,0,0-.45-8.33c-.31-2.73-.72-5.47-1.26-8.23l-1.17-5.31,6.12-1.17c0,.06.1.54.31,1.44s.45,2.07.72,3.51.54,3.06.81,4.86.5,3.66.68,5.58a4.09,4.09,0,0,0,.45,1.75,6.35,6.35,0,0,0,1.26,1.76,6.14,6.14,0,0,0,2,1.3,6.84,6.84,0,0,0,2.7.5h1.26a7,7,0,0,0,4.59-1.62,6.71,6.71,0,0,0,2.43-4.05l2.88-14.31,6,1.17-2.34,12a6.14,6.14,0,0,0,1.48,4.72,5.84,5.84,0,0,0,4.73,2.12h8V405.84h6.21Z"/><path class="cls-1" d="M299.91,430.59c-1,.12-2.57.36-4.82.72s-4.75.72-7.51,1.08-5.55.67-8.37.94-5.31.41-7.47.41a10.74,10.74,0,0,1-3.65-.63,8.91,8.91,0,0,1-3.28-2.16v34.92H258.6V428.79a73.39,73.39,0,0,0-.86-11q-.86-5.62-1.93-10.93l6-1.08q.63,2.88,1.39,7t1.22,8.42a6.65,6.65,0,0,0,2.2,3.87,6.05,6.05,0,0,0,4.1,1.53h4a7.83,7.83,0,0,1-.9-2.43c-.24-1.2-.42-2.21-.54-3s-.26-1.62-.41-2.43-.28-1.45-.4-1.93a10.9,10.9,0,0,1,.22-5.31,12.56,12.56,0,0,1,2.39-4.46,12.22,12.22,0,0,1,4-3.1,11.11,11.11,0,0,1,5-1.17h12.06l-.09,6.66H283.35a4.72,4.72,0,0,0-4,1.84,5.07,5.07,0,0,0-.94,4.19l2.07,10.8,5.17-.45,6.08-.54q3.51-.36,7.2-.81Z"/><path class="cls-1" d="M331.76,413.49l-3.42-3.15,4.05-5.13,9.73,8.73q2.86,2.61,6.16,6.12a53.09,53.09,0,0,1,6.12,8,46.37,46.37,0,0,1,4.68,10,38,38,0,0,1,1.84,12.15,20.91,20.91,0,0,1-.85,6.07,14.84,14.84,0,0,1-2.52,5,12.07,12.07,0,0,1-4.23,3.38,13.65,13.65,0,0,1-6.07,1.26,12.09,12.09,0,0,1-5.95-1.4,18,18,0,0,1-4.85-4.09,18,18,0,0,1-4.91,4.09,12.16,12.16,0,0,1-5.9,1.4,13.84,13.84,0,0,1-6.16-1.26,11.85,11.85,0,0,1-4.23-3.42,14.12,14.12,0,0,1-2.43-5,22.84,22.84,0,0,1-.77-6,36.54,36.54,0,0,1,1.71-11.43,45.22,45.22,0,0,1,4.46-9.68,54.64,54.64,0,0,1,6.3-8.32Q328.08,416.91,331.76,413.49Zm4.69,4.23q-4.05,3.87-7.34,7.47a49.38,49.38,0,0,0-5.62,7.38,33.62,33.62,0,0,0-3.65,8.1,33.24,33.24,0,0,0-1.3,9.63,11,11,0,0,0,1.48,5.8q1.49,2.47,5.08,2.48h1.08a7,7,0,0,0,4.59-1.62,7.73,7.73,0,0,0,2.61-4.5l2-8.37,6.3,1.08-1.9,8a7.25,7.25,0,0,0,.9,1.84,8.65,8.65,0,0,0,1.58,1.76,7.9,7.9,0,0,0,2.12,1.3,5.9,5.9,0,0,0,2.34.5h1.08c2.45,0,4.18-.81,5.17-2.43a11,11,0,0,0,1.49-5.85,36.27,36.27,0,0,0-1.22-9.81,31.54,31.54,0,0,0-3.56-8.1A45.12,45.12,0,0,0,344,425.1Q340.67,421.59,336.45,417.72Z"/><path class="cls-1" d="M389.54,401l3.15,4.59-10.35,8.73a5.4,5.4,0,0,0-2,3.87,4.05,4.05,0,0,0,1.71,3.78L395.58,432a83.62,83.62,0,0,1,10.61-12.51l4.5-4.23,4.77,4.41-4,3.78c-1.14,1.08-2.14,2.07-3,3s-1.71,1.81-2.52,2.74-1.64,1.95-2.47,3.06-1.81,2.42-2.88,3.92l-21.07,30.42-5.67-3.6,18.45-26.19a5.59,5.59,0,0,1-2.29-.68,13.49,13.49,0,0,1-2.12-1.21l-9.27-7.11a10.27,10.27,0,0,1-3.23-4.28,11.87,11.87,0,0,1-.86-5.13,13.36,13.36,0,0,1,1.35-5.17,11.83,11.83,0,0,1,3.38-4.23Z"/><path class="cls-1" d="M442.46,465.78a131.49,131.49,0,0,0-4.72-23.49,160.72,160.72,0,0,0-6.44-17.64,100,100,0,0,0-8.1-15l5.31-4.32a113.41,113.41,0,0,1,7,12.87A135.83,135.83,0,0,1,441.2,432a96.48,96.48,0,0,1,4.23,16.7,91.26,91.26,0,0,1,4.14-16.7,135.83,135.83,0,0,1,5.67-13.81,114,114,0,0,1,7.2-12.87l5.31,4.32a112.3,112.3,0,0,0-8.37,15.66q-1.62,3.69-3.28,8.14T453,443q-1.49,5.13-2.66,10.84a119.79,119.79,0,0,0-1.8,11.93Z"/><path class="cls-1" d="M499.7,405.39a119.58,119.58,0,0,0,1.8,11.92q1.17,5.71,2.66,10.85t3.15,9.58q1.67,4.45,3.28,8.15A112.3,112.3,0,0,0,519,461.55l-5.31,4.32a110.35,110.35,0,0,1-7.2-13,137.76,137.76,0,0,1-5.67-13.77,90.12,90.12,0,0,1-4.14-16.65,95.23,95.23,0,0,1-4.23,16.65,137.76,137.76,0,0,1-5.67,13.77,109.87,109.87,0,0,1-7,13l-5.31-4.32a100,100,0,0,0,8.1-15A160.72,160.72,0,0,0,489,428.88a131.49,131.49,0,0,0,4.72-23.49Z"/><path class="cls-1" d="M557.3,442.83a63.65,63.65,0,0,0,.36,8.32,79.86,79.86,0,0,0,1.35,8.24l1.08,5.4L554,465.87l-1.26-6a78.64,78.64,0,0,1-1.3-8.55q-.4-4.23-.41-8.55l.09-5.67a7.33,7.33,0,0,1-1.39.49,8.11,8.11,0,0,1-2,.23h-9.54a11.93,11.93,0,0,1-5.17-1.13,11.62,11.62,0,0,1-4-3.06,11.44,11.44,0,0,1-2.29-4.5,12.25,12.25,0,0,1-.14-5.44l1.53-8.19a11.4,11.4,0,0,1,4.05-6.89,11.57,11.57,0,0,1,7.56-2.65h5a12.27,12.27,0,0,1,4.91,1,13.1,13.1,0,0,1,4,2.65,12.35,12.35,0,0,1,3.69,8.87Zm-6.21-24.39a5.32,5.32,0,0,0-1.71-4.1,5.77,5.77,0,0,0-4-1.57h-5.85a5.49,5.49,0,0,0-3.6,1.26,5.72,5.72,0,0,0-2,3.24l-1.35,7.29a5.26,5.26,0,0,0,1.13,4.14,5.25,5.25,0,0,0,1.62,1.3,4.47,4.47,0,0,0,2.11.5h13.68Z"/><path class="cls-1" d="M92.55,547.6q-.45-1.17-.72-2.07t-.54-2a8.53,8.53,0,0,1-.27-2.07,7,7,0,0,1,1.17-3.69,21,21,0,0,1,2.83-3.6q1.67-1.71,3.47-3.24t3-2.7q1.89-1.8,3.06-3.06a10.62,10.62,0,0,0,1.75-2.43,8.91,8.91,0,0,0,.81-2.43,17.07,17.07,0,0,0,.23-3,6.67,6.67,0,0,0-2.79-5.94q-2.79-1.89-8.73-1.89-4.14,0-13.68,2l-.54-6A78.37,78.37,0,0,1,90,503.41a34.6,34.6,0,0,1,7.11-.63,42.09,42.09,0,0,1,7.87.81,14.83,14.83,0,0,1,5.63,2.34,10,10,0,0,1,3.37,4.23,16.39,16.39,0,0,1,1.13,6.48,32.46,32.46,0,0,1-.36,5.17,14,14,0,0,1-1.26,4,15.36,15.36,0,0,1-2.48,3.51,46.26,46.26,0,0,1-4,3.78c-1,.84-2,1.71-3,2.61a33.06,33.06,0,0,0-2.7,2.74,12.68,12.68,0,0,0-1.93,2.93,7.13,7.13,0,0,0-.72,3.06v3.15Zm-.81,8.46h7.38v9.72H91.74Z"/><path class="cls-1" d="M124.77,565l25.47-63,6.57,2.52-25.47,62.82Z"/><path class="cls-1" d="M163.74,557l29.61-13.86-29.61-13.41V522L201.09,540v6.39l-37.35,18.36Z"/><path class="cls-1" d="M211.35,498.46H230.7V505H218.91v65.34H230.7v6.57H211.35Z"/><path class="cls-1" d="M237.9,576.94v-6.57h11.88V505H237.9v-6.57h19.35v78.48Z"/><path class="cls-1" d="M293.52,577.48a32.86,32.86,0,0,1-7.83-1.13,12.85,12.85,0,0,1-5.27-2.83,11.13,11.13,0,0,1-3-4.82,21.23,21.23,0,0,1-.85-7l.63-10.89a8.81,8.81,0,0,0-2.3-6.3q-2.3-2.43-7.42-3.78v-5.94q5.13-1.17,7.42-3.47a8.32,8.32,0,0,0,2.3-6.16l-.63-11.52a22.51,22.51,0,0,1,.81-7.11,10.6,10.6,0,0,1,3-4.77,13.23,13.23,0,0,1,5.31-2.84,33.25,33.25,0,0,1,7.92-1.12l.09,6.39q-5.58.36-7.74,2.65t-2.07,7.25l.63,11.07a26.12,26.12,0,0,1-.41,4.95,8.14,8.14,0,0,1-1.53,3.51,8.75,8.75,0,0,1-3,2.38A22.67,22.67,0,0,1,275,537.7a22.17,22.17,0,0,1,4.63,1.84,9,9,0,0,1,2.93,2.52,9.33,9.33,0,0,1,1.53,3.51,20.1,20.1,0,0,1,.36,4.91L283.8,561q0,4.95,2.16,7.33t7.74,2.75Z"/><path class="cls-1" d="M302.07,571.09q5.58-.36,7.74-2.75T312,561l-.63-10.53a20.1,20.1,0,0,1,.36-4.91,9.33,9.33,0,0,1,1.53-3.51,8.94,8.94,0,0,1,2.92-2.52,22.27,22.27,0,0,1,4.64-1.84,23.92,23.92,0,0,1-4.68-1.67,8.21,8.21,0,0,1-3-2.38,8.93,8.93,0,0,1-1.53-3.51,20.57,20.57,0,0,1-.36-4.95l.63-11.07q.09-5-2.12-7.25t-7.69-2.65l.09-6.39a33.25,33.25,0,0,1,7.92,1.12,12.83,12.83,0,0,1,5.26,2.84,10.79,10.79,0,0,1,2.93,4.77,24.13,24.13,0,0,1,.9,7.11l-.63,11.52a8,8,0,0,0,2.2,6.16q2.29,2.29,7.43,3.47v5.94q-5.13,1.35-7.43,3.78a8.49,8.49,0,0,0-2.2,6.3l.63,10.89a23.83,23.83,0,0,1-.9,7,10.79,10.79,0,0,1-2.93,4.82,12.81,12.81,0,0,1-5.26,2.83,32.86,32.86,0,0,1-7.83,1.13Z"/><path class="cls-1" d="M355.08,577.12h-7.2q-1.89-4.05-3.65-8.91a101.85,101.85,0,0,1-3-9.9q-1.26-5-2-10.13a64.48,64.48,0,0,1-.76-9.58,82.65,82.65,0,0,1,2.47-19.35,134.32,134.32,0,0,1,7-20.88h7.2q-1.44,3.87-3,8.95t-2.79,10.62q-1.26,5.53-2,11.07a75,75,0,0,0-.76,10.22,58.43,58.43,0,0,0,.72,8.77q.72,4.72,1.89,9.68t2.7,9.94Q353.37,572.62,355.08,577.12Z"/><path class="cls-1" d="M362.19,577.12q1.71-4.5,3.24-9.5t2.7-9.94q1.17-4.95,1.89-9.68a58.43,58.43,0,0,0,.72-8.77A75.12,75.12,0,0,0,370,529q-.77-5.53-2-11.07t-2.75-10.62q-1.49-5.08-3-8.95h7.2a134.25,134.25,0,0,1,7,20.88,82.68,82.68,0,0,1,2.48,19.35,64.55,64.55,0,0,1-.77,9.58q-.76,5.09-2,10.13a101.9,101.9,0,0,1-3,9.9q-1.75,4.86-3.64,8.91Z"/><path class="cls-1" d="M392.52,556.15h7.38v9.72h-7.38Z"/><path class="cls-1" d="M413.49,503.68h7.83l-.54,41.4H414Zm.27,52.47h7.38v9.72h-7.38Z"/></g></svg>