<svg xmlns="http://www.w3.org/2000/svg" viewBox="0 0 672 672"><g id="Layer_1" data-name="Layer 1"><path d="M90.77,93.36v20.53a5.31,5.31,0,0,0,2,4.23,6.72,6.72,0,0,0,4.52,1.69h9.63a1.43,1.43,0,0,1,1.62,1.62v10a1.43,1.43,0,0,1-1.62,1.62H99.12a13.09,13.09,0,0,1-4.64-.87,7.31,7.31,0,0,1-3.71-3.07v3a24.55,24.55,0,0,1-1.4,8.24,27.2,27.2,0,0,1-3.83,7.25,26.11,26.11,0,0,1-5.8,5.74,27.9,27.9,0,0,1-7.42,3.83l-15.08,5.11-3.48-10.56,15.78-5.22a14.09,14.09,0,0,0,7.36-5.4,14.86,14.86,0,0,0,2.73-8.75v-39Z"/><path d="M106.89,119.81h18.33a1.43,1.43,0,0,1,1.62,1.62v10a1.43,1.43,0,0,1-1.62,1.62H106.89a1.43,1.43,0,0,1-1.62-1.62v-10A1.43,1.43,0,0,1,106.89,119.81Z"/><path d="M125.22,119.81h18.33a1.43,1.43,0,0,1,1.62,1.62v10a1.43,1.43,0,0,1-1.62,1.62H125.22a1.44,1.44,0,0,1-1.63-1.62v-10A1.44,1.44,0,0,1,125.22,119.81Z"/><path d="M143.55,119.81h18.33a1.43,1.43,0,0,1,1.62,1.62v10a1.43,1.43,0,0,1-1.62,1.62H143.55a1.44,1.44,0,0,1-1.63-1.62v-10A1.44,1.44,0,0,1,143.55,119.81Z"/><path d="M161.88,119.81h18.33a1.43,1.43,0,0,1,1.62,1.62v10a1.43,1.43,0,0,1-1.62,1.62H161.88a1.44,1.44,0,0,1-1.63-1.62v-10A1.44,1.44,0,0,1,161.88,119.81Z"/><path d="M180.2,119.81h18.33a1.44,1.44,0,0,1,1.63,1.62v10a1.44,1.44,0,0,1-1.63,1.62H180.2a1.43,1.43,0,0,1-1.62-1.62v-10A1.43,1.43,0,0,1,180.2,119.81Z"/><path d="M198.53,119.81h18.33a1.44,1.44,0,0,1,1.63,1.62v10a1.44,1.44,0,0,1-1.63,1.62H198.53a1.43,1.43,0,0,1-1.62-1.62v-10A1.43,1.43,0,0,1,198.53,119.81Z"/><path d="M216.86,119.81h18.33a1.44,1.44,0,0,1,1.63,1.62v10a1.44,1.44,0,0,1-1.63,1.62H216.86a1.43,1.43,0,0,1-1.62-1.62v-10A1.43,1.43,0,0,1,216.86,119.81Z"/><path d="M235.19,119.81h18.33a1.43,1.43,0,0,1,1.62,1.62v10a1.43,1.43,0,0,1-1.62,1.62H235.19a1.43,1.43,0,0,1-1.62-1.62v-10A1.43,1.43,0,0,1,235.19,119.81Z"/><path d="M253.52,119.81h18.33a1.43,1.43,0,0,1,1.62,1.62v10a1.43,1.43,0,0,1-1.62,1.62H253.52a1.44,1.44,0,0,1-1.63-1.62v-10A1.44,1.44,0,0,1,253.52,119.81Z"/><path d="M271.85,119.81h18.33a1.43,1.43,0,0,1,1.62,1.62v10a1.43,1.43,0,0,1-1.62,1.62H271.85a1.44,1.44,0,0,1-1.63-1.62v-10A1.44,1.44,0,0,1,271.85,119.81Z"/><path d="M290.17,119.81H308.5a1.44,1.44,0,0,1,1.63,1.62v10A1.44,1.44,0,0,1,308.5,133H290.17a1.43,1.43,0,0,1-1.62-1.62v-10A1.43,1.43,0,0,1,290.17,119.81Z"/><path d="M308.5,119.81h18.33a1.44,1.44,0,0,1,1.63,1.62v10a1.44,1.44,0,0,1-1.63,1.62H308.5a1.43,1.43,0,0,1-1.62-1.62v-10A1.43,1.43,0,0,1,308.5,119.81Z"/><path d="M326.83,119.81h18.33a1.44,1.44,0,0,1,1.63,1.62v10a1.44,1.44,0,0,1-1.63,1.62H326.83a1.43,1.43,0,0,1-1.62-1.62v-10A1.43,1.43,0,0,1,326.83,119.81Z"/><path d="M345.16,119.81h18.33a1.43,1.43,0,0,1,1.62,1.62v10a1.43,1.43,0,0,1-1.62,1.62H345.16a1.43,1.43,0,0,1-1.62-1.62v-10A1.43,1.43,0,0,1,345.16,119.81Z"/><path d="M363.49,119.81h18.33a1.43,1.43,0,0,1,1.62,1.62v10a1.43,1.43,0,0,1-1.62,1.62H363.49a1.44,1.44,0,0,1-1.63-1.62v-10A1.44,1.44,0,0,1,363.49,119.81Z"/><path d="M381.82,119.81h18.33a1.43,1.43,0,0,1,1.62,1.62v10a1.43,1.43,0,0,1-1.62,1.62H381.82a1.44,1.44,0,0,1-1.63-1.62v-10A1.44,1.44,0,0,1,381.82,119.81Z"/><path d="M444.11,131.41a1.43,1.43,0,0,1-1.62,1.62h-8.24a13.45,13.45,0,0,1-3.83-.58,19.23,19.23,0,0,1-3.71-1.51,12.37,12.37,0,0,1-3-2.2,7.89,7.89,0,0,1-1.86-2.79,14.26,14.26,0,0,1-5.68,5,16.4,16.4,0,0,1-7.78,2h-8.23a1.44,1.44,0,0,1-1.63-1.62v-9.86a1.78,1.78,0,0,1,.47-1.22,1.46,1.46,0,0,1,1.16-.52h9.16a7,7,0,0,0,4.64-1.63A7.34,7.34,0,0,0,416.5,114l4.06-20.07,10.91,2-3.25,16.7a5.62,5.62,0,0,0,1.28,5,6.12,6.12,0,0,0,4.87,2.15h8.12a1.49,1.49,0,0,1,1.16.52,1.77,1.77,0,0,1,.46,1.22Zm-28.53,27.84h12.18V147.07H415.58Z"/><path d="M460.35,119.81a6.26,6.26,0,0,0,4.59-1.92,6.4,6.4,0,0,0,1.91-4.7V90.11H478v23.08a19.18,19.18,0,0,1-1.57,7.78,19.92,19.92,0,0,1-10.5,10.5,19,19,0,0,1-7.65,1.56H442.49a1.47,1.47,0,0,1-1.16-.52,1.64,1.64,0,0,1-.47-1.1v-9.86a1.78,1.78,0,0,1,.47-1.22,1.47,1.47,0,0,1,1.16-.52ZM466,78.51h12.18V66.33H466Z"/><path d="M516.73,131.41a1.43,1.43,0,0,1-1.62,1.62H511.4a19.1,19.1,0,0,1-7.6-1.51,19.75,19.75,0,0,1-6.21-4.12,18.67,18.67,0,0,1-4.17-6.14,19.1,19.1,0,0,1-1.51-7.6v-59H503v58.7A6.19,6.19,0,0,0,505,118a6.34,6.34,0,0,0,4.58,1.86h5.57a1.49,1.49,0,0,1,1.16.52,1.77,1.77,0,0,1,.46,1.22Z"/><path d="M559.08,131.41a1.44,1.44,0,0,1-1.63,1.62h-8.23a13.4,13.4,0,0,1-3.83-.58,19,19,0,0,1-3.71-1.51,12.42,12.42,0,0,1-3-2.2A8,8,0,0,1,536.8,126a14.2,14.2,0,0,1-5.68,5,16.36,16.36,0,0,1-7.77,2h-8.24a1.43,1.43,0,0,1-1.62-1.62v-9.86a1.77,1.77,0,0,1,.46-1.22,1.49,1.49,0,0,1,1.16-.52h9.16a7.07,7.07,0,0,0,4.65-1.63,7.39,7.39,0,0,0,2.55-4.17l4.06-20.07,10.9,2-3.25,16.7a5.65,5.65,0,0,0,1.28,5,6.14,6.14,0,0,0,4.87,2.15h8.12a1.47,1.47,0,0,1,1.16.52,1.78,1.78,0,0,1,.47,1.22Zm-37.94,27.72h12.18V147H521.14Zm18.22,0h12.18V147H539.36Z"/><path d="M568.36,113.89l2.32-12a17,17,0,0,1,2.09-5.57A15.63,15.63,0,0,1,576.54,92a18.48,18.48,0,0,1,5-2.84,16.65,16.65,0,0,1,5.92-1H594a18,18,0,0,1,12.76,5.22,18.57,18.57,0,0,1,3.88,5.74,17.2,17.2,0,0,1,1.45,7V120a12.69,12.69,0,0,1-3.65,9.28,12.38,12.38,0,0,1-9.22,3.71H585.53a14.44,14.44,0,0,1-6.73-1.62,14.23,14.23,0,0,1-5.45-5.34,14.55,14.55,0,0,1-5.81,5.34,16.09,16.09,0,0,1-7.07,1.62h-3a1.49,1.49,0,0,1-1.16-.52,1.77,1.77,0,0,1-.46-1.22v-9.86a1.43,1.43,0,0,1,1.62-1.62h3.71a7,7,0,0,0,4.64-1.63A7.4,7.4,0,0,0,568.36,113.89Zm15.77,5.92H601V106.12a5.4,5.4,0,0,0-1.51-3.89,5.11,5.11,0,0,0-3.83-1.57h-8.93a5.2,5.2,0,0,0-5.22,4.41l-1.86,9.28a4.19,4.19,0,0,0,.93,3.77A4.43,4.43,0,0,0,584.13,119.81Z"/><path d="M62.92,314.38l-3.48-10.67,15.9-5.11a15.13,15.13,0,0,0,7.3-5.45,14.39,14.39,0,0,0,2.79-8.7v-39H96.57v37.94a26.41,26.41,0,0,1-1.34,8.41,27.76,27.76,0,0,1-3.77,7.42,26.8,26.8,0,0,1-5.86,6,29.31,29.31,0,0,1-7.6,4.06Z"/><path d="M122.78,285H111.65V206.61h11.13Z"/><path d="M115.24,314.38l-3.48-10.67,15.78-5.22a14.6,14.6,0,0,0,10.21-14v-39h11.13v37.94a27,27,0,0,1-5.1,15.89,27.4,27.4,0,0,1-5.86,5.92,26.77,26.77,0,0,1-7.6,3.94Zm21.7-92.69h12.18v12.18H136.94Z"/><path d="M189,283.41A1.43,1.43,0,0,1,187.4,285h-3.71a19.1,19.1,0,0,1-7.6-1.51,19.75,19.75,0,0,1-6.21-4.12,18.67,18.67,0,0,1-4.17-6.14,19.1,19.1,0,0,1-1.51-7.6V206.61h11.13v58.7a6.19,6.19,0,0,0,1.92,4.64,6.33,6.33,0,0,0,4.58,1.86h5.57a1.49,1.49,0,0,1,1.16.52,1.77,1.77,0,0,1,.46,1.22Z"/><path d="M187.4,271.81h18.33a1.43,1.43,0,0,1,1.62,1.62v10a1.43,1.43,0,0,1-1.62,1.62H187.4a1.44,1.44,0,0,1-1.63-1.62v-10A1.44,1.44,0,0,1,187.4,271.81Z"/><path d="M205.73,271.81h18.33a1.43,1.43,0,0,1,1.62,1.62v10a1.43,1.43,0,0,1-1.62,1.62H205.73a1.44,1.44,0,0,1-1.63-1.62v-10A1.44,1.44,0,0,1,205.73,271.81Z"/><path d="M224.06,271.81h18.33a1.43,1.43,0,0,1,1.62,1.62v10a1.43,1.43,0,0,1-1.62,1.62H224.06a1.44,1.44,0,0,1-1.63-1.62v-10A1.44,1.44,0,0,1,224.06,271.81Z"/><path d="M242.38,271.81h18.33a1.44,1.44,0,0,1,1.63,1.62v10a1.44,1.44,0,0,1-1.63,1.62H242.38a1.43,1.43,0,0,1-1.62-1.62v-10A1.43,1.43,0,0,1,242.38,271.81Z"/><path d="M260.71,271.81H279a1.44,1.44,0,0,1,1.63,1.62v10A1.44,1.44,0,0,1,279,285H260.71a1.43,1.43,0,0,1-1.62-1.62v-10A1.43,1.43,0,0,1,260.71,271.81Z"/><path d="M279,271.81h18.33a1.44,1.44,0,0,1,1.63,1.62v10a1.44,1.44,0,0,1-1.63,1.62H279a1.43,1.43,0,0,1-1.62-1.62v-10A1.43,1.43,0,0,1,279,271.81Z"/><path d="M297.37,271.81H315.7a1.43,1.43,0,0,1,1.62,1.62v10A1.43,1.43,0,0,1,315.7,285H297.37a1.43,1.43,0,0,1-1.62-1.62v-10A1.43,1.43,0,0,1,297.37,271.81Z"/><path d="M315.7,271.81H334a1.43,1.43,0,0,1,1.62,1.62v10A1.43,1.43,0,0,1,334,285H315.7a1.44,1.44,0,0,1-1.63-1.62v-10A1.44,1.44,0,0,1,315.7,271.81Z"/><path d="M334,271.81h18.33a1.43,1.43,0,0,1,1.62,1.62v10a1.43,1.43,0,0,1-1.62,1.62H334a1.44,1.44,0,0,1-1.63-1.62v-10A1.44,1.44,0,0,1,334,271.81Z"/><path d="M352.35,271.81h18.33a1.44,1.44,0,0,1,1.63,1.62v10a1.44,1.44,0,0,1-1.63,1.62H352.35a1.43,1.43,0,0,1-1.62-1.62v-10A1.43,1.43,0,0,1,352.35,271.81Z"/><path d="M370.68,271.81H389a1.44,1.44,0,0,1,1.63,1.62v10A1.44,1.44,0,0,1,389,285H370.68a1.43,1.43,0,0,1-1.62-1.62v-10A1.43,1.43,0,0,1,370.68,271.81Z"/><path d="M406.88,271.81a6.24,6.24,0,0,0,4.58-1.92,6.36,6.36,0,0,0,1.91-4.7V242.11h11.14v23.08a19.18,19.18,0,0,1-1.57,7.78,19.95,19.95,0,0,1-10.49,10.5,19,19,0,0,1-7.66,1.56H389a1.49,1.49,0,0,1-1.16-.52,1.62,1.62,0,0,1-.46-1.1v-9.86a1.77,1.77,0,0,1,.46-1.22,1.49,1.49,0,0,1,1.16-.52ZM391.8,299H404v12.18H391.8Z"/><path d="M451.19,280.27V247.33h11.14v31.32a13.44,13.44,0,0,0,1,5.28,12.81,12.81,0,0,0,2.9,4.29,14.71,14.71,0,0,0,4.35,2.9,12.81,12.81,0,0,0,5.28,1.1h20.65a10.77,10.77,0,0,0,7.89-3.24,10.92,10.92,0,0,0,3.25-8v-35.5h11.13v19.72a6.1,6.1,0,0,0,2,4.88,7,7,0,0,0,4.7,1.74h6.85a1.49,1.49,0,0,1,1.16.52,1.77,1.77,0,0,1,.46,1.22v9.86a1.62,1.62,0,0,1-.46,1.1,1.49,1.49,0,0,1-1.16.52h-5.34a9.51,9.51,0,0,1-5.63-1.39,12,12,0,0,1-2.72-2.55v3.48a18.76,18.76,0,0,1-1.8,8.18,21.67,21.67,0,0,1-4.87,6.61,23.15,23.15,0,0,1-15.72,6.09H476.25a24.78,24.78,0,0,1-17.75-7.37,25.9,25.9,0,0,1-5.34-8A24.63,24.63,0,0,1,451.19,280.27Zm27.73-47.1H491.1v12.19H478.92Z"/><path d="M543.3,265.89l2.32-11.95a17.24,17.24,0,0,1,2.09-5.57,15.63,15.63,0,0,1,3.77-4.35,18.54,18.54,0,0,1,5-2.84,16.55,16.55,0,0,1,5.91-1h6.5a17.91,17.91,0,0,1,7,1.39,17.72,17.72,0,0,1,5.74,3.83,18.6,18.6,0,0,1,3.89,5.74,17.37,17.37,0,0,1,1.45,7V272a12.7,12.7,0,0,1-3.66,9.28,12.37,12.37,0,0,1-9.22,3.71H560.47a14.44,14.44,0,0,1-6.73-1.62,14.23,14.23,0,0,1-5.45-5.34,14.53,14.53,0,0,1-5.8,5.34,16.13,16.13,0,0,1-7.08,1.62h-3a1.46,1.46,0,0,1-1.16-.52,1.78,1.78,0,0,1-.47-1.22v-9.86a1.44,1.44,0,0,1,1.63-1.62h3.71a7,7,0,0,0,4.64-1.63A7.44,7.44,0,0,0,543.3,265.89Zm15.78,5.92H575.9V258.12a5.36,5.36,0,0,0-1.51-3.89,5.11,5.11,0,0,0-3.83-1.57h-8.93a5.14,5.14,0,0,0-3.42,1.22,5.19,5.19,0,0,0-1.8,3.19l-1.86,9.28a4.19,4.19,0,0,0,.93,3.77A4.44,4.44,0,0,0,559.08,271.81Z"/><path d="M611.86,285H600.72V206.61h11.14Z"/><path d="M98.3,435.41A27.41,27.41,0,0,1,97,443.93a27.05,27.05,0,0,1-3.77,7.54,27.67,27.67,0,0,1-5.85,6,26.19,26.19,0,0,1-7.6,4l-15.08,5.1-3.48-10.78,15.54-5.11a16,16,0,0,0,7.48-5.22A13.23,13.23,0,0,0,87.05,437v-1.27a14.74,14.74,0,0,1-2.9.92,15,15,0,0,1-3.25.35H71.73a16.25,16.25,0,0,1-7.48-1.74,17.61,17.61,0,0,1-5.74-4.58,17.94,17.94,0,0,1-3.37-6.56,16,16,0,0,1-.23-7.65l2-10.56A16.68,16.68,0,0,1,59,400.37,17.45,17.45,0,0,1,62.86,396a18,18,0,0,1,5-2.9,16.55,16.55,0,0,1,5.81-1H80.2a17.56,17.56,0,0,1,7.14,1.45,18.66,18.66,0,0,1,5.74,3.89,17.77,17.77,0,0,1,3.83,5.74,18.31,18.31,0,0,1,1.39,7.13Zm-11.14-11.6V410.12a5.35,5.35,0,0,0-5.45-5.46H73a5.14,5.14,0,0,0-3.42,1.22,5.77,5.77,0,0,0-1.92,3.19l-1.74,9.28a4.19,4.19,0,0,0,.93,3.77,4.33,4.33,0,0,0,3.48,1.69Z"/><path d="M104.45,466.38,101,455.71l15.89-5.11a15.16,15.16,0,0,0,7.31-5.45,14.45,14.45,0,0,0,2.78-8.7v-39h11.14v37.94a26.41,26.41,0,0,1-1.34,8.41,27.73,27.73,0,0,1-3.76,7.42,27,27,0,0,1-5.86,6,29.63,29.63,0,0,1-7.6,4.06Z"/><path d="M167.55,437a13.65,13.65,0,0,1-5.56-1.16,14.11,14.11,0,0,1-4.59-3.13,15.73,15.73,0,0,1-3.07-4.58,13.77,13.77,0,0,1-1.16-5.63V408.38h9.63v12.06a3.35,3.35,0,0,0,.93,2.38,3,3,0,0,0,2.32,1H185a8.19,8.19,0,0,0,4.41-1.16,8,8,0,0,0,2.84-3,8.48,8.48,0,0,0,1-4,8.06,8.06,0,0,0-1-4l-14-24.95,9.4-6.26,14.73,26.1A20.35,20.35,0,0,1,205,417.14a21,21,0,0,1-2.73,9.86,20.12,20.12,0,0,1-7.13,7.25A19.68,19.68,0,0,1,184.72,437Z"/><path d="M234.72,437a16.25,16.25,0,0,1-7.48-1.74,17.61,17.61,0,0,1-5.74-4.58,17.24,17.24,0,0,1-3.31-6.56,17.57,17.57,0,0,1-.29-7.65l2-10.56a16.68,16.68,0,0,1,2.15-5.57,17.45,17.45,0,0,1,3.83-4.41,18,18,0,0,1,5-2.9,16.55,16.55,0,0,1,5.81-1h6.49a17.56,17.56,0,0,1,7.14,1.45,18.66,18.66,0,0,1,5.74,3.89,17.77,17.77,0,0,1,3.83,5.74,18.13,18.13,0,0,1,1.39,7.13v13.58h8.47a1.43,1.43,0,0,1,1.62,1.62v10a1.43,1.43,0,0,1-1.62,1.62h-8.59v1.51a23.26,23.26,0,0,1-1.68,7.42,26,26,0,0,1-3.89,6.62,27.45,27.45,0,0,1-5.68,5.28,30.38,30.38,0,0,1-7.19,3.65l-15.08,5.1-3.48-10.78,15.54-5.11a16,16,0,0,0,7.48-5.22A13.23,13.23,0,0,0,250,437v-1.27a14.74,14.74,0,0,1-2.9.92,15,15,0,0,1-3.25.35Zm-1.39-13.22h16.82V410.12a5.35,5.35,0,0,0-5.45-5.46H236a5.14,5.14,0,0,0-3.42,1.22,5.77,5.77,0,0,0-1.92,3.19l-1.74,9.28a4.19,4.19,0,0,0,.93,3.77A4.33,4.33,0,0,0,233.33,423.81Z"/><path d="M269.76,423.81h18.33a1.43,1.43,0,0,1,1.62,1.62v10a1.43,1.43,0,0,1-1.62,1.62H269.76a1.44,1.44,0,0,1-1.63-1.62v-10A1.44,1.44,0,0,1,269.76,423.81Z"/><path d="M288.09,423.81h18.33a1.43,1.43,0,0,1,1.62,1.62v10a1.43,1.43,0,0,1-1.62,1.62H288.09a1.44,1.44,0,0,1-1.63-1.62v-10A1.44,1.44,0,0,1,288.09,423.81Z"/><path d="M306.41,423.81h18.33a1.44,1.44,0,0,1,1.63,1.62v10a1.44,1.44,0,0,1-1.63,1.62H306.41a1.43,1.43,0,0,1-1.62-1.62v-10A1.43,1.43,0,0,1,306.41,423.81Z"/><path d="M324.74,423.81h18.33a1.44,1.44,0,0,1,1.63,1.62v10a1.44,1.44,0,0,1-1.63,1.62H324.74a1.43,1.43,0,0,1-1.62-1.62v-10A1.43,1.43,0,0,1,324.74,423.81Z"/><path d="M343.07,423.81H361.4a1.44,1.44,0,0,1,1.63,1.62v10A1.44,1.44,0,0,1,361.4,437H343.07a1.43,1.43,0,0,1-1.62-1.62v-10A1.43,1.43,0,0,1,343.07,423.81Z"/><path d="M359.78,425.55a1.72,1.72,0,0,1,.52-1.16,1.48,1.48,0,0,1,1.1-.58h20.07a31.5,31.5,0,0,0,10.09-1.63,20.8,20.8,0,0,0,8.47-5.33l7.89-7.89,1-1a3.24,3.24,0,0,1,.7-.58l-25.52-7.54a2.8,2.8,0,0,0-2.67.18,4.58,4.58,0,0,0-1.74,2.14l-3.94,10.79L366,410.23l2.9-10.09a14.23,14.23,0,0,1,3-5.74,16,16,0,0,1,4.81-3.77,16.73,16.73,0,0,1,5.8-1.74,14.21,14.21,0,0,1,6,.58l45.7,13.69-3.36,10.55-5.22-1.5a8.16,8.16,0,0,0-4.87.05,11.74,11.74,0,0,0-3.72,2.61l-13.45,12.88a30.67,30.67,0,0,1-11.2,7A38.36,38.36,0,0,1,379.38,437h-18a1.43,1.43,0,0,1-1.62-1.62Zm19.14-48.26H391.1V365.11H378.92Z"/><path d="M452,466.38l-3.48-10.67,15.9-5.11a15.13,15.13,0,0,0,7.3-5.45,14.39,14.39,0,0,0,2.79-8.7v-39h11.13v37.94a26.4,26.4,0,0,1-1.33,8.41,27.76,27.76,0,0,1-3.77,7.42,26.8,26.8,0,0,1-5.86,6,29.31,29.31,0,0,1-7.6,4.06Z"/><path d="M511.86,437H500.72V358.61h11.14Z"/><path d="M504.32,466.38l-3.48-10.67,15.78-5.22a14.6,14.6,0,0,0,10.21-14v-39H538v37.94a27,27,0,0,1-5.1,15.89,27.63,27.63,0,0,1-5.86,5.92,26.77,26.77,0,0,1-7.6,3.94ZM526,373.69H538.2v12.18H526Z"/><path d="M578.1,435.41a1.43,1.43,0,0,1-1.62,1.62h-3.71a19.1,19.1,0,0,1-7.6-1.51A19.75,19.75,0,0,1,559,431.4a18.85,18.85,0,0,1-4.18-6.14,19.26,19.26,0,0,1-1.5-7.6V358.61h11.13v58.7a6.19,6.19,0,0,0,1.92,4.64,6.33,6.33,0,0,0,4.58,1.86h5.57a1.49,1.49,0,0,1,1.16.52,1.77,1.77,0,0,1,.46,1.22Z"/><path d="M594.34,423.81a6.26,6.26,0,0,0,4.59-1.92,6.4,6.4,0,0,0,1.91-4.7V394.11H612v23.08a19.18,19.18,0,0,1-1.57,7.78,19.92,19.92,0,0,1-10.5,10.5,19,19,0,0,1-7.66,1.56H576.48a1.47,1.47,0,0,1-1.16-.52,1.64,1.64,0,0,1-.47-1.1v-9.86a1.78,1.78,0,0,1,.47-1.22,1.47,1.47,0,0,1,1.16-.52ZM579.26,451h12.18v12.18H579.26Z"/><path d="M86.59,609.45a24.78,24.78,0,0,1-17.75-7.37,25.87,25.87,0,0,1-5.33-8,24.45,24.45,0,0,1-2-9.8V551.33H72.67v31.32a13.62,13.62,0,0,0,1,5.28,12.83,12.83,0,0,0,2.91,4.29,14.46,14.46,0,0,0,4.35,2.9,12.8,12.8,0,0,0,5.27,1.1h20.65a10.74,10.74,0,0,0,7.89-3.24,10.88,10.88,0,0,0,3.25-8v-35.5h11.14v37.47a21.6,21.6,0,0,1-1.8,8.76,22.58,22.58,0,0,1-12,11.95,21.66,21.66,0,0,1-8.76,1.8Zm2.67-72.28h12.18v12.19H89.26Z"/><path d="M154.11,589H143V510.61h11.14Z"/><path d="M180.09,549.36v20.53a5.31,5.31,0,0,0,2,4.23,6.72,6.72,0,0,0,4.52,1.69h9.63a1.43,1.43,0,0,1,1.62,1.62v10a1.43,1.43,0,0,1-1.62,1.62h-7.77a13.09,13.09,0,0,1-4.64-.87,7.37,7.37,0,0,1-3.72-3.07v3a24.54,24.54,0,0,1-1.39,8.24,27.49,27.49,0,0,1-3.83,7.25,26.11,26.11,0,0,1-5.8,5.74,27.9,27.9,0,0,1-7.42,3.83l-15.08,5.11-3.48-10.56,15.77-5.22a14.08,14.08,0,0,0,7.37-5.4,14.86,14.86,0,0,0,2.73-8.75v-39Z"/><path d="M196.22,575.81h18.33a1.43,1.43,0,0,1,1.62,1.62v10a1.43,1.43,0,0,1-1.62,1.62H196.22a1.43,1.43,0,0,1-1.62-1.62v-10A1.43,1.43,0,0,1,196.22,575.81Z"/><path d="M214.55,575.81h18.33a1.43,1.43,0,0,1,1.62,1.62v10a1.43,1.43,0,0,1-1.62,1.62H214.55a1.44,1.44,0,0,1-1.63-1.62v-10A1.44,1.44,0,0,1,214.55,575.81Z"/><path d="M232.88,575.81h18.33a1.43,1.43,0,0,1,1.62,1.62v10a1.43,1.43,0,0,1-1.62,1.62H232.88a1.44,1.44,0,0,1-1.63-1.62v-10A1.44,1.44,0,0,1,232.88,575.81Z"/><path d="M251.21,575.81h18.33a1.43,1.43,0,0,1,1.62,1.62v10a1.43,1.43,0,0,1-1.62,1.62H251.21a1.44,1.44,0,0,1-1.63-1.62v-10A1.44,1.44,0,0,1,251.21,575.81Z"/><path d="M269.53,575.81h18.33a1.44,1.44,0,0,1,1.63,1.62v10a1.44,1.44,0,0,1-1.63,1.62H269.53a1.43,1.43,0,0,1-1.62-1.62v-10A1.43,1.43,0,0,1,269.53,575.81Z"/><path d="M287.86,575.81h18.33a1.44,1.44,0,0,1,1.63,1.62v10a1.44,1.44,0,0,1-1.63,1.62H287.86a1.43,1.43,0,0,1-1.62-1.62v-10A1.43,1.43,0,0,1,287.86,575.81Z"/><path d="M306.19,575.81h18.33a1.43,1.43,0,0,1,1.62,1.62v10a1.43,1.43,0,0,1-1.62,1.62H306.19a1.43,1.43,0,0,1-1.62-1.62v-10A1.43,1.43,0,0,1,306.19,575.81Z"/><path d="M324.52,575.81h18.33a1.43,1.43,0,0,1,1.62,1.62v10a1.43,1.43,0,0,1-1.62,1.62H324.52a1.43,1.43,0,0,1-1.62-1.62v-10A1.43,1.43,0,0,1,324.52,575.81Z"/><path d="M342.85,575.81h18.33a1.43,1.43,0,0,1,1.62,1.62v10a1.43,1.43,0,0,1-1.62,1.62H342.85a1.44,1.44,0,0,1-1.63-1.62v-10A1.44,1.44,0,0,1,342.85,575.81Z"/><path d="M361.18,575.81h18.33a1.43,1.43,0,0,1,1.62,1.62v10a1.43,1.43,0,0,1-1.62,1.62H361.18a1.44,1.44,0,0,1-1.63-1.62v-10A1.44,1.44,0,0,1,361.18,575.81Z"/><path d="M379.5,575.81h18.33a1.44,1.44,0,0,1,1.63,1.62v10a1.44,1.44,0,0,1-1.63,1.62H379.5a1.43,1.43,0,0,1-1.62-1.62v-10A1.43,1.43,0,0,1,379.5,575.81Z"/><path d="M397.83,575.81h18.33a1.44,1.44,0,0,1,1.63,1.62v10a1.44,1.44,0,0,1-1.63,1.62H397.83a1.43,1.43,0,0,1-1.62-1.62v-10A1.43,1.43,0,0,1,397.83,575.81Z"/><path d="M416.16,575.81h18.33a1.44,1.44,0,0,1,1.63,1.62v10a1.44,1.44,0,0,1-1.63,1.62H416.16a1.43,1.43,0,0,1-1.62-1.62v-10A1.43,1.43,0,0,1,416.16,575.81Z"/><path d="M434.49,575.81h18.33a1.43,1.43,0,0,1,1.62,1.62v10a1.43,1.43,0,0,1-1.62,1.62H434.49a1.43,1.43,0,0,1-1.62-1.62v-10A1.43,1.43,0,0,1,434.49,575.81Z"/><path d="M452.82,575.81h18.33a1.43,1.43,0,0,1,1.62,1.62v10a1.43,1.43,0,0,1-1.62,1.62H452.82a1.44,1.44,0,0,1-1.63-1.62v-10A1.44,1.44,0,0,1,452.82,575.81Z"/><path d="M471.15,575.81h18.33a1.43,1.43,0,0,1,1.62,1.62v10a1.43,1.43,0,0,1-1.62,1.62H471.15a1.44,1.44,0,0,1-1.63-1.62v-10A1.44,1.44,0,0,1,471.15,575.81Z"/><path d="M489.47,575.81H507.8a1.44,1.44,0,0,1,1.63,1.62v10A1.44,1.44,0,0,1,507.8,589H489.47a1.43,1.43,0,0,1-1.62-1.62v-10A1.43,1.43,0,0,1,489.47,575.81Z"/><path d="M507.8,575.81h18.33a1.44,1.44,0,0,1,1.63,1.62v10a1.44,1.44,0,0,1-1.63,1.62H507.8a1.43,1.43,0,0,1-1.62-1.62v-10A1.43,1.43,0,0,1,507.8,575.81Z"/><path d="M526.13,575.81h18.33a1.44,1.44,0,0,1,1.63,1.62v10a1.44,1.44,0,0,1-1.63,1.62H526.13a1.43,1.43,0,0,1-1.62-1.62v-10A1.43,1.43,0,0,1,526.13,575.81Z"/><path d="M569.29,575.81a6.26,6.26,0,0,0,4.58-1.92,6.4,6.4,0,0,0,1.91-4.7V546.11h11.14v23.08a19.18,19.18,0,0,1-1.57,7.78,19.92,19.92,0,0,1-10.5,10.5A19,19,0,0,1,567.2,589H544.46a1.49,1.49,0,0,1-1.16-.52,1.62,1.62,0,0,1-.46-1.1v-9.86a1.77,1.77,0,0,1,.46-1.22,1.49,1.49,0,0,1,1.16-.52ZM545.74,603h12.18v12.18H545.74ZM564,603h12.18v12.18H564Z"/><path d="M611.86,589H600.73V510.61h11.13Z"/></g></svg>