<svg xmlns="http://www.w3.org/2000/svg" viewBox="0 0 672 672"><defs><style>.cls-1{fill:#8fe044;}</style></defs><g id="Layer_3" data-name="Layer 3"><rect class="cls-1" width="672" height="672"/></g><g id="Layer_1" data-name="Layer 1"><path d="M96.86,382.94q-5.89,5.51-17.7,5.5H65.06v29.8h-7v-69.9h21.1q11.7,0,17.65,5.5t6,14.6Q102.76,377.44,96.86,382.94Zm-1.3-14.5q0-7-3.9-10.6t-12.5-3.6H65.06v28.2h14.1Q95.56,382.44,95.56,368.44Z"/><path d="M128.51,365.44a22.56,22.56,0,0,1,11.65-2.8v7.3h-1.9q-7.6,0-12.2,4.1t-4.6,13.7v30.5h-7v-54.6h7v9.7A17.09,17.09,0,0,1,128.51,365.44Z"/><path d="M150.56,351.84a5,5,0,0,1-1.5-3.7,4.86,4.86,0,0,1,1.5-3.65,5.19,5.19,0,0,1,7.2,0,4.86,4.86,0,0,1,1.5,3.65,5,5,0,0,1-1.5,3.7,5.07,5.07,0,0,1-7.2,0Zm7.1,11.8v54.6h-7v-54.6Z"/><path d="M173.76,376.09a24.2,24.2,0,0,1,9.4-9.8,27,27,0,0,1,13.7-3.45q10.09,0,16.65,5a22.68,22.68,0,0,1,8.45,13.6h-7.5a15.38,15.38,0,0,0-6.05-9.25,19.27,19.27,0,0,0-11.55-3.35,19.63,19.63,0,0,0-9.9,2.5,17.51,17.51,0,0,0-7,7.45,26.31,26.31,0,0,0-2.55,12.15,26.61,26.61,0,0,0,2.55,12.2,17.47,17.47,0,0,0,7,7.5,19.63,19.63,0,0,0,9.9,2.5,19.27,19.27,0,0,0,11.55-3.35,15.41,15.41,0,0,0,6.05-9.35H222a22.92,22.92,0,0,1-8.5,13.5q-6.6,5.1-16.6,5.1a27,27,0,0,1-13.7-3.45,24.2,24.2,0,0,1-9.4-9.8,34.13,34.13,0,0,1,0-29.7Z"/><path d="M284.06,393.64h-45.3a22,22,0,0,0,3,10.6,17.64,17.64,0,0,0,7.1,6.65,20.76,20.76,0,0,0,9.6,2.25,19.29,19.29,0,0,0,11.45-3.3,15.51,15.51,0,0,0,6.15-8.9h7.4A23.21,23.21,0,0,1,274.91,414Q268.36,419,258.46,419a27.5,27.5,0,0,1-13.8-3.45,24.36,24.36,0,0,1-9.55-9.8,30.62,30.62,0,0,1-3.45-14.85,31.26,31.26,0,0,1,3.4-14.9,23.57,23.57,0,0,1,9.5-9.8,28,28,0,0,1,13.9-3.4,26.64,26.64,0,0,1,13.65,3.4,23.54,23.54,0,0,1,9,9.15,26.08,26.08,0,0,1,3.15,12.75C284.26,390.54,284.19,392.37,284.06,393.64Zm-9.35-16.1a16.55,16.55,0,0,0-6.95-6.5,21.16,21.16,0,0,0-9.6-2.2,19.08,19.08,0,0,0-13.3,5q-5.51,5-6.1,14.1h38.4A19.46,19.46,0,0,0,274.71,377.54Z"/><path d="M334.51,415.59a24.91,24.91,0,0,1-9.7-9.8,29.88,29.88,0,0,1-3.55-14.85,29.58,29.58,0,0,1,3.6-14.85,25.16,25.16,0,0,1,9.8-9.8,28.07,28.07,0,0,1,13.9-3.45,28.4,28.4,0,0,1,13.95,3.45,24.83,24.83,0,0,1,9.8,9.8,30,30,0,0,1,3.55,14.85,29.68,29.68,0,0,1-3.6,14.8,24.88,24.88,0,0,1-9.9,9.85,28.67,28.67,0,0,1-14,3.45A27.8,27.8,0,0,1,334.51,415.59Zm23.85-5.1a18.72,18.72,0,0,0,7.45-7.4,24,24,0,0,0,2.85-12.15,24.42,24.42,0,0,0-2.8-12.15,18.42,18.42,0,0,0-7.4-7.4,21.63,21.63,0,0,0-20,0,18,18,0,0,0-7.35,7.4,28.22,28.22,0,0,0,0,24.3,18.08,18.08,0,0,0,7.3,7.4,20.68,20.68,0,0,0,9.95,2.45A21,21,0,0,0,358.36,410.49Z"/><path d="M410.16,369.54h-12.7v48.7h-7v-48.7h-7.6v-5.9h7.6v-3.8q0-8.89,4.55-13.1t14.75-4.2v6q-6.81,0-9.55,2.6c-1.84,1.73-2.75,4.63-2.75,8.7v3.8h12.7Z"/><path d="M87.56,518.24l-22.5-24.5v24.5h-7v-74h7V488l22-24.4h9.8L71,490.84l26.1,27.4Z"/><path d="M106,451.84a5,5,0,0,1-1.5-3.7,4.86,4.86,0,0,1,1.5-3.65,5.19,5.19,0,0,1,7.2,0,4.86,4.86,0,0,1,1.5,3.65,5,5,0,0,1-1.5,3.7,5.07,5.07,0,0,1-7.2,0Zm7.1,11.8v54.6h-7v-54.6Z"/><path d="M136,444.24v74h-7v-74Z"/><path d="M161.91,515.59a24.91,24.91,0,0,1-9.7-9.8,29.88,29.88,0,0,1-3.55-14.85,29.58,29.58,0,0,1,3.6-14.85,25.16,25.16,0,0,1,9.8-9.8,28.07,28.07,0,0,1,13.9-3.45,28.4,28.4,0,0,1,13.95,3.45,24.83,24.83,0,0,1,9.8,9.8,30,30,0,0,1,3.55,14.85,29.68,29.68,0,0,1-3.6,14.8,24.88,24.88,0,0,1-9.9,9.85,28.67,28.67,0,0,1-14,3.45A27.8,27.8,0,0,1,161.91,515.59Zm23.85-5.1a18.72,18.72,0,0,0,7.45-7.4,24,24,0,0,0,2.85-12.15,24.42,24.42,0,0,0-2.8-12.15,18.42,18.42,0,0,0-7.4-7.4,21.63,21.63,0,0,0-20,0,18,18,0,0,0-7.35,7.4,28.22,28.22,0,0,0,0,24.3,18.08,18.08,0,0,0,7.3,7.4,20.68,20.68,0,0,0,9.95,2.45A21,21,0,0,0,185.76,510.49Z"/><path d="M296.71,468.69q6,6,6.05,17.55v32h-6.9V487q0-8.9-4.3-13.6t-11.7-4.7q-7.71,0-12.3,5.1t-4.6,14.8v29.6h-6.9V487q0-8.9-4.3-13.6t-11.8-4.7q-7.71,0-12.3,5.1t-4.6,14.8v29.6h-7v-54.6h7V473a17.89,17.89,0,0,1,7.4-7.75,21.71,21.71,0,0,1,10.7-2.65,22.7,22.7,0,0,1,12.45,3.4,19.22,19.22,0,0,1,7.75,10,18.42,18.42,0,0,1,7.55-10,21.9,21.9,0,0,1,12.15-3.45Q290.66,462.64,296.71,468.69Z"/><path d="M367.46,493.64h-45.3a22,22,0,0,0,3,10.6,17.64,17.64,0,0,0,7.1,6.65,20.76,20.76,0,0,0,9.6,2.25,19.29,19.29,0,0,0,11.45-3.3,15.51,15.51,0,0,0,6.15-8.9h7.4A23.21,23.21,0,0,1,358.31,514q-6.56,5.06-16.45,5a27.5,27.5,0,0,1-13.8-3.45,24.36,24.36,0,0,1-9.55-9.8,30.62,30.62,0,0,1-3.45-14.85,31.26,31.26,0,0,1,3.4-14.9,23.57,23.57,0,0,1,9.5-9.8,28,28,0,0,1,13.9-3.4,26.64,26.64,0,0,1,13.65,3.4,23.54,23.54,0,0,1,9,9.15,26.08,26.08,0,0,1,3.15,12.75C367.66,490.54,367.59,492.37,367.46,493.64Zm-9.35-16.1a16.55,16.55,0,0,0-6.95-6.5,21.16,21.16,0,0,0-9.6-2.2,19.08,19.08,0,0,0-13.3,5q-5.5,5-6.1,14.1h38.4A19.46,19.46,0,0,0,358.11,477.54Z"/><path d="M389.56,469.54v33.9q0,5,1.9,6.9c1.26,1.27,3.5,1.9,6.7,1.9h6.4v6h-7.5q-7.41,0-11-3.45t-3.6-11.35v-33.9h-7.6v-5.9h7.6v-13.7h7.1v13.7h15v5.9Z"/><path d="M465.25,493.64H420a22,22,0,0,0,3,10.6,17.71,17.71,0,0,0,7.1,6.65,20.82,20.82,0,0,0,9.6,2.25,19.26,19.26,0,0,0,11.45-3.3,15.51,15.51,0,0,0,6.15-8.9h7.4A23.11,23.11,0,0,1,456.1,514q-6.54,5.06-16.45,5a27.56,27.56,0,0,1-13.8-3.45,24.42,24.42,0,0,1-9.55-9.8,30.62,30.62,0,0,1-3.45-14.85,31.38,31.38,0,0,1,3.4-14.9,23.69,23.69,0,0,1,9.5-9.8,28,28,0,0,1,13.9-3.4,26.64,26.64,0,0,1,13.65,3.4,23.54,23.54,0,0,1,9,9.15,26.08,26.08,0,0,1,3.15,12.75A54.52,54.52,0,0,1,465.25,493.64Zm-9.35-16.1A16.5,16.5,0,0,0,449,471a21.1,21.1,0,0,0-9.6-2.2,19.09,19.09,0,0,0-13.3,5q-5.49,5-6.1,14.1h38.4A19.37,19.37,0,0,0,455.9,477.54Z"/><path d="M492.3,465.44a22.56,22.56,0,0,1,11.65-2.8v7.3h-1.9q-7.59,0-12.2,4.1t-4.6,13.7v30.5h-7v-54.6h7v9.7A17.2,17.2,0,0,1,492.3,465.44Z"/><path d="M61.76,612.44h28.6v5.8H53.76v-5.8l28.1-43H54.26v-5.8h35.6v5.8Z"/><path d="M151.36,593.64h-45.3a22,22,0,0,0,3,10.6,17.71,17.71,0,0,0,7.1,6.65,20.76,20.76,0,0,0,9.6,2.25,19.29,19.29,0,0,0,11.45-3.3,15.51,15.51,0,0,0,6.15-8.9h7.4a23.16,23.16,0,0,1-8.55,13q-6.56,5.06-16.45,5a27.5,27.5,0,0,1-13.8-3.45,24.36,24.36,0,0,1-9.55-9.8A30.62,30.62,0,0,1,99,590.94a31.26,31.26,0,0,1,3.4-14.9,23.57,23.57,0,0,1,9.5-9.8,28,28,0,0,1,13.9-3.4,26.64,26.64,0,0,1,13.65,3.4,23.54,23.54,0,0,1,9,9.15,26.08,26.08,0,0,1,3.15,12.75C151.56,590.54,151.49,592.37,151.36,593.64ZM142,577.54a16.55,16.55,0,0,0-6.95-6.5,21.13,21.13,0,0,0-9.6-2.2,19.08,19.08,0,0,0-13.3,5q-5.5,5-6.1,14.1h38.4A19.46,19.46,0,0,0,142,577.54Z"/><path d="M178.41,565.44a22.54,22.54,0,0,1,11.65-2.8v7.3h-1.9q-7.6,0-12.2,4.1t-4.6,13.7v30.5h-7v-54.6h7v9.7A17.09,17.09,0,0,1,178.41,565.44Z"/><path d="M210.61,615.59a24.91,24.91,0,0,1-9.7-9.8,29.88,29.88,0,0,1-3.55-14.85,29.58,29.58,0,0,1,3.6-14.85,25.16,25.16,0,0,1,9.8-9.8,28.07,28.07,0,0,1,13.9-3.45,28.4,28.4,0,0,1,14,3.45,24.83,24.83,0,0,1,9.8,9.8A30,30,0,0,1,252,590.94a29.68,29.68,0,0,1-3.6,14.8,24.88,24.88,0,0,1-9.9,9.85,28.67,28.67,0,0,1-14,3.45A27.8,27.8,0,0,1,210.61,615.59Zm23.85-5.1a18.72,18.72,0,0,0,7.45-7.4,24,24,0,0,0,2.85-12.15,24.42,24.42,0,0,0-2.8-12.15,18.42,18.42,0,0,0-7.4-7.4,21.63,21.63,0,0,0-20,0,18,18,0,0,0-7.35,7.4,28.22,28.22,0,0,0,0,24.3,18.08,18.08,0,0,0,7.3,7.4,20.68,20.68,0,0,0,10,2.45A21,21,0,0,0,234.46,610.49Z"/><path d="M292.36,576.09a24.2,24.2,0,0,1,9.4-9.8,27,27,0,0,1,13.7-3.45q10.1,0,16.65,5a22.68,22.68,0,0,1,8.45,13.6h-7.5a15.38,15.38,0,0,0-6.05-9.25,19.27,19.27,0,0,0-11.55-3.35,19.63,19.63,0,0,0-9.9,2.5,17.51,17.51,0,0,0-6.95,7.45,26.31,26.31,0,0,0-2.55,12.15,26.61,26.61,0,0,0,2.55,12.2,17.47,17.47,0,0,0,6.95,7.5,19.63,19.63,0,0,0,9.9,2.5A19.27,19.27,0,0,0,327,609.79a15.41,15.41,0,0,0,6.05-9.35h7.5a22.92,22.92,0,0,1-8.5,13.5q-6.6,5.1-16.6,5.1a27,27,0,0,1-13.7-3.45,24.2,24.2,0,0,1-9.4-9.8,34.13,34.13,0,0,1,0-29.7Z"/><path d="M353.61,576.09a24,24,0,0,1,9.3-9.8,26.3,26.3,0,0,1,13.45-3.45,24.5,24.5,0,0,1,13.45,3.6,21,21,0,0,1,8.15,9.2v-12h7v54.6h-7v-12.1a22,22,0,0,1-8.25,9.25A24.28,24.28,0,0,1,376.26,619a25.83,25.83,0,0,1-13.35-3.5,24.17,24.17,0,0,1-9.3-9.9,31.39,31.39,0,0,1-3.35-14.8A31.07,31.07,0,0,1,353.61,576.09Zm41.65,3.25a19.29,19.29,0,0,0-7.35-7.7,20.05,20.05,0,0,0-10.25-2.7,20.77,20.77,0,0,0-10.4,2.6,18.35,18.35,0,0,0-7.25,7.55,24.53,24.53,0,0,0-2.65,11.75A24.89,24.89,0,0,0,360,602.59a18.56,18.56,0,0,0,7.25,7.7,20.39,20.39,0,0,0,10.4,2.65,20.05,20.05,0,0,0,10.25-2.7,19.29,19.29,0,0,0,7.35-7.7,26.27,26.27,0,0,0,0-23.2Z"/><path d="M435,565.44a22.54,22.54,0,0,1,11.65-2.8v7.3h-1.9q-7.61,0-12.2,4.1t-4.6,13.7v30.5h-7v-54.6h7v9.7A17.09,17.09,0,0,1,435,565.44Z"/><path d="M65.4,64.14a7.54,7.54,0,0,1-5.31,1.65H55.86v8.94h-2.1v-21h6.33a7.58,7.58,0,0,1,5.3,1.65,6.25,6.25,0,0,1,0,8.73ZM65,59.79a4.12,4.12,0,0,0-1.17-3.18,5.42,5.42,0,0,0-3.75-1.08H55.86V64h4.23Q65,64,65,59.79Z"/><path d="M73.69,73.93A7.39,7.39,0,0,1,70.78,71a9,9,0,0,1-1.06-4.46,8.86,8.86,0,0,1,1.08-4.45,7.55,7.55,0,0,1,2.94-2.94,8.9,8.9,0,0,1,8.35,0A7.42,7.42,0,0,1,85,62.09,9.73,9.73,0,0,1,85,71a7.4,7.4,0,0,1-3,3,8.6,8.6,0,0,1-4.2,1A8.39,8.39,0,0,1,73.69,73.93Zm7.16-1.53a5.47,5.47,0,0,0,2.23-2.22,7.08,7.08,0,0,0,.86-3.64,7.26,7.26,0,0,0-.84-3.64,5.45,5.45,0,0,0-2.22-2.22,6.45,6.45,0,0,0-6,0,5.29,5.29,0,0,0-2.2,2.22,8.4,8.4,0,0,0,0,7.28,5.25,5.25,0,0,0,2.18,2.22,6.11,6.11,0,0,0,3,.74A6.17,6.17,0,0,0,80.85,72.4Z"/><path d="M94.48,59.21a7.29,7.29,0,0,1,4-1.1,7.82,7.82,0,0,1,4,1,7.2,7.2,0,0,1,2.79,2.94,9.33,9.33,0,0,1,1,4.42,9.44,9.44,0,0,1-1,4.44,7.28,7.28,0,0,1-2.79,3,7.73,7.73,0,0,1-4,1,7.21,7.21,0,0,1-4-1.1A6.53,6.53,0,0,1,92,71.13V82.47H89.94V58.35H92V62A6.6,6.6,0,0,1,94.48,59.21ZM103.4,63a5.62,5.62,0,0,0-2.18-2.27,6.23,6.23,0,0,0-3.12-.78,6,6,0,0,0-3.08.81,5.77,5.77,0,0,0-2.2,2.31,7.88,7.88,0,0,0,0,7A5.77,5.77,0,0,0,95,72.33a6.37,6.37,0,0,0,6.2,0A5.54,5.54,0,0,0,103.4,70a7.55,7.55,0,0,0,.79-3.52A7.44,7.44,0,0,0,103.4,63Z"/><path d="M114.73,59.21a7.29,7.29,0,0,1,4-1.1,7.82,7.82,0,0,1,4,1,7.2,7.2,0,0,1,2.79,2.94,9.33,9.33,0,0,1,1,4.42,9.44,9.44,0,0,1-1,4.44,7.28,7.28,0,0,1-2.79,3,7.73,7.73,0,0,1-4,1,7.21,7.21,0,0,1-4-1.1,6.53,6.53,0,0,1-2.49-2.74V82.47h-2.07V58.35h2.07V62A6.6,6.6,0,0,1,114.73,59.21ZM123.64,63a5.53,5.53,0,0,0-2.17-2.27,6.23,6.23,0,0,0-3.12-.78,6,6,0,0,0-3.08.81,5.77,5.77,0,0,0-2.2,2.31,7.88,7.88,0,0,0,0,7,5.77,5.77,0,0,0,2.2,2.31,6.37,6.37,0,0,0,6.2,0A5.46,5.46,0,0,0,123.64,70a7.43,7.43,0,0,0,.8-3.52A7.32,7.32,0,0,0,123.64,63Z"/><path d="M130.41,54.81A1.51,1.51,0,0,1,130,53.7a1.49,1.49,0,0,1,.45-1.1,1.57,1.57,0,0,1,2.16,0,1.49,1.49,0,0,1,.45,1.1,1.51,1.51,0,0,1-.45,1.11,1.52,1.52,0,0,1-2.16,0Zm2.13,3.54V74.73h-2.1V58.35Z"/><path d="M149.79,59.87a7,7,0,0,1,1.86,5.26v9.6h-2.07V65.37a5.71,5.71,0,0,0-1.34-4.08,4.77,4.77,0,0,0-3.64-1.41,4.94,4.94,0,0,0-3.78,1.5,6.21,6.21,0,0,0-1.41,4.41v8.94h-2.1V58.35h2.1v2.79a5.43,5.43,0,0,1,2.25-2.3,7,7,0,0,1,3.33-.79A6.59,6.59,0,0,1,149.79,59.87Z"/><path d="M157.33,73.66a4.74,4.74,0,0,1-2-3.55h2.16a3.06,3.06,0,0,0,1.3,2.23,5.12,5.12,0,0,0,3.11.86,4.06,4.06,0,0,0,2.68-.81,2.52,2.52,0,0,0,1-2A1.87,1.87,0,0,0,165,69a3.71,3.71,0,0,0-1.37-.85,18.88,18.88,0,0,0-2.23-.68,22.73,22.73,0,0,1-3-1,5.17,5.17,0,0,1-1.94-1.42,3.82,3.82,0,0,1-.79-2.54,3.77,3.77,0,0,1,.72-2.22,4.91,4.91,0,0,1,2-1.62,7.17,7.17,0,0,1,3-.6,6.54,6.54,0,0,1,4.26,1.33,4.87,4.87,0,0,1,1.74,3.68h-2.1a3.22,3.22,0,0,0-1.13-2.33,4.26,4.26,0,0,0-2.83-.88,4.16,4.16,0,0,0-2.58.75,2.26,2.26,0,0,0-1,1.86,2.16,2.16,0,0,0,.58,1.57,3.94,3.94,0,0,0,1.46,1c.58.23,1.36.48,2.34.76a22.1,22.1,0,0,1,2.82.93,4.89,4.89,0,0,1,1.8,1.32,3.53,3.53,0,0,1,.78,2.31,4.06,4.06,0,0,1-.72,2.36,4.89,4.89,0,0,1-2,1.63,7,7,0,0,1-3,.6A7.63,7.63,0,0,1,157.33,73.66Z"/><path d="M181.92,73h7.53v1.71h-9.63v-21h2.1Z"/><path d="M192.42,54.81A1.51,1.51,0,0,1,192,53.7a1.49,1.49,0,0,1,.45-1.1,1.57,1.57,0,0,1,2.16,0,1.49,1.49,0,0,1,.45,1.1,1.51,1.51,0,0,1-.45,1.11,1.52,1.52,0,0,1-2.16,0Zm2.13,3.54V74.73h-2.1V58.35Z"/><path d="M210.21,59.19a6.3,6.3,0,0,1,2.46,2.73V58.35h2.1v16.8a8,8,0,0,1-1,4,6.72,6.72,0,0,1-2.71,2.68,8.06,8.06,0,0,1-4,1,8.75,8.75,0,0,1-5.24-1.5,6.36,6.36,0,0,1-2.59-4.08h2.07a5,5,0,0,0,2,2.73,6.5,6.5,0,0,0,3.71,1,5.94,5.94,0,0,0,2.85-.68,4.81,4.81,0,0,0,2-2,6.42,6.42,0,0,0,.72-3.12V71.1a6.52,6.52,0,0,1-2.48,2.77,7.12,7.12,0,0,1-4,1.1,7.83,7.83,0,0,1-4-1,7.28,7.28,0,0,1-2.79-3,9.44,9.44,0,0,1-1-4.44,9.33,9.33,0,0,1,1-4.42,7.2,7.2,0,0,1,2.79-2.94,7.92,7.92,0,0,1,4-1A7.37,7.37,0,0,1,210.21,59.19Zm1.65,3.87a5.79,5.79,0,0,0-2.21-2.31,6,6,0,0,0-3.07-.81,6.23,6.23,0,0,0-3.12.78A5.55,5.55,0,0,0,201.28,63a7.32,7.32,0,0,0-.79,3.52,7.43,7.43,0,0,0,.79,3.52,5.48,5.48,0,0,0,2.18,2.31,6.35,6.35,0,0,0,6.19,0A5.79,5.79,0,0,0,211.86,70a7.88,7.88,0,0,0,0-7Z"/><path d="M230.71,58.83a5.6,5.6,0,0,1,2.34,2.38,8.29,8.29,0,0,1,.86,3.92v9.6h-2.07V65.37a5.71,5.71,0,0,0-1.34-4.08,4.77,4.77,0,0,0-3.64-1.41,4.94,4.94,0,0,0-3.78,1.5,6.21,6.21,0,0,0-1.41,4.41v8.94h-2.1V52.53h2.1v8.61A5.42,5.42,0,0,1,224,58.86a7.56,7.56,0,0,1,6.75,0Z"/><path d="M241.29,60.12V70.29a2.91,2.91,0,0,0,.57,2.07,2.81,2.81,0,0,0,2,.57h1.92v1.8h-2.25a4.61,4.61,0,0,1-3.3-1,4.55,4.55,0,0,1-1.08-3.4V60.12h-2.28V58.35h2.28V54.24h2.13v4.11h4.5v1.77Z"/></g></svg>