<svg xmlns="http://www.w3.org/2000/svg" viewBox="0 0 672 672"><defs><style>.cls-1{fill:#8fe044;}</style></defs><g id="Layer_3" data-name="Layer 3"><rect class="cls-1" width="672" height="672"/></g><g id="Layer_1" data-name="Layer 1"><path d="M98.41,383.39q-6,5.75-18.15,5.75H66.86v29.1h-9.1v-69.7h22.5q11.8,0,17.95,5.7a20.58,20.58,0,0,1,.2,29.15Zm-7-5.05q3.6-3.3,3.6-9.4,0-12.9-14.8-12.9H66.86v25.6h13.4Q87.87,381.64,91.46,378.34Z"/><path d="M131.61,365a21.21,21.21,0,0,1,10.85-2.6v9.4h-2.4q-15.3,0-15.3,16.6v29.8h-9.1v-54.8h9.1v8.9A17.44,17.44,0,0,1,131.61,365Z"/><path d="M153.26,352.74a6.2,6.2,0,0,1,4.4-10.6,5.72,5.72,0,0,1,4.25,1.8,6.41,6.41,0,0,1,0,8.8,5.72,5.72,0,0,1-4.25,1.8A6,6,0,0,1,153.26,352.74Zm8.8,10.7v54.8H153v-54.8Z"/><path d="M177.56,375.89A24.38,24.38,0,0,1,187,366a27.18,27.18,0,0,1,13.85-3.5q10.09,0,16.65,4.9a23.17,23.17,0,0,1,8.65,13.6h-9.8a14.1,14.1,0,0,0-5.45-7.9,16.84,16.84,0,0,0-10-2.9,16.11,16.11,0,0,0-12.6,5.35q-4.8,5.36-4.8,15.15t4.8,15.3a16.05,16.05,0,0,0,12.6,5.4,17,17,0,0,0,10-2.8,14.23,14.23,0,0,0,5.5-8h9.8a24.13,24.13,0,0,1-8.8,13.45q-6.6,5.06-16.5,5.05a27.18,27.18,0,0,1-13.85-3.5,24.26,24.26,0,0,1-9.45-9.9,31.5,31.5,0,0,1-3.4-15A31,31,0,0,1,177.56,375.89Z"/><path d="M288,394.24h-43.8q.5,8.1,5.55,12.65A17.66,17.66,0,0,0,262,411.44a16.87,16.87,0,0,0,9.85-2.75,14.57,14.57,0,0,0,5.55-7.35h9.8a23.56,23.56,0,0,1-8.8,12.85q-6.6,4.95-16.4,4.95a27.73,27.73,0,0,1-13.95-3.5,24.73,24.73,0,0,1-9.65-9.95,30.77,30.77,0,0,1-3.5-14.95,31.26,31.26,0,0,1,3.4-14.9,23.81,23.81,0,0,1,9.55-9.85A28.41,28.41,0,0,1,262,362.54a27.47,27.47,0,0,1,13.8,3.4,23.56,23.56,0,0,1,9.25,9.35,27.68,27.68,0,0,1,3.25,13.45A53.55,53.55,0,0,1,288,394.24Zm-11.4-16.35a15,15,0,0,0-6.25-5.7,19.51,19.51,0,0,0-8.75-1.95,16.88,16.88,0,0,0-11.75,4.4q-4.86,4.39-5.55,12.2h34.6A16.81,16.81,0,0,0,276.56,377.89Z"/><path d="M336.91,415.64a24.83,24.83,0,0,1-9.8-9.95,30.46,30.46,0,0,1-3.55-14.95,29.56,29.56,0,0,1,3.65-14.85,25.13,25.13,0,0,1,10-9.9,30.54,30.54,0,0,1,28.2,0,25.26,25.26,0,0,1,9.95,9.85,29.59,29.59,0,0,1,3.65,14.9,29.19,29.19,0,0,1-3.75,14.95,26,26,0,0,1-10.15,9.95,29.15,29.15,0,0,1-14.2,3.5A28.06,28.06,0,0,1,336.91,415.64Zm23.15-6.8a17.52,17.52,0,0,0,6.95-6.9,22.18,22.18,0,0,0,2.65-11.2,22.49,22.49,0,0,0-2.6-11.2,17,17,0,0,0-6.8-6.85,19.63,19.63,0,0,0-18.25,0,16.42,16.42,0,0,0-6.65,6.85,23.14,23.14,0,0,0-2.5,11.2,23.72,23.72,0,0,0,2.45,11.3,16.21,16.21,0,0,0,6.55,6.85,18.38,18.38,0,0,0,9,2.25A19.28,19.28,0,0,0,360.06,408.84Z"/><path d="M413.26,370.94h-11.5v47.3h-9.1v-47.3h-7.1v-7.5h7.1v-3.9q0-9.19,4.75-13.45t15.25-4.25v7.6q-6,0-8.45,2.35c-1.64,1.57-2.45,4.15-2.45,7.75v3.9h11.5Z"/><path d="M88.36,518.24,66.86,494v24.2h-9.1v-74h9.1v43.5L88,463.44h12.7l-25.8,27.3,25.9,27.5Z"/><path d="M109.56,452.74a6.2,6.2,0,0,1,4.4-10.6,5.71,5.71,0,0,1,4.25,1.8,6.41,6.41,0,0,1,0,8.8,5.71,5.71,0,0,1-4.25,1.8A6,6,0,0,1,109.56,452.74Zm8.8,10.7v54.8h-9.1v-54.8Z"/><path d="M143,444.24v74h-9.1v-74Z"/><path d="M168.41,515.64a24.83,24.83,0,0,1-9.8-9.95,30.46,30.46,0,0,1-3.55-14.95,29.56,29.56,0,0,1,3.65-14.85,25.13,25.13,0,0,1,9.95-9.9,30.54,30.54,0,0,1,28.2,0,25.26,25.26,0,0,1,9.95,9.85,29.59,29.59,0,0,1,3.65,14.9,29.19,29.19,0,0,1-3.75,14.95,26,26,0,0,1-10.15,9.95,29.15,29.15,0,0,1-14.2,3.5A28.06,28.06,0,0,1,168.41,515.64Zm23.15-6.8a17.52,17.52,0,0,0,6.95-6.9,22.18,22.18,0,0,0,2.65-11.2,22.49,22.49,0,0,0-2.6-11.2,17,17,0,0,0-6.8-6.85,19.63,19.63,0,0,0-18.25,0,16.42,16.42,0,0,0-6.65,6.85,23.14,23.14,0,0,0-2.5,11.2,23.72,23.72,0,0,0,2.45,11.3,16.21,16.21,0,0,0,6.55,6.85,18.38,18.38,0,0,0,9,2.25A19.28,19.28,0,0,0,191.56,508.84Z"/><path d="M299.76,465.09a19.22,19.22,0,0,1,7.9,8,26.56,26.56,0,0,1,2.9,12.9v32.3h-9v-31q0-8.21-4.05-12.55t-10.95-4.35q-7.11,0-11.3,4.55T271.06,488v30.2h-9v-31q0-8.21-4.05-12.55t-10.95-4.35q-7.11,0-11.3,4.55T231.56,488v30.2h-9.1v-54.8h9.1v7.9a17.89,17.89,0,0,1,7.25-6.6,22,22,0,0,1,10.05-2.3,23.7,23.7,0,0,1,12.2,3.1,19,19,0,0,1,7.9,9.1,17.9,17.9,0,0,1,7.6-9,22.39,22.39,0,0,1,11.8-3.2A24,24,0,0,1,299.76,465.09Z"/><path d="M375.16,494.24h-43.8q.5,8.1,5.55,12.65a17.66,17.66,0,0,0,12.25,4.55,16.87,16.87,0,0,0,9.85-2.75,14.57,14.57,0,0,0,5.55-7.35h9.8a23.56,23.56,0,0,1-8.8,12.85q-6.6,4.95-16.4,4.95a27.73,27.73,0,0,1-14-3.5,24.73,24.73,0,0,1-9.65-9.95,30.77,30.77,0,0,1-3.5-14.95,31.26,31.26,0,0,1,3.4-14.9A23.81,23.81,0,0,1,335,466a28.41,28.41,0,0,1,14.15-3.45,27.47,27.47,0,0,1,13.8,3.4,23.56,23.56,0,0,1,9.25,9.35,27.68,27.68,0,0,1,3.25,13.45A53.55,53.55,0,0,1,375.16,494.24Zm-11.4-16.35a15,15,0,0,0-6.25-5.7,19.51,19.51,0,0,0-8.75-1.95,16.88,16.88,0,0,0-11.75,4.4q-4.86,4.39-5.55,12.2h34.6A16.81,16.81,0,0,0,363.76,477.89Z"/><path d="M398.56,470.94v32.3c0,2.67.56,4.55,1.7,5.65s3.1,1.65,5.9,1.65h6.7v7.7h-8.2q-7.61,0-11.4-3.5t-3.8-11.5v-32.3h-7.1v-7.5h7.1v-13.8h9.1v13.8h14.3v7.5Z"/><path d="M473.56,494.24h-43.8q.5,8.1,5.55,12.65a17.66,17.66,0,0,0,12.25,4.55,16.87,16.87,0,0,0,9.85-2.75,14.57,14.57,0,0,0,5.55-7.35h9.8a23.56,23.56,0,0,1-8.8,12.85q-6.6,4.95-16.4,4.95a27.73,27.73,0,0,1-13.95-3.5,24.73,24.73,0,0,1-9.65-9.95,30.77,30.77,0,0,1-3.5-14.95,31.26,31.26,0,0,1,3.4-14.9,23.81,23.81,0,0,1,9.55-9.85,28.41,28.41,0,0,1,14.15-3.45,27.47,27.47,0,0,1,13.8,3.4,23.56,23.56,0,0,1,9.25,9.35,27.68,27.68,0,0,1,3.25,13.45A53.55,53.55,0,0,1,473.56,494.24Zm-11.4-16.35a15,15,0,0,0-6.25-5.7,19.51,19.51,0,0,0-8.75-1.95,16.88,16.88,0,0,0-11.75,4.4q-4.86,4.39-5.55,12.2h34.6A16.81,16.81,0,0,0,462.16,477.89Z"/><path d="M501.81,465a21.18,21.18,0,0,1,10.85-2.6v9.4h-2.4q-15.3,0-15.3,16.6v29.8h-9.1v-54.8H495v8.9A17.44,17.44,0,0,1,501.81,465Z"/><path d="M64.56,610.74h26.9v7.5H54.16v-7.5l26.6-39.9H54.36v-7.4h36.9v7.4Z"/><path d="M153,594.24h-43.8q.5,8.1,5.55,12.65A17.66,17.66,0,0,0,127,611.44a16.87,16.87,0,0,0,9.85-2.75,14.57,14.57,0,0,0,5.55-7.35h9.8a23.56,23.56,0,0,1-8.8,12.85q-6.6,4.95-16.4,4.95a27.73,27.73,0,0,1-13.95-3.5,24.73,24.73,0,0,1-9.65-9.95,30.77,30.77,0,0,1-3.5-15,31.26,31.26,0,0,1,3.4-14.9,23.81,23.81,0,0,1,9.55-9.85A28.41,28.41,0,0,1,127,562.54a27.47,27.47,0,0,1,13.8,3.4,23.56,23.56,0,0,1,9.25,9.35,27.68,27.68,0,0,1,3.25,13.45A53.55,53.55,0,0,1,153,594.24Zm-11.4-16.35a15,15,0,0,0-6.25-5.7,19.51,19.51,0,0,0-8.75-2,16.88,16.88,0,0,0-11.75,4.4q-4.86,4.4-5.55,12.2h34.6A16.81,16.81,0,0,0,141.56,577.89Z"/><path d="M181.21,565a21.18,21.18,0,0,1,10.85-2.6v9.4h-2.4q-15.3,0-15.3,16.6v29.8h-9.1v-54.8h9.1v8.9A17.44,17.44,0,0,1,181.21,565Z"/><path d="M212.51,615.64a24.83,24.83,0,0,1-9.8-9.95,30.46,30.46,0,0,1-3.55-15,29.56,29.56,0,0,1,3.65-14.85,25.13,25.13,0,0,1,9.95-9.9,30.54,30.54,0,0,1,28.2,0,25.26,25.26,0,0,1,9.95,9.85,29.59,29.59,0,0,1,3.65,14.9,29.19,29.19,0,0,1-3.75,15,26,26,0,0,1-10.15,9.95,29.15,29.15,0,0,1-14.2,3.5A28.06,28.06,0,0,1,212.51,615.64Zm23.15-6.8a17.52,17.52,0,0,0,7-6.9,22.18,22.18,0,0,0,2.65-11.2,22.49,22.49,0,0,0-2.6-11.2,17,17,0,0,0-6.8-6.85,19.63,19.63,0,0,0-18.25,0,16.42,16.42,0,0,0-6.65,6.85,23.14,23.14,0,0,0-2.5,11.2,23.72,23.72,0,0,0,2.45,11.3,16.21,16.21,0,0,0,6.55,6.85,18.38,18.38,0,0,0,9,2.25A19.28,19.28,0,0,0,235.66,608.84Z"/><path d="M293.26,575.89a24.38,24.38,0,0,1,9.45-9.85,27.18,27.18,0,0,1,13.85-3.5q10.1,0,16.65,4.9a23.17,23.17,0,0,1,8.65,13.6h-9.8a14.1,14.1,0,0,0-5.45-7.9,16.84,16.84,0,0,0-10.05-2.9,16.11,16.11,0,0,0-12.6,5.35q-4.8,5.35-4.8,15.15T304,606a16.05,16.05,0,0,0,12.6,5.4,17,17,0,0,0,10-2.8,14.23,14.23,0,0,0,5.5-8h9.8a24.13,24.13,0,0,1-8.8,13.45q-6.6,5.05-16.5,5a27.18,27.18,0,0,1-13.85-3.5,24.26,24.26,0,0,1-9.45-9.9,31.5,31.5,0,0,1-3.4-15A31,31,0,0,1,293.26,575.89Z"/><path d="M354,575.89a24.6,24.6,0,0,1,9.35-9.85,25.65,25.65,0,0,1,13.25-3.5,24.3,24.3,0,0,1,12.5,3.1,20.77,20.77,0,0,1,7.9,7.8v-10h9.2v54.8H397V608a21.49,21.49,0,0,1-8,8,24.1,24.1,0,0,1-12.45,3.15,24.82,24.82,0,0,1-13.2-3.6,25.18,25.18,0,0,1-9.3-10.1,31.41,31.41,0,0,1-3.4-14.8A30.73,30.73,0,0,1,354,575.89Zm40.5,4.05a17.66,17.66,0,0,0-6.75-7.05,19.14,19.14,0,0,0-18.65,0,17.35,17.35,0,0,0-6.7,7,22.26,22.26,0,0,0-2.5,10.8,22.76,22.76,0,0,0,2.5,11,17.62,17.62,0,0,0,6.7,7.1,18.15,18.15,0,0,0,9.3,2.45,18.44,18.44,0,0,0,9.35-2.45,17.6,17.6,0,0,0,6.75-7.1,22.66,22.66,0,0,0,2.5-10.85A22.37,22.37,0,0,0,394.46,579.94Z"/><path d="M437.51,565a21.18,21.18,0,0,1,10.85-2.6v9.4H446q-15.3,0-15.3,16.6v29.8h-9.1v-54.8h9.1v8.9A17.44,17.44,0,0,1,437.51,565Z"/><path d="M65.4,64.14a7.54,7.54,0,0,1-5.31,1.65H55.86v8.94h-2.1v-21h6.33a7.56,7.56,0,0,1,5.3,1.65,6.25,6.25,0,0,1,0,8.73ZM65,59.79a4.12,4.12,0,0,0-1.17-3.18,5.42,5.42,0,0,0-3.75-1.08H55.86V64h4.23Q65,64,65,59.79Z"/><path d="M73.7,73.93A7.33,7.33,0,0,1,70.79,71a9.77,9.77,0,0,1,0-8.91,7.55,7.55,0,0,1,2.94-2.94,8.43,8.43,0,0,1,4.17-1,8.56,8.56,0,0,1,4.19,1A7.55,7.55,0,0,1,85,62.09a9.07,9.07,0,0,1,1.06,4.45A8.9,8.9,0,0,1,85,71a7.4,7.4,0,0,1-3,3,8.6,8.6,0,0,1-4.2,1A8.33,8.33,0,0,1,73.7,73.93Zm7.15-1.53a5.41,5.41,0,0,0,2.23-2.22,7.08,7.08,0,0,0,.86-3.64,7.26,7.26,0,0,0-.84-3.64,5.45,5.45,0,0,0-2.22-2.22,6.45,6.45,0,0,0-6,0,5.29,5.29,0,0,0-2.2,2.22,8.4,8.4,0,0,0,0,7.28,5.22,5.22,0,0,0,2.19,2.22,6,6,0,0,0,3,.74A6.17,6.17,0,0,0,80.85,72.4Z"/><path d="M94.49,59.21a7.23,7.23,0,0,1,4-1.1,7.82,7.82,0,0,1,4,1,7.2,7.2,0,0,1,2.79,2.94,9.33,9.33,0,0,1,1,4.42,9.44,9.44,0,0,1-1,4.44,7.28,7.28,0,0,1-2.79,3,7.73,7.73,0,0,1-4,1,7.21,7.21,0,0,1-4-1.1A6.53,6.53,0,0,1,92,71.13V82.47H89.94V58.35H92V62A6.56,6.56,0,0,1,94.49,59.21ZM103.4,63a5.62,5.62,0,0,0-2.18-2.27,6.23,6.23,0,0,0-3.12-.78,6.06,6.06,0,0,0-3.08.81,5.77,5.77,0,0,0-2.2,2.31,7.88,7.88,0,0,0,0,7A5.77,5.77,0,0,0,95,72.33a6.37,6.37,0,0,0,6.2,0A5.54,5.54,0,0,0,103.4,70a7.55,7.55,0,0,0,.79-3.52A7.44,7.44,0,0,0,103.4,63Z"/><path d="M114.73,59.21a7.29,7.29,0,0,1,4-1.1,7.82,7.82,0,0,1,4,1,7.2,7.2,0,0,1,2.79,2.94,9.33,9.33,0,0,1,1,4.42,9.44,9.44,0,0,1-1,4.44,7.28,7.28,0,0,1-2.79,3,7.73,7.73,0,0,1-4,1,7.21,7.21,0,0,1-4-1.1,6.53,6.53,0,0,1-2.49-2.74V82.47h-2.07V58.35h2.07V62A6.6,6.6,0,0,1,114.73,59.21ZM123.64,63a5.53,5.53,0,0,0-2.17-2.27,6.23,6.23,0,0,0-3.12-.78,6,6,0,0,0-3.08.81,5.77,5.77,0,0,0-2.2,2.31,7.88,7.88,0,0,0,0,7,5.77,5.77,0,0,0,2.2,2.31,6.37,6.37,0,0,0,6.2,0A5.46,5.46,0,0,0,123.64,70a7.43,7.43,0,0,0,.8-3.52A7.32,7.32,0,0,0,123.64,63Z"/><path d="M130.41,54.81A1.51,1.51,0,0,1,130,53.7a1.49,1.49,0,0,1,.45-1.1,1.57,1.57,0,0,1,2.16,0,1.49,1.49,0,0,1,.45,1.1,1.51,1.51,0,0,1-.45,1.11,1.52,1.52,0,0,1-2.16,0Zm2.13,3.54V74.73h-2.1V58.35Z"/><path d="M149.79,59.87a7,7,0,0,1,1.86,5.26v9.6h-2.07V65.37a5.71,5.71,0,0,0-1.34-4.08,4.77,4.77,0,0,0-3.64-1.41,4.94,4.94,0,0,0-3.78,1.5,6.21,6.21,0,0,0-1.41,4.41v8.94h-2.1V58.35h2.1v2.79a5.43,5.43,0,0,1,2.25-2.3,7,7,0,0,1,3.33-.79A6.59,6.59,0,0,1,149.79,59.87Z"/><path d="M157.33,73.66a4.74,4.74,0,0,1-2-3.55h2.16a3.06,3.06,0,0,0,1.3,2.23,5.12,5.12,0,0,0,3.11.86,4.06,4.06,0,0,0,2.68-.81,2.52,2.52,0,0,0,1-2A1.87,1.87,0,0,0,165,69a3.71,3.71,0,0,0-1.37-.85,18.88,18.88,0,0,0-2.23-.68,22.73,22.73,0,0,1-3-1,5.17,5.17,0,0,1-1.94-1.42,3.82,3.82,0,0,1-.79-2.54,3.77,3.77,0,0,1,.72-2.22,4.91,4.91,0,0,1,2-1.62,7.17,7.17,0,0,1,3-.6,6.54,6.54,0,0,1,4.26,1.33,4.87,4.87,0,0,1,1.74,3.68h-2.1a3.22,3.22,0,0,0-1.13-2.33,4.26,4.26,0,0,0-2.83-.88,4.16,4.16,0,0,0-2.58.75,2.26,2.26,0,0,0-1,1.86,2.16,2.16,0,0,0,.58,1.57,3.94,3.94,0,0,0,1.46,1c.58.23,1.36.48,2.34.76a22.1,22.1,0,0,1,2.82.93,4.89,4.89,0,0,1,1.8,1.32,3.53,3.53,0,0,1,.78,2.31,4.06,4.06,0,0,1-.72,2.36,4.89,4.89,0,0,1-2,1.63,7,7,0,0,1-3,.6A7.63,7.63,0,0,1,157.33,73.66Z"/><path d="M191,74.73,185.79,66h-3.87v8.76h-2.1v-21h6.3a7.56,7.56,0,0,1,5.32,1.68,5.73,5.73,0,0,1,1.82,4.41A6,6,0,0,1,192,63.74a6.23,6.23,0,0,1-3.85,2.08l5.4,8.91Zm-9.06-10.47h4.23a5.13,5.13,0,0,0,3.7-1.2,4.26,4.26,0,0,0,1.25-3.21,4.18,4.18,0,0,0-1.2-3.2,5.39,5.39,0,0,0-3.78-1.12h-4.2Z"/><path d="M212.19,67.35H198.6a6.59,6.59,0,0,0,.9,3.18,5.38,5.38,0,0,0,2.13,2,6.36,6.36,0,0,0,2.88.67,5.77,5.77,0,0,0,3.43-1,4.66,4.66,0,0,0,1.85-2.67H212a7,7,0,0,1-2.57,3.92A7.83,7.83,0,0,1,204.51,75a8.26,8.26,0,0,1-4.14-1A7.23,7.23,0,0,1,197.5,71a9.21,9.21,0,0,1-1-4.46,9.39,9.39,0,0,1,1-4.47,7.09,7.09,0,0,1,2.85-2.94,8.42,8.42,0,0,1,4.17-1,8,8,0,0,1,4.09,1,7.1,7.1,0,0,1,2.7,2.74,7.88,7.88,0,0,1,.95,3.83Q212.25,66.78,212.19,67.35Zm-2.81-4.83a5,5,0,0,0-2.08-2,6.35,6.35,0,0,0-2.88-.66,5.72,5.72,0,0,0-4,1.5,6,6,0,0,0-1.83,4.23h11.52A5.82,5.82,0,0,0,209.38,62.52Z"/><path d="M227,59.19a6.3,6.3,0,0,1,2.46,2.73V58.35h2.1v16.8a8,8,0,0,1-1,4,6.72,6.72,0,0,1-2.71,2.68,8.06,8.06,0,0,1-4,1,8.75,8.75,0,0,1-5.24-1.5,6.36,6.36,0,0,1-2.59-4.08h2.07a5,5,0,0,0,2.05,2.73,6.5,6.5,0,0,0,3.71,1,5.94,5.94,0,0,0,2.85-.68,4.81,4.81,0,0,0,2-2,6.42,6.42,0,0,0,.72-3.12V71.1A6.52,6.52,0,0,1,227,73.87a7.12,7.12,0,0,1-4,1.1,7.83,7.83,0,0,1-4-1,7.28,7.28,0,0,1-2.79-3,9.44,9.44,0,0,1-1-4.44,9.33,9.33,0,0,1,1-4.42,7.2,7.2,0,0,1,2.79-2.94,7.92,7.92,0,0,1,4-1A7.37,7.37,0,0,1,227,59.19Zm1.65,3.87a5.79,5.79,0,0,0-2.21-2.31,6,6,0,0,0-3.07-.81,6.23,6.23,0,0,0-3.12.78A5.55,5.55,0,0,0,218.05,63a7.32,7.32,0,0,0-.79,3.52,7.43,7.43,0,0,0,.79,3.52,5.48,5.48,0,0,0,2.18,2.31,6.35,6.35,0,0,0,6.19,0A5.79,5.79,0,0,0,228.63,70a7.88,7.88,0,0,0,0-7Z"/><path d="M250.53,58.35V74.73h-2.1V71.85a5,5,0,0,1-2.22,2.34,7,7,0,0,1-3.36.81,6.55,6.55,0,0,1-4.8-1.82,7,7,0,0,1-1.86-5.26V58.35h2.07v9.33a5.71,5.71,0,0,0,1.33,4.08,4.79,4.79,0,0,0,3.65,1.41,4.94,4.94,0,0,0,3.78-1.5,6.21,6.21,0,0,0,1.41-4.41V58.35Z"/><path d="M257.43,52.53v22.2h-2.1V52.53Z"/><path d="M262.24,62.09A7.2,7.2,0,0,1,265,59.15a7.92,7.92,0,0,1,4-1,7.33,7.33,0,0,1,4,1.08A6.3,6.3,0,0,1,275.55,62v-3.6h2.1V74.73h-2.1V71.1a6.52,6.52,0,0,1-2.48,2.77,7.18,7.18,0,0,1-4,1.1,7.77,7.77,0,0,1-4-1,7.28,7.28,0,0,1-2.79-3,9.44,9.44,0,0,1-1-4.44A9.33,9.33,0,0,1,262.24,62.09Zm12.5,1a5.79,5.79,0,0,0-2.21-2.31,6,6,0,0,0-3.07-.81,6.23,6.23,0,0,0-3.12.78A5.55,5.55,0,0,0,264.16,63a7.32,7.32,0,0,0-.79,3.52,7.43,7.43,0,0,0,.79,3.52,5.48,5.48,0,0,0,2.18,2.31,6.35,6.35,0,0,0,6.19,0A5.79,5.79,0,0,0,274.74,70a7.88,7.88,0,0,0,0-7Z"/><path d="M286.66,58.89a6.79,6.79,0,0,1,3.5-.84v2.19h-.57a5.3,5.3,0,0,0-3.66,1.23q-1.38,1.23-1.38,4.11v9.15h-2.1V58.35h2.1v2.91A5.12,5.12,0,0,1,286.66,58.89Z"/></g></svg>