<svg xmlns="http://www.w3.org/2000/svg" viewBox="0 0 672 672"><defs><style>.cls-1{fill:#8fe044;}</style></defs><g id="Layer_3" data-name="Layer 3"><rect class="cls-1" width="672" height="672"/></g><g id="Layer_1" data-name="Layer 1"><path d="M105.21,380.54a19.44,19.44,0,0,1-8.3,7.9q-5.66,3-14.25,3H71v26.8H57v-69.8h25.7a31,31,0,0,1,13.8,2.8,19.51,19.51,0,0,1,8.55,7.7,22.59,22.59,0,0,1,.2,21.6Zm-14.55-3.05a9.76,9.76,0,0,0,2.8-7.45q0-10.2-11.4-10.2H71v20.3h11.1C85.93,380.14,88.79,379.26,90.66,377.49Z"/><path d="M138.81,364.54a19.56,19.56,0,0,1,9.95-2.5v14.7h-3.7q-6.6,0-9.95,3.1t-3.35,10.8v27.6h-14v-55.4h14v8.6A19.74,19.74,0,0,1,138.81,364.54Z"/><path d="M159.11,353.89a8.21,8.21,0,0,1,0-11.7,9.22,9.22,0,0,1,12.3,0,8.21,8.21,0,0,1,0,11.7,9.22,9.22,0,0,1-12.3,0Zm13,8.95v55.4h-14v-55.4Z"/><path d="M185.86,375.49a25,25,0,0,1,9.7-10,28,28,0,0,1,14.2-3.55q10.29,0,17.05,5.15a25.07,25.07,0,0,1,9.05,14.45h-15.1a11.06,11.06,0,0,0-4-5.65,11.74,11.74,0,0,0-7.05-2.05,11.54,11.54,0,0,0-9.5,4.35q-3.51,4.35-3.5,12.35t3.5,12.25a11.54,11.54,0,0,0,9.5,4.35q8.49,0,11.1-7.6h15.1a25.59,25.59,0,0,1-9.1,14.3q-6.81,5.3-17,5.3a28,28,0,0,1-14.2-3.55,25,25,0,0,1-9.7-10,34.11,34.11,0,0,1,0-30.1Z"/><path d="M297.26,394.74h-40.5a13.75,13.75,0,0,0,4.2,9.4,12.92,12.92,0,0,0,9.1,3.4q7.8,0,11.1-6.7h15.1a25.25,25.25,0,0,1-9.2,13.15q-6.81,5.14-16.7,5.15A28.84,28.84,0,0,1,256,415.59a24.94,24.94,0,0,1-9.9-10,30.74,30.74,0,0,1-3.55-15,31.29,31.29,0,0,1,3.5-15.1,24.4,24.4,0,0,1,9.8-10,31.47,31.47,0,0,1,28.65-.1,24,24,0,0,1,9.7,9.65,29.21,29.21,0,0,1,3.45,14.35A33.8,33.8,0,0,1,297.26,394.74Zm-14.1-9.4a11.13,11.13,0,0,0-3.9-8.65,13.82,13.82,0,0,0-9.3-3.25,12.69,12.69,0,0,0-8.75,3.15,13.83,13.83,0,0,0-4.35,8.75Z"/><path d="M341.85,415.59a25.69,25.69,0,0,1-10.05-10,30.13,30.13,0,0,1-3.65-15,29.46,29.46,0,0,1,3.75-15,26.13,26.13,0,0,1,10.25-10.05,31.39,31.39,0,0,1,29,0,26.06,26.06,0,0,1,10.25,10.05,29.46,29.46,0,0,1,3.75,15,28.82,28.82,0,0,1-3.85,15,26.64,26.64,0,0,1-10.4,10,30.19,30.19,0,0,1-14.65,3.55A29.16,29.16,0,0,1,341.85,415.59Zm21.55-10.5a13.34,13.34,0,0,0,5.35-5.55,18.64,18.64,0,0,0,2-9q0-7.91-4.15-12.15a13.64,13.64,0,0,0-10.15-4.25,13.33,13.33,0,0,0-10.05,4.25q-4,4.25-4,12.15t3.95,12.15a13,13,0,0,0,9.95,4.25A14.57,14.57,0,0,0,363.4,405.09Z"/><path d="M420.85,374.34h-9.7v43.9H397v-43.9h-6.3v-11.5H397V360q0-10.2,5.8-15t17.5-4.5v11.8c-3.4-.07-5.76.5-7.1,1.7s-2,3.37-2,6.5v2.3h9.7Z"/><path d="M89.76,518.24,71,494.64v23.6H57v-74H71v42.1l18.6-23.5h18.2l-24.4,27.8,24.6,27.6Z"/><path d="M116.31,453.89a8.21,8.21,0,0,1,0-11.7,9.22,9.22,0,0,1,12.3,0,8.21,8.21,0,0,1,0,11.7,9.22,9.22,0,0,1-12.3,0Zm13.05,8.95v55.4h-14v-55.4Z"/><path d="M157.16,444.24v74h-14v-74Z"/><path d="M181.16,515.59a25.56,25.56,0,0,1-10-10.05,30.13,30.13,0,0,1-3.65-15,29.46,29.46,0,0,1,3.75-15,26.13,26.13,0,0,1,10.25-10.05,31.39,31.39,0,0,1,29,0,26.13,26.13,0,0,1,10.25,10.05,29.46,29.46,0,0,1,3.75,15,28.82,28.82,0,0,1-3.85,15,26.71,26.71,0,0,1-10.4,10.05,30.21,30.21,0,0,1-14.65,3.55A29.16,29.16,0,0,1,181.16,515.59Zm21.55-10.5a13.41,13.41,0,0,0,5.35-5.55,18.76,18.76,0,0,0,2-9q0-7.91-4.15-12.15a13.66,13.66,0,0,0-10.15-4.25,13.33,13.33,0,0,0-10,4.25q-4.05,4.25-4.05,12.15t4,12.15a13,13,0,0,0,9.95,4.25A14.6,14.6,0,0,0,202.71,505.09Z"/><path d="M320,468.29q6.24,6.25,6.25,17.45v32.5h-14v-30.6q0-6.5-3.3-9.95t-9-3.45a12,12,0,0,0-9,3.45q-3.36,3.45-3.35,9.95v30.6h-14v-30.6q0-6.5-3.3-9.95t-9-3.45q-5.81,0-9.15,3.45t-3.35,9.95v30.6h-14v-55.4h14v6.7a18.58,18.58,0,0,1,7-5.5,21.72,21.72,0,0,1,9.35-2,24.1,24.1,0,0,1,11.6,2.75,19.27,19.27,0,0,1,7.9,7.85,20,20,0,0,1,7.85-7.7,22.37,22.37,0,0,1,11.15-2.9Q313.76,462,320,468.29Z"/><path d="M390.66,494.74h-40.5a13.75,13.75,0,0,0,4.2,9.4,12.92,12.92,0,0,0,9.1,3.4q7.8,0,11.1-6.7h15.1a25.25,25.25,0,0,1-9.2,13.15q-6.81,5.14-16.7,5.15a28.84,28.84,0,0,1-14.35-3.55,24.94,24.94,0,0,1-9.9-10.05,30.74,30.74,0,0,1-3.55-15,31.29,31.29,0,0,1,3.5-15.1,24.4,24.4,0,0,1,9.8-10,31.47,31.47,0,0,1,28.65-.1,24,24,0,0,1,9.7,9.65,29.21,29.21,0,0,1,3.45,14.35A33.8,33.8,0,0,1,390.66,494.74Zm-14.1-9.4a11.13,11.13,0,0,0-3.9-8.65,13.82,13.82,0,0,0-9.3-3.25,12.69,12.69,0,0,0-8.75,3.15,13.83,13.83,0,0,0-4.35,8.75Z"/><path d="M417.56,474.34v26.8a5.29,5.29,0,0,0,1.35,4.05c.9.83,2.41,1.25,4.55,1.25H430v11.8h-8.8q-17.7,0-17.7-17.2v-26.7h-6.6v-11.5h6.6v-13.7h14.1v13.7H430v11.5Z"/><path d="M491.15,494.74h-40.5a13.84,13.84,0,0,0,4.2,9.4,13,13,0,0,0,9.11,3.4q7.79,0,11.09-6.7h15.1A25.24,25.24,0,0,1,481,514q-6.81,5.14-16.71,5.15a28.89,28.89,0,0,1-14.35-3.55,25.07,25.07,0,0,1-9.9-10.05,30.85,30.85,0,0,1-3.54-15,31.29,31.29,0,0,1,3.5-15.1,24.38,24.38,0,0,1,9.79-10,29.44,29.44,0,0,1,14.5-3.5,29.06,29.06,0,0,1,14.15,3.4,23.91,23.91,0,0,1,9.7,9.65,29.21,29.21,0,0,1,3.45,14.35A32.67,32.67,0,0,1,491.15,494.74Zm-14.1-9.4a11.06,11.06,0,0,0-3.9-8.65,13.79,13.79,0,0,0-9.3-3.25,12.73,12.73,0,0,0-8.75,3.15,13.92,13.92,0,0,0-4.35,8.75Z"/><path d="M522.8,464.54a19.58,19.58,0,0,1,10-2.5v14.7h-3.7q-6.6,0-9.95,3.1t-3.35,10.8v27.6h-14v-55.4h14v8.6A19.74,19.74,0,0,1,522.8,464.54Z"/><path d="M69.76,606.74h24.7v11.5H53.86v-11.3l24.2-32.6H54v-11.5h40.2v11.3Z"/><path d="M156.36,594.74h-40.5a13.75,13.75,0,0,0,4.2,9.4,12.92,12.92,0,0,0,9.1,3.4q7.8,0,11.1-6.7h15.1a25.25,25.25,0,0,1-9.2,13.15q-6.81,5.14-16.7,5.15a28.84,28.84,0,0,1-14.35-3.55,24.94,24.94,0,0,1-9.9-10.05,30.74,30.74,0,0,1-3.55-15,31.29,31.29,0,0,1,3.5-15.1,24.4,24.4,0,0,1,9.8-10,31.47,31.47,0,0,1,28.65-.1,24,24,0,0,1,9.7,9.65,29.21,29.21,0,0,1,3.45,14.35A33.8,33.8,0,0,1,156.36,594.74Zm-14.1-9.4a11.13,11.13,0,0,0-3.9-8.65,13.82,13.82,0,0,0-9.3-3.25,12.69,12.69,0,0,0-8.75,3.15,13.83,13.83,0,0,0-4.35,8.75Z"/><path d="M188,564.54a19.56,19.56,0,0,1,10-2.5v14.7h-3.7q-6.6,0-9.95,3.1T181,590.64v27.6H167v-55.4h14v8.6A19.74,19.74,0,0,1,188,564.54Z"/><path d="M217.56,615.59a25.56,25.56,0,0,1-10.05-10.05,30,30,0,0,1-3.65-15,29.46,29.46,0,0,1,3.75-15,26.06,26.06,0,0,1,10.25-10,31.39,31.39,0,0,1,29,0,26.13,26.13,0,0,1,10.25,10,29.46,29.46,0,0,1,3.75,15,28.92,28.92,0,0,1-3.85,15,26.77,26.77,0,0,1-10.4,10.05A30.21,30.21,0,0,1,232,619.14,29.11,29.11,0,0,1,217.56,615.59Zm21.55-10.5a13.47,13.47,0,0,0,5.35-5.55,18.76,18.76,0,0,0,2-9q0-7.9-4.15-12.15a13.66,13.66,0,0,0-10.15-4.25,13.33,13.33,0,0,0-10,4.25q-4.05,4.25-4.05,12.15T222,602.69a13,13,0,0,0,10,4.25A14.63,14.63,0,0,0,239.11,605.09Z"/><path d="M294.85,575.49a25.1,25.1,0,0,1,9.7-10,28.06,28.06,0,0,1,14.2-3.55q10.31,0,17.05,5.15a25,25,0,0,1,9.05,14.45h-15.1a11.06,11.06,0,0,0-4.05-5.65,11.74,11.74,0,0,0-7.05-2,11.55,11.55,0,0,0-9.5,4.35q-3.5,4.35-3.5,12.35t3.5,12.25a11.55,11.55,0,0,0,9.5,4.35q8.5,0,11.1-7.6h15.1a25.49,25.49,0,0,1-9.1,14.3q-6.79,5.29-17,5.3a28.06,28.06,0,0,1-14.2-3.55,25.1,25.1,0,0,1-9.7-10,34.11,34.11,0,0,1,0-30.1Z"/><path d="M354.9,575.44a24.62,24.62,0,0,1,9.1-10,24.28,24.28,0,0,1,12.85-3.5,22.52,22.52,0,0,1,10.85,2.5,22,22,0,0,1,7.45,6.3v-7.9h14.1v55.4h-14.1v-8.1a20.8,20.8,0,0,1-7.45,6.45,22.76,22.76,0,0,1-10.95,2.55,23.58,23.58,0,0,1-12.75-3.6,25.24,25.24,0,0,1-9.1-10.15,32.64,32.64,0,0,1-3.35-15A32.1,32.1,0,0,1,354.9,575.44Zm38.25,6.35a14.08,14.08,0,0,0-5.4-5.6,14.41,14.41,0,0,0-7.3-2,14.15,14.15,0,0,0-7.2,1.9,14.38,14.38,0,0,0-5.35,5.55,17.46,17.46,0,0,0-2,8.65,18,18,0,0,0,2,8.75,14.78,14.78,0,0,0,5.4,5.75,13.77,13.77,0,0,0,7.15,2,14.41,14.41,0,0,0,7.3-2,14.08,14.08,0,0,0,5.4-5.6,20.14,20.14,0,0,0,0-17.5Z"/><path d="M444,564.54A19.58,19.58,0,0,1,454,562v14.7h-3.7q-6.6,0-9.95,3.1T437,590.64v27.6H423v-55.4h14v8.6A19.74,19.74,0,0,1,444,564.54Z"/><path d="M65.4,64.14a7.54,7.54,0,0,1-5.31,1.65H55.86v8.94h-2.1v-21h6.33a7.56,7.56,0,0,1,5.3,1.65,6.25,6.25,0,0,1,0,8.73ZM65,59.79a4.12,4.12,0,0,0-1.17-3.18,5.42,5.42,0,0,0-3.75-1.08H55.86V64h4.23Q65,64,65,59.79Z"/><path d="M73.7,73.93A7.26,7.26,0,0,1,70.79,71a9,9,0,0,1-1.07-4.46,8.86,8.86,0,0,1,1.08-4.45,7.55,7.55,0,0,1,2.94-2.94,8.43,8.43,0,0,1,4.17-1,8.56,8.56,0,0,1,4.19,1A7.49,7.49,0,0,1,85,62.09a9.07,9.07,0,0,1,1.06,4.45A8.9,8.9,0,0,1,85,71a7.4,7.4,0,0,1-3,3,8.6,8.6,0,0,1-4.2,1A8.33,8.33,0,0,1,73.7,73.93Zm7.15-1.53a5.41,5.41,0,0,0,2.23-2.22,7.08,7.08,0,0,0,.86-3.64,7.26,7.26,0,0,0-.84-3.64,5.45,5.45,0,0,0-2.22-2.22,6.45,6.45,0,0,0-6,0,5.35,5.35,0,0,0-2.2,2.22,8.4,8.4,0,0,0,0,7.28,5.27,5.27,0,0,0,2.19,2.22,6,6,0,0,0,3,.74A6.17,6.17,0,0,0,80.85,72.4Z"/><path d="M94.48,59.21a7.29,7.29,0,0,1,4-1.1,7.82,7.82,0,0,1,4,1,7.2,7.2,0,0,1,2.79,2.94,9.33,9.33,0,0,1,1,4.42,9.44,9.44,0,0,1-1,4.44,7.28,7.28,0,0,1-2.79,3,7.73,7.73,0,0,1-4,1,7.21,7.21,0,0,1-4-1.1A6.53,6.53,0,0,1,92,71.13V82.47H89.94V58.35H92V62A6.6,6.6,0,0,1,94.48,59.21ZM103.4,63a5.62,5.62,0,0,0-2.18-2.27,6.23,6.23,0,0,0-3.12-.78,6.06,6.06,0,0,0-3.08.81,5.84,5.84,0,0,0-2.2,2.31,7.88,7.88,0,0,0,0,7A5.84,5.84,0,0,0,95,72.33a6.37,6.37,0,0,0,6.2,0A5.54,5.54,0,0,0,103.4,70a7.55,7.55,0,0,0,.79-3.52A7.44,7.44,0,0,0,103.4,63Z"/><path d="M114.73,59.21a7.29,7.29,0,0,1,4-1.1,7.82,7.82,0,0,1,4,1,7.2,7.2,0,0,1,2.79,2.94,9.33,9.33,0,0,1,1,4.42,9.44,9.44,0,0,1-1,4.44,7.28,7.28,0,0,1-2.79,3,7.73,7.73,0,0,1-4,1,7.21,7.21,0,0,1-4-1.1,6.53,6.53,0,0,1-2.49-2.74V82.47h-2.07V58.35h2.07V62A6.6,6.6,0,0,1,114.73,59.21ZM123.64,63a5.53,5.53,0,0,0-2.17-2.27,6.23,6.23,0,0,0-3.12-.78,6,6,0,0,0-3.08.81,5.77,5.77,0,0,0-2.2,2.31,7.88,7.88,0,0,0,0,7,5.77,5.77,0,0,0,2.2,2.31,6.37,6.37,0,0,0,6.2,0A5.46,5.46,0,0,0,123.64,70a7.43,7.43,0,0,0,.8-3.52A7.32,7.32,0,0,0,123.64,63Z"/><path d="M130.41,54.81A1.51,1.51,0,0,1,130,53.7a1.49,1.49,0,0,1,.45-1.1,1.57,1.57,0,0,1,2.16,0,1.49,1.49,0,0,1,.45,1.1,1.51,1.51,0,0,1-.45,1.11,1.52,1.52,0,0,1-2.16,0Zm2.13,3.54V74.73h-2.1V58.35Z"/><path d="M149.79,59.87a7,7,0,0,1,1.86,5.26v9.6h-2.07V65.37a5.71,5.71,0,0,0-1.34-4.08,4.77,4.77,0,0,0-3.64-1.41,4.94,4.94,0,0,0-3.78,1.5,6.21,6.21,0,0,0-1.41,4.41v8.94h-2.1V58.35h2.1v2.79a5.43,5.43,0,0,1,2.25-2.3,7,7,0,0,1,3.33-.79A6.59,6.59,0,0,1,149.79,59.87Z"/><path d="M157.33,73.66a4.74,4.74,0,0,1-2-3.55h2.16a3.06,3.06,0,0,0,1.3,2.23,5.12,5.12,0,0,0,3.11.86,4.06,4.06,0,0,0,2.68-.81,2.52,2.52,0,0,0,1-2A1.87,1.87,0,0,0,165,69a3.71,3.71,0,0,0-1.37-.85,18.88,18.88,0,0,0-2.23-.68,22.73,22.73,0,0,1-3-1,5.17,5.17,0,0,1-1.94-1.42,3.82,3.82,0,0,1-.79-2.54,3.77,3.77,0,0,1,.72-2.22,4.91,4.91,0,0,1,2-1.62,7.17,7.17,0,0,1,3-.6,6.54,6.54,0,0,1,4.26,1.33,4.87,4.87,0,0,1,1.74,3.68h-2.1a3.22,3.22,0,0,0-1.13-2.33,4.26,4.26,0,0,0-2.83-.88,4.16,4.16,0,0,0-2.58.75,2.26,2.26,0,0,0-1,1.86,2.16,2.16,0,0,0,.58,1.57,3.94,3.94,0,0,0,1.46,1c.58.23,1.36.48,2.34.76a22.1,22.1,0,0,1,2.82.93,4.89,4.89,0,0,1,1.8,1.32,3.53,3.53,0,0,1,.78,2.31,4.06,4.06,0,0,1-.72,2.36,4.89,4.89,0,0,1-2,1.63,7,7,0,0,1-3,.6A7.63,7.63,0,0,1,157.33,73.66Z"/><path d="M182.53,74.22a6,6,0,0,1-2.47-2,5.28,5.28,0,0,1-1-2.88h2.22A4.18,4.18,0,0,0,182.67,72a5.8,5.8,0,0,0,6.88.06,3.51,3.51,0,0,0,1.25-2.77,3.31,3.31,0,0,0-.69-2.18,4.2,4.2,0,0,0-1.71-1.22,24.24,24.24,0,0,0-2.82-.89,24.65,24.65,0,0,1-3.33-1.11,5.3,5.3,0,0,1-2.1-1.68,5,5,0,0,1-.87-3.09,5.13,5.13,0,0,1,.84-2.89,5.64,5.64,0,0,1,2.37-2,8.15,8.15,0,0,1,3.51-.72,7.34,7.34,0,0,1,4.69,1.42,5.39,5.39,0,0,1,2.06,3.68h-2.28a3.81,3.81,0,0,0-1.41-2.3,5.6,5.6,0,0,0-6.39,0,3.34,3.34,0,0,0-1.26,2.75,3.17,3.17,0,0,0,.69,2.13,4.38,4.38,0,0,0,1.72,1.23,25.69,25.69,0,0,0,2.81.9,25.25,25.25,0,0,1,3.3,1.13,5.36,5.36,0,0,1,2.13,1.69,4.92,4.92,0,0,1,.87,3.06,5.4,5.4,0,0,1-.78,2.79,5.69,5.69,0,0,1-2.31,2.13,7.73,7.73,0,0,1-3.66.81A8.71,8.71,0,0,1,182.53,74.22Z"/><path d="M211.74,67.35H198.15a6.59,6.59,0,0,0,.9,3.18,5.38,5.38,0,0,0,2.13,2,6.36,6.36,0,0,0,2.88.67,5.77,5.77,0,0,0,3.43-1,4.66,4.66,0,0,0,1.85-2.67h2.22A7,7,0,0,1,209,73.46,7.83,7.83,0,0,1,204.06,75a8.26,8.26,0,0,1-4.14-1A7.23,7.23,0,0,1,197.05,71a9.21,9.21,0,0,1-1-4.46,9.39,9.39,0,0,1,1-4.47,7.09,7.09,0,0,1,2.85-2.94,8.42,8.42,0,0,1,4.17-1,8,8,0,0,1,4.09,1,7.1,7.1,0,0,1,2.7,2.74,7.88,7.88,0,0,1,1,3.83Q211.8,66.78,211.74,67.35Zm-2.81-4.83a5,5,0,0,0-2.08-2,6.35,6.35,0,0,0-2.88-.66,5.72,5.72,0,0,0-4,1.5,6,6,0,0,0-1.83,4.23h11.52A5.82,5.82,0,0,0,208.93,62.52Z"/><path d="M239.83,59.87a7.12,7.12,0,0,1,1.82,5.26v9.6h-2.07V65.37a5.84,5.84,0,0,0-1.29-4.08,4.52,4.52,0,0,0-3.51-1.41,4.73,4.73,0,0,0-3.69,1.53,6.42,6.42,0,0,0-1.38,4.44v8.88h-2.07V65.37a5.84,5.84,0,0,0-1.29-4.08,4.56,4.56,0,0,0-3.54-1.41,4.73,4.73,0,0,0-3.69,1.53,6.42,6.42,0,0,0-1.38,4.44v8.88h-2.1V58.35h2.1v2.82A5.44,5.44,0,0,1,220,58.84a6.64,6.64,0,0,1,3.21-.79,6.8,6.8,0,0,1,3.73,1,5.76,5.76,0,0,1,2.33,3,5.52,5.52,0,0,1,2.26-3,6.6,6.6,0,0,1,3.65-1A6.34,6.34,0,0,1,239.83,59.87Z"/><path d="M246.27,54.81a1.51,1.51,0,0,1-.45-1.11,1.49,1.49,0,0,1,.45-1.1,1.57,1.57,0,0,1,2.16,0,1.49,1.49,0,0,1,.45,1.1,1.51,1.51,0,0,1-.45,1.11,1.52,1.52,0,0,1-2.16,0Zm2.13,3.54V74.73h-2.1V58.35Z"/><path d="M257.74,59.19a7.31,7.31,0,0,1,4-1.08,7.82,7.82,0,0,1,4,1,7.22,7.22,0,0,1,2.77,2.94,9.33,9.33,0,0,1,1,4.42,9.44,9.44,0,0,1-1,4.44,7.28,7.28,0,0,1-2.79,3,7.73,7.73,0,0,1-4,1,7.36,7.36,0,0,1-4-1.07,6.28,6.28,0,0,1-2.47-2.77v3.6h-2.07V52.53h2.07V62A6.63,6.63,0,0,1,257.74,59.19Zm8.88,3.8a5.53,5.53,0,0,0-2.17-2.27,6.23,6.23,0,0,0-3.12-.78,6,6,0,0,0-3.08.81,5.77,5.77,0,0,0-2.2,2.31,7.88,7.88,0,0,0,0,7,5.77,5.77,0,0,0,2.2,2.31,6.37,6.37,0,0,0,6.2,0A5.46,5.46,0,0,0,266.62,70a7.43,7.43,0,0,0,.8-3.52A7.32,7.32,0,0,0,266.62,63Z"/><path d="M276.43,73.93A7.39,7.39,0,0,1,273.52,71a9,9,0,0,1-1.06-4.46,8.86,8.86,0,0,1,1.08-4.45,7.55,7.55,0,0,1,2.94-2.94,8.9,8.9,0,0,1,8.35,0,7.42,7.42,0,0,1,2.94,2.94,9.73,9.73,0,0,1,0,8.89,7.4,7.4,0,0,1-3,3,8.6,8.6,0,0,1-4.2,1A8.37,8.37,0,0,1,276.43,73.93Zm7.16-1.53a5.47,5.47,0,0,0,2.23-2.22,7.18,7.18,0,0,0,.86-3.64,7.26,7.26,0,0,0-.84-3.64,5.45,5.45,0,0,0-2.22-2.22,6.45,6.45,0,0,0-6,0,5.37,5.37,0,0,0-2.21,2.22,8.49,8.49,0,0,0,0,7.28,5.33,5.33,0,0,0,2.19,2.22,6.11,6.11,0,0,0,3,.74A6.17,6.17,0,0,0,283.59,72.4Z"/><path d="M294.78,52.53v22.2h-2.1V52.53Z"/><path d="M299.61,62.09a7.29,7.29,0,0,1,2.8-2.94,7.92,7.92,0,0,1,4-1,7.4,7.4,0,0,1,3.9,1,6.42,6.42,0,0,1,2.55,2.73V52.53H315v22.2h-2.1V71.07a6.25,6.25,0,0,1-2.46,2.8,7.21,7.21,0,0,1-4,1.1,7.83,7.83,0,0,1-4-1,7.28,7.28,0,0,1-2.79-3,9.44,9.44,0,0,1-1-4.44A9.21,9.21,0,0,1,299.61,62.09Zm12.48,1a5.79,5.79,0,0,0-2.21-2.31,6,6,0,0,0-3.07-.81,6.23,6.23,0,0,0-3.12.78A5.55,5.55,0,0,0,301.51,63a7.32,7.32,0,0,0-.79,3.52,7.43,7.43,0,0,0,.79,3.52,5.48,5.48,0,0,0,2.18,2.31,6.35,6.35,0,0,0,6.19,0A5.79,5.79,0,0,0,312.09,70a7.88,7.88,0,0,0,0-7Z"/></g></svg>