<svg xmlns="http://www.w3.org/2000/svg" viewBox="0 0 672 672"><defs><style>.cls-1{stroke:#000;stroke-miterlimit:10;stroke-width:2px;}</style></defs><g id="Layer_1" data-name="Layer 1"><path class="cls-1" d="M94.38,84.6a13,13,0,0,1,.79-4.43,15.58,15.58,0,0,1,2.2-4.07,14.6,14.6,0,0,1,3.42-3.27,12,12,0,0,1,4.39-1.91l8.86-2v-5h10.44V90.79a2.26,2.26,0,0,0,.79,1.69,2.66,2.66,0,0,0,1.94.76h1.44c.67,0,1,.31,1,.94v10.29a.9.9,0,0,1-1,1h-1.44a11.08,11.08,0,0,1-6.55-1.87,16.27,16.27,0,0,1-4.54-5,7.22,7.22,0,0,1-2.77,1.08,15.59,15.59,0,0,1-3.06.36h-4.82a9.59,9.59,0,0,1-4.11-.94A12.8,12.8,0,0,1,97.8,96.7a12,12,0,0,1-2.48-3.5,9.31,9.31,0,0,1-.94-4.06ZM114,79.78,108,81.14a4.51,4.51,0,0,0-2.38,1.44,3.86,3.86,0,0,0-.93,2.6v3H114Z"/><path class="cls-1" d="M128.65,105.48a.93.93,0,0,1-.72-.32,1.05,1.05,0,0,1-.29-.69V94.39a1.14,1.14,0,0,1,.33-.79.91.91,0,0,1,.68-.36h14.54a18.32,18.32,0,0,0,5.48-.86,9.54,9.54,0,0,0,4.53-3L155.51,86a2.4,2.4,0,0,0,.43-.65l.14-.14-13.75-4a.66.66,0,0,0-.86.5l-2.74,7.78-8.93-2.31L132,79.92a11.75,11.75,0,0,1,2.42-4.43,11.44,11.44,0,0,1,3.67-2.81,13,13,0,0,1,4.35-1.18,10.63,10.63,0,0,1,4.32.43l29.09,8.71-2.73,9.65-5.26-1.51a4.6,4.6,0,0,0-1.87-.26,5.15,5.15,0,0,0-1,.26v2.44a2,2,0,0,0,.57,1.41,1.91,1.91,0,0,0,1.45.61h11a1.06,1.06,0,0,1,.68.25.9.9,0,0,1,.33.76v10.22a1.05,1.05,0,0,1-.29.69.93.93,0,0,1-.72.32h-7.2a12.78,12.78,0,0,1-7.49-2.2,14.48,14.48,0,0,1-4.89-5.86l-1.16,1.51a18.58,18.58,0,0,1-7.73,5,30.71,30.71,0,0,1-9.26,1.58Zm10.73-48.74h9.36v9.72h-9.36Z"/><path class="cls-1" d="M197.19,105.48a14.27,14.27,0,0,1-4.78-.83,10.25,10.25,0,0,1-4.22-2.91,10.39,10.39,0,0,1-4.06,2.91,13.35,13.35,0,0,1-4.72.83H178a.93.93,0,0,1-.72-.32,1.05,1.05,0,0,1-.29-.69V94.32a1,1,0,0,1,.33-.76,1,1,0,0,1,.68-.32h3a1.87,1.87,0,0,0,1.44-.61,2.06,2.06,0,0,0,.58-1.48V76.9h10.37V91.08a2,2,0,0,0,.68,1.58,2,2,0,0,0,1.26.58H198a2.41,2.41,0,0,0,1.54-.54,2.19,2.19,0,0,0,.83-1.48l2.88-14.32,10.59,1.72-2.45,12.1a1.88,1.88,0,0,0,1.87,2.52h4a1.87,1.87,0,0,0,1.44-.61,2,2,0,0,0,.58-1.41V75h10.37V90.94c0,1.53.67,2.3,2,2.3h3.17a.9.9,0,0,1,1,1v10.22a.9.9,0,0,1-1,1h-1.44a14.09,14.09,0,0,1-4.86-.83,10.34,10.34,0,0,1-4.14-2.91,10.81,10.81,0,0,1-4.32,2.88,15,15,0,0,1-5,.86,18.16,18.16,0,0,1-2.41-.18,14.81,14.81,0,0,1-2.66-.61,12,12,0,0,1-2.52-1.15,7.73,7.73,0,0,1-2.06-1.8,10.67,10.67,0,0,1-3.92,2.91A11.58,11.58,0,0,1,197.19,105.48Z"/><path class="cls-1" d="M243.63,93.24a1.87,1.87,0,0,0,1.44-.61,2,2,0,0,0,.58-1.41V74.74H256V91.15a14.3,14.3,0,0,1-14.33,14.33h-6.84a.93.93,0,0,1-.72-.32,1.05,1.05,0,0,1-.29-.69V94.39a1.24,1.24,0,0,1,.29-.79.88.88,0,0,1,.72-.36ZM246,69.91h9.36V60.19H246Z"/><path class="cls-1" d="M264.08,124.49l-3.1-9.65,11.74-4a7.58,7.58,0,0,0,3.82-2.77,7.46,7.46,0,0,0,1.44-4.5V77h10.36v25.56a19,19,0,0,1-.93,5.94,19.69,19.69,0,0,1-2.63,5.22,19.14,19.14,0,0,1-4.07,4.17,17.53,17.53,0,0,1-5.25,2.74Zm14.33-63.07h9.36v9.72h-9.36Z"/><path class="cls-1" d="M304.47,105.48H294.1V54.65h10.37Z"/><path class="cls-1" d="M352.64,93.24h2a.94.94,0,0,1,.69.36,1.17,1.17,0,0,1,.32.79v10.08a1,1,0,0,1-.28.69,1,1,0,0,1-.73.32h-1.08a10.89,10.89,0,0,1-5.14-1.15,16.33,16.33,0,0,1-3.71-2.59,11.32,11.32,0,0,1-4.39,2.91,15.07,15.07,0,0,1-5,.83h-9.07a10.76,10.76,0,0,1-4.25-.86,11.57,11.57,0,0,1-3.53-2.34,10.85,10.85,0,0,1-3.24-7.74V83.74h8.64v8.35c0,.77.41,1.15,1.22,1.15H335.5a4,4,0,0,0,2.67-1,2.42,2.42,0,0,0,.72-2.63l-6.12-22,9.86-3.6,7.7,27.43a2.27,2.27,0,0,0,.87,1.26A2.41,2.41,0,0,0,352.64,93.24Z"/><path class="cls-1" d="M371.21,93.24a1.87,1.87,0,0,0,1.44-.61,2,2,0,0,0,.58-1.41V74.74H383.6V91.15a14.3,14.3,0,0,1-14.33,14.33H354.65a1,1,0,0,1-.72-.32,1,1,0,0,1-.28-.69V94.39a1.23,1.23,0,0,1,.28-.79.91.91,0,0,1,.72-.36Zm-14.83,20.88h9.36v9.72h-9.36Zm9.36,0h9.36v9.72h-9.36Z"/><path class="cls-1" d="M426,93.24h2a.94.94,0,0,1,.69.36,1.17,1.17,0,0,1,.32.79v10.08a1.05,1.05,0,0,1-.29.69.93.93,0,0,1-.72.32h-1.08a10.93,10.93,0,0,1-5.15-1.15,16.55,16.55,0,0,1-3.71-2.59,11.17,11.17,0,0,1-4.39,2.91,15,15,0,0,1-5,.83h-9.08a10.75,10.75,0,0,1-4.24-.86,11.45,11.45,0,0,1-3.53-2.34,10.8,10.8,0,0,1-2.38-3.5,10.58,10.58,0,0,1-.86-4.24V83.74h8.64v8.35c0,.77.4,1.15,1.22,1.15h10.37a4,4,0,0,0,2.66-1,2.38,2.38,0,0,0,.72-2.63l-6.12-22,9.87-3.6,7.7,27.43a2.22,2.22,0,0,0,.87,1.26A2.4,2.4,0,0,0,426,93.24Z"/><path class="cls-1" d="M427,94.39a1.14,1.14,0,0,1,.33-.79.91.91,0,0,1,.68-.36h14.54a18.32,18.32,0,0,0,5.48-.86,9.54,9.54,0,0,0,4.53-3L454.88,86a2.4,2.4,0,0,0,.43-.65l.14-.14-13.75-4c-.43-.15-.72,0-.86.5L438.1,89.5l-8.78-2.31,2.08-7.27a12.1,12.1,0,0,1,2.38-4.43,11.12,11.12,0,0,1,3.64-2.81,12.84,12.84,0,0,1,4.32-1.18,10.92,10.92,0,0,1,4.35.43l29.09,8.71-2.74,9.65-4.6-1.37a7.19,7.19,0,0,0-2.24-.29A2.46,2.46,0,0,0,464,89.71l-7.42,9.22a15.44,15.44,0,0,1-3.45,3.06,18.86,18.86,0,0,1-4.14,2,25.45,25.45,0,0,1-4.61,1.12,32.38,32.38,0,0,1-4.79.36H428a.93.93,0,0,1-.72-.32,1.05,1.05,0,0,1-.29-.69Zm21.39,19.73h9.36v9.72H448.4Z"/><path class="cls-1" d="M503.55,118.15a17.06,17.06,0,0,1-6.88-1.4,18.34,18.34,0,0,1-5.58-3.78,17.71,17.71,0,0,1-3.74-5.58,17.05,17.05,0,0,1-1.37-6.81V80.06h10.37V99.22a6.36,6.36,0,0,0,.54,2.59,6.72,6.72,0,0,0,1.47,2.12,7.56,7.56,0,0,0,2.16,1.44,6.37,6.37,0,0,0,2.6.54h13.17a5.29,5.29,0,0,0,5.33-5.33V54.65h10.44V91.3a1.71,1.71,0,0,0,.61,1.33,2.43,2.43,0,0,0,1.41.61h4a.89.89,0,0,1,1,1v10.29c0,.63-.33.94-1,.94H536.6a8.52,8.52,0,0,1-2.49-.36A5.83,5.83,0,0,1,532,104v.93a10.69,10.69,0,0,1-1,4.25,14.06,14.06,0,0,1-3,4.32,16.27,16.27,0,0,1-11.81,4.68Z"/><path class="cls-1" d="M557.26,105.48a14.33,14.33,0,0,1-4.79-.83,10.22,10.22,0,0,1-4.21-2.91,10.49,10.49,0,0,1-4.07,2.91,13.31,13.31,0,0,1-4.72.83H538a1,1,0,0,1-.72-.32,1,1,0,0,1-.28-.69V94.32a1,1,0,0,1,.32-.76,1,1,0,0,1,.68-.32h3a1.9,1.9,0,0,0,1.44-.61,2.09,2.09,0,0,0,.57-1.48V76.9h10.37V91.08a1.94,1.94,0,0,0,.69,1.58,2,2,0,0,0,1.26.58h2.66a2.44,2.44,0,0,0,1.55-.54,2.27,2.27,0,0,0,.83-1.48l2.88-14.32,10.58,1.72-2.45,12.1a2,2,0,0,0,.29,1.8,1.91,1.91,0,0,0,1.58.72h4a1.9,1.9,0,0,0,1.44-.61,2,2,0,0,0,.57-1.41V75h10.37V90.94c0,1.53.67,2.3,2,2.3h3.16a.89.89,0,0,1,1,1v10.22a.89.89,0,0,1-1,1h-1.44a14.18,14.18,0,0,1-4.86-.83,10.34,10.34,0,0,1-4.14-2.91,10.68,10.68,0,0,1-4.32,2.88,14.92,14.92,0,0,1-5,.86,18.3,18.3,0,0,1-2.42-.18,15.22,15.22,0,0,1-2.66-.61,12,12,0,0,1-2.52-1.15,7.68,7.68,0,0,1-2.05-1.8,10.78,10.78,0,0,1-3.93,2.91A11.53,11.53,0,0,1,557.26,105.48Z"/><path class="cls-1" d="M603.7,93.24a1.9,1.9,0,0,0,1.44-.61,2,2,0,0,0,.57-1.41V74.74h10.37V91.15A14.18,14.18,0,0,1,615,96.73a14.44,14.44,0,0,1-3.06,4.57,14.16,14.16,0,0,1-4.58,3.06,14,14,0,0,1-5.58,1.12h-6.84a1,1,0,0,1-.72-.32,1,1,0,0,1-.28-.69V94.39a1.23,1.23,0,0,1,.28-.79.91.91,0,0,1,.72-.36Zm2.37-23.33h9.36V60.19h-9.36Z"/><path class="cls-1" d="M242.7,191.88a7.24,7.24,0,0,1-3-.5,7.32,7.32,0,0,1-1.65-1v1.08a10.37,10.37,0,0,1-1.08,4.39,14.13,14.13,0,0,1-3.06,4.21,16.25,16.25,0,0,1-4.9,3.17,16.44,16.44,0,0,1-6.59,1.26H209.72a17.06,17.06,0,0,1-6.88-1.4,18.34,18.34,0,0,1-5.58-3.78,17.71,17.71,0,0,1-3.74-5.58,17.23,17.23,0,0,1-1.37-6.81V164.38h10.44v21.16a6.37,6.37,0,0,0,.54,2.6,7.1,7.1,0,0,0,1.48,2.16,6.6,6.6,0,0,0,2.16,1.44,6.83,6.83,0,0,0,2.59.5h13.18a5.19,5.19,0,0,0,3.74-1.55,5.1,5.1,0,0,0,1.58-3.78V163.15h10.3v14.76a1.49,1.49,0,0,0,.61,1.26,2.16,2.16,0,0,0,1.33.47h2.52a2.69,2.69,0,0,0,1.66-.54,2.15,2.15,0,0,0,.86-1.48l2.88-14.4,10.59,1.88-2.45,12.24a1.86,1.86,0,0,0,.4,1.54,1.77,1.77,0,0,0,1.47.69h6.41V161.06h10.44v20.16a9.94,9.94,0,0,1-.86,4,11.14,11.14,0,0,1-2.38,3.42,11.87,11.87,0,0,1-3.46,2.34,10,10,0,0,1-4.1.86h-5a15.12,15.12,0,0,1-4.68-.83,8.64,8.64,0,0,1-4.17-2.91,12.27,12.27,0,0,1-3.57,2.91A9,9,0,0,1,242.7,191.88Z"/><path class="cls-1" d="M317.29,179.64h2a.94.94,0,0,1,.69.36,1.17,1.17,0,0,1,.32.79v10.08a1.05,1.05,0,0,1-.29.69.93.93,0,0,1-.72.32h-1.08a10.86,10.86,0,0,1-5.14-1.15,16.33,16.33,0,0,1-3.71-2.59,11.32,11.32,0,0,1-4.39,2.91,15.07,15.07,0,0,1-5,.83h-9.07a10.76,10.76,0,0,1-4.25-.86,11.57,11.57,0,0,1-3.53-2.34,10.85,10.85,0,0,1-3.24-7.74v-10.8h8.64v8.35c0,.77.41,1.15,1.22,1.15h10.37a4,4,0,0,0,2.67-1,2.42,2.42,0,0,0,.72-2.63l-6.12-22,9.86-3.6,7.7,27.43a2.27,2.27,0,0,0,.87,1.26A2.41,2.41,0,0,0,317.29,179.64Z"/><path class="cls-1" d="M338.81,191.88A13.75,13.75,0,0,1,334,191a11.39,11.39,0,0,1-4.18-2.81A11.26,11.26,0,0,1,325.6,191a14.06,14.06,0,0,1-4.86.86H319.3a.93.93,0,0,1-.72-.32,1.05,1.05,0,0,1-.29-.69V180.72a1,1,0,0,1,.33-.76,1,1,0,0,1,.68-.32h3.31A1.87,1.87,0,0,0,324,179a2.18,2.18,0,0,0,.61-1.48V163.3H335v14.18a2.2,2.2,0,0,0,.57,1.51,1.87,1.87,0,0,0,1.44.65h2.45a2.37,2.37,0,0,0,2.52-2l2.88-14.32,10.59,1.8-2.45,12a1.82,1.82,0,0,0,.32,1.73,1.88,1.88,0,0,0,1.55.79h6.05V161.42h10.37v19.8a9.79,9.79,0,0,1-.87,4,11.24,11.24,0,0,1-5.76,5.76,10,10,0,0,1-4.1.86H354.8a10.78,10.78,0,0,1-4.11-.79,9.15,9.15,0,0,1-3.6-2.88,10.35,10.35,0,0,1-3.92,2.88A12,12,0,0,1,338.81,191.88Z"/><path class="cls-1" d="M387.85,163.22V178a1.49,1.49,0,0,0,.54,1.23,2,2,0,0,0,1.33.43h3.17a.89.89,0,0,1,1,1v10.22a.89.89,0,0,1-1,1h-1.44a5.23,5.23,0,0,1-2-.47,5.34,5.34,0,0,1-1.7-1v1.08a14,14,0,0,1-1,5.29,15,15,0,0,1-2.7,4.36,17.91,17.91,0,0,1-4.1,3.38,26.8,26.8,0,0,1-5.11,2.38l-11.31,3.88-3.17-9.57,11.74-4a7.3,7.3,0,0,0,3.85-2.81,7.75,7.75,0,0,0,1.41-4.54V163.22Z"/><path class="cls-1" d="M397.49,177.7l1.44-7.49a13.16,13.16,0,0,1,1.55-4.14,12,12,0,0,1,2.81-3.28,13,13,0,0,1,3.78-2.12,12.44,12.44,0,0,1,4.32-.76h4a12.75,12.75,0,0,1,5.15,1.05,13.3,13.3,0,0,1,4.21,2.84,13.45,13.45,0,0,1,2.85,4.25,13.17,13.17,0,0,1,1,5.18v8a9.94,9.94,0,0,1-.86,4,11.55,11.55,0,0,1-2.34,3.42,11.68,11.68,0,0,1-3.39,2.34,9.84,9.84,0,0,1-4.07.86h-7.92a11.6,11.6,0,0,1-4-.72,8.82,8.82,0,0,1-3.78-3,9.67,9.67,0,0,1-3.75,2.91,11.09,11.09,0,0,1-4.24.83h-1.44a1.05,1.05,0,0,1-.69-.29.93.93,0,0,1-.32-.72V180.58c0-.63.33-.94,1-.94h2.16a2.23,2.23,0,0,0,1.54-.54A3.15,3.15,0,0,0,397.49,177.7Zm11.24,1.94h9.57v-6.48a1.83,1.83,0,0,0-.39-.9,1.12,1.12,0,0,0-.9-.4h-6.7a1.12,1.12,0,0,0-.83.33,2.14,2.14,0,0,0-.47.68l-1.08,5.83a.6.6,0,0,0,.11.65A.88.88,0,0,0,408.73,179.64Z"/><path class="cls-1" d="M470.79,196.49a4.65,4.65,0,0,0,3.17-1.15,3.87,3.87,0,0,0,1.29-3v-.43H460.71V179.64h27.57a.89.89,0,0,1,1,1V190.8a1.08,1.08,0,0,1-.29.76.93.93,0,0,1-.72.32H485.4c.15.14.22.5.22,1.08v.22a15.17,15.17,0,0,1-1.26,6.22,14.57,14.57,0,0,1-3.49,4.9,17,17,0,0,1-11.52,4.43H457a17.54,17.54,0,0,1-12.46-5.11A18.34,18.34,0,0,1,440.8,198a16.9,16.9,0,0,1-1.4-6.88V170.71h10.44v19a6.75,6.75,0,0,0,2,4.79,7.36,7.36,0,0,0,2.2,1.44,6.59,6.59,0,0,0,2.63.54Z"/><path class="cls-1" d="M492.89,177.7l1.44-7.49a12.92,12.92,0,0,1,1.55-4.14,11.82,11.82,0,0,1,2.81-3.28,12.75,12.75,0,0,1,3.78-2.12,12.44,12.44,0,0,1,4.32-.76h4A12.79,12.79,0,0,1,516,161a13.21,13.21,0,0,1,7,7.09,13,13,0,0,1,1.05,5.18v8a9.79,9.79,0,0,1-.87,4,11.19,11.19,0,0,1-2.34,3.42,11.5,11.5,0,0,1-3.38,2.34,9.84,9.84,0,0,1-4.07.86h-7.92a11.56,11.56,0,0,1-4-.72,8.78,8.78,0,0,1-3.79-3,9.72,9.72,0,0,1-3.74,2.91,11.1,11.1,0,0,1-4.25.83h-1.44a1,1,0,0,1-.68-.29.9.9,0,0,1-.32-.72V180.58c0-.63.33-.94,1-.94h2.16a2.25,2.25,0,0,0,1.55-.54A3.15,3.15,0,0,0,492.89,177.7Zm11.23,1.94h9.58v-6.48a1.76,1.76,0,0,0-.4-.9,1.1,1.1,0,0,0-.9-.4h-6.69a1.12,1.12,0,0,0-.83.33,2,2,0,0,0-.47.68l-1.08,5.83a.58.58,0,0,0,.11.65A.86.86,0,0,0,504.12,179.64Z"/><path class="cls-1" d="M545.59,190.87a.89.89,0,0,1-1,1h-1.44a13.64,13.64,0,0,1-5.48-1.12,13.78,13.78,0,0,1-7.45-7.45,13.75,13.75,0,0,1-1.11-5.47V141h10.44v36.64a2,2,0,0,0,2,2h3a1,1,0,0,1,.72.32,1.12,1.12,0,0,1,.28.76Z"/><path class="cls-1" d="M595.92,190.87a.89.89,0,0,1-1,1h-1.44a13.88,13.88,0,0,1-5-.9,11.08,11.08,0,0,1-4.25-2.92,12.33,12.33,0,0,1-4.43,2.92,14.41,14.41,0,0,1-5.08.9H544.59a.89.89,0,0,1-1-1V180.72a1.08,1.08,0,0,1,.29-.76.93.93,0,0,1,.72-.32H546l7.2-7.85V141h10.36v16.2a8.38,8.38,0,0,1-.18,1.72q-.18.87-.39,1.62a9.89,9.89,0,0,1-.43,1.23l-.29.61a1.83,1.83,0,0,1-.22.36.17.17,0,0,1-.07.14,18.61,18.61,0,0,1,10-3h4.39a13.25,13.25,0,0,1,5.26,1.05,12.87,12.87,0,0,1,4.21,2.84,13.92,13.92,0,0,1,2.81,4.21,13.11,13.11,0,0,1,1,5.22v4.54a1.84,1.84,0,0,0,.65,1.29,2,2,0,0,0,1.37.51h3.16a.89.89,0,0,1,1,1Zm-19-11.23a2.43,2.43,0,0,0,1.73-.68,2.25,2.25,0,0,0,.72-1.7V174.1a2.07,2.07,0,0,0-.65-1.62,2.21,2.21,0,0,0-1.58-.62H570a6.58,6.58,0,0,0-5.11,2.24l-5,5.54ZM569,145.37h9.36v9.72H569Z"/><path class="cls-1" d="M603.7,179.64a1.9,1.9,0,0,0,1.44-.61,2,2,0,0,0,.57-1.41V161.14h10.37v16.41a14,14,0,0,1-1.12,5.58,14.08,14.08,0,0,1-7.63,7.63,14,14,0,0,1-5.58,1.12h-6.84a1,1,0,0,1-.72-.32,1,1,0,0,1-.28-.69V180.79a1.23,1.23,0,0,1,.28-.79.89.89,0,0,1,.72-.36Zm2.37-23.33h9.36v-9.72h-9.36Z"/><path class="cls-1" d="M442.71,278.28a7.19,7.19,0,0,1-2.95-.5,7.66,7.66,0,0,1-1.66-1v1.08a10.37,10.37,0,0,1-1.08,4.39,14.13,14.13,0,0,1-3.06,4.21,16.33,16.33,0,0,1-11.48,4.43H409.73a17,17,0,0,1-6.87-1.4,18.1,18.1,0,0,1-5.58-3.78,17.57,17.57,0,0,1-3.75-5.58,17.22,17.22,0,0,1-1.36-6.81V250.78h10.44v21.16a6.37,6.37,0,0,0,.54,2.6,7.07,7.07,0,0,0,1.47,2.16,6.6,6.6,0,0,0,2.16,1.44,6.86,6.86,0,0,0,2.59.5h13.18a5.17,5.17,0,0,0,3.74-1.55,5.07,5.07,0,0,0,1.59-3.78V249.55h10.29v14.76a1.5,1.5,0,0,0,.62,1.26,2.14,2.14,0,0,0,1.33.47h2.52a2.68,2.68,0,0,0,1.65-.54,2.2,2.2,0,0,0,.87-1.48l2.88-14.4,10.58,1.88-2.45,12.24a1.9,1.9,0,0,0,.4,1.54A1.77,1.77,0,0,0,458,266h6.41V247.46h10.44v20.16a9.78,9.78,0,0,1-.86,4,11.14,11.14,0,0,1-2.38,3.42,11.82,11.82,0,0,1-3.45,2.34,10.13,10.13,0,0,1-4.11.86h-5a15.07,15.07,0,0,1-4.67-.83,8.62,8.62,0,0,1-4.18-2.91,12.38,12.38,0,0,1-3.56,2.91A9,9,0,0,1,442.71,278.28Z"/><path class="cls-1" d="M522.27,277.27a.9.9,0,0,1-1,1h-1.08a14.13,14.13,0,0,1-5.36-1,13,13,0,0,1-4.36-2.88,20.83,20.83,0,0,1-3.56,2.13,13.74,13.74,0,0,1-4.07,1.18l-21.46,2.74-1.44-11,7.92-1-3.52-37.59,10.58-1.29,3.24,37.51,4.25-.51a5.12,5.12,0,0,0,2.55-.93c.75-.53,1.12-1.56,1.12-3.1V227.3h10.37V264a3.65,3.65,0,0,0,.39,1.23A1.28,1.28,0,0,0,518,266h3.24a.9.9,0,0,1,1,1Z"/><path class="cls-1" d="M530.62,278.28h-9.29a1.11,1.11,0,0,1-1.08-1.08V267.05a1.13,1.13,0,0,1,.29-.76.67.67,0,0,1,.65-.25h10.29a4.58,4.58,0,0,0,2.85-.9,5.6,5.6,0,0,0,1.76-2.16,6.07,6.07,0,0,0,.58-2.59,3.59,3.59,0,0,0-.65-2.2l-12.89-17.28v-6.69L549.41,221l4.61,9-20,10,9.65,12.24a14,14,0,0,1,2.74,5.4,15.58,15.58,0,0,1,.36,5.76,17.82,17.82,0,0,1-1.66,5.58,16.31,16.31,0,0,1-3.42,4.75,16.53,16.53,0,0,1-4.93,3.28A15.23,15.23,0,0,1,530.62,278.28Z"/><path class="cls-1" d="M595.63,243.72a9.22,9.22,0,0,0-3.92-3.85,12.81,12.81,0,0,0-6-1.33,12.35,12.35,0,0,0-9.58,3.92q-3.6,3.93-3.6,10.48,0,7,3.78,10.9t10.41,3.93a12.58,12.58,0,0,0,7.67-2.31,13.07,13.07,0,0,0,4.57-6.62H583.32v-9.07h26.79v11.45a24.49,24.49,0,0,1-13,15,25.76,25.76,0,0,1-11.38,2.45,26.84,26.84,0,0,1-13.35-3.28,23.28,23.28,0,0,1-9.15-9.1,28.85,28.85,0,0,1,0-26.68,23.28,23.28,0,0,1,9.11-9.14,26.68,26.68,0,0,1,13.32-3.28q9.07,0,15.3,4.39a20.73,20.73,0,0,1,8.24,12.17Z"/><path d="M102.65,445.44h-16L69.74,419.81v25.63h-16v-51h16l16.92,26.07V394.46h16Z"/><path d="M148.94,427.94h-25.7q.36,5.26,4.39,5.26a3.89,3.89,0,0,0,3.75-2.38h16.91a17.5,17.5,0,0,1-3.63,7.74,19.56,19.56,0,0,1-7,5.4,21.44,21.44,0,0,1-9.25,2,22.46,22.46,0,0,1-10.76-2.52,18,18,0,0,1-7.35-7.23,24.63,24.63,0,0,1,0-22.11,18,18,0,0,1,7.35-7.23,22.46,22.46,0,0,1,10.76-2.52,22.84,22.84,0,0,1,10.77,2.48,17.91,17.91,0,0,1,7.34,7.09,21.64,21.64,0,0,1,2.63,10.88A21.38,21.38,0,0,1,148.94,427.94Zm-16-7a3.69,3.69,0,0,0-1.3-3.06,5,5,0,0,0-3.24-1c-2.83,0-4.49,1.36-5,4.1Z"/><path d="M215.83,404.83l-9.65,40.61h-18l-4.89-22.9-5.19,22.9h-18l-9.57-40.61h15.84l3.38,24.7,5.26-24.7h17.06l5.55,25,3.45-25Z"/><path d="M292.73,394.46v51H276.81V420L269,445.44H255.29L247.44,420v25.42h-16v-51H251l11.23,30.6,10.94-30.6Z"/><path d="M301.29,399.36a7.19,7.19,0,0,1-2.52-5.62,7.36,7.36,0,0,1,2.52-5.72,9.66,9.66,0,0,1,6.7-2.27,9.52,9.52,0,0,1,6.62,2.27,7.36,7.36,0,0,1,2.52,5.72,7.19,7.19,0,0,1-2.52,5.62,9.59,9.59,0,0,1-6.62,2.23A9.74,9.74,0,0,1,301.29,399.36Zm14.62,5.47v40.61h-16V404.83Z"/><path d="M339.09,392.16v53.28h-16V392.16Z"/><path d="M347.66,399.36a7.19,7.19,0,0,1-2.52-5.62,7.36,7.36,0,0,1,2.52-5.72,9.64,9.64,0,0,1,6.7-2.27A9.54,9.54,0,0,1,361,388a7.36,7.36,0,0,1,2.52,5.72,7.19,7.19,0,0,1-2.52,5.62,9.61,9.61,0,0,1-6.62,2.23A9.72,9.72,0,0,1,347.66,399.36Zm14.62,5.47v40.61h-16V404.83Z"/><path d="M394.75,431.83v13.61H388.7q-16.71,0-16.7-16.63V418.15h-5V404.83h5V395h16v9.79h6.62v13.32H388v11a2.77,2.77,0,0,0,.68,2.08,3.22,3.22,0,0,0,2.27.65Z"/><path d="M400.9,414a16.83,16.83,0,0,1,6-7.2,15.39,15.39,0,0,1,8.56-2.48,13.73,13.73,0,0,1,6.84,1.62,10.88,10.88,0,0,1,4.39,4.43v-5.55h15.92v40.61H426.71V439.9a10.92,10.92,0,0,1-4.39,4.42,13.73,13.73,0,0,1-6.84,1.62,15.31,15.31,0,0,1-8.56-2.48,16.83,16.83,0,0,1-6-7.2,29.35,29.35,0,0,1,0-22.25Zm24.16,6.09a5.92,5.92,0,0,0-8.5,0,8.52,8.52,0,0,0,0,10.08,5.92,5.92,0,0,0,8.5,0,8.52,8.52,0,0,0,0-10.08Z"/><path d="M471.79,406.67a14,14,0,0,1,7.34-2.13v17.07h-4.54q-4.53,0-6.66,1.58t-2.12,5.62v16.63h-16V404.83h16v7.49A19.27,19.27,0,0,1,471.79,406.67Z"/><path d="M529.31,404.83l-26,60.05H485.83l10.22-21.46-16.92-38.59h17.78l7.64,20.59,7.12-20.59Z"/><path d="M563.58,414.26v13.18H530V414.26Z"/><path d="M58.62,528.06q-5.94-4.29-6.44-12.56h17c.24,2.92,1.53,4.39,3.89,4.39a3.86,3.86,0,0,0,2.19-.61,2.16,2.16,0,0,0,.9-1.91,3.33,3.33,0,0,0-1.94-2.92,39.32,39.32,0,0,0-6-2.55,65.41,65.41,0,0,1-8.1-3.39,15.67,15.67,0,0,1-5.51-4.82,13.13,13.13,0,0,1-2.23-8.14,13.9,13.9,0,0,1,2.56-8.46,15.74,15.74,0,0,1,7-5.29,26.24,26.24,0,0,1,10-1.8q9.36,0,14.87,4.32t5.8,12.17H75.29a4.31,4.31,0,0,0-1.08-3.1,3.48,3.48,0,0,0-2.45-.93,2.19,2.19,0,0,0-1.66.68,2.67,2.67,0,0,0-.64,1.91,3.26,3.26,0,0,0,1.9,2.84,42.09,42.09,0,0,0,6.09,2.7,67.5,67.5,0,0,1,8,3.46,16.81,16.81,0,0,1,5.44,4.61,11.64,11.64,0,0,1,2.3,7.41,15.11,15.11,0,0,1-9,14.19,24.12,24.12,0,0,1-10.44,2.08Q64.57,532.34,58.62,528.06Z"/><path d="M119.1,492.35a13.52,13.52,0,0,1,6.8-1.62,15.4,15.4,0,0,1,8.57,2.48,16.74,16.74,0,0,1,6,7.2,29.23,29.23,0,0,1,0,22.25,16.74,16.74,0,0,1-6,7.2,15.32,15.32,0,0,1-8.57,2.48,13.52,13.52,0,0,1-6.8-1.62,11,11,0,0,1-4.36-4.42v25h-16v-60h16v5.55A11,11,0,0,1,119.1,492.35Zm5.72,14.15a5.91,5.91,0,0,0-8.49,0,8.48,8.48,0,0,0,0,10.08,5.91,5.91,0,0,0,8.49,0,8.48,8.48,0,0,0,0-10.08Z"/><path d="M186.82,514.34H161.11q.36,5.26,4.39,5.26a3.89,3.89,0,0,0,3.75-2.38h16.92a17.62,17.62,0,0,1-3.64,7.74,19.53,19.53,0,0,1-7,5.4,21.52,21.52,0,0,1-9.26,2,22.46,22.46,0,0,1-10.76-2.52,17.93,17.93,0,0,1-7.34-7.23,24.55,24.55,0,0,1,0-22.11,17.93,17.93,0,0,1,7.34-7.23,22.46,22.46,0,0,1,10.76-2.52,22.81,22.81,0,0,1,10.77,2.48,17.91,17.91,0,0,1,7.34,7.09A21.64,21.64,0,0,1,187,511.18,22.87,22.87,0,0,1,186.82,514.34Zm-16-7a3.72,3.72,0,0,0-1.29-3.06,5,5,0,0,0-3.25-1c-2.83,0-4.48,1.36-5,4.1Z"/><path d="M192.54,500.48a17.93,17.93,0,0,1,7.34-7.23,22.53,22.53,0,0,1,10.77-2.52A20.36,20.36,0,0,1,224,495.19a20,20,0,0,1,6.88,12.39H214c-.63-2.12-1.85-3.17-3.67-3.17a3.43,3.43,0,0,0-3.06,1.8,13.22,13.22,0,0,0,0,10.65,3.43,3.43,0,0,0,3.06,1.8q2.73,0,3.67-3.16h16.92A20,20,0,0,1,224,527.88a20.31,20.31,0,0,1-13.35,4.46,22.53,22.53,0,0,1-10.77-2.52,17.93,17.93,0,0,1-7.34-7.23,24.55,24.55,0,0,1,0-22.11Z"/><path d="M309.43,480.86v51H293.52V506.42l-7.85,25.42H272l-7.85-25.42v25.42h-16v-51h19.58L279,511.46l10.95-30.6Z"/><path d="M355.73,514.34H330q.36,5.26,4.39,5.26a3.89,3.89,0,0,0,3.75-2.38h16.92a17.62,17.62,0,0,1-3.64,7.74,19.53,19.53,0,0,1-7,5.4,21.5,21.5,0,0,1-9.25,2,22.47,22.47,0,0,1-10.77-2.52,17.93,17.93,0,0,1-7.34-7.23,24.55,24.55,0,0,1,0-22.11,17.93,17.93,0,0,1,7.34-7.23,22.47,22.47,0,0,1,10.77-2.52A22.8,22.8,0,0,1,346,493.21a17.91,17.91,0,0,1,7.34,7.09,21.54,21.54,0,0,1,2.63,10.88A22.87,22.87,0,0,1,355.73,514.34Zm-16-7a3.72,3.72,0,0,0-1.29-3.06,5,5,0,0,0-3.24-1c-2.84,0-4.49,1.36-5,4.1Z"/><path d="M382.94,493.07a14,14,0,0,1,7.35-2.13V508h-4.54c-3,0-5.25.53-6.66,1.58s-2.13,2.93-2.13,5.62v16.63H361V491.23h16v7.49A19.49,19.49,0,0,1,382.94,493.07Z"/><path d="M395.07,500.48a17.9,17.9,0,0,1,7.35-7.23,22.46,22.46,0,0,1,10.76-2.52,20.41,20.41,0,0,1,13.36,4.46,20.06,20.06,0,0,1,6.87,12.39H416.49c-.62-2.12-1.85-3.17-3.67-3.17a3.44,3.44,0,0,0-3.06,1.8,13.22,13.22,0,0,0,0,10.65,3.44,3.44,0,0,0,3.06,1.8c1.82,0,3.05-1,3.67-3.16h16.92a20,20,0,0,1-6.87,12.38,20.35,20.35,0,0,1-13.36,4.46,22.46,22.46,0,0,1-10.76-2.52,17.9,17.9,0,0,1-7.35-7.23,24.63,24.63,0,0,1,0-22.11Z"/><path d="M477.55,514.34H451.84q.36,5.26,4.4,5.26a3.89,3.89,0,0,0,3.74-2.38H476.9a17.62,17.62,0,0,1-3.64,7.74,19.44,19.44,0,0,1-7,5.4,21.47,21.47,0,0,1-9.25,2,22.53,22.53,0,0,1-10.77-2.52,17.93,17.93,0,0,1-7.34-7.23,24.55,24.55,0,0,1,0-22.11,17.93,17.93,0,0,1,7.34-7.23A22.53,22.53,0,0,1,457,490.73a22.8,22.8,0,0,1,10.76,2.48,17.93,17.93,0,0,1,7.35,7.09,21.64,21.64,0,0,1,2.62,10.88A22.87,22.87,0,0,1,477.55,514.34Zm-16-7a3.72,3.72,0,0,0-1.29-3.06,5,5,0,0,0-3.24-1c-2.83,0-4.49,1.36-5,4.1Z"/><path d="M482.84,500.41a16.81,16.81,0,0,1,6-7.2,15.43,15.43,0,0,1,8.57-2.48,13.5,13.5,0,0,1,6.8,1.62,11,11,0,0,1,4.36,4.43V478.56h16v53.28h-16V526.3a11,11,0,0,1-4.36,4.42,13.5,13.5,0,0,1-6.8,1.62,15.35,15.35,0,0,1-8.57-2.48,16.81,16.81,0,0,1-6-7.2,29.23,29.23,0,0,1,0-22.25ZM507,506.5a5.92,5.92,0,0,0-8.5,0,8.48,8.48,0,0,0,0,10.08,5.92,5.92,0,0,0,8.5,0,8.52,8.52,0,0,0,0-10.08Z"/><path d="M570.86,514.34h-25.7q.36,5.26,4.39,5.26a3.88,3.88,0,0,0,3.74-2.38h16.92a17.61,17.61,0,0,1-3.63,7.74,19.56,19.56,0,0,1-7,5.4,21.47,21.47,0,0,1-9.25,2,22.46,22.46,0,0,1-10.76-2.52,17.9,17.9,0,0,1-7.35-7.23,24.55,24.55,0,0,1,0-22.11,17.9,17.9,0,0,1,7.35-7.23,22.46,22.46,0,0,1,10.76-2.52,22.8,22.8,0,0,1,10.76,2.48,17.87,17.87,0,0,1,7.35,7.09,21.64,21.64,0,0,1,2.63,10.88A22.83,22.83,0,0,1,570.86,514.34Zm-16-7a3.72,3.72,0,0,0-1.3-3.06,5,5,0,0,0-3.24-1c-2.83,0-4.49,1.36-5,4.1Z"/><path d="M584,530.47a17.21,17.21,0,0,1-7-5.18,13.84,13.84,0,0,1-3-7.49h15.33a3.75,3.75,0,0,0,1.55,2.66,5.53,5.53,0,0,0,3.21.87,3.17,3.17,0,0,0,1.94-.54,1.62,1.62,0,0,0,.72-1.33,2,2,0,0,0-1.51-2,37,37,0,0,0-5.11-1.29,52,52,0,0,1-7.24-1.88,11.68,11.68,0,0,1-5-3.45,10,10,0,0,1-2.12-6.77,12.24,12.24,0,0,1,2-6.8,13.29,13.29,0,0,1,5.87-4.83,22.81,22.81,0,0,1,9.43-1.76q8.21,0,12.85,4a16.52,16.52,0,0,1,5.58,10.51H597.36a4.26,4.26,0,0,0-1.52-2.55,4.87,4.87,0,0,0-3.09-.9,3.17,3.17,0,0,0-1.87.46,1.61,1.61,0,0,0-.65,1.41c0,.81.5,1.43,1.51,1.83a28.54,28.54,0,0,0,4.82,1.26,53.21,53.21,0,0,1,7.42,2,12.17,12.17,0,0,1,5.26,3.71,11.95,11.95,0,0,1,.14,13.71,13.91,13.91,0,0,1-6,4.54,23.58,23.58,0,0,1-9.18,1.65A25.94,25.94,0,0,1,584,530.47Z"/><path d="M85,584.69a6.17,6.17,0,0,0-2.67-2.34,9.6,9.6,0,0,0-4.17-.83,8.81,8.81,0,0,0-7.13,3q-2.52,3-2.52,8.17,0,6,2.81,8.93T80,604.56a10.69,10.69,0,0,0,8.93-4.46H76.15V588.79h26v16A30.55,30.55,0,0,1,93,614.53q-5.84,4.07-14.76,4.07a27.77,27.77,0,0,1-13.79-3.28,22.23,22.23,0,0,1-9-9.18,30.51,30.51,0,0,1,0-26.92,22.28,22.28,0,0,1,9-9.18,27.37,27.37,0,0,1,13.68-3.28q10,0,16.3,4.82a19.18,19.18,0,0,1,7.46,13.11Z"/><path d="M139.29,587.06v13.18H105.74V587.06Z"/><path d="M151,579.22a22.07,22.07,0,0,1,8.75-9.18,26.31,26.31,0,0,1,13.39-3.28A27.33,27.33,0,0,1,185,569.24a21.91,21.91,0,0,1,8.49,7,25.44,25.44,0,0,1,4.36,10.59H181a9.2,9.2,0,0,0-3.27-3.93,8.67,8.67,0,0,0-4.86-1.4,7.65,7.65,0,0,0-6.38,3,15.33,15.33,0,0,0,0,16.28,7.65,7.65,0,0,0,6.38,3,8.67,8.67,0,0,0,4.86-1.4,9.2,9.2,0,0,0,3.27-3.93h16.85a25.44,25.44,0,0,1-4.36,10.59,21.91,21.91,0,0,1-8.49,7,27.33,27.33,0,0,1-11.85,2.48,26.31,26.31,0,0,1-13.39-3.28,22.07,22.07,0,0,1-8.75-9.18,31.13,31.13,0,0,1,0-26.92Z"/><path d="M219.57,565v53.28h-16V565Z"/><path d="M226.81,586.81a16.81,16.81,0,0,1,6-7.2,15.43,15.43,0,0,1,8.57-2.48,13.73,13.73,0,0,1,6.84,1.62,11,11,0,0,1,4.39,4.43v-5.55h15.91v40.61H252.62V612.7a11,11,0,0,1-4.39,4.42,13.73,13.73,0,0,1-6.84,1.62,15.35,15.35,0,0,1-8.57-2.48,16.81,16.81,0,0,1-6-7.2,29.23,29.23,0,0,1,0-22.25ZM251,592.9a5.91,5.91,0,0,0-8.49,0,8.48,8.48,0,0,0,0,10.08,5.91,5.91,0,0,0,8.49,0,8.48,8.48,0,0,0,0-10.08Z"/><path d="M283.62,616.87a17.21,17.21,0,0,1-7-5.18,13.85,13.85,0,0,1-3-7.49H289a3.75,3.75,0,0,0,1.55,2.66,5.51,5.51,0,0,0,3.2.87,3.18,3.18,0,0,0,1.95-.54,1.62,1.62,0,0,0,.72-1.33,2,2,0,0,0-1.52-2,36.27,36.27,0,0,0-5.11-1.29,51.45,51.45,0,0,1-7.23-1.88,11.62,11.62,0,0,1-5-3.45,10,10,0,0,1-2.12-6.77,12.23,12.23,0,0,1,2-6.8,13.35,13.35,0,0,1,5.87-4.83,22.84,22.84,0,0,1,9.43-1.76q8.22,0,12.86,4a16.62,16.62,0,0,1,5.58,10.51H297a4.25,4.25,0,0,0-1.51-2.55,4.89,4.89,0,0,0-3.09-.9,3.2,3.2,0,0,0-1.88.46,1.64,1.64,0,0,0-.65,1.41c0,.81.51,1.43,1.52,1.83a28.28,28.28,0,0,0,4.82,1.26,53.21,53.21,0,0,1,7.42,2,12.2,12.2,0,0,1,5.25,3.71,12,12,0,0,1,.15,13.71,14,14,0,0,1-6,4.54,23.51,23.51,0,0,1-9.18,1.65A25.89,25.89,0,0,1,283.62,616.87Z"/><path d="M325.3,616.87a17.21,17.21,0,0,1-7-5.18,13.92,13.92,0,0,1-2.95-7.49h15.34a3.75,3.75,0,0,0,1.55,2.66,5.49,5.49,0,0,0,3.2.87,3.15,3.15,0,0,0,1.94-.54,1.62,1.62,0,0,0,.72-1.33,2,2,0,0,0-1.51-2,36.66,36.66,0,0,0-5.11-1.29,52,52,0,0,1-7.24-1.88,11.65,11.65,0,0,1-5-3.45,10,10,0,0,1-2.13-6.77,12.24,12.24,0,0,1,2-6.8,13.35,13.35,0,0,1,5.87-4.83,22.84,22.84,0,0,1,9.43-1.76q8.2,0,12.85,4a16.52,16.52,0,0,1,5.58,10.51H338.66a4.25,4.25,0,0,0-1.51-2.55,4.9,4.9,0,0,0-3.1-.9,3.19,3.19,0,0,0-1.87.46,1.64,1.64,0,0,0-.65,1.41,2,2,0,0,0,1.51,1.83,28.45,28.45,0,0,0,4.83,1.26,52.66,52.66,0,0,1,7.41,2,12.17,12.17,0,0,1,5.26,3.71,11.95,11.95,0,0,1,.14,13.71,13.86,13.86,0,0,1-6,4.54,23.51,23.51,0,0,1-9.18,1.65A26,26,0,0,1,325.3,616.87Z"/></g></svg>