<svg xmlns="http://www.w3.org/2000/svg" viewBox="0 0 672 672"><defs><style>.cls-1{fill:#8fe044;}</style></defs><g id="Layer_3" data-name="Layer 3"><rect class="cls-1" width="672" height="672"/></g><g id="Layer_1" data-name="Layer 1"><path d="M403.14,314.84v17.4a7.87,7.87,0,0,0,2.4,5.85,8.1,8.1,0,0,0,5.9,2.35h41a4.7,4.7,0,0,0,3.4-1.35,4.45,4.45,0,0,0,1.4-3.35v-18h11v17.9a4.78,4.78,0,0,0,4.8,4.8h3a1.24,1.24,0,0,1,1.4,1.4V352a1.24,1.24,0,0,1-1.4,1.4h-1.1a14.83,14.83,0,0,1-6.7-1.55,16.53,16.53,0,0,1-5.4-4.35,15.11,15.11,0,0,1-5.65,4.5,16.48,16.48,0,0,1-6.75,1.4h-38a19.64,19.64,0,0,1-7.9-1.6,20.84,20.84,0,0,1-6.45-4.35,20.6,20.6,0,0,1-4.35-6.45,19.81,19.81,0,0,1-1.6-7.9v-18.3Zm13,0h11.5v-11.5h-11.5Zm16.7,0h11.5v-11.5h-11.5Z"/><path d="M476,353.44a1.24,1.24,0,0,1-1.4-1.4v-10.2a1.24,1.24,0,0,1,1.4-1.4h3.2a5.25,5.25,0,0,0,3.45-1.2,5.39,5.39,0,0,0,1.85-3.2l2-10.3a14.5,14.5,0,0,1,1.95-5.05,16.15,16.15,0,0,1,3.45-4,15.58,15.58,0,0,1,4.55-2.6,15.26,15.26,0,0,1,5.35-.95h5.6a15.85,15.85,0,0,1,6.4,1.3,16.34,16.34,0,0,1,8.7,8.7,15.85,15.85,0,0,1,1.3,6.4v6.1a4.78,4.78,0,0,0,4.8,4.8h3.8a1.24,1.24,0,0,1,1.4,1.4V352a1.29,1.29,0,0,1-.45,1,1.4,1.4,0,0,1-.95.4h-1.9a15.54,15.54,0,0,1-5.55-1,13.19,13.19,0,0,1-4.85-3.3,10,10,0,0,1-8.4,4.3h-11.6a12.19,12.19,0,0,1-10.6-5.8,13.35,13.35,0,0,1-5.1,4.5,14,14,0,0,1-6,1.3Zm22.7-13h14.1v-11a3.76,3.76,0,0,0-3.8-3.8h-8.1a3.58,3.58,0,0,0-2.4.85,3.94,3.94,0,0,0-1.3,2.25l-1.6,8a2.89,2.89,0,0,0,.65,2.55A3,3,0,0,0,498.74,340.44Z"/><path d="M571.34,352a1.4,1.4,0,0,1-.4.95,1.29,1.29,0,0,1-1,.45h-7.6a13.2,13.2,0,0,1-6.4-1.75,9.46,9.46,0,0,1-4.3-4.15,8.32,8.32,0,0,1-2,2.25,19.89,19.89,0,0,1-2.85,1.9,14.34,14.34,0,0,1-6.75,1.75h-7.6A1.24,1.24,0,0,1,531,352v-10.1a1.52,1.52,0,0,1,.4-1.05,1.29,1.29,0,0,1,1-.45H541a5.44,5.44,0,0,0,3.5-1.2,5.31,5.31,0,0,0,1.9-3.2l3.7-18,10.8,1.9-3,15.1a4.07,4.07,0,0,0,.9,3.75,4.5,4.5,0,0,0,3.6,1.65h7.5a1.29,1.29,0,0,1,1,.45,1.52,1.52,0,0,1,.4,1.05Zm-34.2,24.9h11.4v-11.5h-11.4Zm16.6,0h11.5v-11.5h-11.5Z"/><path d="M613.24,335.54a17.44,17.44,0,0,1-1.4,6.95,18.08,18.08,0,0,1-9.55,9.55,17.44,17.44,0,0,1-6.95,1.4h-25.4a1.29,1.29,0,0,1-1-.45,1.52,1.52,0,0,1-.4-1.05v-10.1a1.55,1.55,0,0,1,.35-.95,1.25,1.25,0,0,1,1.05-.45h27.5a4.78,4.78,0,0,0,4.8-4.8v-2.1a17.4,17.4,0,0,1-6,1.1h-5.9a15.15,15.15,0,0,1-6.9-1.6,15.85,15.85,0,0,1-8.4-10.3,15.84,15.84,0,0,1-.2-7.1l1.5-8a14,14,0,0,1,1.95-5.1,17.52,17.52,0,0,1,3.45-4,15.06,15.06,0,0,1,4.55-2.65,15.26,15.26,0,0,1,5.35-.95H597a15.52,15.52,0,0,1,6.35,1.3,16.77,16.77,0,0,1,5.15,3.5,16.11,16.11,0,0,1,4.7,11.4Zm-33.5-61h11.5V286h-11.5Zm9,47.1h13.5v-10.4a3.76,3.76,0,0,0-3.8-3.8h-7.7a3.84,3.84,0,0,0-2.5.9,3.53,3.53,0,0,0-1.3,2.3l-1.3,7.1a3.17,3.17,0,0,0,.65,2.7A3,3,0,0,0,588.74,321.64Zm7.7-47.1h11.5V286h-11.5Z"/><path d="M204,437.64v18.7a3.56,3.56,0,0,0,1.5,3,5.28,5.28,0,0,0,3.3,1.15h7.3a1.24,1.24,0,0,1,1.4,1.4V472a1.24,1.24,0,0,1-1.4,1.4h-5.5a12,12,0,0,1-3.6-.6,5.26,5.26,0,0,1-3-2.5v1.8a21,21,0,0,1-1.25,7.25,23.7,23.7,0,0,1-3.45,6.35,24,24,0,0,1-5.2,5.05,24.72,24.72,0,0,1-6.6,3.35l-13.8,4.7-3.4-10.3,14.4-4.7a11.25,11.25,0,0,0,6-4.45,12.3,12.3,0,0,0,2.25-7.15v-34.6Z"/><path d="M221.44,447.74a18,18,0,0,1,1.55-7.45,20.09,20.09,0,0,1,4.1-6,19,19,0,0,1,5.9-4,17.29,17.29,0,0,1,6.95-1.45h1.6a17.71,17.71,0,0,1,7.15,1.45,18.54,18.54,0,0,1,9.8,9.8,17.75,17.75,0,0,1,1.45,7.15v3.5a16.68,16.68,0,0,1-3.3,9.7h8.5a1.24,1.24,0,0,1,1.05.45,1.62,1.62,0,0,1,.35,1.05V472a1.4,1.4,0,0,1-.4.95,1.27,1.27,0,0,1-1,.45h-11q-1.8,0-3.3-.15a17.11,17.11,0,0,1-3.05-.6,23.07,23.07,0,0,1-3.25-1.25q-1.69-.79-4-2.1-2.29,1.31-4,2.1a23.55,23.55,0,0,1-3.2,1.25,15.94,15.94,0,0,1-3,.6q-1.5.15-3.3.15h-10.9a1.24,1.24,0,0,1-1.4-1.4v-10.1a1.68,1.68,0,0,1,.35-1.05,1.27,1.27,0,0,1,1-.45h8.5a16.74,16.74,0,0,1-3.2-9.7Zm10.6,3.5c0,1.4.79,2.73,2.35,4a21.58,21.58,0,0,0,6.15,3.3,21.6,21.6,0,0,0,6.05-3.3q2.35-1.9,2.35-4v-2.5a7,7,0,0,0-2.2-5.25,7.31,7.31,0,0,0-5.3-2.15h-1.9a7.34,7.34,0,0,0-5.3,2.15,7.08,7.08,0,0,0-2.2,5.25Zm2.8-31.5h11.5v-11.5h-11.5Z"/><path d="M286.24,450.94a6.91,6.91,0,0,0,.55,3.4,4.06,4.06,0,0,1,.55.9l13.8-14.9a21.78,21.78,0,0,1,7.5-5.35,22.62,22.62,0,0,1,9-1.85h6.2a15.85,15.85,0,0,1,6.4,1.3,16.17,16.17,0,0,1,5.2,3.55,17.19,17.19,0,0,1,3.5,5.2,15.52,15.52,0,0,1,1.3,6.35v6a17.27,17.27,0,0,1-1.4,6.95,18.41,18.41,0,0,1-3.8,5.7,17.55,17.55,0,0,1-12.6,5.25h-29.6a16.15,16.15,0,0,1-6.7-1.4,13.84,13.84,0,0,1-5.4-4.5,14.24,14.24,0,0,1-5.6,4.5,16.82,16.82,0,0,1-6.8,1.4h-3.2a1.29,1.29,0,0,1-1-.45,1.45,1.45,0,0,1-.4-.95V462a1.6,1.6,0,0,1,.45-1.1,1.3,1.3,0,0,1,.95-.5h5.3a4.78,4.78,0,0,0,4.8-4.8v-16.4h11Zm38.2,9.5a4.52,4.52,0,0,0,3.4-1.45,4.78,4.78,0,0,0,1.4-3.45v-5.1a4.78,4.78,0,0,0-4.8-4.8h-8.5a11.38,11.38,0,0,0-8.7,3.8l-10.2,11Z"/><path d="M399.54,471.34a24,24,0,0,1-1.2,7.55,25.33,25.33,0,0,1-3.35,6.7,24,24,0,0,1-5.2,5.35,24.59,24.59,0,0,1-6.85,3.6l-13.7,4.7-3.4-10.5,14.1-4.7a13.31,13.31,0,0,0,6.15-4.2,10.59,10.59,0,0,0,2.35-6.9v-.7a13.48,13.48,0,0,1-2.7.85,15.15,15.15,0,0,1-3.2.35h-6.7a15.06,15.06,0,0,1-6.8-1.55,16,16,0,0,1-5.25-4.15,15.6,15.6,0,0,1-3.05-5.95,15.2,15.2,0,0,1-.2-7l1.7-9.1a14.5,14.5,0,0,1,1.95-5.05,17,17,0,0,1,3.45-4.05,15.06,15.06,0,0,1,4.55-2.65,15.26,15.26,0,0,1,5.35-.95h5.6a15.85,15.85,0,0,1,6.4,1.3,16.28,16.28,0,0,1,5.2,3.55,17.05,17.05,0,0,1,3.5,5.25,15.85,15.85,0,0,1,1.3,6.4Zm-11-10.9v-11a3.85,3.85,0,0,0-1.1-2.75,3.57,3.57,0,0,0-2.7-1.15h-8.1a3.48,3.48,0,0,0-2.4.9,4.18,4.18,0,0,0-1.3,2.3l-1.6,8a2.89,2.89,0,0,0,.65,2.55,3,3,0,0,0,2.45,1.15Z"/><path d="M404.94,498.94l-3.4-10.3,14.4-4.7a12.2,12.2,0,0,0,8.3-11.6v-34.6h11v33.5a24,24,0,0,1-1.2,7.55,24.58,24.58,0,0,1-3.35,6.65,23.53,23.53,0,0,1-5.2,5.25,25.57,25.57,0,0,1-6.75,3.55Z"/><path d="M460.44,473.44a12.58,12.58,0,0,1-5.1-1.05,13.36,13.36,0,0,1-7-7.1,12.93,12.93,0,0,1-1.05-5.15v-13h9.4v11a2.13,2.13,0,0,0,.7,1.65,2.31,2.31,0,0,0,1.6.65h16.5a6,6,0,0,0,3.25-.9,6.93,6.93,0,0,0,2.3-2.3,6.06,6.06,0,0,0,.9-3.05,6.21,6.21,0,0,0-.85-3.25l-12.4-22.1,9.3-6.1,13.3,23.6a16.57,16.57,0,0,1,2.35,9.3,19.17,19.17,0,0,1-2.55,8.75,18.68,18.68,0,0,1-6.4,6.5,17.23,17.23,0,0,1-9.3,2.55Z"/><path d="M519.14,473.44a15,15,0,0,1-6.8-1.55,15.47,15.47,0,0,1-5.2-4.15,16.49,16.49,0,0,1-3.05-5.95,14.79,14.79,0,0,1-.25-7l1.7-9.1a14.5,14.5,0,0,1,1.95-5.05,17,17,0,0,1,3.45-4.05,15.06,15.06,0,0,1,4.55-2.65,15.26,15.26,0,0,1,5.35-.95h5.6a15.85,15.85,0,0,1,6.4,1.3,16.28,16.28,0,0,1,5.2,3.55,17.23,17.23,0,0,1,3.5,5.25,15.85,15.85,0,0,1,1.3,6.4v10.9h7a1.24,1.24,0,0,1,1.4,1.4V472a1.24,1.24,0,0,1-1.4,1.4h-7.1v.5a5.89,5.89,0,0,1-.1,1,21.09,21.09,0,0,1-5,11.9,25.43,25.43,0,0,1-11.35,7.7l-13.7,4.7-3.4-10.5,14.1-4.7a13.31,13.31,0,0,0,6.15-4.2,10.59,10.59,0,0,0,2.35-6.9v-.7a13.48,13.48,0,0,1-2.7.85,15.15,15.15,0,0,1-3.2.35Zm-1.4-13h14.1v-11a3.85,3.85,0,0,0-1.1-2.75,3.57,3.57,0,0,0-2.7-1.15h-8.1a3.48,3.48,0,0,0-2.4.9,4.18,4.18,0,0,0-1.3,2.3l-1.6,8a2.89,2.89,0,0,0,.65,2.55A3,3,0,0,0,517.74,460.44Z"/><path d="M548.44,461.94a1.51,1.51,0,0,1,.45-1,1.3,1.3,0,0,1,1-.5h17.9a26.42,26.42,0,0,0,8.3-1.35,16.52,16.52,0,0,0,7-4.45l5.8-6.2.9-.9c.26-.27.43-.4.5-.4l-21-6.3a2.1,2.1,0,0,0-1.75.15,2.85,2.85,0,0,0-1.15,1.35l-3.8,10-9.6-2.6,2.6-9.2a13.56,13.56,0,0,1,2.85-5.3,14.74,14.74,0,0,1,4.4-3.45,14.32,14.32,0,0,1,5.25-1.5,14,14,0,0,1,5.4.55l39.8,11.9-3.3,10.3-4.7-1.4a7,7,0,0,0-3.85.05,8.64,8.64,0,0,0-2.95,2.05l-11.5,11.4a26.22,26.22,0,0,1-10,6.3,35.18,35.18,0,0,1-11.7,2h-15.4a1.24,1.24,0,0,1-1.4-1.4Zm16.6-40.8h11.5v-11.5H565Z"/><path d="M353.54,557.64v18.7a3.56,3.56,0,0,0,1.5,2.95,5.28,5.28,0,0,0,3.3,1.15h7.3a1.24,1.24,0,0,1,1.4,1.4V592a1.24,1.24,0,0,1-1.4,1.4h-5.5a12,12,0,0,1-3.6-.6,5.26,5.26,0,0,1-3-2.5v1.8a21.21,21.21,0,0,1-1.25,7.25,23.7,23.7,0,0,1-3.45,6.35,24,24,0,0,1-5.2,5,24.72,24.72,0,0,1-6.6,3.35l-13.8,4.7-3.4-10.3,14.4-4.7a11.25,11.25,0,0,0,6.05-4.45,12.3,12.3,0,0,0,2.25-7.15v-34.6Z"/><path d="M404.54,592a1.4,1.4,0,0,1-.4,1,1.27,1.27,0,0,1-1,.45h-7.6a13.2,13.2,0,0,1-6.4-1.75,9.51,9.51,0,0,1-4.3-4.15,8.15,8.15,0,0,1-2,2.25,19.89,19.89,0,0,1-2.85,1.9,14.34,14.34,0,0,1-6.75,1.75h-7.6a1.24,1.24,0,0,1-1.4-1.4v-10.1a1.56,1.56,0,0,1,.4-1.05,1.29,1.29,0,0,1,1-.45h8.6a5.42,5.42,0,0,0,3.5-1.2,5.26,5.26,0,0,0,1.9-3.2l3.7-18,10.8,1.9-3,15.1a4.07,4.07,0,0,0,.9,3.75,4.5,4.5,0,0,0,3.6,1.65h7.5a1.27,1.27,0,0,1,1,.45,1.52,1.52,0,0,1,.4,1.05Zm-35.2-43.2h11.5v-11.5h-11.5Zm16.7,0h11.5v-11.5H386Z"/><path d="M411.64,576l2-10.3a14.5,14.5,0,0,1,1.95-5,16.15,16.15,0,0,1,3.45-4,15.71,15.71,0,0,1,4.55-2.6,15.3,15.3,0,0,1,5.35-1h5.6a15.85,15.85,0,0,1,6.4,1.3,16.34,16.34,0,0,1,8.7,8.7,15.85,15.85,0,0,1,1.3,6.4v11.7a12.15,12.15,0,0,1-7.4,11.25,11.75,11.75,0,0,1-4.7,1h-11.6a13.46,13.46,0,0,1-5.7-1.25,12.49,12.49,0,0,1-4.9-4.45,12.86,12.86,0,0,1-5.1,4.45,14.63,14.63,0,0,1-6,1.25h-2.4a1.24,1.24,0,0,1-1.4-1.4v-10.2a1.24,1.24,0,0,1,1.4-1.4h3.2a5.23,5.23,0,0,0,3.45-1.2A5.34,5.34,0,0,0,411.64,576Zm14.2,4.4h14.1v-11a3.63,3.63,0,0,0-1.1-2.7,3.67,3.67,0,0,0-2.7-1.1H428a3.58,3.58,0,0,0-2.4.85,3.94,3.94,0,0,0-1.3,2.25l-1.6,8a2.89,2.89,0,0,0,.65,2.55A3,3,0,0,0,425.84,580.44Z"/><path d="M476.54,593.44a15.06,15.06,0,0,1-6.8-1.55,15.47,15.47,0,0,1-5.2-4.15,16.49,16.49,0,0,1-3.05-6,14.79,14.79,0,0,1-.25-6.95l1.7-9.1a14.5,14.5,0,0,1,1.95-5,17,17,0,0,1,3.45-4.05,15.06,15.06,0,0,1,4.55-2.65,15.3,15.3,0,0,1,5.35-1h5.6a15.85,15.85,0,0,1,6.4,1.3,16.28,16.28,0,0,1,5.2,3.55,17.05,17.05,0,0,1,3.5,5.25,15.85,15.85,0,0,1,1.3,6.4v10.9h7a1.24,1.24,0,0,1,1.4,1.4V592a1.24,1.24,0,0,1-1.4,1.4h-7.1v.5a5.89,5.89,0,0,1-.1,1,21.09,21.09,0,0,1-5.05,11.9,25.43,25.43,0,0,1-11.35,7.7l-13.7,4.7-3.4-10.5,14.1-4.7a13.31,13.31,0,0,0,6.15-4.2,10.59,10.59,0,0,0,2.35-6.9v-.7a13.48,13.48,0,0,1-2.7.85,15.08,15.08,0,0,1-3.2.35Zm-1.4-13h14.1v-11a3.81,3.81,0,0,0-1.1-2.75,3.57,3.57,0,0,0-2.7-1.15h-8.1a3.48,3.48,0,0,0-2.4.9,4.18,4.18,0,0,0-1.3,2.3l-1.6,8a2.89,2.89,0,0,0,.65,2.55A3,3,0,0,0,475.14,580.44Z"/><path d="M540.54,580.44a1.4,1.4,0,0,1,1,.4,1.29,1.29,0,0,1,.45,1V592a1.29,1.29,0,0,1-.45,1,1.4,1.4,0,0,1-1,.4H536a17.21,17.21,0,0,1-6.65-1.3,16.6,16.6,0,0,1-5.45-3.6,17.86,17.86,0,0,1-12.3,4.9h-4.4a1.24,1.24,0,0,1-1.4-1.4v-10.2a1.24,1.24,0,0,1,1.4-1.4h6.4a4.78,4.78,0,0,0,4.8-4.8v-50.7h11v51.2a4.73,4.73,0,0,0,1.55,3.05,4.62,4.62,0,0,0,3.25,1.25Z"/><path d="M579.44,592a1.4,1.4,0,0,1-.4,1,1.29,1.29,0,0,1-1,.45h-7.6a13.2,13.2,0,0,1-6.4-1.75,9.46,9.46,0,0,1-4.3-4.15,8.32,8.32,0,0,1-2,2.25,19.89,19.89,0,0,1-2.85,1.9,14.34,14.34,0,0,1-6.75,1.75h-7.6a1.24,1.24,0,0,1-1.4-1.4v-10.1a1.52,1.52,0,0,1,.4-1.05,1.29,1.29,0,0,1,1-.45h8.6a5.44,5.44,0,0,0,3.5-1.2,5.31,5.31,0,0,0,1.9-3.2l3.7-18,10.8,1.9L566,575a4.07,4.07,0,0,0,.9,3.75,4.5,4.5,0,0,0,3.6,1.65H578a1.29,1.29,0,0,1,1,.45,1.52,1.52,0,0,1,.4,1.05Zm-34.2,24.9h11.4v-11.5h-11.4Zm16.6,0h11.5v-11.5h-11.5Z"/><path d="M590.74,593.44H578a1.29,1.29,0,0,1-1-.45,1.52,1.52,0,0,1-.4-1v-10.1a1.4,1.4,0,0,1,.4-1,1.29,1.29,0,0,1,1-.45h13.8a8.38,8.38,0,0,0,4.9-1.45,9.35,9.35,0,0,0,3.15-3.6,9.51,9.51,0,0,0,1-4.65A8.15,8.15,0,0,0,599,566l-17.1-23.1V535l33.9-17.1,4.9,9.7-27.4,13.8,14.7,18.3a18.91,18.91,0,0,1,3.65,7.2,20.78,20.78,0,0,1,.5,7.55,20.36,20.36,0,0,1-2.25,7.15,23.19,23.19,0,0,1-4.6,6.05,21.13,21.13,0,0,1-6.55,4.2A20.91,20.91,0,0,1,590.74,593.44Z"/><path d="M65.4,64.14a7.54,7.54,0,0,1-5.31,1.65H55.86v8.94h-2.1v-21h6.33a7.54,7.54,0,0,1,5.29,1.65,6.24,6.24,0,0,1,0,8.73ZM65,59.79a4.12,4.12,0,0,0-1.17-3.18,5.42,5.42,0,0,0-3.75-1.08H55.86V64h4.23Q65,64,65,59.79Z"/><path d="M85.44,67.35H71.85a6.59,6.59,0,0,0,.9,3.18,5.38,5.38,0,0,0,2.13,2,6.36,6.36,0,0,0,2.88.67,5.77,5.77,0,0,0,3.43-1A4.66,4.66,0,0,0,83,69.54h2.22a7,7,0,0,1-2.57,3.92A7.83,7.83,0,0,1,77.76,75a8.26,8.26,0,0,1-4.14-1A7.23,7.23,0,0,1,70.75,71a9.21,9.21,0,0,1-1-4.46,9.39,9.39,0,0,1,1-4.47,7.09,7.09,0,0,1,2.85-2.94,8.42,8.42,0,0,1,4.17-1,8,8,0,0,1,4.09,1,7.1,7.1,0,0,1,2.7,2.74,7.88,7.88,0,0,1,1,3.83Q85.5,66.78,85.44,67.35Zm-2.81-4.83a5,5,0,0,0-2.08-2,6.35,6.35,0,0,0-2.88-.66,5.72,5.72,0,0,0-4,1.5,6,6,0,0,0-1.83,4.23H83.37A5.82,5.82,0,0,0,82.63,62.52Z"/><path d="M102.84,58.35,93.12,82.44H90.93l3.18-7.8L87.39,58.35H89.7l5.58,14,5.4-14Z"/><path d="M105.75,62.09a7.29,7.29,0,0,1,2.8-2.94,7.92,7.92,0,0,1,4-1,7.4,7.4,0,0,1,3.9,1A6.42,6.42,0,0,1,119,61.89V52.53h2.1v22.2H119V71.07a6.25,6.25,0,0,1-2.46,2.8,7.21,7.21,0,0,1-4,1.1,7.83,7.83,0,0,1-4-1,7.28,7.28,0,0,1-2.79-3,9.44,9.44,0,0,1-1-4.44A9.21,9.21,0,0,1,105.75,62.09Zm12.48,1A5.79,5.79,0,0,0,116,60.75a6,6,0,0,0-3.07-.81,6.23,6.23,0,0,0-3.12.78A5.55,5.55,0,0,0,107.65,63a7.32,7.32,0,0,0-.79,3.52,7.43,7.43,0,0,0,.79,3.52,5.48,5.48,0,0,0,2.18,2.31,6.35,6.35,0,0,0,6.19,0A5.79,5.79,0,0,0,118.23,70a7.88,7.88,0,0,0,0-7Z"/><path d="M126,62.09a7.2,7.2,0,0,1,2.79-2.94,7.92,7.92,0,0,1,4-1,7.33,7.33,0,0,1,4,1.08A6.3,6.3,0,0,1,139.29,62v-3.6h2.1V74.73h-2.1V71.1a6.52,6.52,0,0,1-2.48,2.77,7.18,7.18,0,0,1-4,1.1,7.77,7.77,0,0,1-4-1A7.28,7.28,0,0,1,126,71a9.44,9.44,0,0,1-1-4.44A9.33,9.33,0,0,1,126,62.09Zm12.5,1a5.79,5.79,0,0,0-2.21-2.31,6,6,0,0,0-3.07-.81,6.23,6.23,0,0,0-3.12.78A5.55,5.55,0,0,0,127.9,63a7.32,7.32,0,0,0-.79,3.52A7.43,7.43,0,0,0,127.9,70a5.48,5.48,0,0,0,2.18,2.31,6.35,6.35,0,0,0,6.19,0A5.79,5.79,0,0,0,138.48,70a7.88,7.88,0,0,0,0-7Z"/><path d="M167.22,65.7a5.17,5.17,0,0,1,1.23,3.42,5.32,5.32,0,0,1-.8,2.87,5.4,5.4,0,0,1-2.32,2,8.38,8.38,0,0,1-3.66.73h-7.26v-21h7.05a7.09,7.09,0,0,1,4.84,1.47A4.85,4.85,0,0,1,168,59a4.68,4.68,0,0,1-1.05,3.17,5.58,5.58,0,0,1-2.7,1.69A5,5,0,0,1,167.22,65.7ZM156.51,63h4.89a4.84,4.84,0,0,0,3.28-1,3.5,3.5,0,0,0,1.16-2.78,3.41,3.41,0,0,0-1.16-2.73,5,5,0,0,0-3.37-1h-4.8Zm8.56,8.85a3.69,3.69,0,0,0,1.28-3,3.74,3.74,0,0,0-1.34-3,5.37,5.37,0,0,0-3.58-1.13h-4.92V73h5A5.32,5.32,0,0,0,165.07,71.88Z"/><path d="M175.33,73.93A7.39,7.39,0,0,1,172.42,71a9,9,0,0,1-1.06-4.46,8.86,8.86,0,0,1,1.08-4.45,7.55,7.55,0,0,1,2.94-2.94,8.9,8.9,0,0,1,8.35,0,7.42,7.42,0,0,1,2.94,2.94,9.73,9.73,0,0,1,0,8.89,7.4,7.4,0,0,1-3,3,8.6,8.6,0,0,1-4.2,1A8.37,8.37,0,0,1,175.33,73.93Zm7.16-1.53a5.47,5.47,0,0,0,2.23-2.22,7.18,7.18,0,0,0,.86-3.64,7.26,7.26,0,0,0-.84-3.64,5.45,5.45,0,0,0-2.22-2.22,6.45,6.45,0,0,0-6,0,5.37,5.37,0,0,0-2.21,2.22,8.49,8.49,0,0,0,0,7.28,5.33,5.33,0,0,0,2.19,2.22,6.11,6.11,0,0,0,3,.74A6.17,6.17,0,0,0,182.49,72.4Z"/><path d="M193.68,52.53v22.2h-2.1V52.53Z"/><path d="M198.51,62.09a7.29,7.29,0,0,1,2.8-2.94,7.92,7.92,0,0,1,4-1,7.4,7.4,0,0,1,3.9,1,6.42,6.42,0,0,1,2.55,2.73V52.53h2.1v22.2h-2.1V71.07a6.25,6.25,0,0,1-2.46,2.8,7.21,7.21,0,0,1-4,1.1,7.83,7.83,0,0,1-4-1,7.28,7.28,0,0,1-2.79-3,9.44,9.44,0,0,1-1-4.44A9.21,9.21,0,0,1,198.51,62.09Zm12.48,1a5.79,5.79,0,0,0-2.21-2.31,6,6,0,0,0-3.07-.81,6.23,6.23,0,0,0-3.12.78A5.55,5.55,0,0,0,200.41,63a7.32,7.32,0,0,0-.79,3.52,7.43,7.43,0,0,0,.79,3.52,5.48,5.48,0,0,0,2.18,2.31,6.35,6.35,0,0,0,6.19,0A5.79,5.79,0,0,0,211,70a7.88,7.88,0,0,0,0-7Z"/></g></svg>