<svg xmlns="http://www.w3.org/2000/svg" viewBox="0 0 672 672"><defs><style>.cls-1{fill:#8fe044;}</style></defs><g id="Layer_3" data-name="Layer 3"><rect class="cls-1" width="672" height="672"/></g><g id="Layer_1" data-name="Layer 1"><path d="M406.14,318v15.8a9.35,9.35,0,0,0,2.9,7,9.83,9.83,0,0,0,7.1,2.8h40.1a6.22,6.22,0,0,0,4.5-1.85,6.08,6.08,0,0,0,1.9-4.55v-16.3h8.2v16.3a6.12,6.12,0,0,0,1.9,4.55,6.37,6.37,0,0,0,4.6,1.85h2.9a1.24,1.24,0,0,1,1.4,1.4v7a1.24,1.24,0,0,1-1.4,1.4h-1.5a14.05,14.05,0,0,1-6.7-1.65,14.45,14.45,0,0,1-5.2-4.75,15.32,15.32,0,0,1-5.4,4.8,14.54,14.54,0,0,1-6.8,1.6h-38a18.37,18.37,0,0,1-7.3-1.45,18.64,18.64,0,0,1-9.95-9.95,18.54,18.54,0,0,1-1.45-7.3V318Zm16.2,0h9.5v-9.5h-9.5Zm14.7,0h9.5v-9.5H437Z"/><path d="M480.24,353.44a1.24,1.24,0,0,1-1.4-1.4v-7a1.45,1.45,0,0,1,.4-1,1.2,1.2,0,0,1,.9-.45h3.3a6.8,6.8,0,0,0,4.45-1.6,6.88,6.88,0,0,0,2.45-4.1l2-10.3a13.82,13.82,0,0,1,4.85-8.1,13.48,13.48,0,0,1,8.85-3.2h5.6a14.58,14.58,0,0,1,5.8,1.15,14.6,14.6,0,0,1,7.85,7.85,14.58,14.58,0,0,1,1.15,5.8v6.1a6.15,6.15,0,0,0,1.9,4.5,6.26,6.26,0,0,0,4.6,1.9h3.4a1.24,1.24,0,0,1,1.4,1.4v7a1.29,1.29,0,0,1-.45,1,1.4,1.4,0,0,1-.95.4h-2a15.15,15.15,0,0,1-5.65-1.1,11.22,11.22,0,0,1-4.75-3.7,6.64,6.64,0,0,1-3,3.85,10,10,0,0,1-4.5.95h-12.1a12.45,12.45,0,0,1-5.8-1.4,10.83,10.83,0,0,1-4.5-4.9,11.43,11.43,0,0,1-5,4.9,14.25,14.25,0,0,1-6.15,1.4Zm23.2-9.8h14.8V331a5.13,5.13,0,0,0-1.6-3.85,5.42,5.42,0,0,0-3.9-1.55h-7.1a5.25,5.25,0,0,0-3.45,1.2,5.39,5.39,0,0,0-1.85,3.2l-1.6,8a4.71,4.71,0,0,0,4.7,5.6Z"/><path d="M573.24,352a1.4,1.4,0,0,1-.4.95,1.29,1.29,0,0,1-1,.45h-6.7a11.76,11.76,0,0,1-3.3-.5,14.85,14.85,0,0,1-3.2-1.35,10.57,10.57,0,0,1-2.6-2,7.9,7.9,0,0,1-1.6-2.5,12.81,12.81,0,0,1-4.85,4.55,13.32,13.32,0,0,1-6.65,1.85h-6.6a1.24,1.24,0,0,1-1.4-1.4v-7a1.24,1.24,0,0,1,1.4-1.4h7.1a7.06,7.06,0,0,0,7-5.7l3.4-16.6,8.1,1.4-2.8,13.9a5.57,5.57,0,0,0,1.35,4.85,6,6,0,0,0,4.75,2.15h6.6a1.24,1.24,0,0,1,1.4,1.4Zm-31.1,22.9h9.4v-9.5h-9.4Zm14.6,0h9.5v-9.5h-9.5Z"/><path d="M612.44,337.14a15.52,15.52,0,0,1-1.3,6.35,16.62,16.62,0,0,1-8.65,8.65,15.52,15.52,0,0,1-6.35,1.3h-24.3a1.29,1.29,0,0,1-1-.45,1.52,1.52,0,0,1-.4-1.05v-6.8a1.52,1.52,0,0,1,.4-1.05,1.29,1.29,0,0,1,1-.45h25.4a7.5,7.5,0,0,0,4.85-1.65,6.08,6.08,0,0,0,2-5.05v-1.7a11.83,11.83,0,0,1-4.7.9H591a14,14,0,0,1-10.9-5.15,14.17,14.17,0,0,1-2.7-5.35,14.32,14.32,0,0,1-.2-6.3l1.5-8.3a13.92,13.92,0,0,1,13.7-11.3h5.3a14.23,14.23,0,0,1,5.75,1.15,14.74,14.74,0,0,1,7.8,7.85,14.34,14.34,0,0,1,1.15,5.7Zm-29.6-57.7h9.5v9.5h-9.5Zm7.2,47h14.2v-12a5.46,5.46,0,0,0-5.5-5.5H592a5.33,5.33,0,0,0-3.5,1.25,5.52,5.52,0,0,0-1.9,3.25l-1.3,7.2a4.53,4.53,0,0,0,.95,4.05A4.64,4.64,0,0,0,590,326.44Zm7.5-47H607v9.5h-9.5Z"/><path d="M210.34,440.94v16.7a5.46,5.46,0,0,0,1.95,4.3,6.73,6.73,0,0,0,4.55,1.7h9.1a1.24,1.24,0,0,1,1.4,1.4v7a1.24,1.24,0,0,1-1.4,1.4h-7.7a11.57,11.57,0,0,1-4.4-.85,7.88,7.88,0,0,1-3.5-2.85v3.6a20.73,20.73,0,0,1-1.15,6.9,22.94,22.94,0,0,1-3.2,6.1,22.09,22.09,0,0,1-4.85,4.85,23.62,23.62,0,0,1-6.2,3.25l-12.3,4.2-2.6-8,12.9-4.3a13.08,13.08,0,0,0,6.7-4.9,13.24,13.24,0,0,0,2.5-7.9v-32.6Z"/><path d="M231.34,449.34a16.82,16.82,0,0,1,1.4-6.8,17.91,17.91,0,0,1,3.7-5.5,17.57,17.57,0,0,1,5.4-3.65,16.14,16.14,0,0,1,6.5-1.35h1.4a16.3,16.3,0,0,1,6.6,1.35,17.17,17.17,0,0,1,9.05,9.05,16.37,16.37,0,0,1,1.35,6.6v3.3a13.13,13.13,0,0,1-1.45,6.05,18,18,0,0,1-4,5.15,7.69,7.69,0,0,0,1.45.1H272a1.27,1.27,0,0,1,1,.45,1.52,1.52,0,0,1,.4,1.05V472a1.24,1.24,0,0,1-1.4,1.4h-9.5a29.75,29.75,0,0,1-6.6-.7,36.29,36.29,0,0,1-7-2.5,36.06,36.06,0,0,1-7,2.5,29.62,29.62,0,0,1-6.6.7h-9.4a1.24,1.24,0,0,1-1.4-1.4v-6.9a1.56,1.56,0,0,1,.4-1.05,1.29,1.29,0,0,1,1-.45h9.25a7.55,7.55,0,0,0,1.45-.1,17.59,17.59,0,0,1-3.9-5.15,13.6,13.6,0,0,1-1.4-6.05Zm8.2,3.4a7,7,0,0,0,2.6,5.25,28.09,28.09,0,0,0,6.8,4.35,30.13,30.13,0,0,0,6.9-4.35,6.89,6.89,0,0,0,2.7-5.25V450a8.39,8.39,0,0,0-2.6-6.25,8.65,8.65,0,0,0-6.3-2.55h-1.5a8.22,8.22,0,0,0-6.1,2.55,8.61,8.61,0,0,0-2.5,6.25Zm4.5-31.6h9.5v-9.5H244Z"/><path d="M291.34,454.44a9.28,9.28,0,0,0,.3,2.6,6.2,6.2,0,0,0,.7,1.6,3.23,3.23,0,0,0,1,1.1l15.4-16.7a20.26,20.26,0,0,1,6.9-5,20.7,20.7,0,0,1,8.4-1.75h6.2a14.58,14.58,0,0,1,5.8,1.15,14.31,14.31,0,0,1,4.7,3.2,15.15,15.15,0,0,1,3.15,4.75,14.34,14.34,0,0,1,1.15,5.7v6.7a14.8,14.8,0,0,1-1.25,6.05,15.93,15.93,0,0,1-8.25,8.3,14.56,14.56,0,0,1-6,1.25h-30.1a16.78,16.78,0,0,1-7.15-1.6,10.84,10.84,0,0,1-5.15-4.8,14.14,14.14,0,0,1-12,6.4H272a1.29,1.29,0,0,1-1-.45,1.45,1.45,0,0,1-.4-.95v-6.9a1.56,1.56,0,0,1,.4-1.05,1.29,1.29,0,0,1,1-.45h4.6a6.35,6.35,0,0,0,4.6-1.85,6.08,6.08,0,0,0,1.9-4.55v-14.7h8.2Zm39.5,9.2a5.87,5.87,0,0,0,4.25-1.7,5.73,5.73,0,0,0,1.75-4.3v-5.8a5.88,5.88,0,0,0-1.85-4.4,6.14,6.14,0,0,0-4.45-1.8h-7.3a13,13,0,0,0-5.5,1.15,14.43,14.43,0,0,0-4.4,3.15l-12.7,13.7Z"/><path d="M405,472.94a22.73,22.73,0,0,1-1.1,7.1,22.26,22.26,0,0,1-3.15,6.25,23,23,0,0,1-4.9,5,22.67,22.67,0,0,1-6.35,3.35l-12.3,4.2-2.6-8.1,12.8-4.3a12.67,12.67,0,0,0,6.55-4.7,14.83,14.83,0,0,0,2.65-7.8l.1-1.4a6.55,6.55,0,0,1-2.2.7,16.82,16.82,0,0,1-2.5.2h-9.2a13.5,13.5,0,0,1-6.1-1.4,13.92,13.92,0,0,1-4.65-3.7,14.86,14.86,0,0,1-2.7-5.3,13.49,13.49,0,0,1-.25-6.2l1.7-9.1a13.89,13.89,0,0,1,4.85-8.2,13.48,13.48,0,0,1,8.85-3.2h5.7a14.58,14.58,0,0,1,5.8,1.15,14.31,14.31,0,0,1,4.7,3.2,15.33,15.33,0,0,1,3.15,4.75,14.34,14.34,0,0,1,1.15,5.7Zm-8.2-9.3v-12.5a5.24,5.24,0,0,0-1.65-3.9,5.45,5.45,0,0,0-3.95-1.6h-7.1a5.25,5.25,0,0,0-3.45,1.2,5.44,5.44,0,0,0-1.85,3.2l-1.6,8.1a4.47,4.47,0,0,0,1,3.85,4.63,4.63,0,0,0,3.7,1.65Z"/><path d="M410,498.54l-2.6-8.1,12.9-4.2a12.83,12.83,0,0,0,6.65-4.9,13.3,13.3,0,0,0,2.45-7.8v-32.7h8.2v31.9a22.52,22.52,0,0,1-1.1,7.05,23.54,23.54,0,0,1-3.1,6.2,22.53,22.53,0,0,1-4.8,5,22.12,22.12,0,0,1-6.3,3.35Z"/><path d="M463.44,473.44a10.84,10.84,0,0,1-4.5-.95,13,13,0,0,1-3.7-2.5,11,11,0,0,1-2.5-3.7,11.65,11.65,0,0,1-.9-4.55v-11.4h7V460a3.78,3.78,0,0,0,.9,2.55,3.24,3.24,0,0,0,2.6,1.05h15.9a8,8,0,0,0,4.4-1.15,7.13,7.13,0,0,0,2.65-2.9,8.45,8.45,0,0,0,.85-3.75,7.14,7.14,0,0,0-1-3.7L473.34,431l6.9-4.6,12.1,21.5a16.87,16.87,0,0,1-5.65,23.15,15.91,15.91,0,0,1-8.65,2.35Z"/><path d="M520.44,473.44a13.5,13.5,0,0,1-6.1-1.4,13.72,13.72,0,0,1-4.65-3.7A14.86,14.86,0,0,1,507,463a13.35,13.35,0,0,1-.25-6.2l1.7-9.1a13.89,13.89,0,0,1,4.85-8.2,13.48,13.48,0,0,1,8.85-3.2h5.7a14.58,14.58,0,0,1,5.8,1.15,14.31,14.31,0,0,1,4.7,3.2,15.5,15.5,0,0,1,3.15,4.75,14.34,14.34,0,0,1,1.15,5.7v12.5h7.6a1.24,1.24,0,0,1,1.4,1.4v7a1.24,1.24,0,0,1-1.4,1.4h-7.7v.5a3.13,3.13,0,0,1-.1.8,21.08,21.08,0,0,1-4.45,12.2,22.58,22.58,0,0,1-10.85,7.7l-12.3,4.2-2.6-8.1,12.8-4.3a13.53,13.53,0,0,0,6.7-4.7,12.53,12.53,0,0,0,2.5-7.8v-1.4a6.55,6.55,0,0,1-2.15.7,15.87,15.87,0,0,1-2.45.2Zm-.9-9.8h14.8v-12.5a5.46,5.46,0,0,0-5.5-5.5h-7.1a5.25,5.25,0,0,0-3.45,1.2,5.39,5.39,0,0,0-1.85,3.2l-1.6,8.1a4.44,4.44,0,0,0,1,3.85A4.61,4.61,0,0,0,519.54,463.64Z"/><path d="M548.84,465.14c0-1,.47-1.5,1.4-1.5H567a26.86,26.86,0,0,0,9.05-1.55,20.1,20.1,0,0,0,7.55-4.75l7.9-7.5a6.86,6.86,0,0,1,1.6-1.3l-23-6.9a3.39,3.39,0,0,0-2.9.3,4.11,4.11,0,0,0-1.8,2.3l-3,8.7-7.2-2,2.4-8.3a12.62,12.62,0,0,1,2.45-4.65,12.93,12.93,0,0,1,3.8-3.1,12.41,12.41,0,0,1,4.7-1.4,12.86,12.86,0,0,1,4.95.45l39,11.7-2.6,7.9-4.2-1.3a5.8,5.8,0,0,0-4.5,0,15.34,15.34,0,0,0-3.6,2.6l-11.5,10.8a27.78,27.78,0,0,1-9.4,5.8,33.25,33.25,0,0,1-10.9,2h-15.6a1.29,1.29,0,0,1-1-.45,1.4,1.4,0,0,1-.4-.95Zm16.6-42.5h9.5v-9.5h-9.5Z"/><path d="M357.25,560.94v16.7a5.43,5.43,0,0,0,1.95,4.3,6.71,6.71,0,0,0,4.55,1.7h9.09a1.24,1.24,0,0,1,1.41,1.4v7a1.24,1.24,0,0,1-1.41,1.4h-7.7a11.48,11.48,0,0,1-4.39-.85,7.77,7.77,0,0,1-3.5-2.85v3.6a20.74,20.74,0,0,1-1.16,6.9,22.94,22.94,0,0,1-3.2,6.1,22.09,22.09,0,0,1-4.85,4.85,23.62,23.62,0,0,1-6.2,3.25l-12.3,4.2-2.59-8,12.89-4.3a13.08,13.08,0,0,0,6.7-4.9,13.24,13.24,0,0,0,2.5-7.9v-32.6Z"/><path d="M409.75,592a1.42,1.42,0,0,1-.41,1,1.26,1.26,0,0,1-1,.45h-6.7a11.86,11.86,0,0,1-3.3-.5,14.85,14.85,0,0,1-3.2-1.35,10.76,10.76,0,0,1-2.6-2.05,8.08,8.08,0,0,1-1.6-2.5,12.74,12.74,0,0,1-4.85,4.55,13.3,13.3,0,0,1-6.65,1.85h-6.6a1.24,1.24,0,0,1-1.4-1.4v-7a1.24,1.24,0,0,1,1.4-1.4h7.1a7,7,0,0,0,7-5.7l3.4-16.6,8.1,1.4-2.8,13.9a5.55,5.55,0,0,0,1.36,4.85,6,6,0,0,0,4.75,2.15h6.59a1.24,1.24,0,0,1,1.41,1.4Zm-31.5-41.6h9.5v-9.5h-9.5Zm14.69,0h9.5v-9.5h-9.5Z"/><path d="M418.44,577.94l2-10.3a13.87,13.87,0,0,1,4.85-8.1,13.48,13.48,0,0,1,8.85-3.2h5.6a14.58,14.58,0,0,1,5.8,1.15,14.82,14.82,0,0,1,4.7,3.15,14.75,14.75,0,0,1,4.3,10.5v12.2a9.91,9.91,0,0,1-2.8,7.25,9.63,9.63,0,0,1-7.2,2.85h-12.1a12.48,12.48,0,0,1-5.8-1.4,10.83,10.83,0,0,1-4.5-4.9,11.43,11.43,0,0,1-4.95,4.9,14.18,14.18,0,0,1-6.15,1.4h-2.7a1.24,1.24,0,0,1-1.4-1.4v-7a1.45,1.45,0,0,1,.4-.95,1.29,1.29,0,0,1,1-.45h3.2A6.8,6.8,0,0,0,416,582,6.88,6.88,0,0,0,418.44,577.94Zm13.1,5.7h14.8V571a5.13,5.13,0,0,0-1.6-3.85,5.39,5.39,0,0,0-3.9-1.55h-7.1a5.25,5.25,0,0,0-3.45,1.2,5.44,5.44,0,0,0-1.85,3.2l-1.6,8a4.71,4.71,0,0,0,4.7,5.6Z"/><path d="M480.34,593.44a13.5,13.5,0,0,1-6.1-1.4,13.92,13.92,0,0,1-4.65-3.7,14.86,14.86,0,0,1-2.7-5.3,13.49,13.49,0,0,1-.25-6.2l1.7-9.1a13.94,13.94,0,0,1,4.85-8.2,13.48,13.48,0,0,1,8.85-3.2h5.7a14.58,14.58,0,0,1,5.8,1.15,14.31,14.31,0,0,1,4.7,3.2,15.15,15.15,0,0,1,3.15,4.75,14.34,14.34,0,0,1,1.15,5.7v12.5h7.6a1.24,1.24,0,0,1,1.4,1.4v7a1.24,1.24,0,0,1-1.4,1.4h-7.7v.5a3.13,3.13,0,0,1-.1.8,21.08,21.08,0,0,1-4.45,12.2,22.53,22.53,0,0,1-10.85,7.7l-12.3,4.2-2.6-8.1,12.8-4.3a13.49,13.49,0,0,0,6.7-4.7,12.53,12.53,0,0,0,2.5-7.8v-1.4a6.47,6.47,0,0,1-2.15.7,15.87,15.87,0,0,1-2.45.2Zm-.9-9.8h14.8v-12.5a5.46,5.46,0,0,0-5.5-5.5h-7.1a5.25,5.25,0,0,0-3.45,1.2,5.44,5.44,0,0,0-1.85,3.2l-1.6,8.1a4.47,4.47,0,0,0,1,3.85A4.63,4.63,0,0,0,479.44,583.64Z"/><path d="M543.44,583.64a1.24,1.24,0,0,1,1.4,1.4v7a1.24,1.24,0,0,1-1.4,1.4h-4.5a15.58,15.58,0,0,1-6.7-1.45,14.51,14.51,0,0,1-5.2-4,15.4,15.4,0,0,1-5.35,4,15.9,15.9,0,0,1-6.75,1.45h-4.8a1.24,1.24,0,0,1-1.4-1.4v-7a1.24,1.24,0,0,1,1.4-1.4h6.3a6.26,6.26,0,0,0,4.6-1.9,6.15,6.15,0,0,0,1.9-4.5v-50.6h8.2v51a6.36,6.36,0,0,0,2,4.3,6.19,6.19,0,0,0,4.4,1.7Z"/><path d="M580.34,592a1.4,1.4,0,0,1-.4,1,1.29,1.29,0,0,1-1,.45h-6.7a11.76,11.76,0,0,1-3.3-.5,14.85,14.85,0,0,1-3.2-1.35,10.57,10.57,0,0,1-2.6-2.05,7.9,7.9,0,0,1-1.6-2.5,12.81,12.81,0,0,1-4.85,4.55,13.32,13.32,0,0,1-6.65,1.85h-6.6A1.24,1.24,0,0,1,542,592v-7a1.24,1.24,0,0,1,1.4-1.4h7.1a7.06,7.06,0,0,0,7-5.7l3.4-16.6,8.1,1.4-2.8,13.9a5.57,5.57,0,0,0,1.35,4.85,6,6,0,0,0,4.75,2.15h6.6a1.24,1.24,0,0,1,1.4,1.4Zm-31.1,22.9h9.4v-9.5h-9.4Zm14.6,0h9.5v-9.5h-9.5Z"/><path d="M591.44,593.44h-12.5a1.29,1.29,0,0,1-1-.45,1.52,1.52,0,0,1-.4-1V585a1.4,1.4,0,0,1,.4-.95,1.29,1.29,0,0,1,1-.45h13.5a10.37,10.37,0,0,0,5.65-1.55,10,10,0,0,0,3.7-4.05,10.82,10.82,0,0,0,1.05-5.6,11.18,11.18,0,0,0-2.5-6.1l-16.4-22.5v-6.5l31.8-16.1,3.7,7.4-27.1,13.7,14.8,19.3a19.42,19.42,0,0,1,4.25,10.7,19.43,19.43,0,0,1-9,18A19.6,19.6,0,0,1,591.44,593.44Z"/><path d="M65.4,64.14a7.54,7.54,0,0,1-5.31,1.65H55.86v8.94h-2.1v-21h6.33a7.54,7.54,0,0,1,5.29,1.65,6.24,6.24,0,0,1,0,8.73ZM65,59.79a4.12,4.12,0,0,0-1.17-3.18,5.42,5.42,0,0,0-3.75-1.08H55.86V64h4.23Q65,64,65,59.79Z"/><path d="M85.44,67.35H71.85a6.59,6.59,0,0,0,.9,3.18,5.38,5.38,0,0,0,2.13,2,6.36,6.36,0,0,0,2.88.67,5.77,5.77,0,0,0,3.43-1A4.66,4.66,0,0,0,83,69.54h2.22a7,7,0,0,1-2.57,3.92A7.83,7.83,0,0,1,77.76,75a8.26,8.26,0,0,1-4.14-1A7.23,7.23,0,0,1,70.75,71a9.21,9.21,0,0,1-1-4.46,9.39,9.39,0,0,1,1-4.47,7.09,7.09,0,0,1,2.85-2.94,8.42,8.42,0,0,1,4.17-1,8,8,0,0,1,4.09,1,7.1,7.1,0,0,1,2.7,2.74,7.88,7.88,0,0,1,1,3.83Q85.5,66.78,85.44,67.35Zm-2.81-4.83a5,5,0,0,0-2.08-2,6.35,6.35,0,0,0-2.88-.66,5.72,5.72,0,0,0-4,1.5,6,6,0,0,0-1.83,4.23H83.37A5.82,5.82,0,0,0,82.63,62.52Z"/><path d="M102.84,58.35,93.12,82.44H90.93l3.18-7.8L87.39,58.35H89.7l5.58,14,5.4-14Z"/><path d="M105.75,62.09a7.29,7.29,0,0,1,2.8-2.94,7.92,7.92,0,0,1,4-1,7.4,7.4,0,0,1,3.9,1A6.42,6.42,0,0,1,119,61.89V52.53h2.1v22.2H119V71.07a6.25,6.25,0,0,1-2.46,2.8,7.21,7.21,0,0,1-4,1.1,7.83,7.83,0,0,1-4-1,7.28,7.28,0,0,1-2.79-3,9.44,9.44,0,0,1-1-4.44A9.21,9.21,0,0,1,105.75,62.09Zm12.48,1A5.79,5.79,0,0,0,116,60.75a6,6,0,0,0-3.07-.81,6.23,6.23,0,0,0-3.12.78A5.55,5.55,0,0,0,107.65,63a7.32,7.32,0,0,0-.79,3.52,7.43,7.43,0,0,0,.79,3.52,5.48,5.48,0,0,0,2.18,2.31,6.35,6.35,0,0,0,6.19,0A5.79,5.79,0,0,0,118.23,70a7.88,7.88,0,0,0,0-7Z"/><path d="M126,62.09a7.2,7.2,0,0,1,2.79-2.94,7.92,7.92,0,0,1,4-1,7.33,7.33,0,0,1,4,1.08A6.3,6.3,0,0,1,139.29,62v-3.6h2.1V74.73h-2.1V71.1a6.52,6.52,0,0,1-2.48,2.77,7.18,7.18,0,0,1-4,1.1,7.77,7.77,0,0,1-4-1A7.28,7.28,0,0,1,126,71a9.44,9.44,0,0,1-1-4.44A9.33,9.33,0,0,1,126,62.09Zm12.5,1a5.79,5.79,0,0,0-2.21-2.31,6,6,0,0,0-3.07-.81,6.23,6.23,0,0,0-3.12.78A5.55,5.55,0,0,0,127.9,63a7.32,7.32,0,0,0-.79,3.52A7.43,7.43,0,0,0,127.9,70a5.48,5.48,0,0,0,2.18,2.31,6.35,6.35,0,0,0,6.19,0A5.79,5.79,0,0,0,138.48,70a7.88,7.88,0,0,0,0-7Z"/><path d="M174.9,54v20.7h-2.1V58.2l-7.38,16.53h-1.53l-7.38-16.47V74.73h-2.1V54h2.22l8,17.94,8-17.94Z"/><path d="M194.43,67.35H180.84a6.59,6.59,0,0,0,.9,3.18,5.38,5.38,0,0,0,2.13,2,6.36,6.36,0,0,0,2.88.67,5.77,5.77,0,0,0,3.43-1A4.66,4.66,0,0,0,192,69.54h2.22a7,7,0,0,1-2.57,3.92A7.83,7.83,0,0,1,186.75,75a8.26,8.26,0,0,1-4.14-1A7.23,7.23,0,0,1,179.74,71a9.21,9.21,0,0,1-1-4.46,9.39,9.39,0,0,1,1-4.47,7.09,7.09,0,0,1,2.85-2.94,8.42,8.42,0,0,1,4.17-1,8,8,0,0,1,4.09,1,7.1,7.1,0,0,1,2.7,2.74,7.88,7.88,0,0,1,1,3.83Q194.49,66.78,194.43,67.35Zm-2.81-4.83a5,5,0,0,0-2.08-2,6.35,6.35,0,0,0-2.88-.66,5.72,5.72,0,0,0-4,1.5,6,6,0,0,0-1.83,4.23h11.52A5.82,5.82,0,0,0,191.62,62.52Z"/><path d="M198.39,62.09a7.29,7.29,0,0,1,2.8-2.94,7.92,7.92,0,0,1,4-1,7.4,7.4,0,0,1,3.9,1,6.42,6.42,0,0,1,2.55,2.73V52.53h2.1v22.2h-2.1V71.07a6.25,6.25,0,0,1-2.46,2.8,7.21,7.21,0,0,1-4,1.1,7.83,7.83,0,0,1-4-1,7.28,7.28,0,0,1-2.79-3,9.44,9.44,0,0,1-1-4.44A9.21,9.21,0,0,1,198.39,62.09Zm12.48,1a5.79,5.79,0,0,0-2.21-2.31,6,6,0,0,0-3.07-.81,6.23,6.23,0,0,0-3.12.78A5.55,5.55,0,0,0,200.29,63a7.32,7.32,0,0,0-.79,3.52,7.43,7.43,0,0,0,.79,3.52,5.48,5.48,0,0,0,2.18,2.31,6.35,6.35,0,0,0,6.19,0A5.79,5.79,0,0,0,210.87,70a7.88,7.88,0,0,0,0-7Z"/><path d="M218.55,54.81a1.51,1.51,0,0,1-.45-1.11,1.49,1.49,0,0,1,.45-1.1,1.57,1.57,0,0,1,2.16,0,1.49,1.49,0,0,1,.45,1.1,1.51,1.51,0,0,1-.45,1.11,1.52,1.52,0,0,1-2.16,0Zm2.13,3.54V74.73h-2.1V58.35Z"/><path d="M239.64,58.35V74.73h-2.1V71.85a5,5,0,0,1-2.22,2.34A7,7,0,0,1,232,75a6.55,6.55,0,0,1-4.8-1.82,7,7,0,0,1-1.86-5.26V58.35h2.07v9.33a5.71,5.71,0,0,0,1.33,4.08,4.79,4.79,0,0,0,3.65,1.41,4.94,4.94,0,0,0,3.78-1.5,6.21,6.21,0,0,0,1.41-4.41V58.35Z"/><path d="M268.63,59.87a7.12,7.12,0,0,1,1.82,5.26v9.6h-2.07V65.37a5.84,5.84,0,0,0-1.29-4.08,4.52,4.52,0,0,0-3.51-1.41,4.73,4.73,0,0,0-3.69,1.53,6.42,6.42,0,0,0-1.38,4.44v8.88h-2.07V65.37a5.84,5.84,0,0,0-1.29-4.08,4.56,4.56,0,0,0-3.54-1.41,4.73,4.73,0,0,0-3.69,1.53,6.42,6.42,0,0,0-1.38,4.44v8.88h-2.1V58.35h2.1v2.82a5.44,5.44,0,0,1,2.22-2.33,6.64,6.64,0,0,1,3.21-.79,6.8,6.8,0,0,1,3.73,1,5.76,5.76,0,0,1,2.33,3,5.52,5.52,0,0,1,2.26-3,6.6,6.6,0,0,1,3.65-1A6.34,6.34,0,0,1,268.63,59.87Z"/></g></svg>