<svg xmlns="http://www.w3.org/2000/svg" viewBox="0 0 1152 648"><defs><style>.cls-1{fill:#d8d8d8;}.cls-2{fill:#fff;}</style></defs><g id="Layer_1" data-name="Layer 1"><polygon points="452.77 359.53 505.88 360.5 575.2 353.34 645.67 360.05 698.71 357.22 704.01 326.53 665.24 320.71 475.39 320.71 452.77 328.16 452.77 359.53"/><path class="cls-1" d="M726.83,347.84l-2.5,4.17a84.64,84.64,0,0,1-8.17,2.51c-5.33,1.41-17.45,2.7-17.45,2.7v-5.53a26.52,26.52,0,1,0-53,.34v8l-139.79.45v-8.76a26.65,26.65,0,1,0-53.29-.34l.18,8.13s-1.78,0-5-.26h0c-2.17-.16-5-.42-8.34-.85a58.7,58.7,0,0,1-12.58-2.73,11.38,11.38,0,0,1-1.71-5.35q0-.49,0-.87c0-.11,0-.22,0-.33s0-.06,0-.09c.19-1.41.67-1.55.67-3.12,0-1.95-.34-3.83-.58-8.32a14.62,14.62,0,0,1,1-6.87l5.11-8.41s5.32-4.31,15.55-8.87c.92-.42,1.88-.83,2.88-1.24h0c1.73-.71,3.58-1.42,5.55-2.11A136.11,136.11,0,0,1,491,303.19h5.64a14.21,14.21,0,0,0,2.66-.21c2.29-.42,4.23-1.58,8.77-4.23,6.12-3.56,22.56-11.38,34.33-17S567,273,591.32,272.3s59.79,5.21,73.48,8.23,31.89,9.23,39.58,10.46a97.92,97.92,0,0,0,12.33,1,.88.88,0,0,1,.38,1.67l-.57.29a27.66,27.66,0,0,0,0,3c.09,1.3,1.14,2.06,3.26,5.92a10.18,10.18,0,0,1,1.2,4,.13.13,0,0,0,0,.06,21.67,21.67,0,0,1-.59,6.23c-.08.46-.16.93-.23,1.4a6.44,6.44,0,0,0,1.17,5.22c4.41,5.61,4.47,7.33,4.34,9.56l-2.09.31a2.66,2.66,0,0,0-2.25,2L718,344.91a1.43,1.43,0,0,0,1.53,1.78l5.62-.62v0Z"/><circle cx="479.8" cy="351.96" r="23.8" transform="translate(-108.35 442.35) rotate(-45)"/><circle cx="671.24" cy="351.96" r="23.8" transform="translate(-83.59 283.66) rotate(-22.5)"/><path d="M442.69,330.73v9.52c0,4.47.48,10.09.48,10.09s-5.88.07-7.65-1.7c-1.26-1.26-2.76-7.92-3.52-11.64a2.92,2.92,0,0,1,1.93-3.35Z"/><path d="M431.41,322.33l-.25,3.15a1.06,1.06,0,0,0,1.29,1.12,62.68,62.68,0,0,1,6.17-1.14c3.18-.36,6.14-.62,6.14-.62s2.69-2.92,4-3.4,6.16-1.95,8.07-3.86a14.09,14.09,0,0,1,4-2.79,62.63,62.63,0,0,0-16,1.91A67.43,67.43,0,0,0,431.41,322.33Z"/><path class="cls-2" d="M431.35,324l-.19,1.48a1.06,1.06,0,0,0,1.29,1.12,62.68,62.68,0,0,1,6.17-1.14c3.18-.36,6.14-.62,6.14-.62s3.68-2.11,5-2.59,5.71-2.52,7.62-4.44a32.13,32.13,0,0,1,3.44-3s-6.5.89-12.6,2.18C440.39,318.61,431.35,324,431.35,324Z"/><path d="M438.62,325.46a62.68,62.68,0,0,0-6.17,1.14,1.06,1.06,0,0,1-1.29-1.12l.25-3.15h0a16.34,16.34,0,0,0-5.11,8.4,28.48,28.48,0,0,1,8-2.79c4.63-1.1,5.07-1.09,7-1.62a14.26,14.26,0,0,0,3.47-1.48S441.8,325.1,438.62,325.46Z"/><path d="M670.8,299c-18.69.95-70,3.57-92.82,5.06-16.66,1.08-38.83,2.43-54.15,3.36,0,0,.47,0,3.36-1.82s2.77-3.38,2.77-6a4.55,4.55,0,0,0-1.69-3.77L530,292h0c12.11-6,28.69-13,42.72-14.34,23.62-2.32,49.56-.1,63.45,2.21,9.14,1.53,17.32,3.34,21.84,4.4a15.78,15.78,0,0,1,6.53,3.26l7.93,6.65A2.74,2.74,0,0,1,670.8,299Z"/><path d="M513.06,354a1.16,1.16,0,0,1,1-1.67c13.11-.6,94.8-4.32,103.62-4,9.6.34,16.59.91,16.59.91s-.92,2.66-6.22,2.95c-5,.27-104.44,2.27-113.92,2.46a1.17,1.17,0,0,1-1.05-.64Z"/><path d="M726.22,338.61a53.86,53.86,0,0,1-1.11,7.46l-5.62.62a1.43,1.43,0,0,1-1.53-1.78l3.38-13.16a2.66,2.66,0,0,1,2.25-2l2.09-.31v.05C726.64,331.54,726.51,334.62,726.22,338.61Z"/><path d="M721,307.05l-24-.94a5.84,5.84,0,0,1-1.2-1.24,1.2,1.2,0,0,1,.24-1.75c4.69-3.28,20.51-9.13,20.51-9.13a27.66,27.66,0,0,0,0,3c.09,1.3,1.14,2.06,3.26,5.92A10.3,10.3,0,0,1,721,307.05Z"/><path class="cls-1" d="M527.19,305.6c-2.89,1.79-3.36,1.82-3.36,1.82L506,308.49a26.76,26.76,0,0,1,7.66-7.62c1.86-1.12,8.06-4.78,16.35-8.89l-1.69,3.84a4.55,4.55,0,0,1,1.69,3.77C530,302.22,530.09,303.81,527.19,305.6Z"/><circle class="cls-1" cx="671.24" cy="351.96" r="15.77" transform="translate(-52.27 577.72) rotate(-45)"/><circle class="cls-1" cx="479.8" cy="351.96" r="15.77" transform="translate(-108.35 442.35) rotate(-45)"/></g></svg>