<svg xmlns="http://www.w3.org/2000/svg" viewBox="0 0 648 648"><defs><style>.cls-1{fill:#d1cdc9;}.cls-2{fill:#94e8f2;}.cls-3{fill:#e24d4d;}.cls-4{fill:#b29086;}.cls-5{fill:none;stroke:#000;stroke-miterlimit:10;stroke-width:2px;}</style></defs><g id="Layer_1" data-name="Layer 1"><rect class="cls-1" width="648" height="648"/><rect class="cls-2" x="472.43" y="562.94" width="27.7" height="11.87"/><path class="cls-2" d="M648,0,566.09,134.18l-35.43,58v382.6H495l-.54-69v0l1.56-25.43a14,14,0,0,0,0-1.94l5.64-1.72,2.09-4.84a3.8,3.8,0,0,0-2.38-4.89c-3.67-1.57-11.59-.54-11.59-.54l-3.71-4.81a12,12,0,0,0-6.4-4.27l-10.3-2.78a7.81,7.81,0,0,1-4.57-3.37c-3.11-4.9-9.85-15.46-13-20-4.19-6-10.45-7.17-28.37-9.57s-40.62-1.94-40.62-1.94V124.12l-25.1-61.83H129.24L85.33,0Z"/><polygon points="113.71 266.16 148.35 292.57 148.35 520.3 115.2 515.08 113.71 266.16"/><path d="M503.77,471.79l-2.09,4.84L496,478.35a14.25,14.25,0,0,0-3-7.71l-3.29-4.28s7.92-1,11.59.54A3.8,3.8,0,0,1,503.77,471.79Z"/><path d="M478.8,476.59l-5.24,24.13a9.31,9.31,0,0,1-9.1,7.34h-111c-34.31,0-85.46,1.8-105.84,2.57a9.31,9.31,0,0,1-9.63-8.5l-1.91-21.84s26.07-3.24,59.17-5.51c17.76-1.21,37.56-2.15,56.42-2.15,19.16,0,40.73.5,60.59,1.15C448.37,474.94,478.8,476.59,478.8,476.59Z"/><path class="cls-3" d="M480.31,469.82l-1.51,6.77s-30.43-1.65-66.53-2.81L415,463.6a8.71,8.71,0,0,1,8.57-6.32c8,.17,21.56.73,31.14,2.51s18,3.92,22.66,5.18A4.11,4.11,0,0,1,480.31,469.82Z"/><path class="cls-3" d="M295.26,474.78c-33.1,2.27-59.17,5.51-59.17,5.51V471.8a5,5,0,0,1,3.39-4.72,149.35,149.35,0,0,1,22.22-5.5c8.29-1.41,18.19-2.23,24.6-2.65a7.2,7.2,0,0,1,7.61,6.19Z"/><circle cx="454.57" cy="527.92" r="10.3" transform="translate(-78.69 79.63) rotate(-9.22)"/><circle cx="254.28" cy="529.12" r="10.3"/><path d="M306.9,432.81l-9.49,10.59a2.35,2.35,0,0,0,1.85,3.92c10.13-.44,32.62-1.34,56.22-1.76,27.76-.48,63.65,0,72.54.09a2.36,2.36,0,0,0,2.36-2l1.33-9.07a5.54,5.54,0,0,0-4.9-6.32c-11.3-1.18-37.09-3.57-57.55-3.06-23.13.58-51.45,4.69-59.07,5.85A5.62,5.62,0,0,0,306.9,432.81Z"/><path class="cls-3" d="M338.66,425.87a1,1,0,0,1-.11-2c11.66-1.23,22-2,30.68-2.18,10.33-.26,23.15.18,38.1,1.3a1,1,0,1,1-.15,2c-14.89-1.12-27.64-1.56-37.89-1.3-8.65.22-18.92.95-30.52,2.18Z"/><path d="M382.82,562.94h71.75v6.37a5.5,5.5,0,0,0,5.5,5.5h29.47a5.5,5.5,0,0,0,5.5-5.5l-.54-63.54h0a166.82,166.82,0,0,1-4.24,28.46l-3.72,15.56a6,6,0,0,1-5.19,4.55l-24,2.49a6,6,0,0,1-5.47-2.45L441.4,539.77a25,25,0,0,0-19.58-10.41l-69.25-.24c-15.1.82-51.25,1.64-69.49,2a18.53,18.53,0,0,0-16,9.9l-7.24,13.75a3.61,3.61,0,0,1-3.47,1.92l-21.73-1.65a3.62,3.62,0,0,1-3.14-2.43c-2-5.79-7-21.6-7-33.81,0,0,.22,46.14,3.58,53.31s7.17,7.16,7.17,7.16,29.57.34,33.38,0,9-17.08,9-17.08L284,563s-.39,12.09,4.54,13,17,0,19.65,0,6.89-11,6.89-11S351.23,562.94,382.82,562.94Z"/><polygon class="cls-4" points="113.71 235.82 113.71 266.16 148.35 292.57 148.35 520.3 179.72 525.24 179.72 292.57 179.72 292.57 113.71 235.82"/><rect x="121.42" y="553.09" width="28.67" height="20.61"/><polygon points="150.09 573.7 206.65 573.7 206.65 557.57 150.09 553.09 150.09 573.7"/><polygon points="255.42 127 255.42 241.32 202.41 166.11 202.41 127 255.42 127"/><path class="cls-5" d="M531.24,235.62s-74.1,9.52-148.42-32.41"/><path class="cls-5" d="M531.24,249.22s-98.67,46.85-148.42,20.17"/><path class="cls-5" d="M530.66,268.38s-100.39,7.2-147.84-27.06"/></g></svg>