<svg xmlns="http://www.w3.org/2000/svg" viewBox="0 0 1152 648"><defs><style>.cls-1{fill:#bef434;}.cls-2{fill:#fff;}</style></defs><g id="Layer_1" data-name="Layer 1"><path d="M261.6,167.23v22.7h25.76a14.69,14.69,0,0,0,15.06-14.19c0-5.34-2.62-8.51-8.51-8.51Z"/><ellipse cx="296.2" cy="313.12" rx="14.19" ry="53.48"/><ellipse cx="110.08" cy="427.44" rx="33.43" ry="88.03"/><polygon class="cls-1" points="243.7 527.25 210.96 527.25 373.8 339.41 393.88 339.41 243.7 527.25"/><polygon class="cls-1" points="287.36 527.25 165.12 527.25 148.31 544.06 276.88 544.06 287.36 527.25"/><path d="M890.4,167.12v22.81H864.64a14.69,14.69,0,0,1-15.06-14.19c0-5.34,2.62-8.62,8.51-8.62Z"/><ellipse cx="855.8" cy="313.12" rx="14.19" ry="53.48"/><ellipse cx="1041.92" cy="427.44" rx="33.43" ry="88.03"/><polygon class="cls-1" points="908.3 527.25 941.04 527.25 778.2 339.41 758.12 339.41 908.3 527.25"/><polygon class="cls-1" points="864.64 527.25 986.88 527.25 1003.69 544.06 875.12 544.06 864.64 527.25"/><path d="M617.05,437.91c0,8.13-21.44,14.73-47.88,14.73S521.3,446,521.3,437.91v-12h95.75Z"/><path class="cls-2" d="M569.17,409.8c-26.44,0-47.87,7.22-47.87,16.13s21.43,16.13,47.87,16.13,47.88-7.22,47.88-16.13S595.61,409.8,569.17,409.8Z"/><ellipse cx="569.17" cy="426.06" rx="37.94" ry="10.26"/><path d="M569.17,388.37c15.66,0,28.36-3.43,28.36-7.66L593.37,361c0,4-10.83,7.32-24.2,7.32S545,365.08,545,361l-4.15,19.67C540.82,384.94,553.51,388.37,569.17,388.37Z"/><path d="M547,351.38c0,3.7,9.93,6.7,22.16,6.7s22.16-3,22.16-6.7l-5.19-24.58c0,2.83-7.6,5.13-17,5.13s-17-2.3-17-5.13Z"/><path d="M599.57,390.36c0,4.54-13.61,8.23-30.4,8.23s-30.4-3.68-30.4-8.22l-7.54,35.69h75.89Z"/><path d="M155.6,145.07c-10.18-19.69-20.4-36.76-22.66-40.41-33.53-.86-49.09,16-49.09,16l4.65,75.68,87.27-3.49C172.19,181.88,162.07,157.56,155.6,145.07Z"/><path d="M171,147.61c7.56,14.35,17.54,35.34,21.7,44.57l56.21-2.25S213.94,123.58,161,109a133.45,133.45,0,0,0-13.28-2.93C154.08,117.19,164.54,135.41,171,147.61Z"/><path d="M1019.06,104.66c-2.26,3.65-12.48,20.72-22.66,40.41-6.47,12.49-16.59,36.81-20.17,47.78l87.27,3.49,4.65-75.68S1052.59,103.8,1019.06,104.66Z"/><path d="M981,147.61c6.42-12.2,16.88-30.42,23.27-41.52A133.45,133.45,0,0,0,991,109c-53,14.56-87.9,80.91-87.9,80.91l56.21,2.25C963.5,183,973.48,162,981,147.61Z"/></g></svg>