<svg id="Layer_3" data-name="Layer 3" xmlns="http://www.w3.org/2000/svg" xmlns:xlink="http://www.w3.org/1999/xlink" viewBox="0 0 486 648"><defs><style>.cls-1{fill:none;}.cls-2{clip-path:url(#clip-path);}.cls-3{clip-path:url(#clip-path-2);}.cls-4{fill:#363634;}.cls-5{fill:#232423;fill-opacity:0.3;}.cls-6,.cls-7{fill:#fff;}.cls-11,.cls-7{fill-rule:evenodd;}.cls-8{fill:#242423;}.cls-11,.cls-9{fill:#f2f3f1;}.cls-10{fill:#ababa9;}.cls-12{clip-path:url(#clip-path-3);}.cls-13{clip-path:url(#clip-path-4);}.cls-14{fill:#626260;}.cls-15{fill:#494a48;}</style><clipPath id="clip-path"><rect class="cls-1" width="486" height="648"/></clipPath><clipPath id="clip-path-2"><rect class="cls-1" x="45.36" y="45.36" width="395.28" height="877.3"/></clipPath><clipPath id="clip-path-3"><rect class="cls-1" x="109.59" y="537.26" width="26.35" height="26.35"/></clipPath><clipPath id="clip-path-4"><rect class="cls-1" x="115.63" y="166.14" width="254.74" height="127.37"/></clipPath></defs><g class="cls-2"><g class="cls-3"><rect class="cls-4" x="45.36" y="45.36" width="395.28" height="877.3"/><rect class="cls-4" x="45.36" y="106.85" width="395.28" height="245.95"/><rect class="cls-4" x="45.36" y="106.85" width="395.28" height="245.95"/><path class="cls-5" d="M76.1,216.65h0a13.18,13.18,0,0,1,13.18,13.17h0A13.18,13.18,0,0,1,76.1,243h0a13.18,13.18,0,0,1-13.17-13.18h0A13.17,13.17,0,0,1,76.1,216.65Z"/><path class="cls-6" d="M78.3,236.41l-6.59-6.59,6.59-6.58.78.78-5.82,5.8,5.82,5.81Z"/><path class="cls-5" d="M409.9,216.65h0a13.17,13.17,0,0,1,13.17,13.17h0A13.18,13.18,0,0,1,409.9,243h0a13.18,13.18,0,0,1-13.18-13.18h0A13.18,13.18,0,0,1,409.9,216.65Z"/><path class="cls-6" d="M408.8,225.43l4.39,4.39-4.39,4.4-.78-.78,3.62-3.62L408,226.21Z"/><path class="cls-5" d="M71.71,317.66H87.08a8.79,8.79,0,0,1,8.79,8.79h0a8.78,8.78,0,0,1-8.79,8.78H71.71a8.78,8.78,0,0,1-8.78-8.78h0A8.79,8.79,0,0,1,71.71,317.66Z"/><path class="cls-6" d="M76,325.91c-.17,0-.45.06-.83.13l-1.28.18-1.43.17c-.48,0-.91.06-1.28.06a2,2,0,0,1-.63-.11A1.45,1.45,0,0,1,70,326v6H69V325.6a12.07,12.07,0,0,0-.15-1.87c-.1-.65-.2-1.27-.33-1.88l1-.18c.07.33.15.73.23,1.2A12.93,12.93,0,0,1,70,324.3a1.15,1.15,0,0,0,.37.66,1.06,1.06,0,0,0,.7.26h.68a1.34,1.34,0,0,1-.15-.41l0-.16c0-.1,0-.22-.06-.35s0-.28-.08-.42,0-.25-.06-.34a1.94,1.94,0,0,1,0-.9,2.23,2.23,0,0,1,.41-.76,2.08,2.08,0,0,1,.68-.53,1.81,1.81,0,0,1,.86-.2h2.06l0,1.13H73.18a.83.83,0,0,0-.7.33.86.86,0,0,0-.15.7l.35,1.85.88-.08,1-.09,1.23-.14Z"/><path class="cls-7" d="M79.4,331.94h11v-8.79H89.19l-.55-1.79-.33-.07a17.68,17.68,0,0,0-6.8,0l-.33.07-.55,1.79H79.4Zm9.88-1.1H80.5v-6.59h1l.59-1.94a16.17,16.17,0,0,1,5.72,0l.55,1.94h1Zm-6.07-1.61a3,3,0,0,0,1.68.51,3,3,0,0,0,3-3A3.07,3.07,0,0,0,87.4,325,3,3,0,0,0,86,323.93a3,3,0,0,0-1.74-.17,3.09,3.09,0,0,0-1.55.83,3,3,0,0,0,.46,4.64Zm.61-4.11a1.94,1.94,0,0,1,1.07-.32,1.91,1.91,0,0,1,1.92,1.92,1.94,1.94,0,0,1-.32,1.07,1.94,1.94,0,0,1-2,.82A2,2,0,0,1,83,327.1a1.94,1.94,0,0,1,.82-2Z"/><rect class="cls-8" x="45.36" y="352.8" width="395.28" height="158.11"/><path class="cls-9" d="M176,387.94h-2.41V372.89H176Zm5.09-7.87v4.11a.82.82,0,0,0,.33.66,1.2,1.2,0,0,0,.72.24h1.6a.27.27,0,0,1,.31.31v2.24a.28.28,0,0,1-.31.31h-1.2a2.53,2.53,0,0,1-.79-.14,1.13,1.13,0,0,1-.66-.54v.39a4.39,4.39,0,0,1-.29,1.58,4.79,4.79,0,0,1-.75,1.41,5.18,5.18,0,0,1-1.14,1.1,5.09,5.09,0,0,1-1.45.74l-3,1-.74-2.26,3.16-1a2.51,2.51,0,0,0,1.32-1,2.66,2.66,0,0,0,.5-1.56v-7.6Zm3.46-1.93h2.53v-2.52h-2.53Zm3.67,0h2.53v-2.52h-2.53Zm4.06,9.49a.35.35,0,0,1-.08.22.29.29,0,0,1-.22.09h-1.67a3,3,0,0,1-1.41-.38,2.09,2.09,0,0,1-.94-.92,2,2,0,0,1-.44.51,5.44,5.44,0,0,1-.64.41,3.87,3.87,0,0,1-.72.29,3.2,3.2,0,0,1-.75.09h-1.67a.28.28,0,0,1-.31-.31v-2.22a.29.29,0,0,1,.09-.22.28.28,0,0,1,.22-.11h1.89a1.23,1.23,0,0,0,.77-.26,1.18,1.18,0,0,0,.42-.71l.81-3.95,2.37.42-.66,3.32a.91.91,0,0,0,.2.83,1,1,0,0,0,.79.35H192a.28.28,0,0,1,.22.11.29.29,0,0,1,.08.22Zm3.43-2.55a1,1,0,0,0,.75-.31,1.09,1.09,0,0,0,.3-.76v-4.55h2.42V384a3.77,3.77,0,0,1-.31,1.53,4,4,0,0,1-.85,1.25,4,4,0,0,1-2.77,1.15H192a.29.29,0,0,1-.22-.09.37.37,0,0,1-.09-.22v-2.22a.29.29,0,0,1,.09-.22.28.28,0,0,1,.22-.11Zm.94-7.62h2.53v-2.52h-2.53Zm14.91-4.57v10.7a4.14,4.14,0,0,1-.26,1.49,3.69,3.69,0,0,1-.75,1.25,4.3,4.3,0,0,1-1.14.93,4.55,4.55,0,0,1-1.42.46l-6.26.87-.35-2.59,2.39-.3-1.06-11.4,2.44-.33,1,11.42,1.61-.2a1.57,1.57,0,0,0,1-.53,1.48,1.48,0,0,0,.4-1.05V372.89Zm4.85,15.05H214V372.89h2.42Zm7,1.25-.59-.24a4.74,4.74,0,0,1-.55-.25,4.2,4.2,0,0,1-.83-.59,1.22,1.22,0,0,1-.4-.85,3.31,3.31,0,0,1,.11-.75c.08-.31.14-.55.2-.73l1-2.89,1.51.52-.88,2.68,1.36.53Zm12.45,1a1.88,1.88,0,0,0,1.86-1.82l0-.46h-4.3v-2.86h8.6a.23.23,0,0,1,.22.09.27.27,0,0,1,.09.2v2.24a.31.31,0,0,1-.31.33h-2s0,.05,0,.13a1,1,0,0,1,.05.31v.35a4.1,4.1,0,0,1-.36,1.71,4.18,4.18,0,0,1-1,1.38,4.3,4.3,0,0,1-1.45.93,4.83,4.83,0,0,1-1.76.32h-3.73a4.76,4.76,0,0,1-1.91-.39,4.85,4.85,0,0,1-1.58-1.05,5.19,5.19,0,0,1-1.06-1.56,4.85,4.85,0,0,1-.37-1.91v-5.8h2.41v5.44a2.31,2.31,0,0,0,.2.95,2.58,2.58,0,0,0,.53.77,2.33,2.33,0,0,0,.77.5,2.3,2.3,0,0,0,.94.2Zm11.2-5.14a1,1,0,0,0,.74-.31A1.06,1.06,0,0,0,248,384v-4.55h2.42V384a4,4,0,0,1-.31,1.53,4,4,0,0,1-.86,1.25,3.87,3.87,0,0,1-1.25.84,3.81,3.81,0,0,1-1.51.31h-4.59a.29.29,0,0,1-.22-.09.37.37,0,0,1-.09-.22v-2.22a.29.29,0,0,1,.09-.22.28.28,0,0,1,.22-.11Zm-4.72,8h2.5v-2.53h-2.5Zm3.64,0h2.53v-2.53h-2.53Zm9.39-5.16h-2.42V372.89h2.42Zm13.48-2.86h.61a.27.27,0,0,1,.2.11.28.28,0,0,1,.11.22v2.22a.37.37,0,0,1-.09.22.29.29,0,0,1-.22.09H269a3.32,3.32,0,0,1-1.56-.36,4.38,4.38,0,0,1-1.12-.79,4.42,4.42,0,0,1-1.25.84,3.88,3.88,0,0,1-1.54.31h-2.87a3,3,0,0,1-1.12-.22,3.35,3.35,0,0,1-.93-.64,3.13,3.13,0,0,1-.63-.92,3,3,0,0,1-.22-1.14v-2.86h2.06v2.42a.49.49,0,0,0,.16.37.51.51,0,0,0,.35.13h3.23a1.42,1.42,0,0,0,.61-.13,1.81,1.81,0,0,0,.51-.37,1.46,1.46,0,0,0,.26-.53,1.09,1.09,0,0,0,0-.62l-1.76-6.34,2.29-.84,2.24,8a1.19,1.19,0,0,0,.41.62A1.13,1.13,0,0,0,268.78,385.08Zm4.34,0a1,1,0,0,0,.75-.31,1.09,1.09,0,0,0,.3-.76v-4.55h2.42V384a3.77,3.77,0,0,1-.31,1.53,4,4,0,0,1-.85,1.25,3.92,3.92,0,0,1-1.26.84,3.77,3.77,0,0,1-1.51.31h-3.27a.29.29,0,0,1-.22-.09.37.37,0,0,1-.09-.22v-2.22a.29.29,0,0,1,.09-.22.28.28,0,0,1,.22-.11Zm.94-7.62h2.53v-2.52h-2.53Zm8.15,10.48a3.36,3.36,0,0,1-1.49-.33,3.5,3.5,0,0,1-1.15-.93,4,4,0,0,1-.68-1.29,3.47,3.47,0,0,1,0-1.54l.37-2a3.21,3.21,0,0,1,.42-1.09,3.83,3.83,0,0,1,.77-.91,3.46,3.46,0,0,1,1-.57,3.38,3.38,0,0,1,1.18-.22h1.23a3.52,3.52,0,0,1,1.41.29,3.38,3.38,0,0,1,1.14.79,3.64,3.64,0,0,1,.77,1.14,3.51,3.51,0,0,1,.28,1.41v2.39H289a.27.27,0,0,1,.31.31v2.24a.28.28,0,0,1-.31.31h-1.56v.11c0,.05,0,.13,0,.22a4.63,4.63,0,0,1-1.12,2.61,5.51,5.51,0,0,1-2.48,1.69l-3,1-.75-2.3,3.1-1a2.79,2.79,0,0,0,1.34-.92,2.3,2.3,0,0,0,.53-1.51v-.16a3,3,0,0,1-.6.2,4.15,4.15,0,0,1-.7.07Zm-.31-2.86H285v-2.41a.81.81,0,0,0-.24-.6.79.79,0,0,0-.6-.26h-1.77a.76.76,0,0,0-.53.2.94.94,0,0,0-.29.5l-.35,1.76a.7.7,0,0,0,.13.57A.72.72,0,0,0,281.9,385.08Zm8.08,8h2.5v-2.53H290Zm3.64,0h2.53v-2.53h-2.53Zm3.87-5.47a.37.37,0,0,1-.09.22.29.29,0,0,1-.22.09h-1.67a2.92,2.92,0,0,1-1.4-.38,2.12,2.12,0,0,1-.95-.92,2,2,0,0,1-.44.51,5.44,5.44,0,0,1-.64.41,3.61,3.61,0,0,1-.72.29,3.2,3.2,0,0,1-.75.09h-1.67a.27.27,0,0,1-.3-.31v-2.22a.29.29,0,0,1,.09-.22.26.26,0,0,1,.21-.11h1.89a1.21,1.21,0,0,0,.77-.26,1.18,1.18,0,0,0,.42-.71l.81-3.95,2.37.42-.66,3.32a.94.94,0,0,0,.2.83,1,1,0,0,0,.79.35h1.65a.28.28,0,0,1,.22.11.29.29,0,0,1,.09.22Zm-.31.31a.28.28,0,0,1-.31-.31v-2.24a.27.27,0,0,1,.31-.31h2a.54.54,0,0,1-.2-.26,1.64,1.64,0,0,1,0-.4c0-.14,0-.29,0-.44s0-.29.07-.39l.3-1.5a3.72,3.72,0,0,1,.44-1.09,3.24,3.24,0,0,1,.75-.88,3,3,0,0,1,1-.57,3.17,3.17,0,0,1,1.18-.22h.9a3.33,3.33,0,0,1,1.37.28,3.88,3.88,0,0,1,1.14.77,3.82,3.82,0,0,1,.77,1.14,3.33,3.33,0,0,1,.28,1.37V384a2.53,2.53,0,0,1-.09.7,2.44,2.44,0,0,1-.11.35h3.34v-3.16a1.33,1.33,0,0,0-.26-.81,1.42,1.42,0,0,0-.7-.53l-7.87-2.44.66-2.5,7.62,2.37a4.12,4.12,0,0,1,1.21.59,3.87,3.87,0,0,1,.92.93,4,4,0,0,1,.62,1.16,4.23,4.23,0,0,1,.22,1.34v3.14a2.82,2.82,0,0,1-.22,1.08,2.94,2.94,0,0,1-.6.87,2.63,2.63,0,0,1-.9.6,2.73,2.73,0,0,1-1.07.22H306.4v-1.61a1.74,1.74,0,0,1-.5.75,3.05,3.05,0,0,1-.73.5,3.91,3.91,0,0,1-.74.27,2.79,2.79,0,0,1-.62.09Zm7.58-2.86v-2.41a.83.83,0,0,0-.25-.58.79.79,0,0,0-.59-.24h-1.43a.84.84,0,0,0-.54.2.74.74,0,0,0-.29.51l-.29,1.69a.68.68,0,0,0,.16.59.71.71,0,0,0,.55.24Z"/><path class="cls-9" d="M153.48,407.3l0,.24c0,.17.09.38.14.63s.11.53.16.85.08.63.1.94a.9.9,0,0,0,.36.63,1.23,1.23,0,0,0,.74.24h2.26v-3.5h1.1v3.38a1.38,1.38,0,0,1-.38,1,1.31,1.31,0,0,1-1,.38h-1.8a1.76,1.76,0,0,1-.66-.12,1.39,1.39,0,0,1-.55-.44v6.05h-1.06v-6.35a13,13,0,0,0-.08-1.41c0-.47-.12-.94-.22-1.42l-.2-.9Zm9.8,4.41a2.12,2.12,0,0,1,.83.17,2.31,2.31,0,0,1,.69.46,2.19,2.19,0,0,1,.46.69,2.09,2.09,0,0,1,.17.83v.79a2.2,2.2,0,0,1-.17.83,2.22,2.22,0,0,1-.46.67,2.14,2.14,0,0,1-.69.46,2,2,0,0,1-.83.17h-.76a2,2,0,0,1-.84-.17,2.1,2.1,0,0,1-.68-.46,2.22,2.22,0,0,1-.46-.67,2.2,2.2,0,0,1-.17-.83v-.79a2.09,2.09,0,0,1,.17-.83,2.19,2.19,0,0,1,.46-.69,2.27,2.27,0,0,1,.68-.46,2.17,2.17,0,0,1,.84-.17Zm1.06,2.86v-.72a1,1,0,0,0-.29-.7,1,1,0,0,0-.7-.27h-.9a1,1,0,0,0-.7.27,1,1,0,0,0-.27.7v.72a.94.94,0,0,0,1,1h.9a1,1,0,0,0,1-1Zm4.29-7.27,0,.24c0,.17.09.38.14.63s.1.53.15.85.09.63.11.94a.86.86,0,0,0,.36.63,1.23,1.23,0,0,0,.73.24h2.26v-3.5h1.11v3.38a1.38,1.38,0,0,1-.38,1,1.31,1.31,0,0,1-1,.38h-1.8a1.76,1.76,0,0,1-.66-.12,1.49,1.49,0,0,1-.56-.44v6.05h-1.06v-6.35a13.05,13.05,0,0,0-.07-1.41c-.06-.47-.13-.94-.22-1.42l-.2-.9Zm8.09,0,0,.24c0,.17.09.38.14.63s.1.53.16.85.08.63.1.94a.86.86,0,0,0,.36.63,1.23,1.23,0,0,0,.73.24h2.26v-3.5h1.11v3.38a1.38,1.38,0,0,1-.38,1,1.31,1.31,0,0,1-1,.38h-1.8a1.76,1.76,0,0,1-.66-.12,1.49,1.49,0,0,1-.56-.44v6.05h-1.06v-6.35a13.05,13.05,0,0,0-.07-1.41c-.05-.47-.13-.94-.22-1.42l-.2-.9Z"/><circle class="cls-9" cx="191.39" cy="414.29" r="1.1"/><path class="cls-9" d="M204.13,412.85v2.41a1,1,0,0,0,.32.75,1.13,1.13,0,0,0,.79.31h1.53a.21.21,0,0,1,.16.08.2.2,0,0,1,.06.15v.82c0,.14-.07.21-.22.21h-1.35a1.79,1.79,0,0,1-.72-.15,1.3,1.3,0,0,1-.57-.46v.67a3.35,3.35,0,0,1-.65,2,3.07,3.07,0,0,1-.72.72,3.37,3.37,0,0,1-.94.49l-1.75.61-.34-1.06,1.86-.61a2.08,2.08,0,0,0,1.08-.78,2.13,2.13,0,0,0,.4-1.27v-4.85Zm3.63-1.75h1.3v-1.31h-1.3Zm2.1,0h1.31v-1.31h-1.31Zm2.45,6.27c0,.14-.07.21-.22.21h-1a1.81,1.81,0,0,1-.52-.07,2.81,2.81,0,0,1-.5-.22,2.08,2.08,0,0,1-.4-.32,1.09,1.09,0,0,1-.23-.4,2.13,2.13,0,0,1-.75.74,2,2,0,0,1-1,.27h-1a.19.19,0,0,1-.21-.21v-.82a.2.2,0,0,1,.06-.15.19.19,0,0,1,.15-.08h1a1.11,1.11,0,0,0,.77-.28,1.15,1.15,0,0,0,.43-.69l.48-2.43,1,.17-.4,2a1,1,0,0,0,0,.46,1,1,0,0,0,.21.39,1.64,1.64,0,0,0,.37.26,1.22,1.22,0,0,0,.46.09h.94a.23.23,0,0,1,.16.08.2.2,0,0,1,.06.15Zm3.37-1.05H218v-2.06a.88.88,0,0,0-.29-.67.92.92,0,0,0-.69-.3h-1a.93.93,0,0,0-.62.23,1,1,0,0,0-.34.56l-.23,1.24a.86.86,0,0,0,.17.71A.88.88,0,0,0,215.68,416.32Zm-1.92-1,.33-1.58a1.87,1.87,0,0,1,.24-.66,1.75,1.75,0,0,1,.45-.52,1.88,1.88,0,0,1,.58-.34,2.13,2.13,0,0,1,.71-.13h.86a2.09,2.09,0,0,1,.83.17,2.22,2.22,0,0,1,.69.47,2.06,2.06,0,0,1,.46.67,2.09,2.09,0,0,1,.17.83v1.94a1.31,1.31,0,0,1-1.4,1.38h-1.87a1.79,1.79,0,0,1-.91-.23,1.72,1.72,0,0,1-.66-.78,1.75,1.75,0,0,1-.74.78,2.07,2.07,0,0,1-1,.23h-.44c-.15,0-.22-.07-.22-.21v-.83a.2.2,0,0,1,.06-.14.21.21,0,0,1,.16-.08h.49a1.21,1.21,0,0,0,1.18-1Zm9.27,2.23a1.87,1.87,0,0,1-.88-.2,2,2,0,0,1-.68-.54,2.31,2.31,0,0,1-.4-.76,2,2,0,0,1,0-.91l.26-1.4a2,2,0,0,1,.7-1.17,2.39,2.39,0,0,1,.58-.34,2.12,2.12,0,0,1,.71-.12h.86a2.12,2.12,0,0,1,.83.17,2.31,2.31,0,0,1,.69.46,2.14,2.14,0,0,1,.63,1.51v2h1.21a.19.19,0,0,1,.16.08.2.2,0,0,1,.06.14v.83c0,.14-.07.21-.22.21h-1.22v.19a3.25,3.25,0,0,1-.67,1.87,3.29,3.29,0,0,1-1.63,1.2l-1.75.6-.34-1.06,1.85-.62a2.13,2.13,0,0,0,1.06-.78,2,2,0,0,0,.41-1.24v-.28a.83.83,0,0,1-.29.11H223Zm-.11-1.26h2.32v-2a1,1,0,0,0-1-1h-1a1,1,0,0,0-.62.21,1,1,0,0,0-.34.57l-.23,1.23a.8.8,0,0,0,.19.71A.85.85,0,0,0,222.92,416.32Zm9.7,0a.19.19,0,0,1,.22.22v.83c0,.14-.07.21-.22.21h-.69a2.26,2.26,0,0,1-1-.24,2.54,2.54,0,0,1-.8-.65,2.26,2.26,0,0,1-.78.65,2.31,2.31,0,0,1-1,.24h-.75a.19.19,0,0,1-.22-.21v-.83a.2.2,0,0,1,.22-.22h.95a1.07,1.07,0,0,0,.77-.32,1,1,0,0,0,.34-.79v-7.76h1.06v7.84a1,1,0,0,0,.34.74,1.12,1.12,0,0,0,.77.29Zm1,4.41h1.3v-1.3h-1.3Zm2.1,0H237v-1.3h-1.31Zm2.45-3.36a.19.19,0,0,1-.22.21H237a1.81,1.81,0,0,1-.52-.07,2.81,2.81,0,0,1-.5-.22,2.08,2.08,0,0,1-.4-.32,1.09,1.09,0,0,1-.23-.4,2.13,2.13,0,0,1-.75.74,2,2,0,0,1-1,.27h-1a.19.19,0,0,1-.21-.21v-.82a.2.2,0,0,1,.06-.15.19.19,0,0,1,.15-.08h1a1.11,1.11,0,0,0,.77-.28,1.15,1.15,0,0,0,.43-.69l.48-2.43,1,.17-.4,2a1,1,0,0,0,0,.46,1,1,0,0,0,.21.39,1.64,1.64,0,0,0,.37.26,1.22,1.22,0,0,0,.46.09h.94a.23.23,0,0,1,.16.08.2.2,0,0,1,.06.15Zm1.71.21h-1.93c-.15,0-.22-.07-.22-.21v-.83a.19.19,0,0,1,.22-.22H240a1.74,1.74,0,0,0,.91-.24,1.63,1.63,0,0,0,.61-.67,1.61,1.61,0,0,0,.17-.93,2.11,2.11,0,0,0-.43-1.06L238.8,410v-.89l4.72-2.42.49,1-4.14,2.11,2.28,3a3.06,3.06,0,0,1,.64,1.63,2.86,2.86,0,0,1-1.32,2.68A2.88,2.88,0,0,1,239.87,417.58Zm7.68,0v-6.35a13.05,13.05,0,0,0-.07-1.41c-.06-.47-.13-.94-.22-1.42l-.2-.9,1.05-.2.2,1a14.8,14.8,0,0,1,.29,2.91v6.33Zm6.1-5.87a2.14,2.14,0,0,1,.84.17,2.31,2.31,0,0,1,.69.46,2.19,2.19,0,0,1,.46.69,2.09,2.09,0,0,1,.17.83v.79a2.2,2.2,0,0,1-.17.83,2.22,2.22,0,0,1-.46.67,2.14,2.14,0,0,1-.69.46,2,2,0,0,1-.84.17h-.75a2,2,0,0,1-.84-.17,2.1,2.1,0,0,1-.68-.46,2.22,2.22,0,0,1-.46-.67,2.2,2.2,0,0,1-.17-.83v-.79a2.09,2.09,0,0,1,.17-.83,2.19,2.19,0,0,1,.46-.69,2.27,2.27,0,0,1,.68-.46,2.17,2.17,0,0,1,.84-.17Zm1.07,2.86v-.72a.92.92,0,0,0-.3-.7.93.93,0,0,0-.69-.27h-.91a1,1,0,0,0-.69.27,1,1,0,0,0-.27.7v.72a.94.94,0,0,0,1,1h.91a.9.9,0,0,0,.69-.28A.92.92,0,0,0,254.72,414.57Zm6-2.86a2.19,2.19,0,0,1,1.52.63,2,2,0,0,1,.46.69,1.93,1.93,0,0,1,.17.83v.79a2,2,0,0,1-.17.83,2.06,2.06,0,0,1-.46.67,2.19,2.19,0,0,1-1.52.63H260a2.09,2.09,0,0,1-1.52-.63,2.25,2.25,0,0,1-.47-.67,2.19,2.19,0,0,1-.16-.83v-.79A2.08,2.08,0,0,1,258,413a2.14,2.14,0,0,1,2-1.32Zm1.06,2.86v-.72a1,1,0,0,0-.29-.7,1,1,0,0,0-.69-.27h-.91a1,1,0,0,0-.69.27.94.94,0,0,0-.28.7v.72a1,1,0,0,0,1,1h.91a1,1,0,0,0,1-1Z"/><circle class="cls-9" cx="272.65" cy="414.29" r="1.1"/><path class="cls-9" d="M291.35,409.79l4.29,5.73a2.22,2.22,0,0,0,.63.59,1.58,1.58,0,0,0,.81.21h.19a.19.19,0,0,1,.15.08.2.2,0,0,1,.06.15v.82a.24.24,0,0,1-.06.15.2.2,0,0,1-.15.06h-.16a2.62,2.62,0,0,1-2.21-1.27l-.83-1.2a2.17,2.17,0,0,1-.28,1.06,2.41,2.41,0,0,1-.63.78,2.73,2.73,0,0,1-.87.48,3.27,3.27,0,0,1-1,.15h-5.41a3,3,0,0,1-1.14-.21,2.65,2.65,0,0,1-1.46-1.48,3,3,0,0,1-.2-1.11v-2.62h1.06v2.59a1.56,1.56,0,0,0,.43,1.13,1.58,1.58,0,0,0,1.15.44h5.72a1.73,1.73,0,0,0,.92-.24,1.73,1.73,0,0,0,.77-1.62,2,2,0,0,0-.43-1L290.26,410v-.9l4.72-2.42.47,1Zm6.9,10.94h1.31v-1.3h-1.31Zm2.11,0h1.3v-1.3h-1.3Zm2.44-3.36a.19.19,0,0,1-.21.21h-1a1.86,1.86,0,0,1-.52-.07,2.71,2.71,0,0,1-.49-.22,1.61,1.61,0,0,1-.4-.32,1.09,1.09,0,0,1-.23-.4,2.31,2.31,0,0,1-.75.74,2,2,0,0,1-1,.27h-1c-.15,0-.22-.07-.22-.21v-.82a.2.2,0,0,1,.06-.15.21.21,0,0,1,.16-.08h1A1.14,1.14,0,0,0,299,416a1.26,1.26,0,0,0,.43-.69l.47-2.43,1.05.17-.4,2a.93.93,0,0,0,.23.85,1.29,1.29,0,0,0,.37.26,1.14,1.14,0,0,0,.46.09h.94a.19.19,0,0,1,.15.08.2.2,0,0,1,.06.15Zm1.64-1.05a1.1,1.1,0,0,0,.79-.32,1.07,1.07,0,0,0,.32-.77V412.4h1.06v2.83a2.17,2.17,0,0,1-.19.92,2.45,2.45,0,0,1-.5.76,2.83,2.83,0,0,1-.76.49,2.23,2.23,0,0,1-.9.18h-1.68a.19.19,0,0,1-.21-.21v-.82a.2.2,0,0,1,.06-.15.19.19,0,0,1,.15-.08Zm-1.26-5.72h1.31v-1.3h-1.31Zm2.11,0h1.3v-1.3h-1.3Zm6.55,6.77c0,.14-.07.21-.22.21h-.56a2.31,2.31,0,0,1-.91-.18,2.48,2.48,0,0,1-.76-.51,2.4,2.4,0,0,1-.5-.75,2.18,2.18,0,0,1-.19-.91v-7.78h1.06v7.76a1.07,1.07,0,0,0,.33.79,1.1,1.1,0,0,0,.78.32h.75a.19.19,0,0,1,.16.08.2.2,0,0,1,.06.15Zm3.38-1.05h2.33v-2.06a.88.88,0,0,0-.29-.67.9.9,0,0,0-.69-.3h-1a.93.93,0,0,0-.62.23,1,1,0,0,0-.33.56l-.23,1.24a.82.82,0,0,0,.16.71A.88.88,0,0,0,315.22,416.32Zm-1.93-1,.33-1.58a1.87,1.87,0,0,1,.24-.66,2.09,2.09,0,0,1,1-.86,2.13,2.13,0,0,1,.71-.13h.86a2.09,2.09,0,0,1,.83.17,2.11,2.11,0,0,1,.69.47,2.06,2.06,0,0,1,.46.67,1.93,1.93,0,0,1,.17.83v1.94a1.31,1.31,0,0,1-1.4,1.38h-1.87a1.6,1.6,0,0,1-1.57-1,1.7,1.7,0,0,1-.74.78,2,2,0,0,1-1,.23h-.44c-.15,0-.22-.07-.22-.21v-.83a.2.2,0,0,1,.06-.14.23.23,0,0,1,.16-.08h.49a1.21,1.21,0,0,0,1.18-1Zm9.27,2.23a1.87,1.87,0,0,1-.88-.2,2,2,0,0,1-.67-.54,2,2,0,0,1-.4-.76,1.87,1.87,0,0,1,0-.91l.27-1.4a1.82,1.82,0,0,1,.24-.65,2.25,2.25,0,0,1,.45-.52,2.39,2.39,0,0,1,.58-.34,2.12,2.12,0,0,1,.71-.12h.86a2.19,2.19,0,0,1,1.52.63,2.14,2.14,0,0,1,.63,1.51v2h1.22a.19.19,0,0,1,.15.08.2.2,0,0,1,.06.14v.83a.19.19,0,0,1-.21.21h-1.23v.19a3.17,3.17,0,0,1-.66,1.87,3.33,3.33,0,0,1-1.63,1.2l-1.76.6-.33-1.06,1.84-.62a2.09,2.09,0,0,0,1.06-.78,2,2,0,0,0,.42-1.24v-.28a.89.89,0,0,1-.3.11h-1.9Zm-.11-1.26h2.32v-2a1,1,0,0,0-1-1h-1a1,1,0,0,0-.62.21,1,1,0,0,0-.33.57l-.24,1.23a.83.83,0,0,0,.19.71A.85.85,0,0,0,322.45,416.32Zm6.46,0a1.06,1.06,0,0,0,.78-.32,1,1,0,0,0,.33-.77V412.4h1.06v2.83a2.17,2.17,0,0,1-.19.92,2.45,2.45,0,0,1-.5.76,2.83,2.83,0,0,1-.76.49,2.23,2.23,0,0,1-.9.18h-1.68a.19.19,0,0,1-.21-.21v-.82a.2.2,0,0,1,.06-.15.19.19,0,0,1,.15-.08Zm-1.26-5.72H329v-1.3h-1.31Zm2.11,0h1.3v-1.3h-1.3Zm4.47,7h-1.06V407.45h1.06Z"/><path class="cls-10" d="M228.58,449.27l-.13-.38a8.94,8.94,0,0,0-2.19-3.56,9.15,9.15,0,0,0-3.56-2.2l-.39-.13-4.26,5.72-1.17-1.17-.78.78,1.29,1.28,1.89,1.89-3.18,3.18.78.78,3.18-3.18,1.89,1.89,1.29,1.27.76-.77-1.16-1.16Zm-9.74.23,3.86-5.21a7.84,7.84,0,0,1,2.76,1.81,8.1,8.1,0,0,1,1.82,2.76l-5.22,3.86Z"/><path class="cls-10" d="M233.19,449.42a1,1,0,0,0-.24.27.92.92,0,0,0-.09.38v.5a1.22,1.22,0,0,0,.09.46,1.28,1.28,0,0,0,.25.4,1.62,1.62,0,0,0,.4.26,1.19,1.19,0,0,0,.47.09h.37a1.16,1.16,0,0,0,.49-.1,1.31,1.31,0,0,0,.38-.27,1.39,1.39,0,0,0,.25-.38,1.2,1.2,0,0,0,.09-.45v-.5a.91.91,0,0,0-.35-.67l-.23-.14-.35-.24-.48-.32Zm-.1-2.62.43.29c.12.09.26.19.42.29l.51.34,1.36.93a1.56,1.56,0,0,1,.55.67,2,2,0,0,1,.2.87v.47a2.1,2.1,0,0,1-.16.82,2,2,0,0,1-.45.7,2.33,2.33,0,0,1-.69.49,2.29,2.29,0,0,1-.87.17h-.28a2.21,2.21,0,0,1-.87-.17,2.62,2.62,0,0,1-.69-.49,2.52,2.52,0,0,1-.44-.7,2.1,2.1,0,0,1-.16-.82v-.45a2,2,0,0,1,.21-.92,1.64,1.64,0,0,1,.58-.64l.28-.17.23-.15.24-.16-.88-.59Zm11.27,4.84h.28a.16.16,0,0,1,.13.06.18.18,0,0,1,.06.14v.69a.17.17,0,0,1-.19.19h-.25a1.78,1.78,0,0,1-.91-.25,2,2,0,0,1-.66-.74,1.87,1.87,0,0,1-.71.74,1.91,1.91,0,0,1-.93.25h-1.81a1.46,1.46,0,0,1-.55-.11,1.57,1.57,0,0,1-.45-.31,2,2,0,0,1-.3-.45,1.5,1.5,0,0,1-.11-.55v-1.4h.78v1.16a.65.65,0,0,0,.13.41.49.49,0,0,0,.4.17h1.92a1.06,1.06,0,0,0,.5-.12,1.21,1.21,0,0,0,.58-.75,1.2,1.2,0,0,0,0-.5l-1-3.55.86-.31,1.25,4.48a1,1,0,0,0,.36.54A1,1,0,0,0,244.36,451.64Zm3.4,1.08a1.82,1.82,0,0,1-.89-.23,1.79,1.79,0,0,1-.67-.64,2,2,0,0,1-.69.64,1.81,1.81,0,0,1-.88.23h-.38a.22.22,0,0,1-.14-.05.15.15,0,0,1-.05-.14v-.71c0-.12.06-.18.19-.18h.54a1,1,0,0,0,1-1v-2.05h.91v2.07a.9.9,0,0,0,.27.67.94.94,0,0,0,.68.27h.22a1,1,0,0,0,.66-.23,1,1,0,0,0,.37-.62l.41-2.06.91.14-.36,1.74a.9.9,0,0,0,0,.4,1.13,1.13,0,0,0,.19.32,1.19,1.19,0,0,0,.31.23,1.1,1.1,0,0,0,.4.08h1.13v-3.39h.91v3.28a1.18,1.18,0,0,1-.33.87,1.15,1.15,0,0,1-.85.32h-.86a1.66,1.66,0,0,1-.84-.23,1.39,1.39,0,0,1-.58-.64,1.78,1.78,0,0,1-1.55.87Zm3-5.55h-1.12v-1.12h1.12Zm-1.81,0h-1.12v-1.12H249Zm.87-1.61H248.7v-1.12h1.12Zm5.68,6.83v-3.52h.91v3.37a1.59,1.59,0,0,0,.13.66,1.68,1.68,0,0,0,.35.54,1.76,1.76,0,0,0,.56.37,1.67,1.67,0,0,0,.67.13h2.28a1.39,1.39,0,0,0,.57-.12,1.52,1.52,0,0,0,.46-.3,1.19,1.19,0,0,0,.3-.45,1.23,1.23,0,0,0,.12-.55v-3.87h.91v2a.83.83,0,0,0,.31.73,1.24,1.24,0,0,0,.73.23h.7a.16.16,0,0,1,.18.18v.71a.27.27,0,0,1-.05.14.21.21,0,0,1-.13.05h-.65a1.45,1.45,0,0,1-.66-.15,1.14,1.14,0,0,1-.45-.38v.55a2.21,2.21,0,0,1-.18.89,2.05,2.05,0,0,1-.51.72,2.16,2.16,0,0,1-.76.49,2.21,2.21,0,0,1-.89.18h-2.27a2.61,2.61,0,0,1-1-.21,2.56,2.56,0,0,1-.83-.55,2.69,2.69,0,0,1-.56-.84A2.52,2.52,0,0,1,255.5,452.39Zm3.07-4.88h1.12v1.12h-1.12Zm6.37,7.91h1.12V454.3h-1.12Zm1.81,0h1.12V454.3h-1.12Zm2.09-2.89c0,.13-.06.19-.18.19h-.82a1.41,1.41,0,0,1-.45-.07,1.57,1.57,0,0,1-.42-.18,1.34,1.34,0,0,1-.34-.28.85.85,0,0,1-.2-.34,1.79,1.79,0,0,1-.65.63,1.68,1.68,0,0,1-.87.24h-.81a.17.17,0,0,1-.19-.19v-.69a.18.18,0,0,1,.06-.14.16.16,0,0,1,.13-.06H265a1,1,0,0,0,.66-.24,1,1,0,0,0,.37-.59l.41-2.08.9.14-.35,1.74a.91.91,0,0,0,0,.4.68.68,0,0,0,.18.32,1.09,1.09,0,0,0,.32.23,1,1,0,0,0,.39.08h.81a.18.18,0,0,1,.13.06.22.22,0,0,1,0,.14Zm1-.89a1,1,0,0,0,.95-.94v-2.42h.91v2.42a1.89,1.89,0,0,1-.16.79,2,2,0,0,1-.43.65,2.42,2.42,0,0,1-.65.42,1.81,1.81,0,0,1-.78.16h-1.43a.17.17,0,0,1-.19-.19v-.69a.18.18,0,0,1,.06-.14.16.16,0,0,1,.13-.06Zm-1.49,3.78h1.12V454.3h-1.12Zm1.81,0h1.12V454.3h-1.12Zm-.88,1.61h1.12v-1.12h-1.12Z"/><path class="cls-9" d="M192.58,487.85a30.69,30.69,0,0,0-1.09-5.18,29.11,29.11,0,0,0-1.3-3.56,15,15,0,0,0-1.56-2.75l1.7-1.4.23.4c.16.26.36.61.6,1s.5.94.77,1.51a18.69,18.69,0,0,1,.77,1.76,14,14,0,0,1,.58,1.84,6.37,6.37,0,0,1,.25,1.71,6.49,6.49,0,0,1,.14-1.27c.09-.44.21-.89.35-1.35s.32-.93.51-1.39.4-.9.6-1.32c.47-1,1-1.95,1.6-2.93l1.7,1.4a24,24,0,0,0-1.76,3.24,34.81,34.81,0,0,0-1.33,3.63,23.27,23.27,0,0,0-.86,4.62Zm11-7.52a2.89,2.89,0,0,1,1.13.23,3.06,3.06,0,0,1,.91.62,2.75,2.75,0,0,1,.63.91,2.85,2.85,0,0,1,.23,1.13v.89a2.89,2.89,0,0,1-.23,1.13,3,3,0,0,1-.63.91,2.85,2.85,0,0,1-.91.61,2.72,2.72,0,0,1-1.13.23h-.86a2.63,2.63,0,0,1-1.11-.23,3.06,3.06,0,0,1-.93-.61,3.09,3.09,0,0,1-.61-.91,2.72,2.72,0,0,1-.23-1.13v-.89a2.69,2.69,0,0,1,.23-1.13,2.85,2.85,0,0,1,.61-.91,3,3,0,0,1,.92-.62,2.8,2.8,0,0,1,1.12-.23Zm.77,3.71v-.84a.62.62,0,0,0-.19-.48.7.7,0,0,0-.49-.19h-1a.7.7,0,0,0-.49.19.66.66,0,0,0-.2.48V484a.66.66,0,0,0,.2.48.7.7,0,0,0,.49.19h1a.66.66,0,0,0,.49-.19A.65.65,0,0,0,204.35,484Zm7.62-3.71a2.8,2.8,0,0,1,1.12.23,3,3,0,0,1,.92.62,2.75,2.75,0,0,1,.63.91,2.85,2.85,0,0,1,.23,1.13v.89a2.89,2.89,0,0,1-.23,1.13,3,3,0,0,1-.63.91,2.79,2.79,0,0,1-.92.61A2.64,2.64,0,0,1,212,487h-.86a2.63,2.63,0,0,1-1.11-.23,3.06,3.06,0,0,1-.93-.61,3.09,3.09,0,0,1-.61-.91,2.72,2.72,0,0,1-.23-1.13v-.89a2.69,2.69,0,0,1,.23-1.13,2.85,2.85,0,0,1,.61-.91,3.06,3.06,0,0,1,.91-.62,2.89,2.89,0,0,1,1.13-.23Zm.77,3.71v-.84a.62.62,0,0,0-.19-.48.7.7,0,0,0-.49-.19h-1a.7.7,0,0,0-.49.19.66.66,0,0,0-.2.48V484a.66.66,0,0,0,.2.48.7.7,0,0,0,.49.19h1a.66.66,0,0,0,.49-.19A.65.65,0,0,0,212.74,484Zm5.95,4.82-.47-.2a3.05,3.05,0,0,1-.44-.19,3.43,3.43,0,0,1-.67-.48,1,1,0,0,1-.32-.68,2.56,2.56,0,0,1,.09-.6c.06-.24.11-.44.16-.58l.77-2.32,1.21.43-.7,2.14,1.09.42Zm6.39-8.53a2.84,2.84,0,0,1,1.12.23,3.1,3.1,0,0,1,.92.62,2.91,2.91,0,0,1,.63.91,2.85,2.85,0,0,1,.23,1.13v.89a2.89,2.89,0,0,1-.23,1.13,3.16,3.16,0,0,1-.63.91,2.9,2.9,0,0,1-.92.61,2.68,2.68,0,0,1-1.12.23h-.86a2.63,2.63,0,0,1-1.11-.23,3.06,3.06,0,0,1-.93-.61,3.33,3.33,0,0,1-.62-.91,2.88,2.88,0,0,1-.22-1.13v-.89a2.85,2.85,0,0,1,.22-1.13,3,3,0,0,1,1.53-1.53,2.85,2.85,0,0,1,1.13-.23Zm.77,3.71v-.84a.62.62,0,0,0-.19-.48.71.71,0,0,0-.49-.19h-1a.72.72,0,0,0-.5.19.65.65,0,0,0-.19.48V484a.65.65,0,0,0,.19.48.72.72,0,0,0,.5.19h1a.66.66,0,0,0,.49-.19A.65.65,0,0,0,225.85,484Zm7.62-3.71a2.84,2.84,0,0,1,1.12.23,3.09,3.09,0,0,1,1.55,1.53,2.85,2.85,0,0,1,.22,1.13v.89a2.88,2.88,0,0,1-.22,1.13,3.19,3.19,0,0,1-.64.91,2.75,2.75,0,0,1-.91.61,2.68,2.68,0,0,1-1.12.23h-.86a2.63,2.63,0,0,1-1.11-.23,3.06,3.06,0,0,1-.93-.61,3.33,3.33,0,0,1-.62-.91,2.89,2.89,0,0,1-.23-1.13v-.89a2.85,2.85,0,0,1,.23-1.13,3,3,0,0,1,1.53-1.53,2.85,2.85,0,0,1,1.13-.23Zm.77,3.71v-.84a.62.62,0,0,0-.19-.48.72.72,0,0,0-.5-.19h-1a.71.71,0,0,0-.49.19.65.65,0,0,0-.19.48V484a.65.65,0,0,0,.19.48.71.71,0,0,0,.49.19h1a.69.69,0,0,0,.5-.19A.65.65,0,0,0,234.24,484Zm7.62-3.71a2.84,2.84,0,0,1,1.12.23,3.09,3.09,0,0,1,1.55,1.53,2.85,2.85,0,0,1,.22,1.13v.89a2.88,2.88,0,0,1-.22,1.13,3.19,3.19,0,0,1-.64.91,2.75,2.75,0,0,1-.91.61,2.68,2.68,0,0,1-1.12.23H241a2.63,2.63,0,0,1-1.11-.23,3.06,3.06,0,0,1-.93-.61,3.13,3.13,0,0,1-.62-.91,2.89,2.89,0,0,1-.23-1.13v-.89a2.86,2.86,0,0,1,.85-2,3.06,3.06,0,0,1,.91-.62,2.85,2.85,0,0,1,1.13-.23Zm.77,3.71v-.84a.66.66,0,0,0-.19-.48.72.72,0,0,0-.5-.19h-1a.71.71,0,0,0-.49.19.65.65,0,0,0-.19.48V484a.65.65,0,0,0,.19.48.71.71,0,0,0,.49.19h1a.65.65,0,0,0,.69-.67Zm6,4.82-.48-.2a3.63,3.63,0,0,1-.44-.19A3.69,3.69,0,0,1,247,488a.93.93,0,0,1-.32-.68,2.56,2.56,0,0,1,.09-.6c.06-.24.11-.44.16-.58l.77-2.32,1.21.43-.7,2.14,1.09.42Zm6.38-8.53a2.85,2.85,0,0,1,1.13.23,3.06,3.06,0,0,1,.91.62,2.75,2.75,0,0,1,.63.91,2.69,2.69,0,0,1,.23,1.13v.89a2.72,2.72,0,0,1-.23,1.13,3,3,0,0,1-.63.91,2.85,2.85,0,0,1-.91.61A2.69,2.69,0,0,1,255,487h-.86a2.62,2.62,0,0,1-1.1-.23,2.84,2.84,0,0,1-.93-.61,3.13,3.13,0,0,1-.62-.91,2.89,2.89,0,0,1-.23-1.13v-.89a2.86,2.86,0,0,1,.85-2,2.93,2.93,0,0,1,.91-.62,2.8,2.8,0,0,1,1.12-.23Zm.78,3.71v-.84a.63.63,0,0,0-.2-.48.7.7,0,0,0-.49-.19h-1a.7.7,0,0,0-.49.19.65.65,0,0,0-.19.48V484a.65.65,0,0,0,.19.48.7.7,0,0,0,.49.19h1a.65.65,0,0,0,.49-.19A.66.66,0,0,0,255.74,484Zm7.61-3.71a2.85,2.85,0,0,1,1.13.23,3.06,3.06,0,0,1,.91.62,2.75,2.75,0,0,1,.63.91,2.69,2.69,0,0,1,.23,1.13v.89a2.72,2.72,0,0,1-.23,1.13,3,3,0,0,1-.63.91,2.85,2.85,0,0,1-.91.61,2.69,2.69,0,0,1-1.13.23h-.86a2.69,2.69,0,0,1-1.11-.23,3.06,3.06,0,0,1-.93-.61,3.3,3.3,0,0,1-.61-.91,2.89,2.89,0,0,1-.23-1.13v-.89a2.85,2.85,0,0,1,.23-1.13,3,3,0,0,1,.61-.91,3.1,3.1,0,0,1,.92-.62,2.8,2.8,0,0,1,1.12-.23Zm.78,3.71v-.84a.63.63,0,0,0-.2-.48.7.7,0,0,0-.49-.19h-1a.7.7,0,0,0-.49.19.65.65,0,0,0-.19.48V484a.65.65,0,0,0,.19.48.7.7,0,0,0,.49.19h1a.67.67,0,0,0,.69-.67Zm7.61-3.71a2.85,2.85,0,0,1,1.13.23,3.06,3.06,0,0,1,.91.62,2.75,2.75,0,0,1,.63.91,2.85,2.85,0,0,1,.23,1.13v.89a2.89,2.89,0,0,1-.23,1.13,3,3,0,0,1-.63.91,2.85,2.85,0,0,1-.91.61,2.69,2.69,0,0,1-1.13.23h-.86a2.69,2.69,0,0,1-1.11-.23,3.06,3.06,0,0,1-.93-.61,3.3,3.3,0,0,1-.61-.91,2.89,2.89,0,0,1-.23-1.13v-.89a2.85,2.85,0,0,1,.23-1.13,3,3,0,0,1,.61-.91,3.1,3.1,0,0,1,.92-.62,2.8,2.8,0,0,1,1.12-.23Zm.78,3.71v-.84a.63.63,0,0,0-.2-.48.7.7,0,0,0-.49-.19h-1a.7.7,0,0,0-.49.19.65.65,0,0,0-.19.48V484a.65.65,0,0,0,.19.48.7.7,0,0,0,.49.19h1a.67.67,0,0,0,.69-.67Z"/><path class="cls-11" d="M281,486a18.52,18.52,0,0,0,16.34,0l.61-.29v-5.49h-2.2v4.09a16.19,16.19,0,0,1-13.17,0v-4.09h-2.2v5.49Zm12.56-5.78h-8.79v2.19h8.79Z"/><rect class="cls-8" x="45.36" y="519.7" width="395.28" height="175.68"/><g class="cls-12"><path class="cls-6" d="M127.16,559.22V557h4.39a3.31,3.31,0,0,0,3.3-3.3V545.6l-4.71-4.72-1.56,1.56,1.87,1.86v2.85a1.11,1.11,0,0,0,1.1,1.09h1.1v5.49a1.09,1.09,0,0,1-1.1,1.1h-4.39V540.56l-.82-.21a26.85,26.85,0,0,0-13.73,0l-.82.21v18.66h-2.2v2.2h26.35v-2.2ZM114,549.34h11v9.88H114Zm11-7.07v4.88H114v-4.88A25.11,25.11,0,0,1,125,542.27Z"/></g><path class="cls-6" d="M112.6,582.3h.28a.15.15,0,0,1,.13.07.14.14,0,0,1,0,.13v.7a.16.16,0,0,1-.18.18h-.25a1.68,1.68,0,0,1-.91-.25,2,2,0,0,1-.66-.74,1.87,1.87,0,0,1-.71.74,1.81,1.81,0,0,1-.94.25h-1.8a1.46,1.46,0,0,1-.55-.11,1.39,1.39,0,0,1-.45-.31,1.54,1.54,0,0,1-.3-.45,1.5,1.5,0,0,1-.11-.55v-1.4H107v1.16a.65.65,0,0,0,.13.41.48.48,0,0,0,.39.17h1.93a1.06,1.06,0,0,0,.5-.12,1,1,0,0,0,.37-.32,1.15,1.15,0,0,0,.21-.43,1.2,1.2,0,0,0,0-.5l-1-3.55.86-.31,1.25,4.48a1,1,0,0,0,.35.54A1,1,0,0,0,112.6,582.3Zm1.87,0a.91.91,0,0,0,.68-.28.9.9,0,0,0,.27-.66v-2.42h.91v2.42a1.86,1.86,0,0,1-.16.79,1.94,1.94,0,0,1-.43.65,1.92,1.92,0,0,1-.65.42,1.77,1.77,0,0,1-.77.16h-1.44a.16.16,0,0,1-.18-.18v-.7a.14.14,0,0,1,0-.13.15.15,0,0,1,.13-.07Zm-1.54,3.78h1.12V585h-1.12Zm1.81,0h1.12V585h-1.12Zm5.29-6.76v2.07a.88.88,0,0,0,.28.65,1,1,0,0,0,.67.26h1.32a.15.15,0,0,1,.13.07.14.14,0,0,1,0,.13v.7a.16.16,0,0,1-.18.18h-1.16a1.5,1.5,0,0,1-.62-.13,1.19,1.19,0,0,1-.49-.4v.58a2.67,2.67,0,0,1-.14.89,2.89,2.89,0,0,1-1,1.41,3.06,3.06,0,0,1-.8.42l-1.51.52-.28-.91,1.59-.52a1.79,1.79,0,0,0,.92-.67,1.84,1.84,0,0,0,.34-1.08v-4.17Zm4,6.77h1.12V585H124Zm3-2.89a.16.16,0,0,1-.18.18H126a1.41,1.41,0,0,1-.45-.07,1.57,1.57,0,0,1-.42-.18,1.54,1.54,0,0,1-.34-.28.85.85,0,0,1-.2-.34,1.68,1.68,0,0,1-.64.63,1.73,1.73,0,0,1-.87.24h-.82a.17.17,0,0,1-.19-.18v-.7a.15.15,0,0,1,.06-.13.15.15,0,0,1,.13-.07h.86a1,1,0,0,0,.65-.24,1,1,0,0,0,.37-.59l.41-2.08.9.14-.34,1.74a.78.78,0,0,0,0,.4.89.89,0,0,0,.18.33,1.51,1.51,0,0,0,.32.22,1,1,0,0,0,.39.08h.81a.16.16,0,0,1,.13.07.14.14,0,0,1,.05.13Zm.66,2.88h1.12V585H127.7Zm1.8,0h1.12V585H129.5Zm2.1-2.88c0,.12-.06.18-.19.18h-.81a1.41,1.41,0,0,1-.45-.07,1.57,1.57,0,0,1-.42-.18,1.39,1.39,0,0,1-.35-.28.83.83,0,0,1-.19-.34,1.71,1.71,0,0,1-.65.63,1.68,1.68,0,0,1-.87.24h-.82a.16.16,0,0,1-.18-.18v-.7a.17.17,0,0,1,0-.13.16.16,0,0,1,.13-.07h.86a1,1,0,0,0,.66-.24,1,1,0,0,0,.37-.59l.41-2.08.89.14-.34,1.74a.9.9,0,0,0,0,.4.92.92,0,0,0,.19.33,1.44,1.44,0,0,0,.31.22,1.1,1.1,0,0,0,.4.08h.8a.14.14,0,0,1,.13.07.15.15,0,0,1,.06.13Zm-.19.18a.21.21,0,0,1-.12,0,.19.19,0,0,1-.07-.12v-.74a.15.15,0,0,1,.07-.12.21.21,0,0,1,.12-.05h1.38a.55.55,0,0,1-.29-.37,1.26,1.26,0,0,1,0-.64l.18-.93a2.09,2.09,0,0,1,.21-.54,2.14,2.14,0,0,1,.37-.42,1.89,1.89,0,0,1,.5-.28,1.59,1.59,0,0,1,.57-.1h.49a1.74,1.74,0,0,1,.69.14,1.73,1.73,0,0,1,1.07,1.62v1.07a.85.85,0,0,1-.05.32.4.4,0,0,0,0,.13h2.15v-1.85a1.11,1.11,0,0,0-.24-.73,1.08,1.08,0,0,0-.58-.4L133.48,578l.25-.92,4.23,1.31a2.32,2.32,0,0,1,1.12.75,2,2,0,0,1,.45,1.35v1.66a1.15,1.15,0,0,1-1.26,1.25h-2v-.62a.91.91,0,0,1-.12.17,1,1,0,0,1-.23.21,1.91,1.91,0,0,1-.32.17,1.1,1.1,0,0,1-.41.07Zm4.26-1.08v-1.56a.74.74,0,0,0-.24-.55.75.75,0,0,0-.57-.24h-.59a.78.78,0,0,0-.5.19.84.84,0,0,0-.27.46l-.17.9a.67.67,0,0,0,.15.58.77.77,0,0,0,.54.22Z"/><path class="cls-7" d="M236.21,541.54a12.09,12.09,0,0,1,15.1,18.78l-.49.46-.64-.23a20.63,20.63,0,0,0-14.36,0l-.64.23-.49-.46a12.07,12.07,0,0,1,1.52-18.78Zm-3.09,10a9.73,9.73,0,0,0,2.61,6.68,22.76,22.76,0,0,1,14.54,0,9.73,9.73,0,0,0,2.61-6.68,9.88,9.88,0,1,0-19.76,0Zm11.2.44,5.94-2.55.85,2L245.2,554a2.22,2.22,0,0,1-1.52,1.84,2.18,2.18,0,0,1-1.24,0,2.21,2.21,0,0,1-1.06-.65,2.13,2.13,0,0,1-.53-1.12,2.15,2.15,0,0,1,.16-1.23,2.18,2.18,0,0,1,3.31-.87Zm-9,.66a1.1,1.1,0,1,0-1.09-1.1A1.1,1.1,0,0,0,235.31,552.64Zm8.79-8.79a1.1,1.1,0,1,1-1.1-1.1A1.1,1.1,0,0,1,244.1,543.85Zm-6.59,3.3a1.1,1.1,0,1,0-1.1-1.1A1.1,1.1,0,0,0,237.51,547.15Zm12.08-1.1a1.1,1.1,0,1,1-1.1-1.1A1.1,1.1,0,0,1,249.59,546.05Z"/><path class="cls-6" d="M206.47,579.32v2.07a.85.85,0,0,0,.28.65,1,1,0,0,0,.67.26h1.31a.16.16,0,0,1,.14.07.17.17,0,0,1,0,.13v.7c0,.12-.06.18-.19.18h-1.15a1.47,1.47,0,0,1-.62-.13,1.08,1.08,0,0,1-.49-.4v.58a2.68,2.68,0,0,1-.15.89,2.8,2.8,0,0,1-.4.79,3,3,0,0,1-.62.62,3.12,3.12,0,0,1-.81.42l-1.5.52-.29-.91,1.59-.52a1.81,1.81,0,0,0,.93-.67,1.84,1.84,0,0,0,.34-1.08v-4.17Zm3.11-1.5h1.12V576.7h-1.12Zm1.8,0h1.12V576.7h-1.12Zm2.1,5.38c0,.12-.06.18-.19.18h-.81a1.41,1.41,0,0,1-.45-.07,1.57,1.57,0,0,1-.42-.18,1.6,1.6,0,0,1-.35-.28.83.83,0,0,1-.19-.34,1.71,1.71,0,0,1-.65.63,1.68,1.68,0,0,1-.87.24h-.82a.16.16,0,0,1-.18-.18v-.7a.17.17,0,0,1,0-.13.16.16,0,0,1,.13-.07h.86a1,1,0,0,0,.66-.24,1,1,0,0,0,.37-.59l.41-2.08.89.14-.34,1.74a.9.9,0,0,0,0,.4.92.92,0,0,0,.19.33,1.44,1.44,0,0,0,.31.22,1.1,1.1,0,0,0,.4.08h.8a.16.16,0,0,1,.14.07.17.17,0,0,1,0,.13Zm2.89-.9h2v-1.77a.87.87,0,0,0-.85-.83h-.85a.78.78,0,0,0-.53.2.8.8,0,0,0-.29.48l-.2,1.06a.74.74,0,0,0,.15.61A.7.7,0,0,0,216.37,582.3Zm-1.64-.83.27-1.36a1.8,1.8,0,0,1,.21-.56,1.71,1.71,0,0,1,.39-.45,1.46,1.46,0,0,1,.5-.29,1.73,1.73,0,0,1,.6-.11h.74a1.71,1.71,0,0,1,.71.15,1.74,1.74,0,0,1,.59.39,1.94,1.94,0,0,1,.4.58,1.7,1.7,0,0,1,.14.71v1.66a1.15,1.15,0,0,1-.33.86,1.14,1.14,0,0,1-.86.33h-1.61a1.62,1.62,0,0,1-.78-.2,1.53,1.53,0,0,1-.57-.67,1.47,1.47,0,0,1-.63.67,1.85,1.85,0,0,1-.83.2h-.38a.17.17,0,0,1-.19-.18v-.72a.14.14,0,0,1,.06-.11.15.15,0,0,1,.13-.07h.42a1,1,0,0,0,.66-.24A1,1,0,0,0,214.73,581.47Zm7.94,1.91a1.66,1.66,0,0,1-.75-.17,1.77,1.77,0,0,1-.58-.46,1.91,1.91,0,0,1-.35-.66,1.59,1.59,0,0,1,0-.78l.22-1.2a1.74,1.74,0,0,1,.21-.55,1.68,1.68,0,0,1,.38-.45,1.92,1.92,0,0,1,.5-.29,1.81,1.81,0,0,1,.61-.1h.74a1.7,1.7,0,0,1,.71.14,1.76,1.76,0,0,1,.59.4,1.62,1.62,0,0,1,.4.58,1.83,1.83,0,0,1,.14.71v1.75h1a.21.21,0,0,1,.19.18v.72c0,.12-.06.18-.19.18h-1v.16a2.76,2.76,0,0,1-.57,1.61,2.81,2.81,0,0,1-1.39,1l-1.51.52-.29-.91,1.59-.53a1.78,1.78,0,0,0,.9-.67,1.69,1.69,0,0,0,.36-1.07v-.24a.63.63,0,0,1-.25.1h-1.63Zm-.1-1.08h2v-1.75a.76.76,0,0,0-.25-.58.74.74,0,0,0-.58-.25h-.87a.8.8,0,0,0-.52.18.82.82,0,0,0-.29.49l-.2,1.05a.72.72,0,0,0,.72.86Zm8.32,0a.17.17,0,0,1,.19.18v.72a.17.17,0,0,1-.19.18h-.59a1.87,1.87,0,0,1-.88-.21,2.1,2.1,0,0,1-.69-.55,2.13,2.13,0,0,1-.67.55,1.93,1.93,0,0,1-.9.21h-.64c-.13,0-.19-.06-.19-.18v-.72c0-.12.06-.18.19-.18h.81a1,1,0,0,0,.95-.95V574.7h.91v6.72a.93.93,0,0,0,.29.63,1,1,0,0,0,.66.25Zm.85,3.78h1.12V585h-1.12Zm1.8,0h1.12V585h-1.12Zm2.1-2.88a.17.17,0,0,1-.19.18h-.82a1.39,1.39,0,0,1-.44-.07,1.78,1.78,0,0,1-.43-.18,1.54,1.54,0,0,1-.34-.28,1,1,0,0,1-.2-.34,1.62,1.62,0,0,1-.64.63,1.68,1.68,0,0,1-.87.24h-.82a.16.16,0,0,1-.18-.18v-.7a.17.17,0,0,1,0-.13.16.16,0,0,1,.13-.07h.86a1,1,0,0,0,.66-.24,1.09,1.09,0,0,0,.37-.59l.4-2.08.9.14-.34,1.74a.9.9,0,0,0,0,.4.92.92,0,0,0,.19.33,1.23,1.23,0,0,0,.31.22,1.1,1.1,0,0,0,.4.08h.8a.15.15,0,0,1,.13.07.15.15,0,0,1,.06.13Zm1.47.18h-1.66c-.13,0-.19-.06-.19-.18v-.72c0-.12.06-.18.19-.18h1.78a1.44,1.44,0,0,0,.77-.21,1.38,1.38,0,0,0,.53-.57,1.4,1.4,0,0,0,.14-.8,1.78,1.78,0,0,0-.36-.91l-2.13-2.91v-.77l4-2.07.42.83-3.54,1.81,1.95,2.61a2.62,2.62,0,0,1,.55,1.4,2.47,2.47,0,0,1-1.13,2.29A2.49,2.49,0,0,1,237.11,583.38Zm11.11-6.94a.76.76,0,0,0-.25-.6.86.86,0,0,0-.59-.23h-.86a.83.83,0,0,0-.53.18.86.86,0,0,0-.29.47l-.19,1.07a.73.73,0,0,0,0,.33.82.82,0,0,0,.14.28,1.16,1.16,0,0,0,.24.2.83.83,0,0,0,.32.06h2Zm.91,3.57a9.88,9.88,0,0,0,.05,1.22c0,.4.11.8.2,1.2l.16.79-.9.16-.18-.88a11.18,11.18,0,0,1-.2-1.25c0-.42,0-.83,0-1.26v-.83a.71.71,0,0,1-.21.08,1.23,1.23,0,0,1-.29,0h-1.4a1.79,1.79,0,0,1-.76-.16,1.71,1.71,0,0,1-.92-1.11,1.79,1.79,0,0,1,0-.8l.23-1.2a1.61,1.61,0,0,1,.59-1,1.7,1.7,0,0,1,1.11-.4h.73a1.72,1.72,0,0,1,.72.15,2.16,2.16,0,0,1,.59.39,1.65,1.65,0,0,1,.39.58,1.72,1.72,0,0,1,.15.72Zm4.64-1.66a1.83,1.83,0,0,1,.71.14,1.8,1.8,0,0,1,1,1,1.71,1.71,0,0,1,.15.71v.67a1.71,1.71,0,0,1-.15.71,2,2,0,0,1-.39.58,1.91,1.91,0,0,1-.6.4,1.67,1.67,0,0,1-.71.14h-.64a1.79,1.79,0,0,1-.73-.14,1.94,1.94,0,0,1-.58-.4,1.65,1.65,0,0,1-.39-.58,1.71,1.71,0,0,1-.15-.71v-.67a1.71,1.71,0,0,1,.15-.71,1.6,1.6,0,0,1,.39-.59,1.94,1.94,0,0,1,.58-.4,2,2,0,0,1,.73-.14Zm.91,2.45v-.62a.75.75,0,0,0-.25-.59.81.81,0,0,0-.59-.24h-.78a.81.81,0,0,0-.59.24.78.78,0,0,0-.24.59v.62a.82.82,0,0,0,.24.59.81.81,0,0,0,.59.24h.78a.81.81,0,0,0,.59-.24A.79.79,0,0,0,254.68,580.8Zm4,3.27-.41-.16-.34-.16a2.47,2.47,0,0,1-.33-.28.69.69,0,0,1-.17-.43,1.85,1.85,0,0,1,.08-.49c.06-.18.11-.33.13-.42l.57-1.61.68.25-.6,1.75.81.32Zm8.86-5.86-.71.11-1.09.16-1.23.14c-.41,0-.78.06-1.09.06a1.4,1.4,0,0,1-.54-.1,1.27,1.27,0,0,1-.48-.31v5.11h-.91V578a9.89,9.89,0,0,0-.13-1.61c-.08-.55-.17-1.09-.28-1.6l.89-.16c.06.28.12.62.2,1s.14.8.18,1.22a1,1,0,0,0,.32.57.87.87,0,0,0,.6.22h.58a1.21,1.21,0,0,1-.13-.35l0-.14c0-.08,0-.18-.05-.3l-.06-.35a2.35,2.35,0,0,0-.06-.29,1.69,1.69,0,0,1,0-.78,2,2,0,0,1,.35-.65,2,2,0,0,1,.58-.46,1.71,1.71,0,0,1,.74-.17H267l0,1h-1.85a.72.72,0,0,0-.6.27.77.77,0,0,0-.13.61l.31,1.58.75-.07.89-.08,1.06-.11Zm8.3,0-.71.11-1.1.16-1.22.14c-.41,0-.78.06-1.09.06a1.4,1.4,0,0,1-.54-.1,1.27,1.27,0,0,1-.48-.31v5.11h-.91V578a9.89,9.89,0,0,0-.13-1.61c-.08-.55-.17-1.09-.28-1.6l.89-.16c.06.28.12.62.19,1s.14.8.19,1.22a1,1,0,0,0,.31.57.92.92,0,0,0,.61.22h.58a1.21,1.21,0,0,1-.13-.35l0-.14c0-.08,0-.18,0-.3s0-.24-.07-.35a1.41,1.41,0,0,0,0-.29,1.69,1.69,0,0,1,0-.78,2,2,0,0,1,.35-.65,1.88,1.88,0,0,1,.58-.46,1.71,1.71,0,0,1,.74-.17h1.77l0,1h-1.85a.72.72,0,0,0-.6.27.77.77,0,0,0-.13.61l.3,1.58.75-.07.9-.08,1.05-.11Zm4.2.14a1.83,1.83,0,0,1,.71.14,1.8,1.8,0,0,1,1,1,1.71,1.71,0,0,1,.15.71v.67a1.71,1.71,0,0,1-.15.71,2,2,0,0,1-.39.58,1.91,1.91,0,0,1-.6.4,1.67,1.67,0,0,1-.71.14h-.64a1.79,1.79,0,0,1-.73-.14,1.94,1.94,0,0,1-.58-.4,1.65,1.65,0,0,1-.39-.58,1.71,1.71,0,0,1-.15-.71v-.67a1.71,1.71,0,0,1,.15-.71,1.6,1.6,0,0,1,.39-.59,1.94,1.94,0,0,1,.58-.4,2,2,0,0,1,.73-.14Zm.91,2.45v-.62a.75.75,0,0,0-.25-.59.81.81,0,0,0-.59-.24h-.78a.81.81,0,0,0-.59.24.78.78,0,0,0-.24.59v.62a.82.82,0,0,0,.24.59.81.81,0,0,0,.59.24h.78a.81.81,0,0,0,.59-.24A.79.79,0,0,0,281,580.8Z"/><path class="cls-7" d="M366.89,543.87a6.56,6.56,0,0,0-6.18-.62,6.32,6.32,0,0,0-2.13,1.44,6.58,6.58,0,0,0,0,9.31l4.65,4.66,4.66-4.66a6.59,6.59,0,0,0-1-10.13ZM358.35,542a8.79,8.79,0,0,1,11.1,13.52l-6.22,6.2-6.21-6.2a8.78,8.78,0,0,1-1.91-9.58A8.67,8.67,0,0,1,358.35,542Zm3.66,5.48a2.14,2.14,0,0,1,1.22-.37,2.2,2.2,0,0,1,1.55.64,2.16,2.16,0,0,1,.65,1.55,2.19,2.19,0,0,1-.37,1.22,2.24,2.24,0,0,1-1,.81,2.16,2.16,0,0,1-2.39-.48,2.09,2.09,0,0,1-.6-1.12,2.17,2.17,0,0,1,.93-2.25Z"/><path class="cls-6" d="M320.85,583.38a1.46,1.46,0,0,1-.55-.11,1.33,1.33,0,0,1-.46-.31,1.62,1.62,0,0,1-.31-.46,1.5,1.5,0,0,1-.1-.56v-1.39h.78v1.2a.59.59,0,0,0,.13.39.47.47,0,0,0,.39.16h2.07a1.16,1.16,0,0,0,.65-.17,1.19,1.19,0,0,0,.37-.41,1.11,1.11,0,0,0,.1-.54,1.34,1.34,0,0,0-.14-.53l-1.52-2.7.77-.51,1.5,2.69a2.13,2.13,0,0,1,.31,1.16,2,2,0,0,1-.26,1,2.06,2.06,0,0,1-1.83,1Zm8.48-.18a.16.16,0,0,1-.18.18h-.49a1.83,1.83,0,0,1-.77-.16,1.94,1.94,0,0,1-.65-.43,2.26,2.26,0,0,1-.44-.65,2,2,0,0,1-.15-.78V574.7h.91v6.65a.92.92,0,0,0,.27.67.94.94,0,0,0,.67.28h.65a.15.15,0,0,1,.13.07.14.14,0,0,1,.05.13Zm1.15-.9a.91.91,0,0,0,.67-.28,1,1,0,0,0,.28-.67v-2.41h.9v2.42a2,2,0,0,1-.15.79,2,2,0,0,1-1.08,1.07,1.85,1.85,0,0,1-.78.16h-1.17c-.13,0-.19-.06-.19-.18v-.7a.17.17,0,0,1,.05-.13.16.16,0,0,1,.14-.07Zm-1.08,3.78h1.12V585H329.4Zm5.23-2.7h-.91v-7.63h.91Zm-2.55-8v-.5a1,1,0,0,1,.29-.74,1,1,0,0,1,.74-.29h2.5v.81H333.1a.32.32,0,0,0-.33.34v.38Zm12.09,6.88a.89.89,0,0,0,.67-.28.91.91,0,0,0,.29-.68v-2.41H346v2.41a2,2,0,0,1-.16.8,2,2,0,0,1-1.08,1.08,1.89,1.89,0,0,1-.79.16h-5a2.39,2.39,0,0,1-.92-.18,2.56,2.56,0,0,1-.75-.51,2.4,2.4,0,0,1-.5-.75,2.36,2.36,0,0,1-.18-.92v-2.09h.9v2a1.46,1.46,0,0,0,.11.55,1.48,1.48,0,0,0,.3.45,1.54,1.54,0,0,0,.45.3,1.5,1.5,0,0,0,.55.11Zm-4.3-3.37H341v-1.12h-1.12Zm1.81,0h1.12v-1.12h-1.12Zm7.57,4.45a1.46,1.46,0,0,1-.55-.11,1.48,1.48,0,0,1-.47-.31,1.83,1.83,0,0,1-.3-.46,1.5,1.5,0,0,1-.1-.56v-1.39h.77v1.2a.6.6,0,0,0,.14.39.45.45,0,0,0,.39.16h2.07a1.13,1.13,0,0,0,.64-.17,1.1,1.1,0,0,0,.37-.41,1.12,1.12,0,0,0,.11-.54,1.2,1.2,0,0,0-.15-.53l-1.51-2.7.76-.51,1.51,2.69a2.22,2.22,0,0,1,.31,1.16,2.14,2.14,0,0,1-.26,1,2.07,2.07,0,0,1-.74.76,2.09,2.09,0,0,1-1.09.29Zm8.48-.18a.16.16,0,0,1-.18.18h-.49a1.91,1.91,0,0,1-.78-.16,2,2,0,0,1-.64-.43,2.07,2.07,0,0,1-.44-.65,2,2,0,0,1-.15-.78V574.7h.9v6.65a1,1,0,0,0,.95.95h.65a.15.15,0,0,1,.13.07.14.14,0,0,1,.05.13Zm2.09-2.76.49.34.58.39.7.47,1.67-1.17v-.4a.79.79,0,0,0-.79-.8h-2.65Zm2.62-2.16a1.59,1.59,0,0,1,.66.13,1.76,1.76,0,0,1,.56.37,1.58,1.58,0,0,1,.37.54,1.71,1.71,0,0,1,.14.67v.32a1.26,1.26,0,0,1-.14.57,1.15,1.15,0,0,1-.39.43l-1.1.77a5,5,0,0,0,.67.17,6.3,6.3,0,0,0,.75,0h1.42a.14.14,0,0,1,.13.07.15.15,0,0,1,.06.13v.68a.22.22,0,0,1-.06.15.17.17,0,0,1-.13,0h-1.47a4.69,4.69,0,0,1-1.24-.16,5.45,5.45,0,0,1-1.15-.47,5.32,5.32,0,0,1-1.16.47,4.49,4.49,0,0,1-1.22.16h-1.6a.17.17,0,0,1-.13,0,.27.27,0,0,1-.05-.15v-.68a.17.17,0,0,1,.05-.13.14.14,0,0,1,.13-.07h1.6a6.46,6.46,0,0,0,.74,0,3.88,3.88,0,0,0,.67-.16l-1.62-1.1v-1.64a1,1,0,0,1,.29-.78,1.06,1.06,0,0,1,.79-.3Zm6.43,5.1a1.9,1.9,0,0,1-.88-.21,1.77,1.77,0,0,1-.67-.66,1.79,1.79,0,0,1-.68.66,1.87,1.87,0,0,1-.88.21h-.38a.16.16,0,0,1-.18-.18v-.72a.18.18,0,0,1,.06-.13.21.21,0,0,1,.12-.05h.54a1,1,0,0,0,.95-.95V579.3h.91v2.06a.94.94,0,0,0,.27.68,1,1,0,0,0,.66.26H369a1.1,1.1,0,0,0,.67-.22,1,1,0,0,0,.36-.61l.42-2.08.88.16-.34,1.72a.81.81,0,0,0,.2.73.94.94,0,0,0,.71.3H373v-3.37h.91v3.26a1.12,1.12,0,0,1-1.18,1.19h-.87a1.64,1.64,0,0,1-.83-.22,1.4,1.4,0,0,1-.6-.65,1.63,1.63,0,0,1-.67.66A1.86,1.86,0,0,1,368.87,583.38Zm9.78.69-.41-.16-.34-.16a1.64,1.64,0,0,1-.33-.28.6.6,0,0,1-.17-.43,1.81,1.81,0,0,1,.07-.49c.07-.18.11-.33.14-.42l.56-1.61.69.25-.61,1.75.82.32Zm5.05,1.62a2.43,2.43,0,0,1-1-.22,2.36,2.36,0,0,1-.83-.55,2.57,2.57,0,0,1-.77-1.87v-3.52H382v3.38a1.75,1.75,0,0,0,.13.65,1.5,1.5,0,0,0,.36.54,1.57,1.57,0,0,0,.55.37,1.71,1.71,0,0,0,.67.14H386a1.35,1.35,0,0,0,.57-.12,1.21,1.21,0,0,0,.46-.31,1.23,1.23,0,0,0,.3-.44,1.31,1.31,0,0,0,.12-.56v-3.87h.91v4a2.27,2.27,0,0,1-.18.91,2.2,2.2,0,0,1-.52.75,2.41,2.41,0,0,1-1.66.69Zm.43-7.51h1.12v1.12h-1.12Zm6.94,5.2h-.91V574.7h.91Zm2.91-4.06v2.07a.85.85,0,0,0,.28.65,1,1,0,0,0,.67.26h1.32a.15.15,0,0,1,.13.07.14.14,0,0,1,.05.13v.7a.16.16,0,0,1-.18.18h-1.16a1.5,1.5,0,0,1-.62-.13,1.19,1.19,0,0,1-.49-.4v.58a3,3,0,0,1-.14.89,3.12,3.12,0,0,1-.41.79,2.8,2.8,0,0,1-.62.62,3.06,3.06,0,0,1-.8.42l-1.51.52-.29-.91,1.6-.52a1.79,1.79,0,0,0,.92-.67,1.84,1.84,0,0,0,.34-1.08v-4.17Zm3.43,3v-1.61a1.87,1.87,0,0,1,.14-.71,2.07,2.07,0,0,1,.38-.59,1.94,1.94,0,0,1,.58-.4,2,2,0,0,1,.74-.14h.5a1.68,1.68,0,0,1,1.1.39,1.7,1.7,0,0,1,.6,1l.2,1a1.72,1.72,0,0,1,0,.78,1.61,1.61,0,0,1-.33.65,1.64,1.64,0,0,1-.59.48,1.72,1.72,0,0,1-.75.17h-1.11a1.18,1.18,0,0,1-.27,0l-.27-.08s0,.05,0,.14a1.55,1.55,0,0,0,.25,1,1.17,1.17,0,0,0,.76.45l1.19.22,1.06-1.66a2.22,2.22,0,0,1,2-1.08h.19a.16.16,0,0,1,.18.18v.7a.17.17,0,0,1-.18.2h-.41a1.27,1.27,0,0,0-.66.16,1.72,1.72,0,0,0-.49.51l-.13.2a3.74,3.74,0,0,1-.24.37,4.92,4.92,0,0,1-.29.46l-.29.43c-.08.15-.16.26-.22.36l-.1.16-2-.44a1.8,1.8,0,0,1-1.14-.71,2.52,2.52,0,0,1-.41-1.5h-1.16a.19.19,0,0,1-.13,0,.22.22,0,0,1-.06-.15v-.7c0-.12.06-.18.19-.18Zm.91-1.62v1.62H400a.68.68,0,0,0,.32-.07.75.75,0,0,0,.24-.19.87.87,0,0,0,.17-.61l-.17-.9a.8.8,0,0,0-.29-.48.75.75,0,0,0-.53-.2h-.65a.77.77,0,0,0-.58.25A.82.82,0,0,0,398.32,580.68Zm7,1.62a1,1,0,0,0,.95-.94v-2.42h.9v2.42a2,2,0,0,1-.15.79,2,2,0,0,1-1.08,1.07,1.85,1.85,0,0,1-.78.16h-1.44a.16.16,0,0,1-.18-.18v-.7a.17.17,0,0,1,.05-.13.16.16,0,0,1,.13-.07Zm-1.08-4.9h1.12v-1.12h-1.12Zm1.8,0h1.12v-1.12h-1.12Z"/><path class="cls-7" d="M125,639.38v3.49a3.28,3.28,0,0,1,1.75,1.44,3.29,3.29,0,1,1-6.09,2.22,3.31,3.31,0,0,1,2.15-3.66v-3.49h-6.59v3.49a3.29,3.29,0,0,1,1,5.62,3.28,3.28,0,0,1-4.25,0,3.3,3.3,0,0,1-.72-4.18,3.33,3.33,0,0,1,1.74-1.44v-9.18a3.29,3.29,0,0,1-2.14-3.66,3.3,3.3,0,0,1,3.24-2.74,3.33,3.33,0,0,1,2.13.78,3.3,3.3,0,0,1-1,5.62v3.49h6.59v-3.49a3.29,3.29,0,0,1-1-5.62,3.28,3.28,0,0,1,4.25,0,3.29,3.29,0,0,1-1,5.62v3.49h6.59v-3.49a3.29,3.29,0,1,1,3.22-5.62,3.27,3.27,0,0,1,.72,4.18,3.29,3.29,0,0,1-1.74,1.44v5.69Zm8.3-9.7a1.1,1.1,0,1,0-1,1.93,1.16,1.16,0,0,0,.64.06,1.14,1.14,0,0,0,.56-.3,1.1,1.1,0,0,0,.3-.56,1.17,1.17,0,0,0-.06-.64A1.15,1.15,0,0,0,133.26,629.68Zm-8.78,0a1.11,1.11,0,0,0-.61-.18,1.1,1.1,0,0,0-.78.32,1.06,1.06,0,0,0-.32.77,1.09,1.09,0,0,0,.18.61,1.11,1.11,0,0,0,.5.41,1.13,1.13,0,0,0,.63.06,1.1,1.1,0,0,0,.56-.3,1,1,0,0,0,.3-.56,1.08,1.08,0,0,0-.06-.64A1.07,1.07,0,0,0,124.48,629.68Zm-8.79,0a1.09,1.09,0,0,0-.61-.18,1.11,1.11,0,0,0-1.1,1.09,1.1,1.1,0,0,0,.19.61,1.09,1.09,0,0,0,.49.41,1.16,1.16,0,0,0,.64.06,1.1,1.1,0,0,0,.86-.86,1.17,1.17,0,0,0-.06-.64A1.15,1.15,0,0,0,115.69,629.68Zm-1.22,17.2a1.11,1.11,0,0,0,.61.18,1.1,1.1,0,0,0,.78-.32,1.06,1.06,0,0,0,.32-.77,1.09,1.09,0,0,0-.18-.61,1.11,1.11,0,0,0-.5-.41,1.13,1.13,0,0,0-.63-.06,1.1,1.1,0,0,0-.56.3,1,1,0,0,0-.3.56,1.08,1.08,0,0,0,.06.64A1.07,1.07,0,0,0,114.47,646.88Zm8.79,0a1.09,1.09,0,0,0,.61.18A1.09,1.09,0,0,0,125,646a1.1,1.1,0,0,0-.67-1,1.16,1.16,0,0,0-.64-.06,1.1,1.1,0,0,0-.86.86,1.17,1.17,0,0,0,.06.64A1.15,1.15,0,0,0,123.26,646.88Zm11.88-4.5a2.71,2.71,0,0,1,.8,1.94,2.79,2.79,0,0,1-.48,1.56,2.83,2.83,0,0,1-1.29,1l1.77,2.38H133.2l-1.65-2.2v2.2h-2.19v-7.69h3.84A2.72,2.72,0,0,1,135.14,642.38Zm-1.94,1.39h-1.65v1.1h1.65a.55.55,0,0,0,.39-.16.57.57,0,0,0,.16-.39.55.55,0,0,0-.55-.55Z"/><rect class="cls-8" x="230.37" y="625.1" width="26.35" height="26.35"/><path class="cls-6" d="M249,642.09l6.31-6.31-.43-.73a23,23,0,0,0-3.55-4.61,22.61,22.61,0,0,0-4.53-3.55l-.73-.42-7.92,7.86-3.11,3.1,3.08,3.05L234,643.22a3.31,3.31,0,0,0-1,1,3.27,3.27,0,0,0-.45,1.36,3.48,3.48,0,0,0,.18,1.43,3.17,3.17,0,0,0,.77,1.21,3.24,3.24,0,0,0,2.32,1h.33a3.33,3.33,0,0,0,1.37-.46,3.39,3.39,0,0,0,1-1l2.75-4.14,3.08,3.08,3.1-3.11,1-1,.58-.58Zm-4.17-11.34a1.46,1.46,0,0,0,.32.47,1.61,1.61,0,0,0,.53.36,1.59,1.59,0,0,0,1.26,0,1.61,1.61,0,0,0,.53-.36,2.2,2.2,0,0,0,2.51,3.52,2.13,2.13,0,0,0,.54,1.09,2.15,2.15,0,0,0,1.05.61l-4.1,4.1-6.16-6.21Zm-5.12,11.34-3,4.49a1.07,1.07,0,0,1-.34.33,1,1,0,0,1-.46.15.94.94,0,0,1-.47-.06,1.13,1.13,0,0,1-.73-1.13,1.1,1.1,0,0,1,.16-.46,1,1,0,0,1,.33-.34l4.49-3Zm4.66,1.55-1.84-1.82L240,639.26l-1.82-1.83,1.56-1.55,6.2,6.21Z"/><path class="cls-6" d="M372.4,636.15l-3-1.16-.63-.18V628.4l-.71-.27a13.68,13.68,0,0,0-9.56,0l-.71.27v6.41l-.62.18-3.06,1.09.77,2.07,2.91-1.1v11.11l.71.27a13.68,13.68,0,0,0,9.56,0l.71-.27v-11l2.91,1.1ZM359.94,630a11.18,11.18,0,0,1,6.58,0v4.23a17.34,17.34,0,0,0-6.58,0Zm6.58,12.18a11.18,11.18,0,0,1-6.58,0v-5.7a15.21,15.21,0,0,1,6.58,0Zm-6.58,4.39v-2.11a13.1,13.1,0,0,0,6.58,0v2.12a11.18,11.18,0,0,1-6.58,0Z"/><g class="cls-13"><path class="cls-14" d="M271.74,233.55a21.14,21.14,0,0,0-2.39.14,21.28,21.28,0,0,0-2.39-.14c-13.91,0-25.2,13.42-25.2,30s11.29,30,25.2,30h4.78c13.91,0,25.19-13.42,25.19-30S285.65,233.55,271.74,233.55Z"/><path class="cls-14" d="M279.6,264.49c5.94,0,10.75-7.82,10.75-17.48s-4.81-17.47-10.75-17.47-10.75,7.82-10.75,17.47S273.67,264.49,279.6,264.49Z"/><path class="cls-14" d="M360,271.47c4,0,7.17-9.79,7.17-21.85s-3.21-21.85-7.17-21.85-7.17,9.78-7.17,21.85S356,271.47,360,271.47Z"/><path class="cls-14" d="M357.77,231.77H346.92c-4.3,0-7.79,10.33-7.79,23.08s3.49,23.08,7.79,23.08h10.85c4.3,0,7.79-10.34,7.79-23.08S362.07,231.77,357.77,231.77Z"/><path class="cls-14" d="M153,233.55a21.28,21.28,0,0,0-2.39.14,21.14,21.14,0,0,0-2.39-.14c-13.91,0-25.19,13.42-25.19,30s11.28,30,25.19,30H153c13.91,0,25.19-13.42,25.19-30S166.9,233.55,153,233.55Z"/><path class="cls-15" d="M274.4,284.4c9.24,0,16.73-9.34,16.73-20.87s-7.49-20.87-16.73-20.87-16.74,9.34-16.74,20.87S265.16,284.4,274.4,284.4Z"/><path class="cls-15" d="M358.77,271.39c2.85,0,5.17-7.45,5.17-16.65s-2.32-16.66-5.17-16.66-5.17,7.46-5.17,16.66S355.91,271.39,358.77,271.39Z"/><path class="cls-8" d="M364.81,205.2a16.83,16.83,0,0,0-5.45-6.33h0s-13.28-15.61-30.06-24c-1.6-.8-3.24-1.54-4.89-2.19-19-7.41-41.08-6.53-57.63-6.53s-42.92,1-58.14,5.63a40.14,40.14,0,0,0-5.93,2.43h0A124,124,0,0,0,185.61,185l0,0c-9.73,7-18.55,14.43-22.28,16.25-6.52,3.16-25,11.36-25,11.45s-9.52,4.13-9.52,4.13l-3.23,1.58c-1.51.62-3,1-3.9,3.22,0,0-6.93,11.89-5.84,37.48.18,4.38,1.09,23.13,9.54,23.13,16.15,0,91.26-3.61,136,2.13,32.32,4.15,33-15.16,59.75-15.56,44.9-.67,46.78-10.44,46.78-10.44s2.59-2.08,2.59-22S365.3,206.21,364.81,205.2Z"/><path class="cls-8" d="M209.49,223.64a178.72,178.72,0,0,1,28.62-11.79c16.27-5,33.29-8.25,33.29-8.25a5.46,5.46,0,0,1-4.56,5c-6.88,1.1-19.07,3.76-29.12,6.19A289.65,289.65,0,0,0,209.49,223.64Z"/><path class="cls-15" d="M276.75,221.06s55-1.35,75.6-9.88a10.75,10.75,0,0,1,11.37,2.13,17.56,17.56,0,0,0-9,1.59c-4.26,2.15-11.31,6-20.69,8.09C322.9,225.45,299.73,225.81,276.75,221.06Z"/><path class="cls-15" d="M333.41,197.53s-24.08,12.83-41.55,6.86c-4.9-1.68,1.88-11.76,10.1-11.76,5.34,0,7,5.57,13.61,6.46C326.54,200.57,333.41,197.53,333.41,197.53Z"/><path class="cls-15" d="M329.3,174.89c-1.6-.8-3.24-1.54-4.89-2.19-19-7.41-41.08-6.53-57.63-6.53s-42.92,1-58.14,5.63a40.14,40.14,0,0,0-5.93,2.43h0c-14,6.79-22.87,16.05-35.28,22.51s-44.19,22.77-44.19,22.77c0,3.39,15.71,6.45,42.64,7.59s58.91-2.22,66.71-3.46c16.63-2.64,38.81-14.68,58.56-46,7.85-12.46,38.19-2.73,38.19-2.73Z"/><path class="cls-15" d="M357.36,225.81c-5.63,0-10.19,11.31-10.19,28.93a3.88,3.88,0,0,0,2.68-1.08A4,4,0,0,0,351,251c.61-12.17,4.22-21.51,8.58-21.51,2.47,0,4.69,3,6.28,7.84C364.09,228.63,360.94,225.81,357.36,225.81Z"/><path class="cls-15" d="M350.15,233.68c-2.73,7.78-14.14,12.63-31.7,8.52-31.07-7.25-38.38.46-38.38.46s11.08-6.87,42.82,5.25c11.2,4.28,24.57-2.88,26.93-5.25s.67-6,.67-6Z"/></g><rect class="cls-8" x="45.36" y="45.36" width="395.28" height="61.49"/><path class="cls-6" d="M82.69,72.81a3.28,3.28,0,0,0-2.28.92l-7.6-3.82a2.54,2.54,0,0,0,0-.39,3.31,3.31,0,0,0-.74-2.09,3.27,3.27,0,0,0-1.89-1.14,3.3,3.3,0,0,0-3.69,1.93,3.29,3.29,0,0,0,3.29,4.58,3.33,3.33,0,0,0,2-.91l7.69,3.82a2.74,2.74,0,0,0-.09.39,2.67,2.67,0,0,0,0,.4l-7.69,3.82a3.29,3.29,0,0,0-5.18,3.84,3.33,3.33,0,0,0,1.54,1.58,3.3,3.3,0,0,0,4.74-3,2.54,2.54,0,0,0,0-.39l7.69-3.82a3.27,3.27,0,0,0,1.39.79,3.21,3.21,0,0,0,1.6,0,3.32,3.32,0,0,0,1.44-.72,3.32,3.32,0,0,0,1.12-2.9,3.3,3.3,0,0,0-3.36-2.89Z"/><path class="cls-6" d="M127.71,87.08l-7.69-5-7.68,5V67.32l.82-.21a27.07,27.07,0,0,1,13.73,0l.82.21ZM114.53,69V83L120,79.4,125.51,83V69A25.11,25.11,0,0,0,114.53,69Z"/><path class="cls-7" d="M418.68,76.1,408.8,86l-1.54-1.54,7.25-7.25H400V75h14.5l-7.25-7.25,1.54-1.54Z"/></g></g></svg>