<svg id="Layer_3" data-name="Layer 3" xmlns="http://www.w3.org/2000/svg" xmlns:xlink="http://www.w3.org/1999/xlink" viewBox="0 0 486 648"><defs><style>.cls-1{fill:none;}.cls-2{clip-path:url(#clip-path);}.cls-3,.cls-6{fill:#242423;}.cls-4{fill:#c7c8c6;}.cls-5{fill:#bef434;}.cls-10,.cls-12,.cls-14,.cls-6{fill-rule:evenodd;}.cls-7{clip-path:url(#clip-path-2);}.cls-8{fill:#494a48;}.cls-9{fill:#363634;}.cls-10,.cls-11{fill:#ababa9;}.cls-12,.cls-13{fill:#fff;}.cls-14{fill:#777876;}</style><clipPath id="clip-path"><rect class="cls-1" width="486" height="602.64"/></clipPath><clipPath id="clip-path-2"><rect class="cls-1" x="62.93" y="110.31" width="360.14" height="159.21"/></clipPath></defs><g class="cls-2"><rect class="cls-3" x="45.36" y="-276.19" width="395.28" height="878.4"/><path class="cls-4" d="M179,312.18h.33a.18.18,0,0,1,.15.07.23.23,0,0,1,.06.16v.81c0,.15-.07.22-.21.22H179a2.06,2.06,0,0,1-1.06-.29,2.31,2.31,0,0,1-.76-.87,2.39,2.39,0,0,1-.83.87,2.23,2.23,0,0,1-1.1.29h-2.1a1.61,1.61,0,0,1-.65-.13A1.86,1.86,0,0,1,172,313a2.12,2.12,0,0,1-.35-.53,1.56,1.56,0,0,1-.13-.64v-1.63h.91v1.35a.81.81,0,0,0,.15.48.58.58,0,0,0,.47.2h2.24a1.24,1.24,0,0,0,.58-.14,1.19,1.19,0,0,0,.43-.37,1.11,1.11,0,0,0,.25-.51,1.14,1.14,0,0,0,0-.58l-1.13-4.14,1-.37,1.46,5.23a1.18,1.18,0,0,0,.41.63A1.21,1.21,0,0,0,179,312.18Zm2.19,0a1.05,1.05,0,0,0,.78-.33,1,1,0,0,0,.32-.76v-2.83h1.06v2.83a2.39,2.39,0,0,1-.18.92,2.3,2.3,0,0,1-1.26,1.24,2.12,2.12,0,0,1-.91.19h-1.67a.19.19,0,0,1-.22-.22v-.81a.23.23,0,0,1,.06-.16.2.2,0,0,1,.16-.07Zm-1.8,4.41h1.3v-1.31h-1.3Zm2.1,0h1.31v-1.31H181.5Zm5.23-3.15h-1.06V303.31h1.06Zm3.6-3.85a1.33,1.33,0,0,0-.28.31,1.06,1.06,0,0,0-.11.45v.58a1.41,1.41,0,0,0,.11.54,1.56,1.56,0,0,0,.29.46,1.86,1.86,0,0,0,.46.31,1.51,1.51,0,0,0,.56.11h.43a1.25,1.25,0,0,0,.57-.13,1.55,1.55,0,0,0,.44-.3,1.82,1.82,0,0,0,.29-.45,1.22,1.22,0,0,0,.11-.52v-.59a.77.77,0,0,0-.11-.41.83.83,0,0,0-.3-.37l-.27-.17-.41-.28-.55-.37Zm-.11-3,.49.33c.14.11.31.22.49.34s.4.26.6.4l1.59,1.08a1.88,1.88,0,0,1,.64.78,2.24,2.24,0,0,1,.23,1V311a2.59,2.59,0,0,1-.18.95,2.63,2.63,0,0,1-.53.82,2.68,2.68,0,0,1-.81.57,2.6,2.6,0,0,1-1,.2h-.33a2.56,2.56,0,0,1-1-.2,2.76,2.76,0,0,1-.8-.57,2.79,2.79,0,0,1-.52-.82,2.41,2.41,0,0,1-.19-.95v-.52a2.26,2.26,0,0,1,.25-1.08,1.89,1.89,0,0,1,.67-.75l.33-.2.27-.17.28-.19-1-.69Zm7.8,6.9a1.61,1.61,0,0,1-.65-.13,2,2,0,0,1-.54-.36,2.18,2.18,0,0,1-.35-.54,1.78,1.78,0,0,1-.12-.65v-1.63h.9v1.4a.73.73,0,0,0,.16.46.54.54,0,0,0,.46.19h2.41a1.36,1.36,0,0,0,.76-.2,1.49,1.49,0,0,0,.43-.48,1.32,1.32,0,0,0,.12-.63,1.39,1.39,0,0,0-.17-.61l-1.77-3.16.89-.6,1.76,3.14a2.67,2.67,0,0,1,.06,2.57,2.44,2.44,0,0,1-.86.89,2.47,2.47,0,0,1-1.28.34Zm8-4.74v2.42a1,1,0,0,0,.32.75,1.15,1.15,0,0,0,.78.31h1.54a.18.18,0,0,1,.15.07.2.2,0,0,1,.07.16v.81a.2.2,0,0,1-.22.22h-1.35a1.72,1.72,0,0,1-.73-.16,1.26,1.26,0,0,1-.56-.46v.68a3.22,3.22,0,0,1-.17,1,3.36,3.36,0,0,1-.48.92,2.74,2.74,0,0,1-.72.72,3.4,3.4,0,0,1-.94.5l-1.75.61-.34-1.06,1.86-.62a2,2,0,0,0,1.08-.78,2.19,2.19,0,0,0,.4-1.26V308.7Zm4.58,4.74h-1.94a.2.2,0,0,1-.22-.22v-.83a.19.19,0,0,1,.22-.21h2.08a1.79,1.79,0,0,0,.92-.25,1.71,1.71,0,0,0,.6-.68,1.69,1.69,0,0,0,.17-.93,2.14,2.14,0,0,0-.43-1.05l-2.48-3.38V305l4.72-2.41.49,1-4.13,2.1,4.3,5.75a2.12,2.12,0,0,0,.63.57,1.61,1.61,0,0,0,.83.22h.19a.16.16,0,0,1,.13.07.18.18,0,0,1,.08.16v.81a.18.18,0,0,1-.08.16.18.18,0,0,1-.13.06h-.17a2.63,2.63,0,0,1-2.22-1.28l-.81-1.2a2.38,2.38,0,0,1-.28,1.06,2.59,2.59,0,0,1-.64.79,3.13,3.13,0,0,1-.86.47A3,3,0,0,1,210.61,313.44Zm7.8-1.26a1.07,1.07,0,0,0,.79-.33,1.05,1.05,0,0,0,.32-.76v-2.83h1.06v2.83a2.23,2.23,0,0,1-.19.92,2.22,2.22,0,0,1-1.26,1.24,2.08,2.08,0,0,1-.9.19h-1.68c-.14,0-.21-.07-.21-.22v-.81a.23.23,0,0,1,.06-.16.18.18,0,0,1,.15-.07Zm.94-5.75h1.31v-1.31h-1.31Zm8,2.27v2.42a1,1,0,0,0,.33.75,1.13,1.13,0,0,0,.78.31H230a.18.18,0,0,1,.15.07.23.23,0,0,1,.06.16v.81c0,.15-.07.22-.21.22h-1.36a1.71,1.71,0,0,1-.72-.16,1.34,1.34,0,0,1-.57-.46v.68a3,3,0,0,1-.17,1,3.33,3.33,0,0,1-.47.92,3.08,3.08,0,0,1-.72.72,3.4,3.4,0,0,1-.94.5l-1.75.61-.34-1.06,1.86-.62a2,2,0,0,0,1.07-.78,2.12,2.12,0,0,0,.4-1.26V308.7Zm6.78,4.74a2.25,2.25,0,0,1-1-.25,2.1,2.1,0,0,1-.8-.77,2.18,2.18,0,0,1-.8.77,2.32,2.32,0,0,1-1,.25H230a.21.21,0,0,1-.16-.06.29.29,0,0,1-.06-.16v-.83a.19.19,0,0,1,.08-.15.2.2,0,0,1,.14-.06h.63a1.05,1.05,0,0,0,.78-.33,1,1,0,0,0,.34-.78v-2.4h1.06v2.45a1.05,1.05,0,0,0,.32.76,1.13,1.13,0,0,0,.79.31h.27a1.24,1.24,0,0,0,.79-.27,1.17,1.17,0,0,0,.43-.73l.46-2.41L237,309l-.4,2a1.15,1.15,0,0,0,0,.49,1.11,1.11,0,0,0,.22.38,1,1,0,0,0,.38.25,1.39,1.39,0,0,0,.5.09h.15a1.06,1.06,0,0,0,.78-.32,1.11,1.11,0,0,0,.33-.8v-2.84H240v2.92a1.06,1.06,0,0,0,.35.73,1.1,1.1,0,0,0,.77.3h.61a.18.18,0,0,1,.14.06.19.19,0,0,1,.08.15v.83a.29.29,0,0,1-.06.16.21.21,0,0,1-.16.06h-.43a2.31,2.31,0,0,1-1-.25,2.08,2.08,0,0,1-.79-.77,2.06,2.06,0,0,1-.81.77,2.25,2.25,0,0,1-1,.25,2.23,2.23,0,0,1-1-.23,1.7,1.7,0,0,1-.7-.79,1.86,1.86,0,0,1-.78.77A2.21,2.21,0,0,1,234.15,313.44Zm3.46-6.49H236.3v-1.31h1.31Zm-2.11,0h-1.3v-1.31h1.3Zm1-1.88h-1.3v-1.3h1.3Zm6.19,1.88H244v-1.31h-1.31Zm2.11,0h1.31v-1.31H244.8Zm2.44,6.27c0,.15-.07.22-.21.22h-.95a2,2,0,0,1-.53-.08,2.33,2.33,0,0,1-.49-.21,1.85,1.85,0,0,1-.4-.33,1,1,0,0,1-.23-.4,2.09,2.09,0,0,1-1.77,1h-.95c-.14,0-.21-.07-.21-.22v-.81a.23.23,0,0,1,.06-.16.18.18,0,0,1,.15-.07h1a1.18,1.18,0,0,0,.77-.28,1.2,1.2,0,0,0,.43-.69l.48-2.43,1,.17-.4,2a.9.9,0,0,0,0,.46,1,1,0,0,0,.21.38,1.23,1.23,0,0,0,.37.26,1,1,0,0,0,.46.1H247a.18.18,0,0,1,.15.07.23.23,0,0,1,.06.16Zm1.92-6.27h1.31v-1.31h-1.31Zm3.4,6.27a.19.19,0,0,1-.22.22h-1a1.88,1.88,0,0,1-.52-.08,2,2,0,0,1-.49-.21,1.64,1.64,0,0,1-.4-.33.86.86,0,0,1-.23-.4,2.08,2.08,0,0,1-.76.74,1.93,1.93,0,0,1-1,.28H247a.19.19,0,0,1-.22-.22v-.81a.23.23,0,0,1,.06-.16.19.19,0,0,1,.16-.07h1a1.25,1.25,0,0,0,1.2-1l.48-2.43,1.05.17-.4,2a.9.9,0,0,0,0,.46.86.86,0,0,0,.22.38,1.12,1.12,0,0,0,.37.26,1,1,0,0,0,.46.1h.93a.19.19,0,0,1,.16.07.23.23,0,0,1,.06.16Zm3.38-1h2.33v-2.06a.89.89,0,0,0-.29-.68.93.93,0,0,0-.69-.29h-1a.93.93,0,0,0-.62.23,1,1,0,0,0-.33.55l-.23,1.25a.8.8,0,0,0,.16.7A.86.86,0,0,0,255.94,312.18Zm-1.93-1,.33-1.58a2,2,0,0,1,.24-.67,2.51,2.51,0,0,1,.45-.52,2.39,2.39,0,0,1,.58-.34,2.12,2.12,0,0,1,.71-.12h.86a2.19,2.19,0,0,1,1.52.63,2,2,0,0,1,.46.68,1.9,1.9,0,0,1,.17.83v1.93a1.33,1.33,0,0,1-.38,1,1.35,1.35,0,0,1-1,.39h-1.87a1.89,1.89,0,0,1-.91-.23,2,2,0,0,1-.66-.79,1.78,1.78,0,0,1-.74.79,2.16,2.16,0,0,1-1,.23h-.44a.2.2,0,0,1-.22-.22v-.83a.2.2,0,0,1,.06-.14.21.21,0,0,1,.16-.07h.49a1.18,1.18,0,0,0,.77-.28A1.08,1.08,0,0,0,254,311.21Zm15.15,4.58a1.46,1.46,0,0,0,.63-.14,1.53,1.53,0,0,0,.54-.35,1.51,1.51,0,0,0,.36-.53,1.45,1.45,0,0,0,.13-.63v-.7H268v-1.26h5.63a.18.18,0,0,1,.13.06.19.19,0,0,1,.08.15v.82a.27.27,0,0,1-.08.17.18.18,0,0,1-.13.06h-1.77a.9.9,0,0,1,.06.34v.53a2.48,2.48,0,0,1-.22,1.06,2.55,2.55,0,0,1-.6.88,2.79,2.79,0,0,1-1.93.8h-2.65a2.82,2.82,0,0,1-1.19-.25,3,3,0,0,1-1-.66,2.92,2.92,0,0,1-.66-1,2.78,2.78,0,0,1-.25-1.18v-3.69h1.06v3.5a2,2,0,0,0,.15.77,2.72,2.72,0,0,0,.43.65,2.43,2.43,0,0,0,.63.43,2.09,2.09,0,0,0,.79.15Zm5.77-3.61V310.3a2.09,2.09,0,0,1,.17-.83,2.1,2.1,0,0,1,1.12-1.15,2.29,2.29,0,0,1,.87-.17h.58a1.94,1.94,0,0,1,1.28.46,2,2,0,0,1,.7,1.18l.23,1.22a2,2,0,0,1,0,.91,2,2,0,0,1-.38.76,2.36,2.36,0,0,1-.69.56,2,2,0,0,1-.88.2h-1.29a1.66,1.66,0,0,1-.32,0l-.31-.1s0,.06,0,.16a1.8,1.8,0,0,0,.3,1.12,1.36,1.36,0,0,0,.89.52l1.38.26,1.25-1.93a2.57,2.57,0,0,1,2.32-1.26h.21c.15,0,.22.07.22.21v.82a.29.29,0,0,1-.06.17.23.23,0,0,1-.16.06h-.47a1.54,1.54,0,0,0-.77.18,1.84,1.84,0,0,0-.57.6l-.16.23c-.07.12-.16.27-.27.43s-.22.36-.34.54-.24.35-.34.51l-.26.41-.12.19-2.29-.51a2.14,2.14,0,0,1-1.34-.83,3,3,0,0,1-.48-1.75h-1.35a.2.2,0,0,1-.15-.06.29.29,0,0,1-.06-.17v-.82a.19.19,0,0,1,.21-.21Zm1.06-1.89v1.89h2a1,1,0,0,0,.37-.08.87.87,0,0,0,.27-.23.67.67,0,0,0,.17-.32.85.85,0,0,0,0-.39l-.2-1a1,1,0,0,0-.95-.8H277a.91.91,0,0,0-.68.29A.94.94,0,0,0,276,310.29Zm8.29,3.15h-1.93a.19.19,0,0,1-.22-.22v-.83c0-.14.07-.21.22-.21h2.07a1.75,1.75,0,0,0,.91-.25,1.54,1.54,0,0,0,.61-.66,1.64,1.64,0,0,0,.17-.94,2.11,2.11,0,0,0-.43-1.06l-2.47-3.4V305l4.72-2.41.49,1-4.14,2.1,2.28,3.05a3,3,0,0,1,.64,1.63,2.86,2.86,0,0,1-1.32,2.67A2.81,2.81,0,0,1,284.28,313.44Zm-1.4-10.3,4.23-2.17.36.82-4.23,2.15Zm9.18,10.3H291v-8.9h1.06Zm-3-9.29v-.58a1.14,1.14,0,0,1,.34-.86,1.12,1.12,0,0,1,.86-.34h2.92v.94h-2.93a.39.39,0,0,0-.39.4v.44ZM295,317.26l-.34-1,1.86-.62a2,2,0,0,0,1.06-.78,2.08,2.08,0,0,0,.42-1.26V308.7H299v4.77a3.29,3.29,0,0,1-.17,1,3.16,3.16,0,0,1-.48.93,3.11,3.11,0,0,1-.72.73,3.16,3.16,0,0,1-.92.5Zm2.86-11.68h1.31v1.31h-1.31Zm5.49,7.86a2,2,0,0,1-.88-.2,2.22,2.22,0,0,1-.67-.54,2,2,0,0,1-.4-.77,2,2,0,0,1,0-.91l.26-1.39a1.75,1.75,0,0,1,.24-.65,2.09,2.09,0,0,1,.45-.52,1.88,1.88,0,0,1,.58-.34,2.12,2.12,0,0,1,.71-.12h.86a2,2,0,0,1,.83.16,2.11,2.11,0,0,1,.69.47,1.86,1.86,0,0,1,.46.67,1.93,1.93,0,0,1,.17.83v2.05h1.22a.18.18,0,0,1,.15.07.2.2,0,0,1,.06.14v.83c0,.15-.07.22-.21.22h-1.23v.18a3.2,3.2,0,0,1-.66,1.88,3.39,3.39,0,0,1-1.63,1.2l-1.75.6-.34-1.07,1.84-.61a2.09,2.09,0,0,0,1.06-.78,2,2,0,0,0,.42-1.25v-.28a.68.68,0,0,1-.29.11l-.33,0Zm-.11-1.26h2.32v-2.05a.87.87,0,0,0-.29-.67.88.88,0,0,0-.68-.3h-1a1,1,0,0,0-.95.79l-.23,1.23a.78.78,0,0,0,.18.7A.85.85,0,0,0,303.22,312.18ZM310,307h1.31v-1.31H310Zm3.4,6.27a.2.2,0,0,1-.22.22h-.95a1.82,1.82,0,0,1-.52-.08,2.21,2.21,0,0,1-.5-.21,2.13,2.13,0,0,1-.4-.33,1,1,0,0,1-.23-.4,2,2,0,0,1-.75.74,2,2,0,0,1-1,.28h-1c-.14,0-.21-.07-.21-.22v-.81a.23.23,0,0,1,.06-.16.18.18,0,0,1,.15-.07h1a1.25,1.25,0,0,0,1.2-1l.48-2.43,1,.17-.4,2a1,1,0,0,0,0,.46,1,1,0,0,0,.21.38,1.37,1.37,0,0,0,.37.26,1.06,1.06,0,0,0,.46.1h.94a.21.21,0,0,1,.16.07.23.23,0,0,1,.06.16Zm-.22.22a.2.2,0,0,1-.14-.06.19.19,0,0,1-.08-.14v-.86a.16.16,0,0,1,.08-.14.2.2,0,0,1,.14-.06h1.61a.65.65,0,0,1-.34-.43,1.63,1.63,0,0,1,0-.76l.22-1.07a2.17,2.17,0,0,1,.24-.63,2.35,2.35,0,0,1,.43-.5,1.88,1.88,0,0,1,.59-.32,1.84,1.84,0,0,1,.66-.12h.57a2,2,0,0,1,.81.17,1.91,1.91,0,0,1,1.09,1.09,1.94,1.94,0,0,1,.16.8v1.24a.71.71,0,0,1-.07.37.66.66,0,0,0,0,.16h2.5V310a1.36,1.36,0,0,0-.27-.86,1.4,1.4,0,0,0-.68-.46l-5-1.57.29-1.07,4.94,1.54a2.68,2.68,0,0,1,1.3.87,2.32,2.32,0,0,1,.52,1.57V312a1.42,1.42,0,0,1-.38,1.07,1.44,1.44,0,0,1-1.08.39h-2.3v-.73a.67.67,0,0,1-.14.2,1,1,0,0,1-.26.25,2.36,2.36,0,0,1-.39.2,1.4,1.4,0,0,1-.47.08Zm5-1.26v-1.82a.83.83,0,0,0-.28-.64.84.84,0,0,0-.66-.28h-.69a.86.86,0,0,0-.58.22.88.88,0,0,0-.31.53l-.2,1.05a.78.78,0,0,0,.17.68.86.86,0,0,0,.63.26Z"/><path class="cls-5" d="M62.93,474.84A30.74,30.74,0,0,1,93.67,444.1H392.33a30.74,30.74,0,0,1,30.74,30.74h0a30.74,30.74,0,0,1-30.74,30.75H93.67a30.74,30.74,0,0,1-30.74-30.75Z"/><path class="cls-3" d="M184.45,478.05h.5a.18.18,0,0,1,.15.09.2.2,0,0,1,.09.17v1.78a.27.27,0,0,1-.07.17.21.21,0,0,1-.17.07h-.35a2.65,2.65,0,0,1-1.25-.28,4,4,0,0,1-.9-.63,3.57,3.57,0,0,1-1,.67,3.07,3.07,0,0,1-1.23.24h-2.3a2.44,2.44,0,0,1-.9-.17,2.52,2.52,0,0,1-.73-.51,2.39,2.39,0,0,1-.51-.74,2.43,2.43,0,0,1-.18-.92v-2.28h1.65v1.93a.41.41,0,0,0,.12.3.46.46,0,0,0,.29.11h2.58a1.17,1.17,0,0,0,.49-.11,1.24,1.24,0,0,0,.4-.3,1.06,1.06,0,0,0,.22-.42,1,1,0,0,0,0-.49l-1.41-5.08,1.83-.67,1.79,6.38a.94.94,0,0,0,.33.49A.89.89,0,0,0,184.45,478.05Zm4.53,0a.82.82,0,0,0,.6-.25.88.88,0,0,0,.25-.61v-3.64h1.93v3.64a3,3,0,0,1-.25,1.23,3.35,3.35,0,0,1-.68,1,3.31,3.31,0,0,1-1,.67,3.09,3.09,0,0,1-1.22.24h-3.67a.21.21,0,0,1-.17-.07.27.27,0,0,1-.07-.17v-1.78a.21.21,0,0,1,.07-.17.2.2,0,0,1,.17-.09Zm-3.77,6.41h2v-2h-2Zm2.91,0h2v-2h-2Zm14.44-6.41h.49a.21.21,0,0,1,.16.09.21.21,0,0,1,.08.17v1.78a.27.27,0,0,1-.07.17.21.21,0,0,1-.17.07h-.35a2.65,2.65,0,0,1-1.25-.28,3.76,3.76,0,0,1-.9-.63,3.57,3.57,0,0,1-1,.67,3.07,3.07,0,0,1-1.23.24H196a2.44,2.44,0,0,1-.9-.17,2.52,2.52,0,0,1-.73-.51,2.57,2.57,0,0,1-.51-.74,2.43,2.43,0,0,1-.18-.92v-2.28h1.65v1.93a.38.38,0,0,0,.13.3.41.41,0,0,0,.28.11h2.58a1.17,1.17,0,0,0,.49-.11,1.24,1.24,0,0,0,.4-.3,1.06,1.06,0,0,0,.22-.42,1,1,0,0,0,0-.49L198,471.65l1.83-.67,1.79,6.38a.94.94,0,0,0,.33.49A.9.9,0,0,0,202.56,478.05Zm.24.26a.25.25,0,0,1,.08-.17.21.21,0,0,1,.16-.09h3.15a4.89,4.89,0,0,0,1.46-.23,3,3,0,0,0,1.23-.79l1-1.09.16-.16s.08-.07.09-.07l-3.69-1.11a.39.39,0,0,0-.32,0,.49.49,0,0,0-.19.23l-.67,1.75-1.68-.45.45-1.62a2.46,2.46,0,0,1,.5-.93,2.55,2.55,0,0,1,.77-.6,2.31,2.31,0,0,1,.93-.26,2.18,2.18,0,0,1,.95.09l7,2.09-.58,1.81-.82-.25a1.2,1.2,0,0,0-.69,0,1.46,1.46,0,0,0-.51.35l-2,2A4.47,4.47,0,0,1,207.8,480a6.22,6.22,0,0,1-2.05.35H203a.21.21,0,0,1-.24-.24Zm5.09,6.17h2v-2h-2ZM225,482.16a1.4,1.4,0,0,0,1-.42,1.42,1.42,0,0,0,.46-1l0-.37H223v-2.28h6.89a.17.17,0,0,1,.17.07.2.2,0,0,1,.07.16v1.79a.24.24,0,0,1-.24.26h-1.57l0,.11a.88.88,0,0,1,0,.24V481a3.26,3.26,0,0,1-.28,1.37,3.31,3.31,0,0,1-.77,1.11,3.49,3.49,0,0,1-1.16.74,3.79,3.79,0,0,1-1.4.26h-3a3.94,3.94,0,0,1-2.79-1.16,3.79,3.79,0,0,1-1.15-2.77v-4.64h1.94v4.36a1.9,1.9,0,0,0,.15.75,2.22,2.22,0,0,0,.43.62,2,2,0,0,0,1.37.56Zm5.92-4.11v-1.76a2.89,2.89,0,0,1,.21-1.11,3,3,0,0,1,.61-.91,2.73,2.73,0,0,1,.9-.6,2.84,2.84,0,0,1,1.12-.23h.72a2.5,2.5,0,0,1,.94.18,2.73,2.73,0,0,1,.79.46,2.3,2.3,0,0,1,.61.7,2.7,2.7,0,0,1,.35.88l.27,1.35a2.51,2.51,0,0,1,0,1.25,2.63,2.63,0,0,1-.54,1.05,3,3,0,0,1-1,.74,2.56,2.56,0,0,1-1.2.28h-.8a3,3,0,0,1-.55-.05c-.16,0-.33-.08-.51-.14v.16a1.8,1.8,0,0,0,.14.68.81.81,0,0,0,.62.42l2,.39,1.78-2.18a4.33,4.33,0,0,1,1.35-1.14,3.57,3.57,0,0,1,1.7-.42h.21a.21.21,0,0,1,.16.07.2.2,0,0,1,.09.17v1.8c0,.16-.08.24-.25.24h-.51a1.87,1.87,0,0,0-.79.19,2,2,0,0,0-.65.55l-.22.3-.44.54-.53.69-.51.65c-.15.21-.29.38-.4.52l-.18.25-3.86-1a2.05,2.05,0,0,1-.71-.35,2.4,2.4,0,0,1-.52-.61,2.88,2.88,0,0,1-.34-.8,3.85,3.85,0,0,1-.1-.91h-1c-.17,0-.25-.08-.25-.24v-1.8c0-.16.08-.24.25-.24Zm1.93-1.76v1.76H235a.5.5,0,0,0,.42-.2.54.54,0,0,0,.13-.47l-.23-1.18a.63.63,0,0,0-.23-.4.66.66,0,0,0-.44-.16h-1.16a.68.68,0,0,0-.46.19A.62.62,0,0,0,232.86,476.29Zm10.46,4h-2.58a.24.24,0,0,1-.18-.07.28.28,0,0,1-.07-.19v-1.79a.2.2,0,0,1,.07-.16.21.21,0,0,1,.16-.09h2.79a1.45,1.45,0,0,0,.86-.25,1.58,1.58,0,0,0,.55-.63,1.56,1.56,0,0,0,.17-.81,1.39,1.39,0,0,0-.31-.82l-3-4.06v-1.39l6-3,.86,1.7-4.81,2.43,2.58,3.21a3.52,3.52,0,0,1,.72,2.6,3.57,3.57,0,0,1-.39,1.25,4.2,4.2,0,0,1-.81,1.07,3.91,3.91,0,0,1-1.16.74A3.79,3.79,0,0,1,243.32,480.33Zm-2.16-12.6,5.53-2.81.6,1.36-5.52,2.83Zm12.19,12.6h-1.93V469.67h1.93ZM249,469.23v-.93a1.5,1.5,0,0,1,.51-1.23,1.67,1.67,0,0,1,1.14-.44h3.63v1.67h-3.42a.35.35,0,0,0-.28.12.37.37,0,0,0-.09.25v.56Zm12.49,4.32h2v-2h-2Zm2.93,0h2v-2h-2Zm-5.22,0v3.06a1.4,1.4,0,0,0,.42,1,1.45,1.45,0,0,0,1,.41h7.2a.85.85,0,0,0,.6-.23.82.82,0,0,0,.25-.6v-3.16h1.93v3.14a.81.81,0,0,0,.24.6.86.86,0,0,0,.6.25H272a.21.21,0,0,1,.24.24v1.8a.21.21,0,0,1-.24.24h-.19a2.72,2.72,0,0,1-1.18-.26,3.08,3.08,0,0,1-.95-.78,2.69,2.69,0,0,1-1,.8,2.9,2.9,0,0,1-1.18.24h-6.67a3.39,3.39,0,0,1-1.39-.28,3.49,3.49,0,0,1-1.9-1.9,3.39,3.39,0,0,1-.28-1.39v-3.21Zm15.17,10.93h2v-2h-2Zm4.48-4.39a.27.27,0,0,1-.07.17.24.24,0,0,1-.18.07H277.3a2.39,2.39,0,0,1-1.13-.3,1.67,1.67,0,0,1-.75-.74,1.47,1.47,0,0,1-.35.41,3.72,3.72,0,0,1-.51.33,2.7,2.7,0,0,1-.58.23,2.46,2.46,0,0,1-.6.07h-1.33c-.17,0-.25-.08-.25-.24v-1.78a.21.21,0,0,1,.07-.17.23.23,0,0,1,.18-.09h1.51a.94.94,0,0,0,.61-.21.88.88,0,0,0,.33-.57l.65-3.16,1.9.34-.52,2.65a.75.75,0,0,0,.15.67.85.85,0,0,0,.64.28h1.31a.23.23,0,0,1,.18.09.21.21,0,0,1,.07.17Zm5.5-8.14h-2v-2h2Zm-2.94,0h-2v-2h2Zm1.44-2.67h-2v-2h2Zm-1.26,8.77a.86.86,0,0,0,.6-.25.87.87,0,0,0,.24-.61v-3.64h1.94v3.64a3.18,3.18,0,0,1-1.94,2.9,3,3,0,0,1-1.21.24h-2.62a.21.21,0,0,1-.17-.07.27.27,0,0,1-.07-.17v-1.78a.21.21,0,0,1,.07-.17.2.2,0,0,1,.17-.09Z"/><path class="cls-6" d="M308.33,466.06h-2.2v7.68h-7.68v2.2h7.68v7.69h2.2v-7.69H316v-2.2h-7.69Z"/><g class="cls-7"><path class="cls-8" d="M67.21,143.73l-1.68-27.37s8.71-9.48,27.81-4.22S125,141.41,125,141.41Z"/><path class="cls-8" d="M129.62,133.54v8.25h9.28a5.26,5.26,0,0,0,3.77-1.44,5.33,5.33,0,0,0,1.67-3.69,2.74,2.74,0,0,0-3.07-3.08Z"/><path class="cls-8" d="M142.1,205.32c2.83,0,5.12-8.66,5.12-19.35s-2.29-19.34-5.12-19.34S137,175.29,137,186,139.28,205.32,142.1,205.32Z"/><path class="cls-8" d="M75,259.17c6.66,0,12.06-14.26,12.06-31.84S81.64,195.48,75,195.48s-12.05,14.26-12.05,31.85S68.33,259.17,75,259.17Z"/><path class="cls-5" d="M123.17,263.43H111.36l58.73-68h7.24Z"/><path class="cls-5" d="M138.91,263.43H94.83l-6.06,6.09h46.37Z"/><path class="cls-8" d="M356.38,133.54v8.25h-9.29a5.25,5.25,0,0,1-3.76-1.44,5.33,5.33,0,0,1-1.67-3.69,2.74,2.74,0,0,1,3.07-3.08Z"/><path class="cls-8" d="M343.9,205.32c2.82,0,5.11-8.66,5.11-19.35s-2.29-19.34-5.11-19.34-5.12,8.66-5.12,19.34S341.07,205.32,343.9,205.32Z"/><path class="cls-8" d="M411,259.17c6.65,0,12.05-14.26,12.05-31.84s-5.4-31.85-12.05-31.85S399,209.74,399,227.33,404.36,259.17,411,259.17Z"/><path class="cls-5" d="M362.83,263.43h11.81l-58.72-68h-7.25Z"/><path class="cls-5" d="M347.09,263.43h44.08l6.06,6.09H350.86Z"/><path class="cls-8" d="M257.8,230.43c0,3.54-7.73,6.4-17.26,6.4s-17.27-2.86-17.27-6.4v-4H257.8Z"/><path class="cls-3" d="M240.54,233.25c9.53,0,17.26-2.87,17.26-6.42s-7.73-6.43-17.26-6.43-17.27,2.88-17.27,6.43S231,233.25,240.54,233.25Z"/><path class="cls-8" d="M240.54,230.54c7.55,0,13.68-1.66,13.68-3.71s-6.13-3.71-13.68-3.71-13.68,1.66-13.68,3.71S233,230.54,240.54,230.54Z"/><path class="cls-8" d="M246.66,190.92l7.56,35.91H226.86l7.56-35.91Z"/><path class="cls-8" d="M240.54,192.78c3.38,0,6.11-.84,6.11-1.86s-2.73-1.86-6.11-1.86-6.12.83-6.12,1.86S237.16,192.78,240.54,192.78Z"/><path class="cls-3" d="M240.54,192.78c3.38,0,6.11-.84,6.11-1.86s-2.73-1.86-6.11-1.86-6.12.83-6.12,1.86S237.16,192.78,240.54,192.78Z"/><path class="cls-3" d="M248.53,199.81c0,1.34-3.58,2.43-8,2.43s-8-1.09-8-2.43l-.74,3.51c0,1.46,3.9,2.64,8.72,2.64s8.73-1.18,8.73-2.64Z"/><path class="cls-3" d="M250.76,210.42c0,1.53-4.57,2.78-10.22,2.78s-10.23-1.25-10.23-2.78l-.73,3.5c0,1.64,4.9,3,11,3s11-1.33,11-3Z"/><path class="cls-3" d="M104.88,142.48l-6.12.24a155.79,155.79,0,0,0-7.36-17.54c-4.08-7.92-8.19-14.67-8.33-14.87a36.72,36.72,0,0,1,5.33.52c2.29,4,6.17,10.77,8.54,15.27C99.74,131.43,103.46,139.29,104.88,142.48Z"/><path class="cls-8" d="M418.8,143.73l1.68-27.37s-8.71-9.48-27.81-4.22S361,141.41,361,141.41Z"/><path class="cls-3" d="M381.12,142.48l6.12.24a157.67,157.67,0,0,1,7.36-17.54c4.08-7.92,8.19-14.67,8.33-14.87a36.85,36.85,0,0,0-5.33.52c-2.28,4-6.17,10.77-8.54,15.27C386.26,131.43,382.55,139.29,381.12,142.48Z"/></g><rect class="cls-9" x="45.36" y="523.15" width="395.28" height="79.06"/><path class="cls-10" d="M84.89,555a2.2,2.2,0,1,1-2.18,2.19A2.19,2.19,0,0,1,84.89,555Zm2.18-5.49a2.18,2.18,0,1,0-2.18,2.19A2.19,2.19,0,0,0,87.07,549.51Zm0-7.69a2.18,2.18,0,1,0-2.18,2.2A2.2,2.2,0,0,0,87.07,541.82Z"/><path class="cls-11" d="M75.44,578.51v2.06a.41.41,0,0,0,.16.33A.6.6,0,0,0,76,581h.81a.13.13,0,0,1,.15.15v1.12a.14.14,0,0,1-.15.16h-.61a1.46,1.46,0,0,1-.39-.07.56.56,0,0,1-.33-.28v.2a2.09,2.09,0,0,1-.15.79,2.41,2.41,0,0,1-.37.71,2.44,2.44,0,0,1-.57.54,2.49,2.49,0,0,1-.72.38l-1.52.51-.37-1.13,1.58-.51a1.23,1.23,0,0,0,.66-.5,1.27,1.27,0,0,0,.25-.78v-3.8Zm1.73-1h1.26v-1.26H77.17Zm1.84,0h1.26v-1.26H79Zm2,4.74a.18.18,0,0,1-.05.11.14.14,0,0,1-.11.05h-.83a1.5,1.5,0,0,1-.7-.19,1.07,1.07,0,0,1-.48-.46.84.84,0,0,1-.22.25l-.31.21a1.78,1.78,0,0,1-.37.14,1.57,1.57,0,0,1-.37.05h-.83a.14.14,0,0,1-.16-.16v-1.11a.16.16,0,0,1,0-.11.14.14,0,0,1,.11-.05h.94a.62.62,0,0,0,.38-.13.6.6,0,0,0,.21-.36l.41-2,1.18.21-.32,1.65a.45.45,0,0,0,.09.42.52.52,0,0,0,.4.18h.82a.14.14,0,0,1,.11.05.16.16,0,0,1,.05.11Zm2.82.16a1.86,1.86,0,0,1-.74-.16,1.63,1.63,0,0,1-.6-.49,1.61,1.61,0,0,1-.62.49,1.77,1.77,0,0,1-.73.16h-.29a.16.16,0,0,1-.1-.05.18.18,0,0,1,0-.11v-1.11a.17.17,0,0,1,.15-.16h.5a.49.49,0,0,0,.37-.16.54.54,0,0,0,.15-.38v-2h1.21v2.06a.42.42,0,0,0,.17.33.57.57,0,0,0,.35.12H84a.62.62,0,0,0,.38-.13.66.66,0,0,0,.21-.37l.39-2,1.19.22-.33,1.66a.48.48,0,0,0,.1.42.52.52,0,0,0,.4.18h.29a.52.52,0,0,0,.38-.15.5.5,0,0,0,.15-.37v-2.27h1.21v2.27a.5.5,0,0,0,.15.37.54.54,0,0,0,.38.15h.46a.16.16,0,0,1,.11.05.14.14,0,0,1,0,.1v1.11a.19.19,0,0,1,0,.12.13.13,0,0,1-.11.05h-.27a1.81,1.81,0,0,1-.73-.16,1.46,1.46,0,0,1-.59-.49,1.69,1.69,0,0,1-.62.49,1.84,1.84,0,0,1-.73.16,1.74,1.74,0,0,1-.71-.15,1.33,1.33,0,0,1-.56-.5,1.51,1.51,0,0,1-.58.5A1.65,1.65,0,0,1,83.86,582.45Zm2.63-4.89H85.23V576.3h1.26Zm-1.83,0H83.4V576.3h1.26Zm.9-1.67H84.3v-1.26h1.26ZM89.85,585H91.1v-1.27H89.85Zm1.82,0h1.26v-1.27H91.67Zm1.93-2.74a.17.17,0,0,1,0,.11.16.16,0,0,1-.11.05h-.83a1.57,1.57,0,0,1-.71-.19,1.1,1.1,0,0,1-.47-.46.84.84,0,0,1-.22.25,3,3,0,0,1-.32.21,1.92,1.92,0,0,1-.36.14,1.57,1.57,0,0,1-.37.05h-.84a.14.14,0,0,1-.15-.16v-1.11a.15.15,0,0,1,0-.11.16.16,0,0,1,.11-.05h1a.65.65,0,0,0,.38-.13.6.6,0,0,0,.21-.36l.41-2,1.18.21-.33,1.65a.48.48,0,0,0,.1.42.5.5,0,0,0,.4.18h.82a.16.16,0,0,1,.11.05.15.15,0,0,1,0,.11Zm.14,1.47H95V585H93.74ZM95.32,581a.49.49,0,0,0,.37-.16.54.54,0,0,0,.15-.38v-2.27h1.21v2.27a2,2,0,0,1-.15.77,2,2,0,0,1-.43.62,1.83,1.83,0,0,1-.63.42,1.87,1.87,0,0,1-.75.16H93.45a.16.16,0,0,1-.11-.05.17.17,0,0,1,0-.11v-1.11a.15.15,0,0,1,0-.11.16.16,0,0,1,.11-.05Z"/><path class="cls-12" d="M160.89,550.6H167l1.43-6.45a4.64,4.64,0,0,0-2.5-5.16,4.54,4.54,0,0,0-3-.34,4.59,4.59,0,0,0-2.56,1.61,4.51,4.51,0,0,0-.89,1.84,4.58,4.58,0,0,0,0,2Zm3.05,2.2a18.42,18.42,0,0,1,8.11,1.89l.61.3v5.49H155.23V555l.61-.3A18.38,18.38,0,0,1,163.94,552.8Z"/><path class="cls-13" d="M148.7,584.37a2.39,2.39,0,0,1-1-.2,2.43,2.43,0,0,1-1.31-1.31,2.37,2.37,0,0,1-.19-1V579h1.21v2.71a1,1,0,0,0,.1.47,1.16,1.16,0,0,0,.26.39,1.19,1.19,0,0,0,.38.25,1.07,1.07,0,0,0,.47.1h2a1,1,0,0,0,.71-.29.94.94,0,0,0,.28-.69v-7h1.21v5.58a.5.5,0,0,0,.15.37.52.52,0,0,0,.38.15H154a.16.16,0,0,1,.11.05.14.14,0,0,1,0,.1v1.11a.19.19,0,0,1,0,.12.16.16,0,0,1-.11.05h-.49a1.19,1.19,0,0,1-.4-.07.71.71,0,0,1-.33-.28v.2a1.65,1.65,0,0,1-.16.69,2.11,2.11,0,0,1-.44.67,2.1,2.1,0,0,1-1.6.71Zm7.86-3.35a.49.49,0,0,0,.37-.16.54.54,0,0,0,.15-.38v-2.27h1.21v2.27a2,2,0,0,1-.15.77,2.22,2.22,0,0,1-.43.62,1.83,1.83,0,0,1-.63.42,1.87,1.87,0,0,1-.75.16H154a.16.16,0,0,1-.11-.05.17.17,0,0,1,0-.11v-1.11a.15.15,0,0,1,0-.11A.16.16,0,0,1,154,581Zm-2.36,4h1.25v-1.27H154.2Zm1.82,0h1.26v-1.27H156Zm5.89-2.74a.14.14,0,0,1-.16.16h-.31a1.86,1.86,0,0,1-.75-.15,1.86,1.86,0,0,1-1-1,1.87,1.87,0,0,1-.16-.75v-5.6h1.21v5.57a.55.55,0,0,0,.53.53h.51a.13.13,0,0,1,.11.05.16.16,0,0,1,0,.11Zm1.91-3.34h1.48v-1.14a.38.38,0,0,0-.12-.29.38.38,0,0,0-.3-.13H164a.45.45,0,0,0-.28.1.38.38,0,0,0-.14.26l-.14.78a.33.33,0,0,0,.06.29A.34.34,0,0,0,163.82,579Zm2.69,1.53a2,2,0,0,1-.16.77,1.87,1.87,0,0,1-.43.62,1.79,1.79,0,0,1-.62.42,2,2,0,0,1-.76.16h-2.79a.16.16,0,0,1-.11-.05.19.19,0,0,1,0-.12v-1.11a.14.14,0,0,1,0-.1.13.13,0,0,1,.11-.05h3a.55.55,0,0,0,.53-.53v-.23a1.92,1.92,0,0,1-.66.12H164a1.8,1.8,0,0,1-.76-.17,2,2,0,0,1-.59-.47,1.91,1.91,0,0,1-.33-.67,1.85,1.85,0,0,1,0-.78l.16-.87a1.63,1.63,0,0,1,.21-.56,1.84,1.84,0,0,1,.39-.44,1.51,1.51,0,0,1,.49-.29,1.71,1.71,0,0,1,.59-.11h.6a1.74,1.74,0,0,1,.69.14,1.92,1.92,0,0,1,.57.39,1.93,1.93,0,0,1,.52,1.25Zm-2.63-6.71h1.26V575h-1.26Zm8,8.44a2.57,2.57,0,0,1-.13.83,2.64,2.64,0,0,1-.37.73,2.71,2.71,0,0,1-.57.6,2.67,2.67,0,0,1-.75.39l-1.5.52-.38-1.15,1.55-.52a1.47,1.47,0,0,0,.67-.46,1.13,1.13,0,0,0,.26-.76v-.08a1.39,1.39,0,0,1-.29.1,2.21,2.21,0,0,1-.35,0h-.74a1.72,1.72,0,0,1-.75-.17,2,2,0,0,1-.58-.46,1.9,1.9,0,0,1-.33-.65,1.81,1.81,0,0,1,0-.77l.19-1a1.43,1.43,0,0,1,.21-.55,2.06,2.06,0,0,1,.38-.45,1.6,1.6,0,0,1,.49-.28,1.73,1.73,0,0,1,.6-.11h.61a1.87,1.87,0,0,1,.71.14,2,2,0,0,1,.57.4,1.9,1.9,0,0,1,.38.57,1.65,1.65,0,0,1,.14.7Zm-1.2-1.19v-1.21a.42.42,0,0,0-.13-.3.39.39,0,0,0-.29-.13h-.89a.35.35,0,0,0-.26.1.44.44,0,0,0-.15.25l-.17.88a.34.34,0,0,0,.06.29.38.38,0,0,0,.28.12Zm5.12-2.51v2.06a.42.42,0,0,0,.17.33.6.6,0,0,0,.36.12h.8a.13.13,0,0,1,.15.15v1.12a.14.14,0,0,1-.15.16h-.6a1.46,1.46,0,0,1-.4-.07.56.56,0,0,1-.33-.28v.2a2.3,2.3,0,0,1-.14.79,2.67,2.67,0,0,1-.37.71,2.48,2.48,0,0,1-.58.54,2.37,2.37,0,0,1-.72.38l-1.52.51-.37-1.13,1.58-.51a1.23,1.23,0,0,0,.66-.5,1.27,1.27,0,0,0,.25-.78v-3.8Zm1.62,5.25h1.26V585h-1.26Zm1.83,0h1.26V585h-1.26Zm-.93,1.67h1.26v1.26h-1.26ZM179.7,581a.49.49,0,0,0,.37-.16.54.54,0,0,0,.15-.38v-2.27h1.21v2.27a2,2,0,0,1-.15.77,2.22,2.22,0,0,1-.43.62,1.93,1.93,0,0,1-.63.42,1.87,1.87,0,0,1-.75.16h-2.3a.16.16,0,0,1-.11-.05.17.17,0,0,1,0-.11v-1.11a.15.15,0,0,1,0-.11.16.16,0,0,1,.11-.05Z"/><path class="cls-10" d="M244.09,540.72h-2.18v7.69h-7.62v2.19h7.62v7.69h2.18V550.6h7.62v-2.19h-7.62Z"/><path class="cls-11" d="M226.73,583.59a.85.85,0,0,0,.64-.27.87.87,0,0,0,.29-.64v-.23H225.5V581h4.3a.12.12,0,0,1,.11,0,.13.13,0,0,1,0,.1v1.12a.16.16,0,0,1-.15.17h-1a.15.15,0,0,1,0,.06.37.37,0,0,1,0,.15v.18a2.07,2.07,0,0,1-.18.86,2.38,2.38,0,0,1-.48.69,2.21,2.21,0,0,1-.73.46,2.3,2.3,0,0,1-.88.16h-1.86a2.38,2.38,0,0,1-1-.19,2.49,2.49,0,0,1-.79-.53,2.69,2.69,0,0,1-.53-.78,2.49,2.49,0,0,1-.18-1v-2.89h1.21v2.72a1.19,1.19,0,0,0,.09.47,1.36,1.36,0,0,0,.27.39,1.09,1.09,0,0,0,.38.25,1.28,1.28,0,0,0,.47.1Zm3.7-2.57v-1.1a1.74,1.74,0,0,1,.51-1.26,1.79,1.79,0,0,1,.56-.38,1.87,1.87,0,0,1,.71-.14h.45a1.66,1.66,0,0,1,.58.11,1.63,1.63,0,0,1,.49.29,1.39,1.39,0,0,1,.39.44,2,2,0,0,1,.22.54l.16.85a1.58,1.58,0,0,1,0,.78,1.73,1.73,0,0,1-.34.66,1.92,1.92,0,0,1-.59.46,1.6,1.6,0,0,1-.75.18h-.51a1.86,1.86,0,0,1-.34,0l-.32-.09v.1a1.07,1.07,0,0,0,.09.43.49.49,0,0,0,.39.26l1.28.25L234.5,582a2.9,2.9,0,0,1,.85-.71,2.28,2.28,0,0,1,1.06-.26h.13a.13.13,0,0,1,.1,0,.14.14,0,0,1,.06.11v1.12a.15.15,0,0,1-.16.16h-.32a1.11,1.11,0,0,0-.49.12,1.12,1.12,0,0,0-.41.34l-.14.18c-.07.1-.16.21-.27.34l-.33.43-.32.41-.25.33-.11.15-2.42-.64a1.08,1.08,0,0,1-.44-.22,1.77,1.77,0,0,1-.33-.38,2,2,0,0,1-.21-.49,2.76,2.76,0,0,1-.06-.57h-.64a.14.14,0,0,1-.15-.16v-1.12a.13.13,0,0,1,.15-.15Zm1.2-1.1V581H233a.34.34,0,0,0,.26-.12.37.37,0,0,0,.08-.3l-.15-.74a.38.38,0,0,0-.14-.25.45.45,0,0,0-.27-.1H232a.38.38,0,0,0-.28.12A.37.37,0,0,0,231.63,579.92Zm6.54,2.53h-1.61a.14.14,0,0,1-.11-.05.21.21,0,0,1,0-.12v-1.12a.18.18,0,0,1,.14-.15h1.75a.91.91,0,0,0,.54-.16,1,1,0,0,0,.34-.39,1,1,0,0,0,.11-.51.86.86,0,0,0-.2-.51l-1.88-2.54V576l3.73-1.87.53,1.06-3,1.52,1.61,2a2.27,2.27,0,0,1,.45,1.63,2.21,2.21,0,0,1-.24.78,2.53,2.53,0,0,1-.51.67,2.4,2.4,0,0,1-.72.46A2.3,2.3,0,0,1,238.17,582.45Zm-1.35-7.88,3.46-1.75.37.84-3.45,1.77Zm7.62,7.88h-1.21v-6.67h1.21Zm-2.7-6.94v-.59a.9.9,0,0,1,.32-.76,1,1,0,0,1,.71-.28H245v1H242.9a.21.21,0,0,0-.17.08.22.22,0,0,0-.06.15v.36Zm7.8,2.7h1.27v-1.27h-1.27Zm1.84,0h1.26v-1.27h-1.26Zm-3.26,0v1.91a.88.88,0,0,0,.26.65.92.92,0,0,0,.65.25h4.5a.51.51,0,0,0,.37-.15.51.51,0,0,0,.16-.37v-2h1.2v2a.51.51,0,0,0,.16.37.47.47,0,0,0,.37.16h.33a.13.13,0,0,1,.15.15v1.12a.14.14,0,0,1-.15.16H256a1.71,1.71,0,0,1-.74-.17,2.08,2.08,0,0,1-.59-.48,1.64,1.64,0,0,1-.63.49,1.77,1.77,0,0,1-.73.16h-4.17a2.12,2.12,0,0,1-.87-.18,2.17,2.17,0,0,1-1.19-1.19,2.27,2.27,0,0,1-.17-.86v-2ZM257.6,585h1.26v-1.27H257.6Zm2.8-2.75a.18.18,0,0,1,0,.11.14.14,0,0,1-.11.05h-.83a1.57,1.57,0,0,1-.71-.19,1.1,1.1,0,0,1-.47-.46.84.84,0,0,1-.22.25,3,3,0,0,1-.32.21,1.92,1.92,0,0,1-.36.14,1.57,1.57,0,0,1-.37.05h-.84a.14.14,0,0,1-.15-.16v-1.11a.15.15,0,0,1,0-.11.16.16,0,0,1,.11-.05h.95a.65.65,0,0,0,.38-.13.6.6,0,0,0,.21-.36l.41-2,1.18.21-.33,1.65a.48.48,0,0,0,.1.42.52.52,0,0,0,.4.18h.82a.14.14,0,0,1,.11.05.16.16,0,0,1,0,.11Zm3.43-5.08h-1.26v-1.27h1.26Zm-1.83,0h-1.26v-1.27H262Zm.9-1.67h-1.26v-1.26h1.26Zm-.79,5.48a.49.49,0,0,0,.37-.16.55.55,0,0,0,.16-.38v-2.27h1.2v2.27a2,2,0,0,1-.15.77,2,2,0,0,1-.43.62,1.79,1.79,0,0,1-.62.42,2,2,0,0,1-.76.16h-1.64a.16.16,0,0,1-.11-.05.17.17,0,0,1,0-.11v-1.11a.15.15,0,0,1,0-.11.16.16,0,0,1,.11-.05Z"/><path class="cls-14" d="M328.58,542.91H331v2.19h-2.74l-.56,3.3-1.12.48a18.49,18.49,0,0,1-1.87,7.69l-.3.61h-1.1v4.39h-2.19v-4.39H320l-.32-.65a18.57,18.57,0,0,1-1.88-7.68l-1.1-.45-.54-3.3h-2.75v-2.19h2.38l-.18-1.1.32-.38a8.19,8.19,0,0,1,9.7-2.14,8.19,8.19,0,0,1,2.81,2.14l.34.38Zm-8.61,0-.71-1.42a5.83,5.83,0,0,0-1.36,1l.74,4.39,3.52,1.41,3.53-1.38.73-4.39a5.69,5.69,0,0,0-1.35-1l-.71,1.42Zm3.29,8.78v2.53a16.41,16.41,0,0,0,1-4.47l-2.13.84-2.13-.83a16.65,16.65,0,0,0,1,4.46v-2.53Zm0-5.49a1.1,1.1,0,1,1-1.1-1.1A1.1,1.1,0,0,1,323.26,546.2Z"/><path class="cls-11" d="M297.74,578.21H299v-1.27h-1.27Zm1.84,0h1.26v-1.27h-1.26Zm-3.26,0v1.91a.88.88,0,0,0,.26.65.94.94,0,0,0,.65.25h4.5a.5.5,0,0,0,.37-.15.47.47,0,0,0,.16-.37v-2h1.2v2a.51.51,0,0,0,.16.37.49.49,0,0,0,.37.16h.33a.13.13,0,0,1,.15.15v1.12a.14.14,0,0,1-.15.16h-.12a1.71,1.71,0,0,1-.74-.17,2.08,2.08,0,0,1-.59-.48,1.69,1.69,0,0,1-.62.49,1.86,1.86,0,0,1-.74.16h-4.17a2.12,2.12,0,0,1-.87-.18,2.17,2.17,0,0,1-1.19-1.19,2.27,2.27,0,0,1-.17-.86v-2ZM308,581a.13.13,0,0,1,.1,0,.14.14,0,0,1,.06.11v1.12a.13.13,0,0,1-.06.11.14.14,0,0,1-.1.05h-.49a1.88,1.88,0,0,1-.74-.15,1.79,1.79,0,0,1-.59-.39,2,2,0,0,1-1.35.54h-.48a.14.14,0,0,1-.16-.16v-1.12c0-.1.05-.15.16-.15h.7a.47.47,0,0,0,.37-.16.51.51,0,0,0,.16-.37v-5.57h1.2v5.63a.58.58,0,0,0,.17.34.57.57,0,0,0,.36.13Zm1.4,1.43H308a.14.14,0,0,1-.11-.06.19.19,0,0,1,0-.12v-1.11a.14.14,0,0,1,.05-.1.14.14,0,0,1,.1,0h1.52a.93.93,0,0,0,.54-.16,1,1,0,0,0,.34-.38,1.13,1.13,0,0,0,.11-.52.93.93,0,0,0-.2-.52l-1.88-2.54V576l3.72-1.87.54,1.06-3,1.52,3,3.85a1.26,1.26,0,0,0,.37.32,1.12,1.12,0,0,0,.47.11h.14a.13.13,0,0,1,.15.15v1.12a.17.17,0,0,1,0,.11.16.16,0,0,1-.11.05h-.08a1.93,1.93,0,0,1-.85-.2,1.91,1.91,0,0,1-.65-.58l-.49-.67a2.43,2.43,0,0,1-.35.57,2.73,2.73,0,0,1-.5.46,2.57,2.57,0,0,1-.62.31A2.35,2.35,0,0,1,309.38,582.45Zm4.76,2.58h1.25v-1.27h-1.25Zm1.82,0h1.26v-1.27H316Zm1.93-2.74a.17.17,0,0,1,0,.11.16.16,0,0,1-.11.05h-.83a1.57,1.57,0,0,1-.71-.19,1.1,1.1,0,0,1-.47-.46.84.84,0,0,1-.22.25,3,3,0,0,1-.32.21,1.92,1.92,0,0,1-.36.14,1.57,1.57,0,0,1-.37.05h-.84a.14.14,0,0,1-.15-.16v-1.11a.15.15,0,0,1,0-.11.16.16,0,0,1,.11-.05h.95a.65.65,0,0,0,.38-.13.6.6,0,0,0,.21-.36l.41-2,1.18.21-.33,1.65a.48.48,0,0,0,.1.42.5.5,0,0,0,.4.18h.82a.16.16,0,0,1,.11.05.15.15,0,0,1,0,.11Zm2.83.16a1.87,1.87,0,0,1-.75-.16,1.54,1.54,0,0,1-.59-.49,1.71,1.71,0,0,1-.62.49,1.81,1.81,0,0,1-.73.16h-.29a.14.14,0,0,1-.15-.16v-1.11a.13.13,0,0,1,.05-.11.14.14,0,0,1,.1-.05h.5a.5.5,0,0,0,.38-.17.55.55,0,0,0,.15-.38v-2H320v2a.54.54,0,0,0,.15.38.51.51,0,0,0,.38.16h.32a.65.65,0,0,0,.38-.13.6.6,0,0,0,.21-.36l.4-2,1.19.22-.33,1.64a.45.45,0,0,0,.1.42.49.49,0,0,0,.39.19H324v-2.8h1.21v2.89a1.35,1.35,0,0,1-.11.52,1.26,1.26,0,0,1-.29.43,1.48,1.48,0,0,1-.43.29,1.45,1.45,0,0,1-.51.1h-.69a1.45,1.45,0,0,1-.65-.16,1.33,1.33,0,0,1-.53-.5,1.51,1.51,0,0,1-.58.5A1.66,1.66,0,0,1,320.72,582.45Zm3.74,2.79-.37-1.13,1.58-.51a1.37,1.37,0,0,0,.91-1.28v-3.79h1.21v3.67a2.88,2.88,0,0,1-.13.83,2.67,2.67,0,0,1-.38.73,2.21,2.21,0,0,1-.57.57,2.72,2.72,0,0,1-.73.4Zm6.25-2.79a1.64,1.64,0,0,1-.74-.17,1.73,1.73,0,0,1-.57-.46,1.76,1.76,0,0,1-.34-.65,1.66,1.66,0,0,1,0-.77l.19-1a1.84,1.84,0,0,1,.21-.55,2.38,2.38,0,0,1,.38-.45,1.65,1.65,0,0,1,.5-.28,1.71,1.71,0,0,1,.59-.11h.62a1.86,1.86,0,0,1,.7.14,1.78,1.78,0,0,1,.57.4,1.73,1.73,0,0,1,.38.57,1.66,1.66,0,0,1,.15.7V581h.76c.11,0,.16.05.16.15v1.12a.14.14,0,0,1-.16.16h-.77v0a.52.52,0,0,1,0,.11,2.3,2.3,0,0,1-.56,1.31,2.72,2.72,0,0,1-1.24.84l-1.5.52-.37-1.15,1.54-.52a1.42,1.42,0,0,0,.67-.46,1.14,1.14,0,0,0,.27-.76v-.08a1.5,1.5,0,0,1-.3.1,2.09,2.09,0,0,1-.35,0Zm-.15-1.43h1.55v-1.21a.41.41,0,0,0-.12-.3.42.42,0,0,0-.3-.13h-.89a.35.35,0,0,0-.26.1.48.48,0,0,0-.14.25l-.18.88a.35.35,0,0,0,.07.29A.34.34,0,0,0,330.56,581Zm5.39,0a.49.49,0,0,0,.37-.16.54.54,0,0,0,.15-.38v-2.27h1.21v2.27a2,2,0,0,1-.15.77,2,2,0,0,1-.43.62,1.74,1.74,0,0,1-.63.42,1.87,1.87,0,0,1-.75.16h-1.64a.16.16,0,0,1-.11-.05.17.17,0,0,1,0-.11v-1.11a.15.15,0,0,1,0-.11.16.16,0,0,1,.11-.05Zm-1.36-3.81h1.26v-1.27h-1.26Zm1.83,0h1.26v-1.27h-1.26Zm4.07,5.24a1.64,1.64,0,0,1-.74-.17,1.88,1.88,0,0,1-.58-.46,2.12,2.12,0,0,1-.34-.65,1.81,1.81,0,0,1,0-.77l.19-1a1.84,1.84,0,0,1,.21-.55,2.38,2.38,0,0,1,.38-.45,1.54,1.54,0,0,1,.5-.28,1.67,1.67,0,0,1,.59-.11h.61a1.87,1.87,0,0,1,.71.14,1.78,1.78,0,0,1,.57.4,1.73,1.73,0,0,1,.38.57,1.65,1.65,0,0,1,.14.7V581h.77c.11,0,.16.05.16.15v1.12a.14.14,0,0,1-.16.16h-.78v0a.45.45,0,0,1,0,.11,2.3,2.3,0,0,1-.56,1.31,2.72,2.72,0,0,1-1.24.84l-1.5.52-.38-1.15,1.55-.52a1.47,1.47,0,0,0,.67-.46,1.14,1.14,0,0,0,.27-.76v-.08a1.5,1.5,0,0,1-.3.1,2.09,2.09,0,0,1-.35,0Zm-.15-1.43h1.55v-1.21a.41.41,0,0,0-.12-.3.42.42,0,0,0-.3-.13h-.89a.35.35,0,0,0-.26.1.5.5,0,0,0-.15.25l-.17.88a.32.32,0,0,0,.34.41Zm6,0h1.55v-1.21a.41.41,0,0,0-.42-.42h-.89a.4.4,0,0,0-.26.1.42.42,0,0,0-.14.24l-.18.88a.35.35,0,0,0,.07.29A.34.34,0,0,0,346.35,581Zm-1.56-.49.22-1.13a1.84,1.84,0,0,1,.21-.55,1.62,1.62,0,0,1,.39-.43,1.51,1.51,0,0,1,.49-.29,1.71,1.71,0,0,1,.59-.11h.62a1.82,1.82,0,0,1,.7.14,1.87,1.87,0,0,1,1,1,1.82,1.82,0,0,1,.14.7v1.29a1.35,1.35,0,0,1-.11.52,1.26,1.26,0,0,1-.29.43,1.38,1.38,0,0,1-.41.29,1.5,1.5,0,0,1-.52.1h-1.27a1.52,1.52,0,0,1-.63-.14,1.38,1.38,0,0,1-.54-.49,1.42,1.42,0,0,1-.56.49,1.59,1.59,0,0,1-.66.14h-.26a.14.14,0,0,1-.15-.16v-1.12a.13.13,0,0,1,.15-.15h.35a.57.57,0,0,0,.37-.13A.6.6,0,0,0,344.79,580.53Z"/><path class="cls-11" d="M408.41,540.39l-.55-.11a34.85,34.85,0,0,0-13.5,0l-.54.11-2.51,5.82h-1.09v2.2h1.09v11h2.18v-3.08a33.43,33.43,0,0,0,15.24,0v3.08h2.18v-11H412v-2.2h-1.09Zm.32,10.65-2.61,1.76h-9.91L393.6,551v-2.63l3.26,2.19h8.61l3.26-2.19Z"/><path class="cls-11" d="M391.54,582.21a2.88,2.88,0,0,1-.13.83,2.67,2.67,0,0,1-.38.73,2.32,2.32,0,0,1-.57.6,2.75,2.75,0,0,1-.74.39l-1.51.52-.37-1.15,1.55-.52a1.52,1.52,0,0,0,.67-.46,1.19,1.19,0,0,0,.26-.76v-.08a1.5,1.5,0,0,1-.3.1,2,2,0,0,1-.35,0h-.73a1.72,1.72,0,0,1-.75-.17,1.88,1.88,0,0,1-.58-.46,1.61,1.61,0,0,1-.33-.65,1.54,1.54,0,0,1,0-.77l.18-1a1.84,1.84,0,0,1,.21-.55,2.11,2.11,0,0,1,.39-.45,1.49,1.49,0,0,1,.49-.28,1.71,1.71,0,0,1,.59-.11h.62a1.82,1.82,0,0,1,.7.14,1.78,1.78,0,0,1,.57.4,1.92,1.92,0,0,1,.39.57,1.82,1.82,0,0,1,.14.7ZM390.33,581v-1.21a.41.41,0,0,0-.12-.3.42.42,0,0,0-.3-.13H389a.35.35,0,0,0-.26.1.48.48,0,0,0-.14.25l-.18.88a.35.35,0,0,0,.07.29.34.34,0,0,0,.27.12Zm1.8,4.22-.37-1.13,1.58-.51a1.28,1.28,0,0,0,.66-.5,1.34,1.34,0,0,0,.25-.78v-3.79h1.21v3.67a2.88,2.88,0,0,1-.13.83,2.67,2.67,0,0,1-.38.73,2.21,2.21,0,0,1-.57.57,2.72,2.72,0,0,1-.73.4Zm6.1-2.79a1.47,1.47,0,0,1-.56-.11,1.52,1.52,0,0,1-.46-.32,1.38,1.38,0,0,1-.43-1v-1.42h1v1.21a.25.25,0,0,0,.08.18.23.23,0,0,0,.17.07h1.82a.71.71,0,0,0,.35-.1.75.75,0,0,0,.25-.25.6.6,0,0,0,.1-.33.62.62,0,0,0-.09-.37l-1.36-2.42,1-.67,1.46,2.59a1.72,1.72,0,0,1,.25,1,2,2,0,0,1-.27,1,2.16,2.16,0,0,1-.7.71,2,2,0,0,1-1,.28Zm6.45,0a1.66,1.66,0,0,1-1.32-.63,1.92,1.92,0,0,1-.34-.65,1.66,1.66,0,0,1,0-.77l.18-1a1.84,1.84,0,0,1,.21-.55,2.11,2.11,0,0,1,.39-.45,1.49,1.49,0,0,1,.49-.28,1.71,1.71,0,0,1,.59-.11h.62a1.82,1.82,0,0,1,.7.14,1.78,1.78,0,0,1,.57.4,1.92,1.92,0,0,1,.39.57,1.82,1.82,0,0,1,.14.7V581h.77a.13.13,0,0,1,.15.15v1.12a.14.14,0,0,1-.15.16h-.78v0s0,.07,0,.11a2.36,2.36,0,0,1-.56,1.31,2.83,2.83,0,0,1-1.24.84l-1.51.52-.37-1.15,1.55-.52a1.47,1.47,0,0,0,.67-.46,1.19,1.19,0,0,0,.26-.76v-.08a1.5,1.5,0,0,1-.3.1,2,2,0,0,1-.35,0Zm-.16-1.43h1.55v-1.21a.41.41,0,0,0-.12-.3.42.42,0,0,0-.3-.13h-.88a.36.36,0,0,0-.27.1.48.48,0,0,0-.14.25l-.18.88a.35.35,0,0,0,.07.29A.34.34,0,0,0,404.52,581Zm5.19-4.32H411v-1.26h-1.27Zm-1.82,4.48a.21.21,0,0,1,.05-.11.16.16,0,0,1,.1-.05h2a2.85,2.85,0,0,0,.91-.15,1.79,1.79,0,0,0,.77-.49l.64-.68.09-.1.06,0-2.31-.69a.19.19,0,0,0-.19,0,.28.28,0,0,0-.12.14l-.42,1.1-1.06-.29.29-1a1.62,1.62,0,0,1,.31-.58,1.55,1.55,0,0,1,.48-.37,1.49,1.49,0,0,1,.58-.17,1.45,1.45,0,0,1,.59.06l4.38,1.3-.37,1.14-.51-.16a.86.86,0,0,0-.43,0,1,1,0,0,0-.32.22l-1.26,1.25a2.91,2.91,0,0,1-1.1.7,4.06,4.06,0,0,1-1.29.22H408a.14.14,0,0,1-.15-.16Z"/></g></svg>