<svg id="Layer_3" data-name="Layer 3" xmlns="http://www.w3.org/2000/svg" viewBox="0 0 486 648"><defs><style>.cls-1{fill:#e5e6e4;}.cls-2{fill:#fff;}.cls-3{fill:none;stroke:#ebebeb;stroke-miterlimit:10;stroke-width:0.83px;}.cls-4{fill:#c4c4c4;}.cls-5{fill:#ebebeb;}</style></defs><rect class="cls-1" width="486" height="648"/><path class="cls-2" d="M287,87.09c0,11.6-1.41,17.63-2.49,20.54a3.42,3.42,0,0,0-.5.83s-.29.62-.7,1.56h0c-.88,2-2.27,5.66-2.27,7.86,0,1.93-.67,9.63-1.2,15.54-.32,3.54-.6,6.45-.66,7.07v.13s-4.88,18.18-8.7,23.81-4.3,7-4.3,7l-.83,7.37,6.92,5.06s3.19,14.24-13.38,19.88c-9.94,3.38-22.23,4.69-33.28,2.41-7.37-1.53-14.2-4.67-19.4-9.87-13-13-4.47-17.23-4.47-17.23a10.11,10.11,0,0,0,5.46-10.43c-.57-4.22-1.47-10.33-2.15-16.71,0,0,0,0,0-.06a143.76,143.76,0,0,1-.9-14.42V112.62c0-2.54-2.37-6.89-2.37-6.89v0c-.21-.7-5.14-17.58,0-30.87,5.26-13.59,18.36-31.65,43.37-30.32S287,68.37,287,87.09Z"/><path class="cls-2" d="M287,110.14v9.25c0,4.85-3.6,10.94-4.48,15.54s-3.35,5.71-3.35,5.71v-.13c.16-1.66,1.86-19.52,1.86-22.61,0-2.2,1.39-5.81,2.27-7.86h0c.41-.94.7-1.56.7-1.56a3.42,3.42,0,0,1,.5-.83C285.66,106.3,287,108.41,287,110.14Z"/><path class="cls-2" d="M204.14,112.62v24.79s-2.89-2.64-4.85-4.6-6.09-20.5-3.91-28.82c2.12-8.11,6.18,1.23,6.39,1.72v0S204.14,110.08,204.14,112.62Z"/><path class="cls-3" d="M284.52,107.63a8.58,8.58,0,0,1-1.2,2.39c.41-.94.7-1.56.7-1.56A3.42,3.42,0,0,1,284.52,107.63Z"/><path class="cls-4" d="M225.61,206.13c-7.37-1.53-14.2-4.67-19.4-9.87-13-13-4.47-17.23-4.47-17.23a10.11,10.11,0,0,0,5.46-10.43c-.57-4.22-1.47-10.33-2.15-16.71.95,7.48,11.69,24.1,16.07,28.47S225.61,206.13,225.61,206.13Z"/><path d="M287,87.09c0,11.6-1.41,17.63-2.49,20.54a3.42,3.42,0,0,0-.5.83s-.29.62-.7,1.56h0c-.88,2-2.27,5.66-2.27,7.86,0,1.93-.67,9.63-1.2,15.54l-2.74-20.83s3.85-4.38,2.07-10c-3.56-11.1-16-9.1-25.26-4.3S223.1,82.78,217,90.4,213.83,110,213.83,110l-6.3-1.2-3.39,18.36V112.62c0-2.54-2.37-6.89-2.37-6.89v0c-.21-.7-5.14-17.58,0-30.87,5.26-13.59,18.36-31.65,43.37-30.32S287,68.37,287,87.09Z"/><path class="cls-2" d="M360.44,380.31c-3.61,6.22-10.56,13.79-15.28,13.79s-4.1-3.6-9.94-5.21-17.46-5.16-23.61-11.31c-.56-.55-1.24-1.26-2-2.07l0,0c-1.2-1.24-2.63-2.75-4.19-4.42-8.62-9.2-21.23-23.06-21.23-23.06s-7.26,4.37-12.79,5.29h0a9.65,9.65,0,0,1-1.81.18h-.05c-4.36,0-10.18-1.9-12.51-2.73l-1-.38s-29.32,12.8-40.75,12.8-14.29-5.59-14.29-5.59S162,387.27,151.83,389.14A110,110,0,0,1,132.2,391c-1.74,0-3.6,4.47-9.69,4.47s-17.27-10.31-17.27-19.38V317.32s14.29,4.22,23.36,5.59S151,324.28,151,324.28a0,0,0,0,0,0,0c-.24.4-4,7-4.59,12.15-.61,5.34-.61,6-.61,6a36.22,36.22,0,0,0,23.1-4.9c11.18-7,25-11.81,25-11.81s18.27-16.28,21.13-16.9,11.18.87,11.18.87l-1.62,11.31h0l-2.28.37L221,323.91a19.34,19.34,0,0,0,2.93,1.22,16.22,16.22,0,0,0,2.16.52,35,35,0,0,0,4.53.37s.25-4.54,5.66-4.54,14.84-.18,17.89-.18,8.67-3.28,8.67-3.28L264,305.58a83.92,83.92,0,0,1,30,10.13,220.35,220.35,0,0,1,25,16.89V329s15.16-3.23,22.12-5.46,19.38-5.1,19.38-5.1S364,374.11,360.44,380.31Z"/><path d="M264,304.82l-.06.76L262.82,318s-5.63,3.28-8.67,3.28-12.49.18-17.89.18S230.6,326,230.6,326a35,35,0,0,1-4.53-.37,16.22,16.22,0,0,1-2.16-.52l.59-4.08h0l1.62-11.31.92-6.16a4,4,0,0,1,3.95-3.37l29.12.35A4,4,0,0,1,264,304.82Z"/><polygon class="cls-3" points="224.51 321.05 224.5 321.05 226.13 309.74 224.51 321.05"/><path class="cls-4" d="M352.83,340.69a67.41,67.41,0,0,0-10.2-3.77c-4.22-1-11.35,1-14.16,1-5.73,0-9.53-5.31-9.53-5.31V329s10.18-2.17,17.69-4.18c0,0-4.68,8.86.87,9.61C342.77,335.13,352,340.2,352.83,340.69Z"/><path class="cls-4" d="M151,324.31c-.24.4-4,7-4.59,12.15-.61,5.34-.61,6-.61,6s-9.88-3-15.85-1.43a103,103,0,0,0-14.07,5.57c.63-.39,11.94-5.18,17.92-8.49C140.61,334.34,150.47,324.94,151,324.31Z"/><path class="cls-4" d="M210.21,335.91c1.65.25,3.31.48,5,.65s3.31.36,5,.48c3.32.25,6.65.39,10,.35s6.64-.28,10-.58,6.63-.78,9.94-1.31a75,75,0,0,1-9.84,2.14,73.46,73.46,0,0,1-10.05.91,70.91,70.91,0,0,1-10.09-.51,63.94,63.94,0,0,1-9.88-2Z"/><path class="cls-4" d="M213.42,348.86l5.18,0c1.72,0,3.45,0,5.17,0l5.17,0c1.73,0,3.45,0,5.12-.21a64.93,64.93,0,0,0,10-2.17c3.3-1,6.57-2.06,9.83-3.23a81.08,81.08,0,0,1-9.58,4,48.72,48.72,0,0,1-10.14,2.53A44.11,44.11,0,0,1,229,350c-1.73,0-3.46,0-5.19-.08A99.6,99.6,0,0,1,213.4,349Z"/><path class="cls-4" d="M224.7,319.68s-10.19-2.73-13.29,1.37c7.33,1.68,9.57,2.86,9.57,2.86l1.24-2.49,2.29-.37Z"/><path class="cls-4" d="M262.82,318c1.95-1.32,3.44-3.18,7-4.36a18,18,0,0,1,6.71-.87s-5.46-2.18-9.07-1.24-4.17,1.57-4.17,1.57Z"/><path class="cls-4" d="M273.57,344a2.55,2.55,0,0,0-1.34,3.26,4.09,4.09,0,0,1-.81,4.16l-1.88,2.07h-.05c-4.36,0-10.18-1.9-12.51-2.73l-1-.38s9.94-5.46,10.25-8.88-3.38-2.74-3.38-2.74c7.57-3.78,14.75-2,15.37,1a1.84,1.84,0,0,1,0,.33C278.22,341.7,275.74,343.09,273.57,344Z"/><path class="cls-5" d="M264.35,330.76l2.7-.87a16.76,16.76,0,0,0,2.53-1c.78-.42,1.55-1,2.32-1.47s1.55-1.07,2.38-1.58a12.73,12.73,0,0,1-4.24,3.92,9.9,9.9,0,0,1-2.8.92,11.57,11.57,0,0,1-2.88.17Z"/><path class="cls-4" d="M258.23,323.91c-1.74,3,0,8.94,0,8.94h-6.55a4.27,4.27,0,0,0-1.65-4.47c-2.4-1.61-12.59-1-12.59-1s11.18.06,14.53-1.06S258.23,323.91,258.23,323.91Z"/><path class="cls-4" d="M217.37,358.32a6.74,6.74,0,0,1,2.32-1.45,15.1,15.1,0,0,1,2.64-.78,27.59,27.59,0,0,1,5.4-.38q2.63-.09,5.25-.39c1.75-.21,3.5-.48,5.26-.85a21.63,21.63,0,0,1-5.09,1.83,29.4,29.4,0,0,1-5.38.74c-.92,0-1.81,0-2.67,0s-1.75,0-2.61.14A16.29,16.29,0,0,0,217.37,358.32Z"/><path class="cls-4" d="M305.38,371.07c-8.62-9.2-21.23-23.06-21.23-23.06L296,340.69S295.74,358.68,305.38,371.07Z"/></svg>