<svg xmlns="http://www.w3.org/2000/svg" viewBox="0 0 1152 648"><defs><style>.cls-1{fill:#1453b8;}.cls-2{fill:#e3ded6;}.cls-3{fill:#bef434;}.cls-4{fill:#6f6e6e;}.cls-5{fill:none;stroke:#7e746e;stroke-miterlimit:10;stroke-width:2px;}.cls-6{fill:#fff;}.cls-7{fill:#e9dbca;}</style></defs><g id="Layer_1" data-name="Layer 1"><rect class="cls-1" width="1152" height="648"/><polygon class="cls-2" points="0 141.22 228.23 98.37 1152 260.8 1152 648 0 648 0 141.22"/><polygon class="cls-3" points="909.62 347.88 629.9 285.14 263.55 421.68 560.19 522.56 909.62 347.88"/><polygon points="560.19 522.56 263.55 421.68 263.55 428.12 560.63 529.15 911.27 354.69 909.62 347.88 560.19 522.56"/><path class="cls-4" d="M813.16,341.88a3.61,3.61,0,0,1-.73-.07l-16.61-3.55a3.49,3.49,0,0,1,1.46-6.82l15.29,3.27,10.6-6.16L694.37,301l-10.59,6.16,6.14,1.31a3.49,3.49,0,0,1-1.45,6.82l-15-3.2a3.48,3.48,0,0,1-1-6.42L692,294.33a3.44,3.44,0,0,1,2.47-.4l139,29.69a3.48,3.48,0,0,1,1,6.42l-19.57,11.37A3.51,3.51,0,0,1,813.16,341.88Z"/><path class="cls-5" d="M689.19,311.91l22.69,4.85A22,22,0,0,0,725,315.42a19.15,19.15,0,0,1,11.16-1.15,32.92,32.92,0,0,1,15.93,8,22.19,22.19,0,0,0,10.17,5.29l50.88,10.87"/><path class="cls-2" d="M596.05,417.1c-5.18-14.85-15.93-8.83-20.72-18.8S573.8,385.06,568,377s-19-27-24.94-34.72-22-6.43-28.39,0-17,33.84-17,33.84l-11.42,15.72S459.65,353.22,437,360.32a26.6,26.6,0,0,0-3.53,1.36c-13.13,6-19,20.39-19.87,39.69a163.81,163.81,0,0,0,2.1,31.27c1.13,7.41,2.17,13.76,3.2,19.35.13.69.25,1.36.38,2,.07.32.13.65.19,1,.13.66.25,1.3.38,1.93v0c.16.78.31,1.56.48,2.31.35,1.67.7,3.25,1.05,4.78.13.55.25,1.08.39,1.6.73,3,1.47,5.68,2.27,8.25.06.23.14.46.22.69.36,1.15.74,2.28,1.13,3.37.45,1.31.94,2.57,1.45,3.83.76,1.92,1.59,3.81,2.48,5.7l.56,1.16c.5,1.05,1,2.1,1.59,3.17l.83,1.57c.85,1.6,1.76,3.24,2.74,4.94,9.95,17.42-2.29,30.46-3.25,31.46,1.07-.35,36.87-11.64,62.67,14.15,26.18,26.19,36,55.25,36,55.25s11.66-12.66,12.67-20.43a42.48,42.48,0,0,0,0-12.67s27.48-14.31,33.09-34.31,9.69-37.91,11.42-51.92,8.44-12.27,8.44-23.4-2.69-12.47-2.69-17.27S599.27,426.34,596.05,417.1Z"/><path class="cls-4" d="M589,440.12s-11.13,2.11-22.45,17.27-21.1,35.49-21.1,35.49Z"/><path class="cls-4" d="M584.82,482.71a60.87,60.87,0,0,1-5,18.18c-4.17,8.78-12.61,19-12.61,19Z"/><path class="cls-4" d="M543.1,566.06c-.58-8-3.31-18.41-12.52-34.38s-10.65-17.41-10.65-17.41a93,93,0,0,1,20.58,25.9A60,60,0,0,1,546.69,564"/><path class="cls-4" d="M459.65,492.88c-5.3,19.7-26.53,35.89-27.85,36.88,1-1,13.2-14,3.25-31.46-1-1.7-1.89-3.34-2.74-4.94l-.83-1.57c-.56-1.07-1.09-2.12-1.59-3.17l-.56-1.16c-.89-1.89-1.72-3.78-2.48-5.7-.51-1.26-1-2.53-1.45-3.83-.39-1.09-.77-2.22-1.13-3.37-.08-.23-.15-.46-.22-.69-.8-2.57-1.54-5.28-2.27-8.25-.13-.52-.26-1.06-.39-1.6-.35-1.53-.7-3.11-1.05-4.78-.16-.75-.32-1.53-.48-2.31v0c-.12-.64-.25-1.27-.38-1.93-.06-.32-.12-.65-.19-1-.12-.66-.25-1.34-.37-2h0c-1-5.59-2.07-11.94-3.2-19.35a163.81,163.81,0,0,1-2.1-31.27c.86-19.3,6.74-33.72,19.87-39.69-6.15,3.81,0,18.59,0,18.59s-11.92,2.93-14.12,21.2C414.75,439.74,465.11,472.54,459.65,492.88Z"/><path d="M511.54,356.31l-25.21,35.53h0L511,384.55a22,22,0,0,0,10.74-7.1l5.46-6.61Z"/><path d="M530.82,362.81a10.62,10.62,0,0,1-1.23,5,10.74,10.74,0,1,1,1.23-5Z"/><path class="cls-2" d="M525.05,367.39c.55-.6,6-9.45,6-9.45l-8.91-6.55-6.33,6.19a5.75,5.75,0,0,0-.79.77l0,0h0a6.76,6.76,0,0,0,10.08,9Z"/><path d="M531.94,354.9a5.54,5.54,0,1,1-5.54-5.54A5.55,5.55,0,0,1,531.94,354.9Z"/><path class="cls-1" d="M530.47,599.11s-9.79-29.05-36-55.25c-25.8-25.79-61.63-14.45-62.7-14.1,0,0-50.89,49.74-70.25,63.31-6.54,4.59-16.4,8.73-30.59-9.3s-64.86-69.1-78.28-82.52S179,444.11,164.44,420.7,0,200.28,0,200.28V648H547.31C544.1,630.35,530.47,599.11,530.47,599.11Z"/><path class="cls-2" d="M672.45,79c1.31-5.58,6.11-9.74,6.11-22.86s-6.23-32.71-35.32-35.31S600.91,26,595.06,35.19s-1.42,12.86-8.31,19.74S556.11,74.41,552,90.51s-4.29,42.46-2.08,54.92,13.25,11.82,13.25,11.82.37,11.91,11.29,14.8c9.24,2.44,13-1.82,13-1.82h0c.15.42,5.28,11.21,27.65,11.85,0,0-3,28.53-2.46,37.74a12,12,0,0,0,6.61,10.11,8.52,8.52,0,0,0,3.61.93c9.63.1,12.42-10.43,12.42-10.43s10.21,7.27,13.06-3.29c.22-.78.53-2,.93-3.55.33-1.29.71-2.83,1.15-4.57,6.17-24.71,22.24-91.55,23.38-102.55C675.05,93.75,671.15,84.53,672.45,79Z"/><polygon class="cls-4" points="630.58 310.21 631.42 375.65 634.54 381.75 638.04 375.65 640.38 310.21 630.58 310.21"/><path class="cls-4" d="M626.53,115.19c-.2.71-3.24,19.5-7,40.49-2.61,14.39-4.42,26.41-4.42,26.41-23.21,4-27.5-11.43-27.65-11.85.67,2.24,18.73,17.69,24.66-4.48C618.56,141.55,626.25,115.64,626.53,115.19Z"/><path class="cls-4" d="M566.63,110.37s4.06,1,3.28,6-6.8,36.75-6.8,36.75a55.39,55.39,0,0,1-.44-17Z"/><path d="M660.53,256.7v18.44c0,10.72-9.15,25.81-13.47,32.1a6.2,6.2,0,0,1-5.28,3h-11.2a6.84,6.84,0,0,1-5.61-2.93c-3.86-5.45-11.47-17.66-11.47-28.89V256.93c0-9.09,5.07-7,9.87-15.19a26.4,26.4,0,0,1,2-3,16.07,16.07,0,0,0,8,3.63,12.49,12.49,0,0,1,2.27-2.79h-.21a12.85,12.85,0,0,1-8.12-3c3.35-3,6.62-2.87,10.15-2.87a21.31,21.31,0,0,1,7.84,1.22,10.73,10.73,0,0,1,2.61,1.46c3.57,2.71,3.9,6.75,7,8.48a12,12,0,0,1,5.41,7c.06.18-.5.2-.46.38a15.8,15.8,0,0,1,.63,3.75C660.52,256.23,660.53,256.47,660.53,256.7Z"/><path class="cls-2" d="M661.25,256.84v18.44c0,10.12-8.42,24-13,30.83a3.83,3.83,0,0,1-6.09.34c-4.92-5.76-13.68-17.11-13.68-28.06V257.92c0-9.09,7-14.71,19-13.81,6.08.46,11.09,2.58,13,7.76,0,.18.11.34.16.52a14,14,0,0,1,.63,3.75C661.24,256.37,661.25,256.61,661.25,256.84Z"/><path class="cls-6" d="M650.38,209a18.83,18.83,0,0,0-9.55-8.62l-.38-.13c-.25,1-.5,1.91-.74,2.84l.33.13c4.13,1.64,7.49,5.45,9.19,10.35a22.45,22.45,0,0,1,1.23,7.38,20.66,20.66,0,0,1-5.1,14A14.8,14.8,0,0,1,641.5,238a9.94,9.94,0,0,1,3.3,1.36,18.82,18.82,0,0,0,3.17-3A23.8,23.8,0,0,0,653.39,221,24.63,24.63,0,0,0,650.38,209Zm-27.56,21.84a9.15,9.15,0,0,1-3.61-.93,21.09,21.09,0,0,0,6.18,8.8,16,16,0,0,1,2-2.14A17.33,17.33,0,0,1,622.82,230.87Z"/><path d="M635.7,239.58a12.49,12.49,0,0,0-2.27,2.79,16.07,16.07,0,0,1-8-3.63,16,16,0,0,1,2-2.14,12.85,12.85,0,0,0,8.12,3Z"/><path class="cls-6" d="M644.8,239.37a15.62,15.62,0,0,1-9.31,3.15,14,14,0,0,1-2.06-.15,12.49,12.49,0,0,1,2.27-2.79,12.43,12.43,0,0,0,5.8-1.57A9.94,9.94,0,0,1,644.8,239.37Z"/><path class="cls-7" d="M641.5,238a12.43,12.43,0,0,1-5.8,1.57,6.26,6.26,0,0,1,4.18-1.74A7.88,7.88,0,0,1,641.5,238Z"/><path class="cls-7" d="M648.32,242.47a48,48,0,0,0-7.94,0,50.76,50.76,0,0,0-7.93,1.8,14.14,14.14,0,0,1,1-1.9,14,14,0,0,0,2.06.15,15.62,15.62,0,0,0,9.31-3.15A14.46,14.46,0,0,1,648.32,242.47Z"/><path class="cls-4" d="M593.25,112.58s-5.42,22.29-8.14,40.52c-1.64,11-4.81,17.27-11.14,15.44s-10.84-11.29-10.84-11.29.37,11.91,11.29,14.8c9.24,2.44,13-1.82,13-1.82Z"/><path class="cls-4" d="M640.51,203.45l22-77.88s-5,1.46-6.42-6.84c0,0-16.17,83.46-16.41,84.39-2.42,9.39-4.16,14.72-4.16,14.72h0c-2.2,5.7-7.65,10.5-14.13,10.5a15.34,15.34,0,0,1-5.8-1.14,11.61,11.61,0,0,0,3.59,2.74,8.52,8.52,0,0,0,3.61.93c9.63.1,13-10.44,13-10.44s2.25-7.06,2.85-9.45c1-4.17,6.12-5.59,10.56,2.62h0C647.53,208.71,644.61,205.09,640.51,203.45Z"/></g></svg>