<svg xmlns="http://www.w3.org/2000/svg" xmlns:xlink="http://www.w3.org/1999/xlink" viewBox="0 0 486 648"><defs><style>.cls-1{fill:#c4c4c4;}.cls-2{clip-path:url(#clip-path);}.cls-3{fill:#d8d8d8;}.cls-4{fill:none;stroke:#fff;stroke-miterlimit:10;stroke-width:0.98px;}.cls-5{fill:#fff;}.cls-6{fill:#9a9a99;}.cls-7{fill:#ce4a4b;}.cls-8{fill:#6f6e6e;}</style><clipPath id="clip-path"><rect class="cls-1" x="1.65" width="483.38" height="648"/></clipPath></defs><g id="Layer_1" data-name="Layer 1"><rect class="cls-1" x="1.65" width="483.38" height="648"/><g class="cls-2"><rect class="cls-3" x="1.65" width="483.38" height="648"/><path class="cls-4" d="M238.07,432.68c.93,2.4.7,4.74-.52,5.21s-3-1.1-3.89-3.51-.69-4.74.53-5.21S237.14,430.27,238.07,432.68Z"/><path class="cls-4" d="M238.07,432.68c.93,2.4.7,4.74-.52,5.21s-3-1.1-3.89-3.51-.69-4.74.53-5.21S237.14,430.27,238.07,432.68Z"/><path class="cls-4" d="M136.72,415.47V418l-1.95,2.9a8.62,8.62,0,0,1,.35-2.93A12.69,12.69,0,0,1,136.72,415.47Z"/><path class="cls-4" d="M136.72,415.47V418l-1.95,2.9a8.62,8.62,0,0,1,.35-2.93A12.69,12.69,0,0,1,136.72,415.47Z"/><polygon class="cls-5" points="255.41 440.72 248.5 448.91 211.82 428.24 219.32 421.42 255.41 440.72"/><path class="cls-4" d="M136.72,415.47V418l-1.95,2.9a8.62,8.62,0,0,1,.35-2.93A12.69,12.69,0,0,1,136.72,415.47Z"/><polygon class="cls-1" points="1.84 629.81 8.04 633.56 1.92 639.36 1.84 629.81"/><polygon class="cls-1" points="66.14 578.55 18.36 623.79 1.71 613.97 1.71 613.97 1.11 541.17 66.14 578.55"/><path class="cls-1" d="M400.21,157.36l-6.81,6L468,196c-7.7,7.49-17.61,17.13-29,28.19l-76.38-33.67-6.49,5.8,76.74,33.82c-9.63,9.35-20.14,19.54-31.15,30.2l-78.12-35.23-6.91,6.11L394.93,267c-10.78,10.43-21.95,21.22-33.16,32l-79.61-37.16-6.92,6.12,79.4,37.92c-11.62,11.18-23.2,22.31-34.36,33l-81-39L232,306.18l81,39.58c-13.21,12.61-25.67,24.47-36.71,34.87l-82.54-41.07-7.49,6.82,82.12,41.7c-22.14,20.76-36.95,34.12-37.7,33.4-3.13-3-8.78-4.39-8.78-4.39s-2.78-4.44-11.21-11.42-8.87-6.74-19.28-12.88-18.07-7.13-18.07-7.13l-7.78-.5s-5.68,0-16.35,7.73C142.16,398,136.6,408.3,136.6,408.3s9.57,20.72,14,27.23c7,10.36,23.45,28.3,31.47,33.22l-1.38,1.31L97.23,425l-8.13,7.51L172.33,478l-10.48,9.95-31.91,30.21L45.47,471.27l-9,8,84.39,47.51-45,42.65L1,526.27.56,473.38,485.19,52.29l.15,126.87L474.22,190Z"/><path class="cls-5" d="M202.41,482.11c3.89,2.13,7.85,4.29,11.46,6.22L49.17,648.91H30.09Z"/><path class="cls-5" d="M502.5,206.9,250.28,452.82c-5.36-3-10-5.59-10-5.59s-6.64,10.61-12.39,15.08-12.33,8.74-14.59,9.76l-.94.42,273.75-265Z"/><path class="cls-3" d="M439,224.2l-6.13,6-76.74-33.82,6.49-5.8Z"/><path class="cls-5" d="M460.65,233.73l-7.27,5.45-20.47-9,6.13-6Z"/><path class="cls-3" d="M401.76,260.35,394.93,267l-78.2-35.73,6.91-6.11Z"/><path class="cls-5" d="M423.39,270.11l-6.13,7.05L394.93,267l6.83-6.61Z"/><path class="cls-3" d="M361.77,299l-7.13,6.88-79.4-37.92,6.92-6.12Z"/><path class="cls-5" d="M383.36,309.06l-6.76,7.28-22-10.48,7.13-6.88Z"/><path class="cls-3" d="M320.28,338.85l-7.21,6.91-81-39.58,7.19-6.36Z"/><path class="cls-5" d="M342.78,349.69,336,357l-22.94-11.2,7.21-6.91Z"/><path class="cls-3" d="M276.36,380.63l-7.91,7.45-82.12-41.7,7.49-6.82Z"/><path class="cls-5" d="M299.76,392.28l-6.91,8.19-24.4-12.39,7.91-7.45Z"/><polygon class="cls-3" points="180.68 470.06 172.33 477.98 89.1 432.48 97.23 424.97 180.68 470.06"/><polygon class="cls-5" points="206.93 484.24 199.41 492.78 172.33 477.98 180.68 470.06 206.93 484.24"/><polygon class="cls-3" points="129.94 518.14 120.85 526.75 36.46 479.24 45.47 471.27 129.94 518.14"/><polygon class="cls-5" points="153.36 531.13 145.34 540.53 120.85 526.75 129.94 518.14 153.36 531.13"/><polygon class="cls-3" points="75.8 569.4 66.14 578.55 1.11 541.17 0.99 526.27 75.8 569.4"/><polygon class="cls-5" points="108.53 588.28 99.15 597.52 66.14 578.55 75.8 569.4 108.53 588.28"/><polygon class="cls-3" points="18.36 623.79 8.04 633.56 1.84 629.81 1.84 629.81 1.71 613.97 18.36 623.79"/><polygon class="cls-5" points="46.74 640.52 37.25 651.23 8.04 633.56 18.36 623.79 46.74 640.52"/><path class="cls-3" d="M474.22,190,468,196,393.4,163.39l6.81-6Z"/><path class="cls-5" d="M498,200.48l-7.27,5.46L468,196l6.18-6Z"/><polygon class="cls-3" points="542.84 165.92 535.57 171.38 434.65 126.88 441.18 121.1 542.84 165.92"/><polygon class="cls-3" points="578.58 135 571.31 140.45 470.09 95.43 476.69 89.68 578.58 135"/><polygon class="cls-6" points="1.31 472.72 1.31 401.83 485.04 0 485.19 52.28 1.31 472.72"/><path class="cls-3" d="M231.36,421.49c4.09,4.14,8.48,8.23,10,14.45s1.16,10.66-9.44,22.79c-9.69,11.07-20.1,14.55-20.1,14.55l2.73-55.48Z"/><path class="cls-3" d="M250.28,452.82l-36.41,35.51c-3.61-1.93-7.57-4.09-11.46-6.22l9.94-9.62.94-.42c2.26-1,8.83-5.29,14.59-9.76s12.39-15.08,12.39-15.08S244.92,449.78,250.28,452.82Z"/><path class="cls-1" d="M267.48,472.85c-1.14,1.89,2.2,5.53-5.38,13.94s-13.78,6.14-17.41,8.19-9.7,3.71-18.78-.46c-2.45-1.12-6.88-3.43-12-6.19l36.41-35.51c5.23,3,11.14,6.41,14.1,8.43C270.36,465.34,268.61,471,267.48,472.85Z"/><polygon class="cls-5" points="1.31 401.83 1.31 387.51 468.63 0 485.04 0 1.31 401.83"/><path d="M136.72,415.47V418l-1.95,2.9a8.62,8.62,0,0,1,.35-2.93A12.69,12.69,0,0,1,136.72,415.47Z"/><path d="M111.64,422.52l2-1.55s-2,8.56,5.45,12.58,10.34-.72,10.34-.72l1.36-1.82s-3.14-8.46-9.39-12.05C115.51,415.59,109.52,415.36,111.64,422.52Z"/><path class="cls-5" d="M113.27,407.14c-1.08,1.73-2.57,2.73-3.34,2.26s-.51-2.27.57-4,2.57-2.73,3.34-2.25S114.35,405.42,113.27,407.14Z"/><path class="cls-5" d="M141.31,381.7a7.3,7.3,0,0,1-2.68.37,7.74,7.74,0,0,1,2.56-.85,7.3,7.3,0,0,1,2.68-.37A7.74,7.74,0,0,1,141.31,381.7Z"/><path class="cls-1" d="M180.52,463.55a2.94,2.94,0,0,1-2.55-.29,56.73,56.73,0,0,1-9.09-5.71c-4.58,2.11,10.94,10.93,10.94,10.93l9,4.44,1.42-6.51L183.1,461Z"/><path d="M203.23,471.48s-4.54,3.6-8.14,3.11a17.13,17.13,0,0,1-5.66-1.93l-.05,0c-6.41-3.58-6.48-11-6.48-11l-2.38,1.88a27.55,27.55,0,0,1,.16-5.18c.35-2.52,3.48-5.36,11.76-1S203.23,471.48,203.23,471.48Z"/><path class="cls-7" d="M215.69,440a.44.44,0,0,1-.38-.2.45.45,0,0,1,.12-.64s1.64-1.12,3.39-2.6a19.27,19.27,0,0,0,2.68-2.75.45.45,0,0,1,.65-.09.46.46,0,0,1,.09.64,20.48,20.48,0,0,1-2.83,2.9c-1.79,1.52-3.45,2.65-3.47,2.66A.49.49,0,0,1,215.69,440Z"/><polygon class="cls-5" points="484.84 626.17 489.63 626.17 484.84 611.82 418.45 576.96 454.75 535.48 484.69 550.58 484.69 537.45 462.58 526.53 484.69 501.27 484.69 480.65 336.88 647.84 356.41 647.84 362.36 641.05 376.05 648.91 408.46 651.64 371.04 631.12 409.88 586.75 484.84 626.17"/><polygon class="cls-5" points="-12.91 248.73 314.42 0 328.4 0 -13.06 261.54 -12.91 248.73"/><polygon class="cls-5" points="444.01 9.64 408.67 -3.09 399.49 0.6 438.15 14.59 444.01 9.64"/><polygon class="cls-5" points="408.77 38.74 316.49 5.19 313.73 11.24 402.41 43.9 408.77 38.74"/><polygon class="cls-5" points="372.32 68.76 278.83 33.19 276.28 39.92 365.76 74.31 372.32 68.76"/><polygon class="cls-5" points="333.55 100.59 238.85 63.4 236.58 70.34 327.19 106.25 333.55 100.59"/><polygon class="cls-5" points="284.18 138.79 291.25 132.82 200.58 96.04 194.85 102.3 284.18 138.79"/><polygon class="cls-5" points="251.07 168.6 156.16 128.88 151.45 135.53 243.9 174.76 251.07 168.6"/><polygon class="cls-5" points="207.15 205.18 111.33 163.44 105.84 170.47 199.37 211.95 207.15 205.18"/><polygon class="cls-5" points="161 243.68 63.78 199.72 57.92 207.17 152.93 250.25 161 243.68"/><polygon class="cls-5" points="112.34 283.4 13.6 237.21 8.37 245.13 103.76 290.77 112.34 283.4"/><polygon class="cls-5" points="61.05 325.84 -22.25 284.91 -12.72 301.69 52.47 333.62 61.05 325.84"/><polygon class="cls-5" points="1.25 85.33 124.19 0.6 109.95 0.6 0.15 75.33 1.25 85.33"/><polygon class="cls-5" points="86.63 19.69 28.63 -3.35 58.77 0.59 95.72 15.3 86.63 19.69"/><polygon class="cls-5" points="50.89 42.13 -1.66 21.21 1.25 30.61 46.04 48.65 50.89 42.13"/><polygon class="cls-5" points="6.39 71.08 -3.48 67.75 -1.06 80.02 6.39 71.08"/><path d="M183.4,423.61s6.31,6.11,9.8,10.26,7.77,10.2,7.77,10.2,10.87-2.5,17.59-9.69c7.76-8.3,6.54-11.53,6.54-11.53s-5-6.11-8.58-9.8-10.2-9.4-10.2-9.4-6.41,7-9.74,9.8S183.4,423.61,183.4,423.61Z"/><path d="M189.41,442.66s-18.07-7.08-27.87-11.72-23.94-13.5-23.94-13.5l-.08-2.36a1.83,1.83,0,0,0-1.27-1,2.76,2.76,0,0,0-2.55.89l-1.41-.73s8.68-6.42,22.89-3.43C179,415.81,189.41,442.66,189.41,442.66Z"/><path class="cls-7" d="M213.9,458.28a4.67,4.67,0,1,1-3.57-5.11A4.42,4.42,0,0,1,213.9,458.28Z"/><path class="cls-7" d="M238.07,432.68c.93,2.4.7,4.74-.52,5.21s-3-1.1-3.89-3.51-.69-4.74.53-5.21S237.14,430.27,238.07,432.68Z"/><path class="cls-1" d="M212.35,472.49l-9.94,9.62C191.26,476,180.67,470,180.67,470l1.39-1.29s9.43,5.35,13,5.84,8.14-3.11,8.14-3.11a4.15,4.15,0,0,0,3.29,2.12A10.88,10.88,0,0,0,212.35,472.49Z"/><path d="M148.82,406.76s5.45-9.17,11.51-13.87a52.93,52.93,0,0,1,13.25-7.2s-19.84-4.32-33.24,5.53c-11.48,8.44-12.25,15.84-10,19.55C137.33,407.29,148.82,406.76,148.82,406.76Z"/><path d="M224.34,91.49l-5.45,3.74-12.62,1L206,93.13a1.68,1.68,0,0,1,.14-.83,1.61,1.61,0,0,1,.51-.68l3.47-2.52a1.82,1.82,0,0,1,1-.39L220.8,88l.36-.06a1.73,1.73,0,0,1,1.6.86Z"/><path d="M187,78.29V80a1.33,1.33,0,0,1-.63,1.13l-4.45,2.76a1.34,1.34,0,0,1-1.62-.18L169.15,72.86a1.33,1.33,0,0,1,.13-2l1-.75,4.3-3a1.33,1.33,0,0,1,1.74.12L186.6,77.35a1.2,1.2,0,0,1,.29.45A1.16,1.16,0,0,1,187,78.29Z"/><path class="cls-3" d="M186,78.24l-3.59,2.26a1.12,1.12,0,0,1-1.36-.14l-9.94-9.45a1,1,0,0,1,.08-1.5l3.38-2.76a1.35,1.35,0,0,1,1.74.12l9.85,10.06A.91.91,0,0,1,186,78.24Z"/><path d="M196.27,210.81h0a1.41,1.41,0,0,1-1.41-1.41V92.3a1.42,1.42,0,0,1,1.41-1.42h0a1.42,1.42,0,0,1,1.42,1.42V209.4A1.41,1.41,0,0,1,196.27,210.81Z"/><path d="M196.27,208.59h0a2.68,2.68,0,0,0-2.67,2.68V233.7a2.68,2.68,0,0,0,2.67,2.68h0A2.68,2.68,0,0,0,199,233.7V211.27A2.68,2.68,0,0,0,196.27,208.59Z"/><polygon points="186.36 81.17 195.87 92.08 195.87 94.53 184.01 81.39 186 81.39 186.36 81.17"/><polygon points="197.69 92.86 207.58 91.39 206 93.13 196.93 94.83 197.69 92.86"/><path class="cls-3" d="M221.05,88.47l-3.94,2.82a.8.8,0,0,1-.42.16l-10.55.85a1.61,1.61,0,0,1,.51-.68l3.51-2.86a1.71,1.71,0,0,1,1-.38l9.68-.59A.37.37,0,0,1,221.05,88.47Z"/><polygon points="186.64 233.79 197.21 239.06 207.5 230.51 196.83 225.24 186.64 233.79"/><path d="M348.29,84.57h0a1.41,1.41,0,0,1-1.41-1.41V-33.94a1.41,1.41,0,0,1,1.41-1.42h0a1.41,1.41,0,0,1,1.41,1.42V83.16A1.41,1.41,0,0,1,348.29,84.57Z"/><path d="M348.29,82.35h0A2.67,2.67,0,0,0,345.62,85v22.43a2.67,2.67,0,0,0,2.67,2.68h0a2.68,2.68,0,0,0,2.68-2.68V85A2.68,2.68,0,0,0,348.29,82.35Z"/><polygon points="338.83 107.63 349.23 112.81 359.52 104.26 349.1 99.12 338.83 107.63"/></g><polygon class="cls-8" points="95.67 358.05 98.95 355.07 99.86 372.35 63.82 404.08 63.82 398.73 96.45 370.48 95.67 358.05"/><polygon class="cls-8" points="142.59 317.96 145.88 314.98 146.51 331.57 112.48 362.36 112.48 357 143.1 329.71 142.59 317.96"/><polygon class="cls-8" points="186.84 279.94 190.12 276.95 190.75 293.55 158.42 322.35 158.42 317 187.35 291.69 186.84 279.94"/><polygon class="cls-8" points="241.46 233.32 244.74 230.34 244.74 247.13 213.85 273.85 213.85 268.49 241.34 245.26 241.46 233.32"/><polygon class="cls-8" points="281.75 198.56 285.03 195.58 285.03 212.37 255.57 238 255.57 232.64 281.62 210.5 281.75 198.56"/><polygon class="cls-8" points="319.84 165.14 323.12 162.16 323.12 178.94 295.18 203.21 295.18 197.85 319.71 177.08 319.84 165.14"/><polygon class="cls-8" points="367.09 125.02 370.37 122.04 369.76 138.47 343.04 161.6 343.04 156.24 366.36 136.61 367.09 125.02"/><polygon class="cls-8" points="402.45 95.16 405.73 92.18 404.66 108.26 379.23 130.53 379.23 125.17 401.8 105.94 402.45 95.16"/><polygon class="cls-8" points="436.51 65.63 439.79 62.64 438.72 78.73 414.06 100.72 414.06 95.36 435.85 76.4 436.51 65.63"/><polygon class="cls-8" points="477.13 31.19 480.41 28.21 479.34 44.29 456.17 64.29 456.17 59.54 476.47 41.97 477.13 31.19"/><polygon class="cls-8" points="32.82 412.47 36.1 409.49 37.01 426.77 0.96 458.5 0.96 453.14 33.6 424.9 32.82 412.47"/></g></svg>