<svg xmlns="http://www.w3.org/2000/svg" viewBox="0 0 1152 648"><defs><style>.cls-1{fill:#d8d8d8;}.cls-2{fill:#fff;}.cls-3{fill:#c4c4c4;}</style></defs><g id="Layer_1" data-name="Layer 1"><path d="M654.91,334.2a59.44,59.44,0,0,0-6.57.37,59.4,59.4,0,0,0-6.56-.37c-38.24,0-69.24,36.72-69.24,82s31,82,69.24,82h13.13c38.23,0,69.23-36.72,69.23-82S693.14,334.2,654.91,334.2Z"/><path d="M909.31,264.86h0a7.19,7.19,0,0,0,1.38-8.26,46.11,46.11,0,0,0-15-17.32c-13.6-9.55,2.44,30.15,2.44,30.15Z"/><ellipse cx="676.53" cy="371.04" rx="29.54" ry="47.83"/><ellipse cx="897.33" cy="378.16" rx="19.69" ry="59.79"/><path d="M891.34,329.32H861.53c-11.83,0-21.42,28.28-21.42,63.15s9.59,63.15,21.42,63.15h29.81c11.83,0,21.42-28.28,21.42-63.15S903.17,329.32,891.34,329.32Z"/><path d="M328.51,334.2a59.4,59.4,0,0,0-6.56.37,59.4,59.4,0,0,0-6.56-.37c-38.24,0-69.24,36.72-69.24,82s31,82,69.24,82h13.12c38.24,0,69.24-36.72,69.24-82S366.75,334.2,328.51,334.2Z"/><ellipse class="cls-1" cx="662.21" cy="416.23" rx="45.99" ry="57.1"/><path class="cls-1" d="M926,342.11c0,54.42-7.11,60.11-7.11,60.11l-3.94,2.92h0a164.9,164.9,0,0,0,2.13-27c0-33-8.82-59.8-19.69-59.8-6.36,0-12,9.13-15.6,23.29h0c-.68,2.66-1.28,5.49-1.8,8.47l-14.89,69.95-145,24h0a96,96,0,0,0,4.07-27.82c0-21.79-7.16-41.59-18.87-56.28-3.1-21.06-14.79-36.73-28.74-36.73-10.52,0-18.38,8.92-25,22.32l0,0C635.35,375.51,627.8,450,627.8,450H252l-4.45-7.74L231.26,441c-2.5-11.71-4.67-24.81-5-36.79-1.05-33.4,2.73-74.86,5-79.61l11-23a18.19,18.19,0,0,1,9.45-8.95l10.17-4.18s1.27-.5,4.15-1.67l1-.39c4-1.63,10.54-4.32,20.25-8.43l.18-.07c.2-.25.41-.49.62-.73l0,0,.62-.66c14.35-15.24,50.24-22,68.18-30.66,18.47-8.94,82.83-67.82,124.66-80.64s114.31-15.4,159.79-15.4,106.19-2.44,158.37,17.87,96,71.57,96,71.57l7.21,25.58h6.4v8.22S926,287.71,926,342.11Z"/><path d="M367.4,245.88s28.94-25.59,56.65-44.47a440.86,440.86,0,0,1,49.64-29.54s34.82-7.76,111.78-10.05C636,160.31,711.86,167,711.86,167L676,238a14,14,0,0,1-12.85,7.7c-25.21-.59-99.05-2.22-153.78-2.22C442.32,243.44,367.4,245.88,367.4,245.88Z"/><path d="M871.3,241,769.54,251.75l-3.24.34-11.56,1.22h0l-62.35,6.58a128.36,128.36,0,0,1,9-40.06c1.54-3.83,3.28-8,5.21-12.14,5.93-12.87,13.64-26.51,22.64-35.51C750.84,150.55,829.92,185,845.76,200.8S871.3,241,871.3,241Z"/><path class="cls-1" d="M769.54,251.75c-1,.22-2.06,3.31-3.24,3.32l-2.36,3.86c-2.46,0-4.2-2.58-9.2-1.83l-4.92,1.11-62.1,6.33c.83-13.75,5.1-31.92,10.23-44.71,1.54-3.83,6.4-8.88,8.32-13.08l8.94,40.14.8-12.59a13.67,13.67,0,0,1,13.64-12.79h19.06c21.93,0,30.46,14.21,30.46,14.21S780.28,249.42,769.54,251.75Z"/><path d="M623,309.51l-19.41,19.41L502.1,345.74a41.14,41.14,0,0,0-23.21,12.36l-37.82,40.13a19.75,19.75,0,0,1-14.39,6.22H305.5A19.77,19.77,0,0,1,289,395.64l-27.89-41.81a72.42,72.42,0,0,0-13-14.74L231.26,324.6l11.4-23.11a18.15,18.15,0,0,1,9.45-8.95l9.77-4c0,9.28,8.21,24.51,21.77,24.51H481.31s96.24-22.69,117.86-24.51,25.58-1.84,25.58-1.84L626,301A10.74,10.74,0,0,1,623,309.51Z"/><path d="M603.44,347.9l5.17,75.53s-28,3.05-42.33-5.48c-16.22-9.66-20.76-28-28.74-42.74a8.81,8.81,0,0,1,5.68-12.77Z"/><path d="M231.77,341.2l11.17,16.55s-3.05,38.27-13.5,53C228.32,384.65,231.77,341.2,231.77,341.2Z"/><path class="cls-2" d="M626.08,311.7l-22.54,17.22-97.26,4.27-15.59-11.73a3.78,3.78,0,0,1,1.62-6.74l102.6-18,29.84-10.05,4.42,16.51A10.71,10.71,0,0,1,626.08,311.7Z"/><ellipse class="cls-1" cx="894.09" cy="392.17" rx="14.21" ry="45.58"/><path class="cls-2" d="M269.83,320.51l-10.24,10.24-23.52-10.11-2.29-1.31,7.89-18.27c1.94-4,6.07-7,10.44-8.52h0c0,.81.11,1.56.16,2.27.42,5.44,11.24,14.67,17.17,19.35A4.25,4.25,0,0,1,269.83,320.51Z"/><path d="M724.13,417s103.61-26.65,115.33-27.71a74.78,74.78,0,0,1,21.48,1.22,16.75,16.75,0,0,1-13.86,11.57c-10.85,1.73-113.18,22-123.43,24.05Z"/><path d="M251.81,450,263,437.57a26.42,26.42,0,0,1,19.6-8.7H437.28a66,66,0,0,1,37.55,11.74L488.35,450H251.81Z"/><path class="cls-3" d="M483.85,307.09a491.65,491.65,0,0,1,78.65-32.25c44.69-13.6,91.49-22.57,91.49-22.57h0A15,15,0,0,1,641.44,266c-18.91,3-52.39,10.3-80,16.94C525.77,291.44,483.85,307.09,483.85,307.09Z"/><path class="cls-2" d="M824.44,290.44s33.91-11.57,53.4-12.59,29.85,1,29.85,1l-10.1,12.56a11.8,11.8,0,0,1-10.84,4.31C872,293.65,836.71,289.11,824.44,290.44Z"/><path class="cls-2" d="M779.17,235.72c-8.94,0-14-1-18.58,5.27-7.69,10.58-45.38,5.9-45.38,5.9h0l.8-12.59a13.67,13.67,0,0,1,13.64-12.79h19.06c18.15,0,27.13,9.75,29.67,13.09C778.92,235.31,779.17,235.72,779.17,235.72Z"/><path class="cls-3" d="M287.41,278c-8.59,7.27-11.28,12.94-11.28,12.94s.51-3-1.62-4.36-7.61,0-7.61,0l.08-.08c4-1.63,10.54-4.32,20.25-8.43Z"/><path class="cls-3" d="M861.11,320.5,713.22,340.33C707,324.52,696,314,683.56,314s-23.38,10.46-29.64,26.24c5.41-10.42,13.53-17.06,22.61-17.06,9.68,0,18.26,7.54,23.65,19.19l.63,1.41c.11.26.21.52.32.77l.43,1.08.3.79c.19.52.38,1,.55,1.56.1.27.19.55.28.82.14.44.28.88.41,1.32l.24.82c.12.43.24.86.35,1.29l.2.74q.84,3.36,1.37,6.95c10.5,13.17,17.35,30.46,18.65,49.61,24.57-24.56,142.16-44.44,142.16-44.44l7.31-31.1A11.08,11.08,0,0,0,861.11,320.5Z"/></g></svg>