<svg xmlns="http://www.w3.org/2000/svg" viewBox="0 0 1152 648"><defs><style>.cls-1{fill:#d8d8d8;}.cls-2{fill:#fff;}.cls-3{fill:#c4c4c4;}</style></defs><g id="Layer_1" data-name="Layer 1"><path d="M601,327.23a18,18,0,0,0-2.08.12,17.7,17.7,0,0,0-2.07-.12c-12.11,0-21.93,11.63-21.93,26s9.82,26,21.93,26H601c12.11,0,21.92-11.63,21.92-26S613.09,327.23,601,327.23Z"/><path d="M681.53,305.28h0a2.29,2.29,0,0,0,.44-2.62,14.59,14.59,0,0,0-4.74-5.48c-4.31-3,.77,9.54.77,9.54Z"/><path d="M617.18,338.89c0,8.37-4.18,15.15-9.35,15.15s-9.35-6.78-9.35-15.15,4.18-15.14,9.35-15.14S617.18,330.53,617.18,338.89Z"/><path d="M684,341.15c0,10.45-2.8,18.93-6.24,18.93s-6.24-8.48-6.24-18.93,2.8-18.94,6.24-18.94S684,330.69,684,341.15Z"/><path d="M675.84,325.69h-9.43c-3.75,0-6.79,8.95-6.79,20s3,20,6.79,20h9.43c3.75,0,6.79-8.95,6.79-20S679.59,325.69,675.84,325.69Z"/><path d="M497.64,327.23a18,18,0,0,0-2.08.12,17.75,17.75,0,0,0-2.08-.12c-12.1,0-21.92,11.63-21.92,26s9.82,26,21.92,26h4.16c12.11,0,21.92-11.63,21.92-26S509.75,327.23,497.64,327.23Z"/><ellipse class="cls-1" cx="603.3" cy="353.2" rx="14.56" ry="18.08"/><path class="cls-1" d="M686.8,329.73c0,17.23-2.25,19-2.25,19l-1.24.92h0a52.24,52.24,0,0,0,.68-8.54c0-10.46-2.8-18.94-6.24-18.94-2,0-3.8,2.89-4.94,7.38h0c-.21.84-.4,1.74-.57,2.68l-4.71,22.15L621.61,362h0a30.17,30.17,0,0,0,1.29-8.81,28.57,28.57,0,0,0-6-17.82c-1-6.67-4.68-11.63-9.1-11.63-3.33,0-5.82,2.82-7.91,7.07h0c-5.12,9.48-7.51,33.06-7.51,33.06h-119L472,361.44l-5.16-.39a68.45,68.45,0,0,1-1.6-11.65c-.33-10.58.87-23.71,1.6-25.21l3.48-7.27a5.77,5.77,0,0,1,3-2.83l3.22-1.32,1.32-.53.3-.13c1.26-.51,3.34-1.36,6.41-2.66l.06,0,.19-.23h0l.2-.21c4.54-4.82,15.9-7,21.58-9.7,5.85-2.83,26.23-21.48,39.47-25.54s36.19-4.87,50.59-4.87,33.63-.77,50.15,5.66,30.41,22.65,30.41,22.65l2.28,8.1h2v2.61S686.8,312.51,686.8,329.73Z"/><path d="M510,299.26a211.38,211.38,0,0,1,17.94-14.07,139.15,139.15,0,0,1,15.72-9.36s11-2.45,35.39-3.18c16-.48,40,1.64,40,1.64l-11.37,22.47a4.45,4.45,0,0,1-4.07,2.44c-8-.19-31.36-.71-48.69-.71C533.68,298.49,510,299.26,510,299.26Z"/><path d="M669.5,297.72l-32.22,3.4-1,.11-3.66.39h0l-19.75,2.08A41,41,0,0,1,615.69,291c.49-1.22,1-2.52,1.65-3.85,1.88-4.07,4.32-8.39,7.17-11.24,6.85-6.85,31.89,4.05,36.9,9.06S669.5,297.72,669.5,297.72Z"/><path class="cls-1" d="M637.28,301.12c-.31.07-.65,1.05-1,1.06l-.75,1.22c-.77,0-1.33-.82-2.91-.58l-1.56.35-19.66,2A50.7,50.7,0,0,1,614.61,291c.49-1.22,2-2.81,2.64-4.14l2.83,12.7.25-4a4.33,4.33,0,0,1,4.32-4.05h6c7,0,9.65,4.5,9.65,4.5S640.68,300.39,637.28,301.12Z"/><path d="M590.86,319.41l-6.14,6.15-32.12,5.32a13,13,0,0,0-7.35,3.92l-12,12.7a6.24,6.24,0,0,1-4.56,2H490.36a6.26,6.26,0,0,1-5.22-2.79l-8.83-13.23a23,23,0,0,0-4.13-4.67l-5.33-4.59,3.61-7.32a5.74,5.74,0,0,1,3-2.83l3.09-1.27c0,2.94,2.6,7.76,6.9,7.76H546s30.47-7.19,37.32-7.76,8.1-.59,8.1-.59l.4,4.54A3.38,3.38,0,0,1,590.86,319.41Z"/><path d="M584.69,331.57l1.64,23.91s-8.88,1-13.41-1.73c-5.13-3.06-6.57-8.88-9.1-13.53a2.8,2.8,0,0,1,1.8-4.05Z"/><path d="M467,329.45l3.54,5.24s-1,12.11-4.28,16.77C465.92,343.2,467,329.45,467,329.45Z"/><path class="cls-2" d="M591.86,320.11l-7.14,5.45-30.8,1.35L549,323.19a1.19,1.19,0,0,1,.51-2.13L582,315.37l9.45-3.19,1.39,5.23A3.42,3.42,0,0,1,591.86,320.11Z"/><path class="cls-1" d="M681.21,345.58c0,8-2,14.43-4.5,14.43s-4.5-6.46-4.5-14.43,2-14.43,4.5-14.43S681.21,337.61,681.21,345.58Z"/><path class="cls-2" d="M479.06,322.89l-3.24,3.25-7.45-3.2-.72-.42,2.5-5.78a5.65,5.65,0,0,1,3.3-2.7h0c0,.25,0,.49.05.72.13,1.72,3.56,4.64,5.44,6.13A1.34,1.34,0,0,1,479.06,322.89Z"/><path d="M622.9,353.44s32.81-8.44,36.52-8.77a23.78,23.78,0,0,1,6.8.38,5.31,5.31,0,0,1-4.39,3.67c-3.44.54-35.84,7-39.08,7.61Z"/><path d="M473.35,363.89l3.56-3.93a8.34,8.34,0,0,1,6.2-2.76h49A20.87,20.87,0,0,1,544,360.92l4.28,3h-74.9Z"/><path class="cls-3" d="M484.63,309.42a14.08,14.08,0,0,0-3.57,4.1,1.44,1.44,0,0,0-.52-1.38c-.67-.42-2.41,0-2.41,0l0,0c1.26-.51,3.34-1.36,6.41-2.66Z"/></g></svg>