<svg xmlns="http://www.w3.org/2000/svg" xmlns:xlink="http://www.w3.org/1999/xlink" viewBox="0 0 648 648"><defs><style>.cls-1{fill:#16502b;}.cls-2{fill:#c1c1c1;}.cls-3{clip-path:url(#clip-path);}.cls-4{fill:#195e32;}.cls-5{fill:#1d7c3f;}.cls-6{fill:#fff;}.cls-7{fill:#e21e67;}.cls-8{fill:#238e4a;}.cls-9{fill:none;}.cls-10{fill:#114020;}</style><clipPath id="clip-path"><path class="cls-1" d="M-.24,215.53l19.85-15.34s15.16-19.42,19.2-22.34,13.14-12,13.14-12l20.21-24.25h35.38s20.21,4,26.27,0,32.35-19.21,32.35-19.21l18.19-29.3h10.1l10.11-16.18,9.1-10.1H235.5l21.62,26.28,12.12,13.13,13.14,19.21,12.13,15.76,21.22-19.81,20.22,3s15.18,4,18.71,7.07,11,9.7,11,9.7-1.84,8.49,10,11.52,28-6.06,28-6.06,4-5.88,11.12-5.46,22.12-11.72,22.12-11.72l10.22-9.1,15.16-11.11,9-3,24.44,2,5.91,13.13,10,7.08,6.51-9.1,10.85,2,17.19,12.13,14.14,12.13,19.21,21.22,16.17,19.63,17.18,5.64,17.18,15.16,18.19,17.18-.48,171.44-648-10.94Z"/></clipPath></defs><g id="Layer_1" data-name="Layer 1"><polygon class="cls-2" points="-0.24 648 647.76 648 647.76 373.6 -0.24 372.92 -0.24 648"/><rect class="cls-2" x="-0.24" width="648" height="372.92"/><path class="cls-1" d="M-.24,215.53l19.85-15.34s15.16-19.42,19.2-22.34,13.14-12,13.14-12l20.21-24.25h35.38s20.21,4,26.27,0,32.35-19.21,32.35-19.21l18.19-29.3h10.1l10.11-16.18,9.1-10.1H235.5l21.62,26.28,12.12,13.13,13.14,19.21,12.13,15.76,21.22-19.81,20.22,3s15.18,4,18.71,7.07,11,9.7,11,9.7-1.84,8.49,10,11.52,28-6.06,28-6.06,4-5.88,11.12-5.46,22.12-11.72,22.12-11.72l10.22-9.1,15.16-11.11,9-3,24.44,2,5.91,13.13,10,7.08,6.51-9.1,10.85,2,17.19,12.13,14.14,12.13,19.21,21.22,16.17,19.63,17.18,5.64,17.18,15.16,18.19,17.18-.48,171.44-648-10.94Z"/><g class="cls-3"><path class="cls-1" d="M262,81.07l-6,42.19-4,27.63,15.58,18.58v19.09s6.53,12.56,17.08,6.53,33.65-17.24,33.65-17.24L364,396-13.76,390.5l-5-196.91L99.77,35.86H248.46Z"/><path class="cls-4" d="M375.66,145.7s13.78,21.43,23.83,20.76,21.43,27.46,21.43,27.46h18.16l26.05,3.35L477.18,202,459.1,213.07l.67,10.32,24.11,32.82L528.09,289l21.43,10.71-22.1-36.83-15.8-23.44L545.5,254.2l73,32.82L589,251.52l-19.42-32.15L545.5,177.85,528.76,145.7l-10.63-18.76,30.72,26.13-1.34-42.2-29.38-28.8-109.26,6L372,133.64Z"/><path class="cls-5" d="M306.73,66.78,235.5,79.06,219.32,190.57l53.82,25L324,275.38l35.14,97.54,1.38-88,21.42,34.21,37.31-55L455.4,280l-9-28.72-64.42-28.58s-28.37-29.32-28.18-36.26-16.89-35.07-16.89-35.07l30.19-31.14-26.17-43.2Z"/></g><path class="cls-1" d="M-.24,372.92v12c246.48,12.1,554.1,35.11,648,76.6V372.92Z"/><path class="cls-2" d="M517.76,460.5h0a5.83,5.83,0,0,1,5.82,5.82v50.51L349.87,511V466.32a5.82,5.82,0,0,1,5.78-5.82Z"/><path class="cls-2" d="M517.76,444.4l-4.94-47.13a19.48,19.48,0,0,0-19.4-17.47H384a19.48,19.48,0,0,0-19.4,17.47l-4.94,47.13v16.1H517.76Z"/><rect x="354.51" y="466.27" width="163.74" height="36.39" rx="6.66"/><path d="M505.8,430.88H372.61a5.52,5.52,0,0,1-5.5-6l2.52-28.61a5.52,5.52,0,0,1,5.5-5H503.06a5.52,5.52,0,0,1,5.49,5l2.74,28.61A5.51,5.51,0,0,1,505.8,430.88Z"/><circle class="cls-6" cx="378.79" cy="482.57" r="9.94"/><path class="cls-7" d="M364.91,473.48a3.8,3.8,0,1,1-3.8-3.8A3.8,3.8,0,0,1,364.91,473.48Z"/><path class="cls-6" d="M364.91,489.14a3.8,3.8,0,1,1-3.8-3.8A3.81,3.81,0,0,1,364.91,489.14Z"/><path class="cls-7" d="M515.68,473.48a3.81,3.81,0,1,1-3.81-3.8A3.81,3.81,0,0,1,515.68,473.48Z"/><circle class="cls-6" cx="511.87" cy="489.14" r="3.8"/><circle class="cls-6" cx="493.61" cy="482.57" r="9.94"/><rect x="342.18" y="510.53" width="189.08" height="12.6" rx="3.23"/><path d="M523.58,474.23l5.74,6.92a8.38,8.38,0,0,1,1.86,6.58l-3.53,24.55-4.07-1.75Z"/><path d="M349.87,473.49l-5.74,6.91a8.45,8.45,0,0,0-1.86,6.59l3.53,24.55,4.07-.54Z"/><path d="M346,521.29h22.82a0,0,0,0,1,0,0v44.58a4.83,4.83,0,0,1-4.83,4.83H350.86a4.83,4.83,0,0,1-4.83-4.83V521.29A0,0,0,0,1,346,521.29Z"/><path d="M362.82,512.28h22.82a0,0,0,0,1,0,0v44.58a4.83,4.83,0,0,1-4.83,4.83H367.65a4.83,4.83,0,0,1-4.83-4.83V512.28A0,0,0,0,1,362.82,512.28Z"/><path d="M504.26,520.68h22.82a0,0,0,0,1,0,0v44.58a4.83,4.83,0,0,1-4.83,4.83H509.1a4.83,4.83,0,0,1-4.83-4.83V520.68A0,0,0,0,1,504.26,520.68Z"/><path d="M498.86,512.28h22.82a0,0,0,0,1,0,0v44.58a4.83,4.83,0,0,1-4.83,4.83H503.69a4.83,4.83,0,0,1-4.83-4.83V512.28a0,0,0,0,1,0,0Z"/><polygon points="385.65 541.03 405.76 541.03 427.45 541.03 499.76 541.03 499.76 512.92 374.23 515.6 385.65 541.03"/><rect x="521.69" y="423.33" width="12.51" height="20.64" rx="2.52"/><path d="M527.94,444.11v1.72l-7.3.69a1.89,1.89,0,0,0-1.72,1.89v2.12h-1.2V456h2.79a1.79,1.79,0,0,0,1.79-1.79v-3.53a1.9,1.9,0,0,1,1.24-1.79l5.55-2v-3.47h-1.15Z"/><rect x="343.21" y="423.33" width="12.51" height="20.64" rx="2.52" transform="translate(698.92 867.29) rotate(180)"/><path d="M349.46,444.11v1.72l7.3.69a1.9,1.9,0,0,1,1.72,1.89v2.12h1.2V456h-2.79a1.79,1.79,0,0,1-1.79-1.79v-3.53a1.92,1.92,0,0,0-1.24-1.79l-5.55-2v-3.47h1.15Z"/><path class="cls-8" d="M223.72,431.23C205.08,417.82,108,405.62-.24,395.88V516.31C130.27,481.85,244.46,446.16,223.72,431.23Z"/><rect class="cls-9" x="-0.24" width="648" height="648"/><rect class="cls-9" x="-0.24" width="648" height="648"/><polygon class="cls-10" points="419.25 264.19 461.44 350.31 491.55 350.31 470.4 286.59 419.25 264.19"/><polygon class="cls-8" points="224.85 227.8 194.04 285 209.45 351.98 258.29 357.33 256.72 313.13 238.25 279.64 226.16 260.89 224.85 227.8"/></g></svg>