<svg id="Layer_3" data-name="Layer 3" xmlns="http://www.w3.org/2000/svg" viewBox="0 0 486 648"><defs><style>.cls-1{fill:#e5e6e4;}.cls-2{fill:#9a9a99;}.cls-3{fill:#f5f5f5;}.cls-4{fill:#6f6e6e;}</style></defs><rect class="cls-1" width="486" height="648"/><rect x="223.88" y="204.13" width="80.15" height="371.42"/><path class="cls-1" d="M289.42,570.57c0,39.34-53.58,49.56-80.86,49.56s-31.71-14.64-31.71-14.64V591.64l-10.24-5.82s-4.84-64.44-3-62.61a4.74,4.74,0,0,0,4,1.45s.9,3.52,3.35,3.52,4-.1,4-.1,5.92,6.87,13.15,7.47,2.05-5.16,2.05-5.16,2.86-2.66,1.3-7.38,2.12-18.86,2.12-28.09S182.06,468,180,452.57q-.12-.79-.21-1.62v0c-1.75-15.25.21-34.78.21-34.78s-4,2.31-9.74,5.11-30.49,3.92-34.93,2.72c-.23-.06-.45-.11-.68-.15-.4-.07-.78-.16-1.16-.26a10.74,10.74,0,0,1-8.12-10c-.58-21.4-1.66-65.44-1.66-93.44,0-38.13,16.46-96.33,23.23-109.17l6.17-19.57,56.85-31.47,34.65,61.25s8.74,44,13.15,78.49c3.71,28.93,6,77.62,11.13,116.25,0,.09,0,.17,0,.23l0,.2c1,7.29,2.06,14.22,3.26,20.58C279.79,477.05,289.42,531.23,289.42,570.57Z"/><path class="cls-1" d="M357.66,354a53.8,53.8,0,0,0-4.18,14.18,142.3,142.3,0,0,0-1.89,19.13s-2-23.93-10.33-35.22-21.88-5.72-21.88-5.72L315,362.21l-9.63,6.55v-5.95c0-4.74-7.23-65.76-9.34-81.11s-12.54-69.46-12.54-69.46l-2.3-7.72L296.05,177s12.24,7.63,29.1,22.28,17.06,49.77,17.06,49.77a392.92,392.92,0,0,1,17.66,53.37C366.89,331,363.28,342.8,357.66,354Z"/><path class="cls-2" d="M351.59,387.35s-6.92,7.07-11.14,9.79-5.19,10.6-9.18,11.13-6-1.45-6-1.45,5.07-10.29,5.07-14.51S335,381.85,335,377.64s-5.12-16-10.53-17.46a11,11,0,0,0-9.41,2l4.36-15.8s13.51-5.57,21.88,5.72S351.59,387.35,351.59,387.35Z"/><path class="cls-1" d="M325.86,464.11c0,35.81-3.77,103.4-5.13,126s-17,21.83-22.57-.75S295,477.8,297.1,460.64s-4.21-42.29-4.21-42.29l6.33,7.23,5-8.06a88.14,88.14,0,0,0,9.55-.14c3.92-.38,8.21-7.16,8.21-7.16S325.86,428.29,325.86,464.11Z"/><path class="cls-2" d="M288.28,409l15.9,8.54-5,8.06-6.33-7.23s-2.56-4.29-8.43-1.43-14.36,7.69-15.55-.58l0-.2a2.15,2.15,0,0,0,0-.23c-5.14-38.63-7.43-87.32-11.14-116.26-4.41-34.51-13.14-78.48-13.14-78.48l16-3.29,9.56,3.55s19.92,33,27.3,70.65,8,76.68,8,76.68,2.1,12.17-6.33,18.09-16.65,8.63-19.27,10.33-.9,6.53,3.42,7.73C283.56,407.52,288.28,409,288.28,409Z"/><path class="cls-3" d="M335,377.64c0,4.21-4.59,10.46-4.59,14.67s-5.07,14.51-5.07,14.51l-3.36,3.4s-4.29,6.78-8.21,7.16a88.14,88.14,0,0,1-9.55.14L288.28,409s-4.72-1.46-5.07-4.07c-4.32-1.2-6-6-3.42-7.73s10.84-4.41,19.27-10.33,6.33-18.09,6.33-18.09l9.63-6.55a11,11,0,0,1,9.41-2C329.84,361.61,335,373.43,335,377.64Z"/><path class="cls-3" d="M190.09,530.39s5.17,5.77-2.05,5.16-13.15-7.47-13.15-7.47-1.51.1-4,.1-3.35-3.52-3.35-3.52a4.74,4.74,0,0,1-4-1.45l-3.09-3.33s-1.7,1.77-6.06.55-4.25-13.42-5-19.14,2.26-21.52,3.46-31.46a43.64,43.64,0,0,0-2.49-19.15,51.31,51.31,0,0,0,6.16,3.29c16.47,7.46,22.87-2.56,23.17-3q.09.82.21,1.62c2.1,15.46,13.55,33.11,13.55,42.35s-3.67,23.37-2.12,28.09S190.09,530.39,190.09,530.39Z"/><ellipse class="cls-2" cx="252.72" cy="101.4" rx="49.53" ry="61.5"/><path class="cls-2" d="M297.35,184.47,295,186.83v7.39s-7.33,20.07-24.24,26.95h0A30.64,30.64,0,0,1,259,223.45a60.66,60.66,0,0,1-14.45-2.28c-30.18-7.78-78.26-32.79-78.26-32.79s-8.43,6.93-11,11S146.9,211,146.9,211V184.32s9.71-21.23,34.92-25.14a47.18,47.18,0,0,1,6.42-.29A38.23,38.23,0,0,1,211,165.81h0l-7.83-42.45V98.69l99.07-1.2S308.59,173.23,297.35,184.47Z"/><path class="cls-3" d="M286.87,96.57s.59,34.66-1,40.79c-2.63,10.32-13.47,25.73-29.12,25.73s-27.39-10.68-31-18.21-9.64-22.12-9.64-22.12l3-50.42,35.37-11.59L283.56,74.6Z"/><path class="cls-4" d="M295,186.83a50.23,50.23,0,0,1-25.59,9.53C254.66,197.26,241,204,241,204s20.18.77,29.5-1.95C283.82,198.16,295,186.83,295,186.83Z"/><path class="cls-4" d="M211,165.8a95.85,95.85,0,0,0,17.3,13.1c11.14,6.77,16.26,6.77,16.26,6.77s-14.9-11.44-23-24.83-18.36-37.48-18.36-37.48Z"/><path d="M275.88,82.72c-5.22-12.1-14-17.73-26.38-12.3,0,0-15.46-5.12-21.18,5.83-5.09,9.75-1.95,19.57-6.32,27.09s-5.87,19.42-5.87,19.42-8-12.34-8-19,3.91-40.78,19-49.51S251.2,43.14,258,44.34s23.63,9.79,27.55,19,8.58,13.85,8.58,13.85v28.59c0,7.08-7.23,14-7.23,14A172.66,172.66,0,0,0,275.88,82.72Z"/><path class="cls-4" d="M231.89,152.9s2.5,12.55,9.08,19.12,13.14,12.29,13.14,12.29S246,163.28,231.89,152.9Z"/><path class="cls-4" d="M166.31,188.38s-8.43,6.93-11,11S146.9,211,146.9,211V184.31S162.68,184.75,166.31,188.38Z"/><path class="cls-4" d="M270.75,221.17s-5.4,6.08-11.27,6.08-14.91-6.08-14.91-6.08A60.66,60.66,0,0,0,259,223.45a30.64,30.64,0,0,0,11.72-2.28Z"/><path class="cls-2" d="M180,416.15s-4,2.31-9.74,5.11-30.49,3.92-34.93,2.72c-.23-.06-.45-.11-.68-.15-.4-.07-.78-.16-1.16-.26-.29.76-.57,1.5-.81,2.24-1.74,5.18,4.92,16.9,17.78,24.87a51.31,51.31,0,0,0,6.16,3.29c16.47,7.46,22.87-2.56,23.17-3v0C178,435.68,180,416.15,180,416.15Z"/><path class="cls-4" d="M295,173V136.05s-1.95,12.79-9,21.33l5.5-2.06Z"/></svg>