<svg xmlns="http://www.w3.org/2000/svg" viewBox="0 0 1152 648"><defs><style>.cls-1{fill:#d8d8d8;}.cls-2{fill:#fff;}.cls-3{fill:#c4c4c4;}</style></defs><g id="Layer_1" data-name="Layer 1"><polygon points="186.79 436.2 354.54 439.27 573.46 416.65 796.05 437.86 963.56 428.92 980.31 332 857.86 313.6 258.24 313.6 186.79 337.15 186.79 436.2"/><path class="cls-1" d="M1052.39,399.28l-7.91,13.2s-8.94,3.45-25.79,7.91-55.13,8.53-55.13,8.53V411.46a83.75,83.75,0,0,0-84.38-83.75c-46.19.34-83.13,38.62-83.13,84.8v25.34l-441.51,1.42V411.6c0-46.4-37.11-84.86-83.51-85.21a84.17,84.17,0,0,0-84.8,84.16l.56,25.65s-5.62-.05-15.69-.8h0c-6.85-.51-15.75-1.34-26.33-2.7-26.19-3.35-39.75-8.6-39.75-8.6s-5.4-8.3-5.4-16.91c0-1.05,0-1.95.1-2.75,0-.34.06-.69.1-1q0-.15,0-.27c.6-4.48,2.13-4.9,2.13-9.87,0-6.17-1.07-12.11-1.83-26.26s3-21.73,3-21.73l16.14-26.55s16.79-13.62,49.11-28q4.35-1.95,9.1-3.9l.08,0c5.48-2.25,11.33-4.49,17.54-6.66,49.75-17.47,103.33-21.83,112.38-21.83h17.82a45.26,45.26,0,0,0,8.39-.66c7.24-1.33,13.37-5,27.7-13.35,19.34-11.27,71.26-35.94,108.43-53.6s77.56-27.72,154.51-29.95,188.82,16.45,232.07,26,100.71,29.17,125,33.05A302.21,302.21,0,0,0,1020.4,223a2.79,2.79,0,0,1,1.22,5.27l-1.82.94a91.91,91.91,0,0,0,0,9.6c.31,4.1,3.61,6.49,10.31,18.67a32.44,32.44,0,0,1,3.79,12.78c0,.06,0,.11,0,.17.73,8-1,15.33-1.84,19.7-.25,1.44-.53,2.92-.73,4.41-.74,5.4-.62,11,3.68,16.5,13.93,17.72,14.11,23.16,13.72,30.17l-6.6,1a8.39,8.39,0,0,0-7.12,6.26l-10.66,41.56a4.51,4.51,0,0,0,4.83,5.61l17.74-2,0,.11Z"/><circle cx="272.15" cy="412.31" r="75.16"/><circle cx="876.79" cy="412.31" r="75.16"/><path d="M155,345.27v30.05c0,14.11,1.52,31.88,1.52,31.88s-18.57.2-24.16-5.38c-4-4-8.72-25-11.13-36.77a9.2,9.2,0,0,1,6.11-10.56Z"/><path d="M119.33,318.72l-.78,10a3.34,3.34,0,0,0,4.07,3.53,194.51,194.51,0,0,1,19.47-3.59c10-1.14,19.42-2,19.42-2s8.48-9.21,12.54-10.73,19.44-6.15,25.48-12.19a44.27,44.27,0,0,1,12.59-8.8s-25-.79-50.61,6C141.34,306.29,119.33,318.72,119.33,318.72Z"/><path class="cls-2" d="M119.15,324l-.6,4.68a3.34,3.34,0,0,0,4.07,3.53,194.51,194.51,0,0,1,19.47-3.59c10-1.14,19.42-2,19.42-2s11.62-6.65,15.68-8.17,18-8,24.06-14a101.16,101.16,0,0,1,10.87-9.54s-20.51,2.82-39.8,6.88C147.68,307,119.15,324,119.15,324Z"/><path d="M142.09,328.62a194.51,194.51,0,0,0-19.47,3.59,3.34,3.34,0,0,1-4.07-3.53l.78-10h0c-5,3.5-14.32,16.09-16.14,26.55,6.49-3.35,10.76-5.38,25.38-8.83s16-3.43,22-5.11a44.77,44.77,0,0,0,11-4.69S152.14,327.48,142.09,328.62Z"/><path d="M875.42,245.05c-59,3-221.14,11.27-293.16,16-52.63,3.43-122.64,7.7-171,10.62,0,0,1.48-.09,10.62-5.74s8.75-10.66,8.75-19S425.26,235,425.26,235l5.33-12.13h0c38.25-19,90.6-41,134.9-45.31,74.62-7.31,156.55-.3,200.4,7,28.88,4.82,54.71,10.53,69,13.88a49.78,49.78,0,0,1,20.62,10.32l25,21A8.67,8.67,0,0,1,875.42,245.05Z"/><path d="M377.22,418.6a3.64,3.64,0,0,1,3.08-5.27c41.43-1.9,299.42-13.66,327.28-12.68,30.31,1.06,52.39,2.89,52.39,2.89s-2.9,8.38-19.65,9.29c-16,.87-329.85,7.17-359.78,7.77a3.63,3.63,0,0,1-3.32-2Z"/><path d="M1050.46,370.14a168.11,168.11,0,0,1-3.52,23.55l-17.74,2a4.51,4.51,0,0,1-4.83-5.61L1035,348.49a8.39,8.39,0,0,1,7.12-6.26l6.6-1c0,.06,0,.12,0,.18C1051.78,347.81,1051.38,357.56,1050.46,370.14Z"/><path d="M1033.92,270.45l-75.84-2.94a19.47,19.47,0,0,1-3.82-3.92A3.83,3.83,0,0,1,955,258c14.83-10.35,64.78-28.81,64.78-28.81a91.91,91.91,0,0,0,0,9.6c.31,4.1,3.61,6.49,10.31,18.67A32.74,32.74,0,0,1,1033.92,270.45Z"/><path class="cls-1" d="M421.85,265.89c-9.14,5.65-10.62,5.74-10.62,5.74-33.39,2-56.48,3.38-56.48,3.38s9.74-15.38,24.21-24c5.88-3.54,25.45-15.1,51.63-28.08L425.26,235s5.34,3.56,5.34,11.89S431,260.22,421.85,265.89Z"/><path class="cls-2" d="M430.6,248.22s-17.53-.61-21,1.29-.15,3.35-6.09,5.71-13.56,5-13.56,5,4-16.45,11-20.48,14.47-7,19.42-6.62S430.6,238.93,430.6,248.22Z"/><circle class="cls-1" cx="876.79" cy="412.31" r="49.8"/><circle class="cls-1" cx="272.15" cy="412.31" r="49.8"/><path class="cls-2" d="M941.86,284.53a73.6,73.6,0,0,0-40.6-10.12c-26.47,1-81.92,1.54-139.21,3,66.7,3.59,81.71,7.87,140.29,21.94C925,302.58,952,290.59,952,290.59Z"/><path class="cls-3" d="M333.75,257.61l-40.21,14S216.2,273,177.62,286.76c5.48-2.25,11.33-4.49,17.54-6.66,49.75-17.47,103.33-21.83,112.38-21.83h17.82A45.26,45.26,0,0,0,333.75,257.61Z"/><path class="cls-3" d="M1032.08,290.15c-.25,1.44-2.5,9.75.32,16.44,0,0-14.48-20.25-23.77-20.93h0a20.22,20.22,0,0,1,12.81-11.61l12.46-3.77h0C1034.67,278.32,1032.89,285.75,1032.08,290.15Z"/><path class="cls-3" d="M383.68,404.69A93.44,93.44,0,0,0,238,333.27,84,84,0,0,1,354.75,410.6Z"/><path class="cls-3" d="M354.75,410.6s79.19-19.73,225.37-26.43,193.09-7.73,193.09-7.73l17.95-35.05a11.08,11.08,0,0,0-10.32-16.12L354.75,342.81Z"/></g></svg>