<svg xmlns="http://www.w3.org/2000/svg" viewBox="0 0 1152 648"><defs><style>.cls-1{fill:#1d4bbc;}.cls-2{fill:#fff;}.cls-3{fill:#d9c8b7;}</style></defs><g id="Layer_1" data-name="Layer 1"><rect class="cls-1" width="1152" height="648"/><path class="cls-2" d="M892.91,269.11s20.49-55.3,4.17-105.88-49-51.12-49-51.12l-26.65,12-73-30.49A166.81,166.81,0,0,0,513.3,195.32a235.74,235.74,0,0,0,72.86,74.12l-7,4.84A27.28,27.28,0,0,0,567,291.16l-4.21-5.73-27.07,17.09a20.66,20.66,0,1,0,30.55,27.82l10.12-11.48a27.4,27.4,0,0,0,31.61,2L646.18,297a234.31,234.31,0,0,0,66.61,9.61,233.26,233.26,0,0,0,119.68-32.84Z"/><path d="M486.13,331.4l-.78,2.24c-2.07.07-4.17.11-6.26.11s-4.08,0-6.11-.11a42.87,42.87,0,0,1-33.69-18.58,172.82,172.82,0,0,1-9.46-15.33,30.17,30.17,0,0,1,10.28-39.8q2.79-1.79,5.65-3.46a163.69,163.69,0,0,0,36.84,59A15.58,15.58,0,0,1,486.13,331.4Z"/><path d="M602.78,268.72l-.48,7.85a16.1,16.1,0,0,1-5.1,10.85l-.38.35a177.66,177.66,0,0,1-15.54,12.76l5.29-27.79a17.79,17.79,0,0,0-2-12.1,164.65,164.65,0,0,0-17.34-24.85,171.12,171.12,0,0,1,24.1,6.54l9.31,16.75A17.61,17.61,0,0,1,602.78,268.72Z"/><path class="cls-1" d="M586.53,272.91l-5.25,27.62a172.87,172.87,0,0,1-95.93,33.11l.78-2.24a15.58,15.58,0,0,0-3.53-16,163.69,163.69,0,0,1-36.84-59,174.27,174.27,0,0,1,121.43-20.68,164.62,164.62,0,0,1,17.25,24.69A18.16,18.16,0,0,1,586.53,272.91Z"/><path class="cls-2" d="M715.41,367.36a283,283,0,0,1-4.63,32.85c-1.82,9.56-4.36,20.78-7.85,33.06-8.31,29.2-30.12,62.94-30.12,62.94-33.69,25.07-67.08,46.46-119.95,60.51l-158-9.48c-44.75-2.68-100.63,24.62-101.48,25.1.17-.69,8.83-34.54-2.18-73-11.11-38.8-42.59-62.12-42.59-62.12l43.05-12.69a103.85,103.85,0,0,1,104.28-28.32c9.91,2.88,20.36,7.32,30.69,7.41,8.92.08,44.85.51,53.15,1.19a196.82,196.82,0,0,1,29-8.11h0l.26-.2c4.24-3.23,58.69-44.59,71.69-48.87a20.57,20.57,0,0,1,5.69-1c10.7-.42,18.44,7.73,18.44,7.73s19.46-33.56,36.41-34.63c14.55-.92,18,9,18,9,9.54-10.7,24.84-5.24,24.84-5.24,14.34,5.67,9.3,24.86,6.72,32.28a26,26,0,0,1,4.68-.15q1,.06,2,.21a25.47,25.47,0,0,1,17.31,10.65A9.44,9.44,0,0,1,715.41,367.36Z"/><path class="cls-3" d="M681.12,398.44a16.43,16.43,0,0,0-22.62-5.32l-21.62,14.07s7.84,8.1,9.71,17.52a32.79,32.79,0,0,1-1.67,17.16l30.88-20.82A16.42,16.42,0,0,0,681.12,398.44Z"/><path class="cls-3" d="M600.31,173.14l-27.4.33c3.3,11.78,11.49,21.3,24.07,27.65a36.32,36.32,0,0,0,12.45-3.32c8.68-4.13,10.58-13.36,4.2-19.52l-.5-.47A19.09,19.09,0,0,0,600.31,173.14Z"/><path d="M496.16,195.27l-7.79,8.26a6,6,0,0,0-.81,6.36l14.62,31a7.23,7.23,0,0,0,5.66,4.08l45,10a7.27,7.27,0,0,0,5.11-1.31l15-11.21,4.17-5.43Z"/><path class="cls-1" d="M535.57,188l-33.82,4.56a8.06,8.06,0,0,0-6.86,11.51l13.69,28.81a8,8,0,0,0,6.3,4.54l44.27,9.9a8.08,8.08,0,0,0,5.69-1.46l12.31-8.85-16.14-35-20.79-12.82A8.12,8.12,0,0,0,535.57,188Z"/><path d="M544.51,208.59l5.23,10.68A31.49,31.49,0,0,0,574,236.65l3.12.4L573,242.48l18.31,2.18,8.52-8.88-6.17-18.13s-8.24-1.55-16-9.25a56.9,56.9,0,0,1-9-11.06l-17.91.78A7.27,7.27,0,0,0,544.51,208.59Z"/><path class="cls-3" d="M669,470.11a34.65,34.65,0,0,0-27.36-16.27,32,32,0,0,0-15.8,2.76C602,468,532.19,506,532.19,506s78.81-33.56,101.7-42.66A34.68,34.68,0,0,1,669,470.11Z"/><path class="cls-3" d="M659.24,328.76S639,358.65,634.9,374.47c-6.74,3.23-16.61,13.45-16.61,13.45s10.89-18,22.41-35.3S659.24,328.76,659.24,328.76Z"/><path class="cls-3" d="M593.37,368.1S561,398.17,556.87,414l-21.26,7.78a275.89,275.89,0,0,0,25.16-24.07A299.15,299.15,0,0,1,593.37,368.1Z"/><path class="cls-3" d="M655.56,382.8s10.57.81,18.22,5c8.36-6.13,4.16-19.37,4.16-19.37A56.24,56.24,0,0,1,668,379C662.91,383.19,655.56,382.8,655.56,382.8Z"/><path class="cls-3" d="M660.48,142.56a171.34,171.34,0,0,1-42.11,15,48.55,48.55,0,0,0,1-30.8c.06.94.09,1.9.09,2.85A47.85,47.85,0,0,1,602.82,166c3.68-.6,24.66,2.41,62.74-19.81,25.93-15.12,40.25-40,40.25-40A144.72,144.72,0,0,1,660.48,142.56Z"/><path class="cls-3" d="M604.19,218.53c39,.27,66.9-11.79,79.5-19.76,10.79,13.41,55.11,30.55,73.88,29.19-40.52,3.26-76.69-16.16-76.69-16.16S629.37,226.73,604.19,218.53Z"/><path class="cls-3" d="M626.22,245.36s3.26,12.69-1.45,19.94c7.79-.36,10.69-1.08,17.76.73C634.19,262.22,626.22,245.36,626.22,245.36Z"/><ellipse cx="501.14" cy="288.77" rx="14.14" ry="11.76"/><ellipse cx="479.74" cy="260.3" rx="14.14" ry="11.76"/><polygon points="384.82 232.42 366.08 225.28 376 216.78 494.43 216.78 502.58 232.42 451.85 232.42 445.39 230.13 439 232.42 431.19 230.17 426.09 232.42 406.17 232.42 398.62 230.04 392.7 232.42 384.82 232.42"/><polygon points="366.08 225.28 366.08 222.43 371.88 222.6 366.08 225.28"/><polygon class="cls-1" points="384.82 229.57 366.08 222.43 376 213.93 494.43 213.93 502.58 229.57 451.85 229.57 445.39 227.28 439 229.57 431.19 227.32 426.09 229.57 406.17 229.57 398.62 227.19 392.7 229.57 384.82 229.57"/><path d="M498.38,221.48l-27.25.08H443.74l-27.39-.06c-9.12-.06-18.25.12-27.37-.42V221c9.12-.53,18.25-.35,27.37-.41l27.39-.07h27.39l26.86.08Z"/></g></svg>