<svg id="Layer_3" data-name="Layer 3" xmlns="http://www.w3.org/2000/svg" xmlns:xlink="http://www.w3.org/1999/xlink" viewBox="0 0 486 648"><defs><style>.cls-1{fill:none;}.cls-2{clip-path:url(#clip-path);}.cls-3{fill:#fff;}.cls-4{fill:#c7c8c6;}.cls-5{fill:#bef434;}.cls-6,.cls-7{fill:#242423;}.cls-11,.cls-7{fill-rule:evenodd;}.cls-8{clip-path:url(#clip-path-2);}.cls-9{fill:#e3e4e2;}.cls-10{fill:#f2f3f1;}.cls-11,.cls-12{fill:#777876;}</style><clipPath id="clip-path"><rect class="cls-1" width="486" height="648"/></clipPath><clipPath id="clip-path-2"><rect class="cls-1" x="62.93" y="110.74" width="360.14" height="159.21"/></clipPath></defs><g class="cls-2"><rect class="cls-3" x="45.36" y="-275.76" width="395.28" height="878.4"/><path class="cls-4" d="M179,312.61h.33a.18.18,0,0,1,.15.07.25.25,0,0,1,.06.16v.81c0,.15-.07.22-.21.22H179a2.06,2.06,0,0,1-1.06-.29,2.35,2.35,0,0,1-.76-.86,2.45,2.45,0,0,1-.83.86,2.23,2.23,0,0,1-1.1.29h-2.1a1.78,1.78,0,0,1-.65-.12,1.74,1.74,0,0,1-.87-.9,1.56,1.56,0,0,1-.13-.64v-1.63h.91v1.35a.76.76,0,0,0,.15.48.58.58,0,0,0,.47.2h2.24a1.24,1.24,0,0,0,.58-.14,1.19,1.19,0,0,0,.43-.37,1.11,1.11,0,0,0,.25-.51,1.14,1.14,0,0,0,0-.58l-1.13-4.14,1-.36,1.46,5.22a1.18,1.18,0,0,0,.41.63A1.15,1.15,0,0,0,179,312.61Zm2.19,0a1.05,1.05,0,0,0,.78-.33,1,1,0,0,0,.32-.76v-2.83h1.06v2.83a2.39,2.39,0,0,1-.18.92,2.17,2.17,0,0,1-.51.75,2.27,2.27,0,0,1-.75.49,2.12,2.12,0,0,1-.91.19h-1.67a.19.19,0,0,1-.22-.22v-.81a.25.25,0,0,1,.06-.16.2.2,0,0,1,.16-.07ZM179.4,317h1.3v-1.31h-1.3Zm2.1,0h1.31v-1.31H181.5Zm5.23-3.15h-1.06V303.74h1.06Zm3.6-3.84a1.13,1.13,0,0,0-.28.3,1.1,1.1,0,0,0-.11.45v.58a1.41,1.41,0,0,0,.11.54,1.44,1.44,0,0,0,.29.46,2.06,2.06,0,0,0,.46.31,1.51,1.51,0,0,0,.56.11h.43a1.25,1.25,0,0,0,.57-.13,1.55,1.55,0,0,0,.44-.3,1.82,1.82,0,0,0,.29-.45,1.22,1.22,0,0,0,.11-.52v-.59a.77.77,0,0,0-.11-.41.83.83,0,0,0-.3-.37l-.27-.17-.41-.28-.55-.36Zm-.11-3.06.49.33c.14.11.31.22.49.34l.6.4,1.59,1.08a1.88,1.88,0,0,1,.64.78,2.24,2.24,0,0,1,.23,1v.55a2.55,2.55,0,0,1-.18.95,2.63,2.63,0,0,1-.53.82,2.68,2.68,0,0,1-.81.57,2.6,2.6,0,0,1-1,.2h-.33a2.56,2.56,0,0,1-1-.2,2.76,2.76,0,0,1-.8-.57,2.79,2.79,0,0,1-.52-.82,2.37,2.37,0,0,1-.19-.95V311a2.26,2.26,0,0,1,.25-1.08,1.89,1.89,0,0,1,.67-.75l.33-.2.27-.17.28-.19-1-.69Zm7.8,6.9a1.78,1.78,0,0,1-.65-.12,2.25,2.25,0,0,1-.54-.37,2.18,2.18,0,0,1-.35-.54,1.78,1.78,0,0,1-.12-.65v-1.63h.9V312a.73.73,0,0,0,.16.46.54.54,0,0,0,.46.19h2.41a1.36,1.36,0,0,0,.76-.2,1.2,1.2,0,0,0,.55-1.11,1.39,1.39,0,0,0-.17-.61l-1.77-3.16.89-.59,1.76,3.13a2.49,2.49,0,0,1,.36,1.35,2.39,2.39,0,0,1-1.16,2.11,2.38,2.38,0,0,1-1.28.34Zm8-4.74v2.42a1,1,0,0,0,.32.75,1.1,1.1,0,0,0,.78.31h1.54a.18.18,0,0,1,.15.07.21.21,0,0,1,.07.16v.81a.2.2,0,0,1-.22.22h-1.35a1.72,1.72,0,0,1-.73-.16,1.26,1.26,0,0,1-.56-.46v.68a3.29,3.29,0,0,1-.65,1.95,2.74,2.74,0,0,1-.72.72,3.4,3.4,0,0,1-.94.5l-1.75.61-.34-1.06,1.86-.61a2.1,2.1,0,0,0,1.08-.79A2.19,2.19,0,0,0,205,314v-4.86Zm4.58,4.74h-1.94a.2.2,0,0,1-.22-.22v-.83a.19.19,0,0,1,.22-.21h2.08a1.69,1.69,0,0,0,.92-.25,1.76,1.76,0,0,0,.6-.67,1.72,1.72,0,0,0,.17-.94,2.14,2.14,0,0,0-.43-1.05l-2.48-3.38v-.91l4.72-2.41.49,1-4.13,2.1,4.3,5.75a2.12,2.12,0,0,0,.63.57,1.61,1.61,0,0,0,.83.22h.19a.16.16,0,0,1,.13.07.19.19,0,0,1,.08.16v.81a.18.18,0,0,1-.08.16.18.18,0,0,1-.13.06h-.17a2.63,2.63,0,0,1-2.22-1.28l-.81-1.2a2.38,2.38,0,0,1-.28,1.06,2.59,2.59,0,0,1-.64.79,3.13,3.13,0,0,1-.86.47A3,3,0,0,1,210.61,313.87Zm7.8-1.26a1.07,1.07,0,0,0,.79-.33,1.05,1.05,0,0,0,.32-.76v-2.83h1.06v2.83a2.23,2.23,0,0,1-.19.92,2.29,2.29,0,0,1-.5.75,2.42,2.42,0,0,1-.76.49,2.08,2.08,0,0,1-.9.19h-1.68c-.14,0-.21-.07-.21-.22v-.81a.25.25,0,0,1,.06-.16.18.18,0,0,1,.15-.07Zm.94-5.75h1.31v-1.31h-1.31Zm8,2.27v2.42a1,1,0,0,0,.33.75,1.09,1.09,0,0,0,.78.31H230a.18.18,0,0,1,.15.07.25.25,0,0,1,.06.16v.81c0,.15-.07.22-.21.22h-1.36a1.71,1.71,0,0,1-.72-.16,1.34,1.34,0,0,1-.57-.46v.68a3,3,0,0,1-.17,1,3.2,3.2,0,0,1-.47.92,3.08,3.08,0,0,1-.72.72,3.4,3.4,0,0,1-.94.5l-1.75.61-.34-1.06,1.86-.61a2,2,0,0,0,1.07-.79,2.12,2.12,0,0,0,.4-1.26v-4.86Zm6.78,4.74a2.13,2.13,0,0,1-1-.25,2.1,2.1,0,0,1-.8-.77,2.18,2.18,0,0,1-.8.77,2.2,2.2,0,0,1-1,.25H230a.21.21,0,0,1-.16-.06.27.27,0,0,1-.06-.16v-.83a.19.19,0,0,1,.08-.15.2.2,0,0,1,.14-.06h.63a1.05,1.05,0,0,0,.78-.33,1,1,0,0,0,.34-.78v-2.4h1.06v2.45a1.09,1.09,0,0,0,.32.77,1.16,1.16,0,0,0,.79.3h.27a1.24,1.24,0,0,0,.79-.27,1.17,1.17,0,0,0,.43-.73l.46-2.41,1.06.17-.4,2a1.15,1.15,0,0,0,0,.49,1.11,1.11,0,0,0,.22.38,1,1,0,0,0,.38.25,1.39,1.39,0,0,0,.5.09h.15a1,1,0,0,0,.78-.32,1.09,1.09,0,0,0,.33-.8v-2.84H240v2.92a1.08,1.08,0,0,0,.35.74,1.13,1.13,0,0,0,.77.29h.61a.18.18,0,0,1,.14.06.19.19,0,0,1,.08.15v.83a.27.27,0,0,1-.06.16.21.21,0,0,1-.16.06h-.43a2.16,2.16,0,0,1-1-.25,2.08,2.08,0,0,1-.79-.77,2.06,2.06,0,0,1-.81.77,2.13,2.13,0,0,1-1,.25,2.23,2.23,0,0,1-1-.23,1.7,1.7,0,0,1-.7-.79,1.86,1.86,0,0,1-.78.77A2.09,2.09,0,0,1,234.15,313.87Zm3.46-6.49H236.3v-1.31h1.31Zm-2.11,0h-1.3v-1.31h1.3Zm1-1.87h-1.3V304.2h1.3Zm6.19,1.87H244v-1.31h-1.31Zm2.11,0h1.31v-1.31H244.8Zm2.44,6.27c0,.15-.07.22-.21.22h-.95a2,2,0,0,1-.53-.08,2.33,2.33,0,0,1-.49-.21,1.85,1.85,0,0,1-.4-.33,1,1,0,0,1-.23-.4,2.09,2.09,0,0,1-1.77,1h-.95c-.14,0-.21-.07-.21-.22v-.81a.25.25,0,0,1,.06-.16.18.18,0,0,1,.15-.07h1a1.13,1.13,0,0,0,.77-.28,1.2,1.2,0,0,0,.43-.69l.48-2.43,1,.17-.4,2a.9.9,0,0,0,0,.46,1,1,0,0,0,.21.38,1.47,1.47,0,0,0,.37.27,1.18,1.18,0,0,0,.46.09H247a.18.18,0,0,1,.15.07.25.25,0,0,1,.06.16Zm1.92-6.27h1.31v-1.31h-1.31Zm3.4,6.27a.19.19,0,0,1-.22.22h-1a1.88,1.88,0,0,1-.52-.08,2,2,0,0,1-.49-.21,1.64,1.64,0,0,1-.4-.33.86.86,0,0,1-.23-.4,2.08,2.08,0,0,1-.76.74,1.93,1.93,0,0,1-1,.28H247a.19.19,0,0,1-.22-.22v-.81a.25.25,0,0,1,.06-.16.19.19,0,0,1,.16-.07h1a1.11,1.11,0,0,0,.77-.28,1.15,1.15,0,0,0,.43-.69l.48-2.43,1.05.17-.4,2a.9.9,0,0,0,0,.46.86.86,0,0,0,.22.38,1.31,1.31,0,0,0,.37.27,1.14,1.14,0,0,0,.46.09h.93a.19.19,0,0,1,.16.07.25.25,0,0,1,.06.16Zm3.38-1h2.33v-2.06a.89.89,0,0,0-.29-.68.93.93,0,0,0-.69-.29h-1a.93.93,0,0,0-.62.23,1,1,0,0,0-.33.55l-.23,1.25a.82.82,0,0,0,.16.71A.88.88,0,0,0,255.94,312.61Zm-1.93-1,.33-1.58a2,2,0,0,1,.24-.67,2.51,2.51,0,0,1,.45-.52,2.39,2.39,0,0,1,.58-.34,2.12,2.12,0,0,1,.71-.12h.86a2.16,2.16,0,0,1,2,1.31,1.9,1.9,0,0,1,.17.83v1.93a1.33,1.33,0,0,1-.38,1,1.35,1.35,0,0,1-1,.39h-1.87a1.89,1.89,0,0,1-.91-.23,2,2,0,0,1-.66-.79,1.78,1.78,0,0,1-.74.79,2.16,2.16,0,0,1-1,.23h-.44a.2.2,0,0,1-.22-.22v-.83a.22.22,0,0,1,.06-.14.21.21,0,0,1,.16-.07h.49a1.13,1.13,0,0,0,.77-.28A1.08,1.08,0,0,0,254,311.64Zm15.15,4.58a1.46,1.46,0,0,0,.63-.14,1.53,1.53,0,0,0,.54-.35,1.57,1.57,0,0,0,.36-.52,1.51,1.51,0,0,0,.13-.63v-.71H268v-1.26h5.63a.18.18,0,0,1,.13.06.19.19,0,0,1,.08.15v.82a.25.25,0,0,1-.08.17.18.18,0,0,1-.13.06h-1.77a.9.9,0,0,1,.06.34v.53a2.56,2.56,0,0,1-.22,1.07,2.63,2.63,0,0,1-.59.87,2.83,2.83,0,0,1-.88.59,2.67,2.67,0,0,1-1.06.21h-2.65a2.82,2.82,0,0,1-1.19-.25,3,3,0,0,1-1-.66,2.92,2.92,0,0,1-.66-1,2.78,2.78,0,0,1-.25-1.18v-3.69h1.06v3.5a2,2,0,0,0,.15.77,2.72,2.72,0,0,0,.43.65,2.43,2.43,0,0,0,.63.43,2.09,2.09,0,0,0,.79.15Zm5.77-3.61v-1.88a2.09,2.09,0,0,1,.17-.83,2.35,2.35,0,0,1,.45-.69,2.22,2.22,0,0,1,.67-.46,2.29,2.29,0,0,1,.87-.17h.58A1.94,1.94,0,0,1,279,309a2,2,0,0,1,.7,1.19l.23,1.21a2,2,0,0,1,0,.91,2,2,0,0,1-.38.76,2.36,2.36,0,0,1-.69.56,2,2,0,0,1-.88.2h-1.29a1.66,1.66,0,0,1-.32,0l-.31-.09s0,.05,0,.15a1.78,1.78,0,0,0,.3,1.12,1.36,1.36,0,0,0,.89.52l1.38.27,1.25-1.94a2.57,2.57,0,0,1,2.32-1.26h.21c.15,0,.22.07.22.21v.82a.27.27,0,0,1-.06.17.23.23,0,0,1-.16.06h-.47a1.54,1.54,0,0,0-.77.18,2.06,2.06,0,0,0-.57.6l-.16.23a4.78,4.78,0,0,1-.27.43c-.1.18-.22.36-.34.54s-.24.35-.34.51l-.26.41L279,317l-2.29-.51a2.14,2.14,0,0,1-1.34-.83,3,3,0,0,1-.48-1.75h-1.35a.2.2,0,0,1-.15-.06.27.27,0,0,1-.06-.17v-.82a.19.19,0,0,1,.21-.21Zm1.06-1.89v1.89h2a1,1,0,0,0,.37-.08.87.87,0,0,0,.27-.23.67.67,0,0,0,.17-.32.85.85,0,0,0,0-.39l-.2-1a.88.88,0,0,0-.33-.57.93.93,0,0,0-.62-.23H277a.91.91,0,0,0-.68.29A1,1,0,0,0,276,310.72Zm8.29,3.15h-1.93a.19.19,0,0,1-.22-.22v-.83c0-.14.07-.21.22-.21h2.07a1.66,1.66,0,0,0,.91-.25,1.54,1.54,0,0,0,.61-.66,1.64,1.64,0,0,0,.17-.94,2.11,2.11,0,0,0-.43-1.06l-2.47-3.39v-.9l4.72-2.41.49,1-4.14,2.1,2.28,3.05a3,3,0,0,1,.64,1.63,2.86,2.86,0,0,1-1.32,2.67A2.81,2.81,0,0,1,284.28,313.87Zm-1.4-10.3,4.23-2.17.36.82-4.23,2.15Zm9.18,10.3H291V305h1.06Zm-3-9.29V304a1.14,1.14,0,0,1,.34-.86,1.12,1.12,0,0,1,.86-.34h2.92v.94h-2.93a.39.39,0,0,0-.39.4v.44ZM295,317.7l-.34-1.05,1.86-.61a2,2,0,0,0,1.06-.79A2.08,2.08,0,0,0,298,314v-4.86H299v4.77a3.29,3.29,0,0,1-.17,1,3.16,3.16,0,0,1-.48.93,3.11,3.11,0,0,1-.72.73,3.16,3.16,0,0,1-.92.5ZM297.84,306h1.31v1.31h-1.31Zm5.49,7.86a2,2,0,0,1-.88-.2,2.11,2.11,0,0,1-1.07-1.31,1.87,1.87,0,0,1,0-.91l.26-1.39a1.75,1.75,0,0,1,.24-.65,2.09,2.09,0,0,1,.45-.52,1.88,1.88,0,0,1,.58-.34,2.12,2.12,0,0,1,.71-.12h.86a1.9,1.9,0,0,1,.83.17,1.94,1.94,0,0,1,.69.46,1.86,1.86,0,0,1,.46.67,2,2,0,0,1,.17.83v2.05h1.22a.18.18,0,0,1,.15.07.22.22,0,0,1,.06.14v.83c0,.15-.07.22-.21.22h-1.23v.18a3.2,3.2,0,0,1-.66,1.88,3.39,3.39,0,0,1-1.63,1.2l-1.75.6-.34-1.06,1.84-.62a2.09,2.09,0,0,0,1.06-.78,2,2,0,0,0,.42-1.25v-.27a.83.83,0,0,1-.29.1l-.33,0Zm-.11-1.26h2.32v-2.05a.87.87,0,0,0-.29-.67.88.88,0,0,0-.68-.3h-1a1,1,0,0,0-.95.79l-.23,1.23a.8.8,0,0,0,.18.71A.88.88,0,0,0,303.22,312.61Zm6.74-5.23h1.31v-1.31H310Zm3.4,6.27a.2.2,0,0,1-.22.22h-.95a1.82,1.82,0,0,1-.52-.08,2.21,2.21,0,0,1-.5-.21,2.13,2.13,0,0,1-.4-.33,1,1,0,0,1-.23-.4,2,2,0,0,1-.75.74,2,2,0,0,1-1,.28h-1c-.14,0-.21-.07-.21-.22v-.81a.25.25,0,0,1,.06-.16.18.18,0,0,1,.15-.07h1a1.11,1.11,0,0,0,.77-.28,1.15,1.15,0,0,0,.43-.69l.48-2.43,1,.17-.4,2a1,1,0,0,0,0,.46,1,1,0,0,0,.21.38,1.68,1.68,0,0,0,.37.27,1.22,1.22,0,0,0,.46.09h.94a.21.21,0,0,1,.16.07.25.25,0,0,1,.06.16Zm-.22.22a.2.2,0,0,1-.14-.06.19.19,0,0,1-.08-.14v-.86a.16.16,0,0,1,.08-.14.2.2,0,0,1,.14-.06h1.61a.65.65,0,0,1-.34-.43,1.63,1.63,0,0,1,0-.76l.22-1.07a2.17,2.17,0,0,1,.24-.63,2.07,2.07,0,0,1,.43-.49,1.72,1.72,0,0,1,.59-.33,1.84,1.84,0,0,1,.66-.12h.57a2,2,0,0,1,.81.17,1.89,1.89,0,0,1,.66.43,1.76,1.76,0,0,1,.43.66,1.94,1.94,0,0,1,.16.8v1.25a.7.7,0,0,1-.07.36.66.66,0,0,0,0,.16h2.5v-2.15a1.37,1.37,0,0,0-.27-.87,1.4,1.4,0,0,0-.68-.46l-5-1.56.29-1.08,4.94,1.54a2.68,2.68,0,0,1,1.3.87,2.34,2.34,0,0,1,.52,1.57v1.94a1.42,1.42,0,0,1-.38,1.07,1.44,1.44,0,0,1-1.08.39h-2.3v-.72a1.07,1.07,0,0,1-.14.2,1.23,1.23,0,0,1-.26.24,2.36,2.36,0,0,1-.39.2,1.4,1.4,0,0,1-.47.08Zm5-1.26v-1.82a.83.83,0,0,0-.28-.64.84.84,0,0,0-.66-.28h-.69a.86.86,0,0,0-.58.22.88.88,0,0,0-.31.53l-.2,1.05a.78.78,0,0,0,.17.68.86.86,0,0,0,.63.26Z"/><path class="cls-5" d="M62.93,475.27a30.74,30.74,0,0,1,30.74-30.74H392.33a30.74,30.74,0,0,1,30.74,30.74h0A30.74,30.74,0,0,1,392.33,506H93.67a30.74,30.74,0,0,1-30.74-30.75Z"/><path class="cls-6" d="M184.45,478.48h.5a.18.18,0,0,1,.15.09.2.2,0,0,1,.09.17v1.78a.27.27,0,0,1-.07.17.21.21,0,0,1-.17.07h-.35a2.65,2.65,0,0,1-1.25-.28,4,4,0,0,1-.9-.63,3.57,3.57,0,0,1-1,.67,3.07,3.07,0,0,1-1.23.24h-2.3a2.44,2.44,0,0,1-.9-.17,2.52,2.52,0,0,1-.73-.51,2.25,2.25,0,0,1-.69-1.65v-2.29h1.65v1.93a.41.41,0,0,0,.12.3.46.46,0,0,0,.29.11h2.58a1.17,1.17,0,0,0,.49-.11,1.24,1.24,0,0,0,.4-.3,1,1,0,0,0,.22-.42,1,1,0,0,0,0-.49l-1.41-5.08,1.83-.66,1.79,6.37a.94.94,0,0,0,.33.49A.89.89,0,0,0,184.45,478.48Zm4.53,0a.79.79,0,0,0,.6-.25.88.88,0,0,0,.25-.61V474h1.93v3.64a3,3,0,0,1-.25,1.23,3.23,3.23,0,0,1-.68,1,3.31,3.31,0,0,1-1,.67,3.09,3.09,0,0,1-1.22.24h-3.67a.21.21,0,0,1-.17-.07.27.27,0,0,1-.07-.17v-1.78a.21.21,0,0,1,.07-.17.2.2,0,0,1,.17-.09Zm-3.77,6.41h2v-2h-2Zm2.91,0h2v-2h-2Zm14.44-6.41h.49a.21.21,0,0,1,.16.09.21.21,0,0,1,.08.17v1.78a.27.27,0,0,1-.07.17.21.21,0,0,1-.17.07h-.35a2.65,2.65,0,0,1-1.25-.28,3.76,3.76,0,0,1-.9-.63,3.57,3.57,0,0,1-1,.67,3.07,3.07,0,0,1-1.23.24H196a2.48,2.48,0,0,1-.9-.17,2.52,2.52,0,0,1-.73-.51,2.57,2.57,0,0,1-.51-.74,2.38,2.38,0,0,1-.18-.91v-2.29h1.65v1.93a.38.38,0,0,0,.13.3.41.41,0,0,0,.28.11h2.58a1.17,1.17,0,0,0,.49-.11,1.24,1.24,0,0,0,.4-.3,1,1,0,0,0,.22-.42,1,1,0,0,0,0-.49L198,472.08l1.83-.66,1.79,6.37a.94.94,0,0,0,.33.49A.9.9,0,0,0,202.56,478.48Zm.24.26a.25.25,0,0,1,.08-.17.21.21,0,0,1,.16-.09h3.15a4.89,4.89,0,0,0,1.46-.23,3,3,0,0,0,1.23-.79l1-1.09.16-.16s.08-.07.09-.07L206.45,475a.39.39,0,0,0-.32,0,.49.49,0,0,0-.19.23l-.67,1.76-1.68-.46L204,475a2.46,2.46,0,0,1,.5-.93,2.55,2.55,0,0,1,.77-.6,2.31,2.31,0,0,1,.93-.26,2.34,2.34,0,0,1,.95.09l7,2.09-.58,1.81-.82-.25a1.2,1.2,0,0,0-.69,0,1.61,1.61,0,0,0-.51.35l-2,2a4.47,4.47,0,0,1-1.76,1.11,6.22,6.22,0,0,1-2.05.35H203a.21.21,0,0,1-.24-.24Zm5.09,6.17h2v-2h-2ZM225,482.59a1.4,1.4,0,0,0,1-.42,1.42,1.42,0,0,0,.46-1l0-.37H223v-2.28h6.88a.18.18,0,0,1,.18.07.21.21,0,0,1,.07.16v1.79a.24.24,0,0,1-.25.26h-1.56l0,.11a.88.88,0,0,1,0,.24v.28a3.26,3.26,0,0,1-.28,1.37,3.21,3.21,0,0,1-.77,1.11,3.49,3.49,0,0,1-1.16.74,3.6,3.6,0,0,1-1.4.26h-3a3.94,3.94,0,0,1-2.79-1.16,3.79,3.79,0,0,1-1.15-2.77V476.3h1.94v4.36a1.86,1.86,0,0,0,.15.75,2.09,2.09,0,0,0,.43.62,2,2,0,0,0,1.37.56Zm5.92-4.11v-1.76a2.89,2.89,0,0,1,.21-1.11,3,3,0,0,1,.61-.91,2.73,2.73,0,0,1,.9-.6,2.83,2.83,0,0,1,1.12-.22h.72a2.49,2.49,0,0,1,.94.17,2.73,2.73,0,0,1,.79.46,2.43,2.43,0,0,1,.61.7,2.7,2.7,0,0,1,.35.88l.27,1.35a2.51,2.51,0,0,1,0,1.25,2.63,2.63,0,0,1-.54,1.05,3,3,0,0,1-1,.74,2.56,2.56,0,0,1-1.2.28h-.8a3,3,0,0,1-.55-.05c-.16,0-.33-.08-.51-.14v.16a1.8,1.8,0,0,0,.14.68.78.78,0,0,0,.62.42l2,.39,1.78-2.18a4.33,4.33,0,0,1,1.35-1.14,3.57,3.57,0,0,1,1.7-.42h.21a.21.21,0,0,1,.16.07.21.21,0,0,1,.09.17v1.8c0,.16-.08.24-.25.24h-.51a1.75,1.75,0,0,0-.79.2,1.86,1.86,0,0,0-.65.54l-.22.3-.44.54-.53.69-.51.65c-.15.21-.29.38-.4.53l-.18.24-3.86-1a2.05,2.05,0,0,1-.71-.35,2.4,2.4,0,0,1-.52-.61,3,3,0,0,1-.34-.79,4,4,0,0,1-.1-.92h-1c-.17,0-.25-.08-.25-.24v-1.8c0-.16.08-.24.25-.24Zm1.93-1.76v1.76H235a.5.5,0,0,0,.42-.2.54.54,0,0,0,.13-.47l-.23-1.18a.63.63,0,0,0-.23-.4.66.66,0,0,0-.44-.16h-1.16a.68.68,0,0,0-.46.19A.63.63,0,0,0,232.86,476.72Zm10.46,4h-2.58a.24.24,0,0,1-.18-.07.28.28,0,0,1-.07-.19v-1.79a.21.21,0,0,1,.07-.16.21.21,0,0,1,.16-.09h2.79a1.45,1.45,0,0,0,.86-.25,1.58,1.58,0,0,0,.55-.63,1.56,1.56,0,0,0,.17-.81,1.39,1.39,0,0,0-.31-.82l-3-4.06V470.5l6-3,.86,1.7-4.81,2.43,2.58,3.21a3.52,3.52,0,0,1,.72,2.6,3.5,3.5,0,0,1-.39,1.25,4.2,4.2,0,0,1-.81,1.07,3.91,3.91,0,0,1-1.16.74A3.79,3.79,0,0,1,243.32,480.76Zm-2.16-12.59,5.53-2.82.6,1.36-5.52,2.83Zm12.19,12.59h-1.93V470.1h1.93ZM249,469.66v-.93a1.5,1.5,0,0,1,.51-1.23,1.72,1.72,0,0,1,1.14-.44h3.63v1.67h-3.42a.35.35,0,0,0-.28.12.37.37,0,0,0-.09.25v.56ZM261.52,474h2v-2h-2Zm2.93,0h2v-2h-2Zm-5.22,0V477a1.4,1.4,0,0,0,.42,1,1.45,1.45,0,0,0,1,.41h7.2a.85.85,0,0,0,.6-.23.82.82,0,0,0,.25-.6v-3.16h1.93v3.14a.84.84,0,0,0,.84.85H272a.21.21,0,0,1,.24.24v1.8a.21.21,0,0,1-.24.24h-.19a2.72,2.72,0,0,1-1.18-.26,3.19,3.19,0,0,1-.95-.77,2.76,2.76,0,0,1-1,.79,2.93,2.93,0,0,1-1.18.24h-6.67a3.39,3.39,0,0,1-1.39-.28,3.41,3.41,0,0,1-1.9-1.9,3.37,3.37,0,0,1-.28-1.38V474Zm15.17,10.93h2v-2h-2Zm4.48-4.39a.27.27,0,0,1-.07.17.24.24,0,0,1-.18.07H277.3a2.39,2.39,0,0,1-1.13-.3,1.71,1.71,0,0,1-.75-.73,1.6,1.6,0,0,1-.35.4,3.72,3.72,0,0,1-.51.33,2.7,2.7,0,0,1-.58.23,2.46,2.46,0,0,1-.6.07h-1.33c-.17,0-.25-.08-.25-.24v-1.78a.21.21,0,0,1,.07-.17.23.23,0,0,1,.18-.09h1.51a.94.94,0,0,0,.61-.21.88.88,0,0,0,.33-.56l.65-3.17,1.9.34-.52,2.65a.74.74,0,0,0,.15.67.85.85,0,0,0,.64.28h1.31a.23.23,0,0,1,.18.09.21.21,0,0,1,.07.17Zm5.5-8.14h-2v-2h2Zm-2.94,0h-2v-2h2Zm1.44-2.67h-2v-2h2Zm-1.26,8.77a.82.82,0,0,0,.6-.25.87.87,0,0,0,.24-.61V474h1.94v3.64a3.22,3.22,0,0,1-.25,1.23,3.09,3.09,0,0,1-.69,1,3.19,3.19,0,0,1-1,.67,3,3,0,0,1-1.21.24h-2.62a.21.21,0,0,1-.17-.07.27.27,0,0,1-.07-.17v-1.78a.21.21,0,0,1,.07-.17.2.2,0,0,1,.17-.09Z"/><path class="cls-7" d="M308.33,466.49h-2.2v7.68h-7.68v2.2h7.68v7.69h2.2v-7.69H316v-2.2h-7.69Z"/><g class="cls-8"><path class="cls-9" d="M67.2,144.16l-1.67-27.37s8.71-9.48,27.81-4.22S125,141.84,125,141.84Z"/><path class="cls-9" d="M129.62,134v8.25h9.29a5.25,5.25,0,0,0,3.76-1.44,5.33,5.33,0,0,0,1.67-3.69,2.74,2.74,0,0,0-3.07-3.08Z"/><path class="cls-9" d="M142.1,205.75c2.83,0,5.12-8.66,5.12-19.35s-2.29-19.34-5.12-19.34S137,175.72,137,186.4,139.28,205.75,142.1,205.75Z"/><path class="cls-9" d="M75,259.6c6.65,0,12.05-14.26,12.05-31.84S81.64,195.91,75,195.91s-12.06,14.26-12.06,31.85S68.33,259.6,75,259.6Z"/><path class="cls-5" d="M123.17,263.87H111.36l58.73-68h7.24Z"/><path class="cls-5" d="M138.91,263.87H94.83L88.77,270h46.37Z"/><path class="cls-9" d="M356.38,134v8.25h-9.29a5.25,5.25,0,0,1-3.76-1.44,5.33,5.33,0,0,1-1.67-3.69,2.74,2.74,0,0,1,3.07-3.08Z"/><path class="cls-9" d="M343.9,205.75c2.82,0,5.11-8.66,5.11-19.35s-2.29-19.34-5.11-19.34-5.12,8.66-5.12,19.34S341.07,205.75,343.9,205.75Z"/><path class="cls-9" d="M411,259.6c6.65,0,12.05-14.26,12.05-31.84s-5.4-31.85-12.05-31.85S399,210.17,399,227.76,404.36,259.6,411,259.6Z"/><path class="cls-5" d="M362.83,263.87h11.81l-58.72-68h-7.25Z"/><path class="cls-5" d="M347.09,263.87h44.08l6.06,6.08H350.86Z"/><path class="cls-9" d="M257.8,230.86c0,3.54-7.73,6.4-17.26,6.4s-17.27-2.86-17.27-6.4v-4H257.8Z"/><path class="cls-3" d="M240.54,233.69c9.53,0,17.26-2.88,17.26-6.43s-7.73-6.43-17.26-6.43-17.27,2.88-17.27,6.43S231,233.69,240.54,233.69Z"/><path class="cls-9" d="M240.54,231c7.55,0,13.68-1.66,13.68-3.71s-6.13-3.71-13.68-3.71-13.68,1.66-13.68,3.71S233,231,240.54,231Z"/><path class="cls-9" d="M246.66,191.35l7.56,35.91H226.86l7.56-35.91Z"/><path class="cls-9" d="M240.54,193.21c3.38,0,6.11-.83,6.11-1.86s-2.73-1.86-6.11-1.86-6.12.84-6.12,1.86S237.16,193.21,240.54,193.21Z"/><path class="cls-3" d="M240.54,193.21c3.38,0,6.11-.83,6.11-1.86s-2.73-1.86-6.11-1.86-6.12.84-6.12,1.86S237.16,193.21,240.54,193.21Z"/><path class="cls-3" d="M248.53,200.24c0,1.34-3.58,2.43-8,2.43s-8-1.09-8-2.43l-.74,3.51c0,1.46,3.9,2.64,8.72,2.64s8.73-1.18,8.73-2.64Z"/><path class="cls-3" d="M250.76,210.85c0,1.54-4.57,2.78-10.22,2.78s-10.23-1.25-10.23-2.78l-.73,3.5c0,1.64,4.9,3,11,3s11-1.33,11-3Z"/><path class="cls-3" d="M104.88,142.91l-6.12.24a154,154,0,0,0-7.36-17.54c-4.08-7.92-8.19-14.67-8.33-14.87a38.32,38.32,0,0,1,5.33.52c2.29,4,6.17,10.77,8.54,15.27C99.74,131.86,103.46,139.72,104.88,142.91Z"/><path class="cls-9" d="M418.8,144.16l1.68-27.37s-8.71-9.48-27.81-4.22S361,141.84,361,141.84Z"/><path class="cls-3" d="M381.12,142.91l6.12.24a157.67,157.67,0,0,1,7.36-17.54c4.08-7.92,8.19-14.67,8.33-14.87a38.32,38.32,0,0,0-5.33.52c-2.28,4-6.17,10.77-8.54,15.27C386.26,131.86,382.55,139.72,381.12,142.91Z"/></g><rect class="cls-10" x="45.36" y="523.58" width="395.28" height="79.06"/><path class="cls-11" d="M84.89,555.43a2.2,2.2,0,1,1-2.18,2.19A2.19,2.19,0,0,1,84.89,555.43Zm2.18-5.49a2.18,2.18,0,1,0-2.18,2.19A2.19,2.19,0,0,0,87.07,549.94Zm0-7.69a2.18,2.18,0,1,0-2.18,2.2A2.2,2.2,0,0,0,87.07,542.25Z"/><path class="cls-12" d="M75.44,579v2a.41.41,0,0,0,.16.33.6.6,0,0,0,.36.12h.81a.13.13,0,0,1,.15.15v1.12a.14.14,0,0,1-.15.16h-.61a1.46,1.46,0,0,1-.39-.07.55.55,0,0,1-.33-.27v.19a2.09,2.09,0,0,1-.15.79,2.41,2.41,0,0,1-.37.71,2.74,2.74,0,0,1-1.29.92l-1.52.51-.37-1.13,1.58-.51a1.18,1.18,0,0,0,.66-.5,1.27,1.27,0,0,0,.25-.78V579Zm1.73-1h1.27v-1.26H77.17ZM79,578h1.26v-1.26H79Zm2,4.74a.16.16,0,0,1-.05.11.14.14,0,0,1-.11,0h-.83a1.5,1.5,0,0,1-.7-.19,1.07,1.07,0,0,1-.48-.46.84.84,0,0,1-.22.25l-.31.21a1.35,1.35,0,0,1-.37.14,1.57,1.57,0,0,1-.37,0h-.83a.14.14,0,0,1-.16-.16v-1.11a.16.16,0,0,1,0-.11.13.13,0,0,1,.11,0h.94a.62.62,0,0,0,.38-.13.61.61,0,0,0,.21-.35l.41-2,1.19.21-.33,1.66a.44.44,0,0,0,.09.41.52.52,0,0,0,.4.18h.82a.14.14,0,0,1,.11,0,.16.16,0,0,1,.05.11Zm2.82.16a1.86,1.86,0,0,1-.74-.16,1.61,1.61,0,0,1-.6-.49,1.52,1.52,0,0,1-.62.49,1.77,1.77,0,0,1-.73.16h-.29a.17.17,0,0,1-.15-.16v-1.11a.17.17,0,0,1,.15-.16h.5a.49.49,0,0,0,.37-.16.52.52,0,0,0,.15-.38v-2h1.21v2a.42.42,0,0,0,.17.33.57.57,0,0,0,.35.12H84a.62.62,0,0,0,.38-.13.66.66,0,0,0,.21-.37l.39-2,1.19.22-.33,1.67a.47.47,0,0,0,.1.41.52.52,0,0,0,.4.18h.3a.55.55,0,0,0,.37-.14.54.54,0,0,0,.15-.38v-2.27h1.21v2.27a.54.54,0,0,0,.15.38.57.57,0,0,0,.38.14h.46a.16.16,0,0,1,.11,0,.14.14,0,0,1,0,.1v1.11a.16.16,0,0,1,0,.12.13.13,0,0,1-.11,0h-.27a1.81,1.81,0,0,1-.73-.16,1.38,1.38,0,0,1-.59-.49,1.52,1.52,0,0,1-.62.49,1.84,1.84,0,0,1-.73.16,1.74,1.74,0,0,1-.71-.15,1.33,1.33,0,0,1-.56-.5,1.51,1.51,0,0,1-.58.5A1.65,1.65,0,0,1,83.86,582.88ZM86.49,578H85.23v-1.26h1.26Zm-1.83,0H83.4v-1.26h1.26Zm.9-1.67H84.3v-1.26h1.26Zm4.29,9.14H91.1v-1.27H89.85Zm1.82,0h1.26v-1.27H91.67Zm1.93-2.74a.15.15,0,0,1,0,.11.16.16,0,0,1-.11,0h-.83a1.57,1.57,0,0,1-.71-.19,1.1,1.1,0,0,1-.47-.46.84.84,0,0,1-.22.25,3,3,0,0,1-.32.21,1.42,1.42,0,0,1-.36.14,1.57,1.57,0,0,1-.37,0h-.84a.14.14,0,0,1-.15-.16v-1.11a.15.15,0,0,1,0-.11.16.16,0,0,1,.11,0h1a.65.65,0,0,0,.38-.13.61.61,0,0,0,.21-.35l.41-2,1.18.21-.33,1.66a.47.47,0,0,0,.1.41.5.5,0,0,0,.4.18h.82a.16.16,0,0,1,.11,0,.15.15,0,0,1,0,.11Zm.14,1.47H95v1.27H93.74Zm1.58-2.74a.49.49,0,0,0,.37-.16.52.52,0,0,0,.15-.38v-2.27h1.21v2.27a2,2,0,0,1-.15.77,2.2,2.2,0,0,1-.43.63,2,2,0,0,1-.63.41,1.87,1.87,0,0,1-.75.16H93.45a.16.16,0,0,1-.11,0,.15.15,0,0,1,0-.11v-1.11a.15.15,0,0,1,0-.11.16.16,0,0,1,.11,0Z"/><path class="cls-7" d="M160.89,551H167l1.43-6.45a4.64,4.64,0,0,0-2.5-5.16,4.6,4.6,0,0,0-6.45,5.16Zm3.05,2.2a18.42,18.42,0,0,1,8.11,1.89l.61.3v5.49H155.23v-5.49l.61-.3A18.38,18.38,0,0,1,163.94,553.23Z"/><path class="cls-6" d="M148.7,584.8a2.39,2.39,0,0,1-1-.2,2.34,2.34,0,0,1-.79-.53,2.48,2.48,0,0,1-.52-.78,2.34,2.34,0,0,1-.19-.95v-2.9h1.21v2.71a1,1,0,0,0,.1.47,1.16,1.16,0,0,0,.26.39,1.19,1.19,0,0,0,.38.25,1.1,1.1,0,0,0,.47.1h2a1,1,0,0,0,.7-.29.91.91,0,0,0,.29-.69v-7h1.21v5.58a.54.54,0,0,0,.15.38.55.55,0,0,0,.37.14H154a.16.16,0,0,1,.11,0,.14.14,0,0,1,0,.1v1.11a.15.15,0,0,1-.15.17h-.49a1.19,1.19,0,0,1-.4-.07.69.69,0,0,1-.33-.27v.19a1.72,1.72,0,0,1-.16.7,2.18,2.18,0,0,1-.44.66,2.1,2.1,0,0,1-1.6.71Zm7.86-3.35a.49.49,0,0,0,.37-.16.52.52,0,0,0,.15-.38v-2.27h1.21v2.27a2,2,0,0,1-.15.77,2.43,2.43,0,0,1-.43.63,2,2,0,0,1-.63.41,1.87,1.87,0,0,1-.75.16H154a.16.16,0,0,1-.11,0,.15.15,0,0,1,0-.11v-1.11a.15.15,0,0,1,0-.11.16.16,0,0,1,.11,0Zm-2.36,4h1.25v-1.27H154.2Zm1.82,0h1.26v-1.27H156Zm5.89-2.74a.14.14,0,0,1-.16.16h-.31a1.86,1.86,0,0,1-.75-.15,2.16,2.16,0,0,1-.62-.41,2,2,0,0,1-.41-.62,1.87,1.87,0,0,1-.16-.75v-5.6h1.21v5.57a.55.55,0,0,0,.53.53h.51a.13.13,0,0,1,.11,0,.16.16,0,0,1,0,.11Zm1.91-3.34h1.48v-1.14a.38.38,0,0,0-.12-.29.41.41,0,0,0-.3-.12H164a.45.45,0,0,0-.28.09.38.38,0,0,0-.14.26l-.14.78a.33.33,0,0,0,.06.29A.34.34,0,0,0,163.82,579.38Zm2.69,1.53a2,2,0,0,1-.59,1.4,1.92,1.92,0,0,1-.62.41,2,2,0,0,1-.76.16h-2.79a.15.15,0,0,1-.15-.17V581.6a.14.14,0,0,1,0-.1.13.13,0,0,1,.11,0h3a.55.55,0,0,0,.53-.53v-.23a1.92,1.92,0,0,1-.66.12H164a1.8,1.8,0,0,1-.76-.17,1.73,1.73,0,0,1-.92-1.13,1.86,1.86,0,0,1,0-.78l.16-.88a1.71,1.71,0,0,1,.21-.56,1.84,1.84,0,0,1,.39-.44,1.51,1.51,0,0,1,.49-.29,1.71,1.71,0,0,1,.59-.11h.6a1.58,1.58,0,0,1,.69.15,1.73,1.73,0,0,1,.57.38,1.93,1.93,0,0,1,.52,1.25Zm-2.63-6.71h1.26v1.26h-1.26Zm8,8.45a2.51,2.51,0,0,1-.13.82,2.64,2.64,0,0,1-.37.73,2.71,2.71,0,0,1-.57.6,2.43,2.43,0,0,1-.75.39l-1.5.52-.38-1.15,1.55-.52a1.47,1.47,0,0,0,.67-.46,1.13,1.13,0,0,0,.26-.76v-.08a1.39,1.39,0,0,1-.29.1,1.45,1.45,0,0,1-.35,0h-.74a1.72,1.72,0,0,1-.75-.17,2,2,0,0,1-.58-.46,1.9,1.9,0,0,1-.33-.65,1.81,1.81,0,0,1,0-.77l.19-1a1.33,1.33,0,0,1,.21-.54,1.68,1.68,0,0,1,.38-.45,1.63,1.63,0,0,1,.49-.29,1.73,1.73,0,0,1,.6-.11h.61a1.87,1.87,0,0,1,.71.14,2,2,0,0,1,.57.4,1.9,1.9,0,0,1,.38.57,1.65,1.65,0,0,1,.14.7Zm-1.2-1.2v-1.21a.42.42,0,0,0-.13-.3.39.39,0,0,0-.29-.13h-.89a.4.4,0,0,0-.26.1.44.44,0,0,0-.15.25l-.17.88a.34.34,0,0,0,.06.29.38.38,0,0,0,.28.12Zm5.12-2.5v2a.42.42,0,0,0,.17.33.6.6,0,0,0,.36.12h.8a.13.13,0,0,1,.15.15v1.12a.14.14,0,0,1-.15.16h-.6a1.46,1.46,0,0,1-.4-.07.55.55,0,0,1-.33-.27v.19a2.3,2.3,0,0,1-.14.79,2.67,2.67,0,0,1-.37.71,2.76,2.76,0,0,1-.58.55,2.58,2.58,0,0,1-.72.37l-1.51.51-.38-1.13,1.58-.51a1.18,1.18,0,0,0,.66-.5,1.27,1.27,0,0,0,.25-.78V579Zm1.62,5.24h1.26v1.27h-1.26Zm1.83,0h1.26v1.27h-1.26Zm-.93,1.67h1.26v1.27h-1.26Zm1.34-4.41a.49.49,0,0,0,.37-.16.52.52,0,0,0,.15-.38v-2.27h1.21v2.27a2,2,0,0,1-.15.77,2.43,2.43,0,0,1-.43.63,2.08,2.08,0,0,1-.63.41,1.87,1.87,0,0,1-.75.16h-2.3a.16.16,0,0,1-.11,0,.15.15,0,0,1,0-.11v-1.11a.15.15,0,0,1,0-.11.16.16,0,0,1,.11,0Z"/><path class="cls-11" d="M244.09,541.15h-2.18v7.69h-7.62V551h7.62v7.69h2.18V551h7.62v-2.19h-7.62Z"/><path class="cls-12" d="M226.73,584a.85.85,0,0,0,.64-.27.87.87,0,0,0,.29-.64v-.23H225.5v-1.43h4.3a.12.12,0,0,1,.11,0,.14.14,0,0,1,0,.1v1.12a.16.16,0,0,1-.15.17h-1a.22.22,0,0,1,0,.06.41.41,0,0,1,0,.16v.17a2.07,2.07,0,0,1-.18.86,2.38,2.38,0,0,1-.48.69,2.21,2.21,0,0,1-.73.46,2.3,2.3,0,0,1-.88.17h-1.86a2.39,2.39,0,0,1-1-.2,2.49,2.49,0,0,1-.79-.53,2.69,2.69,0,0,1-.53-.78,2.47,2.47,0,0,1-.18-1v-2.9h1.21v2.72a1.19,1.19,0,0,0,.09.47,1.36,1.36,0,0,0,.27.39,1.09,1.09,0,0,0,.38.25,1.28,1.28,0,0,0,.47.1Zm3.7-2.57v-1.1a1.74,1.74,0,0,1,.51-1.26,1.79,1.79,0,0,1,.56-.38,1.87,1.87,0,0,1,.71-.14h.45a1.66,1.66,0,0,1,.58.11,1.63,1.63,0,0,1,.49.29,1.39,1.39,0,0,1,.39.44,1.92,1.92,0,0,1,.22.55l.16.84a1.58,1.58,0,0,1,0,.78,1.73,1.73,0,0,1-.34.66,1.92,1.92,0,0,1-.59.46,1.6,1.6,0,0,1-.75.18h-.51a1.27,1.27,0,0,1-.34,0l-.32-.08v.09a1.07,1.07,0,0,0,.09.43.52.52,0,0,0,.39.27l1.28.24,1.11-1.36a2.79,2.79,0,0,1,.85-.72,2.28,2.28,0,0,1,1.06-.26h.13a.13.13,0,0,1,.1,0,.14.14,0,0,1,.06.11v1.12a.15.15,0,0,1-.16.16h-.32a1.11,1.11,0,0,0-.49.12,1.12,1.12,0,0,0-.41.34l-.14.18c-.07.1-.16.21-.27.34l-.33.43-.32.41L234,585l-.11.15-2.42-.64a1.19,1.19,0,0,1-.44-.21,2.12,2.12,0,0,1-.33-.39,2,2,0,0,1-.21-.49,2.76,2.76,0,0,1-.06-.57h-.64a.14.14,0,0,1-.15-.16V581.6a.13.13,0,0,1,.15-.15Zm1.2-1.1v1.1H233a.34.34,0,0,0,.26-.12.37.37,0,0,0,.08-.3l-.15-.73A.38.38,0,0,0,233,580a.45.45,0,0,0-.27-.1H232a.45.45,0,0,0-.41.41Zm6.54,2.53h-1.61a.14.14,0,0,1-.11,0,.17.17,0,0,1,0-.12v-1.12a.16.16,0,0,1,0-.1.14.14,0,0,1,.09,0h1.75a.91.91,0,0,0,.54-.16,1,1,0,0,0,.34-.39,1,1,0,0,0,.11-.51.86.86,0,0,0-.2-.51l-1.88-2.54v-.87l3.73-1.87.53,1.06-3,1.52,1.61,2a1.83,1.83,0,0,1,.39.79,1.94,1.94,0,0,1,.06.83,2.21,2.21,0,0,1-.24.78,2.53,2.53,0,0,1-.51.67,2.4,2.4,0,0,1-.72.46A2.3,2.3,0,0,1,238.17,582.88ZM236.82,575l3.46-1.75.37.84-3.45,1.77Zm7.62,7.88h-1.21v-6.67h1.21Zm-2.7-6.94v-.59a.9.9,0,0,1,.32-.76,1,1,0,0,1,.71-.28H245v1H242.9a.21.21,0,0,0-.17.08.25.25,0,0,0-.06.16v.35Zm7.8,2.7h1.27v-1.26h-1.27Zm1.84,0h1.26v-1.26h-1.26Zm-3.26,0v1.91a.88.88,0,0,0,.26.65.92.92,0,0,0,.65.25h4.5a.51.51,0,0,0,.53-.52v-2h1.2v2a.51.51,0,0,0,.16.37.47.47,0,0,0,.37.16h.33a.13.13,0,0,1,.15.15v1.12a.14.14,0,0,1-.15.16H256a1.71,1.71,0,0,1-.74-.17,2.08,2.08,0,0,1-.59-.48,1.55,1.55,0,0,1-.63.49,1.77,1.77,0,0,1-.73.16h-4.17a2.12,2.12,0,0,1-.87-.18,2.31,2.31,0,0,1-.71-.47,2.39,2.39,0,0,1-.48-.72,2.27,2.27,0,0,1-.17-.86v-2Zm9.48,6.83h1.26V584.2H257.6Zm2.8-2.75a.16.16,0,0,1,0,.11.14.14,0,0,1-.11,0h-.83a1.57,1.57,0,0,1-.71-.19,1.1,1.1,0,0,1-.47-.46.84.84,0,0,1-.22.25,3,3,0,0,1-.32.21,1.42,1.42,0,0,1-.36.14,1.57,1.57,0,0,1-.37,0h-.84a.14.14,0,0,1-.15-.16v-1.11a.15.15,0,0,1,0-.11.16.16,0,0,1,.11,0h.95a.65.65,0,0,0,.38-.13.61.61,0,0,0,.21-.35l.41-2,1.18.21-.33,1.66a.47.47,0,0,0,.1.41.52.52,0,0,0,.4.18h.82a.14.14,0,0,1,.11,0,.16.16,0,0,1,0,.11Zm3.43-5.08h-1.26v-1.26h1.26Zm-1.83,0h-1.26v-1.26H262Zm.9-1.67h-1.26v-1.26h1.26Zm-.79,5.48a.49.49,0,0,0,.37-.16.53.53,0,0,0,.16-.38v-2.27h1.2v2.27a2,2,0,0,1-.15.77,2.2,2.2,0,0,1-.43.63,1.92,1.92,0,0,1-.62.41,2,2,0,0,1-.76.16h-1.64a.16.16,0,0,1-.11,0,.15.15,0,0,1,0-.11v-1.11a.15.15,0,0,1,0-.11.16.16,0,0,1,.11,0Z"/><path class="cls-11" d="M328.58,543.34H331v2.2h-2.74l-.56,3.29-1.12.48a18.49,18.49,0,0,1-1.87,7.69l-.3.61h-1.1V562h-2.19v-4.4H320l-.32-.64a18.66,18.66,0,0,1-1.88-7.69l-1.1-.45-.54-3.29h-2.75v-2.2h2.38l-.18-1.1.32-.38a8.06,8.06,0,0,1,2.8-2.14,8.21,8.21,0,0,1,9.71,2.14l.34.38Zm-8.61,0-.72-1.42a6.33,6.33,0,0,0-1.35,1l.74,4.39,3.52,1.42,3.53-1.39.73-4.39a6,6,0,0,0-1.35-1l-.71,1.42Zm3.29,8.78v2.53a16.41,16.41,0,0,0,1-4.47l-2.13.85-2.13-.84a16.65,16.65,0,0,0,1,4.46v-2.53Zm0-5.49a1.1,1.1,0,1,1-1.1-1.09A1.1,1.1,0,0,1,323.26,546.63Z"/><path class="cls-12" d="M297.74,578.64H299v-1.26h-1.27Zm1.84,0h1.26v-1.26h-1.26Zm-3.26,0v1.91a.88.88,0,0,0,.26.65.94.94,0,0,0,.65.25h4.5a.53.53,0,0,0,.37-.14.51.51,0,0,0,.16-.38v-2h1.2v2a.51.51,0,0,0,.16.37.49.49,0,0,0,.37.16h.33a.13.13,0,0,1,.15.15v1.12a.14.14,0,0,1-.15.16h-.12a1.71,1.71,0,0,1-.74-.17,2.08,2.08,0,0,1-.59-.48,1.59,1.59,0,0,1-.62.49,1.86,1.86,0,0,1-.74.16h-4.17a2.12,2.12,0,0,1-.87-.18,2.31,2.31,0,0,1-.71-.47,2.39,2.39,0,0,1-.48-.72,2.27,2.27,0,0,1-.17-.86v-2ZM308,581.45a.13.13,0,0,1,.1,0,.14.14,0,0,1,.06.11v1.12a.13.13,0,0,1-.06.11.14.14,0,0,1-.1,0h-.49a1.88,1.88,0,0,1-.74-.15,1.79,1.79,0,0,1-.59-.39,2,2,0,0,1-1.35.54h-.48a.14.14,0,0,1-.16-.16V581.6c0-.1.05-.15.16-.15h.7a.47.47,0,0,0,.37-.16.51.51,0,0,0,.16-.37v-5.57h1.2V581a.58.58,0,0,0,.17.34.57.57,0,0,0,.36.13Zm1.4,1.43H308a.14.14,0,0,1-.11-.06.19.19,0,0,1,0-.12v-1.11a.16.16,0,0,1,.05-.1.14.14,0,0,1,.1,0h1.52a.93.93,0,0,0,.54-.16,1,1,0,0,0,.34-.38,1.13,1.13,0,0,0,.11-.52.93.93,0,0,0-.2-.52l-1.88-2.54v-.87l3.72-1.87.54,1.06-3,1.52,3,3.85a1.26,1.26,0,0,0,.37.32,1.12,1.12,0,0,0,.47.11h.14a.13.13,0,0,1,.15.15v1.12a.21.21,0,0,1,0,.11.16.16,0,0,1-.11,0h-.08a1.93,1.93,0,0,1-.85-.2,1.81,1.81,0,0,1-.65-.58l-.49-.67a2.43,2.43,0,0,1-.35.57,2.73,2.73,0,0,1-.5.46,2.57,2.57,0,0,1-.62.31A2.35,2.35,0,0,1,309.38,582.88Zm4.76,2.58h1.25v-1.27h-1.25Zm1.82,0h1.26v-1.27H316Zm1.93-2.74a.15.15,0,0,1,0,.11.16.16,0,0,1-.11,0h-.83a1.57,1.57,0,0,1-.71-.19,1.1,1.1,0,0,1-.47-.46.84.84,0,0,1-.22.25,3,3,0,0,1-.32.21,1.42,1.42,0,0,1-.36.14,1.57,1.57,0,0,1-.37,0h-.84a.14.14,0,0,1-.15-.16v-1.11a.15.15,0,0,1,0-.11.16.16,0,0,1,.11,0h.95a.65.65,0,0,0,.38-.13.61.61,0,0,0,.21-.35l.41-2,1.18.21-.33,1.66a.47.47,0,0,0,.1.41.5.5,0,0,0,.4.18h.82a.16.16,0,0,1,.11,0,.15.15,0,0,1,0,.11Zm2.83.16a1.87,1.87,0,0,1-.75-.16,1.54,1.54,0,0,1-.59-.49,1.71,1.71,0,0,1-.62.49,1.81,1.81,0,0,1-.73.16h-.29a.14.14,0,0,1-.15-.16v-1.11a.13.13,0,0,1,.05-.11.14.14,0,0,1,.1,0h.5a.5.5,0,0,0,.38-.17.54.54,0,0,0,.15-.38V579H320v2a.52.52,0,0,0,.15.38.51.51,0,0,0,.38.16h.32a.65.65,0,0,0,.38-.13.61.61,0,0,0,.21-.35l.4-2,1.19.22-.33,1.64a.45.45,0,0,0,.1.42.49.49,0,0,0,.39.19H324v-2.8h1.21v2.89a1.31,1.31,0,0,1-.11.52,1.26,1.26,0,0,1-.29.43,1.48,1.48,0,0,1-.43.29,1.45,1.45,0,0,1-.51.1h-.69a1.45,1.45,0,0,1-.65-.16,1.33,1.33,0,0,1-.53-.5,1.51,1.51,0,0,1-.58.5A1.66,1.66,0,0,1,320.72,582.88Zm3.74,2.8-.37-1.14,1.58-.51a1.37,1.37,0,0,0,.91-1.27V579h1.21v3.67a2.88,2.88,0,0,1-.13.83,2.42,2.42,0,0,1-.38.73,2.21,2.21,0,0,1-.57.57,2.72,2.72,0,0,1-.73.4Zm6.25-2.8a1.64,1.64,0,0,1-.74-.17,1.73,1.73,0,0,1-.57-.46,1.76,1.76,0,0,1-.34-.65,1.66,1.66,0,0,1,0-.77l.19-1a1.69,1.69,0,0,1,.21-.54,1.89,1.89,0,0,1,.38-.45,1.68,1.68,0,0,1,.5-.29,1.71,1.71,0,0,1,.59-.11h.62a1.86,1.86,0,0,1,.7.14,1.78,1.78,0,0,1,.57.4,1.73,1.73,0,0,1,.38.57,1.66,1.66,0,0,1,.15.7v1.2h.76c.11,0,.16,0,.16.15v1.12a.14.14,0,0,1-.16.16h-.77v0a.52.52,0,0,1,0,.11,2.3,2.3,0,0,1-.56,1.31,2.72,2.72,0,0,1-1.24.84l-1.5.52-.37-1.15,1.54-.52a1.42,1.42,0,0,0,.67-.46,1.14,1.14,0,0,0,.27-.76v-.08a1.5,1.5,0,0,1-.3.1,1.39,1.39,0,0,1-.35,0Zm-.15-1.43h1.55v-1.21a.41.41,0,0,0-.12-.3.42.42,0,0,0-.3-.13h-.89a.4.4,0,0,0-.26.1.48.48,0,0,0-.14.25l-.18.88a.35.35,0,0,0,.07.29A.34.34,0,0,0,330.56,581.45Zm5.39,0a.49.49,0,0,0,.37-.16.52.52,0,0,0,.15-.38v-2.27h1.21v2.27a2,2,0,0,1-.15.77,2.2,2.2,0,0,1-.43.63,2.08,2.08,0,0,1-1.38.57h-1.64a.16.16,0,0,1-.11,0,.15.15,0,0,1,0-.11v-1.11a.15.15,0,0,1,0-.11.16.16,0,0,1,.11,0Zm-1.36-3.81h1.26v-1.26h-1.26Zm1.83,0h1.26v-1.26h-1.26Zm4.07,5.24a1.64,1.64,0,0,1-.74-.17,1.88,1.88,0,0,1-.58-.46,2.12,2.12,0,0,1-.34-.65,1.81,1.81,0,0,1,0-.77l.19-1a1.69,1.69,0,0,1,.21-.54,1.89,1.89,0,0,1,.38-.45,1.56,1.56,0,0,1,.5-.29,1.67,1.67,0,0,1,.59-.11h.61a1.87,1.87,0,0,1,.71.14,1.78,1.78,0,0,1,.57.4,1.73,1.73,0,0,1,.38.57,1.65,1.65,0,0,1,.14.7v1.2h.77c.11,0,.16,0,.16.15v1.12a.14.14,0,0,1-.16.16h-.78v0a.45.45,0,0,1,0,.11,2.3,2.3,0,0,1-.56,1.31,2.72,2.72,0,0,1-1.24.84l-1.5.52-.38-1.15,1.55-.52a1.47,1.47,0,0,0,.67-.46,1.14,1.14,0,0,0,.27-.76v-.08a1.5,1.5,0,0,1-.3.1,1.39,1.39,0,0,1-.35,0Zm-.15-1.43h1.55v-1.21a.41.41,0,0,0-.12-.3.42.42,0,0,0-.3-.13h-.89a.4.4,0,0,0-.26.1.5.5,0,0,0-.15.25L340,581a.32.32,0,0,0,.34.41Zm6,0h1.55v-1.21a.41.41,0,0,0-.42-.42h-.89a.4.4,0,0,0-.26.1.42.42,0,0,0-.14.24L346,581a.35.35,0,0,0,.07.29A.34.34,0,0,0,346.35,581.45Zm-1.56-.48.22-1.14a1.69,1.69,0,0,1,.21-.54,1.87,1.87,0,0,1,.88-.73,1.71,1.71,0,0,1,.59-.11h.62a1.82,1.82,0,0,1,.7.14,1.87,1.87,0,0,1,1,1,1.82,1.82,0,0,1,.14.7v1.29a1.31,1.31,0,0,1-.11.52,1.26,1.26,0,0,1-.29.43,1.38,1.38,0,0,1-.41.29,1.5,1.5,0,0,1-.52.1h-1.27a1.52,1.52,0,0,1-.63-.14,1.38,1.38,0,0,1-.54-.49,1.42,1.42,0,0,1-.56.49,1.59,1.59,0,0,1-.66.14h-.26a.14.14,0,0,1-.15-.16V581.6a.13.13,0,0,1,.15-.15h.35a.57.57,0,0,0,.37-.13A.61.61,0,0,0,344.79,581Z"/><path class="cls-12" d="M408.41,540.82l-.55-.11a34.85,34.85,0,0,0-13.5,0l-.54.11-2.51,5.82h-1.09v2.2h1.09v11h2.18v-3.08a33.43,33.43,0,0,0,15.24,0v3.08h2.18v-11H412v-2.2h-1.09Zm.32,10.65-2.61,1.76h-9.91l-2.61-1.76v-2.63l3.26,2.19h8.61l3.26-2.19Z"/><path class="cls-12" d="M391.54,582.65a2.81,2.81,0,0,1-.13.82,2.67,2.67,0,0,1-.38.73,2.32,2.32,0,0,1-.57.6,2.5,2.5,0,0,1-.74.39l-1.51.52-.37-1.15,1.55-.52a1.52,1.52,0,0,0,.67-.46,1.19,1.19,0,0,0,.26-.76v-.08a1.5,1.5,0,0,1-.3.1,1.34,1.34,0,0,1-.35,0h-.73a1.72,1.72,0,0,1-.75-.17,1.88,1.88,0,0,1-.58-.46,1.61,1.61,0,0,1-.33-.65,1.54,1.54,0,0,1,0-.77l.18-1a1.69,1.69,0,0,1,.21-.54,1.71,1.71,0,0,1,.39-.45,1.51,1.51,0,0,1,.49-.29,1.71,1.71,0,0,1,.59-.11h.62a1.82,1.82,0,0,1,.7.14,1.78,1.78,0,0,1,.57.4,1.92,1.92,0,0,1,.39.57,1.82,1.82,0,0,1,.14.7Zm-1.21-1.2v-1.21a.41.41,0,0,0-.12-.3.42.42,0,0,0-.3-.13H389a.4.4,0,0,0-.26.1.48.48,0,0,0-.14.25l-.18.88a.35.35,0,0,0,.07.29.34.34,0,0,0,.27.12Zm1.8,4.23-.37-1.14,1.58-.51a1.28,1.28,0,0,0,.66-.5,1.33,1.33,0,0,0,.25-.77V579h1.21v3.67a2.88,2.88,0,0,1-.13.83,2.67,2.67,0,0,1-.38.73,2.21,2.21,0,0,1-.57.57,2.72,2.72,0,0,1-.73.4Zm6.1-2.8a1.47,1.47,0,0,1-.56-.11,1.52,1.52,0,0,1-.46-.32,1.38,1.38,0,0,1-.43-1V580h1v1.21a.25.25,0,0,0,.08.18.23.23,0,0,0,.17.07h1.82a.62.62,0,0,0,.35-.1.75.75,0,0,0,.25-.25.56.56,0,0,0,.1-.33.57.57,0,0,0-.09-.36L399.13,578l1-.67,1.46,2.59a1.8,1.8,0,0,1,.25,1,2,2,0,0,1-.27,1,2.16,2.16,0,0,1-.7.71,2,2,0,0,1-1,.28Zm6.45,0a1.66,1.66,0,0,1-1.32-.63,1.92,1.92,0,0,1-.34-.65,1.66,1.66,0,0,1,0-.77l.18-1a1.69,1.69,0,0,1,.21-.54,1.71,1.71,0,0,1,.39-.45,1.51,1.51,0,0,1,.49-.29,1.71,1.71,0,0,1,.59-.11h.62a1.82,1.82,0,0,1,.7.14,1.78,1.78,0,0,1,.57.4,1.92,1.92,0,0,1,.39.57,1.82,1.82,0,0,1,.14.7v1.2h.77a.13.13,0,0,1,.15.15v1.12a.14.14,0,0,1-.15.16h-.78v0s0,.07,0,.11a2.36,2.36,0,0,1-.56,1.31,2.83,2.83,0,0,1-1.24.84l-1.51.52-.37-1.15,1.55-.52a1.47,1.47,0,0,0,.67-.46,1.19,1.19,0,0,0,.26-.76v-.08a1.5,1.5,0,0,1-.3.1,1.34,1.34,0,0,1-.35,0Zm-.16-1.43h1.55v-1.21a.41.41,0,0,0-.12-.3.42.42,0,0,0-.3-.13h-.88a.41.41,0,0,0-.27.1.48.48,0,0,0-.14.25l-.18.88a.35.35,0,0,0,.07.29A.34.34,0,0,0,404.52,581.45Zm5.19-4.32H411v-1.26h-1.27Zm-1.82,4.48a.21.21,0,0,1,.05-.11.16.16,0,0,1,.1,0h2a3.14,3.14,0,0,0,.91-.14,1.91,1.91,0,0,0,.77-.5l.64-.68.09-.1.06,0-2.31-.69a.19.19,0,0,0-.19,0,.33.33,0,0,0-.12.14l-.42,1.1-1.06-.29.29-1a1.62,1.62,0,0,1,.31-.58,1.55,1.55,0,0,1,.48-.37,1.49,1.49,0,0,1,.58-.17,1.45,1.45,0,0,1,.59.06l4.38,1.31-.37,1.13-.51-.16a.86.86,0,0,0-.43,0,1,1,0,0,0-.32.22L412.12,582a2.91,2.91,0,0,1-1.1.7,4.06,4.06,0,0,1-1.29.22H408a.14.14,0,0,1-.15-.16Z"/></g></svg>