<svg xmlns="http://www.w3.org/2000/svg" viewBox="0 0 486 648"><defs><style>.cls-1{fill:#003185;}.cls-2{fill:#001961;}.cls-3{fill:#e24e68;}.cls-4{fill:#1d4bbc;}.cls-5{fill:none;stroke:#000;stroke-miterlimit:10;stroke-width:2px;}</style></defs><g id="Layer_1" data-name="Layer 1"><rect class="cls-1" x="0.31" width="485.38" height="648"/><rect class="cls-2" x="353.84" y="511.87" width="20.75" height="8.89"/><path class="cls-2" d="M485.35,90.2,424,190.71l-26.54,43.47V520.76H370.77l-.4-51.72v0L371.53,450a8.78,8.78,0,0,0,0-1.45l4.23-1.3,1.56-3.62a2.84,2.84,0,0,0-1.78-3.66c-2.75-1.17-8.68-.41-8.68-.41l-2.78-3.6a9,9,0,0,0-4.79-3.2l-7.72-2.08a5.81,5.81,0,0,1-3.42-2.52c-2.33-3.67-7.38-11.59-9.75-15-3.13-4.48-7.83-5.37-21.25-7.17s-30.43-1.45-30.43-1.45V183.17l-18.79-46.31H96.77L.31,0H485.69Z"/><polygon points="85.14 266.84 134.58 309.35 134.58 483.63 86.26 476.02 85.14 266.84"/><path d="M377.31,443.59l-1.56,3.62-4.23,1.3a10.69,10.69,0,0,0-2.21-5.78l-2.46-3.21s5.93-.76,8.68.41A2.84,2.84,0,0,1,377.31,443.59Z"/><path d="M358.61,447.19l-3.93,18.07a7,7,0,0,1-6.81,5.5H264.73c-25.69,0-64,1.35-79.28,1.92a7,7,0,0,1-7.2-6.36L176.81,450s19.53-2.43,44.32-4.13c13.31-.91,28.13-1.61,42.26-1.61,14.35,0,30.51.38,45.39.86C335.81,446,358.61,447.19,358.61,447.19Z"/><path class="cls-3" d="M359.74,442.11l-1.13,5.08s-22.8-1.24-49.83-2.11l2.05-7.62a6.52,6.52,0,0,1,6.42-4.73c6,.12,16.15.54,23.32,1.88s13.49,2.93,17,3.88A3.06,3.06,0,0,1,359.74,442.11Z"/><path class="cls-3" d="M221.13,445.83c-24.79,1.7-44.32,4.13-44.32,4.13V443.6a3.71,3.71,0,0,1,2.54-3.53A112.27,112.27,0,0,1,196,435.94c6.2-1.05,13.62-1.66,18.42-2a5.39,5.39,0,0,1,5.7,4.63Z"/><circle cx="340.46" cy="485.64" r="7.72" transform="translate(-159.93 167.26) rotate(-22.5)"/><circle cx="190.43" cy="486.54" r="7.72"/><path d="M229.85,414.4l-7.11,7.93a1.76,1.76,0,0,0,1.39,2.94c7.58-.33,24.43-1,42.11-1.32,20.79-.37,47.68,0,54.33.06a1.76,1.76,0,0,0,1.77-1.51l1-6.8a4.16,4.16,0,0,0-3.68-4.73c-8.45-.88-27.78-2.67-43.1-2.29-17.33.43-38.53,3.51-44.25,4.38A4.15,4.15,0,0,0,229.85,414.4Z"/><path class="cls-3" d="M253.64,409.2a.76.76,0,0,1-.08-1.52c8.73-.93,16.46-1.48,23-1.64,7.73-.19,17.33.14,28.54,1a.76.76,0,0,1,.7.81.77.77,0,0,1-.82.71c-11.15-.84-20.7-1.17-28.38-1-6.48.17-14.17.71-22.86,1.63Z"/><path d="M286.71,511.87h53.75v4.77a4.11,4.11,0,0,0,4.12,4.12h22.07a4.11,4.11,0,0,0,4.12-4.12l-.4-47.6h0a124.68,124.68,0,0,1-3.18,21.32L364.41,502a4.51,4.51,0,0,1-3.89,3.41l-18,1.86a4.46,4.46,0,0,1-4.1-1.84l-7.85-10.94a18.71,18.71,0,0,0-14.66-7.8l-51.87-.17c-15.44.83-60.24,1.67-60.24,1.67l-8.39,16a5.48,5.48,0,0,1-5.25,2.91l-12.65-1a5.46,5.46,0,0,1-4.77-3.74c-1.72-5.24-4.67-15.45-4.67-23.54,0,0,.16,34.56,2.68,39.93s5.37,5.37,5.37,5.37,22.15.25,25,0,6.71-12.8,6.71-12.8l4.82.59s-.29,9.06,3.4,9.73,12.75,0,14.73,0,5.16-8.22,5.16-8.22S263.06,511.87,286.71,511.87Z"/><path class="cls-4" d="M424,190.71l-26.54,43.47V285.1A50.93,50.93,0,1,1,424,190.71Z"/><polygon class="cls-3" points="85.14 266.84 85.14 289.57 111.09 309.35 111.09 479.93 134.58 483.63 134.58 309.35 85.14 266.84"/><rect x="90.92" y="504.49" width="21.48" height="15.44"/><polygon points="112.4 519.92 154.76 519.92 154.76 507.84 112.4 504.49 112.4 519.92"/><polygon points="191.29 185.33 191.29 270.96 151.59 214.63 151.59 185.33 191.29 185.33"/><path class="cls-5" d="M397.89,240.76s-55.5,7.13-111.18-24.27"/><path class="cls-5" d="M397.89,251S324,286,286.71,266.06"/><path class="cls-5" d="M397.45,265.3S322.26,270.69,286.71,245"/></g></svg>