<svg xmlns="http://www.w3.org/2000/svg" xmlns:xlink="http://www.w3.org/1999/xlink" viewBox="0 0 648 648"><defs><style>.cls-1{fill:none;}.cls-2{clip-path:url(#clip-path);}.cls-3{fill:#2540c1;}.cls-4{fill:#fff;}</style><clipPath id="clip-path"><circle class="cls-1" cx="324" cy="324" r="324"/></clipPath></defs><g id="Layer_1" data-name="Layer 1"><g class="cls-2"><rect class="cls-3" width="648" height="648"/><path class="cls-4" d="M572.41,280.1s16.32-44,3.32-84.31-39-40.71-39-40.71l-21.22,9.52-58.1-24.27a132.82,132.82,0,0,0-187.3,81,187.67,187.67,0,0,0,58,59l-5.55,3.86a21.7,21.7,0,0,0-9.73,13.44l-3.36-4.57L288,306.71a16.45,16.45,0,1,0,24.33,22.15l8.06-9.14a21.79,21.79,0,0,0,25.16,1.59l30.43-19a187.06,187.06,0,0,0,148.34-18.5Z"/><path d="M248.49,329.7l-.62,1.79c-1.65.05-3.32.08-5,.08s-3.25,0-4.87-.08a34.19,34.19,0,0,1-26.83-14.8,139.88,139.88,0,0,1-7.53-12.21,24,24,0,0,1,8.19-31.69q2.22-1.43,4.5-2.76a130.24,130.24,0,0,0,29.33,47A12.39,12.39,0,0,1,248.49,329.7Z"/><path d="M341.38,279.79,341,286a12.83,12.83,0,0,1-4.06,8.64l-.31.28a140.29,140.29,0,0,1-12.37,10.16L328.47,283a14.17,14.17,0,0,0-1.62-9.64A130.39,130.39,0,0,0,313,253.57a136.29,136.29,0,0,1,19.19,5.2l7.41,13.34A14,14,0,0,1,341.38,279.79Z"/><path class="cls-3" d="M328.45,283.13l-4.19,22a137.71,137.71,0,0,1-76.39,26.37l.62-1.79A12.39,12.39,0,0,0,245.68,317a130.24,130.24,0,0,1-29.33-47A138.68,138.68,0,0,1,313,253.57a130.11,130.11,0,0,1,13.74,19.66A14.55,14.55,0,0,1,328.45,283.13Z"/><path class="cls-4" d="M431.07,358.33a224.14,224.14,0,0,1-3.69,26.16c-1.45,7.61-3.47,16.55-6.25,26.33-6.62,23.26-24,50.12-24,50.12-26.82,20-53.41,37-95.51,48.18l-125.82-7.54c-35.63-2.14-80.13,19.6-80.81,20a121.23,121.23,0,0,0-1.73-58.09C84.43,432.56,59.36,414,59.36,414l34.27-10.1a82.71,82.71,0,0,1,83-22.55c7.9,2.29,16.22,5.83,24.45,5.9,7.09.07,35.7.4,42.32.95a158,158,0,0,1,23.06-6.46h0l.21-.16c3.37-2.57,46.73-35.51,57.08-38.91a16.54,16.54,0,0,1,4.54-.83C336.87,341.5,343,348,343,348s15.5-26.74,29-27.59c11.58-.73,14.31,7.19,14.31,7.19,7.6-8.52,19.78-4.17,19.78-4.17,11.42,4.51,7.4,19.79,5.35,25.7a21,21,0,0,1,3.73-.12c.55,0,1.09.09,1.63.17a20.3,20.3,0,0,1,13.78,8.48C430.92,358.08,431.07,358.33,431.07,358.33Z"/><path d="M403.76,383.08a13.08,13.08,0,0,0-18-4.23l-17.22,11.2s6.25,6.45,7.73,14a26,26,0,0,1-1.32,13.66l24.59-16.58A13.08,13.08,0,0,0,403.76,383.08Z"/><path d="M339.42,203.68l-21.82.26c2.62,9.38,9.14,17,19.16,22a29.22,29.22,0,0,0,9.92-2.65c6.91-3.29,8.42-10.63,3.34-15.54l-.39-.37A15.2,15.2,0,0,0,339.42,203.68Z"/><path d="M256.48,221.3l-6.2,6.58a4.74,4.74,0,0,0-.65,5.06l11.64,24.72a5.78,5.78,0,0,0,4.51,3.25l35.86,7.95a5.79,5.79,0,0,0,4.07-1l11.94-8.92,3.32-4.33Z"/><path class="cls-3" d="M287.86,215.55l-26.93,3.63a6.41,6.41,0,0,0-5.46,9.16l10.9,22.94a6.43,6.43,0,0,0,5,3.62l35.25,7.88a6.47,6.47,0,0,0,4.53-1.16l9.8-7.05L308.12,226.7l-16.56-10.21A6.42,6.42,0,0,0,287.86,215.55Z"/><path d="M295,231.91l4.17,8.5a25,25,0,0,0,19.34,13.84l2.48.32-3.32,4.33,14.58,1.73,6.79-7.08-4.91-14.43a27.32,27.32,0,0,1-12.78-7.36,45.78,45.78,0,0,1-7.15-8.81l-14.26.62A5.79,5.79,0,0,0,295,231.91Z"/><path d="M394.14,440.15a27.64,27.64,0,0,0-34.37-10.75l-74.6,39.36s62.75-26.72,81-34a27.64,27.64,0,0,1,28,5.36Z"/><path d="M386.34,327.6S370.24,351.4,367,364c-5.36,2.57-13.22,10.71-13.22,10.71s8.67-14.34,17.85-28.11S386.34,327.6,386.34,327.6Z"/><path d="M333.89,360.07s-25.78,21.66-29.07,34.26c-5.36,2.58-16.92,7.34-16.92,7.34s8.74-5.36,20-17.45A284.49,284.49,0,0,1,333.89,360.07Z"/><path d="M383.41,370.63s8.42.65,14.51,4c6.66-4.88,3.31-15.42,3.31-15.42a44.52,44.52,0,0,1-7.88,8.42C389.27,370.94,383.41,370.63,383.41,370.63Z"/><path d="M387.33,179.33a166.46,166.46,0,0,1-35.08,13.25,38.27,38.27,0,0,0,2.38-25.85c.05.76.07,1.52.07,2.28a38.1,38.1,0,0,1-13.29,29c2.93-.47,6-1,8.83-1.65h0c1.18-.25,2.34-.53,3.45-.81a150.62,150.62,0,0,0,41.43-17.18c16.32-9.67,28.3-28,28.3-28A115.27,115.27,0,0,1,387.33,179.33Z"/><path d="M342.5,239.82c31,.22,53.27-9.38,63.31-15.74,8.59,10.69,43.89,24.33,58.83,23.25-32.27,2.6-60.64-15.81-60.64-15.81S362.21,243.79,342.5,239.82Z"/><path d="M360,261.19s2.6,10.1-1.15,15.88c6.21-.29,8.52-.87,14.15.58C366.4,274.61,360,261.19,360,261.19Z"/><ellipse cx="260.44" cy="295.75" rx="11.26" ry="9.36"/><ellipse cx="243.41" cy="273.08" rx="11.26" ry="9.36"/><polygon points="152.36 242.59 152.36 244.11 155.94 243.88 155.46 241.84 152.36 242.59"/><polygon points="167.25 250.24 152.36 244.11 162.41 238.31 252.57 238.31 261.03 250.24 220.63 250.24 214.1 248.65 210.4 250.24 202.75 248.61 200.11 250.24 184.25 250.24 176.92 248.72 173.53 250.24 167.25 250.24"/><polygon class="cls-3" points="167.25 248.72 152.36 242.59 162.41 236.8 255.21 236.13 261.42 248.33 220.63 248.72 214.1 247.13 210.4 248.72 202.75 247.1 200.11 248.72 184.25 248.72 176.92 247.21 173.53 248.72 167.25 248.72"/><path d="M258.25,242.17l-21.7.06H214.74l-21.81,0c-7.27,0-14.54.09-21.8-.34v0c7.26-.42,14.53-.28,21.8-.33l21.81-.05h21.81l21.38.06Z"/></g></g></svg>