<svg xmlns="http://www.w3.org/2000/svg" viewBox="0 0 648 648"><defs><style>.cls-1{fill:#2540c1;}.cls-2{fill:#fff;}</style></defs><g id="Layer_1" data-name="Layer 1"><rect class="cls-1" width="648" height="648"/><path class="cls-2" d="M607.74,274s18.59-50.19,3.78-96.11-44.43-46.41-44.43-46.41l-24.2,10.86-66.23-27.68A151.44,151.44,0,0,0,263.14,207a213.94,213.94,0,0,0,66.14,67.29l-6.32,4.4A24.73,24.73,0,0,0,311.86,294L308,288.79l-24.58,15.52a18.76,18.76,0,0,0,27.74,25.25l9.19-10.42A24.86,24.86,0,0,0,349.08,321l34.68-21.7A212.87,212.87,0,0,0,444.23,308a211.8,211.8,0,0,0,108.64-29.8Z"/><path d="M238.47,330.52l-.7,2c-1.89.06-3.79.1-5.68.1s-3.71,0-5.55-.1A38.92,38.92,0,0,1,196,315.69a157,157,0,0,1-8.58-13.92,27.37,27.37,0,0,1,9.33-36.12c1.69-1.08,3.39-2.13,5.13-3.15A148.51,148.51,0,0,0,235.27,316,14.09,14.09,0,0,1,238.47,330.52Z"/><path d="M344.37,273.62l-.43,7.13a14.64,14.64,0,0,1-4.64,9.85l-.35.32a159.76,159.76,0,0,1-14.1,11.58l4.8-25.22a16.14,16.14,0,0,0-1.85-11,149.5,149.5,0,0,0-15.74-22.56,156.39,156.39,0,0,1,21.88,5.94l8.45,15.21A16,16,0,0,1,344.37,273.62Z"/><path class="cls-1" d="M329.62,277.43l-4.77,25.07a157,157,0,0,1-87.08,30.06l.7-2a14.09,14.09,0,0,0-3.2-14.48,148.51,148.51,0,0,1-33.44-53.54,157,157,0,0,1,79.87-21.69,158.9,158.9,0,0,1,30.36,2.92,149.49,149.49,0,0,1,15.66,22.42A16.51,16.51,0,0,1,329.62,277.43Z"/><path class="cls-2" d="M446.61,363.17a257.56,257.56,0,0,1-4.2,29.82c-1.66,8.67-4,18.86-7.13,30-7.55,26.51-27.35,57.13-27.35,57.13C377.36,502.9,347,522.31,299.05,535.06l-143.43-8.6C115,524,64.27,548.81,63.5,549.24c.16-.63,8-31.35-2-66.22-10.09-35.23-38.67-56.4-38.67-56.4L61.94,415.1a94.33,94.33,0,0,1,94.66-25.71c9,2.61,18.49,6.65,27.87,6.73,8.09.08,40.7.46,48.24,1.09A177.84,177.84,0,0,1,259,389.84h0l.23-.19c3.85-2.92,53.28-40.47,65.08-44.35a18.55,18.55,0,0,1,5.17-.94c9.71-.38,16.74,7,16.74,7s17.66-30.47,33.05-31.44c13.21-.84,16.32,8.19,16.32,8.19,8.66-9.71,22.55-4.75,22.55-4.75,13,5.14,8.44,22.56,6.09,29.3a23.18,23.18,0,0,1,4.26-.14c.62,0,1.24.1,1.85.19a23.13,23.13,0,0,1,15.72,9.67A8.28,8.28,0,0,1,446.61,363.17Z"/><path d="M415.48,391.38A14.92,14.92,0,0,0,395,386.55l-19.63,12.77s7.12,7.36,8.81,15.91a29.61,29.61,0,0,1-1.51,15.57l28-18.89A14.9,14.9,0,0,0,415.48,391.38Z"/><path d="M342.13,186.87l-24.88.29c3,10.69,10.43,19.34,21.85,25.1a33.13,33.13,0,0,0,11.31-3c7.87-3.74,9.6-12.12,3.8-17.71l-.45-.43A17.27,17.27,0,0,0,342.13,186.87Z"/><path d="M247.58,207l-7.07,7.5a5.41,5.41,0,0,0-.74,5.78L253,248.4a6.58,6.58,0,0,0,5.15,3.7l40.87,9.07A6.56,6.56,0,0,0,303.7,260l13.61-10.17,3.79-4.94Z"/><path class="cls-1" d="M283.35,200.39l-30.7,4.14A7.31,7.31,0,0,0,246.43,215l12.43,26.16a7.3,7.3,0,0,0,5.72,4.12l40.18,9a7.3,7.3,0,0,0,5.16-1.33l11.18-8-14.65-31.76-18.88-11.64A7.29,7.29,0,0,0,283.35,200.39Z"/><path d="M291.47,219l4.75,9.7a28.56,28.56,0,0,0,22,15.77l2.83.36-3.79,4.94,16.62,2,7.74-8.07-5.6-16.46a31.12,31.12,0,0,1-14.56-8.39,52,52,0,0,1-8.15-10l-16.25.71A6.6,6.6,0,0,0,291.47,219Z"/><path d="M404.51,456.44a31.5,31.5,0,0,0-39.18-12.26l-85,44.87s71.54-30.46,92.32-38.73a31.48,31.48,0,0,1,31.9,6.12Z"/><path d="M395.62,328.13s-18.35,27.13-22.1,41.5c-6.11,2.93-15.08,12.2-15.08,12.2s9.89-16.35,20.35-32S395.62,328.13,395.62,328.13Z"/><path d="M335.83,365.14s-29.39,24.7-33.14,39.07c-6.11,2.93-19.29,8.36-19.29,8.36s10-6.11,22.83-19.9A324.48,324.48,0,0,1,335.83,365.14Z"/><path d="M392.27,377.18s9.61.74,16.55,4.54c7.59-5.56,3.77-17.58,3.77-17.58a50.48,50.48,0,0,1-9,9.6C399,377.54,392.27,377.18,392.27,377.18Z"/><path d="M396.75,159.11a190.45,190.45,0,0,1-40,15.1,43.66,43.66,0,0,0,2.71-29.46c.06.86.08,1.72.08,2.59a43.41,43.41,0,0,1-15.15,33c3.34-.54,6.79-1.17,10.06-1.88h0c1.35-.29,2.68-.6,3.94-.92A171.78,171.78,0,0,0,405.63,158c18.6-11,32.26-31.93,32.26-31.93A131.43,131.43,0,0,1,396.75,159.11Z"/><path d="M345.64,228.06c35.39.25,60.73-10.69,72.17-17.94,9.79,12.18,50,27.74,67.07,26.5-36.79,3-69.13-18-69.13-18S368.11,232.59,345.64,228.06Z"/><path d="M365.64,252.42s3,11.52-1.32,18.11c7.08-.33,9.71-1,16.13.65C372.88,267.73,365.64,252.42,365.64,252.42Z"/><ellipse cx="252.1" cy="291.82" rx="12.84" ry="10.68"/><ellipse cx="232.68" cy="265.98" rx="12.84" ry="10.68"/><polygon points="128.88 231.22 128.88 232.95 132.96 232.7 132.42 230.37 128.88 231.22"/><polygon points="145.86 239.94 128.88 232.95 140.35 226.34 243.13 226.34 252.76 239.94 206.71 239.94 199.27 238.13 195.05 239.94 186.33 238.09 183.32 239.94 165.24 239.94 156.89 238.21 153.02 239.94 145.86 239.94"/><polygon class="cls-1" points="145.86 238.21 128.88 231.22 140.35 224.62 246.14 223.85 253.21 237.76 206.71 238.21 199.27 236.4 195.05 238.21 186.33 236.36 183.32 238.21 165.24 238.21 156.89 236.48 153.02 238.21 145.86 238.21"/><path d="M249.6,230.74l-24.74.08H200l-24.86,0c-8.28-.05-16.57.11-24.85-.38v0c8.28-.47,16.57-.32,24.85-.37l24.86-.06h24.87l24.38.07Z"/></g></svg>