<svg xmlns="http://www.w3.org/2000/svg" viewBox="0 0 672 672"><defs><style>.cls-1{fill:#aeff94;}.cls-2{fill:#fff;}.cls-3,.cls-4{fill:none;stroke:#fff;stroke-miterlimit:10;}.cls-3{stroke-dasharray:6 4;}</style></defs><g id="Layer_1" data-name="Layer 1"><circle class="cls-1" cx="336" cy="532" r="40"/><circle class="cls-1" cx="336" cy="612" r="40"/><path class="cls-2" d="M296,612a40,40,0,0,0,80,0Z"/><circle class="cls-1" cx="336" cy="452" r="40"/><circle class="cls-1" cx="336" cy="180" r="40"/><circle class="cls-1" cx="336" cy="100" r="40"/><rect class="cls-2" x="440" y="332" width="80" height="80"/><rect class="cls-2" x="152" y="220" width="80" height="192"/><rect class="cls-2" x="344" y="220" width="80" height="192"/><circle class="cls-2" cx="288" cy="372" r="40"/><circle class="cls-2" cx="480" cy="468" r="40"/><line class="cls-3" x1="60" y1="220" x2="612" y2="220"/><line class="cls-3" x1="60" y1="412" x2="612" y2="412"/><rect class="cls-4" x="60" y="60" width="552" height="552" rx="276"/><rect class="cls-4" x="60" y="60" width="552" height="552" rx="181.85"/><rect class="cls-4" x="60" y="60" width="552" height="552" rx="76.49"/><rect class="cls-4" x="60" y="60" width="552" height="552"/></g></svg>