<svg xmlns="http://www.w3.org/2000/svg" viewBox="0 0 648 648"><defs><style>.cls-1{fill:#efefe6;}.cls-2{fill:#070763;}.cls-3{fill:#72ccc7;}.cls-4{fill:#e54a67;}.cls-5{fill:#b5b5aa;}</style></defs><g id="Layer_1" data-name="Layer 1"><rect class="cls-1" x="0.02" y="0.18" width="647.97" height="647.97"/><rect class="cls-2" x="472.42" y="563.09" width="27.7" height="11.87"/><path class="cls-3" d="M648,.18l-81.9,134.17-35.43,58V575H495l-.54-69v-.05l1.56-25.42a13.94,13.94,0,0,0,0-1.94l5.65-1.73,2.08-4.84a3.8,3.8,0,0,0-2.38-4.89c-3.67-1.56-11.59-.54-11.59-.54l-3.71-4.81a12,12,0,0,0-6.4-4.27l-10.29-2.77a7.89,7.89,0,0,1-4.58-3.37c-3.11-4.9-9.85-15.47-13-20-4.18-6-10.45-7.17-28.37-9.56s-40.62-1.94-40.62-1.94V124.29L357.72,62.46H129.25L85.35.18Z"/><polygon points="113.72 235.99 179.72 292.73 179.72 525.39 115.21 515.23 113.72 235.99"/><path d="M503.76,471.94l-2.08,4.84L496,478.51a14.28,14.28,0,0,0-2.95-7.72l-3.29-4.28s7.92-1,11.59.54A3.8,3.8,0,0,1,503.76,471.94Z"/><path d="M478.79,476.74l-5.24,24.14a9.3,9.3,0,0,1-9.1,7.33h-111c-34.31,0-85.46,1.8-105.84,2.57a9.3,9.3,0,0,1-9.62-8.49l-1.91-21.85s26.07-3.24,59.16-5.51c17.76-1.21,37.55-2.15,56.42-2.15,19.15,0,40.73.51,60.59,1.15C448.36,475.1,478.79,476.74,478.79,476.74Z"/><path class="cls-4" d="M480.3,470l-1.51,6.77s-30.43-1.64-66.52-2.81L415,463.76a8.7,8.7,0,0,1,8.57-6.32c8,.17,21.55.72,31.13,2.51s18,3.92,22.66,5.18A4.1,4.1,0,0,1,480.3,470Z"/><path class="cls-4" d="M295.26,474.93c-33.09,2.27-59.16,5.51-59.16,5.51V472a5,5,0,0,1,3.39-4.72,149.66,149.66,0,0,1,22.22-5.51c8.28-1.4,18.18-2.22,24.59-2.65a7.2,7.2,0,0,1,7.61,6.19Z"/><circle cx="454.56" cy="528.07" r="10.3"/><circle cx="254.28" cy="529.27" r="10.3"/><path d="M306.9,433l-9.49,10.58a2.36,2.36,0,0,0,1.85,3.93c10.13-.44,32.62-1.35,56.22-1.76,27.76-.49,63.65,0,72.53.08a2.34,2.34,0,0,0,2.36-2l1.33-9.08a5.54,5.54,0,0,0-4.9-6.31c-11.29-1.19-37.09-3.57-57.54-3.06-23.13.57-51.45,4.68-59.07,5.85A5.51,5.51,0,0,0,306.9,433Z"/><path class="cls-4" d="M338.66,426a1,1,0,0,1-.11-2c11.66-1.23,22-2,30.68-2.19,10.33-.25,23.14.18,38.09,1.31a1,1,0,0,1-.15,2c-14.88-1.12-27.63-1.56-37.89-1.3-8.64.21-18.91.94-30.51,2.17Z"/><path d="M382.81,563.09h71.75v6.37a5.5,5.5,0,0,0,5.5,5.5h29.47a5.5,5.5,0,0,0,5.5-5.5l-.54-63.54h0a166.82,166.82,0,0,1-4.24,28.46l-3.72,15.56a6,6,0,0,1-5.19,4.55l-24,2.49a5.94,5.94,0,0,1-5.46-2.45l-10.48-14.61a25,25,0,0,0-19.57-10.41l-69.25-.24c-14.7.8-49.32,1.6-68,2a21.12,21.12,0,0,0-18.24,11.27L258.72,557l-26.44-2s-7.83-20.83-7.83-36.06c0,0,.22,46.14,3.58,53.31s7.17,7.16,7.17,7.16,29.56.34,33.37,0,9-17.08,9-17.08l6.44.79s-.39,12.09,4.54,13,17,0,19.65,0,6.89-11,6.89-11S351.23,563.09,382.81,563.09Z"/><polygon class="cls-5" points="148.36 292.73 148.36 520.45 179.72 525.39 179.72 292.73 148.36 292.73"/><polygon class="cls-5" points="113.72 235.99 113.72 266.32 148.36 292.73 179.72 292.73 113.72 235.99"/><rect x="121.43" y="553.24" width="28.67" height="20.61"/><polygon points="150.1 573.84 206.65 573.84 206.65 557.72 150.1 553.24 150.1 573.84"/><polygon points="255.43 127.17 255.43 241.49 202.42 166.28 202.42 127.17 255.43 127.17"/></g></svg>