<svg xmlns="http://www.w3.org/2000/svg" viewBox="0 0 648 648"><defs><style>.cls-1{fill:#7de065;}</style></defs><g id="Layer_1" data-name="Layer 1"><circle cx="324" cy="324" r="324"/><path class="cls-1" d="M354.12,348l-54.07-54.07,34.64-34.5-86-86-75.31,75.31,3,8.88a342.38,342.38,0,0,0,82.84,131.2,342.38,342.38,0,0,0,131.2,82.84l8.88,3,75.31-75.32-86-86Zm37.36,91.88a312.27,312.27,0,0,1-111-72.3,314.59,314.59,0,0,1-72.45-111L248.69,216l43.38,43.38-34.5,34.5,96.55,96.55,34.5-34.5L432,399.31Z"/></g></svg>