<svg xmlns="http://www.w3.org/2000/svg" viewBox="0 0 648 648"><defs><style>.cls-1{fill:#79e45e;}.cls-2{fill:#fff;}</style></defs><g id="Background"><rect width="648" height="648"/></g><g id="Graphic"><path class="cls-1" d="M324,91.63c-128.33,0-232.37,104-232.37,232.37S195.67,556.37,324,556.37,556.37,452.33,556.37,324,452.33,91.63,324,91.63Zm0,418.19A185.82,185.82,0,1,1,509.82,324,185.81,185.81,0,0,1,324,509.82Z"/><polygon class="cls-2" points="325.09 323.93 323.56 323.93 323.35 323.71 0.29 0.66 1.31 -0.35 324.16 322.49 324.49 322.49 647.34 -0.35 648.36 0.66 325.09 323.93"/><path class="cls-2" d="M160,159.37l32.91,32.91a185.84,185.84,0,0,1,262.47.32l32.91-32.91A232.36,232.36,0,0,0,160,159.37Z"/></g></svg>