<svg xmlns="http://www.w3.org/2000/svg" viewBox="0 0 648 648"><defs><style>.cls-1{fill:#e2e4e2;}.cls-2,.cls-7{fill:#fff;}.cls-3,.cls-6{fill:#232423;}.cls-3,.cls-4,.cls-7{fill-rule:evenodd;}.cls-4{fill:#aaaba9;}.cls-5{fill:#484a48;}</style></defs><g id="Graphic"><path class="cls-1" d="M271.31,159.32H376.69a63.22,63.22,0,0,1,63.22,63.23h0a63.21,63.21,0,0,1-63.22,63.22H271.31a63.21,63.21,0,0,1-63.22-63.22h0A63.22,63.22,0,0,1,271.31,159.32Z"/><circle class="cls-2" cx="376.69" cy="222.55" r="52.69"/><path class="cls-3" d="M371.42,190.94a5.27,5.27,0,1,0,5.27-5.27A5.26,5.26,0,0,0,371.42,190.94Zm26.34,31.61a21.08,21.08,0,1,1-21.07-21.08A21.07,21.07,0,0,1,397.76,222.55Zm15.81,0a5.27,5.27,0,1,1-5.27-5.27A5.27,5.27,0,0,1,413.57,222.55Zm-68.49,5.27a5.27,5.27,0,1,0-5.27-5.27A5.26,5.26,0,0,0,345.08,227.82Zm31.61,31.61a5.27,5.27,0,1,1,5.27-5.27A5.27,5.27,0,0,1,376.69,259.43Zm-26.08-10.8a5.27,5.27,0,1,1,7.45,0A5.26,5.26,0,0,1,350.61,248.63Zm44.71-52.16a5.27,5.27,0,1,0,7.45,0A5.26,5.26,0,0,0,395.32,196.47Zm-44.71,0a5.27,5.27,0,1,1,0,7.45A5.26,5.26,0,0,1,350.61,196.47Zm52.16,44.71a5.27,5.27,0,1,0,0,7.45A5.26,5.26,0,0,0,402.77,241.18Z"/><path class="cls-4" d="M294.15,196.26c-.58,0-1.17-.06-1.76-.06a26.35,26.35,0,1,0,0,52.69c.59,0,1.18,0,1.76-.06a31.61,31.61,0,1,1,0-52.57Z"/><path class="cls-5" d="M271.31,368.54H376.69a63.22,63.22,0,0,1,63.22,63.23h0A63.22,63.22,0,0,1,376.69,495H271.31a63.22,63.22,0,0,1-63.22-63.22h0A63.22,63.22,0,0,1,271.31,368.54Z"/><circle class="cls-6" cx="271.31" cy="431.77" r="52.69"/><path class="cls-3" d="M371.42,400.15a5.27,5.27,0,1,0,5.27-5.27A5.27,5.27,0,0,0,371.42,400.15Zm26.34,31.62a21.08,21.08,0,1,1-21.07-21.08A21.07,21.07,0,0,1,397.76,431.77Zm15.81,0a5.27,5.27,0,1,1-5.27-5.27A5.26,5.26,0,0,1,413.57,431.77ZM345.08,437a5.27,5.27,0,1,0-5.27-5.26A5.25,5.25,0,0,0,345.08,437Zm31.61,31.62a5.27,5.27,0,1,1,5.27-5.27A5.27,5.27,0,0,1,376.69,468.65Zm-26.08-10.8a5.27,5.27,0,1,1,7.45,0A5.28,5.28,0,0,1,350.61,457.85Zm44.71-52.16a5.27,5.27,0,1,0,7.45,0A5.26,5.26,0,0,0,395.32,405.69Zm-44.71,0a5.27,5.27,0,1,1,0,7.45A5.26,5.26,0,0,1,350.61,405.69Zm52.16,44.7a5.27,5.27,0,1,0,0,7.46A5.28,5.28,0,0,0,402.77,450.39Z"/><path class="cls-7" d="M294.15,405.48c-.58,0-1.17-.06-1.76-.06a26.35,26.35,0,1,0,0,52.69c.59,0,1.18,0,1.76-.06a31.62,31.62,0,1,1,0-52.57Z"/></g></svg>