<svg xmlns="http://www.w3.org/2000/svg" viewBox="0 0 1152 648"><defs><style>.cls-1{fill:#79e45e;}.cls-2{fill:#abff90;}.cls-3{fill:#fff;}</style></defs><g id="Background"><rect class="cls-1" width="1152" height="648"/></g><g id="Graphic"><path d="M896.94,346.8H757.76L735.24,198.92a93.17,93.17,0,1,1,184.22,0ZM797,301.19h60.8l16.62-109.14a47.56,47.56,0,1,0-94,0Z"/><path d="M1013.54,556.73H641.16V440.47l13.06-6.38a392.21,392.21,0,0,1,346.26,0l13.06,6.38ZM687.71,510.18H967V469.86a345.25,345.25,0,0,0-279.28,0Z"/><rect class="cls-2" x="1082.93" y="44.71" width="0.86" height="558.57"/><rect class="cls-2" x="1106.2" y="44.71" width="0.86" height="558.57"/><rect class="cls-2" x="1059.66" y="44.71" width="0.86" height="558.57"/><rect class="cls-2" x="1036.38" y="44.71" width="0.86" height="558.57"/><rect class="cls-2" x="1013.11" y="44.71" width="0.86" height="558.57"/><rect class="cls-2" x="989.83" y="44.71" width="0.86" height="558.57"/><rect class="cls-2" x="966.56" y="44.71" width="0.86" height="558.57"/><rect class="cls-2" x="943.29" y="44.71" width="0.86" height="558.57"/><rect class="cls-2" x="920.01" y="44.71" width="0.86" height="558.57"/><rect class="cls-2" x="896.74" y="44.72" width="0.86" height="558.57"/><rect class="cls-2" x="873.47" y="44.72" width="0.86" height="558.57"/><rect class="cls-2" x="850.19" y="44.72" width="0.86" height="558.57"/><rect class="cls-2" x="826.92" y="44.72" width="0.86" height="558.57"/><rect class="cls-2" x="803.65" y="44.72" width="0.86" height="558.57"/><rect class="cls-2" x="780.37" y="44.72" width="0.86" height="558.57"/><rect class="cls-2" x="757.1" y="44.72" width="0.86" height="558.57"/><rect class="cls-2" x="733.83" y="44.72" width="0.86" height="558.57"/><rect class="cls-2" x="710.55" y="44.72" width="0.86" height="558.57"/><rect class="cls-2" x="687.28" y="44.72" width="0.86" height="558.57"/><rect class="cls-2" x="664" y="44.72" width="0.86" height="558.57"/><rect class="cls-2" x="640.73" y="44.72" width="0.86" height="558.57"/><rect class="cls-2" x="617.46" y="44.72" width="0.86" height="558.57"/><rect class="cls-2" x="594.18" y="44.72" width="0.86" height="558.57"/><rect class="cls-2" x="570.91" y="44.72" width="0.86" height="558.57"/><rect class="cls-2" x="547.63" y="44.72" width="0.86" height="558.57"/><rect class="cls-2" x="548.06" y="67.56" width="558.57" height="0.86"/><rect class="cls-2" x="548.06" y="44.29" width="558.57" height="0.86"/><rect class="cls-2" x="548.06" y="90.83" width="558.57" height="0.86"/><rect class="cls-2" x="548.06" y="114.11" width="558.57" height="0.86"/><rect class="cls-2" x="548.06" y="137.38" width="558.57" height="0.86"/><rect class="cls-2" x="548.06" y="160.65" width="558.57" height="0.86"/><rect class="cls-2" x="548.06" y="183.93" width="558.57" height="0.86"/><rect class="cls-2" x="548.06" y="207.2" width="558.57" height="0.86"/><rect class="cls-2" x="548.07" y="230.47" width="558.57" height="0.86"/><rect class="cls-2" x="548.07" y="253.75" width="558.57" height="0.86"/><rect class="cls-2" x="548.07" y="277.02" width="558.57" height="0.86"/><rect class="cls-2" x="548.07" y="300.3" width="558.57" height="0.86"/><rect class="cls-2" x="548.07" y="323.57" width="558.57" height="0.86"/><rect class="cls-2" x="548.07" y="346.84" width="558.57" height="0.86"/><rect class="cls-2" x="548.07" y="370.12" width="558.57" height="0.86"/><rect class="cls-2" x="548.07" y="393.39" width="558.57" height="0.86"/><rect class="cls-2" x="548.07" y="416.66" width="558.57" height="0.86"/><rect class="cls-2" x="548.07" y="439.94" width="558.57" height="0.86"/><rect class="cls-2" x="548.07" y="463.21" width="558.57" height="0.86"/><rect class="cls-2" x="548.07" y="486.48" width="558.57" height="0.86"/><rect class="cls-2" x="548.07" y="509.76" width="558.57" height="0.86"/><rect class="cls-2" x="548.07" y="533.03" width="558.57" height="0.86"/><rect class="cls-2" x="548.07" y="556.31" width="558.57" height="0.86"/><rect class="cls-2" x="548.07" y="579.58" width="558.57" height="0.86"/><rect class="cls-2" x="548.07" y="602.85" width="558.57" height="0.86"/><path d="M277.91,439.49H185.2L163.8,337.15a69.22,69.22,0,1,1,135.51,0Zm-74.19-22.81h55.66L277,332.49a46.42,46.42,0,1,0-90.87,0Z"/><path d="M371,579.13H92.14V486.57l7.91-2.54a426.11,426.11,0,0,1,263,0l7.9,2.54Zm-256-22.8H348.16V503.28a402.73,402.73,0,0,0-233.21,0Z"/><rect class="cls-2" x="45.36" y="602.21" width="372.39" height="0.86"/><rect class="cls-2" x="45.36" y="578.93" width="372.39" height="0.86"/><rect class="cls-2" x="45.36" y="555.66" width="372.39" height="0.86"/><rect class="cls-2" x="45.36" y="532.39" width="372.39" height="0.86"/><rect class="cls-2" x="45.36" y="509.11" width="372.39" height="0.86"/><rect class="cls-2" x="45.36" y="485.84" width="372.39" height="0.86"/><rect class="cls-2" x="45.36" y="462.56" width="372.39" height="0.86"/><rect class="cls-2" x="45.36" y="439.29" width="372.39" height="0.86"/><rect class="cls-2" x="45.36" y="416.02" width="372.39" height="0.86"/><rect class="cls-2" x="45.36" y="392.74" width="372.39" height="0.86"/><rect class="cls-2" x="45.36" y="369.47" width="372.39" height="0.86"/><rect class="cls-2" x="45.36" y="346.19" width="372.39" height="0.86"/><rect class="cls-2" x="45.36" y="322.92" width="372.39" height="0.86"/><rect class="cls-2" x="45.36" y="299.64" width="372.39" height="0.86"/><rect class="cls-2" x="45.36" y="276.37" width="372.39" height="0.86"/><rect class="cls-2" x="45.36" y="253.1" width="372.39" height="0.86"/><rect class="cls-2" x="45.36" y="229.82" width="372.39" height="0.86"/><rect class="cls-2" x="44.93" y="230.25" width="0.86" height="372.39"/><rect class="cls-2" x="68.2" y="230.25" width="0.86" height="372.39"/><rect class="cls-2" x="91.48" y="230.25" width="0.86" height="372.39"/><rect class="cls-2" x="114.75" y="230.25" width="0.86" height="372.39"/><rect class="cls-2" x="138.03" y="230.25" width="0.86" height="372.39"/><rect class="cls-2" x="161.3" y="230.25" width="0.86" height="372.39"/><rect class="cls-2" x="184.57" y="230.25" width="0.86" height="372.39"/><rect class="cls-2" x="207.85" y="230.25" width="0.86" height="372.39"/><rect class="cls-2" x="231.12" y="230.25" width="0.86" height="372.39"/><rect class="cls-2" x="254.4" y="230.25" width="0.86" height="372.39"/><rect class="cls-2" x="277.67" y="230.25" width="0.86" height="372.39"/><rect class="cls-2" x="300.95" y="230.25" width="0.86" height="372.39"/><rect class="cls-2" x="324.22" y="230.25" width="0.86" height="372.39"/><rect class="cls-2" x="347.49" y="230.25" width="0.86" height="372.39"/><rect class="cls-2" x="370.77" y="230.25" width="0.86" height="372.39"/><rect class="cls-2" x="394.04" y="230.25" width="0.86" height="372.39"/><rect class="cls-2" x="417.32" y="230.25" width="0.86" height="372.39"/><rect class="cls-3" x="1010.64" y="437" width="6" height="6"/><rect class="cls-3" x="1010.64" y="553" width="6" height="6"/><rect class="cls-3" x="639.26" y="554" width="4" height="4"/><rect class="cls-3" x="684.64" y="507" width="6" height="6"/><rect class="cls-3" x="684.64" y="467" width="6" height="6"/><rect class="cls-3" x="963.99" y="507" width="6" height="6"/><rect class="cls-3" x="963.99" y="467" width="6" height="6"/><rect class="cls-3" x="824.35" y="390.81" width="6" height="6"/><rect class="cls-3" x="368.2" y="483.53" width="6" height="6"/><rect class="cls-3" x="344.92" y="500.48" width="6" height="6"/><rect class="cls-3" x="89.14" y="483.57" width="6" height="6" transform="translate(184.29 973.14) rotate(-180)"/><rect class="cls-3" x="89.14" y="576.13" width="6" height="6" transform="translate(184.29 1158.26) rotate(-180)"/><rect class="cls-3" x="112.42" y="553.09" width="6" height="6" transform="translate(230.83 1112.18) rotate(-180)"/><rect class="cls-3" x="344.92" y="553.09" width="6" height="6" transform="translate(695.85 1112.18) rotate(-180)"/><rect class="cls-3" x="368.2" y="576.37" width="6" height="6" transform="translate(742.4 1158.73) rotate(-180)"/><rect class="cls-3" x="112.42" y="500.53" width="6" height="6" transform="translate(230.83 1007.05) rotate(-180)"/><rect class="cls-3" x="228.55" y="483.53" width="6" height="6"/><rect class="cls-3" x="228.55" y="459.99" width="6" height="6"/><rect class="cls-3" x="274.91" y="436.49" width="6" height="6"/><rect class="cls-3" x="256.32" y="413.68" width="6" height="6"/><rect class="cls-3" x="274.98" y="320.35" width="6" height="6"/><rect class="cls-3" x="297.79" y="320.35" width="6" height="6"/><rect class="cls-3" x="182.13" y="436.49" width="6" height="6" transform="translate(370.26 878.97) rotate(-180)"/><rect class="cls-3" x="200.72" y="413.68" width="6" height="6" transform="translate(407.45 833.36) rotate(-180)"/><rect class="cls-3" x="182.06" y="320.35" width="6" height="6" transform="translate(370.12 646.7) rotate(-180)"/><rect class="cls-3" x="159.25" y="320.35" width="6" height="6" transform="translate(324.5 646.7) rotate(-180)"/><rect class="cls-3" x="228.55" y="273.8" width="6" height="6"/><rect class="cls-3" x="228.55" y="250.53" width="6" height="6"/><rect class="cls-3" x="893.94" y="343.8" width="6" height="6"/><rect class="cls-3" x="917.44" y="181.36" width="6" height="6"/><rect class="cls-3" x="870.9" y="181.36" width="6" height="6"/><rect class="cls-3" x="824.35" y="134.81" width="6" height="6" transform="translate(965.16 -689.54) rotate(90)"/><rect class="cls-3" x="824.35" y="88.26" width="6" height="6" transform="translate(918.61 -736.08) rotate(90)"/><rect class="cls-3" x="777.8" y="181.36" width="6" height="6"/><rect class="cls-3" x="731.18" y="181.36" width="6" height="6"/><rect class="cls-3" x="754.53" y="343.8" width="6" height="6"/><rect class="cls-3" x="793.91" y="297.73" width="6" height="6"/><rect class="cls-3" x="854.85" y="297.73" width="6" height="6"/><rect class="cls-3" x="824.35" y="437" width="6" height="6"/><rect class="cls-3" x="639.16" y="438.37" width="4" height="4"/><path d="M430.81,90V102.5h-1.64V90Z"/><path d="M441.33,93.54a4.22,4.22,0,0,1,1.11,3.14v5.82h-1.62V96.92a3.19,3.19,0,0,0-.74-2.26,2.63,2.63,0,0,0-2-.78,2.69,2.69,0,0,0-2.06.81,3.29,3.29,0,0,0-.77,2.35v5.46H433.6V92.63h1.64V94a3.25,3.25,0,0,1,1.32-1.17,4.09,4.09,0,0,1,1.85-.42A4,4,0,0,1,441.33,93.54Z"/><path d="M447.12,94V99.8a1.37,1.37,0,0,0,.31,1,1.54,1.54,0,0,0,1.06.29h1.21v1.39h-1.48a2.93,2.93,0,0,1-2.05-.63,2.69,2.69,0,0,1-.69-2.07V94h-1.27V92.63h1.27V90.15h1.64v2.48h2.58V94Z"/><path d="M460.62,98.18h-7.88a3.09,3.09,0,0,0,3.2,3.09,3,3,0,0,0,1.77-.49,2.58,2.58,0,0,0,1-1.32h1.77a4.21,4.21,0,0,1-1.59,2.31,4.79,4.79,0,0,1-2.95.89,5,5,0,0,1-2.51-.63,4.48,4.48,0,0,1-1.74-1.79,5.54,5.54,0,0,1-.63-2.69,5.73,5.73,0,0,1,.61-2.68,4.4,4.4,0,0,1,1.72-1.78,5.18,5.18,0,0,1,2.55-.62,5,5,0,0,1,2.48.61,4.18,4.18,0,0,1,1.67,1.69,5,5,0,0,1,.58,2.42A8.63,8.63,0,0,1,460.62,98.18Zm-2.05-2.94a2.68,2.68,0,0,0-1.13-1,3.52,3.52,0,0,0-1.57-.35,3,3,0,0,0-2.12.79,3.27,3.27,0,0,0-1,2.2H459A3.06,3.06,0,0,0,458.57,95.24Z"/><path d="M465.71,92.92a3.8,3.8,0,0,1,2-.47v1.7h-.43c-1.84,0-2.76,1-2.76,3v5.37h-1.64V92.63h1.64v1.61A3.16,3.16,0,0,1,465.71,92.92Z"/><path d="M469.55,94.88a4.44,4.44,0,0,1,1.68-1.78,4.64,4.64,0,0,1,2.39-.63,4.42,4.42,0,0,1,2.25.56,3.75,3.75,0,0,1,1.42,1.4v-1.8H479v9.87h-1.66v-1.84a3.83,3.83,0,0,1-1.45,1.43,4.31,4.31,0,0,1-2.24.57,4.45,4.45,0,0,1-4.05-2.47,5.58,5.58,0,0,1-.61-2.66A5.49,5.49,0,0,1,469.55,94.88Zm7.29.72a3.15,3.15,0,0,0-1.22-1.26,3.37,3.37,0,0,0-3.35,0,3.07,3.07,0,0,0-1.21,1.26,4,4,0,0,0-.45,1.94,4.09,4.09,0,0,0,.45,2,3.12,3.12,0,0,0,1.21,1.28,3.28,3.28,0,0,0,1.67.44,3.34,3.34,0,0,0,1.68-.44,3.14,3.14,0,0,0,1.22-1.28,4.45,4.45,0,0,0,0-3.9Z"/><path d="M481.72,94.88a4.29,4.29,0,0,1,1.7-1.78,4.85,4.85,0,0,1,2.49-.63,4.94,4.94,0,0,1,3,.88,4.2,4.2,0,0,1,1.55,2.45H488.7a2.52,2.52,0,0,0-1-1.42,3,3,0,0,0-1.81-.52,2.91,2.91,0,0,0-2.27,1,4,4,0,0,0-.86,2.73,4,4,0,0,0,.86,2.75,2.89,2.89,0,0,0,2.27,1,3,3,0,0,0,1.8-.5,2.55,2.55,0,0,0,1-1.44h1.76a4.29,4.29,0,0,1-1.58,2.42,4.71,4.71,0,0,1-3,.91,4.85,4.85,0,0,1-2.49-.63,4.29,4.29,0,0,1-1.7-1.78,5.66,5.66,0,0,1-.61-2.7A5.54,5.54,0,0,1,481.72,94.88Z"/><path d="M494.64,94V99.8a1.37,1.37,0,0,0,.31,1,1.53,1.53,0,0,0,1.06.29h1.2v1.39h-1.47a2.93,2.93,0,0,1-2.05-.63A2.69,2.69,0,0,1,493,99.8V94h-1.28V92.63H493V90.15h1.64v2.48h2.57V94Z"/><path d="M499.25,90.71a1.12,1.12,0,0,1,0-1.59,1.09,1.09,0,0,1,.79-.32,1.06,1.06,0,0,1,.77.32,1.17,1.17,0,0,1,0,1.59A1.06,1.06,0,0,1,500,91,1.09,1.09,0,0,1,499.25,90.71Zm1.58,1.92v9.87h-1.64V92.63Z"/><path d="M507.29,101l3.06-8.36h1.75l-3.87,9.87h-1.91l-3.87-9.87h1.77Z"/><path d="M522.67,98.18h-7.89a3.09,3.09,0,0,0,3.21,3.09,3,3,0,0,0,1.77-.49,2.63,2.63,0,0,0,1-1.32h1.76a4.2,4.2,0,0,1-1.58,2.31,4.81,4.81,0,0,1-3,.89,5,5,0,0,1-2.52-.63,4.52,4.52,0,0,1-1.73-1.79,5.54,5.54,0,0,1-.63-2.69,5.61,5.61,0,0,1,.61-2.68,4.34,4.34,0,0,1,1.72-1.78,5.18,5.18,0,0,1,2.55-.62,5,5,0,0,1,2.48.61,4.15,4.15,0,0,1,1.66,1.69,5,5,0,0,1,.59,2.42C522.72,97.5,522.7,97.83,522.67,98.18Zm-2.06-2.94a2.65,2.65,0,0,0-1.12-1,3.59,3.59,0,0,0-1.58-.35,3,3,0,0,0-2.11.79,3.22,3.22,0,0,0-1,2.2H521A3,3,0,0,0,520.61,95.24Z"/><path d="M459.22,64.85a24.19,24.19,0,0,0,3.64-4.11,7.43,7.43,0,0,0,1.49-4.22,4.62,4.62,0,0,0-1-3.07,3.75,3.75,0,0,0-3-1.13,4,4,0,0,0-3.17,1.28A5.3,5.3,0,0,0,456,57h-2.64a7.21,7.21,0,0,1,2-5.19,7.74,7.74,0,0,1,9.85-.12,6.16,6.16,0,0,1,1.82,4.71,9,9,0,0,1-1.49,4.85,21.22,21.22,0,0,1-3.37,4.14q-1.89,1.78-4.83,4.15h10.32v2.28H453.25V69.87Q457.06,66.81,459.22,64.85Z"/><path d="M470.17,67.23V65.16L480.7,50.58H484V64.86h3v2.37h-3v4.83h-2.7V67.23Zm11.22-13.8-8.07,11.43h8.07Z"/><path d="M495.29,56.3a7.25,7.25,0,0,1,3.74-.95,7.68,7.68,0,0,1,4,1,7.43,7.43,0,0,1,2.81,3,9.21,9.21,0,0,1,1,4.42,9.44,9.44,0,0,1-1,4.44A7.49,7.49,0,0,1,499,72.33a7.18,7.18,0,0,1-3.71-.94A6.75,6.75,0,0,1,492.88,69V79.86h-2.73V55.62h2.73v3A6.48,6.48,0,0,1,495.29,56.3Zm8,4.24a5.2,5.2,0,0,0-2-2.1,5.59,5.59,0,0,0-2.8-.72,5.48,5.48,0,0,0-2.78.74,5.37,5.37,0,0,0-2,2.13,6.58,6.58,0,0,0-.76,3.22,6.68,6.68,0,0,0,.76,3.26,5.37,5.37,0,0,0,2,2.13,5.7,5.7,0,0,0,5.58,0,5.28,5.28,0,0,0,2-2.13,6.86,6.86,0,0,0,.75-3.29A6.68,6.68,0,0,0,503.29,60.54Z"/><path d="M519,72.06l-3.9-6.12-3.75,6.12h-2.85l5.31-8.16-5.31-8.28h3.09l3.9,6.09,3.72-6.09h2.85l-5.28,8.13,5.31,8.31Z"/></g></svg>