<svg xmlns="http://www.w3.org/2000/svg" viewBox="0 0 1152 324"><defs><style>.cls-1{fill:#fff;}.cls-2{fill:#80db6b;}.cls-3,.cls-4{fill:#232423;}.cls-4{fill-rule:evenodd;}.cls-5{fill:#e2e4e2;}.cls-6{fill:#484a48;}.cls-7{fill:#767876;}</style></defs><g id="Graphic"><path class="cls-1" d="M88.61,96.72h974.78A43.25,43.25,0,0,1,1106.64,140h0a43.24,43.24,0,0,1-43.25,43.24H88.61A43.24,43.24,0,0,1,45.36,140h0A43.25,43.25,0,0,1,88.61,96.72Z"/><path class="cls-2" d="M88.61,113.86H267A26.11,26.11,0,0,1,293.14,140h0A26.11,26.11,0,0,1,267,166.08H88.61A26.12,26.12,0,0,1,62.49,140h0A26.12,26.12,0,0,1,88.61,113.86Z"/><path class="cls-3" d="M87.18,145a1.47,1.47,0,0,0,1.48-1.44l0-.37H85.23V141h6.82a.19.19,0,0,1,.18.07.26.26,0,0,1,.07.16V143a.24.24,0,0,1-.25.26H90.51a.66.66,0,0,0,0,.11.61.61,0,0,1,0,.24v.28a3.41,3.41,0,0,1-.28,1.36,3.54,3.54,0,0,1-1.92,1.83,3.74,3.74,0,0,1-1.39.26H84a4.11,4.11,0,0,1-2.77-1.15,4.15,4.15,0,0,1-.83-1.24,3.77,3.77,0,0,1-.3-1.51v-4.6H82v4.32a1.86,1.86,0,0,0,.15.75,2.37,2.37,0,0,0,.42.61,2.08,2.08,0,0,0,.61.4A1.86,1.86,0,0,0,84,145ZM93.05,141v-1.74a2.84,2.84,0,0,1,.21-1.1,2.7,2.7,0,0,1,.61-.9,2.86,2.86,0,0,1,2-.82h.71a2.55,2.55,0,0,1,.92.17,2.6,2.6,0,0,1,.79.46,2.4,2.4,0,0,1,.61.69,3,3,0,0,1,.35.87l.26,1.34a2.47,2.47,0,0,1,0,1.24,2.53,2.53,0,0,1-.54,1A2.71,2.71,0,0,1,98,143a2.48,2.48,0,0,1-1.18.28H96a2.26,2.26,0,0,1-.54,0A3.94,3.94,0,0,1,95,143v.16a1.8,1.8,0,0,0,.14.68.77.77,0,0,0,.61.41l2,.39,1.76-2.16a4.37,4.37,0,0,1,1.34-1.13,3.5,3.5,0,0,1,1.69-.42h.2a.21.21,0,0,1,.16.07.21.21,0,0,1,.09.17V143c0,.16-.08.24-.25.24h-.5a1.79,1.79,0,0,0-.78.19,1.88,1.88,0,0,0-.65.54l-.22.3-.44.54c-.16.22-.34.45-.52.68s-.34.45-.51.64a5.69,5.69,0,0,1-.4.52,2.5,2.5,0,0,1-.17.25l-3.83-1a2,2,0,0,1-.7-.35,2.42,2.42,0,0,1-.52-.61,3.05,3.05,0,0,1-.33-.78,3.85,3.85,0,0,1-.1-.91h-1c-.17,0-.25-.08-.25-.24v-1.78c0-.16.08-.24.25-.24ZM95,139.23V141H97.1a.5.5,0,0,0,.42-.19.51.51,0,0,0,.12-.47l-.22-1.17a.66.66,0,0,0-.23-.4.68.68,0,0,0-.43-.15H95.61a.62.62,0,0,0-.46.19A.64.64,0,0,0,95,139.23Zm10.36,4h-2.55a.24.24,0,0,1-.18-.07.32.32,0,0,1-.07-.19V141.2a.26.26,0,0,1,.07-.16.21.21,0,0,1,.16-.09h2.77a1.51,1.51,0,0,0,.85-.24,1.63,1.63,0,0,0,.54-.63,1.54,1.54,0,0,0,.17-.8,1.39,1.39,0,0,0-.31-.82l-3-4v-1.37l5.9-3,.86,1.69-4.77,2.4,2.56,3.19a3.12,3.12,0,0,1,.62,1.25,3.28,3.28,0,0,1,.09,1.32,3.5,3.5,0,0,1-.38,1.24,4.35,4.35,0,0,1-.8,1.06,3.89,3.89,0,0,1-1.15.73A3.6,3.6,0,0,1,105.32,143.23Zm-2.14-12.48,5.49-2.78.59,1.34-5.47,2.8Zm12.08,12.48h-1.91V132.67h1.91Zm-4.28-11v-.92a1.49,1.49,0,0,1,.51-1.22,1.66,1.66,0,0,1,1.13-.43h3.6v1.65h-3.39a.35.35,0,0,0-.28.12.36.36,0,0,0-.09.24v.56Zm10.08-1.55s0,.11.07.33.12.49.19.82.13.69.19,1.1a9.89,9.89,0,0,1,.14,1.16.67.67,0,0,0,.28.49.88.88,0,0,0,.54.18h2.14v-4h2.09v4.11a2,2,0,0,1-.18.83,1.92,1.92,0,0,1-.45.68,2.15,2.15,0,0,1-.66.45,2.07,2.07,0,0,1-.82.16h-1.81a1.79,1.79,0,0,1-.57-.09,1,1,0,0,1-.49-.4v6.7H119.8v-7.6c0-.53,0-1-.08-1.55s-.14-1.05-.25-1.57l-.29-1.46ZM132,143.23a31.31,31.31,0,0,0-1.08-5.13,29.46,29.46,0,0,0-1.29-3.54,15.45,15.45,0,0,0-1.55-2.71l1.69-1.39.22.4c.17.25.36.59.6,1s.49.93.76,1.5.54,1.14.77,1.74a14.89,14.89,0,0,1,.57,1.83,6.65,6.65,0,0,1,.25,1.69,5.72,5.72,0,0,1,.14-1.26c.09-.44.2-.88.34-1.34s.32-.92.51-1.37.39-.89.59-1.31c.46-1,1-1.93,1.58-2.9l1.69,1.39a24.55,24.55,0,0,0-1.74,3.2,33.65,33.65,0,0,0-1.32,3.61,22.64,22.64,0,0,0-.85,4.57Zm9.24,1-.47-.2a2.14,2.14,0,0,1-.43-.19,3,3,0,0,1-.66-.47.93.93,0,0,1-.32-.68,2.42,2.42,0,0,1,.09-.59c.06-.24.11-.43.16-.57l.76-2.3,1.2.42-.69,2.12,1.08.42Zm6.19-1a31.31,31.31,0,0,0-1.08-5.13,29.46,29.46,0,0,0-1.29-3.54,14.84,14.84,0,0,0-1.55-2.71l1.69-1.39.23.4c.16.25.36.59.59,1s.5.93.77,1.5.53,1.14.76,1.74a14.94,14.94,0,0,1,.58,1.83,6.61,6.61,0,0,1,.24,1.69,6.39,6.39,0,0,1,.14-1.26c.09-.44.21-.88.35-1.34s.32-.92.5-1.37l.59-1.31c.47-1,1-1.93,1.59-2.9l1.69,1.39a22.38,22.38,0,0,0-1.74,3.2,31.51,31.51,0,0,0-1.33,3.61,23.36,23.36,0,0,0-.85,4.57Zm11-13.8,1.11,1.51-2.31,2a.65.65,0,0,0-.23.38.4.4,0,0,0,.18.42l2.26,1.72a12.94,12.94,0,0,1,.89-1.07c.31-.35.64-.69,1-1l1.17-1.12,1.48,1.48-1.08,1a14.48,14.48,0,0,0-2.06,2.37l-4.33,6.23-1.72-1.18,3.72-5.26a2.08,2.08,0,0,1-.54-.1,2.29,2.29,0,0,1-.5-.27l-1.36-1.06a2.47,2.47,0,0,1-.78-1,2.66,2.66,0,0,1-.23-1.15,2.79,2.79,0,0,1,.3-1.13,2.68,2.68,0,0,1,.76-.94ZM169,143.23a31.31,31.31,0,0,0-1.08-5.13,29.46,29.46,0,0,0-1.29-3.54,14.28,14.28,0,0,0-1.55-2.71l1.69-1.39.23.4c.16.25.36.59.59,1s.5.93.77,1.5.53,1.14.76,1.74a13.39,13.39,0,0,1,.58,1.83,6.61,6.61,0,0,1,.24,1.69,6.39,6.39,0,0,1,.14-1.26c.09-.44.21-.88.35-1.34s.32-.92.5-1.37.4-.89.6-1.31c.46-1,1-1.93,1.58-2.9l1.69,1.39a22.38,22.38,0,0,0-1.74,3.2,31.51,31.51,0,0,0-1.33,3.61,23.36,23.36,0,0,0-.85,4.57Zm18.52-2.8a2,2,0,0,1,1.1.68,1.87,1.87,0,0,1,.43,1.24v.6a3.37,3.37,0,0,1-.28,1.38,3.6,3.6,0,0,1-.76,1.15,3.6,3.6,0,0,1-2.53,1H182a3.68,3.68,0,0,1-1.51-.31,3.87,3.87,0,0,1-1.26-.84,4.1,4.1,0,0,1-.83-1.23,3.82,3.82,0,0,1-.3-1.52v-4H180v3.71a1.85,1.85,0,0,0,.15.74,2.07,2.07,0,0,0,.42.61,1.75,1.75,0,0,0,.61.4,1.71,1.71,0,0,0,.75.16h3.74a1.43,1.43,0,0,0,1.45-1.44v-.46l-4.88-1.15v-2a3.48,3.48,0,0,1,.89-2.39,3.42,3.42,0,0,1,1-.78,3.58,3.58,0,0,1,1.26-.4l2.43-.31.32,2.08-2.79.37a1.42,1.42,0,0,0-.9.47,1.36,1.36,0,0,0-.35.94v.5Zm6.08,2.8a2.63,2.63,0,0,1-1.19-.26,2.68,2.68,0,0,1-.9-.73,2.75,2.75,0,0,1-.54-1,2.6,2.6,0,0,1,0-1.21l.3-1.59a2.7,2.7,0,0,1,.33-.87,2.82,2.82,0,0,1,.61-.71,2.55,2.55,0,0,1,.78-.46,2.74,2.74,0,0,1,.94-.17h1a2.79,2.79,0,0,1,1.11.23,2.88,2.88,0,0,1,.91.62,3.23,3.23,0,0,1,.61.91,2.78,2.78,0,0,1,.22,1.11V141h1.22a.21.21,0,0,1,.24.24V143a.21.21,0,0,1-.24.24h-1.24v.09a1.09,1.09,0,0,1,0,.17,3.7,3.7,0,0,1-.89,2.08,4.42,4.42,0,0,1-2,1.34l-2.38.81-.59-1.82,2.45-.82a2.25,2.25,0,0,0,1.06-.73,1.83,1.83,0,0,0,.42-1.2V143a2.84,2.84,0,0,1-.47.16,2.65,2.65,0,0,1-.56,0Zm-.25-2.26h2.46v-1.91a.65.65,0,0,0-.19-.47.62.62,0,0,0-.47-.21H193.7a.6.6,0,0,0-.42.15.77.77,0,0,0-.23.4l-.28,1.4a.53.53,0,0,0,.11.45A.54.54,0,0,0,193.31,141Zm5.58,2.26a.21.21,0,0,1-.24-.24v-1.76a.25.25,0,0,1,.07-.17.21.21,0,0,1,.16-.09H202a4.83,4.83,0,0,0,1.45-.23,2.88,2.88,0,0,0,1.21-.78l1-1.08.16-.16.09-.06-3.66-1.1a.37.37,0,0,0-.31,0,.48.48,0,0,0-.19.23l-.66,1.74-1.68-.45.46-1.6a2.42,2.42,0,0,1,.48-.93,2.56,2.56,0,0,1,.77-.59,2.31,2.31,0,0,1,.92-.26,2.27,2.27,0,0,1,.94.09l6.93,2.07-.57,1.79-.82-.24a1.34,1.34,0,0,0-.51,0,1.22,1.22,0,0,0-.36.14v.59a.83.83,0,0,0,.24.6.81.81,0,0,0,.59.24h2.32a.21.21,0,0,1,.24.24V143a.21.21,0,0,1-.24.24h-2a2.71,2.71,0,0,1-1.78-.59,3.2,3.2,0,0,1-1-1.55l-.7.7a4.54,4.54,0,0,1-1.74,1.09,5.9,5.9,0,0,1-2,.35Zm4.79,2.11h2v2h-2Zm7.77-9.87h2v-2h-2Zm2.91,0h2v-2h-2Zm3.22,7.52a.23.23,0,0,1-.07.17.21.21,0,0,1-.17.07H216a2.43,2.43,0,0,1-1.12-.29,1.76,1.76,0,0,1-.75-.73,1.42,1.42,0,0,1-.35.4,5.42,5.42,0,0,1-.5.33,2.59,2.59,0,0,1-.57.22,2.46,2.46,0,0,1-.6.07h-1.32a.21.21,0,0,1-.24-.24v-1.76a.21.21,0,0,1,.07-.17.2.2,0,0,1,.17-.09h1.5a1,1,0,0,0,.61-.21.94.94,0,0,0,.33-.56l.64-3.13,1.88.33-.52,2.63a.7.7,0,0,0,.16.66.77.77,0,0,0,.62.28h1.31a.2.2,0,0,1,.17.09.21.21,0,0,1,.07.17Zm4.41.24a2.85,2.85,0,0,1-1.17-.24,2.51,2.51,0,0,1-1-.78,2.47,2.47,0,0,1-1,.78,2.85,2.85,0,0,1-1.17.24h-.38a.21.21,0,0,1-.16-.07.22.22,0,0,1-.09-.17v-1.76a.2.2,0,0,1,.09-.17.21.21,0,0,1,.16-.09h.71a.87.87,0,0,0,.59-.26.78.78,0,0,0,.25-.59V137h1.91v3.15a.83.83,0,0,0,.26.58.83.83,0,0,0,.56.24h.56a1,1,0,0,0,.61-.21,1,1,0,0,0,.33-.57l.61-3.15,1.88.34-.53,2.65a.76.76,0,0,0,.16.66.82.82,0,0,0,.63.28h.49a.84.84,0,0,0,.59-.23.81.81,0,0,0,.24-.59v-3.6h1.92v3.58a.83.83,0,0,0,.24.6.81.81,0,0,0,.59.24h.7a.21.21,0,0,1,.17.09.19.19,0,0,1,.07.15V143a.26.26,0,0,1-.07.19.18.18,0,0,1-.17.07h-.39a2.83,2.83,0,0,1-1.16-.24,2.32,2.32,0,0,1-.94-.78,2.5,2.5,0,0,1-1,.78,2.93,2.93,0,0,1-1.18.24,2.84,2.84,0,0,1-1.1-.22,2,2,0,0,1-.88-.8,2.5,2.5,0,0,1-.93.8A2.72,2.72,0,0,1,222,143.23Zm8.4-2a.24.24,0,0,1,.09-.17.18.18,0,0,1,.15-.09h3.12a4.71,4.71,0,0,0,1.44-.23,2.91,2.91,0,0,0,1.22-.78l1-1.08.16-.16.08-.06-3.65-1.1a.37.37,0,0,0-.31,0,.5.5,0,0,0-.2.23l-.66,1.74-1.67-.45.45-1.6a2.58,2.58,0,0,1,.49-.93,2.69,2.69,0,0,1,.77-.59,2.58,2.58,0,0,1,1.86-.17l6.93,2.07-.58,1.79-.81-.24a1.17,1.17,0,0,0-.68,0,1.33,1.33,0,0,0-.51.34l-2,2a4.54,4.54,0,0,1-1.74,1.09,5.91,5.91,0,0,1-2,.35h-2.68a.21.21,0,0,1-.24-.24Zm5.05,6.11h2v-2h-2Z"/><path class="cls-4" d="M273.62,134.53l-2-4.67-.56-.11a34.8,34.8,0,0,0-13.49,0l-.55.11-2,4.67h-1.56v2.18h1.09v2a6.55,6.55,0,0,0-3.27,5.66,6.55,6.55,0,0,0,6.53,6.53,6.67,6.67,0,0,0,3.27-.88c.18-.1.35-.22.52-.33l3.36,3.34,1.54-1.54-3.37-3.34c.12-.17.23-.34.34-.52a7.64,7.64,0,0,0,.5-1.09h.37a34.83,34.83,0,0,0,7.61-.87v2h2.18V136.71h1.09v-2.18Zm-16.93,3.26.12.08a6.24,6.24,0,0,1,1-.08,6.76,6.76,0,0,1,2.66.57,6.69,6.69,0,0,1,2.19,1.61h6l3.26-2.18V136.1l-1.86-4.36a32.73,32.73,0,0,0-11.51,0l-1.86,4.36Zm-2.17,3.66v-.06a3.71,3.71,0,0,0-.52.71,4.32,4.32,0,0,0-.57,1.72,4.4,4.4,0,0,0,.18,1.8,4.34,4.34,0,0,0,.91,1.57,2.87,2.87,0,0,0,.39.39,4.33,4.33,0,0,0,2.87,1.09,4.37,4.37,0,0,0,3.83-2.29,4.34,4.34,0,0,0,.52-2.06v-.09a4.14,4.14,0,0,0-.59-2.08,4.25,4.25,0,0,0-1.41-1.48,4.42,4.42,0,0,0-1.92-.67,4.34,4.34,0,0,0-2,.28A4.19,4.19,0,0,0,254.52,141.45Zm9.41.7a6.39,6.39,0,0,1,.38,2.17,32,32,0,0,0,7.61-.9v-3l-2.64,1.75Z"/><path class="cls-3" d="M323.65,121.86l-.58-.54.69-.86,1.64,1.47c.33.3.67.64,1,1a8.89,8.89,0,0,1,1,1.35,7.16,7.16,0,0,1,.79,1.7,6,6,0,0,1,.32,2,3.53,3.53,0,0,1-.15,1,2.55,2.55,0,0,1-.42.84,2.12,2.12,0,0,1-.72.56,2.26,2.26,0,0,1-1,.21,2,2,0,0,1-1-.23,3.22,3.22,0,0,1-.82-.7,2.85,2.85,0,0,1-.84.7,2,2,0,0,1-1,.23,2.46,2.46,0,0,1-1.05-.21,2.11,2.11,0,0,1-.71-.58,2.35,2.35,0,0,1-.41-.84,3.75,3.75,0,0,1-.13-1,6.25,6.25,0,0,1,.29-1.93,7.83,7.83,0,0,1,.75-1.63,9.26,9.26,0,0,1,1.07-1.42Q323,122.43,323.65,121.86Zm.79.71c-.46.44-.87.86-1.25,1.27a8.34,8.34,0,0,0-.94,1.25,5.22,5.22,0,0,0-.84,3,2,2,0,0,0,.24,1,1,1,0,0,0,.87.41h.18a1.15,1.15,0,0,0,.78-.28,1.29,1.29,0,0,0,.44-.76l.34-1.41,1.06.18-.32,1.35a1.59,1.59,0,0,0,.16.32,1.18,1.18,0,0,0,.26.29,1.69,1.69,0,0,0,.36.23,1.14,1.14,0,0,0,.4.08h.18a.93.93,0,0,0,.87-.41,1.87,1.87,0,0,0,.26-1,5.61,5.61,0,0,0-.22-1.66,5.07,5.07,0,0,0-.59-1.37,7.26,7.26,0,0,0-1-1.24C325.35,123.43,324.92,123,324.44,122.57Zm7.78,8.94-.47-.18a3.52,3.52,0,0,1-.4-.18,2.58,2.58,0,0,1-.38-.32.78.78,0,0,1-.2-.5,2,2,0,0,1,.09-.57c.07-.21.13-.37.16-.49l.65-1.85.79.29-.7,2,.95.37Zm5.5-6.61a2.09,2.09,0,0,1,.83.17,2.17,2.17,0,0,1,1.14,1.14,2.09,2.09,0,0,1,.17.83v.77a2.16,2.16,0,0,1-.17.83,2.35,2.35,0,0,1-.46.67,2.12,2.12,0,0,1-.68.45,2.09,2.09,0,0,1-.83.17H337a2.14,2.14,0,0,1-.84-.17,2.08,2.08,0,0,1-.67-.45,2.09,2.09,0,0,1-.63-1.5V127a2.09,2.09,0,0,1,.17-.83,2,2,0,0,1,.46-.68,2.1,2.1,0,0,1,.67-.46,2.14,2.14,0,0,1,.84-.17Zm1,2.84V127a.87.87,0,0,0-.29-.68.9.9,0,0,0-.68-.28h-.9a1,1,0,0,0-.69.28.93.93,0,0,0-.27.68v.72a1,1,0,0,0,.27.68,1,1,0,0,0,.69.28h.9a.94.94,0,0,0,.68-.28A.9.9,0,0,0,338.77,127.74Zm5.94-2.84a2.09,2.09,0,0,1,.83.17,2.17,2.17,0,0,1,1.14,1.14,2.09,2.09,0,0,1,.17.83v.77a2.16,2.16,0,0,1-.17.83,2.35,2.35,0,0,1-.46.67,2.12,2.12,0,0,1-.68.45,2.09,2.09,0,0,1-.83.17H344a2.14,2.14,0,0,1-.84-.17,2.19,2.19,0,0,1-.67-.45,2.35,2.35,0,0,1-.46-.67,2.15,2.15,0,0,1-.16-.83V127a2.08,2.08,0,0,1,.16-.83,2.15,2.15,0,0,1,.46-.68,2.22,2.22,0,0,1,.67-.46,2.14,2.14,0,0,1,.84-.17Zm1.05,2.84V127a.9.9,0,0,0-.28-.68.94.94,0,0,0-.69-.28h-.9a.93.93,0,0,0-.68.28.9.9,0,0,0-.28.68v.72a.93.93,0,0,0,.28.68,1,1,0,0,0,.68.28h.9a1,1,0,0,0,.69-.28A.93.93,0,0,0,345.76,127.74Zm5.94-2.84a2.09,2.09,0,0,1,.83.17,2.15,2.15,0,0,1,.68.46,2,2,0,0,1,.46.68,2.09,2.09,0,0,1,.17.83v.77a2.09,2.09,0,0,1-.63,1.5,2.12,2.12,0,0,1-.68.45,2.09,2.09,0,0,1-.83.17H351a2.14,2.14,0,0,1-.84-.17,2.19,2.19,0,0,1-.67-.45,2.35,2.35,0,0,1-.46-.67,2.15,2.15,0,0,1-.16-.83V127a2.08,2.08,0,0,1,.16-.83,2.15,2.15,0,0,1,.46-.68,2.22,2.22,0,0,1,.67-.46,2.14,2.14,0,0,1,.84-.17Zm1.05,2.84V127a.9.9,0,0,0-.28-.68.94.94,0,0,0-.69-.28h-.9a.93.93,0,0,0-.68.28.9.9,0,0,0-.28.68v.72a.93.93,0,0,0,.28.68,1,1,0,0,0,.68.28h.9a1,1,0,0,0,.69-.28A.93.93,0,0,0,352.75,127.74Zm4.67,3.77-.48-.18-.39-.18a2.58,2.58,0,0,1-.38-.32.73.73,0,0,1-.2-.5,2,2,0,0,1,.09-.57c.07-.21.12-.37.15-.49l.66-1.85.79.29-.7,2,.94.37Zm5.5-6.61a2,2,0,0,1,.82.17,2.19,2.19,0,0,1,.69.46,2.12,2.12,0,0,1,.45.68,1.93,1.93,0,0,1,.17.83v.77a2,2,0,0,1-.17.83,2.32,2.32,0,0,1-.45.67,2.17,2.17,0,0,1-.69.45,2,2,0,0,1-.82.17h-.75a2.12,2.12,0,0,1-.83-.17,2.08,2.08,0,0,1-.67-.45,2.09,2.09,0,0,1-.63-1.5V127a2.09,2.09,0,0,1,.17-.83,2,2,0,0,1,.46-.68,2.09,2.09,0,0,1,1.5-.63Zm1.05,2.84V127a1,1,0,0,0-1-1h-.9a.94.94,0,0,0-1,1v.72a1,1,0,0,0,.27.68,1,1,0,0,0,.69.28h.9a1,1,0,0,0,1-1Zm5.94-2.84a2,2,0,0,1,.82.17,2.19,2.19,0,0,1,.69.46,2.33,2.33,0,0,1,.46.68,2.08,2.08,0,0,1,.16.83v.77a2.15,2.15,0,0,1-.16.83,2.58,2.58,0,0,1-.46.67,2.17,2.17,0,0,1-.69.45,2,2,0,0,1-.82.17h-.75a2.12,2.12,0,0,1-.83-.17,2.08,2.08,0,0,1-.67-.45,2.09,2.09,0,0,1-.63-1.5V127a2.09,2.09,0,0,1,.17-.83,2,2,0,0,1,.46-.68,2.09,2.09,0,0,1,1.5-.63Zm1,2.84V127a1,1,0,0,0-1-1h-.9a1,1,0,0,0-.69.28.93.93,0,0,0-.27.68v.72a1,1,0,0,0,.27.68,1,1,0,0,0,.69.28h.9a1,1,0,0,0,1-1Zm5.94-2.84a2,2,0,0,1,.82.17,2.09,2.09,0,0,1,.69.46,2.33,2.33,0,0,1,.46.68,2.08,2.08,0,0,1,.16.83v.77a2.15,2.15,0,0,1-.16.83,2.58,2.58,0,0,1-.46.67,2.06,2.06,0,0,1-.69.45,2,2,0,0,1-.82.17h-.74a2.14,2.14,0,0,1-.84-.17,2.08,2.08,0,0,1-.67-.45,2.09,2.09,0,0,1-.63-1.5V127a2.09,2.09,0,0,1,.17-.83,2,2,0,0,1,.46-.68,2.1,2.1,0,0,1,.67-.46,2.14,2.14,0,0,1,.84-.17Zm1.05,2.84V127a.87.87,0,0,0-.29-.68.9.9,0,0,0-.68-.28h-.9a1,1,0,0,0-.69.28.93.93,0,0,0-.27.68v.72a1,1,0,0,0,.27.68,1,1,0,0,0,.69.28h.9a.94.94,0,0,0,.68-.28A.9.9,0,0,0,378,127.74Zm4.66,3.77-.47-.18-.4-.18a3.23,3.23,0,0,1-.38-.32.77.77,0,0,1-.19-.5,2,2,0,0,1,.09-.57c.07-.21.12-.37.15-.49l.65-1.85.8.29-.7,2,.94.37Zm5.51-6.61a2.08,2.08,0,0,1,.82.17,2.15,2.15,0,0,1,.68.46,2,2,0,0,1,.46.68,2.09,2.09,0,0,1,.17.83v.77a2.09,2.09,0,0,1-.63,1.5,2.12,2.12,0,0,1-.68.45,2.08,2.08,0,0,1-.82.17h-.75a2.14,2.14,0,0,1-1.51-.62,2.58,2.58,0,0,1-.46-.67,2.15,2.15,0,0,1-.16-.83V127a2.08,2.08,0,0,1,.16-.83,2.33,2.33,0,0,1,.46-.68,2.22,2.22,0,0,1,.67-.46,2.17,2.17,0,0,1,.84-.17Zm1.05,2.84V127a.91.91,0,0,0-.29-.68.92.92,0,0,0-.69-.28h-.9a1,1,0,0,0-1,1v.72a1,1,0,0,0,1,1h.9a1,1,0,0,0,.69-.28A.94.94,0,0,0,389.17,127.74Zm5.94-2.84a2,2,0,0,1,.82.17,2.15,2.15,0,0,1,.68.46,2,2,0,0,1,.46.68,2.09,2.09,0,0,1,.17.83v.77a2.09,2.09,0,0,1-.63,1.5,2.12,2.12,0,0,1-.68.45,2,2,0,0,1-.82.17h-.75a2.21,2.21,0,0,1-.84-.17,2.09,2.09,0,0,1-1.12-1.12,2,2,0,0,1-.17-.83V127a1.93,1.93,0,0,1,.17-.83,2.12,2.12,0,0,1,.45-.68,2.35,2.35,0,0,1,.67-.46,2.21,2.21,0,0,1,.84-.17Zm1.05,2.84V127a1,1,0,0,0-1-1h-.9a1,1,0,0,0-1,1v.72a1,1,0,0,0,1,1h.9a1,1,0,0,0,1-1Zm5.94-2.84a2,2,0,0,1,.82.17,2.31,2.31,0,0,1,.69.46,2.12,2.12,0,0,1,.45.68,2.09,2.09,0,0,1,.17.83v.77a2.16,2.16,0,0,1-.17.83,2.32,2.32,0,0,1-.45.67,2.29,2.29,0,0,1-.69.45,2,2,0,0,1-.82.17h-.75a2.21,2.21,0,0,1-.84-.17,2.09,2.09,0,0,1-1.12-1.12,2,2,0,0,1-.17-.83V127a1.93,1.93,0,0,1,.17-.83,2.12,2.12,0,0,1,.45-.68,2.35,2.35,0,0,1,.67-.46,2.21,2.21,0,0,1,.84-.17Zm1,2.84V127a1,1,0,0,0-1-1h-.89a.94.94,0,0,0-1,1v.72a1,1,0,0,0,.27.68,1,1,0,0,0,.69.28h.89a1,1,0,0,0,1-1Zm5.19-1.79h4.6v1.18h-4.6Zm12.12-4.09-.57-.54.68-.86,1.65,1.47c.32.3.67.64,1,1a8.93,8.93,0,0,1,1,1.35,7.57,7.57,0,0,1,.79,1.7,6.3,6.3,0,0,1,.32,2,3.53,3.53,0,0,1-.15,1,2.57,2.57,0,0,1-.43.84,1.94,1.94,0,0,1-.72.56,2.26,2.26,0,0,1-1,.21,2,2,0,0,1-1-.23,3.06,3.06,0,0,1-.82-.7,3.13,3.13,0,0,1-.84.7,2,2,0,0,1-1,.23,2.4,2.4,0,0,1-1.05-.21,2.15,2.15,0,0,1-.72-.58,2.53,2.53,0,0,1-.41-.84,4.19,4.19,0,0,1-.12-1,6.25,6.25,0,0,1,.29-1.93,7.8,7.8,0,0,1,.74-1.63,10,10,0,0,1,1.07-1.42Q419.85,122.43,420.46,121.86Zm.8.71c-.46.44-.88.86-1.25,1.27a8.42,8.42,0,0,0-.95,1.25,5.32,5.32,0,0,0-.83,3,2,2,0,0,0,.24,1,1,1,0,0,0,.87.41h.18a1.17,1.17,0,0,0,.78-.28,1.29,1.29,0,0,0,.44-.76l.33-1.41,1.07.18-.32,1.35a1.15,1.15,0,0,0,.15.32,1.42,1.42,0,0,0,.26.29,1.76,1.76,0,0,0,.37.23,1.09,1.09,0,0,0,.39.08h.19a.92.92,0,0,0,.86-.41,1.79,1.79,0,0,0,.26-1,6,6,0,0,0-.21-1.66,5.07,5.07,0,0,0-.59-1.37,8.43,8.43,0,0,0-1-1.24C422.16,123.43,421.73,123,421.26,122.57Zm9.05,2.33a2.09,2.09,0,0,1,.83.17,2.15,2.15,0,0,1,.68.46,2,2,0,0,1,.46.68,2.09,2.09,0,0,1,.17.83v.77a2.09,2.09,0,0,1-.63,1.5,2.12,2.12,0,0,1-.68.45,2.09,2.09,0,0,1-.83.17h-.74a2.14,2.14,0,0,1-.84-.17,2.19,2.19,0,0,1-.67-.45,2.35,2.35,0,0,1-.46-.67,2.16,2.16,0,0,1-.17-.83V127a2.09,2.09,0,0,1,.17-.83,2.15,2.15,0,0,1,.46-.68,2.22,2.22,0,0,1,.67-.46,2.14,2.14,0,0,1,.84-.17Zm1.05,2.84V127a.9.9,0,0,0-.28-.68.94.94,0,0,0-.69-.28h-.9a.93.93,0,0,0-.68.28.9.9,0,0,0-.28.68v.72a.93.93,0,0,0,.28.68,1,1,0,0,0,.68.28h.9a1,1,0,0,0,.69-.28A.93.93,0,0,0,431.36,127.74Zm4.67,3.77-.48-.18-.39-.18a2.58,2.58,0,0,1-.38-.32.73.73,0,0,1-.2-.5,2,2,0,0,1,.09-.57c.07-.21.12-.37.15-.49l.66-1.85.79.29-.7,2,.94.37Zm5.5-6.61a2,2,0,0,1,.82.17,2.31,2.31,0,0,1,.69.46,2.12,2.12,0,0,1,.45.68,2.09,2.09,0,0,1,.17.83v.77a2.16,2.16,0,0,1-.17.83,2.32,2.32,0,0,1-.45.67,2.29,2.29,0,0,1-.69.45,2,2,0,0,1-.82.17h-.75a2.12,2.12,0,0,1-.83-.17,2.24,2.24,0,0,1-.68-.45,2.32,2.32,0,0,1-.45-.67,2.16,2.16,0,0,1-.17-.83V127a2.09,2.09,0,0,1,.17-.83,2.12,2.12,0,0,1,.45-.68,2.27,2.27,0,0,1,.68-.46,2.12,2.12,0,0,1,.83-.17Zm1.05,2.84V127a1,1,0,0,0-1-1h-.9a.94.94,0,0,0-1,1v.72a1,1,0,0,0,.27.68,1,1,0,0,0,.69.28h.9a1,1,0,0,0,1-1Zm5.94-2.84a2,2,0,0,1,.82.17,2.19,2.19,0,0,1,.69.46,2.33,2.33,0,0,1,.46.68,2.08,2.08,0,0,1,.16.83v.77a2.15,2.15,0,0,1-.16.83,2.58,2.58,0,0,1-.46.67,2.17,2.17,0,0,1-.69.45,2,2,0,0,1-.82.17h-.75a2.12,2.12,0,0,1-.83-.17,2.08,2.08,0,0,1-.67-.45,2.09,2.09,0,0,1-.63-1.5V127a2.09,2.09,0,0,1,.17-.83,2,2,0,0,1,.46-.68,2.09,2.09,0,0,1,1.5-.63Zm1.05,2.84V127a1,1,0,0,0-1-1h-.9a.94.94,0,0,0-1,1v.72a1,1,0,0,0,.27.68,1,1,0,0,0,.69.28h.9a1,1,0,0,0,1-1Zm5.94-2.84a2,2,0,0,1,.82.17,2.09,2.09,0,0,1,.69.46,2.12,2.12,0,0,1,.45.68,1.93,1.93,0,0,1,.17.83v.77a2,2,0,0,1-.17.83,2.32,2.32,0,0,1-.45.67,2.06,2.06,0,0,1-.69.45,2,2,0,0,1-.82.17h-.75a2.12,2.12,0,0,1-.83-.17,2.08,2.08,0,0,1-.67-.45,2.09,2.09,0,0,1-.63-1.5V127a2.09,2.09,0,0,1,.17-.83,2,2,0,0,1,.46-.68,2.09,2.09,0,0,1,1.5-.63Zm1.05,2.84V127a.87.87,0,0,0-.29-.68.9.9,0,0,0-.68-.28h-.9a1,1,0,0,0-.69.28.93.93,0,0,0-.27.68v.72a1,1,0,0,0,.27.68,1,1,0,0,0,.69.28h.9a.94.94,0,0,0,.68-.28A.9.9,0,0,0,456.56,127.74Zm4.66,3.77-.47-.18-.4-.18a2.58,2.58,0,0,1-.38-.32.78.78,0,0,1-.2-.5,2.08,2.08,0,0,1,.1-.57c.07-.21.12-.37.15-.49l.65-1.85.8.29-.71,2,.95.37Zm5.51-6.61a2.08,2.08,0,0,1,.82.17,2.15,2.15,0,0,1,.68.46,2,2,0,0,1,.46.68,2.09,2.09,0,0,1,.17.83v.77a2.09,2.09,0,0,1-.63,1.5,2.12,2.12,0,0,1-.68.45,2.08,2.08,0,0,1-.82.17H466a2.14,2.14,0,0,1-1.51-.62,2.58,2.58,0,0,1-.46-.67,2.15,2.15,0,0,1-.16-.83V127a2.08,2.08,0,0,1,.16-.83,2.33,2.33,0,0,1,.46-.68,2.22,2.22,0,0,1,.67-.46,2.17,2.17,0,0,1,.84-.17Zm1,2.84V127a.91.91,0,0,0-.29-.68.92.92,0,0,0-.69-.28h-.9a1,1,0,0,0-1,1v.72a1,1,0,0,0,1,1h.9a1,1,0,0,0,.69-.28A.94.94,0,0,0,467.78,127.74Zm5.94-2.84a2.08,2.08,0,0,1,.82.17,2.15,2.15,0,0,1,.68.46,2,2,0,0,1,.46.68,2.09,2.09,0,0,1,.17.83v.77a2.09,2.09,0,0,1-.63,1.5,2.12,2.12,0,0,1-.68.45,2.08,2.08,0,0,1-.82.17H473a2.21,2.21,0,0,1-.84-.17,2.09,2.09,0,0,1-1.12-1.12,2,2,0,0,1-.17-.83V127a1.93,1.93,0,0,1,.17-.83,2.12,2.12,0,0,1,.45-.68,2.35,2.35,0,0,1,.67-.46,2.21,2.21,0,0,1,.84-.17Zm1,2.84V127a1,1,0,0,0-1-1h-.9a1,1,0,0,0-1,1v.72a1,1,0,0,0,1,1h.9a1,1,0,0,0,1-1Zm5.94-2.84a2,2,0,0,1,.82.17,2.31,2.31,0,0,1,.69.46,2.12,2.12,0,0,1,.45.68,2.09,2.09,0,0,1,.17.83v.77a2.16,2.16,0,0,1-.17.83,2.32,2.32,0,0,1-.45.67,2.29,2.29,0,0,1-.69.45,2,2,0,0,1-.82.17H480a2.21,2.21,0,0,1-.84-.17,2.09,2.09,0,0,1-1.12-1.12,2,2,0,0,1-.17-.83V127a1.93,1.93,0,0,1,.17-.83,2.12,2.12,0,0,1,.45-.68,2.35,2.35,0,0,1,.67-.46,2.21,2.21,0,0,1,.84-.17Zm1.05,2.84V127a1,1,0,0,0-1-1h-.89a.94.94,0,0,0-1,1v.72a1,1,0,0,0,.27.68,1,1,0,0,0,.69.28h.89a1,1,0,0,0,1-1Z"/><path class="cls-3" d="M642,123.46h2v-2h-2Zm2.9,0h2v-2h-2Zm-5.17,0v3a1.37,1.37,0,0,0,.42,1,1.43,1.43,0,0,0,1,.41h7.14a.86.86,0,0,0,.59-.23.81.81,0,0,0,.24-.59V124h1.92v3.12a.81.81,0,0,0,.24.59.82.82,0,0,0,.59.25h.52c.17,0,.25.08.25.24v1.77a.22.22,0,0,1-.25.25h-.19a2.63,2.63,0,0,1-1.16-.26,2.9,2.9,0,0,1-.94-.77,2.63,2.63,0,0,1-1,.78,2.66,2.66,0,0,1-1.16.25h-6.62a3.36,3.36,0,0,1-1.37-.28,3.84,3.84,0,0,1-1.13-.75,3.49,3.49,0,0,1-.75-1.13,3.37,3.37,0,0,1-.28-1.38v-3.18Zm12.7,6.72c-.16,0-.24-.08-.24-.25v-1.77a.21.21,0,0,1,.24-.24H653a.87.87,0,0,0,.59-.21,1,1,0,0,0,.33-.56l.35-1.79a2.54,2.54,0,0,1,.33-.87,2.77,2.77,0,0,1,.61-.7,2.34,2.34,0,0,1,.78-.45,2.53,2.53,0,0,1,.94-.18h1a2.79,2.79,0,0,1,1.11.23,2.7,2.7,0,0,1,.9.61,2.81,2.81,0,0,1,.61.9,2.64,2.64,0,0,1,.23,1.12v1.06a.81.81,0,0,0,.24.59.84.84,0,0,0,.6.25h.66a.21.21,0,0,1,.24.24v1.77a.23.23,0,0,1-.09.18.21.21,0,0,1-.15.07h-.33a2.74,2.74,0,0,1-1-.18,2.14,2.14,0,0,1-.83-.57,1.74,1.74,0,0,1-1.47.75h-2a2.32,2.32,0,0,1-1-.23.88.88,0,0,0-1.74,0,2.43,2.43,0,0,1-1,.23Zm4-2.26h2.46V126a.63.63,0,0,0-.2-.47.61.61,0,0,0-.47-.19h-1.41a.56.56,0,0,0-.41.16.65.65,0,0,0-.23.38l-.28,1.39a.53.53,0,0,0,.11.45A.55.55,0,0,0,656.36,127.92Zm6.69,6.35h2v-2h-2Zm2.89,0h2v-2h-2Zm3.07-4.34a.34.34,0,0,1-.07.18.29.29,0,0,1-.18.07h-1.32a2.32,2.32,0,0,1-1.11-.3,1.65,1.65,0,0,1-.75-.73,1.6,1.6,0,0,1-.35.4,3.61,3.61,0,0,1-.5.33,3.34,3.34,0,0,1-.58.23,3,3,0,0,1-.59.07h-1.32a.22.22,0,0,1-.25-.25v-1.75a.29.29,0,0,1,.07-.18.22.22,0,0,1,.18-.08h1.49a.94.94,0,0,0,.61-.21.88.88,0,0,0,.33-.56l.65-3.13,1.88.33-.53,2.63a.76.76,0,0,0,.16.66.81.81,0,0,0,.63.28h1.3a.22.22,0,0,1,.18.08.29.29,0,0,1,.07.18Zm3-5.29h2.35v-1.81a.65.65,0,0,0-.2-.47.61.61,0,0,0-.47-.19h-1.34a.64.64,0,0,0-.43.16.63.63,0,0,0-.23.4L671.5,124a.56.56,0,0,0,.1.47A.55.55,0,0,0,672,124.64Zm4.26,2.42a3.12,3.12,0,0,1-.24,1.22,3.36,3.36,0,0,1-.68,1,3.07,3.07,0,0,1-1,.66,2.9,2.9,0,0,1-1.2.25h-4.43a.26.26,0,0,1-.17-.07.28.28,0,0,1-.07-.19v-1.76a.21.21,0,0,1,.07-.16.17.17,0,0,1,.17-.08h4.79a.85.85,0,0,0,.84-.84v-.37a3,3,0,0,1-1,.2h-1a2.75,2.75,0,0,1-1.2-.28,3.09,3.09,0,0,1-.94-.73,3.13,3.13,0,0,1-.52-1.07,2.82,2.82,0,0,1,0-1.23l.26-1.39a2.56,2.56,0,0,1,.33-.89,3.17,3.17,0,0,1,.61-.7,2.34,2.34,0,0,1,.78-.45,2.53,2.53,0,0,1,.94-.18h.94a2.71,2.71,0,0,1,1.1.23,2.86,2.86,0,0,1,.9.61,2.51,2.51,0,0,1,.59.91,2.57,2.57,0,0,1,.23,1.07Zm-5.83-10.62h2v2h-2Zm2.91,0h2v2h-2Z"/><circle class="cls-3" cx="325.78" cy="157.38" r="6.53"/><rect class="cls-3" x="332.3" y="155.2" width="216.5" height="4.35"/><circle class="cls-3" cx="555.33" cy="157.38" r="6.53"/><rect class="cls-5" x="561.86" y="156.29" width="115.32" height="2.18"/><path class="cls-3" d="M793,133.22a3.68,3.68,0,0,1-1.51-.31,3.84,3.84,0,0,1-1.26-.83,4,4,0,0,1-.83-1.24,3.89,3.89,0,0,1-.3-1.52v-4.59h1.92v4.32a1.85,1.85,0,0,0,.15.74,2.07,2.07,0,0,0,.42.61A2,2,0,0,0,793,131h3.13a1.53,1.53,0,0,0,1.12-.45,1.5,1.5,0,0,0,.45-1.1V118.25h1.91v11.48a3.36,3.36,0,0,1-.27,1.35,3.47,3.47,0,0,1-1.87,1.87,3.36,3.36,0,0,1-1.35.27Zm17.22-5.3h.48a.19.19,0,0,1,.16.08.23.23,0,0,1,.09.18v1.75a.34.34,0,0,1-.07.18.29.29,0,0,1-.18.07h-.35a2.59,2.59,0,0,1-1.23-.28,3.69,3.69,0,0,1-.89-.63,3.43,3.43,0,0,1-1,.66,2.9,2.9,0,0,1-1.22.25h-2.28a2.25,2.25,0,0,1-.89-.18,2.41,2.41,0,0,1-1.23-1.23,2.34,2.34,0,0,1-.18-.91V125.6h1.64v1.91a.39.39,0,0,0,.4.41h2.56a1.13,1.13,0,0,0,.48-.11,1.28,1.28,0,0,0,.41-.3.93.93,0,0,0,.2-.41.82.82,0,0,0,0-.49l-1.39-5,1.81-.66,1.78,6.32a1,1,0,0,0,.33.48A.87.87,0,0,0,810.26,127.92Zm4.43,0h2.46V126a.63.63,0,0,0-.2-.47.61.61,0,0,0-.47-.19h-1.41a.56.56,0,0,0-.41.16.6.6,0,0,0-.23.38l-.28,1.39a.53.53,0,0,0,.11.45A.55.55,0,0,0,814.69,127.92Zm-2.47-.77.35-1.79a2.19,2.19,0,0,1,.33-.87,2.59,2.59,0,0,1,.61-.7,2.34,2.34,0,0,1,.78-.45,2.5,2.5,0,0,1,.94-.18h1a2.79,2.79,0,0,1,1.11.23,2.7,2.7,0,0,1,.9.61,2.86,2.86,0,0,1,.84,2v2a2.21,2.21,0,0,1-.17.84,2.16,2.16,0,0,1-1.12,1.13,2,2,0,0,1-.82.16h-2a2.45,2.45,0,0,1-1-.21,2.22,2.22,0,0,1-.85-.78,2.31,2.31,0,0,1-.89.78,2.58,2.58,0,0,1-1,.21h-.42c-.16,0-.24-.08-.24-.25v-1.77a.21.21,0,0,1,.24-.24h.56a.89.89,0,0,0,.59-.21A1,1,0,0,0,812.22,127.15Zm21,.77a.85.85,0,0,0,.84-.84v-3.62H836v3.62a2.93,2.93,0,0,1-.92,2.19,3.07,3.07,0,0,1-1,.66,2.9,2.9,0,0,1-1.2.25h-6.62a3.29,3.29,0,0,1-1.37-.28,3.67,3.67,0,0,1-1.12-.75A3.62,3.62,0,0,1,823,128a3.54,3.54,0,0,1-.28-1.38v-3.2h1.92v3a1.43,1.43,0,0,0,1.44,1.45Zm-4.87,6.33h2v-2h-2Zm13.35-4.32c0,.17-.08.25-.24.25h-.51a3.1,3.1,0,0,1-1.18-.23,3.13,3.13,0,0,1-1-.66,3.09,3.09,0,0,1-.66-1,3,3,0,0,1-.24-1.19v-8.88h1.91v8.83a.78.78,0,0,0,.25.59.82.82,0,0,0,.59.25h.82a.21.21,0,0,1,.17.08.24.24,0,0,1,.07.18Zm2.39-10.86h2v2h-2Zm-2.64,11.11a.22.22,0,0,1-.25-.25v-1.75a.26.26,0,0,1,.09-.18.19.19,0,0,1,.16-.08h3.11a4.83,4.83,0,0,0,1.45-.23,2.91,2.91,0,0,0,1.22-.78l1-1.08.15-.16s.08-.07.09-.07l-3.65-1.1a.39.39,0,0,0-.32,0,.46.46,0,0,0-.19.22l-.66,1.75-1.67-.46.45-1.6a2.46,2.46,0,0,1,.49-.92,2.27,2.27,0,0,1,.76-.59,2.31,2.31,0,0,1,.93-.26,2.29,2.29,0,0,1,.94.08l6.92,2.07-.57,1.8-.82-.25a1.47,1.47,0,0,0-.5,0,1,1,0,0,0-.37.14v.59a.78.78,0,0,0,.25.59.82.82,0,0,0,.59.25h2.31c.17,0,.25.08.25.24v1.77a.22.22,0,0,1-.25.25h-2a2.72,2.72,0,0,1-1.77-.59,3.24,3.24,0,0,1-1-1.55l-.69.69a4.56,4.56,0,0,1-1.74,1.1,6.21,6.21,0,0,1-2,.35ZM854,122.41h2v-2h-2Zm2.91,0h2v-2h-2Zm3.22,7.52a.34.34,0,0,1-.07.18.29.29,0,0,1-.18.07h-1.32a2.32,2.32,0,0,1-1.11-.3,1.65,1.65,0,0,1-.75-.73,1.6,1.6,0,0,1-.35.4,3.61,3.61,0,0,1-.5.33,3.34,3.34,0,0,1-.58.23,3,3,0,0,1-.59.07h-1.32a.22.22,0,0,1-.25-.25v-1.75a.24.24,0,0,1,.07-.18.22.22,0,0,1,.18-.08h1.49a.94.94,0,0,0,.61-.21.88.88,0,0,0,.33-.56l.65-3.13,1.88.33-.53,2.63a.76.76,0,0,0,.16.66.81.81,0,0,0,.63.28h1.3a.22.22,0,0,1,.18.08.29.29,0,0,1,.07.18Zm2.71-2a.82.82,0,0,0,.59-.25.84.84,0,0,0,.25-.61v-3.6h1.91v3.6a3.12,3.12,0,0,1-.24,1.22,3.18,3.18,0,0,1-.68,1,3.07,3.07,0,0,1-1,.66,2.84,2.84,0,0,1-1.2.25h-2.6a.26.26,0,0,1-.17-.07.27.27,0,0,1-.07-.18v-1.75a.24.24,0,0,1,.07-.18.2.2,0,0,1,.17-.08Zm.75-6h2v-2h-2Zm5.83,8.31h-1.91V118.25h1.91Z"/><path class="cls-6" d="M781.08,159.55l-3.27-3.26h6.53Z"/><path class="cls-6" d="M803.59,160.43c0,.14-.07.21-.22.21h-.56a2.26,2.26,0,0,1-.9-.18,2.39,2.39,0,0,1-1.25-1.25,2.33,2.33,0,0,1-.18-.9V150.6h1v7.69a1.06,1.06,0,0,0,.32.78,1.1,1.1,0,0,0,.78.32h.74a.23.23,0,0,1,.16.08.2.2,0,0,1,.06.15Zm-.22.21a.2.2,0,0,1-.14-.06.19.19,0,0,1-.08-.14v-.85a.16.16,0,0,1,.08-.14.2.2,0,0,1,.14-.06H805a.63.63,0,0,1-.34-.43,1.54,1.54,0,0,1,0-.74l.21-1.07a2.6,2.6,0,0,1,.25-.62,1.84,1.84,0,0,1,.42-.49,1.94,1.94,0,0,1,.58-.32,1.92,1.92,0,0,1,.66-.12h.56a1.78,1.78,0,0,1,.81.17,1.92,1.92,0,0,1,.65.42,1.84,1.84,0,0,1,.43.66,2.06,2.06,0,0,1,.15.79v1.23a.86.86,0,0,1-.06.37.54.54,0,0,0,0,.15h2.48v-2.13a1.25,1.25,0,0,0-.28-.85,1.22,1.22,0,0,0-.67-.46l-5-1.55.29-1.07,4.89,1.52a2.61,2.61,0,0,1,1.29.87,2.29,2.29,0,0,1,.52,1.55v1.92a1.32,1.32,0,0,1-1.45,1.45H809v-.72a.67.67,0,0,1-.14.2,1.57,1.57,0,0,1-.26.25,2.69,2.69,0,0,1-.38.19,1.4,1.4,0,0,1-.47.08Zm4.92-1.25v-1.8A.84.84,0,0,0,808,157a.86.86,0,0,0-.65-.27h-.69a.92.92,0,0,0-.58.21.94.94,0,0,0-.3.54l-.2,1a.75.75,0,0,0,.17.67.85.85,0,0,0,.62.26Zm9.57,3.92a3,3,0,0,1-1.18-.25,3.07,3.07,0,0,1-1-.65,3,3,0,0,1-.66-1,2.85,2.85,0,0,1-.24-1.17v-3.64h1v3.46a1.94,1.94,0,0,0,.15.76,1.85,1.85,0,0,0,.43.64,2,2,0,0,0,.62.42,1.88,1.88,0,0,0,.78.16h2.65a1.5,1.5,0,0,0,.64-.14,1.58,1.58,0,0,0,.53-.35,1.45,1.45,0,0,0,.35-.52,1.58,1.58,0,0,0,.14-.65v-9.8h1.05v10a2.63,2.63,0,0,1-.21,1,2.94,2.94,0,0,1-.58.87,2.63,2.63,0,0,1-.87.59,2.67,2.67,0,0,1-1,.22Zm14.89-3.92h.32a.19.19,0,0,1,.15.08.2.2,0,0,1,.06.15v.81a.19.19,0,0,1-.21.21h-.29a2,2,0,0,1-1-.29.79.79,0,1,0-1.58,0,2.19,2.19,0,0,1-1.08.29H827a1.69,1.69,0,0,1-.64-.12,1.77,1.77,0,0,1-.87-.89,1.68,1.68,0,0,1-.12-.63v-1.62h.9v1.34a.75.75,0,0,0,.15.47.52.52,0,0,0,.46.2h2.22a1.13,1.13,0,0,0,.58-.14,1.36,1.36,0,0,0,.43-.36,1.22,1.22,0,0,0,.24-.5,1.26,1.26,0,0,0,0-.58l-1.12-4.1,1-.37,1.44,5.18a1.2,1.2,0,0,0,.42.63A1.15,1.15,0,0,0,832.75,159.39Zm3.89,0H839v-2a1,1,0,0,0-1-1h-1a.89.89,0,0,0-.61.23.91.91,0,0,0-.34.55l-.23,1.23a.83.83,0,0,0,.17.7A.85.85,0,0,0,836.64,159.39Zm-1.91-1,.32-1.57a1.93,1.93,0,0,1,.69-1.17,2.21,2.21,0,0,1,.58-.34,2,2,0,0,1,.7-.12h.85a2.19,2.19,0,0,1,1.51.63,2.08,2.08,0,0,1,.45.67,1.88,1.88,0,0,1,.17.82v1.92a1.3,1.3,0,0,1-1.38,1.37h-1.86a1.83,1.83,0,0,1-.9-.23,1.79,1.79,0,0,1-.66-.78,1.68,1.68,0,0,1-.73.78,2.12,2.12,0,0,1-1,.23h-.44a.19.19,0,0,1-.21-.21v-.83a.18.18,0,0,1,.06-.13.19.19,0,0,1,.15-.08h.49a1.14,1.14,0,0,0,.76-.27A1.15,1.15,0,0,0,834.73,158.43Zm15-3.18a1.85,1.85,0,0,1,.82.17,2.06,2.06,0,0,1,.69.45,2.1,2.1,0,0,1,.46.67,2.08,2.08,0,0,1,.16.83v1.9a1.31,1.31,0,0,1-.38,1,1.27,1.27,0,0,1-1,.37h-1.89a2,2,0,0,1-.87-.2,2,2,0,0,1-.67-.53,2.11,2.11,0,0,1-.39-.76,1.72,1.72,0,0,1,0-.9l.33-1.84h-.82a1,1,0,0,0-.79.35,1.12,1.12,0,0,0-.32.8v6.87H844v-6.84a2.32,2.32,0,0,1,.19-.91,2.59,2.59,0,0,1,.52-.75,2.3,2.3,0,0,1,1.66-.68Zm1.08,4.14v-2a.92.92,0,0,0-.94-.94h-1.81l-.37,2a.85.85,0,0,0,.15.7.84.84,0,0,0,.69.29Zm6.25,1a.19.19,0,0,1-.21.21h-.56a2.26,2.26,0,0,1-.9-.18,2.17,2.17,0,0,1-.75-.51,2.36,2.36,0,0,1-.5-.74,2.33,2.33,0,0,1-.18-.9V150.6h1v7.69a1,1,0,0,0,.32.78,1.09,1.09,0,0,0,.77.32h.75a.19.19,0,0,1,.15.08.2.2,0,0,1,.06.15Zm-.22.21a.19.19,0,0,1-.21-.21v-.83a.18.18,0,0,1,.06-.13.19.19,0,0,1,.15-.08h.49a1.12,1.12,0,0,0,.76-.27,1.11,1.11,0,0,0,.41-.69l.32-1.57a2.14,2.14,0,0,1,.25-.65,1.87,1.87,0,0,1,.44-.52,2.39,2.39,0,0,1,.58-.34,2.06,2.06,0,0,1,.7-.12h.85a2,2,0,0,1,.82.17,1.94,1.94,0,0,1,.69.46,2.1,2.1,0,0,1,.46.67,2,2,0,0,1,.16.82v.93a1.09,1.09,0,0,0,1.1,1.11h.49a.19.19,0,0,1,.15.08.18.18,0,0,1,.06.13v.83a.19.19,0,0,1-.21.21h-.29a2.15,2.15,0,0,1-.87-.18,1.86,1.86,0,0,1-.71-.58.93.93,0,0,1-.42.61,1.45,1.45,0,0,1-.68.15h-1.86a1.88,1.88,0,0,1-.9-.23,1.65,1.65,0,0,1-.65-.78,1.79,1.79,0,0,1-.73.78,2.19,2.19,0,0,1-1,.23Zm3.57-1.25h2.31v-2a.87.87,0,0,0-.29-.67.91.91,0,0,0-.68-.29h-1a.91.91,0,0,0-.61.23,1,1,0,0,0-.34.55l-.22,1.23a.82.82,0,0,0,.16.7A.88.88,0,0,0,860.42,159.39Zm6.79,0a1.06,1.06,0,0,0,.77-.32,1,1,0,0,0,.32-.76v-2.8h1.05v2.8a2.34,2.34,0,0,1-.68,1.66,2.44,2.44,0,0,1-.75.49,2.19,2.19,0,0,1-.9.18h-1.66a.19.19,0,0,1-.21-.21v-.81a.2.2,0,0,1,.06-.15.19.19,0,0,1,.15-.08ZM866,153.73h1.29v-1.3H866Zm2.08,0h1.3v-1.3H868Z"/><path class="cls-3" d="M994.05,127.92h.48a.18.18,0,0,1,.16.08.23.23,0,0,1,.09.18v1.75a.27.27,0,0,1-.07.18.29.29,0,0,1-.18.07h-.34a2.61,2.61,0,0,1-1.24-.28,3.9,3.9,0,0,1-.89-.63,3.43,3.43,0,0,1-1,.66,2.9,2.9,0,0,1-1.22.25h-2.28a2.25,2.25,0,0,1-.89-.18,2.43,2.43,0,0,1-.73-.5,2.49,2.49,0,0,1-.5-.73,2.34,2.34,0,0,1-.18-.91V125.6h1.64v1.91a.41.41,0,0,0,.12.3.43.43,0,0,0,.28.11h2.56a1.17,1.17,0,0,0,.49-.11,1.35,1.35,0,0,0,.4-.3,1.07,1.07,0,0,0,.21-.41,1,1,0,0,0,0-.49l-1.4-5,1.81-.66,1.78,6.32a1,1,0,0,0,.33.48A.87.87,0,0,0,994.05,127.92Zm3.44,0a.82.82,0,0,0,.59-.25.88.88,0,0,0,.25-.61v-3.6h1.91v3.6a3.12,3.12,0,0,1-.24,1.22,3.18,3.18,0,0,1-.68,1,3.07,3.07,0,0,1-1,.66,2.87,2.87,0,0,1-1.2.25h-2.6a.24.24,0,0,1-.17-.07.27.27,0,0,1-.07-.18v-1.75a.24.24,0,0,1,.07-.18.19.19,0,0,1,.17-.08Zm.75-6h2v-2h-2Zm6.12,2.08v3.25a.65.65,0,0,0,.26.52.94.94,0,0,0,.57.2h1.28a.21.21,0,0,1,.24.24v1.77c0,.17-.08.25-.24.25h-1a2.09,2.09,0,0,1-.63-.11.91.91,0,0,1-.52-.43V130a3.47,3.47,0,0,1-.23,1.25,4,4,0,0,1-1.49,2,4.47,4.47,0,0,1-1.15.59l-2.41.82-.59-1.79L1001,132a1.87,1.87,0,0,0,1-.79,2,2,0,0,0,.4-1.23v-6Zm2.56,8.32h2v2h-2Zm2.5-4.35a.84.84,0,0,0,.6-.25.87.87,0,0,0,.24-.61v-3.6h1.91v3.6a3.12,3.12,0,0,1-.24,1.22,3.18,3.18,0,0,1-.68,1,3.07,3.07,0,0,1-1,.66,2.84,2.84,0,0,1-1.2.25h-2.59a.29.29,0,0,1-.18-.07.27.27,0,0,1-.07-.18v-1.75a.24.24,0,0,1,.07-.18.22.22,0,0,1,.18-.08Zm16.9,0a.82.82,0,0,0,.59-.25.81.81,0,0,0,.24-.59v-3.62h1.92v3.62a2.93,2.93,0,0,1-.92,2.19,3,3,0,0,1-1,.66,2.84,2.84,0,0,1-1.2.25h-6.61a3.37,3.37,0,0,1-1.38-.28,3.52,3.52,0,0,1-1.86-1.86,3.37,3.37,0,0,1-.28-1.38v-3.2h1.92v3a1.4,1.4,0,0,0,.42,1,1.37,1.37,0,0,0,1,.42Zm-4.88,6.33h2v-2h-2Zm13.36-4.32a.22.22,0,0,1-.25.25h-.5a3.19,3.19,0,0,1-1.19-.23,3.14,3.14,0,0,1-1.63-1.63,3,3,0,0,1-.24-1.19v-8.88h1.91v8.83a.81.81,0,0,0,.24.59.84.84,0,0,0,.6.25h.81a.22.22,0,0,1,.18.08.29.29,0,0,1,.07.18Zm2.39-10.86h2v2h-2Zm-2.64,11.11a.22.22,0,0,1-.25-.25v-1.75a.26.26,0,0,1,.09-.18.19.19,0,0,1,.16-.08h3.11a4.83,4.83,0,0,0,1.45-.23,3,3,0,0,0,1.22-.78l1-1.08.15-.16s.08-.07.09-.07l-3.66-1.1a.37.37,0,0,0-.31,0,.46.46,0,0,0-.19.22l-.66,1.75-1.67-.46.45-1.6a2.33,2.33,0,0,1,.49-.92,2.27,2.27,0,0,1,.76-.59,2.31,2.31,0,0,1,.93-.26,2.24,2.24,0,0,1,.93.08l6.93,2.07-.57,1.8-.82-.25a1.49,1.49,0,0,0-.5,0,1,1,0,0,0-.37.14v.59a.81.81,0,0,0,.24.59.84.84,0,0,0,.6.25h2.31a.21.21,0,0,1,.24.24v1.77c0,.17-.08.25-.24.25h-2a2.77,2.77,0,0,1-1.78-.59,3.3,3.3,0,0,1-1-1.55l-.7.69a4.42,4.42,0,0,1-1.74,1.1,6.15,6.15,0,0,1-2,.35Zm12.56-7.77h2v-2h-2Zm2.91,0h2v-2h-2Zm3.22,7.52a.34.34,0,0,1-.07.18.29.29,0,0,1-.18.07h-1.32a2.38,2.38,0,0,1-1.12-.3,1.63,1.63,0,0,1-.74-.73,1.83,1.83,0,0,1-.35.4,3.2,3.2,0,0,1-.51.33,3,3,0,0,1-.57.23,3.06,3.06,0,0,1-.59.07h-1.33c-.16,0-.24-.08-.24-.25v-1.75a.24.24,0,0,1,.07-.18.2.2,0,0,1,.17-.08h1.5a.94.94,0,0,0,.61-.21,1,1,0,0,0,.33-.56l.65-3.13,1.88.33-.53,2.63a.73.73,0,0,0,.16.66.81.81,0,0,0,.63.28h1.3a.22.22,0,0,1,.18.08.29.29,0,0,1,.07.18Zm2.71-2a.82.82,0,0,0,.59-.25.88.88,0,0,0,.25-.61v-3.6h1.91v3.6a3.12,3.12,0,0,1-.24,1.22,3.36,3.36,0,0,1-.68,1,3.07,3.07,0,0,1-1,.66,2.9,2.9,0,0,1-1.2.25H1053a.24.24,0,0,1-.17-.07.27.27,0,0,1-.07-.18v-1.75a.24.24,0,0,1,.07-.18.19.19,0,0,1,.17-.08Zm.75-6h2v-2h-2Zm5.83,8.31h-1.92V118.25h1.92Z"/><path class="cls-6" d="M976.36,159.55l-3.26-3.26h6.52Z"/><path class="cls-6" d="M1000.46,160.43c0,.14-.07.21-.22.21h-.56a2.33,2.33,0,0,1-.9-.18A2.23,2.23,0,0,1,998,160a2.39,2.39,0,0,1-.51-.74,2.33,2.33,0,0,1-.18-.9V150.6h1v7.69a1.06,1.06,0,0,0,.32.78,1.1,1.1,0,0,0,.78.32h.74a.19.19,0,0,1,.16.08.2.2,0,0,1,.06.15Zm-.22.21a.2.2,0,0,1-.14-.06.17.17,0,0,1-.07-.14v-.85a.15.15,0,0,1,.07-.14.2.2,0,0,1,.14-.06h1.6a.63.63,0,0,1-.34-.43,1.54,1.54,0,0,1,0-.74l.22-1.07a2.22,2.22,0,0,1,.24-.62,1.71,1.71,0,0,1,.43-.49,1.78,1.78,0,0,1,.57-.32,1.92,1.92,0,0,1,.66-.12h.56a1.78,1.78,0,0,1,.81.17,1.8,1.8,0,0,1,1.08,1.08,2.06,2.06,0,0,1,.15.79v1.23a.86.86,0,0,1-.06.37.54.54,0,0,0,0,.15h2.48v-2.13a1.31,1.31,0,0,0-.94-1.31l-5-1.55.29-1.07,4.89,1.52a2.61,2.61,0,0,1,1.29.87,2.29,2.29,0,0,1,.52,1.55v1.92a1.42,1.42,0,0,1-.38,1.07,1.46,1.46,0,0,1-1.07.38h-2.28v-.72a.67.67,0,0,1-.14.2,1.25,1.25,0,0,1-.26.25,2.24,2.24,0,0,1-.38.19,1.4,1.4,0,0,1-.47.08Zm4.92-1.25v-1.8a.84.84,0,0,0-.28-.64.86.86,0,0,0-.65-.27h-.69a.87.87,0,0,0-.57.21.9.9,0,0,0-.31.54l-.2,1a.75.75,0,0,0,.17.67.85.85,0,0,0,.62.26Zm13.93,0h.32a.19.19,0,0,1,.15.08.2.2,0,0,1,.06.15v.81a.19.19,0,0,1-.21.21h-.29a2,2,0,0,1-1-.29.79.79,0,1,0-1.58,0,2.19,2.19,0,0,1-1.08.29h-2.09a1.73,1.73,0,0,1-.64-.12,1.77,1.77,0,0,1-.87-.89,1.68,1.68,0,0,1-.12-.63v-1.62h.9v1.34a.75.75,0,0,0,.15.47.52.52,0,0,0,.46.2h2.22a1.13,1.13,0,0,0,.58-.14,1.36,1.36,0,0,0,.43-.36,1.22,1.22,0,0,0,.24-.5,1.26,1.26,0,0,0,0-.58l-1.12-4.1,1-.37,1.44,5.18a1.2,1.2,0,0,0,.42.63A1.15,1.15,0,0,0,1019.09,159.39Zm2.16,0a1.06,1.06,0,0,0,.78-.32,1.05,1.05,0,0,0,.32-.76v-2.8h1v2.8a2.34,2.34,0,0,1-.68,1.66,2.56,2.56,0,0,1-.75.49,2.19,2.19,0,0,1-.9.18h-1.66a.19.19,0,0,1-.21-.21v-.81a.2.2,0,0,1,.06-.15.19.19,0,0,1,.15-.08Zm.93-5.7h1.3V152.4h-1.3Zm4.61,2.26v2.39a1,1,0,0,0,.32.75,1.11,1.11,0,0,0,.77.3h1.53a.19.19,0,0,1,.15.08.2.2,0,0,1,.06.15v.81a.19.19,0,0,1-.21.21h-1.34a1.82,1.82,0,0,1-.72-.15,1.33,1.33,0,0,1-.56-.46v.67a3.12,3.12,0,0,1-.17,1,3.33,3.33,0,0,1-.47.92,2.86,2.86,0,0,1-.72.71,3.19,3.19,0,0,1-.93.49l-1.73.61-.34-1,1.84-.61a2,2,0,0,0,1.07-.78,2.07,2.07,0,0,0,.4-1.25V156Zm4.16,3.44a1.09,1.09,0,0,0,1.09-1.1v-2.78h1v2.8a2.34,2.34,0,0,1-.68,1.66,2.56,2.56,0,0,1-.75.49,2.19,2.19,0,0,1-.9.18h-1.35a.19.19,0,0,1-.22-.21v-.81a.18.18,0,0,1,.07-.15.19.19,0,0,1,.15-.08Zm-1.25,4.37H1031v-1.29h-1.29Zm13.15-8.51a1.88,1.88,0,0,1,.82.17,2,2,0,0,1,1.14,1.12,1.93,1.93,0,0,1,.17.83v1.9a1.31,1.31,0,0,1-.38,1,1.29,1.29,0,0,1-1,.37h-1.89a1.92,1.92,0,0,1-.87-.2,2,2,0,0,1-.67-.53,2.31,2.31,0,0,1-.4-.76,2,2,0,0,1,0-.9l.34-1.84h-.82a1.06,1.06,0,0,0-.8.35,1.16,1.16,0,0,0-.32.8v6.87h-1.05v-6.84a2.15,2.15,0,0,1,.19-.91,2.76,2.76,0,0,1,.51-.75,2.52,2.52,0,0,1,.75-.5,2.34,2.34,0,0,1,.91-.18Zm1.08,4.14v-2a.92.92,0,0,0-.27-.67.94.94,0,0,0-.67-.27h-1.82l-.36,2a.85.85,0,0,0,.15.7.83.83,0,0,0,.69.29Zm6.25,1a.19.19,0,0,1-.21.21h-.57a2.25,2.25,0,0,1-.89-.18,2.17,2.17,0,0,1-.75-.51,2.36,2.36,0,0,1-.69-1.64V150.6h1.06v7.69a1,1,0,0,0,.32.78,1.09,1.09,0,0,0,.77.32h.75a.19.19,0,0,1,.15.08.2.2,0,0,1,.06.15Zm-.22.21a.19.19,0,0,1-.21-.21v-.83a.18.18,0,0,1,.06-.13.19.19,0,0,1,.15-.08h.49a1.12,1.12,0,0,0,.76-.27,1.11,1.11,0,0,0,.41-.69l.32-1.57a1.72,1.72,0,0,1,.25-.65,1.87,1.87,0,0,1,.44-.52,2.21,2.21,0,0,1,.58-.34,2,2,0,0,1,.7-.12h.85a2,2,0,0,1,.82.17,1.94,1.94,0,0,1,.69.46,2.28,2.28,0,0,1,.46.67,2,2,0,0,1,.16.82v.93a1.09,1.09,0,0,0,1.1,1.11h.49a.19.19,0,0,1,.15.08.18.18,0,0,1,.06.13v.83a.19.19,0,0,1-.21.21h-.29a2.12,2.12,0,0,1-.87-.18,2,2,0,0,1-.72-.58.88.88,0,0,1-.41.61,1.45,1.45,0,0,1-.68.15h-1.86a1.83,1.83,0,0,1-.9-.23,1.65,1.65,0,0,1-.65-.78,1.75,1.75,0,0,1-.74.78,2.12,2.12,0,0,1-1,.23Zm3.57-1.25h2.31v-2a.87.87,0,0,0-.29-.67.91.91,0,0,0-.68-.29h-1a.89.89,0,0,0-.61.23,1,1,0,0,0-.34.55l-.23,1.23a.83.83,0,0,0,.17.7A.86.86,0,0,0,1053.53,159.39Zm6.78,0a1.06,1.06,0,0,0,.78-.32,1.05,1.05,0,0,0,.32-.76v-2.8h1v2.8a2.34,2.34,0,0,1-.68,1.66,2.7,2.7,0,0,1-.75.49,2.19,2.19,0,0,1-.9.18h-1.66a.19.19,0,0,1-.21-.21v-.81a.2.2,0,0,1,.06-.15.19.19,0,0,1,.15-.08Zm-1.24-5.66h1.29v-1.3h-1.29Zm2.08,0h1.3v-1.3h-1.3Z"/><path class="cls-5" d="M1063.39,183.49H88.61a43.52,43.52,0,0,1,0-87h974.78a43.52,43.52,0,0,1,0,87ZM88.61,97a43,43,0,1,0,0,85.94h974.78a43,43,0,1,0,0-85.94Z"/><path class="cls-1" d="M164.22,214a13.06,13.06,0,0,1,13.05-13.06h38.08A13.06,13.06,0,0,1,228.4,214h0A13,13,0,0,1,215.35,227H177.27A13,13,0,0,1,164.22,214Z"/><path class="cls-7" d="M178.71,214.71h1.07v1.41h-1.07Zm3.09,0h1.07v1.41H181.8Zm3.1,0H186v1.41H184.9Zm5.29-2.61v2.05a.85.85,0,0,0,.28.64.92.92,0,0,0,.66.26h1.31a.17.17,0,0,1,.13.07.15.15,0,0,1,.05.13v.69a.16.16,0,0,1-.18.18h-1.15a1.46,1.46,0,0,1-.61-.13,1.1,1.1,0,0,1-.49-.39v.58a2.56,2.56,0,0,1-.14.87,2.83,2.83,0,0,1-1,1.4,3,3,0,0,1-.79.42l-1.49.52-.29-.9L188,218a1.76,1.76,0,0,0,.91-.67,1.79,1.79,0,0,0,.34-1.07V212.1Zm3.08-1.48h1.11v-1.11h-1.11Zm1.79,0h1.11v-1.11h-1.11Zm2.08,5.32a.16.16,0,0,1-.18.18h-.81a1.74,1.74,0,0,1-.45-.06,1.72,1.72,0,0,1-.42-.18,1.29,1.29,0,0,1-.33-.28.75.75,0,0,1-.2-.34,1.76,1.76,0,0,1-.64.63,1.66,1.66,0,0,1-.86.23h-.81a.16.16,0,0,1-.18-.18v-.69a.15.15,0,0,1,.05-.13.17.17,0,0,1,.13-.07h.85a.94.94,0,0,0,.65-.23,1.09,1.09,0,0,0,.37-.59l.4-2.06.89.14-.34,1.73a.86.86,0,0,0,0,.39.92.92,0,0,0,.18.32,1.54,1.54,0,0,0,.32.23,1,1,0,0,0,.39.07h.8a.21.21,0,0,1,.18.2Zm3.32.18a1.71,1.71,0,0,1-1.56-.86,1.86,1.86,0,0,1-.68.66,1.91,1.91,0,0,1-.89.2H197a.17.17,0,0,1-.13-.05.21.21,0,0,1,0-.13v-.7a.14.14,0,0,1,.07-.13.14.14,0,0,1,.11-.06h.54a.9.9,0,0,0,.66-.27.85.85,0,0,0,.29-.67v-2h.9v2.07a.88.88,0,0,0,.28.66,1,1,0,0,0,.66.26h.24a1,1,0,0,0,.66-.24,1,1,0,0,0,.37-.61l.39-2.05.9.14L202.5,214a1.13,1.13,0,0,0,0,.41.84.84,0,0,0,.19.33.81.81,0,0,0,.32.21,1.16,1.16,0,0,0,.42.08h.13a.91.91,0,0,0,.67-.28.94.94,0,0,0,.27-.68V211.7h.9v2.48a.94.94,0,0,0,.3.63,1,1,0,0,0,.66.24h.52a.17.17,0,0,1,.12.06.15.15,0,0,1,.06.13v.7a.21.21,0,0,1,0,.13.17.17,0,0,1-.13.05h-.37a1.91,1.91,0,0,1-.89-.2,1.74,1.74,0,0,1-.66-.66,1.82,1.82,0,0,1-.69.66,1.84,1.84,0,0,1-.86.2,1.86,1.86,0,0,1-.85-.19,1.35,1.35,0,0,1-.59-.67,1.7,1.7,0,0,1-.67.66A1.8,1.8,0,0,1,200.46,216.12Zm2.94-5.5h-1.11v-1.11h1.11Zm-1.79,0H200.5v-1.11h1.11Zm.85-1.6h-1.11v-1.11h1.11Zm5.26,9.78h1.11v-1.11h-1.11Zm1.79,0h1.11v-1.11h-1.11Zm2.07-2.86a.16.16,0,0,1-.18.18h-.81a1.67,1.67,0,0,1-.44-.06,1.57,1.57,0,0,1-.42-.18,1.54,1.54,0,0,1-.34-.28.83.83,0,0,1-.19-.34,1.84,1.84,0,0,1-.64.63,1.67,1.67,0,0,1-.87.23h-.81a.16.16,0,0,1-.18-.18v-.69a.21.21,0,0,1,.18-.2h.85a1,1,0,0,0,.66-.23,1,1,0,0,0,.36-.59l.41-2.06.88.14L209.7,214a.86.86,0,0,0,0,.39.68.68,0,0,0,.18.32,1.47,1.47,0,0,0,.31.23,1.09,1.09,0,0,0,.4.07h.79a.17.17,0,0,1,.13.07.15.15,0,0,1,.05.13Zm1.14-.89a.9.9,0,0,0,.66-.27,1,1,0,0,0,.28-.67v-2.38h.9v2.4a2,2,0,0,1-.59,1.42,2.37,2.37,0,0,1-.64.42,2,2,0,0,1-.77.15H211.4a.17.17,0,0,1-.19-.18v-.69a.16.16,0,0,1,.06-.13.17.17,0,0,1,.13-.07Zm-1.07,3.75h1.11v-1.11h-1.11Z"/><path class="cls-5" d="M177.27,201.17h38.08v-.55H177.27Zm38.08,25.56H177.27v.55h38.08Zm-38.08,0A12.78,12.78,0,0,1,164.49,214h-.55a13.33,13.33,0,0,0,13.33,13.33ZM228.13,214a12.78,12.78,0,0,1-12.78,12.78v.55A13.33,13.33,0,0,0,228.68,214Zm-12.78-12.78A12.78,12.78,0,0,1,228.13,214h.55a13.33,13.33,0,0,0-13.33-13.33Zm-38.08-.55A13.33,13.33,0,0,0,163.94,214h.55a12.78,12.78,0,0,1,12.78-12.78Z"/><path class="cls-1" d="M232.76,214a13.06,13.06,0,0,1,13.05-13.06h45.7A13.06,13.06,0,0,1,304.56,214h0A13.05,13.05,0,0,1,291.51,227h-45.7A13,13,0,0,1,232.76,214Z"/><path class="cls-7" d="M254.23,209.51l3.65,4.87a1.9,1.9,0,0,0,.53.49,1.37,1.37,0,0,0,.69.18h.16a.17.17,0,0,1,.13.07.15.15,0,0,1,.05.13v.69a.17.17,0,0,1-.05.13.15.15,0,0,1-.13.05h-.13a2.24,2.24,0,0,1-1.88-1.08l-.7-1a1.88,1.88,0,0,1-.24.9,2.35,2.35,0,0,1-.53.67,2.46,2.46,0,0,1-.75.4,2.56,2.56,0,0,1-.82.13h-4.6a2.52,2.52,0,0,1-1-.18,2.16,2.16,0,0,1-1.24-1.25,2.49,2.49,0,0,1-.17-.94v-2.23h.9v2.2a1.26,1.26,0,0,0,1.34,1.33h4.86a1.51,1.51,0,0,0,.78-.2,1.36,1.36,0,0,0,.51-.58,1.49,1.49,0,0,0,.15-.8,1.76,1.76,0,0,0-.37-.88l-2.1-2.88v-.77l4-2.05.4.83Zm5.87,9.29h1.11v-1.11H260.1Zm1.79,0H263v-1.11h-1.11Zm2.07-2.86a.16.16,0,0,1-.18.18H263a1.61,1.61,0,0,1-.44-.06,1.57,1.57,0,0,1-.42-.18,1.34,1.34,0,0,1-.34-.28.85.85,0,0,1-.2-.34,1.76,1.76,0,0,1-.64.63,1.63,1.63,0,0,1-.86.23h-.81a.16.16,0,0,1-.18-.18v-.69a.21.21,0,0,1,.18-.2h.85a.94.94,0,0,0,.65-.23,1,1,0,0,0,.37-.59l.4-2.06.89.14-.34,1.73a.86.86,0,0,0,0,.39.68.68,0,0,0,.18.32,1.25,1.25,0,0,0,.31.23,1,1,0,0,0,.39.07h.8a.21.21,0,0,1,.18.2Zm1.4-.89a.94.94,0,0,0,.94-.92v-2.4h.9v2.4a2,2,0,0,1-.59,1.42,2.37,2.37,0,0,1-.64.42,2,2,0,0,1-.77.15h-1.42c-.13,0-.19-.06-.19-.18v-.69a.16.16,0,0,1,.06-.13.16.16,0,0,1,.13-.07Zm-1.07-4.85h1.1v-1.11h-1.1Zm1.78,0h1.11v-1.11h-1.11Zm5.57,5.74a.16.16,0,0,1-.18.18H271a2,2,0,0,1-.77-.15,2,2,0,0,1-1.07-1.07,2,2,0,0,1-.15-.77v-6.61h.9v6.59a.9.9,0,0,0,.27.67.94.94,0,0,0,.67.27h.64a.21.21,0,0,1,.18.2Zm2.87-.89h2V213.3a.75.75,0,0,0-.25-.57.8.8,0,0,0-.59-.25h-.84a.79.79,0,0,0-.53.2.84.84,0,0,0-.28.47l-.2,1.06a.72.72,0,0,0,.14.6A.75.75,0,0,0,274.51,215.05Zm-1.64-.82.28-1.34a1.41,1.41,0,0,1,.21-.56,1.65,1.65,0,0,1,.37-.45,1.92,1.92,0,0,1,.5-.29,1.72,1.72,0,0,1,.6-.1h.73a1.87,1.87,0,0,1,.71.14,2,2,0,0,1,.59.4,1.92,1.92,0,0,1,.39.57,1.82,1.82,0,0,1,.14.7V215a1.15,1.15,0,0,1-.33.85,1.1,1.1,0,0,1-.86.32h-1.59a1.54,1.54,0,0,1-.77-.19,1.52,1.52,0,0,1-.56-.67,1.52,1.52,0,0,1-.63.67,1.8,1.8,0,0,1-.82.19h-.38a.16.16,0,0,1-.18-.18v-.7a.13.13,0,0,1,.05-.12.17.17,0,0,1,.13-.07h.42a.94.94,0,0,0,.65-.23A1,1,0,0,0,272.87,214.23Zm7.87,1.89A1.64,1.64,0,0,1,280,216a1.88,1.88,0,0,1-.58-.46,1.92,1.92,0,0,1-.34-.65,1.55,1.55,0,0,1,0-.77l.22-1.19a1.31,1.31,0,0,1,.21-.55,1.65,1.65,0,0,1,.38-.45,1.69,1.69,0,0,1,.49-.28,1.73,1.73,0,0,1,.6-.11h.73a1.92,1.92,0,0,1,1.3.54,1.92,1.92,0,0,1,.39.57,1.87,1.87,0,0,1,.14.71v1.73h1a.16.16,0,0,1,.13.07.14.14,0,0,1,.06.12v.7c0,.12-.06.18-.19.18h-1v.16a2.76,2.76,0,0,1-.56,1.59,2.81,2.81,0,0,1-1.39,1l-1.48.51-.29-.9,1.56-.52a1.8,1.8,0,0,0,.91-.67,1.68,1.68,0,0,0,.35-1.05V216a.81.81,0,0,1-.25.09h-1.62Zm-.09-1.07h2v-1.73a.84.84,0,0,0-.82-.82h-.86a.8.8,0,0,0-.81.66l-.2,1.05a.7.7,0,0,0,.16.6A.73.73,0,0,0,280.65,215.05Zm5.49,0a.94.94,0,0,0,.94-.92v-2.4h.9v2.4a2,2,0,0,1-.59,1.42,2.37,2.37,0,0,1-.64.42,2,2,0,0,1-.77.15h-1.42c-.13,0-.19-.06-.19-.18v-.69a.16.16,0,0,1,.06-.13.16.16,0,0,1,.13-.07Zm-1.07-4.85h1.11v-1.11h-1.11Zm1.78,0H288v-1.11h-1.11Zm3.81,5.92h-.9v-8.6h.9Z"/><path class="cls-5" d="M245.81,201.17h45.7v-.55h-45.7Zm45.7,25.56h-45.7v.55h45.7Zm-45.7,0A12.78,12.78,0,0,1,233,214h-.55a13.33,13.33,0,0,0,13.33,13.33ZM304.29,214a12.78,12.78,0,0,1-12.78,12.78v.55A13.32,13.32,0,0,0,304.83,214Zm-12.78-12.78A12.78,12.78,0,0,1,304.29,214h.54a13.32,13.32,0,0,0-13.32-13.33Zm-45.7-.55A13.33,13.33,0,0,0,232.48,214H233a12.78,12.78,0,0,1,12.78-12.78Z"/><path class="cls-1" d="M308.91,214A13.06,13.06,0,0,1,322,200.89h40.25A13.06,13.06,0,0,1,375.28,214h0A13.06,13.06,0,0,1,362.22,227H322A13.06,13.06,0,0,1,308.91,214Z"/><path class="cls-7" d="M330.82,209.51l3.64,4.87a1.9,1.9,0,0,0,.53.49,1.38,1.38,0,0,0,.7.18h.15a.17.17,0,0,1,.13.07.15.15,0,0,1,0,.13v.69a.17.17,0,0,1,0,.13.15.15,0,0,1-.13.05h-.13a2.24,2.24,0,0,1-1.88-1.08l-.7-1a1.88,1.88,0,0,1-.24.9,2.35,2.35,0,0,1-.53.67,2.46,2.46,0,0,1-.75.4,2.56,2.56,0,0,1-.82.13h-4.6a2.52,2.52,0,0,1-1-.18,2.16,2.16,0,0,1-1.24-1.25,2.49,2.49,0,0,1-.17-.94v-2.23h.9v2.2a1.26,1.26,0,0,0,1.34,1.33h4.86a1.51,1.51,0,0,0,.78-.2,1.36,1.36,0,0,0,.51-.58,1.49,1.49,0,0,0,.15-.8,1.76,1.76,0,0,0-.37-.88l-2.1-2.88v-.77l4-2.05.4.83Zm5.86,9.29h1.11v-1.11h-1.11Zm1.79,0h1.11v-1.11h-1.11Zm2.07-2.86a.16.16,0,0,1-.18.18h-.81a1.61,1.61,0,0,1-.44-.06,1.57,1.57,0,0,1-.42-.18,1.54,1.54,0,0,1-.34-.28.85.85,0,0,1-.2-.34,1.68,1.68,0,0,1-.64.63,1.63,1.63,0,0,1-.86.23h-.81a.16.16,0,0,1-.18-.18v-.69a.21.21,0,0,1,.18-.2h.85a.94.94,0,0,0,.65-.23,1,1,0,0,0,.37-.59l.4-2.06.89.14-.34,1.73a.86.86,0,0,0,0,.39.68.68,0,0,0,.18.32,1.47,1.47,0,0,0,.31.23,1,1,0,0,0,.39.07h.8a.17.17,0,0,1,.13.07.15.15,0,0,1,.05.13Zm3.28.18a1.87,1.87,0,0,1-.88-.2,1.84,1.84,0,0,1-.67-.66,1.74,1.74,0,0,1-.66.66,1.87,1.87,0,0,1-.88.2h-.37c-.13,0-.19-.06-.19-.18v-.7a.14.14,0,0,1,.07-.13.14.14,0,0,1,.12-.06h.53a.94.94,0,0,0,.67-.27.9.9,0,0,0,.27-.67v-2h.9v2a.87.87,0,0,0,.28.66.88.88,0,0,0,.65.26h.23a1,1,0,0,0,.67-.22.93.93,0,0,0,.35-.6l.42-2.06.87.16-.34,1.71a.8.8,0,0,0,.2.71.94.94,0,0,0,.71.3h1.12v-3.34h.9V215a1.1,1.1,0,0,1-1.18,1.17h-.86a1.63,1.63,0,0,1-.82-.22,1.41,1.41,0,0,1-.59-.64,1.61,1.61,0,0,1-.66.66A1.84,1.84,0,0,1,343.82,216.12Zm13.51-.18a.21.21,0,0,1-.05.13.17.17,0,0,1-.13.05h-.42a2,2,0,0,1-.92-.2,1.9,1.9,0,0,1-.66-.6,1.82,1.82,0,0,1-.56.44,2.5,2.5,0,0,1-.7.22l-3.53.5-.12-.94,1.42-.19-.64-6.76.9-.13.6,6.79,1.22-.16a1.16,1.16,0,0,0,.73-.36,1.19,1.19,0,0,0,.27-.82v-6.39h.9v6.61a.83.83,0,0,0,.32.72,1.3,1.3,0,0,0,.7.2h.49a.17.17,0,0,1,.18.19Zm1.46.18h-1.64c-.13,0-.19-.06-.19-.18v-.7a.17.17,0,0,1,.19-.19h1.76a1.52,1.52,0,0,0,.77-.2,1.42,1.42,0,0,0,.52-.57,1.48,1.48,0,0,0,.15-.79,1.82,1.82,0,0,0-.37-.9l-2.1-2.89v-.76l4-2.05.41.83-3.51,1.79,1.93,2.58a2.59,2.59,0,0,1,.55,1.38,2.42,2.42,0,0,1-2.48,2.65Z"/><path class="cls-5" d="M322,201.17h40.25v-.55H322Zm40.25,25.56H322v.55h40.25Zm-40.25,0A12.79,12.79,0,0,1,309.18,214h-.54A13.33,13.33,0,0,0,322,227.28ZM375,214a12.78,12.78,0,0,1-12.78,12.78v.55A13.33,13.33,0,0,0,375.55,214Zm-12.78-12.78A12.78,12.78,0,0,1,375,214h.55a13.33,13.33,0,0,0-13.33-13.33ZM322,200.62A13.33,13.33,0,0,0,308.64,214h.54A12.79,12.79,0,0,1,322,201.17Z"/><path class="cls-1" d="M379.63,214a13.06,13.06,0,0,1,13.05-13.06h31.55A13.06,13.06,0,0,1,437.29,214h0A13.06,13.06,0,0,1,424.23,227H392.68A13,13,0,0,1,379.63,214Z"/><path class="cls-7" d="M407.87,214.18a.81.81,0,0,0,.28.61.94.94,0,0,0,.67.26h.52a.17.17,0,0,1,.18.19v.69a.19.19,0,0,1,0,.14.15.15,0,0,1-.13.05H409a1.77,1.77,0,0,1-.88-.22,1.86,1.86,0,0,1-.67-.64,2,2,0,0,1-.7.64,1.76,1.76,0,0,1-.87.22,1.59,1.59,0,0,1-.83-.22.62.62,0,1,0-1.24,0,1.77,1.77,0,0,1-.85.2,1.9,1.9,0,0,1-.61-.1,1.33,1.33,0,0,1-.54-.42v.55a2.16,2.16,0,0,1-.18.88,2.19,2.19,0,0,1-.5.7,2.06,2.06,0,0,1-.74.48,2.09,2.09,0,0,1-.89.19h-2.24a2.61,2.61,0,0,1-1-.21,2.69,2.69,0,0,1-.82-.55,2.74,2.74,0,0,1-.56-.84,2.44,2.44,0,0,1-.21-1V212.3h.9v3.34a1.71,1.71,0,0,0,.13.65,1.91,1.91,0,0,0,.37.54,1.62,1.62,0,0,0,.55.37,1.85,1.85,0,0,0,.66.13h2.25a1.34,1.34,0,0,0,.56-.12,1.23,1.23,0,0,0,.44-.3,1.19,1.19,0,0,0,.3-.45,1.31,1.31,0,0,0,.12-.56v-3.82h.9v2a.92.92,0,0,0,.29.68.9.9,0,0,0,.66.28H403a1,1,0,0,0,.67-.24,1,1,0,0,0,.35-.61l.42-2.05.87.14-.34,1.73a.9.9,0,0,0,.21.71.89.89,0,0,0,.69.3H406a.92.92,0,0,0,.94-.94V211.7h.91Zm3.12,1.94h-1.65a.16.16,0,0,1-.18-.18v-.7a.17.17,0,0,1,.18-.19h1.77a1.55,1.55,0,0,0,.77-.2,1.49,1.49,0,0,0,.52-.57,1.38,1.38,0,0,0,.14-.79,1.8,1.8,0,0,0-.36-.9l-2.11-2.89v-.76l4-2.05.42.83L411,209.51l1.93,2.58a2.67,2.67,0,0,1,.55,1.38,2.52,2.52,0,0,1-.25,1.31,2.4,2.4,0,0,1-2.23,1.34Zm6,0a1.71,1.71,0,0,1-.75-.16,2,2,0,0,1-.57-.46,1.76,1.76,0,0,1-.34-.65,1.67,1.67,0,0,1,0-.77l.23-1.19a1.31,1.31,0,0,1,.21-.55,1.82,1.82,0,0,1,.37-.45,1.89,1.89,0,0,1,.5-.28,1.73,1.73,0,0,1,.6-.11h.73a1.71,1.71,0,0,1,.71.15,1.65,1.65,0,0,1,.58.39,1.78,1.78,0,0,1,.4.57,1.87,1.87,0,0,1,.14.71v1.73h1a.17.17,0,0,1,.13.07.13.13,0,0,1,.05.12v.7a.16.16,0,0,1-.18.18h-1v.16a2.71,2.71,0,0,1-.57,1.59,2.74,2.74,0,0,1-1.38,1l-1.49.51-.28-.9,1.56-.52a1.74,1.74,0,0,0,.9-.67,1.63,1.63,0,0,0,.36-1.05V216a.92.92,0,0,1-.25.09H417Zm-.09-1.07h2v-1.73a.76.76,0,0,0-.25-.58.78.78,0,0,0-.57-.24h-.87a.8.8,0,0,0-.52.18.79.79,0,0,0-.28.48l-.2,1.05a.7.7,0,0,0,.16.6A.71.71,0,0,0,416.9,215.05Zm3.73.19c0-.12.06-.19.17-.19h.8a.94.94,0,0,0,.67-.27.88.88,0,0,0,.28-.67v-6.59h.9v6.59a1.78,1.78,0,0,1-.17.79,2,2,0,0,1-.43.64,2.06,2.06,0,0,1-.64.43,2,2,0,0,1-.78.15h-.63c-.11,0-.17-.06-.17-.18Z"/><path class="cls-5" d="M392.68,201.17h31.55v-.55H392.68Zm31.55,25.56H392.68v.55h31.55Zm-31.55,0A12.78,12.78,0,0,1,379.9,214h-.54a13.32,13.32,0,0,0,13.32,13.33ZM437,214a12.79,12.79,0,0,1-12.79,12.78v.55A13.33,13.33,0,0,0,437.56,214Zm-12.79-12.78A12.79,12.79,0,0,1,437,214h.54a13.33,13.33,0,0,0-13.33-13.33Zm-31.55-.55A13.32,13.32,0,0,0,379.36,214h.54a12.78,12.78,0,0,1,12.78-12.78Z"/><path class="cls-1" d="M441.64,214a13.06,13.06,0,0,1,13.06-13.06h50A13.06,13.06,0,0,1,517.8,214h0A13.06,13.06,0,0,1,504.74,227h-50A13.06,13.06,0,0,1,441.64,214Z"/><path class="cls-7" d="M456.71,216.12v-5.39a9.44,9.44,0,0,0-.07-1.2q-.06-.6-.18-1.2l-.17-.77.89-.17.17.89a12.54,12.54,0,0,1,.25,2.47v5.37Zm10.14-5.83a1.17,1.17,0,0,1-.31.85,1.13,1.13,0,0,1-.86.32h-.86a1.67,1.67,0,0,1-.81-.19,1.54,1.54,0,0,1-.6-.56,2,2,0,0,1-.63.56,1.82,1.82,0,0,1-.86.19,1.54,1.54,0,0,1-.56-.1,1.17,1.17,0,0,1-.5-.37v5.13H460v-5.39a11.76,11.76,0,0,0-.06-1.2c-.05-.4-.11-.8-.19-1.2l-.17-.77.89-.17a1.77,1.77,0,0,0,0,.21c0,.13.07.3.11.51s.08.44.11.7.08.53.11.81a.65.65,0,0,0,.06.26,1.1,1.1,0,0,0,.19.25.84.84,0,0,0,.28.2,1.23,1.23,0,0,0,.39.06h.19a1,1,0,0,0,.66-.23,1,1,0,0,0,.36-.59l.41-2.07.88.16-.34,1.74a.89.89,0,0,0,.21.69.86.86,0,0,0,.69.3H466v-3h.9Zm4.13.85a1.87,1.87,0,0,1,.71.14,2,2,0,0,1,.58.39,1.87,1.87,0,0,1,.4.59,1.83,1.83,0,0,1,.14.71v.66a2,2,0,0,1-.14.71,1.9,1.9,0,0,1-.4.57,1.65,1.65,0,0,1-.58.39,1.71,1.71,0,0,1-.71.15h-.64a1.79,1.79,0,0,1-.72-.15,1.87,1.87,0,0,1-1-1,1.78,1.78,0,0,1-.15-.71V213a1.92,1.92,0,0,1,.54-1.3,2.06,2.06,0,0,1,.57-.39,2,2,0,0,1,.72-.14Zm.9,2.43V213a.78.78,0,0,0-.25-.59.8.8,0,0,0-.58-.23h-.77a.84.84,0,0,0-.59.23.81.81,0,0,0-.24.59v.62a.82.82,0,0,0,.83.82h.77a.84.84,0,0,0,.83-.82Zm5.09-2.43a1.83,1.83,0,0,1,.71.14,1.77,1.77,0,0,1,1,1,1.83,1.83,0,0,1,.14.71v.66a2,2,0,0,1-.14.71,2.06,2.06,0,0,1-.39.57,1.92,1.92,0,0,1-1.3.54h-.64a1.71,1.71,0,0,1-.71-.15,1.74,1.74,0,0,1-.58-.39,2.06,2.06,0,0,1-.39-.57,1.76,1.76,0,0,1-.14-.71V213a1.67,1.67,0,0,1,.14-.71,2,2,0,0,1,.39-.59,2.11,2.11,0,0,1,.58-.39,1.87,1.87,0,0,1,.71-.14Zm.9,2.43V213a.81.81,0,0,0-.24-.59.84.84,0,0,0-.59-.23h-.77a.86.86,0,0,0-.59.23.8.8,0,0,0-.23.59v.62a.79.79,0,0,0,.23.58.82.82,0,0,0,.59.24H477a.82.82,0,0,0,.83-.82Zm2.5-.72a6.44,6.44,0,0,1,.13-1.37,3,3,0,0,1,.44-1.07,2.18,2.18,0,0,1,.8-.71,2.73,2.73,0,0,1,1.2-.25,7,7,0,0,1,.91.06c.32,0,.67.08,1.06.15l0,.88-.22,0-.4,0c-.16,0-.32,0-.49,0l-.4,0a2.3,2.3,0,0,0-.94.16,1.21,1.21,0,0,0-.58.46,1.8,1.8,0,0,0-.28.77,5.62,5.62,0,0,0-.08,1.07c0,.3,0,.6,0,.88a2,2,0,0,0,.23.78,1.44,1.44,0,0,0,.56.53,2.3,2.3,0,0,0,1,.2l1.55-.11,0,.89-1.12.16c-.31,0-.58.05-.8.05a3.41,3.41,0,0,1-1.23-.2,1.77,1.77,0,0,1-.81-.6,2.63,2.63,0,0,1-.46-1.07A7.73,7.73,0,0,1,480.37,212.85Zm5.74,0a6.44,6.44,0,0,1,.13-1.37,3,3,0,0,1,.44-1.07,2.1,2.1,0,0,1,.8-.71,2.73,2.73,0,0,1,1.2-.25,7,7,0,0,1,.91.06c.31,0,.67.08,1.06.15l0,.88-.22,0-.41,0-.48,0-.41,0a2.33,2.33,0,0,0-.94.16,1.23,1.23,0,0,0-.57.46,1.94,1.94,0,0,0-.29.77,6.58,6.58,0,0,0-.08,1.07c0,.3,0,.6,0,.88a2.14,2.14,0,0,0,.22.78,1.44,1.44,0,0,0,.56.53,2.38,2.38,0,0,0,1.06.2l1.54-.11,0,.89-1.12.16c-.31,0-.58.05-.8.05a3.46,3.46,0,0,1-1.24-.2,1.88,1.88,0,0,1-.81-.6,2.62,2.62,0,0,1-.45-1.07A7.73,7.73,0,0,1,486.11,212.85Zm8.23-.75v2.05a.84.84,0,0,0,.27.64.93.93,0,0,0,.67.26h1.3a.17.17,0,0,1,.13.07.15.15,0,0,1,.05.13v.69a.16.16,0,0,1-.18.18h-1.15a1.46,1.46,0,0,1-.61-.13,1,1,0,0,1-.48-.39v.58a2.57,2.57,0,0,1-.15.87,2.83,2.83,0,0,1-1,1.4,3,3,0,0,1-.79.42l-1.49.52-.29-.9,1.58-.52a1.83,1.83,0,0,0,.92-.67,1.85,1.85,0,0,0,.33-1.07V212.1Zm3.82,3a.94.94,0,0,0,.67-.27.89.89,0,0,0,.27-.65v-2.4h.9v2.4a2,2,0,0,1-.59,1.42,2.22,2.22,0,0,1-.64.42,1.92,1.92,0,0,1-.77.15h-1.42a.16.16,0,0,1-.18-.18v-.69a.21.21,0,0,1,.18-.2Zm-1.53,3.75h1.11v-1.11h-1.11Zm1.79,0h1.11v-1.11h-1.11Zm1.8.58-.29-.89,1.58-.52a1.85,1.85,0,0,0,1.26-1.74V212.1h.9v4.05a3,3,0,0,1-.14.89,2.9,2.9,0,0,1-.41.78,2.6,2.6,0,0,1-.61.63,2.85,2.85,0,0,1-.79.42Zm2.43-9.93h1.11v1.11h-1.11Z"/><path class="cls-5" d="M454.7,201.17h50v-.55h-50Zm50,25.56h-50v.55h50Zm-50,0A12.79,12.79,0,0,1,441.91,214h-.54a13.33,13.33,0,0,0,13.33,13.33ZM517.52,214a12.78,12.78,0,0,1-12.78,12.78v.55A13.33,13.33,0,0,0,518.07,214Zm-12.78-12.78A12.78,12.78,0,0,1,517.52,214h.55a13.33,13.33,0,0,0-13.33-13.33Zm-50-.55A13.33,13.33,0,0,0,441.37,214h.54a12.79,12.79,0,0,1,12.79-12.78Z"/><path class="cls-1" d="M522.15,214a13.06,13.06,0,0,1,13.05-13.06h35.9A13.06,13.06,0,0,1,584.16,214h0A13.06,13.06,0,0,1,571.1,227H535.2A13,13,0,0,1,522.15,214Z"/><path class="cls-7" d="M541.28,218.12a1.25,1.25,0,0,0,.54-.12,1.4,1.4,0,0,0,.75-.74,1.18,1.18,0,0,0,.12-.53v-.61h-2.44v-1.07H545a.17.17,0,0,1,.12.06.15.15,0,0,1,.06.13v.69a.2.2,0,0,1-.06.14.16.16,0,0,1-.12.05h-1.5a.93.93,0,0,1,.05.29v.46a2.25,2.25,0,0,1-.69,1.64,2.29,2.29,0,0,1-.75.5,2.26,2.26,0,0,1-.9.18H539a2.52,2.52,0,0,1-1-.21,2.6,2.6,0,0,1-.82-.56,2.39,2.39,0,0,1-.56-.83,2.47,2.47,0,0,1-.21-1v-3.13h.9v3a1.57,1.57,0,0,0,.13.65,2.09,2.09,0,0,0,.36.55,2,2,0,0,0,.54.36,1.65,1.65,0,0,0,.66.13Zm5.33-3.07a.94.94,0,0,0,.67-.27.89.89,0,0,0,.27-.65v-2.4h.9v2.4a2,2,0,0,1-.15.78,2,2,0,0,1-.44.64,2.31,2.31,0,0,1-.63.42,2,2,0,0,1-.78.15H545a.16.16,0,0,1-.18-.18v-.69a.21.21,0,0,1,.18-.2Zm-1.07-4.85h1.11v-1.11h-1.11Zm1.79,0h1.11v-1.11h-1.11Zm3.8,5.92h-.9v-8.6h.9Zm3.24,0a1.49,1.49,0,0,1-.55-.1,1.62,1.62,0,0,1-.46-.31,1.83,1.83,0,0,1-.3-.46,1.45,1.45,0,0,1-.1-.55v-1.38h.77v1.19a.63.63,0,0,0,.13.39.5.5,0,0,0,.39.15h2a1.05,1.05,0,0,0,.64-.17,1,1,0,0,0,.37-.4,1.09,1.09,0,0,0,.1-.54,1.3,1.3,0,0,0-.14-.52l-1.5-2.67.75-.51L558,212.9a2.23,2.23,0,0,1,.32,1.15,2.1,2.1,0,0,1-1,1.79,2,2,0,0,1-1.08.28Zm3.35,3.26-.28-.89L559,218a1.87,1.87,0,0,0,1.24-1.74v-4.14h.89v4.06a2.58,2.58,0,0,1-.15.88,2.38,2.38,0,0,1-.39.78,2.6,2.6,0,0,1-.61.63,3.3,3.3,0,0,1-.78.43Zm6.3-3.26h-.9v-8.6h.9Zm6.2,0a2.67,2.67,0,0,1-.14.89,2.64,2.64,0,0,1-.41.78,2.47,2.47,0,0,1-.61.64,2.27,2.27,0,0,1-.8.42l-1.48.51-.29-.9,1.57-.52a1.82,1.82,0,0,0,.9-.67,1.68,1.68,0,0,0,.35-1.05V216a.81.81,0,0,1-.25.09h-1.62a1.71,1.71,0,0,1-.75-.16,1.88,1.88,0,0,1-.58-.46,1.76,1.76,0,0,1-.34-.65,1.82,1.82,0,0,1,0-.77l.22-1.19a1.31,1.31,0,0,1,.21-.55,1.65,1.65,0,0,1,.38-.45,1.75,1.75,0,0,1,1.09-.39h.74a1.66,1.66,0,0,1,.7.15,1.69,1.69,0,0,1,.59.39,1.92,1.92,0,0,1,.39.57,1.7,1.7,0,0,1,.14.71Zm-.9-1.11v-1.73a.76.76,0,0,0-.25-.58.75.75,0,0,0-.57-.24h-.86a.78.78,0,0,0-.52.18.8.8,0,0,0-.29.48l-.2,1.05a.7.7,0,0,0,.16.6.73.73,0,0,0,.56.24Z"/><path class="cls-5" d="M535.2,201.17h35.9v-.55H535.2Zm35.9,25.56H535.2v.55h35.9Zm-35.9,0A12.78,12.78,0,0,1,522.42,214h-.54a13.32,13.32,0,0,0,13.32,13.33ZM583.89,214a12.79,12.79,0,0,1-12.79,12.78v.55A13.33,13.33,0,0,0,584.43,214ZM571.1,201.17A12.79,12.79,0,0,1,583.89,214h.54a13.33,13.33,0,0,0-13.33-13.33Zm-35.9-.55A13.32,13.32,0,0,0,521.88,214h.54a12.78,12.78,0,0,1,12.78-12.78Z"/><path class="cls-1" d="M588.51,214a13.06,13.06,0,0,1,13.06-13.06h34.81A13.06,13.06,0,0,1,649.44,214h0A13.06,13.06,0,0,1,636.38,227H601.57A13.06,13.06,0,0,1,588.51,214Z"/><path class="cls-7" d="M608.91,215.05h.28a.21.21,0,0,1,.18.2v.69a.16.16,0,0,1-.18.18h-.25a1.73,1.73,0,0,1-.9-.24,2,2,0,0,1-.66-.73,1.8,1.8,0,0,1-1.63,1H604a1.4,1.4,0,0,1-.54-.1,1.57,1.57,0,0,1-.45-.31,1.77,1.77,0,0,1-.3-.45,1.42,1.42,0,0,1-.1-.55v-1.38h.77v1.15a.6.6,0,0,0,.13.4.45.45,0,0,0,.39.17h1.91a1,1,0,0,0,.49-.11,1.21,1.21,0,0,0,.58-.75,1,1,0,0,0,0-.49l-1-3.52.85-.31,1.24,4.44a1,1,0,0,0,.35.54A1,1,0,0,0,608.91,215.05Zm1.86,0a.94.94,0,0,0,.94-.92v-2.4h.9v2.4a2,2,0,0,1-.59,1.42,2.37,2.37,0,0,1-.64.42,2,2,0,0,1-.77.15h-1.42c-.13,0-.19-.06-.19-.18v-.69a.16.16,0,0,1,.06-.13.16.16,0,0,1,.13-.07Zm-1.53,3.75h1.11v-1.11h-1.11Zm1.79,0h1.11v-1.11H611Zm5.24-6.7v2.05a.81.81,0,0,0,.28.64.92.92,0,0,0,.66.26h1.31a.21.21,0,0,1,.18.2v.69a.16.16,0,0,1-.18.18h-1.15a1.46,1.46,0,0,1-.61-.13,1.1,1.1,0,0,1-.49-.39v.58a2.56,2.56,0,0,1-.14.87,2.64,2.64,0,0,1-.41.78,2.56,2.56,0,0,1-.61.62,2.91,2.91,0,0,1-.8.42l-1.48.52-.29-.9,1.58-.52a1.76,1.76,0,0,0,.91-.67,1.79,1.79,0,0,0,.34-1.07V212.1Zm4,6.71h1.11V217.7h-1.11Zm3-2.87a.16.16,0,0,1-.18.18h-.81a1.74,1.74,0,0,1-.45-.06,1.72,1.72,0,0,1-.42-.18,1.29,1.29,0,0,1-.33-.28.75.75,0,0,1-.2-.34,1.76,1.76,0,0,1-.64.63,1.66,1.66,0,0,1-.86.23h-.81a.16.16,0,0,1-.18-.18v-.69a.15.15,0,0,1,0-.13.17.17,0,0,1,.13-.07h.85a.94.94,0,0,0,.65-.23,1.09,1.09,0,0,0,.37-.59l.4-2.06.89.14-.34,1.73a.86.86,0,0,0,0,.39.92.92,0,0,0,.18.32,1.54,1.54,0,0,0,.32.23,1,1,0,0,0,.39.07h.8a.21.21,0,0,1,.18.2Zm.65,2.86H625v-1.11h-1.11Zm1.79,0h1.11v-1.11h-1.11Zm2.07-2.86a.16.16,0,0,1-.18.18h-.81a1.61,1.61,0,0,1-.44-.06,1.57,1.57,0,0,1-.42-.18,1.34,1.34,0,0,1-.34-.28.85.85,0,0,1-.2-.34,1.76,1.76,0,0,1-.64.63,1.63,1.63,0,0,1-.86.23H623a.16.16,0,0,1-.18-.18v-.69a.21.21,0,0,1,.18-.2h.85a.94.94,0,0,0,.65-.23,1,1,0,0,0,.37-.59l.4-2.06.89.14-.34,1.73a1,1,0,0,0,0,.39.8.8,0,0,0,.19.32,1.25,1.25,0,0,0,.31.23,1,1,0,0,0,.39.07h.8a.21.21,0,0,1,.18.2Zm-.18.18a.13.13,0,0,1-.12-.05.13.13,0,0,1-.07-.11v-.74a.11.11,0,0,1,.07-.11.14.14,0,0,1,.12-.06h1.37c-.13,0-.22-.16-.29-.36a1.38,1.38,0,0,1,0-.64l.19-.91a1.94,1.94,0,0,1,.2-.54,1.89,1.89,0,0,1,.37-.42,1.51,1.51,0,0,1,.5-.27,1.55,1.55,0,0,1,.56-.11h.48a1.58,1.58,0,0,1,.69.15,1.54,1.54,0,0,1,.56.36,1.76,1.76,0,0,1,.37.56,1.72,1.72,0,0,1,.13.68v1.06a.8.8,0,0,1,0,.31.49.49,0,0,0,0,.13h2.13v-1.82a1.16,1.16,0,0,0-.81-1.13l-4.29-1.33.25-.91,4.19,1.3a2.25,2.25,0,0,1,1.11.75,2,2,0,0,1,.45,1.33v1.64a1.23,1.23,0,0,1-.33.92,1.22,1.22,0,0,1-.91.32h-2v-.61a.91.91,0,0,1-.12.17.89.89,0,0,1-.22.21,2.55,2.55,0,0,1-.33.17,1.25,1.25,0,0,1-.4.06Zm4.21-1.07v-1.54a.73.73,0,0,0-.23-.54.74.74,0,0,0-.56-.24h-.59a.79.79,0,0,0-.5.18.85.85,0,0,0-.26.46l-.17.89a.67.67,0,0,0,.14.57.73.73,0,0,0,.54.22Z"/><path class="cls-5" d="M601.57,201.17h34.81v-.55H601.57Zm34.81,25.56H601.57v.55h34.81Zm-34.81,0A12.79,12.79,0,0,1,588.78,214h-.54a13.33,13.33,0,0,0,13.33,13.33ZM649.16,214a12.78,12.78,0,0,1-12.78,12.78v.55A13.33,13.33,0,0,0,649.71,214Zm-12.78-12.78A12.78,12.78,0,0,1,649.16,214h.55a13.33,13.33,0,0,0-13.33-13.33Zm-34.81-.55A13.33,13.33,0,0,0,588.24,214h.54a12.79,12.79,0,0,1,12.79-12.78Z"/><path class="cls-1" d="M653.79,214a13.06,13.06,0,0,1,13.05-13.06h41.34A13.06,13.06,0,0,1,721.24,214h0A13.06,13.06,0,0,1,708.18,227H666.84A13,13,0,0,1,653.79,214Z"/><path class="cls-7" d="M673.68,218.12a1.25,1.25,0,0,0,.54-.12,1.23,1.23,0,0,0,.45-.3,1,1,0,0,0,.3-.44,1.18,1.18,0,0,0,.12-.53v-.61h-2.44v-1.07h4.78a.17.17,0,0,1,.12.06.15.15,0,0,1,.06.13v.69a.2.2,0,0,1-.06.14.16.16,0,0,1-.12.05h-1.5a.93.93,0,0,1,.05.29v.46a2.26,2.26,0,0,1-.18.9,2.13,2.13,0,0,1-.51.74,2.29,2.29,0,0,1-.75.5,2.19,2.19,0,0,1-.9.18H671.4a2.52,2.52,0,0,1-1-.21,2.6,2.6,0,0,1-.82-.56,2.39,2.39,0,0,1-.56-.83,2.47,2.47,0,0,1-.21-1v-3.13h.9v3a1.57,1.57,0,0,0,.13.65,2.09,2.09,0,0,0,.36.55,2,2,0,0,0,.54.36,1.65,1.65,0,0,0,.66.13Zm11.68-3.88a1.81,1.81,0,0,1-.15.74,2,2,0,0,1-.4.6,2,2,0,0,1-.59.4,1.79,1.79,0,0,1-.73.14h-6.06a.16.16,0,0,1-.12-.05.18.18,0,0,1-.06-.13v-.7a.15.15,0,0,1,.06-.13.17.17,0,0,1,.12-.06h.85l1.45-1.55v-6h.89v4.58a1.82,1.82,0,0,1,0,.37.85.85,0,0,1,0,.17l.06-.07.11-.11.12-.12.06-.08a2.61,2.61,0,0,1,1.84-.76h.8a1.63,1.63,0,0,1,.7.15,1.77,1.77,0,0,1,1,1,1.63,1.63,0,0,1,.15.7Zm-1.75.81a.84.84,0,0,0,.85-.83v-.82a.87.87,0,0,0-.26-.64.82.82,0,0,0-.63-.26h-.89a1.79,1.79,0,0,0-1.38.6l-1.84,2Zm6.19.89a.17.17,0,0,1-.19.18h-.48a2,2,0,0,1-.77-.15,2.18,2.18,0,0,1-.64-.43,2.12,2.12,0,0,1-.43-.64,1.87,1.87,0,0,1-.16-.77v-6.61h.9v6.59a.88.88,0,0,0,.28.67.93.93,0,0,0,.66.27h.64a.16.16,0,0,1,.13.07.16.16,0,0,1,.06.13Zm3.31.18a1.91,1.91,0,0,1-.89-.2.68.68,0,0,0-1.36,0,1.88,1.88,0,0,1-.89.2h-.36a.15.15,0,0,1-.13-.05.17.17,0,0,1-.05-.13v-.7a.15.15,0,0,1,.06-.13.17.17,0,0,1,.12-.06h.52a.94.94,0,0,0,.67-.27.88.88,0,0,0,.28-.67v-2h.9v2.06a.9.9,0,0,0,.28.65.92.92,0,0,0,.66.26h.24a1.08,1.08,0,0,0,.67-.22.92.92,0,0,0,.36-.61l.39-2.05.9.14-.35,1.73a.85.85,0,0,0,0,.39,1,1,0,0,0,.2.32,1.47,1.47,0,0,0,.31.23,1.21,1.21,0,0,0,.43.07h.13a.92.92,0,0,0,.94-.94V211.7h.91v2.48a.86.86,0,0,0,.3.63,1,1,0,0,0,.65.24h.52a.17.17,0,0,1,.12.06.15.15,0,0,1,.06.13v.7a.17.17,0,0,1-.05.13.15.15,0,0,1-.13.05h-.36a1.88,1.88,0,0,1-.89-.2,1.84,1.84,0,0,1-.67-.66,1.82,1.82,0,0,1-.69.66,1.87,1.87,0,0,1-.88.2,1.84,1.84,0,0,1-.83-.19,1.4,1.4,0,0,1-.59-.67,1.61,1.61,0,0,1-.66.66A1.83,1.83,0,0,1,693.11,216.12Zm8.74-3.21h1.91v-1.65a.85.85,0,0,0-.84-.83h-.79a.83.83,0,0,0-.54.19.73.73,0,0,0-.27.48l-.19,1a.73.73,0,0,0,.72.86Zm2.81,1.2a1.93,1.93,0,0,1-.17.79,2,2,0,0,1-1.07,1.07,2.09,2.09,0,0,1-.79.15h-3.1a.17.17,0,0,1-.19-.18v-.7a.27.27,0,0,1,.19-.19h3.17a1.16,1.16,0,0,0,.73-.23.9.9,0,0,0,.31-.77v-.18a1,1,0,0,1-.24.09h-1.56a1.72,1.72,0,0,1-.75-.17,1.62,1.62,0,0,1-.58-.46,1.76,1.76,0,0,1-.34-.65,1.82,1.82,0,0,1,0-.77l.21-1.1a1.47,1.47,0,0,1,.21-.56,1.77,1.77,0,0,1,.37-.44,1.92,1.92,0,0,1,.5-.29,1.72,1.72,0,0,1,.6-.1h.68a1.87,1.87,0,0,1,.71.14,2,2,0,0,1,.58.39,1.92,1.92,0,0,1,.54,1.3ZM701,206.79h1.11v1.11H701Zm1.79,0h1.11v1.11h-1.11Zm4.52,9.33h-.91v-8.6h.91Z"/><path class="cls-5" d="M666.84,201.17h41.34v-.55H666.84Zm41.34,25.56H666.84v.55h41.34Zm-41.34,0A12.78,12.78,0,0,1,654.06,214h-.54a13.32,13.32,0,0,0,13.32,13.33ZM721,214a12.79,12.79,0,0,1-12.79,12.78v.55A13.33,13.33,0,0,0,721.51,214Zm-12.79-12.78A12.79,12.79,0,0,1,721,214h.54a13.33,13.33,0,0,0-13.33-13.33Zm-41.34-.55A13.32,13.32,0,0,0,653.52,214h.54a12.78,12.78,0,0,1,12.78-12.78Z"/><path class="cls-1" d="M725.59,214a13.06,13.06,0,0,1,13.06-13.06h28.28A13.06,13.06,0,0,1,780,214h0A13.06,13.06,0,0,1,766.93,227H738.65A13.06,13.06,0,0,1,725.59,214Z"/><path class="cls-7" d="M742.05,216.12a1.49,1.49,0,0,1-.55-.1,1.57,1.57,0,0,1-.45-.31,1.41,1.41,0,0,1-.3-.46,1.46,1.46,0,0,1-.11-.55v-1.38h.77v1.19a.7.7,0,0,0,.13.39.5.5,0,0,0,.39.15H744a1.05,1.05,0,0,0,.64-.17,1,1,0,0,0,.37-.4,1.09,1.09,0,0,0,.1-.54,1.15,1.15,0,0,0-.14-.52l-1.5-2.67.76-.51,1.48,2.66a2.13,2.13,0,0,1,.32,1.15,2,2,0,0,1-1,1.79,2,2,0,0,1-1.08.28Zm10.12,0a2.68,2.68,0,0,1-.15.89,2.62,2.62,0,0,1-.4.78,2.65,2.65,0,0,1-.61.64,2.46,2.46,0,0,1-.8.42l-1.49.51-.29-.9L750,218a1.82,1.82,0,0,0,.9-.67,1.62,1.62,0,0,0,.35-1.05V216a.85.85,0,0,1-.24.09h-1.62a1.76,1.76,0,0,1-.76-.16,1.88,1.88,0,0,1-.58-.46,1.74,1.74,0,0,1-.33-.65,1.67,1.67,0,0,1,0-.77l.22-1.19a1.66,1.66,0,0,1,.21-.55,1.85,1.85,0,0,1,.38-.45,1.74,1.74,0,0,1,.5-.28,1.73,1.73,0,0,1,.6-.11h.73a1.63,1.63,0,0,1,.7.15,1.82,1.82,0,0,1,1,1,1.71,1.71,0,0,1,.15.71Zm-.9-1.11v-1.73a.79.79,0,0,0-.25-.58.78.78,0,0,0-.58-.24h-.86a.8.8,0,0,0-.52.18.85.85,0,0,0-.29.48l-.19,1.05a.69.69,0,0,0,.15.6.74.74,0,0,0,.56.24Zm5-3v2.05a.84.84,0,0,0,.27.64,1,1,0,0,0,.67.26h1.31a.21.21,0,0,1,.18.2v.69a.16.16,0,0,1-.18.18h-1.15a1.5,1.5,0,0,1-.62-.13,1,1,0,0,1-.48-.39v.58a2.83,2.83,0,0,1-.14.87,2.64,2.64,0,0,1-.41.78,2.56,2.56,0,0,1-.61.62,3.06,3.06,0,0,1-.8.42l-1.49.52-.28-.9,1.58-.52a1.82,1.82,0,0,0,1.25-1.74V212.1Zm4.57.81h1.91v-1.67a.77.77,0,0,0-.25-.57.82.82,0,0,0-.59-.24h-.8a.82.82,0,0,0-.81.67l-.18,1a.73.73,0,0,0,.72.86Zm2.79,1.19a2.15,2.15,0,0,1-.15.8,2.32,2.32,0,0,1-.43.64,2.15,2.15,0,0,1-.66.43,2,2,0,0,1-.78.15h-3.09a.17.17,0,0,1-.14-.05.24.24,0,0,1,0-.14v-.68a.15.15,0,0,1,.07-.13.15.15,0,0,1,.12-.07h3.17a1.16,1.16,0,0,0,.73-.23.9.9,0,0,0,.31-.77v-.18a1.32,1.32,0,0,1-.53.1h-1.27a1.8,1.8,0,0,1-.76-.17,1.68,1.68,0,0,1-.57-.46,1.76,1.76,0,0,1-.34-.65,1.67,1.67,0,0,1,0-.77l.19-1.1a1.72,1.72,0,0,1,.59-1,1.7,1.7,0,0,1,1.1-.39h.69a1.78,1.78,0,0,1,.7.14,1.85,1.85,0,0,1,.58.39,2,2,0,0,1,.39.59,1.67,1.67,0,0,1,.14.71Zm-2.69-7.31H762v1.11h-1.11Zm5,9.33H765v-7.55h.9Zm-2.52-7.88v-.5a1,1,0,0,1,.29-.73,1,1,0,0,1,.73-.29h2.48v.8H764.4a.34.34,0,0,0-.24.11.32.32,0,0,0-.09.23v.38Z"/><path class="cls-5" d="M738.65,201.17h28.28v-.55H738.65Zm28.28,25.56H738.65v.55h28.28Zm-28.28,0A12.79,12.79,0,0,1,725.86,214h-.54a13.33,13.33,0,0,0,13.33,13.33ZM779.72,214a12.79,12.79,0,0,1-12.79,12.78v.55A13.33,13.33,0,0,0,780.26,214Zm-12.79-12.78A12.79,12.79,0,0,1,779.72,214h.54a13.33,13.33,0,0,0-13.33-13.33Zm-28.28-.55A13.33,13.33,0,0,0,725.32,214h.54a12.79,12.79,0,0,1,12.79-12.78Z"/><path class="cls-1" d="M784.34,214a13.06,13.06,0,0,1,13-13.06H842A13.06,13.06,0,0,1,855.06,214h0A13.06,13.06,0,0,1,842,227H797.39a13,13,0,0,1-13-13.05Z"/><path class="cls-7" d="M805.69,214.31a1.21,1.21,0,0,1,.67.38,1.07,1.07,0,0,1,.25.7v.53a2.35,2.35,0,0,1-.19.91,2.48,2.48,0,0,1-1.25,1.25,2.27,2.27,0,0,1-.9.19h-2.64a2.52,2.52,0,0,1-1-.21,2.91,2.91,0,0,1-.82-.56,2.87,2.87,0,0,1-.56-.84,2.45,2.45,0,0,1-.21-1v-3h.9v2.86a1.64,1.64,0,0,0,.5,1.19,1.75,1.75,0,0,0,.55.36,1.49,1.49,0,0,0,.66.15h2.68a1.18,1.18,0,0,0,.53-.12,1.27,1.27,0,0,0,.45-.3,1.19,1.19,0,0,0,.3-.45,1.24,1.24,0,0,0,.11-.54v-.51l-3.56-.84v-1.38a2.3,2.3,0,0,1,.16-.88,2.36,2.36,0,0,1,.45-.73,2.36,2.36,0,0,1,1.47-.76l1.51-.19.14.94-1.72.23a1.33,1.33,0,0,0-.82.49,1.36,1.36,0,0,0-.32.88v.64Zm4.16,1.81a1.49,1.49,0,0,1-.55-.1,1.57,1.57,0,0,1-.45-.31,1.41,1.41,0,0,1-.3-.46,1.46,1.46,0,0,1-.11-.55v-1.38h.77v1.19a.7.7,0,0,0,.13.39.5.5,0,0,0,.39.15h2a1.05,1.05,0,0,0,.64-.17,1,1,0,0,0,.37-.4,1.09,1.09,0,0,0,.1-.54,1.15,1.15,0,0,0-.14-.52l-1.5-2.67.76-.51,1.48,2.66a2.13,2.13,0,0,1,.32,1.15,2.07,2.07,0,0,1-.26,1,2.12,2.12,0,0,1-.73.76,2.08,2.08,0,0,1-1.09.28Zm8.41-.18c0,.12-.06.18-.19.18h-.48a2,2,0,0,1-.77-.15,2.18,2.18,0,0,1-.64-.43,2.12,2.12,0,0,1-.43-.64,2,2,0,0,1-.16-.77v-6.61h.9v6.59a.91.91,0,0,0,.28.67.93.93,0,0,0,.66.27h.64a.16.16,0,0,1,.13.07.16.16,0,0,1,.06.13Zm7.45-.89a.84.84,0,0,0,.61-.24.82.82,0,0,0,.25-.6v-.81a.81.81,0,0,0-.28-.64.83.83,0,0,0-.64-.26h-.87a2,2,0,0,0-.76.15,1.74,1.74,0,0,0-.62.45l-1.84,2ZM820.48,214a1.51,1.51,0,0,0,0,.34l.1.21.09.1,0,0,2.15-2.34a2.6,2.6,0,0,1,.86-.61,2.63,2.63,0,0,1,1.06-.23h.81a1.71,1.71,0,0,1,.71.15,1.65,1.65,0,0,1,.58.39,1.76,1.76,0,0,1,.4.59,1.78,1.78,0,0,1,.14.7v.86a.83.83,0,0,0,.27.63,1,1,0,0,0,.67.23h.42a.14.14,0,0,1,.11.06.14.14,0,0,1,.07.13v.7a.21.21,0,0,1,0,.13.17.17,0,0,1-.13.05h-.26a1.87,1.87,0,0,1-.88-.2,1.89,1.89,0,0,1-.65-.64,1.6,1.6,0,0,1-1.45.84h-4a2.3,2.3,0,0,1-1-.19,1.31,1.31,0,0,1-.64-.67,1.89,1.89,0,0,1-.66.66,1.83,1.83,0,0,1-.87.2h-.4a.16.16,0,0,1-.12-.05.17.17,0,0,1-.06-.14v-.69a.15.15,0,0,1,.06-.13.17.17,0,0,1,.12-.06h.56a.92.92,0,0,0,.68-.26.9.9,0,0,0,.27-.66v-1.82h.9Zm9.19-3.38h1.11v-1.11h-1.11Zm1.78,0h1.11v-1.11h-1.11Zm2.08,5.32a.16.16,0,0,1-.18.18h-.81a1.74,1.74,0,0,1-.45-.06,1.65,1.65,0,0,1-.41-.18,1.34,1.34,0,0,1-.34-.28.85.85,0,0,1-.2-.34,1.76,1.76,0,0,1-.64.63,1.66,1.66,0,0,1-.86.23h-.81a.16.16,0,0,1-.18-.18v-.69a.19.19,0,0,1,.05-.13.17.17,0,0,1,.13-.07h.85a.94.94,0,0,0,.65-.23,1,1,0,0,0,.37-.59l.4-2.06.89.14-.34,1.73a.86.86,0,0,0,0,.39.8.8,0,0,0,.19.32,1.25,1.25,0,0,0,.31.23,1,1,0,0,0,.39.07h.8a.21.21,0,0,1,.18.2Zm2.14-3h1.9v-1.65a.78.78,0,0,0-.24-.58.82.82,0,0,0-.59-.25h-.8a.82.82,0,0,0-.81.67l-.18,1a.68.68,0,0,0,.16.6A.67.67,0,0,0,835.67,212.91Zm2.8,1.2a1.78,1.78,0,0,1-.17.79,2,2,0,0,1-.43.64,2.06,2.06,0,0,1-.64.43,2,2,0,0,1-.78.15h-3.11a.16.16,0,0,1-.18-.18v-.7a.13.13,0,0,1,.07-.12.15.15,0,0,1,.11-.07h3.18a1.18,1.18,0,0,0,.73-.23.9.9,0,0,0,.31-.77v-.18a1.06,1.06,0,0,1-.25.09h-1.55a1.8,1.8,0,0,1-.76-.17,1.51,1.51,0,0,1-.57-.46,1.76,1.76,0,0,1-.34-.65,1.81,1.81,0,0,1,0-.77l.21-1.1a1.9,1.9,0,0,1,.21-.56,1.8,1.8,0,0,1,.38-.44,1.77,1.77,0,0,1,.5-.29,1.72,1.72,0,0,1,.6-.1h.68a1.82,1.82,0,0,1,.7.14,1.77,1.77,0,0,1,1,1,1.67,1.67,0,0,1,.14.71Zm-3.63-7.32H836v1.11h-1.11Zm1.79,0h1.11v1.11h-1.11Zm4.52,9.33h-.9v-8.6h.9Z"/><path class="cls-5" d="M797.39,201.17H842v-.55H797.39ZM842,226.73H797.39v.55H842Zm-44.61,0A12.78,12.78,0,0,1,784.61,214h-.54a13.32,13.32,0,0,0,13.32,13.33ZM854.78,214A12.78,12.78,0,0,1,842,226.73v.55A13.33,13.33,0,0,0,855.33,214ZM842,201.17A12.78,12.78,0,0,1,854.78,214h.55A13.33,13.33,0,0,0,842,200.62Zm-44.61-.55A13.32,13.32,0,0,0,784.07,214h.54a12.78,12.78,0,0,1,12.78-12.78Z"/><path class="cls-1" d="M859.41,214a13.06,13.06,0,0,1,13.05-13.06h50a13.06,13.06,0,0,1,13,13.06h0a13,13,0,0,1-13,13.05h-50A13,13,0,0,1,859.41,214Z"/><path class="cls-7" d="M882.59,212.91v-1.65a.75.75,0,0,0-.25-.59.72.72,0,0,0-.57-.25H881a.76.76,0,0,0-.53.2.79.79,0,0,0-.28.48l-.18,1a.73.73,0,0,0,.72.86Zm-7.52-1.18v2a1.26,1.26,0,0,0,1.35,1.33h5.12a1.18,1.18,0,0,0,.73-.23.87.87,0,0,0,.31-.77v-.18a1.34,1.34,0,0,1-.52.1h-1.27a1.8,1.8,0,0,1-.76-.17,1.68,1.68,0,0,1-.57-.46,1.76,1.76,0,0,1-.34-.65,1.67,1.67,0,0,1,0-.77l.21-1.1a1.72,1.72,0,0,1,.59-1,1.66,1.66,0,0,1,1.1-.39h.69a1.78,1.78,0,0,1,.7.14,1.85,1.85,0,0,1,.58.39,2,2,0,0,1,.39.59,1.67,1.67,0,0,1,.14.71v2.85a2.09,2.09,0,0,1-.15.79,2.32,2.32,0,0,1-.43.64,2.15,2.15,0,0,1-.66.43,2,2,0,0,1-.78.15h-4.92a2.58,2.58,0,0,1-1-.18,2.51,2.51,0,0,1-.74-.49,2.45,2.45,0,0,1-.5-.76,2.6,2.6,0,0,1-.17-.93v-2Zm5.76-4.94h1.11v1.11h-1.11Zm5.49,5.31v2.05a.81.81,0,0,0,.28.64.92.92,0,0,0,.66.26h1.31a.21.21,0,0,1,.18.2v.69a.16.16,0,0,1-.18.18h-1.15a1.46,1.46,0,0,1-.61-.13,1.1,1.1,0,0,1-.49-.39v.58a2.56,2.56,0,0,1-.14.87,2.87,2.87,0,0,1-.4.78,2.61,2.61,0,0,1-.62.62,3,3,0,0,1-.79.42l-1.49.52-.29-.9,1.58-.52a1.76,1.76,0,0,0,.91-.67,1.79,1.79,0,0,0,.34-1.07V212.1Zm9.89,3a.85.85,0,0,0,.61-.24.82.82,0,0,0,.25-.6v-.81a.81.81,0,0,0-.28-.64.83.83,0,0,0-.64-.26h-.87a2,2,0,0,0-.76.15,1.74,1.74,0,0,0-.62.45l-1.85,2ZM891,214a1.51,1.51,0,0,0,0,.34,1.65,1.65,0,0,1,.09.21l.1.1,0,0,2.15-2.34a2.6,2.6,0,0,1,.86-.61,2.63,2.63,0,0,1,1.06-.23h.81a1.71,1.71,0,0,1,.71.15,1.65,1.65,0,0,1,.58.39,1.76,1.76,0,0,1,.4.59,1.78,1.78,0,0,1,.14.7v.86a.83.83,0,0,0,.27.63,1,1,0,0,0,.67.23h.42a.14.14,0,0,1,.11.06.14.14,0,0,1,.07.13v.7a.21.21,0,0,1,0,.13.17.17,0,0,1-.13.05h-.26a1.87,1.87,0,0,1-.88-.2,1.89,1.89,0,0,1-.65-.64,1.6,1.6,0,0,1-1.45.84h-4a2.3,2.3,0,0,1-1-.19,1.31,1.31,0,0,1-.64-.67,1.89,1.89,0,0,1-.66.66,1.83,1.83,0,0,1-.87.2h-.4a.16.16,0,0,1-.12-.05.17.17,0,0,1-.06-.14v-.69a.15.15,0,0,1,.06-.13.17.17,0,0,1,.12-.06h.56a.92.92,0,0,0,.68-.26.9.9,0,0,0,.27-.66v-1.82h.9Zm11.4,1.05h2V213.3a.75.75,0,0,0-.25-.57.8.8,0,0,0-.59-.25h-.85a.77.77,0,0,0-.52.2.86.86,0,0,0-.29.47l-.19,1.06a.72.72,0,0,0,.14.6A.74.74,0,0,0,902.38,215.05Zm-1.63-.82.28-1.34a1.56,1.56,0,0,1,.2-.56,1.89,1.89,0,0,1,.38-.45,1.92,1.92,0,0,1,.5-.29,1.72,1.72,0,0,1,.6-.1h.73a1.87,1.87,0,0,1,.71.14,1.82,1.82,0,0,1,.58.4,1.78,1.78,0,0,1,.4.57,1.82,1.82,0,0,1,.14.7V215a1.15,1.15,0,0,1-.33.85,1.12,1.12,0,0,1-.86.32h-1.59a1.54,1.54,0,0,1-.77-.19,1.46,1.46,0,0,1-.56-.67,1.52,1.52,0,0,1-.63.67,1.83,1.83,0,0,1-.82.19h-.38a.16.16,0,0,1-.18-.18v-.7a.13.13,0,0,1,.05-.12.17.17,0,0,1,.13-.07h.42a.94.94,0,0,0,.65-.23A1,1,0,0,0,900.75,214.23Zm11.12,0a.75.75,0,0,0,.13.6.73.73,0,0,0,.59.24h2V213.3a.86.86,0,0,0-.83-.82h-1.54Zm.8,1.91a1.71,1.71,0,0,1-.75-.16,1.84,1.84,0,0,1-.57-.46,1.76,1.76,0,0,1-.34-.65,1.67,1.67,0,0,1,0-.77l.29-1.6h-.71a.91.91,0,0,0-.68.32,1,1,0,0,0-.27.69v5.89h-.9v-5.87a1.88,1.88,0,0,1,.16-.78,2.13,2.13,0,0,1,.44-.65,2,2,0,0,1,1.42-.59h2.89a1.78,1.78,0,0,1,.7.14,1.76,1.76,0,0,1,.59.4,1.65,1.65,0,0,1,.39.58,1.71,1.71,0,0,1,.15.71v.79a.9.9,0,0,0,.27.67,1,1,0,0,0,.68.27h1a.17.17,0,0,1,.18.19v.7a.17.17,0,0,1-.05.13.15.15,0,0,1-.13.05h-.87a2,2,0,0,1-.75-.15,1.47,1.47,0,0,1-.61-.5.76.76,0,0,1-.34.52,1.16,1.16,0,0,1-.58.13Zm6.41,0h-1.65a.16.16,0,0,1-.18-.18v-.7a.17.17,0,0,1,.18-.19h1.77a1.55,1.55,0,0,0,.77-.2,1.49,1.49,0,0,0,.52-.57,1.38,1.38,0,0,0,.14-.79,1.8,1.8,0,0,0-.36-.9l-2.11-2.89v-.76l4-2.05.42.83-3.51,1.79,1.93,2.58a2.67,2.67,0,0,1,.55,1.38,2.52,2.52,0,0,1-.25,1.31,2.4,2.4,0,0,1-2.23,1.34Z"/><path class="cls-5" d="M872.46,201.17h50v-.55h-50Zm50,25.56h-50v.55h50Zm-50,0A12.78,12.78,0,0,1,859.68,214h-.55a13.33,13.33,0,0,0,13.33,13.33ZM935.29,214a12.78,12.78,0,0,1-12.78,12.78v.55A13.32,13.32,0,0,0,935.83,214Zm-12.78-12.78A12.78,12.78,0,0,1,935.29,214h.54a13.32,13.32,0,0,0-13.32-13.33Zm-50-.55A13.33,13.33,0,0,0,859.13,214h.55a12.78,12.78,0,0,1,12.78-12.78Z"/><path class="cls-1" d="M939.91,214A13.06,13.06,0,0,1,953,200.89h21.76a13.06,13.06,0,0,1,13,13.06h0a13,13,0,0,1-13,13.05H953A13.06,13.06,0,0,1,939.91,214Z"/><path class="cls-7" d="M956.46,212.1v2.05a.84.84,0,0,0,.27.64.93.93,0,0,0,.67.26h1.3a.17.17,0,0,1,.13.07.16.16,0,0,1,.06.13v.69a.17.17,0,0,1-.19.18h-1.15a1.46,1.46,0,0,1-.61-.13,1,1,0,0,1-.48-.39v.58a2.57,2.57,0,0,1-.15.87,2.62,2.62,0,0,1-.4.78,2.76,2.76,0,0,1-.61.62,3.06,3.06,0,0,1-.8.42l-1.49.52-.29-.9,1.58-.52a1.79,1.79,0,0,0,.92-.67,1.86,1.86,0,0,0,.34-1.07V212.1Zm3.84,1.44a1,1,0,0,0,.36.76,4.14,4.14,0,0,0,.94.62,4.46,4.46,0,0,0,.95-.62,1,1,0,0,0,.38-.76v-.38a1.12,1.12,0,0,0-.1-.48,1,1,0,0,0-.26-.38,1.4,1.4,0,0,0-.39-.26,1.14,1.14,0,0,0-.49-.11h-.18a1.08,1.08,0,0,0-.47.11,1.22,1.22,0,0,0-.65.64,1.28,1.28,0,0,0-.09.48Zm-.89-.46a2,2,0,0,1,.17-.83,2.12,2.12,0,0,1,.45-.68,2.24,2.24,0,0,1,.68-.47,2.12,2.12,0,0,1,.83-.17h.15a2,2,0,0,1,.82.17,1.93,1.93,0,0,1,.68.47,2.14,2.14,0,0,1,.63,1.5v.4a1.71,1.71,0,0,1-.23.87,2.54,2.54,0,0,1-.61.71h1.55a.15.15,0,0,1,.11.07.15.15,0,0,1,.07.13v.69a.16.16,0,0,1-.07.13.13.13,0,0,1-.11.05h-1.15a5.18,5.18,0,0,1-.89-.07,6,6,0,0,1-.89-.28,5.36,5.36,0,0,1-.89.28,4.94,4.94,0,0,1-.87.07H958.7a.17.17,0,0,1-.13-.05.21.21,0,0,1-.05-.13v-.69a.21.21,0,0,1,.18-.2h1.54a2.91,2.91,0,0,1-.61-.71,1.71,1.71,0,0,1-.22-.87Zm1.62-3.69h1.11v-1.11H961Zm11.14,5.66a.84.84,0,0,0,.6-.23.82.82,0,0,0,.24-.61v-.83a.86.86,0,0,0-.26-.64.82.82,0,0,0-.62-.26h-.89a1.74,1.74,0,0,0-.77.16,1.67,1.67,0,0,0-.6.46l-1.83,2Zm-5.23-1.17a1.63,1.63,0,0,0,0,.36,1.38,1.38,0,0,0,.11.24l.1.12,0,0,2.12-2.3a2.7,2.7,0,0,1,.87-.63,2.62,2.62,0,0,1,1.06-.22h.8a1.82,1.82,0,0,1,.7.14,1.87,1.87,0,0,1,.59.4,1.65,1.65,0,0,1,.39.58,1.71,1.71,0,0,1,.15.71v.92a1.81,1.81,0,0,1-.15.74,2,2,0,0,1-.4.6,2,2,0,0,1-.59.4,1.79,1.79,0,0,1-.73.14h-4a2,2,0,0,1-.48-.05,2.17,2.17,0,0,1-.47-.17,2,2,0,0,1-.4-.26,1.22,1.22,0,0,1-.26-.38,1.76,1.76,0,0,1-.66.64,1.81,1.81,0,0,1-.89.22h-.39a.15.15,0,0,1-.13-.05.19.19,0,0,1,0-.14v-.68a.15.15,0,0,1,0-.13.17.17,0,0,1,.13-.07h.56a.94.94,0,0,0,.67-.27.88.88,0,0,0,.28-.67V212.3h.9Z"/><path class="cls-5" d="M953,201.17h21.76v-.55H953Zm21.76,25.56H953v.55h21.76Zm-21.76,0A12.78,12.78,0,0,1,940.19,214h-.55A13.33,13.33,0,0,0,953,227.28ZM987.51,214a12.78,12.78,0,0,1-12.78,12.78v.55A13.33,13.33,0,0,0,988.06,214Zm-12.78-12.78A12.78,12.78,0,0,1,987.51,214h.55a13.33,13.33,0,0,0-13.33-13.33ZM953,200.62A13.33,13.33,0,0,0,939.64,214h.55A12.78,12.78,0,0,1,953,201.17Z"/></g></svg>