<svg xmlns="http://www.w3.org/2000/svg" viewBox="0 0 1152 648"><defs><style>.cls-1{fill:#f1f3f1;}.cls-2,.cls-5{fill:#232423;}.cls-3{fill:#fff;}.cls-4,.cls-6{fill:#353634;}.cls-5,.cls-6{fill-rule:evenodd;}.cls-7{fill:#e2e4e2;}</style></defs><g id="Layer_1" data-name="Layer 1"><rect class="cls-1" x="175.85" y="132.08" width="324.34" height="383.84"/><path class="cls-2" d="M397.8,218.41l-.67-2.08,3.74-1.23a4.08,4.08,0,0,0,2.09-1.57,4.21,4.21,0,0,0,.83-2.52v-9.73h2.09v9.55a6.18,6.18,0,0,1-.34,2.06,6.63,6.63,0,0,1-2.36,3.31,6.94,6.94,0,0,1-1.85,1Zm19-8.07a.38.38,0,0,1-.43.43h-1.14a4.48,4.48,0,0,1-1.81-.37,4.67,4.67,0,0,1-2.52-2.52,4.65,4.65,0,0,1-.37-1.81V190.53h2.12V206a2.15,2.15,0,0,0,.65,1.57,2.23,2.23,0,0,0,1.56.64h1.51a.37.37,0,0,1,.3.15.42.42,0,0,1,.13.31Zm3.61,6.75H423v-2.61h-2.61Zm7-6.75a.38.38,0,0,1-.43.43H425a3.48,3.48,0,0,1-1.05-.16,4.06,4.06,0,0,1-1-.43,3.36,3.36,0,0,1-.8-.64,2,2,0,0,1-.46-.8,4.26,4.26,0,0,1-1.5,1.48,4.07,4.07,0,0,1-2,.55h-1.9a.38.38,0,0,1-.43-.43v-1.63a.45.45,0,0,1,.12-.31.37.37,0,0,1,.31-.15h2a2.27,2.27,0,0,0,1.54-.55,2.42,2.42,0,0,0,.86-1.38l1-4.86,2.09.34-.8,4a2.09,2.09,0,0,0,0,.93,1.92,1.92,0,0,0,.43.76,2.75,2.75,0,0,0,.74.53,2.32,2.32,0,0,0,.92.18h1.87a.37.37,0,0,1,.31.15.45.45,0,0,1,.12.31Zm4.23-15h2.61v-2.61H431.6Zm-5.1,13.33a.49.49,0,0,1,.13-.31.37.37,0,0,1,.3-.15h5a8.12,8.12,0,0,0,2.82-.49,7.19,7.19,0,0,0,2.46-1.48l2.7-2.51a2.88,2.88,0,0,1,.55-.43l-7.33-2.18a1.28,1.28,0,0,0-1.11.12,1.45,1.45,0,0,0-.68.83l-.79,2.46-1.85-.53.71-2.42a3.47,3.47,0,0,1,.68-1.29,3.68,3.68,0,0,1,1.1-.92,3.45,3.45,0,0,1,1.35-.4,3.56,3.56,0,0,1,1.45.12l11.85,3.56-.65,2.06-1.22-.37a2.66,2.66,0,0,0-1.51.06,4.37,4.37,0,0,0-1.17.77l-3.56,3.29a8.63,8.63,0,0,1-2.79,1.68,8.94,8.94,0,0,1-3.2.59h-4.82a.38.38,0,0,1-.43-.43Zm25.64,2.06H450V190.53h2.12Z"/><path class="cls-2" d="M346,279.83l-.67-2.09,3.71-1.23a4.05,4.05,0,0,0,2.12-1.56,4.14,4.14,0,0,0,.83-2.52v-9.71h2.12v9.52a6.4,6.4,0,0,1-.34,2.09,6.3,6.3,0,0,1-.95,1.84,6.51,6.51,0,0,1-1.44,1.48,6.09,6.09,0,0,1-1.85,1Zm5.72-23.34h2.61v2.61H351.7Zm17.5,15.78a6.4,6.4,0,0,1-.34,2.09,7.32,7.32,0,0,1-2.39,3.35,6,6,0,0,1-1.87,1l-3.5,1.2-.68-2.12,3.68-1.23a4.27,4.27,0,0,0,2.12-1.56,3.93,3.93,0,0,0,.83-2.49v-.55a1.59,1.59,0,0,1-.58.21c-.2,0-.42,0-.65,0h-3.16a4,4,0,0,1-3.13-1.47,4.12,4.12,0,0,1-.8-1.54,4.24,4.24,0,0,1,0-1.81l.52-2.79a3.6,3.6,0,0,1,.49-1.29,4.34,4.34,0,0,1,.89-1,4.24,4.24,0,0,1,1.17-.67,4,4,0,0,1,1.41-.25h1.72a4,4,0,0,1,1.66.34,4.23,4.23,0,0,1,1.38.92,3.9,3.9,0,0,1,.92,1.35,4,4,0,0,1,.34,1.66Zm-2.12-2.61v-4.08a2,2,0,0,0-1.93-1.93h-2a1.86,1.86,0,0,0-1.23.43,2,2,0,0,0-.67,1.13l-.46,2.46a1.61,1.61,0,0,0,.37,1.41,1.67,1.67,0,0,0,1.32.58Zm3.64,10.17-.67-2.09,3.74-1.23a4.06,4.06,0,0,0,2.09-1.56,4.14,4.14,0,0,0,.83-2.52v-9.74h2.09v9.55a6.14,6.14,0,0,1-.34,2.06,6.72,6.72,0,0,1-2.36,3.32,6.91,6.91,0,0,1-1.85,1Zm24.21-18h2.61v-2.61h-2.61Zm4.2,0h2.61v-2.61h-2.61Zm-9.64,0v4.58a3.33,3.33,0,0,0,.25,1.29,3.23,3.23,0,0,0,.73,1,4.22,4.22,0,0,0,1,.71,3.52,3.52,0,0,0,1.29.24H405a2.2,2.2,0,0,0,2.21-2.21v-4.76h2.12v4.76a2.19,2.19,0,0,0,2.21,2.21h.92a.38.38,0,0,1,.43.43v1.66a.38.38,0,0,1-.43.43h-.52a4.22,4.22,0,0,1-3.66-2,4.71,4.71,0,0,1-1.62,1.53,4.41,4.41,0,0,1-2.06.49H392.9a5.4,5.4,0,0,1-2.15-.43,5.42,5.42,0,0,1-2.92-2.88,5.61,5.61,0,0,1-.43-2.15v-4.89Zm22.93,10.35a.38.38,0,0,1-.43-.43v-1.66a.37.37,0,0,1,.12-.27.4.4,0,0,1,.31-.16h1a2.39,2.39,0,0,0,2.36-1.93l.65-3.16a3.9,3.9,0,0,1,.49-1.32,4.13,4.13,0,0,1,.89-1.05,4.24,4.24,0,0,1,1.17-.67,4,4,0,0,1,1.41-.25h1.72a4,4,0,0,1,1.66.34,4.23,4.23,0,0,1,1.38.92,4.31,4.31,0,0,1,.92,1.35,4,4,0,0,1,.34,1.66v1.87a2.19,2.19,0,0,0,2.21,2.24h1a.38.38,0,0,1,.31.16.37.37,0,0,1,.12.27v1.66a.38.38,0,0,1-.43.43H429a4.2,4.2,0,0,1-1.75-.37,3.69,3.69,0,0,1-1.44-1.16,1.82,1.82,0,0,1-.83,1.22,2.87,2.87,0,0,1-1.38.31h-3.75a3.61,3.61,0,0,1-1.81-.46,3.38,3.38,0,0,1-1.32-1.56,3.56,3.56,0,0,1-1.48,1.56,4.22,4.22,0,0,1-1.93.46Zm7.18-2.52h4.67v-4.11a1.79,1.79,0,0,0-.58-1.35,1.83,1.83,0,0,0-1.38-.59h-2a1.8,1.8,0,0,0-1.23.47,1.89,1.89,0,0,0-.67,1.1l-.46,2.49a1.65,1.65,0,0,0,.33,1.41A1.69,1.69,0,0,0,419.6,269.66Zm11.94,8.82h2.61v-2.61h-2.61Zm4.2,0h2.61v-2.61h-2.61Zm4.89-6.73a.38.38,0,0,1-.43.43h-1.91a3.74,3.74,0,0,1-1-.15,4.11,4.11,0,0,1-1-.43,3.45,3.45,0,0,1-.8-.65,1.89,1.89,0,0,1-.46-.79,4.18,4.18,0,0,1-1.51,1.47,3.94,3.94,0,0,1-2,.55h-1.91a.38.38,0,0,1-.43-.43v-1.63a.41.41,0,0,1,.12-.3.41.41,0,0,1,.31-.16h2a2.27,2.27,0,0,0,1.53-.55,2.42,2.42,0,0,0,.86-1.38l1-4.85,2.09.34-.8,4a1.91,1.91,0,0,0,0,.92,1.94,1.94,0,0,0,.42.77,2.88,2.88,0,0,0,.74.52,2.36,2.36,0,0,0,.92.18h1.88a.38.38,0,0,1,.3.16.42.42,0,0,1,.13.3Zm5-7.12h4.49v-3.9a1.8,1.8,0,0,0-.59-1.35,1.83,1.83,0,0,0-1.38-.59H446.3a2,2,0,0,0-1.26.43,1.88,1.88,0,0,0-.65,1.14L444,262.6a1.61,1.61,0,0,0,.37,1.41A1.67,1.67,0,0,0,445.65,264.63Zm6.6,2.82a4.45,4.45,0,0,1-.39,1.85,4.86,4.86,0,0,1-1,1.5,4.67,4.67,0,0,1-1.5,1,4.6,4.6,0,0,1-1.85.37h-7.3a.38.38,0,0,1-.43-.43v-1.66a.34.34,0,0,1,.15-.27.36.36,0,0,1,.28-.16h7.46a2.78,2.78,0,0,0,1.72-.55,2.12,2.12,0,0,0,.74-1.81v-.43a2.08,2.08,0,0,1-.59.21,4.4,4.4,0,0,1-.64,0h-3a4.11,4.11,0,0,1-1.78-.4,4,4,0,0,1-1.35-1.08,4.16,4.16,0,0,1-.8-1.53,4,4,0,0,1,0-1.82l.49-2.58a3.7,3.7,0,0,1,.49-1.32,4.06,4.06,0,0,1,.89-1,4.27,4.27,0,0,1,1.17-.68,4.18,4.18,0,0,1,1.41-.24H448a4,4,0,0,1,1.65.34,4.17,4.17,0,0,1,1.39.92,4.39,4.39,0,0,1,.92,1.38,4.13,4.13,0,0,1,.33,1.66Zm-8.53-17.22h2.61v2.61h-2.61Zm4.2,0h2.61v2.61h-2.61Z"/><path class="cls-2" d="M297.08,338.29a3,3,0,0,0,1.26-.27,3.13,3.13,0,0,0,1.07-.71,2.72,2.72,0,0,0,.71-1,2.83,2.83,0,0,0,.28-1.26V333.6h-5.74v-2.52h11.23a.38.38,0,0,1,.28.12.39.39,0,0,1,.15.31v1.63a.46.46,0,0,1-.15.33.35.35,0,0,1-.28.13h-3.53a1.82,1.82,0,0,1,.13.67v1.08a5.39,5.39,0,0,1-.43,2.12,5.46,5.46,0,0,1-1.2,1.75,5.4,5.4,0,0,1-1.75,1.16,5.19,5.19,0,0,1-2.12.43h-5.28a6,6,0,0,1-2.4-.49,6.49,6.49,0,0,1-1.93-1.32,6.21,6.21,0,0,1-1.32-2,5.75,5.75,0,0,1-.49-2.37V327.3h2.11v7a3.92,3.92,0,0,0,.31,1.54,4.84,4.84,0,0,0,.86,1.29,4.15,4.15,0,0,0,1.26.86,4.1,4.1,0,0,0,1.57.3Zm13.09-17.65h2.61V318h-2.61ZM317,333.17a.39.39,0,0,1-.43.43h-1.91a3.81,3.81,0,0,1-1-.16,3.74,3.74,0,0,1-1-.43,3.41,3.41,0,0,1-.8-.64,1.92,1.92,0,0,1-.46-.8,4.18,4.18,0,0,1-1.51,1.47,4,4,0,0,1-2,.56H305.9a.39.39,0,0,1-.43-.43v-1.63a.4.4,0,0,1,.13-.31.37.37,0,0,1,.3-.15h2a2.32,2.32,0,0,0,1.53-.55,2.36,2.36,0,0,0,.86-1.39l1-4.85,2.08.34-.79,4.05a1.91,1.91,0,0,0,.46,1.69,2.61,2.61,0,0,0,.73.52,2.23,2.23,0,0,0,.92.19h1.88a.4.4,0,0,1,.31.15.43.43,0,0,1,.12.31Zm5-7.13h4.49v-3.93a1.8,1.8,0,0,0-.59-1.35,1.9,1.9,0,0,0-1.38-.55h-1.87a2,2,0,0,0-1.26.43,1.77,1.77,0,0,0-.64,1.13L320.3,324a1.6,1.6,0,0,0,.36,1.41A1.66,1.66,0,0,0,322,326Zm6.58,2.8a5,5,0,0,1-.37,1.87,4.86,4.86,0,0,1-1,1.5,4.8,4.8,0,0,1-3.37,1.39h-7.28a.4.4,0,0,1-.31-.13.52.52,0,0,1-.12-.33v-1.6a.39.39,0,0,1,.15-.31.36.36,0,0,1,.28-.15H324a2.83,2.83,0,0,0,1.72-.55,2.14,2.14,0,0,0,.74-1.82v-.43a3.12,3.12,0,0,1-1.26.25h-3a4,4,0,0,1-1.78-.4,4.16,4.16,0,0,1-1.35-1.07,3.87,3.87,0,0,1-.83-3.35l.46-2.58a4,4,0,0,1,1.38-2.37,4,4,0,0,1,2.58-.92h1.63a4.21,4.21,0,0,1,1.66.34,4,4,0,0,1,1.35.92,4.39,4.39,0,0,1,.92,1.38,4.21,4.21,0,0,1,.34,1.66Zm-6.33-17.2h2.61v2.61h-2.61Zm32.06,19.44a2.27,2.27,0,0,0,2.24-2.24v-5.62h2.12v5.62a4.76,4.76,0,0,1-.37,1.87,4.76,4.76,0,0,1-2.52,2.52,4.72,4.72,0,0,1-1.84.37H342.25a5.58,5.58,0,0,1-2.15-.43,5.4,5.4,0,0,1-2.92-2.92,5.58,5.58,0,0,1-.43-2.15v-4.88h2.12v4.57a3.53,3.53,0,0,0,.25,1.29,3.41,3.41,0,0,0,.71,1.05,4,4,0,0,0,1,.7,3.33,3.33,0,0,0,1.29.25Zm-10-7.86h2.61v-2.61h-2.61Zm4.2,0h2.61v-2.61h-2.61Zm20.6,9.95a.39.39,0,0,1-.43.43h-1.14a4.65,4.65,0,0,1-1.81-.37,4.85,4.85,0,0,1-2.52-2.52,4.65,4.65,0,0,1-.37-1.81V313.36h2.12v15.51a2.13,2.13,0,0,0,.65,1.56,2.2,2.2,0,0,0,1.56.65h1.51a.37.37,0,0,1,.3.15.4.4,0,0,1,.13.31Zm17.52-2.09a2,2,0,0,0,1.44-.59,1.93,1.93,0,0,0,.59-1.41v-1.9a2.15,2.15,0,0,0-2.15-2.12h-2.06a4.4,4.4,0,0,0-1.78.37,4.06,4.06,0,0,0-1.47,1l-4.33,4.61Zm-12.28-2.49a2.94,2.94,0,0,0,.09.8,4,4,0,0,0,.22.49l.21.25.12.06,5.07-5.5a6.25,6.25,0,0,1,2-1.44,6.06,6.06,0,0,1,2.48-.52h1.91a4.2,4.2,0,0,1,1.66.33,4.57,4.57,0,0,1,1.38.92,4.32,4.32,0,0,1,.92,1.39,4.13,4.13,0,0,1,.34,1.65v2a1.92,1.92,0,0,0,.64,1.48,2.44,2.44,0,0,0,1.57.55h1a.41.41,0,0,1,.28.12.39.39,0,0,1,.15.31v1.66a.48.48,0,0,1-.12.3.42.42,0,0,1-.31.13h-.61a4.39,4.39,0,0,1-2.06-.5,4.25,4.25,0,0,1-1.54-1.5,3.77,3.77,0,0,1-3.41,2h-9.39a5.44,5.44,0,0,1-2.24-.46,3.13,3.13,0,0,1-1.51-1.57,4.46,4.46,0,0,1-1.56,1.53,4.24,4.24,0,0,1-2,.5h-.95a.35.35,0,0,1-.28-.13.4.4,0,0,1-.15-.33v-1.63a.39.39,0,0,1,.15-.31.38.38,0,0,1,.28-.12H370a2.22,2.22,0,0,0,1.59-.62,2.13,2.13,0,0,0,.65-1.56v-4.27h2.12Zm24.29-13h2.61v2.61h-2.61Zm-4.66,18a.38.38,0,0,1-.43-.43v-1.63a.51.51,0,0,1,.12-.31.37.37,0,0,1,.31-.15h5a8.42,8.42,0,0,0,2.83-.49,7.06,7.06,0,0,0,2.45-1.48l2.7-2.52a3.49,3.49,0,0,1,.56-.43L400.15,324a1.31,1.31,0,0,0-1.11.13,1.43,1.43,0,0,0-.67.83l-.8,2.45-1.84-.52.7-2.42a3.46,3.46,0,0,1,.68-1.29,4.16,4.16,0,0,1,1.1-.93,3.61,3.61,0,0,1,1.36-.39A3.19,3.19,0,0,1,401,322l11.85,3.56-.64,2.06-1.23-.37a2.79,2.79,0,0,0-1.29,0,2.82,2.82,0,0,0-1,.52l0,1.14a2.12,2.12,0,0,0,.64,1.56,2.24,2.24,0,0,0,1.6.65H415a.39.39,0,0,1,.31.15.39.39,0,0,1,.12.28v1.66a.38.38,0,0,1-.43.43H411.3a4.58,4.58,0,0,1-1.69-.31,4.66,4.66,0,0,1-1.35-.89,5,5,0,0,1-1-1.35,6,6,0,0,1-.43-1.69l-2.12,2A8.55,8.55,0,0,1,402,333a8.89,8.89,0,0,1-3.19.59Zm29.28,0a4.18,4.18,0,0,1-3.69-2A4.38,4.38,0,0,1,418,333.1a4.48,4.48,0,0,1-2.09.5H415a.39.39,0,0,1-.31-.13.48.48,0,0,1-.12-.3v-1.66a.39.39,0,0,1,.15-.31.38.38,0,0,1,.28-.12h1.26a2.13,2.13,0,0,0,1.56-.65,2.08,2.08,0,0,0,.68-1.56v-4.79h2.12V329a2.09,2.09,0,0,0,.64,1.53,2.26,2.26,0,0,0,1.57.62h.55a2.46,2.46,0,0,0,1.57-.55,2.3,2.3,0,0,0,.86-1.45l.92-4.82,2.12.34-.8,4.05a2.34,2.34,0,0,0,0,1,1.81,1.81,0,0,0,.43.76,2.08,2.08,0,0,0,.77.49,2.45,2.45,0,0,0,1,.19h.31a2.13,2.13,0,0,0,1.56-.65,2.23,2.23,0,0,0,.65-1.59v-5.68h2.11V329a2.15,2.15,0,0,0,.71,1.47,2.21,2.21,0,0,0,1.54.59h1.22a.38.38,0,0,1,.28.12.39.39,0,0,1,.15.31v1.66a.48.48,0,0,1-.12.3.39.39,0,0,1-.31.13h-.86a4.44,4.44,0,0,1-2.08-.5,4.11,4.11,0,0,1-1.57-1.53,4.26,4.26,0,0,1-1.63,1.53,4.31,4.31,0,0,1-2,.5,4.49,4.49,0,0,1-2-.46,3.3,3.3,0,0,1-1.38-1.57,3.78,3.78,0,0,1-1.57,1.53A4.26,4.26,0,0,1,423.23,333.6Zm6.91-13h-2.61V318h2.61Zm-4.21,0h-2.61V318h2.61Zm2-3.75h-2.61v-2.61h2.61Zm17.59,14.19h4.67V327a1.79,1.79,0,0,0-.58-1.35,1.83,1.83,0,0,0-1.39-.58h-2a1.79,1.79,0,0,0-1.23.46,2,2,0,0,0-.68,1.1l-.46,2.49a1.68,1.68,0,0,0,.34,1.41A1.7,1.7,0,0,0,445.51,331.08Zm-3.84-1.94.65-3.16a3.7,3.7,0,0,1,.49-1.32,3.92,3.92,0,0,1,.89-1,4,4,0,0,1,1.17-.68,4.19,4.19,0,0,1,1.41-.25H448a4.18,4.18,0,0,1,1.66.34A4.39,4.39,0,0,1,451,324a4.25,4.25,0,0,1,.92,1.36,4,4,0,0,1,.34,1.65v3.87a2.64,2.64,0,0,1-2.8,2.77h-3.74a3.72,3.72,0,0,1-1.81-.46,3.6,3.6,0,0,1-1.32-1.57,3.53,3.53,0,0,1-1.48,1.57,4.35,4.35,0,0,1-1.93.46h-.89a.38.38,0,0,1-.43-.43v-1.66a.39.39,0,0,1,.12-.28.37.37,0,0,1,.31-.15h1a2.3,2.3,0,0,0,1.53-.55A2.23,2.23,0,0,0,441.67,329.14Z"/><path class="cls-2" d="M353.24,394.58a.38.38,0,0,1-.43.43h-1.13a4.44,4.44,0,0,1-1.81-.37,4.67,4.67,0,0,1-2.52-2.52,4.44,4.44,0,0,1-.37-1.81V374.77h2.12v15.51a2.13,2.13,0,0,0,.64,1.57,2.21,2.21,0,0,0,1.57.64h1.5a.36.36,0,0,1,.31.16.41.41,0,0,1,.12.3Zm-.44.43a.37.37,0,0,1-.27-.12.39.39,0,0,1-.16-.28v-1.72a.33.33,0,0,1,.16-.28.37.37,0,0,1,.27-.12H356a1.27,1.27,0,0,1-.68-.86,3.17,3.17,0,0,1-.06-1.5l.43-2.15a4.59,4.59,0,0,1,.49-1.26,3.91,3.91,0,0,1,.86-1,4.11,4.11,0,0,1,2.49-.89h1.14a3.91,3.91,0,0,1,1.62.33,4.13,4.13,0,0,1,1.32.86,3.82,3.82,0,0,1,.86,1.32,4.07,4.07,0,0,1,.31,1.6v2.49a1.69,1.69,0,0,1-.12.73,1.45,1.45,0,0,0-.09.31h5v-4.3a2.64,2.64,0,0,0-1.9-2.64l-10.08-3.13.59-2.15,9.86,3.07a5.48,5.48,0,0,1,2.61,1.75,4.71,4.71,0,0,1,1,3.13v3.87A2.67,2.67,0,0,1,368.8,395h-4.6v-1.44a1.85,1.85,0,0,1-.28.4,2.77,2.77,0,0,1-.52.49,6.86,6.86,0,0,1-.77.4,2.87,2.87,0,0,1-.95.15Zm9.92-2.52v-3.62a1.7,1.7,0,0,0-.55-1.29,1.74,1.74,0,0,0-1.32-.55h-1.38a1.81,1.81,0,0,0-1.78,1.5l-.4,2.09a1.5,1.5,0,0,0,.33,1.35,1.71,1.71,0,0,0,1.26.52Zm24.68,7.22a2.83,2.83,0,0,0,1.26-.28,3.24,3.24,0,0,0,1.08-.7,2.93,2.93,0,0,0,.7-1.05,2.83,2.83,0,0,0,.28-1.26V395H385v-2.52h11.24a.37.37,0,0,1,.27.12.41.41,0,0,1,.16.31v1.63a.49.49,0,0,1-.16.34.37.37,0,0,1-.27.12h-3.54a1.68,1.68,0,0,1,.13.68v1.07a5.38,5.38,0,0,1-1.63,3.87,5.48,5.48,0,0,1-1.75,1.17,5.32,5.32,0,0,1-2.12.43H382a6,6,0,0,1-2.4-.5,6.14,6.14,0,0,1-1.93-1.32,6.26,6.26,0,0,1-1.32-2,5.75,5.75,0,0,1-.49-2.37v-7.36H378v7a3.87,3.87,0,0,0,.3,1.53,5.1,5.1,0,0,0,.86,1.29,3.9,3.9,0,0,0,2.83,1.17Zm12.54-7.22a2.19,2.19,0,0,0,2.21-2.18v-5.65h2.12v5.65a4.52,4.52,0,0,1-.37,1.84,4.6,4.6,0,0,1-1,1.51,4.86,4.86,0,0,1-1.51,1,4.31,4.31,0,0,1-1.81.37h-3.34a.38.38,0,0,1-.43-.43V393a.41.41,0,0,1,.12-.3.36.36,0,0,1,.31-.16ZM401.81,381h2.61V378.4h-2.61Zm13.06,13.57a.38.38,0,0,1-.43.43H413.3a4.48,4.48,0,0,1-1.81-.37,4.67,4.67,0,0,1-1.5-1,4.79,4.79,0,0,1-1-1.51,4.61,4.61,0,0,1-.37-1.81V374.77h2.12v15.51a2.14,2.14,0,0,0,.65,1.57,2.19,2.19,0,0,0,1.56.64h1.51a.38.38,0,0,1,.31.16.41.41,0,0,1,.12.3Zm1.55,6.72H419v-2.61h-2.61Zm4.21,0h2.61v-2.61h-2.61Zm-2.06,3.75h2.61v-2.61h-2.61Zm6.91-10.47a.38.38,0,0,1-.43.43h-1.93a4,4,0,0,1-1.05-.15,5,5,0,0,1-1-.43,4,4,0,0,1-.77-.65,2.47,2.47,0,0,1-.49-.8,4.17,4.17,0,0,1-1.5,1.48,3.92,3.92,0,0,1-2,.55h-1.9a.38.38,0,0,1-.43-.43V393a.41.41,0,0,1,.12-.3.36.36,0,0,1,.31-.16h2a2.39,2.39,0,0,0,1.57-.55,2.27,2.27,0,0,0,.83-1.38l1-4.85,2.09.33L421,390.1a2,2,0,0,0,0,.92,2.43,2.43,0,0,0,.46.77,3.42,3.42,0,0,0,.71.52,2.32,2.32,0,0,0,.92.18h1.9a.37.37,0,0,1,.31.16.41.41,0,0,1,.12.3ZM425,395a.38.38,0,0,1-.43-.43v-1.66a.35.35,0,0,1,.13-.27.35.35,0,0,1,.3-.16h1a2.41,2.41,0,0,0,2.37-1.93l.64-3.17a3.92,3.92,0,0,1,.5-1.32,4.06,4.06,0,0,1,.89-1,3.86,3.86,0,0,1,2.58-.92h1.72a4,4,0,0,1,1.65.34,4.17,4.17,0,0,1,1.39.92,4.68,4.68,0,0,1,.92,1.35,4.13,4.13,0,0,1,.33,1.66v1.87a2.17,2.17,0,0,0,.65,1.6,2.12,2.12,0,0,0,1.56.64h1a.35.35,0,0,1,.3.16.35.35,0,0,1,.13.27v1.66a.38.38,0,0,1-.43.43h-.59a4.23,4.23,0,0,1-1.75-.37,3.63,3.63,0,0,1-1.44-1.17,1.79,1.79,0,0,1-.83,1.23,2.87,2.87,0,0,1-1.38.31h-3.75a3.64,3.64,0,0,1-1.81-.46,3.41,3.41,0,0,1-1.32-1.57,3.57,3.57,0,0,1-1.47,1.57,4.26,4.26,0,0,1-1.94.46Zm7.19-2.52h4.67v-4.11a1.78,1.78,0,0,0-.59-1.35,1.83,1.83,0,0,0-1.38-.59h-2a1.81,1.81,0,0,0-1.22.46A2,2,0,0,0,431,388l-.46,2.49a1.66,1.66,0,0,0,.34,1.41A1.69,1.69,0,0,0,432.23,392.49ZM446.07,395H442.2a.38.38,0,0,1-.43-.43v-1.66a.38.38,0,0,1,.43-.43h4.14a3.34,3.34,0,0,0,1.81-.49,3.29,3.29,0,0,0,1.57-3.19,4.29,4.29,0,0,0-.86-2.12l-4.94-6.79v-1.78l9.42-4.82,1,1.93-8.26,4.21,4.54,6.08a6.14,6.14,0,0,1,1.29,3.26,5.83,5.83,0,0,1-.58,3.07,5.6,5.6,0,0,1-2.06,2.27A5.7,5.7,0,0,1,446.07,395Z"/><path class="cls-2" d="M325.93,456a.38.38,0,0,1-.43.43h-1.14a4.64,4.64,0,0,1-1.81-.36,4.76,4.76,0,0,1-2.52-2.52,4.51,4.51,0,0,1-.37-1.81V436.19h2.12V451.7a2.13,2.13,0,0,0,.65,1.56,2.2,2.2,0,0,0,1.56.65h1.51a.37.37,0,0,1,.3.15.42.42,0,0,1,.13.31Zm-.44.43a.38.38,0,0,1-.28-.12.35.35,0,0,1-.15-.28v-1.71a.3.3,0,0,1,.15-.28.38.38,0,0,1,.28-.12h3.22a1.3,1.3,0,0,1-.68-.86,3.21,3.21,0,0,1-.06-1.51l.43-2.15a4.59,4.59,0,0,1,.49-1.26,4.32,4.32,0,0,1,.86-1,3.52,3.52,0,0,1,1.17-.64,3.56,3.56,0,0,1,1.32-.25h1.14a3.76,3.76,0,0,1,1.62.34,3.64,3.64,0,0,1,1.32.86,3.82,3.82,0,0,1,.86,1.32,4,4,0,0,1,.31,1.59v2.49a1.74,1.74,0,0,1-.12.74,1.31,1.31,0,0,0-.09.31h5v-4.3a2.64,2.64,0,0,0-1.9-2.64l-10.07-3.14.58-2.15,9.86,3.08a5.41,5.41,0,0,1,2.61,1.75,4.69,4.69,0,0,1,1,3.13v3.87a2.66,2.66,0,0,1-2.92,2.91h-4.6V455a1.64,1.64,0,0,1-.28.4,2.48,2.48,0,0,1-.52.49,4.63,4.63,0,0,1-.77.4,2.87,2.87,0,0,1-.95.15Zm9.91-2.51v-3.63a1.7,1.7,0,0,0-.55-1.29,1.74,1.74,0,0,0-1.32-.55h-1.38a1.78,1.78,0,0,0-1.17.43,1.82,1.82,0,0,0-.61,1.07L330,452a1.49,1.49,0,0,0,.34,1.35,1.69,1.69,0,0,0,1.26.53Zm16.06-5.16a2.67,2.67,0,0,0-.56.61,2.16,2.16,0,0,0-.21.89v1.17a2.8,2.8,0,0,0,.21,1.07,3,3,0,0,0,.59.92,3.31,3.31,0,0,0,.92.62,2.91,2.91,0,0,0,1.1.21h.86a2.71,2.71,0,0,0,1.14-.24,3,3,0,0,0,.89-.62,2.91,2.91,0,0,0,.58-.89,2.56,2.56,0,0,0,.22-1v-1.17a2.09,2.09,0,0,0-.83-1.56l-.52-.34c-.27-.19-.55-.37-.83-.55l-1.11-.74Zm-.22-6.11c.31.2.64.43,1,.67s.62.43,1,.68.78.51,1.19.8l3.17,2.15a3.84,3.84,0,0,1,1.29,1.56,4.71,4.71,0,0,1,.46,2v1.1a5.23,5.23,0,0,1-.37,1.91,5.3,5.3,0,0,1-1.05,1.63,5.07,5.07,0,0,1-1.62,1.13,5,5,0,0,1-2,.4h-.64a5,5,0,0,1-2-.4,5.1,5.1,0,0,1-1.6-1.13,5.88,5.88,0,0,1-1-1.63,5,5,0,0,1-.37-1.91v-1a4.6,4.6,0,0,1,.49-2.15,3.87,3.87,0,0,1,1.35-1.5l.65-.4.55-.34.55-.37-2.06-1.38ZM369.77,456a.38.38,0,0,1-.43.43H368.2a4.64,4.64,0,0,1-1.81-.36,4.91,4.91,0,0,1-1.51-1,5,5,0,0,1-1-1.5,4.69,4.69,0,0,1-.37-1.81V436.19h2.12V451.7a2.13,2.13,0,0,0,.65,1.56,2.2,2.2,0,0,0,1.56.65h1.51a.37.37,0,0,1,.3.15.39.39,0,0,1,.13.31Zm.6-20.14,8.48-4.33.7,1.63-8.47,4.3Zm2.83,20.57h-3.87a.38.38,0,0,1-.43-.43v-1.65a.38.38,0,0,1,.43-.43h4.14a3.4,3.4,0,0,0,1.84-.5,3.13,3.13,0,0,0,1.2-1.35,3.31,3.31,0,0,0,.34-1.87,4.16,4.16,0,0,0-.86-2.09l-4.94-6.75v-1.81l9.42-4.83,1,1.94-8.26,4.21,8.59,11.48a4.27,4.27,0,0,0,1.26,1.14,3.42,3.42,0,0,0,1.66.43h.37a.54.54,0,0,1,.43.46V456a.37.37,0,0,1-.15.31.41.41,0,0,1-.28.12h-.34a5.22,5.22,0,0,1-4.42-2.54l-1.63-2.4a5,5,0,0,1-.55,2.12,5.17,5.17,0,0,1-1.29,1.57,6.12,6.12,0,0,1-1.72.95A6.37,6.37,0,0,1,373.2,456.42Zm20.13,0a4.47,4.47,0,0,1-2.09-.49,4.4,4.4,0,0,1-1.6-1.53,4.38,4.38,0,0,1-1.59,1.53,4.47,4.47,0,0,1-2.09.49h-.89a.43.43,0,0,1-.31-.12.48.48,0,0,1-.12-.31v-1.65a.37.37,0,0,1,.15-.31.41.41,0,0,1,.28-.12h1.26a2.13,2.13,0,0,0,1.56-.65,2,2,0,0,0,.68-1.56v-4.8h2.12v4.89a2.09,2.09,0,0,0,.64,1.53,2.28,2.28,0,0,0,1.57.62h.55a2.4,2.4,0,0,0,1.57-.56,2.23,2.23,0,0,0,.86-1.44l.92-4.82,2.12.34-.8,4.05a2.29,2.29,0,0,0,0,1,1.89,1.89,0,0,0,.43.77,2.16,2.16,0,0,0,.77.49,2.48,2.48,0,0,0,1,.19h.31a2.13,2.13,0,0,0,1.56-.65,2.23,2.23,0,0,0,.65-1.59V446H405v5.84a2.1,2.1,0,0,0,.7,1.47,2.23,2.23,0,0,0,1.54.59h1.23a.37.37,0,0,1,.27.12.36.36,0,0,1,.16.31V456a.45.45,0,0,1-.13.31.41.41,0,0,1-.3.12h-.86a4.44,4.44,0,0,1-2.09-.49,4.18,4.18,0,0,1-1.57-1.53,4.2,4.2,0,0,1-3.65,2,4.39,4.39,0,0,1-2-.46,3.27,3.27,0,0,1-1.38-1.56,3.94,3.94,0,0,1-1.56,1.53A4.28,4.28,0,0,1,393.33,456.42Zm6.91-12.95h-2.61v-2.61h2.61Zm-4.21,0h-2.61v-2.61H396Zm2-3.75h-2.61v-2.61H398Zm14.12,14.19a2.13,2.13,0,0,0,1.56-.65,2.1,2.1,0,0,0,.65-1.53v-5.65h2.12v5.65a4.76,4.76,0,0,1-.37,1.84,4.86,4.86,0,0,1-1,1.5,5.15,5.15,0,0,1-1.5,1,4.5,4.5,0,0,1-1.81.36h-3.35A.38.38,0,0,1,408,456v-1.62a.41.41,0,0,1,.12-.31.4.4,0,0,1,.31-.15Zm-3.6,8.81h2.61v-2.61h-2.61Zm4.21,0h2.61v-2.61h-2.61ZM427.34,456a.38.38,0,0,1-.43.43h-1.13a4.6,4.6,0,0,1-1.81-.36,4.79,4.79,0,0,1-1.51-1,4.67,4.67,0,0,1-1-1.5,4.51,4.51,0,0,1-.37-1.81V436.19h2.12V451.7a2.12,2.12,0,0,0,.64,1.56,2.2,2.2,0,0,0,1.57.65h1.5a.37.37,0,0,1,.31.15.41.41,0,0,1,.12.31Zm-.44.43a.38.38,0,0,1-.43-.43v-1.65a.38.38,0,0,1,.12-.28.4.4,0,0,1,.31-.15h1a2.43,2.43,0,0,0,2.37-1.94l.64-3.16a4.11,4.11,0,0,1,1.39-2.37,4,4,0,0,1,2.58-.92h1.71a4.37,4.37,0,0,1,3,1.26,4.52,4.52,0,0,1,.93,1.35,4.2,4.2,0,0,1,.33,1.66v1.87a2.17,2.17,0,0,0,.65,1.6,2.13,2.13,0,0,0,1.56.65h1a.37.37,0,0,1,.3.15.35.35,0,0,1,.13.28V456a.38.38,0,0,1-.43.43h-.59a4.39,4.39,0,0,1-1.75-.36,3.81,3.81,0,0,1-1.44-1.17,1.83,1.83,0,0,1-.83,1.23,3,3,0,0,1-1.38.3h-3.75a3.64,3.64,0,0,1-1.81-.46,3.38,3.38,0,0,1-1.32-1.56,3.54,3.54,0,0,1-1.47,1.56,4.26,4.26,0,0,1-1.94.46Zm7.19-2.51h4.66v-4.12a1.79,1.79,0,0,0-.58-1.35,1.82,1.82,0,0,0-1.38-.58h-2a1.75,1.75,0,0,0-1.22.46,1.9,1.9,0,0,0-.68,1.1l-.46,2.49a1.66,1.66,0,0,0,.34,1.41A1.7,1.7,0,0,0,434.09,453.91Zm13.68,0a2.14,2.14,0,0,0,1.57-.65,2.09,2.09,0,0,0,.64-1.53v-5.65h2.12v5.65a4.58,4.58,0,0,1-.37,1.84,4.67,4.67,0,0,1-1,1.5,5.07,5.07,0,0,1-1.51,1,4.47,4.47,0,0,1-1.81.36h-3.34a.38.38,0,0,1-.43-.43v-1.62a.41.41,0,0,1,.12-.31.37.37,0,0,1,.31-.15Zm1.87-11.49h2.61v-2.61h-2.61Z"/><rect class="cls-3" x="500.19" y="132.08" width="475.96" height="383.84"/><path class="cls-4" d="M799,202.94h.86a.36.36,0,0,1,.28.15.39.39,0,0,1,.15.31v3.1a.53.53,0,0,1-.12.31.41.41,0,0,1-.31.12h-.61a4.64,4.64,0,0,1-2.18-.49,6.24,6.24,0,0,1-1.57-1.11,6.23,6.23,0,0,1-1.75,1.17,5.23,5.23,0,0,1-2.15.43h-4a4,4,0,0,1-1.57-.31,4.31,4.31,0,0,1-1.29-.89,4.71,4.71,0,0,1-.89-1.29,4.32,4.32,0,0,1-.3-1.59v-4h2.88v3.38a.67.67,0,0,0,.22.52.69.69,0,0,0,.49.19h4.51a1.9,1.9,0,0,0,.86-.19,2.25,2.25,0,0,0,.71-.52,1.78,1.78,0,0,0,.37-.74,1.57,1.57,0,0,0,0-.86l-2.46-8.87,3.19-1.17,3.14,11.15a1.64,1.64,0,0,0,.58.86A1.58,1.58,0,0,0,799,202.94Zm7.92,0a1.43,1.43,0,0,0,1-.43,1.53,1.53,0,0,0,.43-1.08v-6.35h3.38v6.35a5.36,5.36,0,0,1-.43,2.15,5.69,5.69,0,0,1-1.2,1.75,5.48,5.48,0,0,1-1.75,1.17,5.15,5.15,0,0,1-2.12.43h-6.42a.41.41,0,0,1-.3-.12.53.53,0,0,1-.12-.31v-3.1a.43.43,0,0,1,.12-.31.37.37,0,0,1,.3-.15Zm-6.6,11.21h3.5v-3.54h-3.5Zm5.09,0H809v-3.54h-3.53Zm15.5-18.21v5.74a1.13,1.13,0,0,0,.46.92,1.73,1.73,0,0,0,1,.34h2.25a.38.38,0,0,1,.43.43v3.13a.38.38,0,0,1-.43.43H823a3.78,3.78,0,0,1-1.11-.18,1.61,1.61,0,0,1-.92-.77v.55a6,6,0,0,1-.4,2.21,6.89,6.89,0,0,1-1,2,7.26,7.26,0,0,1-1.6,1.53,7.38,7.38,0,0,1-2,1l-4.23,1.44-1-3.16,4.42-1.45a3.33,3.33,0,0,0,1.85-1.38,3.63,3.63,0,0,0,.7-2.18V195.94Zm8.38-5.07h3.53v-3.53h-3.53Zm-5.1,12.53a.47.47,0,0,1,.16-.31.34.34,0,0,1,.27-.15h5.5a8.59,8.59,0,0,0,2.55-.4,5.24,5.24,0,0,0,2.15-1.38l1.78-1.91.28-.27c.08-.09.13-.13.15-.13l-6.45-1.93a.65.65,0,0,0-.55.06.85.85,0,0,0-.34.4l-1.16,3.07-2.95-.8.8-2.82a4.17,4.17,0,0,1,.86-1.63,4.41,4.41,0,0,1,1.35-1,4.2,4.2,0,0,1,1.62-.47,4,4,0,0,1,1.66.16l12.22,3.65-1,3.17-1.44-.43a2,2,0,0,0-1.2,0,2.41,2.41,0,0,0-.89.61l-3.53,3.5a8.14,8.14,0,0,1-3.07,1.94,11.06,11.06,0,0,1-3.6.61h-4.73a.38.38,0,0,1-.43-.43Z"/><path class="cls-1" d="M907.06,162.79h0a38.38,38.38,0,0,1,38.38,38.38h0a38.38,38.38,0,0,1-38.38,38.39h0a38.38,38.38,0,0,1-38.38-38.39h0A38.38,38.38,0,0,1,907.06,162.79Z"/><path class="cls-4" d="M919.92,185.24l-1-.19a62.28,62.28,0,0,0-23.8,0l-1,.19-4.41,10.17h-1.92v3.84h1.92v19.19h3.84v-5.37a59.33,59.33,0,0,0,26.86,0v5.37h3.84V199.25h1.92v-3.84h-1.92Zm-23,3.46a60.39,60.39,0,0,1,20.34,0l3.26,7.67v2.88l-5.75,3.84H899.38l-5.75-3.84v-3.07Zm-3.26,20.53v-5.37l4.6,3.07H915.7l4.6-3.07v5.37A57,57,0,0,1,893.63,209.23Z"/><path class="cls-4" d="M740.31,333a2.44,2.44,0,0,0,1.81-.74,2.51,2.51,0,0,0,.8-1.81l0-.64h-6v-4h12a.29.29,0,0,1,.31.12.37.37,0,0,1,.12.27v3.14a.43.43,0,0,1-.43.46h-2.73a1.5,1.5,0,0,0,0,.18,1.4,1.4,0,0,1,.06.43v.49a5.82,5.82,0,0,1-.49,2.4,6,6,0,0,1-1.35,1.93,5.87,5.87,0,0,1-2,1.29,6.36,6.36,0,0,1-2.45.46h-5.22a6.55,6.55,0,0,1-2.67-.55,6.94,6.94,0,0,1-2.22-1.47,7.34,7.34,0,0,1-1.47-2.18,6.74,6.74,0,0,1-.52-2.68V322h3.38v7.61a3.25,3.25,0,0,0,.27,1.32,3.7,3.7,0,0,0,.74,1.08,3.57,3.57,0,0,0,2.39,1Zm10.35-7.18v-3.08a4.92,4.92,0,0,1,.37-1.93,5,5,0,0,1,1.07-1.6,5.09,5.09,0,0,1,3.53-1.44h1.26a4.26,4.26,0,0,1,1.63.31,4.34,4.34,0,0,1,1.38.8,4.11,4.11,0,0,1,1.08,1.22,5.16,5.16,0,0,1,.61,1.54l.46,2.36a4.45,4.45,0,0,1-.06,2.18,4.79,4.79,0,0,1-1,1.85,5.3,5.3,0,0,1-1.66,1.29,4.59,4.59,0,0,1-2.09.49h-1.41a4.58,4.58,0,0,1-1-.09c-.29-.07-.59-.15-.89-.25v.28a3.12,3.12,0,0,0,.24,1.19,1.38,1.38,0,0,0,1.08.74l3.59.68,3.1-3.81a7.87,7.87,0,0,1,2.36-2,6.29,6.29,0,0,1,3-.73h.37a.39.39,0,0,1,.28.12.37.37,0,0,1,.15.31v3.13a.38.38,0,0,1-.43.43h-.89a3,3,0,0,0-1.38.34,3.16,3.16,0,0,0-1.14.95l-.4.52c-.2.27-.46.58-.76.95s-.6.79-.93,1.2-.6.79-.89,1.13-.5.68-.7.93l-.31.43-6.75-1.78a3.48,3.48,0,0,1-1.23-.62,4.19,4.19,0,0,1-.92-1.07,5.29,5.29,0,0,1-.59-1.39,6.92,6.92,0,0,1-.18-1.59h-1.78a.38.38,0,0,1-.43-.43V326.2a.38.38,0,0,1,.43-.43Zm3.38-3.08v3.08h3.77a.92.92,0,0,0,.74-.34.94.94,0,0,0,.21-.83l-.39-2.06a1.14,1.14,0,0,0-.4-.7,1.18,1.18,0,0,0-.77-.28h-2a1.14,1.14,0,0,0-1.13,1.13Zm18.27,7.07H767.8a.42.42,0,0,1-.31-.13.52.52,0,0,1-.12-.33v-3.14a.37.37,0,0,1,.12-.27.39.39,0,0,1,.28-.16h4.88a2.7,2.7,0,0,0,1.51-.42,3,3,0,0,0,1-1.11,2.81,2.81,0,0,0,.31-1.41,2.55,2.55,0,0,0-.56-1.45l-5.25-7.09v-2.43L780,306.57l1.51,3-8.42,4.24,4.52,5.62a5.6,5.6,0,0,1,1.1,2.21,6,6,0,0,1,.16,2.33,6.09,6.09,0,0,1-.68,2.18A7.59,7.59,0,0,1,776.8,328a7,7,0,0,1-2,1.29A6.64,6.64,0,0,1,772.31,329.76Zm-3.77-22,9.67-4.91,1,2.36-9.64,4.95Zm21.31,22h-3.38V311.12h3.38Zm-7.56-19.41v-1.63a2.66,2.66,0,0,1,.89-2.15,3,3,0,0,1,2-.76h6.35v2.91h-6a.59.59,0,0,0-.49.22.6.6,0,0,0-.16.43v1Zm21.83,7.55h3.53v-3.53h-3.53Zm5.13,0h3.53v-3.53h-3.53Zm-9.12,0v5.35a2.44,2.44,0,0,0,.74,1.81,2.51,2.51,0,0,0,1.81.71h12.59a1.5,1.5,0,0,0,1-.4,1.43,1.43,0,0,0,.43-1.05V318.8h3.38v5.49a1.47,1.47,0,0,0,1.47,1.48h.92a.38.38,0,0,1,.43.43v3.13a.38.38,0,0,1-.43.43h-.33a4.75,4.75,0,0,1-2.06-.46,5.25,5.25,0,0,1-1.66-1.35,4.74,4.74,0,0,1-1.75,1.38,5,5,0,0,1-2.06.43H803a6.12,6.12,0,0,1-2.42-.49,6.69,6.69,0,0,1-2-1.32,6.82,6.82,0,0,1-1.32-2,6,6,0,0,1-.49-2.43V317.9ZM826.64,337h3.53v-3.53h-3.53Zm7.83-7.67a.48.48,0,0,1-.12.3.4.4,0,0,1-.31.13h-2.33a4.27,4.27,0,0,1-2-.52,3,3,0,0,1-1.32-1.29,2.79,2.79,0,0,1-.61.7,8.58,8.58,0,0,1-.89.59,5.14,5.14,0,0,1-1,.39,4.06,4.06,0,0,1-1,.13h-2.33a.38.38,0,0,1-.43-.43v-3.1a.41.41,0,0,1,.12-.31.37.37,0,0,1,.31-.15h2.64a1.69,1.69,0,0,0,1.07-.37,1.62,1.62,0,0,0,.58-1l1.14-5.52,3.32.58-.92,4.64a1.26,1.26,0,0,0,.27,1.16,1.42,1.42,0,0,0,1.11.5H834a.39.39,0,0,1,.31.15.41.41,0,0,1,.12.31Zm9.61-14.22h-3.53v-3.53h3.53Zm-5.13,0h-3.53v-3.53H839Zm2.52-4.67h-3.53v-3.53h3.53Zm-2.21,15.33a1.43,1.43,0,0,0,1-.43,1.53,1.53,0,0,0,.43-1.08V317.9h3.38v6.36a5.4,5.4,0,0,1-.43,2.15,5.5,5.5,0,0,1-2.95,2.92,5.31,5.31,0,0,1-2.11.43H834a.42.42,0,0,1-.31-.13.48.48,0,0,1-.12-.3v-3.1a.41.41,0,0,1,.12-.31.4.4,0,0,1,.31-.15Z"/><path class="cls-1" d="M907.06,285.62h0A38.38,38.38,0,0,1,945.44,324h0a38.38,38.38,0,0,1-38.38,38.38h0A38.38,38.38,0,0,1,868.68,324h0A38.38,38.38,0,0,1,907.06,285.62Z"/><path class="cls-5" d="M909,310.57h-3.84v11.51H893.63v3.84h11.51v11.51H909V325.92h11.51v-3.84H909Z"/><path class="cls-4" d="M721.24,425.69l-9.68,4.91,1.05,2.36,9.67-4.91Zm-4.76,10.93,8.35,10.78a3.79,3.79,0,0,0,1,.86,2.75,2.75,0,0,0,1.32.33h.34a.38.38,0,0,1,.43.43v3.14a.43.43,0,0,1-.15.3.37.37,0,0,1-.28.13h-.18A5.3,5.3,0,0,1,725,452a5.71,5.71,0,0,1-1.84-1.59l-1.35-1.88a6.74,6.74,0,0,1-1,1.6,6.34,6.34,0,0,1-1.39,1.29,7.23,7.23,0,0,1-1.75.83,6.38,6.38,0,0,1-2,.31h-11a6,6,0,0,1-2.43-.5,6.45,6.45,0,0,1-2-1.32,6.65,6.65,0,0,1-1.32-2,6.2,6.2,0,0,1-.49-2.43v-4.76h3.38v4.46a2.51,2.51,0,0,0,2.55,2.54H716a2.48,2.48,0,0,0,1.47-.43,2.56,2.56,0,0,0,1-1.07,2.86,2.86,0,0,0,.31-1.44,2.53,2.53,0,0,0-.55-1.45L713,437.08v-2.4l10.41-5.25,1.5,2.95Zm16.27,12a1.42,1.42,0,0,0,1-.43,1.49,1.49,0,0,0,.43-1.07v-6.36h3.38v6.36a5.58,5.58,0,0,1-.43,2.15A5.81,5.81,0,0,1,736,451a5.48,5.48,0,0,1-1.75,1.17,5.32,5.32,0,0,1-2.12.43h-4.57a.39.39,0,0,1-.31-.13.48.48,0,0,1-.12-.3v-3.11a.41.41,0,0,1,.12-.3.38.38,0,0,1,.31-.16Zm1.32-10.65h3.53v-3.53h-3.53Zm1.49,22.48-1-3.17,4.43-1.44a3.78,3.78,0,0,0,2.54-3.56V441.62h3.38v10.29a7.56,7.56,0,0,1-1.41,4.36,6.57,6.57,0,0,1-1.6,1.6,7.23,7.23,0,0,1-2.05,1.1Zm5.77-25.15h3.53v3.53h-3.53Zm10.29,9.18a5.18,5.18,0,0,1,.31-1.81,5.24,5.24,0,0,1,.86-1.6,5.81,5.81,0,0,1,1.29-1.23,5.07,5.07,0,0,1,1.68-.74l4.06-1v-2.3h3.38v11.15a1.53,1.53,0,0,0,.52,1.16,1.84,1.84,0,0,0,1.26.49h.92a.35.35,0,0,1,.27.13.35.35,0,0,1,.16.3v3.14a.35.35,0,0,1-.16.3.35.35,0,0,1-.27.13H765a4.55,4.55,0,0,1-2.67-.77,5.88,5.88,0,0,1-1.82-2.06,2.73,2.73,0,0,1-.92.4,5.31,5.31,0,0,1-1.07.12h-3A3.84,3.84,0,0,1,754,450a4.05,4.05,0,0,1-1.22-.83,3.87,3.87,0,0,1-.83-1.23,3.64,3.64,0,0,1-.31-1.51Zm8.2-2.73-3.13.76a2.09,2.09,0,0,0-1.23.8,2.27,2.27,0,0,0-.46,1.41v1.6h4.82Zm6.89,14.55h3.53v3.53h-3.53Zm4.42-7.68a1.39,1.39,0,0,0,1-.43,1.49,1.49,0,0,0,.43-1.07v-6.36H776v6.36a5.4,5.4,0,0,1-.43,2.15,5.59,5.59,0,0,1-2.95,2.92,5.32,5.32,0,0,1-2.12.43h-4.57a.4.4,0,0,1-.31-.13.48.48,0,0,1-.12-.3v-3.11a.41.41,0,0,1,.12-.3.4.4,0,0,1,.31-.16Zm31.68,4a4.16,4.16,0,0,1-1.08-.16,2,2,0,0,1-1-.8v.77a4.83,4.83,0,0,1-.52,2.21,5.38,5.38,0,0,1-1.35,1.75,6.52,6.52,0,0,1-1.94,1.17,6.22,6.22,0,0,1-2.3.43h-5.38a6.55,6.55,0,0,1-2.67-.55,6.76,6.76,0,0,1-2.21-1.48,7.09,7.09,0,0,1-1.47-2.18,6.87,6.87,0,0,1-.52-2.67v-9h3.37v8.48a3.41,3.41,0,0,0,.25,1.32,3.63,3.63,0,0,0,1.81,1.81,3.1,3.1,0,0,0,1.32.28h5.53a2.78,2.78,0,0,0,2.76-2.77v-9.61h3.35v5.59a1.56,1.56,0,0,0,.46,1,1.42,1.42,0,0,0,1,.4h.89a1.71,1.71,0,0,0,1.08-.36,1.62,1.62,0,0,0,.58-1l1.11-5.56,3.31.62-.92,4.6a1.32,1.32,0,0,0,.28,1.2,1.48,1.48,0,0,0,1.14.49H812v-7.92h3.38v8.17a3.9,3.9,0,0,1-1.11,2.67,4,4,0,0,1-1.17.8,3.85,3.85,0,0,1-1.44.28h-2a4.42,4.42,0,0,1-1.85-.4,3.82,3.82,0,0,1-1.44-1.42,4.19,4.19,0,0,1-1.63,1.42A5.05,5.05,0,0,1,802.81,452.59Zm7.4-13.73h-3.53v-3.53h3.53Zm-5.13,0h-3.53v-3.53h3.53Zm2.49-4.67H804v-3.53h3.54Zm15.67,18.4a4.8,4.8,0,0,1-2.08-.46,5,5,0,0,1-1.6-1.29,5.28,5.28,0,0,1-.95-1.82,4.58,4.58,0,0,1-.06-2.15l.52-2.79a4.42,4.42,0,0,1,.58-1.54,5.27,5.27,0,0,1,1.08-1.25,4.34,4.34,0,0,1,1.38-.8,4.45,4.45,0,0,1,1.66-.31h1.71a4.82,4.82,0,0,1,2,.4,5,5,0,0,1,1.6,1.1,5.16,5.16,0,0,1,1.07,1.6,4.85,4.85,0,0,1,.4,2v3.34h2.15a.38.38,0,0,1,.43.43v3.14a.38.38,0,0,1-.43.43h-2.18v.15a2.11,2.11,0,0,1,0,.31,6.41,6.41,0,0,1-1.57,3.65,7.67,7.67,0,0,1-3.47,2.36l-4.2,1.45-1.05-3.23,4.33-1.44a4,4,0,0,0,1.88-1.29,3.21,3.21,0,0,0,.73-2.12v-.21a4.76,4.76,0,0,1-.83.27,5.34,5.34,0,0,1-1,.1Zm-.43-4h4.33v-3.37a1.13,1.13,0,0,0-.33-.83A1.09,1.09,0,0,0,826,444h-2.49a1.09,1.09,0,0,0-.74.27,1.36,1.36,0,0,0-.4.71l-.49,2.46a1,1,0,0,0,.19.8A1,1,0,0,0,822.81,448.59Zm14.4,4h-4.52a.42.42,0,0,1-.31-.13.52.52,0,0,1-.12-.33V449a.37.37,0,0,1,.12-.27.36.36,0,0,1,.28-.16h4.88a2.63,2.63,0,0,0,1.51-.43,2.77,2.77,0,0,0,1-1.1,2.71,2.71,0,0,0,.31-1.41,2.48,2.48,0,0,0-.56-1.45l-5.25-7.09v-2.43l10.41-5.25,1.51,3L838,436.62l4.52,5.62a5.54,5.54,0,0,1,1.1,2.21,6.26,6.26,0,0,1-.52,4.51,7.59,7.59,0,0,1-1.41,1.88,6.9,6.9,0,0,1-2,1.29A6.55,6.55,0,0,1,837.21,452.59Zm-3.78-22,9.67-4.91,1,2.36L834.5,433Z"/><path class="cls-1" d="M907.06,408.44h0a38.38,38.38,0,0,1,38.38,38.39h0a38.38,38.38,0,0,1-38.38,38.38h0a38.38,38.38,0,0,1-38.38-38.38h0A38.38,38.38,0,0,1,907.06,408.44Z"/><path class="cls-6" d="M909,429.75a11.55,11.55,0,0,1,9.6,11.32v8.44l3.83,1.92v6.91l-1.15.58a33.41,33.41,0,0,1-14.2,3.26,34.06,34.06,0,0,1-14.2-3.26l-1.15-.58v-6.91l3.83-1.92v-8.44a11.55,11.55,0,0,1,9.6-11.32v-4H909Zm-13.44,26.1a28.36,28.36,0,0,0,23,0v-2.11l-3.84-1.92V441.07a7.68,7.68,0,0,0-15.36,0v10.75l-3.84,1.92Zm15.36,8.06v.19a3.84,3.84,0,0,1-7.68,0v-.19a26.07,26.07,0,0,0,3.84.19h0A26,26,0,0,0,910.9,463.91Z"/><path class="cls-7" d="M175.85,132.08v-.48h-.48v.48Zm800.3,0h.48v-.48h-.48Zm0,383.84v.48h.48v-.48Zm-800.3,0h-.48v.48h.48Zm0-383.36h800.3v-1H175.85Zm799.82-.48V515.92h1V132.08Zm.48,383.36H175.85v1h800.3Zm-799.82.48V132.08h-1V515.92Z"/></g></svg>