<svg xmlns="http://www.w3.org/2000/svg" viewBox="0 0 648 648"><defs><style>.cls-1{fill:#f1f3f1;}.cls-2,.cls-3{fill:#767876;}.cls-2,.cls-5{fill-rule:evenodd;}.cls-4,.cls-5{fill:#232423;}</style></defs><g id="Graphic"><rect class="cls-1" x="45.36" y="45.36" width="557.28" height="111.46"/><path class="cls-2" d="M93.41,82.51a3.07,3.07,0,1,1-3.07-3.09A3.08,3.08,0,0,1,93.41,82.51Zm7.68,3.1A3.1,3.1,0,1,0,98,82.51,3.08,3.08,0,0,0,101.09,85.61Zm10.75,0a3.1,3.1,0,1,0-3.07-3.1A3.09,3.09,0,0,0,111.84,85.61Z"/><path class="cls-3" d="M87.76,123.41v2.89a.57.57,0,0,0,.24.47.85.85,0,0,0,.51.17h1.13c.14,0,.21.07.21.22v1.58a.19.19,0,0,1-.21.21h-.85a1.87,1.87,0,0,1-.56-.09.81.81,0,0,1-.47-.39v.28a3,3,0,0,1-.2,1.12,3.6,3.6,0,0,1-.52,1,3.7,3.7,0,0,1-.81.77,3.81,3.81,0,0,1-1,.53l-2.14.72-.52-1.59,2.23-.73a1.69,1.69,0,0,0,.93-.69,1.89,1.89,0,0,0,.35-1.1v-5.36Zm2.45-1.36H92v-1.78H90.21Zm2.58,0h1.78v-1.78H92.79Zm2.87,6.69a.24.24,0,0,1-.06.15.23.23,0,0,1-.16.06H94.27a2.19,2.19,0,0,1-1-.26,1.48,1.48,0,0,1-.66-.65,1.42,1.42,0,0,1-.31.35,2.52,2.52,0,0,1-.45.3,2.36,2.36,0,0,1-.51.2,2.39,2.39,0,0,1-.53.06H89.64c-.15,0-.22-.07-.22-.21v-1.57a.2.2,0,0,1,.06-.15.19.19,0,0,1,.16-.08H91a.83.83,0,0,0,.83-.68l.58-2.79,1.67.3-.47,2.33a.66.66,0,0,0,.14.59.7.7,0,0,0,.56.25h1.16a.21.21,0,0,1,.16.08.2.2,0,0,1,.06.15Zm4,.21a2.58,2.58,0,0,1-1-.21,2.33,2.33,0,0,1-.85-.7,2.31,2.31,0,0,1-.87.7,2.54,2.54,0,0,1-1,.21h-.4a.2.2,0,0,1-.14-.06.22.22,0,0,1-.08-.15v-1.57a.19.19,0,0,1,.08-.15.19.19,0,0,1,.14-.08h.7a.69.69,0,0,0,.52-.22.73.73,0,0,0,.22-.54v-2.77h1.7v2.89a.57.57,0,0,0,.24.47.83.83,0,0,0,.49.17h.5a.83.83,0,0,0,.54-.19.87.87,0,0,0,.29-.51l.54-2.8,1.69.31-.46,2.35a.63.63,0,0,0,.14.59.71.71,0,0,0,.55.25h.42a.78.78,0,0,0,.53-.2.75.75,0,0,0,.22-.53V123H106v3.2a.74.74,0,0,0,.21.53.78.78,0,0,0,.53.2h.65a.23.23,0,0,1,.16.08.18.18,0,0,1,.06.14v1.56a.27.27,0,0,1-.06.17.2.2,0,0,1-.16.06H107a2.58,2.58,0,0,1-1-.21,2.12,2.12,0,0,1-.83-.7,2.31,2.31,0,0,1-.87.7,2.65,2.65,0,0,1-1,.21,2.61,2.61,0,0,1-1-.2,1.79,1.79,0,0,1-.79-.71,2,2,0,0,1-.82.71A2.48,2.48,0,0,1,99.64,129Zm3.71-6.89h-1.78v-1.78h1.78Zm-2.58,0H99v-1.78h1.78Zm1.27-2.35h-1.78v-1.78H102Zm6,12.88h1.77v-1.78h-1.77Zm2.57,0h1.78v-1.78h-1.78Zm2.73-3.85a.21.21,0,0,1-.07.15.2.2,0,0,1-.15.06H112a2.15,2.15,0,0,1-1-.26,1.48,1.48,0,0,1-.66-.65,1.66,1.66,0,0,1-.31.35,3.52,3.52,0,0,1-.45.3,2.85,2.85,0,0,1-.51.2,2.39,2.39,0,0,1-.53.06h-1.18a.19.19,0,0,1-.21-.21v-1.57a.2.2,0,0,1,.06-.15.19.19,0,0,1,.15-.08h1.34a.83.83,0,0,0,.83-.68l.57-2.79,1.68.3-.47,2.33a.66.66,0,0,0,.14.59.7.7,0,0,0,.56.25h1.16a.19.19,0,0,1,.15.08.18.18,0,0,1,.07.15Zm.18,2.07h1.78v1.78h-1.78Zm2.23-3.87a.71.71,0,0,0,.53-.22.76.76,0,0,0,.21-.54V123h1.71v3.2a2.82,2.82,0,0,1-.22,1.08,3,3,0,0,1-.6.89,3.07,3.07,0,0,1-.89.59,2.67,2.67,0,0,1-1.06.21h-2.31a.25.25,0,0,1-.16-.06.24.24,0,0,1-.06-.15v-1.57A.2.2,0,0,1,113,127a.23.23,0,0,1,.16-.08Z"/><path class="cls-2" d="M218.85,75l-2,9.1h-8.59l-2-9.1a6.52,6.52,0,0,1,1.28-5.48,6.44,6.44,0,0,1,10.84,1.23A6.55,6.55,0,0,1,218.85,75Zm-7.76-4.45a3.61,3.61,0,0,0-1.19.9,3.51,3.51,0,0,0-.69,1.36,3.39,3.39,0,0,0,0,1.52L210.7,81h3.69l1.47-6.67a3.4,3.4,0,0,0-4.77-3.78Zm1.45,15.1A25.78,25.78,0,0,1,224,88.28l.86.42v7.74H200.26V88.7l.86-.42A25.77,25.77,0,0,1,212.54,85.61Zm-9.21,5v2.68h18.43V90.66a22.64,22.64,0,0,0-18.43,0Z"/><path class="cls-3" d="M191.05,131.66a3.22,3.22,0,0,1-1.34-.28,3.27,3.27,0,0,1-1.12-.74,3.49,3.49,0,0,1-.74-1.1,3.39,3.39,0,0,1-.27-1.35v-4.08h1.71V128a1.48,1.48,0,0,0,.14.66,1.58,1.58,0,0,0,.37.54,1.42,1.42,0,0,0,.54.36,1.62,1.62,0,0,0,.65.14h2.79a1.38,1.38,0,0,0,1-.4,1.34,1.34,0,0,0,.4-1v-9.92h1.7v7.86a.71.71,0,0,0,.22.53.76.76,0,0,0,.53.2h1a.19.19,0,0,1,.15.08.18.18,0,0,1,.06.14v1.56a.27.27,0,0,1-.06.17.2.2,0,0,1-.15.06h-.69a1.7,1.7,0,0,1-.57-.09,1,1,0,0,1-.46-.39v.28a2.61,2.61,0,0,1-.22,1,3.13,3.13,0,0,1-.62.94,3,3,0,0,1-1,.71,2.86,2.86,0,0,1-1.3.28Zm11.08-4.72a.73.73,0,0,0,.53-.22.76.76,0,0,0,.21-.54V123h1.7v3.2a2.81,2.81,0,0,1-.21,1.08,3,3,0,0,1-.61.89,2.89,2.89,0,0,1-.88.59,2.72,2.72,0,0,1-1.07.21h-3.23a.23.23,0,0,1-.16-.06.24.24,0,0,1-.06-.15v-1.57a.2.2,0,0,1,.06-.15.21.21,0,0,1,.16-.08Zm-3.33,5.65h1.77v-1.78H198.8Zm2.57,0h1.78v-1.78h-1.78Zm8.3-3.85a.19.19,0,0,1-.21.21H209a2.84,2.84,0,0,1-1-.2,2.73,2.73,0,0,1-.87-.59,2.86,2.86,0,0,1-.59-.86,2.72,2.72,0,0,1-.22-1.06v-7.89H208v7.85a.72.72,0,0,0,.21.52.71.71,0,0,0,.53.22h.73a.19.19,0,0,1,.15.08.2.2,0,0,1,.06.15Zm2.69-4.71h2.09v-1.61a.54.54,0,0,0-.17-.42.57.57,0,0,0-.42-.17h-1.19a.59.59,0,0,0-.38.14.52.52,0,0,0-.21.36l-.2,1.1a.47.47,0,0,0,.1.41A.46.46,0,0,0,212.36,124Zm3.8,2.15a2.82,2.82,0,0,1-.22,1.08,3.17,3.17,0,0,1-.6.89,3.07,3.07,0,0,1-.89.59,2.69,2.69,0,0,1-1.07.21h-3.93a.2.2,0,0,1-.15-.06.27.27,0,0,1-.06-.17v-1.56a.18.18,0,0,1,.06-.14.16.16,0,0,1,.15-.08h4.26a.71.71,0,0,0,.53-.22.72.72,0,0,0,.21-.52v-.33a2.77,2.77,0,0,1-.93.17h-.91a2.31,2.31,0,0,1-1.07-.25,2.43,2.43,0,0,1-.83-.65,2.6,2.6,0,0,1-.47-.94,2.54,2.54,0,0,1,0-1.1l.23-1.24a2.16,2.16,0,0,1,.3-.79,2.9,2.9,0,0,1,.54-.62,2.44,2.44,0,0,1,1.53-.55h.84a2.25,2.25,0,0,1,1,.2,2.5,2.5,0,0,1,.81.54,2.7,2.7,0,0,1,.73,1.76Zm-3.7-9.46h1.78v1.78h-1.78Zm11.33,11.91a3.7,3.7,0,0,1-.71,2.2,3.5,3.5,0,0,1-.8.83,3.7,3.7,0,0,1-1.06.56l-2.12.73-.52-1.63,2.18-.73a1.93,1.93,0,0,0,.94-.65,1.61,1.61,0,0,0,.38-1.07v-.1l-.42.14a2.81,2.81,0,0,1-.5,0h-1a2.45,2.45,0,0,1-1.05-.23,2.74,2.74,0,0,1-.82-.65,2.38,2.38,0,0,1-.46-.91,2.23,2.23,0,0,1,0-1.09l.26-1.41a2.4,2.4,0,0,1,.29-.77,2.6,2.6,0,0,1,.55-.63,2.18,2.18,0,0,1,.69-.41,2.4,2.4,0,0,1,.84-.15h.86a2.55,2.55,0,0,1,1,.2,2.46,2.46,0,0,1,.8.56,2.52,2.52,0,0,1,.74,1.79Zm-1.7-1.69v-1.7a.57.57,0,0,0-.17-.42.52.52,0,0,0-.42-.19h-1.25a.53.53,0,0,0-.37.14.62.62,0,0,0-.2.36l-.25,1.24a.48.48,0,0,0,.09.4.51.51,0,0,0,.39.17Zm7.23-3.53v2.89a.58.58,0,0,0,.23.47.89.89,0,0,0,.51.17h1.13a.19.19,0,0,1,.22.22v1.58c0,.14-.07.21-.22.21h-.85a1.92,1.92,0,0,1-.56-.09.79.79,0,0,1-.46-.39v.28a3.26,3.26,0,0,1-.2,1.12,3.58,3.58,0,0,1-1.33,1.76,3.72,3.72,0,0,1-1,.53l-2.13.72-.53-1.59,2.23-.73a1.69,1.69,0,0,0,.93-.69,1.83,1.83,0,0,0,.36-1.1v-5.36Zm2.27,7.4h1.78v1.78h-1.78Zm2.59,0H236v1.78h-1.78Zm-1.32,2.35h1.78v1.78h-1.78Zm1.89-6.22a.71.71,0,0,0,.53-.22.76.76,0,0,0,.21-.54V123h1.71v3.2a2.79,2.79,0,0,1-.82,2,2.94,2.94,0,0,1-.89.59,2.67,2.67,0,0,1-1.06.21h-3.24a.2.2,0,0,1-.15-.06.21.21,0,0,1-.07-.15v-1.57A.18.18,0,0,1,231,127a.19.19,0,0,1,.15-.08Z"/><path class="cls-2" d="M325.54,70.13h-3.07V81H311.72v3.1h10.75V94.9h3.07V84.06h10.74V81H325.54Z"/><path class="cls-3" d="M301.06,130.56a1.23,1.23,0,0,0,.91-.37,1.26,1.26,0,0,0,.4-.91V129h-3v-2h6.07a.15.15,0,0,1,.15.06.21.21,0,0,1,.07.14v1.58a.22.22,0,0,1-.22.23H304s0,0,0,.09a.78.78,0,0,1,0,.22v.25a2.88,2.88,0,0,1-.25,1.21,3.07,3.07,0,0,1-1.7,1.62,3.18,3.18,0,0,1-1.24.23h-2.63a3.39,3.39,0,0,1-1.35-.27,3.51,3.51,0,0,1-1.11-.75,3.57,3.57,0,0,1-.75-1.1,3.48,3.48,0,0,1-.26-1.34V125h1.7v3.84a1.59,1.59,0,0,0,.14.66,2.12,2.12,0,0,0,.37.55,1.67,1.67,0,0,0,.55.35,1.45,1.45,0,0,0,.66.14Zm5.21-3.62v-1.55a2.58,2.58,0,0,1,.19-1,2.5,2.5,0,0,1,.54-.81,2.31,2.31,0,0,1,.79-.52,2.38,2.38,0,0,1,1-.21h.64a2.3,2.3,0,0,1,.82.16,2.27,2.27,0,0,1,.69.4,2.19,2.19,0,0,1,.55.62,2.68,2.68,0,0,1,.3.77L312,126a2.27,2.27,0,0,1,0,1.1,2.45,2.45,0,0,1-.48.92,2.57,2.57,0,0,1-.84.65,2.2,2.2,0,0,1-1.05.25h-.71a2.33,2.33,0,0,1-.48,0l-.45-.13v.14a1.53,1.53,0,0,0,.12.6.7.7,0,0,0,.54.38l1.81.34,1.57-1.92a3.82,3.82,0,0,1,1.19-1,3.09,3.09,0,0,1,1.5-.37h.19a.22.22,0,0,1,.14.06.19.19,0,0,1,.07.16v1.58a.19.19,0,0,1-.21.21h-.45a1.6,1.6,0,0,0-.7.17,1.66,1.66,0,0,0-.57.48l-.2.27-.39.48-.46.6-.45.57-.36.47-.15.21-3.41-.9a1.78,1.78,0,0,1-.62-.3,2.07,2.07,0,0,1-.46-.55,2.4,2.4,0,0,1-.3-.69,3.59,3.59,0,0,1-.09-.81h-.9a.19.19,0,0,1-.22-.21v-1.58a.2.2,0,0,1,.22-.22Zm1.71-1.55v1.55h1.9a.45.45,0,0,0,.37-.17.49.49,0,0,0,.11-.42l-.2-1a.55.55,0,0,0-.2-.35.62.62,0,0,0-.39-.14h-1a.54.54,0,0,0-.4.17A.52.52,0,0,0,308,125.39Zm9.21,3.56h-2.28a.2.2,0,0,1-.15-.06.27.27,0,0,1-.06-.17v-1.58a.2.2,0,0,1,.06-.14.19.19,0,0,1,.14-.08h2.46a1.38,1.38,0,0,0,.76-.21,1.48,1.48,0,0,0,.63-1.27,1.29,1.29,0,0,0-.27-.73l-2.65-3.58v-1.22l5.25-2.65.75,1.51-4.24,2.13,2.28,2.84a2.91,2.91,0,0,1,.56,1.11,3.13,3.13,0,0,1,.07,1.18,3,3,0,0,1-.34,1.1,3.37,3.37,0,0,1-1.73,1.59A3.37,3.37,0,0,1,317.19,129Zm-1.9-11.1,4.87-2.47.53,1.19-4.86,2.49ZM326,129h-1.7v-9.39H326Zm-3.81-9.78v-.82a1.33,1.33,0,0,1,.45-1.09,1.52,1.52,0,0,1,1-.38h3.21v1.47h-3a.3.3,0,0,0-.25.11.31.31,0,0,0-.07.21v.5Zm11,3.81H335V121.2h-1.78Zm2.59,0h1.78V121.2h-1.78Zm-4.6,0v2.69a1.25,1.25,0,0,0,.37.91,1.28,1.28,0,0,0,.92.36h6.34a.76.76,0,0,0,.53-.2.75.75,0,0,0,.22-.53v-2.78h1.7v2.77a.75.75,0,0,0,.74.74h.47c.14,0,.21.07.21.22v1.58a.19.19,0,0,1-.21.21h-.17a2.43,2.43,0,0,1-1-.23,2.74,2.74,0,0,1-.84-.68,2.34,2.34,0,0,1-.88.7,2.54,2.54,0,0,1-1,.21h-5.88a3,3,0,0,1-1.22-.25,2.94,2.94,0,0,1-1.67-1.67,3,3,0,0,1-.25-1.22V123Zm13.37,9.63h1.78v-1.78h-1.78Zm3.94-3.87a.24.24,0,0,1-.06.15.2.2,0,0,1-.15.06h-1.18a2.15,2.15,0,0,1-1-.26,1.48,1.48,0,0,1-.66-.65,1.66,1.66,0,0,1-.31.35,3.52,3.52,0,0,1-.45.3,2.85,2.85,0,0,1-.51.2,2.46,2.46,0,0,1-.53.06H342.5a.19.19,0,0,1-.21-.21v-1.57a.2.2,0,0,1,.06-.15.19.19,0,0,1,.15-.08h1.33a.84.84,0,0,0,.55-.19.82.82,0,0,0,.29-.49l.57-2.79,1.68.3-.47,2.33a.66.66,0,0,0,.14.59.69.69,0,0,0,.56.25h1.16a.19.19,0,0,1,.15.08.2.2,0,0,1,.06.15Zm4.85-7.17h-1.78v-1.78h1.78Zm-2.58,0H349v-1.78h1.79Zm1.26-2.35h-1.78v-1.79h1.78Zm-1.11,7.72a.71.71,0,0,0,.53-.22.76.76,0,0,0,.21-.54V123h1.71v3.2a2.82,2.82,0,0,1-.22,1.08,3,3,0,0,1-.6.89,3.07,3.07,0,0,1-.89.59,2.69,2.69,0,0,1-1.07.21h-2.3a.25.25,0,0,1-.16-.06.24.24,0,0,1-.06-.15v-1.57a.2.2,0,0,1,.06-.15.23.23,0,0,1,.16-.08Z"/><path class="cls-2" d="M444.65,73.21H448v3.1h-3.85L443.35,81l-1.58.68a26,26,0,0,1-2.65,10.84l-.41.87h-1.55v6.19h-3.1V93.34h-1.55l-.44-.92a26,26,0,0,1-2.65-10.83L427.87,81l-.77-4.64h-3.87v-3.1h3.36l-.27-1.55.45-.54a11.56,11.56,0,0,1,17.65,0l.48.54Zm-12.14,0-1-2a9,9,0,0,0-1.91,1.34l1,6.19,5,2,5-2,1-6.19a8.69,8.69,0,0,0-1.91-1.38l-1,2Zm4.65,12.39v3.56a23.64,23.64,0,0,0,1.45-6.3l-3,1.19-3-1.18a23.48,23.48,0,0,0,1.45,6.29V85.6Zm0-7.74a1.55,1.55,0,1,1-1.55-1.55A1.54,1.54,0,0,1,437.16,77.86Z"/><path class="cls-3" d="M401.18,123H403V121.2h-1.78Zm2.59,0h1.78V121.2h-1.78Zm-4.6,0v2.69a1.21,1.21,0,0,0,.37.91,1.26,1.26,0,0,0,.91.36h6.35a.78.78,0,0,0,.53-.2.74.74,0,0,0,.21-.53v-2.78h1.71v2.77a.72.72,0,0,0,.21.52.71.71,0,0,0,.53.22h.46a.19.19,0,0,1,.22.22v1.58c0,.14-.07.21-.22.21h-.17a2.39,2.39,0,0,1-1-.23,2.74,2.74,0,0,1-.84-.68,2.42,2.42,0,0,1-.88.7,2.58,2.58,0,0,1-1,.21h-5.88a3,3,0,0,1-1.23-.25,3.22,3.22,0,0,1-1-.66,3.49,3.49,0,0,1-.67-1,3.13,3.13,0,0,1-.25-1.22V123Zm16.45,4a.18.18,0,0,1,.13.06.17.17,0,0,1,.08.16v1.58a.17.17,0,0,1-.08.15.18.18,0,0,1-.13.06h-.7a2.83,2.83,0,0,1-1-.2,2.39,2.39,0,0,1-.83-.56,2.65,2.65,0,0,1-.87.56,2.83,2.83,0,0,1-1,.2h-.68c-.15,0-.22-.07-.22-.21v-1.58a.19.19,0,0,1,.22-.22h1a.71.71,0,0,0,.53-.22.72.72,0,0,0,.21-.52v-7.85h1.71v7.92a.73.73,0,0,0,.23.48.72.72,0,0,0,.51.19Zm2,2h-2a.17.17,0,0,1-.16-.08.25.25,0,0,1-.06-.17v-1.56a.16.16,0,0,1,.08-.14.18.18,0,0,1,.14-.06h2.13a1.31,1.31,0,0,0,.76-.22,1.24,1.24,0,0,0,.48-.54,1.52,1.52,0,0,0,.15-.73,1.32,1.32,0,0,0-.27-.74l-2.65-3.58v-1.22l5.25-2.65.76,1.51L418,120.9l4.21,5.44a1.73,1.73,0,0,0,.53.44,1.41,1.41,0,0,0,.67.16h.18a.19.19,0,0,1,.22.22v1.58a.24.24,0,0,1-.06.15.23.23,0,0,1-.16.06h-.11a2.57,2.57,0,0,1-1.19-.28,2.61,2.61,0,0,1-.93-.82l-.68-.94a3.13,3.13,0,0,1-.49.8,3.42,3.42,0,0,1-.72.65,3,3,0,0,1-.86.44A3.29,3.29,0,0,1,417.58,129Zm6.71,3.64h1.77v-1.78h-1.77Zm2.57,0h1.78v-1.78h-1.78Zm2.73-3.85a.24.24,0,0,1-.06.15.23.23,0,0,1-.16.06h-1.18a2.15,2.15,0,0,1-1-.26,1.48,1.48,0,0,1-.66-.65,1.42,1.42,0,0,1-.31.35,2.52,2.52,0,0,1-.45.3,2.85,2.85,0,0,1-.51.2,2.39,2.39,0,0,1-.53.06h-1.17c-.15,0-.22-.07-.22-.21v-1.57a.2.2,0,0,1,.06-.15.19.19,0,0,1,.16-.08h1.33a.83.83,0,0,0,.83-.68l.58-2.79,1.67.3-.47,2.33a.66.66,0,0,0,.14.59.7.7,0,0,0,.56.25h1.16a.21.21,0,0,1,.16.08.2.2,0,0,1,.06.15Zm4,.21a2.67,2.67,0,0,1-1.06-.21,2.39,2.39,0,0,1-.83-.7,2.52,2.52,0,0,1-.87.7,2.58,2.58,0,0,1-1,.21h-.4a.19.19,0,0,1-.22-.21v-1.57a.19.19,0,0,1,.08-.15.19.19,0,0,1,.14-.08h.71a.7.7,0,0,0,.53-.23.81.81,0,0,0,.22-.54v-2.76h1.7v2.77a.73.73,0,0,0,.22.54.69.69,0,0,0,.52.22h.45a.86.86,0,0,0,.84-.68l.57-2.8,1.67.31-.46,2.32a.65.65,0,0,0,.14.59.72.72,0,0,0,.55.26h1.15v-4h1.7v4.07a1.93,1.93,0,0,1-.15.75,2,2,0,0,1-.41.6,1.71,1.71,0,0,1-.6.4,1.79,1.79,0,0,1-.73.14h-1a2.11,2.11,0,0,1-.93-.21,2,2,0,0,1-.74-.72,2.22,2.22,0,0,1-.82.72A2.32,2.32,0,0,1,433.57,129Zm5.28,4-.53-1.6,2.23-.72a1.87,1.87,0,0,0,.93-.7,1.83,1.83,0,0,0,.36-1.1v-5.35h1.7v5.18a3.48,3.48,0,0,1-.19,1.16,3.75,3.75,0,0,1-.52,1,3.24,3.24,0,0,1-.81.8,3.48,3.48,0,0,1-1,.56Zm8.81-4a2.45,2.45,0,0,1-1.05-.23,2.58,2.58,0,0,1-.81-.65,2.94,2.94,0,0,1-.48-.91,2.5,2.5,0,0,1,0-1.09l.27-1.41a2.4,2.4,0,0,1,.29-.77,2.8,2.8,0,0,1,.54-.63,2.34,2.34,0,0,1,.7-.41,2.4,2.4,0,0,1,.84-.15h.86a2.54,2.54,0,0,1,1,.2,2.4,2.4,0,0,1,.81.56,2.36,2.36,0,0,1,.54.8,2.54,2.54,0,0,1,.2,1v1.69h1.08a.19.19,0,0,1,.22.22v1.58c0,.14-.07.21-.22.21h-1.09V129a1,1,0,0,1,0,.15,3.27,3.27,0,0,1-.79,1.85,3.94,3.94,0,0,1-1.75,1.19l-2.12.73-.53-1.63,2.19-.73a2,2,0,0,0,.94-.65,1.6,1.6,0,0,0,.37-1.07v-.1a3.41,3.41,0,0,1-.42.14,2.7,2.7,0,0,1-.49,0Zm-.21-2h2.18v-1.7a.57.57,0,0,0-.17-.42.54.54,0,0,0-.42-.19h-1.25a.57.57,0,0,0-.38.14.68.68,0,0,0-.2.36l-.24,1.24a.45.45,0,0,0,.09.4A.51.51,0,0,0,447.45,126.94Zm7.59,0a.71.71,0,0,0,.53-.22.76.76,0,0,0,.21-.54V123h1.71v3.2a2.79,2.79,0,0,1-.82,2,3.07,3.07,0,0,1-.89.59,2.67,2.67,0,0,1-1.06.21h-2.31a.25.25,0,0,1-.16-.06.24.24,0,0,1-.06-.15v-1.57a.2.2,0,0,1,.06-.15.23.23,0,0,1,.16-.08Zm-1.92-5.37h1.78v-1.78h-1.78Zm2.59,0h1.78v-1.78h-1.78Zm5.74,7.38a2.45,2.45,0,0,1-1.05-.23,2.54,2.54,0,0,1-1.29-1.56,2.5,2.5,0,0,1,0-1.09l.26-1.41a2.42,2.42,0,0,1,.3-.77,2.37,2.37,0,0,1,.54-.63,2.37,2.37,0,0,1,1.53-.56h.87a2.54,2.54,0,0,1,1,.2,2.27,2.27,0,0,1,.8.56,2.47,2.47,0,0,1,.75,1.79v1.69h1.08a.19.19,0,0,1,.22.22v1.58c0,.14-.07.21-.22.21h-1.1V129a.86.86,0,0,1,0,.15,3.34,3.34,0,0,1-.79,1.85,4,4,0,0,1-1.75,1.19l-2.12.73-.53-1.63,2.18-.73a2,2,0,0,0,.95-.65,1.6,1.6,0,0,0,.37-1.07v-.1a3.41,3.41,0,0,1-.42.14,2.7,2.7,0,0,1-.49,0Zm-.22-2h2.18v-1.7a.54.54,0,0,0-.17-.42.52.52,0,0,0-.41-.19h-1.26a.55.55,0,0,0-.37.14.68.68,0,0,0-.2.36l-.25,1.24a.48.48,0,0,0,.09.4A.54.54,0,0,0,461.23,126.94Zm8.48,0h2.18v-1.7a.54.54,0,0,0-.17-.42.57.57,0,0,0-.42-.17h-1.25a.5.5,0,0,0-.37.14.56.56,0,0,0-.2.34l-.25,1.24a.48.48,0,0,0,.09.4A.54.54,0,0,0,469.71,126.94Zm-2.2-.68.31-1.6a2.21,2.21,0,0,1,.3-.77,2.32,2.32,0,0,1,.54-.62,2.27,2.27,0,0,1,.69-.4,2.41,2.41,0,0,1,.84-.16h.87a2.47,2.47,0,0,1,1.79.75,2.59,2.59,0,0,1,.75,1.79v1.81a1.94,1.94,0,0,1-.16.75,2,2,0,0,1-.4.6,1.87,1.87,0,0,1-.59.4,1.79,1.79,0,0,1-.73.14h-1.79a2.25,2.25,0,0,1-.89-.18,2.05,2.05,0,0,1-.75-.7,2.14,2.14,0,0,1-.79.7,2.41,2.41,0,0,1-.93.18h-.37c-.15,0-.22-.07-.22-.21v-1.58a.19.19,0,0,1,.22-.22h.49a.77.77,0,0,0,.53-.19A.82.82,0,0,0,467.51,126.26Z"/><path class="cls-4" d="M557.2,69.66l-.77-.15a49.19,49.19,0,0,0-19,0l-.76.15-3.53,8.21h-1.54V81h1.54V96.44h3.07V92.11a47.17,47.17,0,0,0,21.49,0v4.33h3.07V81h1.54V77.87h-1.54Zm.46,15L554,87.16H540l-3.68-2.48V81l4.61,3.1h12.12l4.61-3.1Z"/><path class="cls-4" d="M533.41,128.63a3.75,3.75,0,0,1-.18,1.16,3.52,3.52,0,0,1-.53,1,3.31,3.31,0,0,1-.8.83,3.77,3.77,0,0,1-1,.56l-2.13.73-.52-1.63,2.18-.73a2,2,0,0,0,1-.65,1.66,1.66,0,0,0,.37-1.07v-.1l-.42.14a2.81,2.81,0,0,1-.5,0h-1a2.46,2.46,0,0,1-1.06-.23,2.74,2.74,0,0,1-.82-.65,2.53,2.53,0,0,1-.46-.91,2.5,2.5,0,0,1,0-1.09l.26-1.41a2.21,2.21,0,0,1,.3-.77,2.37,2.37,0,0,1,.54-.63,2.18,2.18,0,0,1,.69-.41,2.4,2.4,0,0,1,.84-.15h.87a2.54,2.54,0,0,1,1,.2,2.57,2.57,0,0,1,1.54,2.35Zm-1.7-1.69v-1.7a.57.57,0,0,0-.17-.42.52.52,0,0,0-.42-.19h-1.25a.53.53,0,0,0-.37.14.62.62,0,0,0-.2.36l-.25,1.24a.48.48,0,0,0,.09.4.51.51,0,0,0,.39.17Zm2.54,6-.53-1.6,2.23-.72a1.87,1.87,0,0,0,.93-.7,1.83,1.83,0,0,0,.36-1.1v-5.35h1.7v5.18a3.89,3.89,0,0,1-.71,2.2,3.24,3.24,0,0,1-.81.8,3.55,3.55,0,0,1-1,.56Zm8.6-4a2.09,2.09,0,0,1-.79-.15,2.35,2.35,0,0,1-.65-.45,2.1,2.1,0,0,1-.45-.65,2.05,2.05,0,0,1-.16-.81v-2h1.46v1.7a.35.35,0,0,0,.11.27.36.36,0,0,0,.24.09h2.56a.91.91,0,0,0,.49-.14.89.89,0,0,0,.36-.36.83.83,0,0,0,.14-.46.92.92,0,0,0-.12-.51l-1.92-3.42,1.44-1,2.05,3.66a2.5,2.5,0,0,1,.36,1.44,2.9,2.9,0,0,1-.39,1.36,2.79,2.79,0,0,1-1,1,2.68,2.68,0,0,1-1.44.39Zm9.09,0a2.41,2.41,0,0,1-1.05-.23,2.54,2.54,0,0,1-1.29-1.56,2.5,2.5,0,0,1,0-1.09l.26-1.41a2.21,2.21,0,0,1,.3-.77,2.37,2.37,0,0,1,.54-.63,2.23,2.23,0,0,1,.7-.41,2.31,2.31,0,0,1,.83-.15h.87a2.54,2.54,0,0,1,1,.2,2.27,2.27,0,0,1,.8.56,2.47,2.47,0,0,1,.75,1.79v1.69h1.08a.2.2,0,0,1,.22.22v1.58a.19.19,0,0,1-.22.21h-1.1V129a.86.86,0,0,1,0,.15,3.34,3.34,0,0,1-.79,1.85,4,4,0,0,1-1.75,1.19l-2.12.73-.53-1.63,2.18-.73a2,2,0,0,0,.95-.65,1.66,1.66,0,0,0,.37-1.07v-.1l-.42.14a2.7,2.7,0,0,1-.49,0Zm-.22-2h2.18v-1.7a.54.54,0,0,0-.17-.42.52.52,0,0,0-.41-.19h-1.26a.55.55,0,0,0-.37.14.68.68,0,0,0-.2.36l-.25,1.24a.48.48,0,0,0,.09.4A.54.54,0,0,0,551.72,126.94Zm7.32-6.08h1.78v-1.78H559Zm-2.57,6.31a.19.19,0,0,1,.08-.15.17.17,0,0,1,.13-.08h2.78a4.33,4.33,0,0,0,1.28-.2,2.63,2.63,0,0,0,1.08-.7l.9-1,.14-.14a.21.21,0,0,1,.08-.06l-3.25-1a.28.28,0,0,0-.28,0,.38.38,0,0,0-.17.2l-.59,1.55-1.49-.41.41-1.42A2.22,2.22,0,0,1,558,123a2.41,2.41,0,0,1,.68-.53,2.31,2.31,0,0,1,1.66-.15l6.16,1.84-.51,1.59-.73-.21a1.08,1.08,0,0,0-.6,0,1.22,1.22,0,0,0-.45.31l-1.78,1.77a4.07,4.07,0,0,1-1.55,1,5.34,5.34,0,0,1-1.81.31h-2.39a.19.19,0,0,1-.21-.21Z"/><rect class="cls-1" x="45.36" y="193.97" width="557.28" height="111.46"/><path class="cls-2" d="M93.41,231.12a3.07,3.07,0,1,1-3.07-3.1A3.08,3.08,0,0,1,93.41,231.12Zm7.68,3.1a3.1,3.1,0,1,0-3.07-3.1A3.08,3.08,0,0,0,101.09,234.22Zm10.75,0a3.1,3.1,0,1,0-3.07-3.1A3.09,3.09,0,0,0,111.84,234.22Z"/><path class="cls-3" d="M87.76,272v2.89a.58.58,0,0,0,.24.47.85.85,0,0,0,.51.17h1.13a.19.19,0,0,1,.21.21v1.58c0,.15-.07.22-.21.22h-.85a1.87,1.87,0,0,1-.56-.09.81.81,0,0,1-.47-.39v.28a3,3,0,0,1-.2,1.11,3.46,3.46,0,0,1-.52,1,3.75,3.75,0,0,1-.81.78,3.51,3.51,0,0,1-1,.52l-2.14.73-.52-1.59,2.23-.73a1.71,1.71,0,0,0,.93-.7,1.87,1.87,0,0,0,.35-1.1V272Zm2.45-1.36H92v-1.78H90.21Zm2.58,0h1.78v-1.78H92.79Zm2.87,6.68a.27.27,0,0,1-.06.16.23.23,0,0,1-.16.06H94.27a2.19,2.19,0,0,1-1-.26,1.53,1.53,0,0,1-.66-.65,1.42,1.42,0,0,1-.31.35,3.2,3.2,0,0,1-.45.3,2.36,2.36,0,0,1-.51.2,2.39,2.39,0,0,1-.53.06H89.64a.19.19,0,0,1-.22-.22v-1.56a.25.25,0,0,1,.06-.16.19.19,0,0,1,.16-.07H91a.83.83,0,0,0,.83-.68l.58-2.79,1.67.29-.47,2.34a.67.67,0,0,0,.14.59.7.7,0,0,0,.56.25h1.16a.2.2,0,0,1,.16.07.25.25,0,0,1,.06.16Zm4,.22a2.43,2.43,0,0,1-1-.22,2.2,2.2,0,0,1-.85-.69,2.19,2.19,0,0,1-.87.69,2.4,2.4,0,0,1-1,.22h-.4a.2.2,0,0,1-.14-.06.24.24,0,0,1-.08-.16v-1.56a.23.23,0,0,1,.08-.16.17.17,0,0,1,.14-.07h.7a.73.73,0,0,0,.52-.22.75.75,0,0,0,.22-.54V272h1.7v2.89a.58.58,0,0,0,.24.47.83.83,0,0,0,.49.17h.5a.83.83,0,0,0,.54-.19.87.87,0,0,0,.29-.51l.54-2.8,1.69.31-.46,2.35a.64.64,0,0,0,.14.59.71.71,0,0,0,.55.25h.42a.78.78,0,0,0,.53-.2.75.75,0,0,0,.22-.53v-3.2H106v3.2a.74.74,0,0,0,.21.53.78.78,0,0,0,.53.2h.65a.21.21,0,0,1,.16.07.22.22,0,0,1,.06.14v1.57a.27.27,0,0,1-.06.17.2.2,0,0,1-.16.06H107a2.43,2.43,0,0,1-1-.22,2,2,0,0,1-.83-.69,2.19,2.19,0,0,1-.87.69,2.49,2.49,0,0,1-1,.22,2.61,2.61,0,0,1-1-.2,1.85,1.85,0,0,1-.79-.71,2.11,2.11,0,0,1-.82.71A2.48,2.48,0,0,1,99.64,277.56Zm3.71-6.89h-1.78v-1.78h1.78Zm-2.58,0H99v-1.78h1.78Zm1.27-2.35h-1.78v-1.78H102Zm6,12.88h1.77v-1.78h-1.77Zm2.57,0h1.78v-1.78h-1.78Zm2.73-3.86a.23.23,0,0,1-.07.16.2.2,0,0,1-.15.06H112a2.15,2.15,0,0,1-1-.26,1.53,1.53,0,0,1-.66-.65,1.66,1.66,0,0,1-.31.35,5,5,0,0,1-.45.3,2.85,2.85,0,0,1-.51.2,2.39,2.39,0,0,1-.53.06h-1.18c-.14,0-.21-.07-.21-.22v-1.56a.25.25,0,0,1,.06-.16.18.18,0,0,1,.15-.07h1.34a.83.83,0,0,0,.83-.68l.57-2.79,1.68.29-.47,2.34a.67.67,0,0,0,.14.59.7.7,0,0,0,.56.25h1.16a.18.18,0,0,1,.15.07.21.21,0,0,1,.07.16Zm.18,2.08h1.78v1.78h-1.78Zm2.23-3.87a.75.75,0,0,0,.53-.22.78.78,0,0,0,.21-.54v-3.21h1.71v3.21a2.82,2.82,0,0,1-.22,1.08,3,3,0,0,1-.6.89,2.85,2.85,0,0,1-.89.58,2.52,2.52,0,0,1-1.06.22h-2.31a.25.25,0,0,1-.16-.06.27.27,0,0,1-.06-.16v-1.56a.25.25,0,0,1,.06-.16.21.21,0,0,1,.16-.07Z"/><path class="cls-2" d="M218.85,223.57l-2,9.1h-8.59l-2-9.1a6.46,6.46,0,0,1,9.1-7.27,6.5,6.5,0,0,1,3.52,7.27Zm-7.76-4.45a3.61,3.61,0,0,0-1.19.9,3.44,3.44,0,0,0-.69,1.36,3.39,3.39,0,0,0,0,1.52l1.53,6.67h3.69l1.47-6.67a3.54,3.54,0,0,0,0-1.52,3.42,3.42,0,0,0-4.76-2.26Zm1.45,15.1A25.78,25.78,0,0,1,224,236.89l.86.41V245H200.26V237.3l.86-.41A25.77,25.77,0,0,1,212.54,234.22Zm-9.21,5.05V242h18.43v-2.68a22.64,22.64,0,0,0-18.43,0Z"/><path class="cls-3" d="M191.05,280.27a3.22,3.22,0,0,1-1.34-.28,3.27,3.27,0,0,1-1.12-.74,3.49,3.49,0,0,1-.74-1.1,3.39,3.39,0,0,1-.27-1.35v-4.09l1.71,0v3.82a1.52,1.52,0,0,0,.14.67,1.58,1.58,0,0,0,.37.54,1.42,1.42,0,0,0,.54.36,1.62,1.62,0,0,0,.65.14h2.79a1.35,1.35,0,0,0,1-.41,1.3,1.3,0,0,0,.4-1V267h1.7v7.86a.71.71,0,0,0,.22.53.76.76,0,0,0,.53.2h1a.18.18,0,0,1,.15.07.22.22,0,0,1,.06.14v1.57a.27.27,0,0,1-.06.17.2.2,0,0,1-.15.06h-.69a1.7,1.7,0,0,1-.57-.09,1,1,0,0,1-.46-.39v.28a2.56,2.56,0,0,1-.22,1,3.29,3.29,0,0,1-1.58,1.66,2.86,2.86,0,0,1-1.3.28Zm11.08-4.72a.77.77,0,0,0,.53-.22.78.78,0,0,0,.21-.54v-3.21h1.7v3.21a2.81,2.81,0,0,1-.21,1.08,3,3,0,0,1-.61.89,2.7,2.7,0,0,1-.88.58,2.56,2.56,0,0,1-1.07.22h-3.23a.23.23,0,0,1-.16-.06.27.27,0,0,1-.06-.16v-1.56a.25.25,0,0,1,.06-.16.2.2,0,0,1,.16-.07Zm-3.33,5.65h1.77v-1.78H198.8Zm2.57,0h1.78v-1.78h-1.78Zm8.3-3.86c0,.15-.07.22-.21.22H209a2.84,2.84,0,0,1-1-.2,2.79,2.79,0,0,1-1.46-1.46,2.67,2.67,0,0,1-.22-1V267H208v7.84a.72.72,0,0,0,.21.53.75.75,0,0,0,.53.22h.73a.18.18,0,0,1,.15.07.25.25,0,0,1,.06.16Zm2.69-4.7h2.09V271a.54.54,0,0,0-.17-.42.57.57,0,0,0-.42-.17h-1.19a.59.59,0,0,0-.38.14.52.52,0,0,0-.21.35l-.2,1.1a.48.48,0,0,0,.1.42A.46.46,0,0,0,212.36,272.64Zm3.8,2.15a2.82,2.82,0,0,1-.22,1.08,3.17,3.17,0,0,1-.6.89,2.85,2.85,0,0,1-.89.58,2.53,2.53,0,0,1-1.07.22h-3.93a.2.2,0,0,1-.15-.06.27.27,0,0,1-.06-.17v-1.57a.22.22,0,0,1,.06-.14.16.16,0,0,1,.15-.07h4.26a.75.75,0,0,0,.53-.22.72.72,0,0,0,.21-.53v-.32a2.77,2.77,0,0,1-.93.17h-.91a2.31,2.31,0,0,1-1.07-.25,2.43,2.43,0,0,1-.83-.65,2.68,2.68,0,0,1-.47-.94,2.54,2.54,0,0,1,0-1.1l.23-1.24a2.16,2.16,0,0,1,.3-.79,2.68,2.68,0,0,1,.54-.62,2.52,2.52,0,0,1,1.53-.56h.84a2.25,2.25,0,0,1,1,.21,2.5,2.5,0,0,1,.81.54,2.17,2.17,0,0,1,.52.8,2.24,2.24,0,0,1,.21,1Zm-3.7-9.46h1.78v1.78h-1.78Zm11.33,11.9a3.82,3.82,0,0,1-.18,1.17,3.72,3.72,0,0,1-.53,1,3.54,3.54,0,0,1-.8.84,3.7,3.7,0,0,1-1.06.56l-2.12.72-.52-1.62,2.18-.73a1.93,1.93,0,0,0,.94-.65,1.61,1.61,0,0,0,.38-1.07v-.11a2.07,2.07,0,0,1-.42.14,2.83,2.83,0,0,1-.5.05h-1a2.45,2.45,0,0,1-1.05-.23,2.74,2.74,0,0,1-.82-.65,2.42,2.42,0,0,1-.46-.92,2.19,2.19,0,0,1,0-1.08l.26-1.41a2.23,2.23,0,0,1,.29-.77,2.86,2.86,0,0,1,.55-.64,2.15,2.15,0,0,1,.69-.4,2.4,2.4,0,0,1,.84-.15h.86a2.38,2.38,0,0,1,1,.2,2.6,2.6,0,0,1,.8.55,2.5,2.5,0,0,1,.54.81,2.37,2.37,0,0,1,.2,1Zm-1.7-1.68v-1.71a.57.57,0,0,0-.17-.41.52.52,0,0,0-.42-.19h-1.25a.53.53,0,0,0-.37.14.59.59,0,0,0-.2.36l-.25,1.23a.46.46,0,0,0,.48.58Zm7.23-3.53v2.89a.6.6,0,0,0,.23.47.89.89,0,0,0,.51.17h1.13c.15,0,.22.07.22.21v1.58a.19.19,0,0,1-.22.22h-.85a1.92,1.92,0,0,1-.56-.09.79.79,0,0,1-.46-.39v.28a3.17,3.17,0,0,1-.2,1.11,3.49,3.49,0,0,1-.53,1,3.7,3.7,0,0,1-.8.78,3.44,3.44,0,0,1-1,.52l-2.13.73-.53-1.59,2.23-.73a1.71,1.71,0,0,0,.93-.7,1.81,1.81,0,0,0,.36-1.1V272Zm2.27,7.4h1.78v1.78h-1.78Zm2.59,0H236v1.78h-1.78Zm-1.32,2.35h1.78v1.78h-1.78Zm1.89-6.22a.75.75,0,0,0,.53-.22.78.78,0,0,0,.21-.54v-3.21h1.71v3.21a2.79,2.79,0,0,1-.82,2,2.74,2.74,0,0,1-.89.58,2.52,2.52,0,0,1-1.06.22h-3.24a.2.2,0,0,1-.15-.06.23.23,0,0,1-.07-.16v-1.56a.21.21,0,0,1,.07-.16.18.18,0,0,1,.15-.07Z"/><path class="cls-2" d="M325.54,218.74h-3.07v10.83H311.72v3.1h10.75V243.5h3.07V232.67h10.74v-3.1H325.54Z"/><path class="cls-3" d="M301.06,279.17a1.23,1.23,0,0,0,.91-.37,1.26,1.26,0,0,0,.4-.91v-.33h-3v-2h6.07a.15.15,0,0,1,.15.06.21.21,0,0,1,.07.14v1.58a.22.22,0,0,1-.22.23H304l0,.09a.73.73,0,0,1,0,.22v.25a2.84,2.84,0,0,1-.25,1.2,2.93,2.93,0,0,1-.68,1,3,3,0,0,1-1,.65,3.37,3.37,0,0,1-1.24.23h-2.63a3.23,3.23,0,0,1-1.35-.28,3.32,3.32,0,0,1-1.11-.74,3.7,3.7,0,0,1-.75-1.1,3.49,3.49,0,0,1-.26-1.35v-4.08h1.7v3.84a1.63,1.63,0,0,0,.14.66,1.91,1.91,0,0,0,.37.54,1.54,1.54,0,0,0,.55.36,1.59,1.59,0,0,0,.66.14Zm5.21-3.62V274a2.63,2.63,0,0,1,.19-1,2.46,2.46,0,0,1,.54-.8,2.49,2.49,0,0,1,.79-.53,2.54,2.54,0,0,1,1-.2h.64a2.1,2.1,0,0,1,.82.16,2.55,2.55,0,0,1,1.24,1,2.57,2.57,0,0,1,.3.77l.24,1.19a2.26,2.26,0,0,1,0,1.1,2.44,2.44,0,0,1-1.32,1.58,2.2,2.2,0,0,1-1.05.25h-.71a2.28,2.28,0,0,1-.48-.05,3.74,3.74,0,0,1-.45-.12v.14a1.57,1.57,0,0,0,.12.6.67.67,0,0,0,.54.37l1.81.34,1.57-1.91a3.82,3.82,0,0,1,1.19-1,3.09,3.09,0,0,1,1.5-.37h.19a.22.22,0,0,1,.14.06.18.18,0,0,1,.07.15v1.58c0,.15-.07.22-.21.22h-.45a1.6,1.6,0,0,0-.7.17,1.47,1.47,0,0,0-.57.48l-.2.26-.39.48-.46.61-.45.57c-.14.19-.26.34-.36.46l-.15.22-3.41-.9a1.65,1.65,0,0,1-.62-.31,1.88,1.88,0,0,1-.46-.54,2.47,2.47,0,0,1-.3-.7,3.44,3.44,0,0,1-.09-.8h-.9a.2.2,0,0,1-.22-.22v-1.58a.19.19,0,0,1,.22-.21ZM308,274v1.55h1.9a.45.45,0,0,0,.37-.17.5.5,0,0,0,.11-.42l-.2-1a.55.55,0,0,0-.2-.35.57.57,0,0,0-.39-.14h-1a.58.58,0,0,0-.57.57Zm9.21,3.56h-2.28a.2.2,0,0,1-.15-.06.27.27,0,0,1-.06-.17v-1.58a.2.2,0,0,1,.06-.14.19.19,0,0,1,.14-.08h2.46a1.38,1.38,0,0,0,.76-.21,1.49,1.49,0,0,0,.48-.56,1.44,1.44,0,0,0,.15-.71,1.29,1.29,0,0,0-.27-.73l-2.65-3.58v-1.22l5.25-2.65.75,1.5-4.24,2.14,2.28,2.83a3,3,0,0,1,.56,1.12,3.09,3.09,0,0,1,.07,1.17,2.88,2.88,0,0,1-.34,1.1,3.63,3.63,0,0,1-.71.95,3.56,3.56,0,0,1-1,.65A3.37,3.37,0,0,1,317.19,277.56Zm-1.9-11.1,4.87-2.48.53,1.2-4.86,2.49ZM326,277.56h-1.7v-9.4H326Zm-3.81-9.78V267a1.33,1.33,0,0,1,.45-1.09,1.47,1.47,0,0,1,1-.38h3.21V267h-3a.32.32,0,0,0-.25.1.36.36,0,0,0-.07.22v.5Zm11,3.8H335V269.8h-1.78Zm2.59,0h1.78V269.8h-1.78Zm-4.6,0v2.7a1.27,1.27,0,0,0,.37.91,1.28,1.28,0,0,0,.92.36h6.34a.76.76,0,0,0,.53-.2.75.75,0,0,0,.22-.53V272h1.7v2.77a.69.69,0,0,0,.22.53.73.73,0,0,0,.52.22h.47a.19.19,0,0,1,.21.21v1.58c0,.15-.07.22-.21.22h-.17a2.43,2.43,0,0,1-1-.23,2.74,2.74,0,0,1-.84-.68,2.22,2.22,0,0,1-.88.69,2.4,2.4,0,0,1-1,.22h-5.88a3,3,0,0,1-1.22-.25,2.94,2.94,0,0,1-1.67-1.67,3,3,0,0,1-.25-1.22v-2.84Zm13.37,9.63h1.78v-1.78h-1.78Zm3.94-3.87a.27.27,0,0,1-.06.16.2.2,0,0,1-.15.06h-1.18a2.15,2.15,0,0,1-1-.26,1.53,1.53,0,0,1-.66-.65,1.66,1.66,0,0,1-.31.35,5,5,0,0,1-.45.3,2.85,2.85,0,0,1-.51.2,2.46,2.46,0,0,1-.53.06H342.5c-.14,0-.21-.07-.21-.22v-1.56a.25.25,0,0,1,.06-.16.18.18,0,0,1,.15-.07h1.33a.84.84,0,0,0,.55-.19.82.82,0,0,0,.29-.49l.57-2.79,1.68.29-.47,2.34a.67.67,0,0,0,.14.59.69.69,0,0,0,.56.25h1.16a.18.18,0,0,1,.15.07.25.25,0,0,1,.06.16Zm4.85-7.16h-1.78V268.4h1.78Zm-2.58,0H349V268.4h1.79Zm1.26-2.36h-1.78V266h1.78Zm-1.11,7.73a.75.75,0,0,0,.53-.22.78.78,0,0,0,.21-.54v-3.21h1.71v3.21a2.82,2.82,0,0,1-.22,1.08,3,3,0,0,1-.6.89,2.85,2.85,0,0,1-.89.58,2.53,2.53,0,0,1-1.07.22h-2.3a.25.25,0,0,1-.16-.06.27.27,0,0,1-.06-.16v-1.56a.25.25,0,0,1,.06-.16.21.21,0,0,1,.16-.07Z"/><path class="cls-4" d="M448,221.82h-3.34l.25-1.55-.48-.54a11.56,11.56,0,0,0-17.65,0l-.45.54.27,1.55h-3.36v3.1h3.87l.77,4.64,1.55.63A26,26,0,0,0,432.07,241l.44.91h1.55v6.2h3.1v-6.2h1.55l.41-.86a26,26,0,0,0,2.65-10.84l1.58-.68.79-4.64H448Zm-12.38-3.1a8.39,8.39,0,0,1,4.1,1.07l-1,2h-6.2l-1-2A8.39,8.39,0,0,1,435.61,218.72Zm1.55,7.74a1.53,1.53,0,0,1-.26.86,1.45,1.45,0,0,1-.7.57,1.51,1.51,0,0,1-.89.09,1.56,1.56,0,0,1-.79-.42,1.53,1.53,0,0,1-.34-1.69,1.6,1.6,0,0,1,.57-.69,1.53,1.53,0,0,1,.86-.26,1.54,1.54,0,0,1,1.55,1.54Zm0,11.3V234.2h-3.1v3.56a23.46,23.46,0,0,1-1.45-6.3l3,1.2,3-1.21A23.53,23.53,0,0,1,437.16,237.76Z"/><path class="cls-4" d="M401.18,271.58H403V269.8h-1.78Zm2.59,0h1.78V269.8h-1.78Zm-4.6,0v2.7a1.23,1.23,0,0,0,.37.91,1.26,1.26,0,0,0,.91.36h6.35a.78.78,0,0,0,.53-.2.74.74,0,0,0,.21-.53V272h1.71v2.77a.72.72,0,0,0,.21.53.75.75,0,0,0,.53.22h.46c.15,0,.22.07.22.21v1.58a.19.19,0,0,1-.22.22h-.17a2.39,2.39,0,0,1-1-.23,2.74,2.74,0,0,1-.84-.68,2.29,2.29,0,0,1-.88.69,2.43,2.43,0,0,1-1,.22h-5.88a3,3,0,0,1-1.23-.25,3.22,3.22,0,0,1-1-.66,3.49,3.49,0,0,1-.67-1,3.13,3.13,0,0,1-.25-1.22v-2.84Zm16.45,4a.18.18,0,0,1,.13.06.17.17,0,0,1,.08.15v1.58a.17.17,0,0,1-.08.16.18.18,0,0,1-.13.06h-.7a2.83,2.83,0,0,1-1-.2,2.53,2.53,0,0,1-.83-.56,2.76,2.76,0,0,1-1.91.76h-.68a.19.19,0,0,1-.22-.22v-1.58c0-.14.07-.21.22-.21h1a.75.75,0,0,0,.53-.22.72.72,0,0,0,.21-.53V267h1.71v7.92a.73.73,0,0,0,.23.48.72.72,0,0,0,.51.19Zm2,2h-2a.19.19,0,0,1-.16-.08.27.27,0,0,1-.06-.17v-1.56a.16.16,0,0,1,.08-.14.18.18,0,0,1,.14-.06h2.13a1.38,1.38,0,0,0,.76-.22,1.24,1.24,0,0,0,.48-.54,1.52,1.52,0,0,0,.15-.73,1.29,1.29,0,0,0-.27-.74l-2.65-3.58v-1.22l5.25-2.65.76,1.5L418,269.51l4.21,5.43a1.63,1.63,0,0,0,.53.45,1.41,1.41,0,0,0,.67.16h.18c.15,0,.22.07.22.21v1.58a.27.27,0,0,1-.06.16.23.23,0,0,1-.16.06h-.11a2.57,2.57,0,0,1-1.19-.28,2.71,2.71,0,0,1-.93-.82l-.68-.94a3.31,3.31,0,0,1-.49.8,3.42,3.42,0,0,1-.72.65,3,3,0,0,1-.86.44A3.29,3.29,0,0,1,417.58,277.56Zm6.71,3.64h1.77v-1.78h-1.77Zm2.57,0h1.78v-1.78h-1.78Zm2.73-3.86a.27.27,0,0,1-.06.16.23.23,0,0,1-.16.06h-1.18a2.15,2.15,0,0,1-1-.26,1.53,1.53,0,0,1-.66-.65,1.42,1.42,0,0,1-.31.35,3.2,3.2,0,0,1-.45.3,2.85,2.85,0,0,1-.51.2,2.39,2.39,0,0,1-.53.06h-1.17a.19.19,0,0,1-.22-.22v-1.56a.25.25,0,0,1,.06-.16.19.19,0,0,1,.16-.07h1.33a.83.83,0,0,0,.83-.68l.58-2.79,1.67.29-.47,2.34a.67.67,0,0,0,.14.59.7.7,0,0,0,.56.25h1.16a.2.2,0,0,1,.16.07.25.25,0,0,1,.06.16Zm4,.22a2.52,2.52,0,0,1-1.06-.22,2.26,2.26,0,0,1-.83-.69,2.38,2.38,0,0,1-.87.69,2.43,2.43,0,0,1-1,.22h-.4a.2.2,0,0,1-.22-.22v-1.56a.23.23,0,0,1,.08-.16.17.17,0,0,1,.14-.07h.71a.7.7,0,0,0,.53-.23.82.82,0,0,0,.22-.55V272h1.7v2.77a.75.75,0,0,0,.22.54.73.73,0,0,0,.52.22h.45a.86.86,0,0,0,.84-.68l.57-2.81,1.67.31-.46,2.33a.62.62,0,0,0,.14.58.7.7,0,0,0,.55.27h1.15V271.6h1.7v4.07a1.85,1.85,0,0,1-.15.74,1.93,1.93,0,0,1-.41.61,1.85,1.85,0,0,1-.6.4,2,2,0,0,1-.73.14h-1a2,2,0,0,1-.93-.22,1.92,1.92,0,0,1-.74-.71,2.1,2.1,0,0,1-.82.71A2.19,2.19,0,0,1,433.57,277.56Zm5.28,3.95-.53-1.6,2.23-.72a1.87,1.87,0,0,0,.93-.7,1.83,1.83,0,0,0,.36-1.1V272h1.7v5.19a3.48,3.48,0,0,1-.19,1.16,3.75,3.75,0,0,1-.52,1,3.24,3.24,0,0,1-.81.8,3.48,3.48,0,0,1-1,.56Zm8.81-3.95a2.45,2.45,0,0,1-1.05-.23,2.58,2.58,0,0,1-.81-.65,3,3,0,0,1-.48-.92,2.45,2.45,0,0,1,0-1.08l.27-1.41a2.23,2.23,0,0,1,.29-.77,3.1,3.1,0,0,1,.54-.64,2.32,2.32,0,0,1,.7-.4,2.4,2.4,0,0,1,.84-.15h.86a2.37,2.37,0,0,1,1,.2,2.53,2.53,0,0,1,.81.55,2.5,2.5,0,0,1,.54.81,2.54,2.54,0,0,1,.2,1v1.69h1.08c.15,0,.22.07.22.21v1.58a.19.19,0,0,1-.22.22h-1.09v.08a1,1,0,0,1,0,.15,3.24,3.24,0,0,1-.79,1.84,3.88,3.88,0,0,1-1.75,1.2l-2.12.72-.53-1.62,2.19-.73a2,2,0,0,0,.94-.65,1.6,1.6,0,0,0,.37-1.07v-.11a1.72,1.72,0,0,1-.42.14,2.72,2.72,0,0,1-.49.05Zm-.21-2h2.18v-1.71a.57.57,0,0,0-.17-.41.54.54,0,0,0-.42-.19h-1.25a.57.57,0,0,0-.38.14.64.64,0,0,0-.2.36L447,275a.47.47,0,0,0,.09.41A.51.51,0,0,0,447.45,275.55Zm7.59,0a.75.75,0,0,0,.53-.22.78.78,0,0,0,.21-.54v-3.21h1.71v3.21a2.79,2.79,0,0,1-.82,2,2.85,2.85,0,0,1-.89.58,2.52,2.52,0,0,1-1.06.22h-2.31a.25.25,0,0,1-.16-.06.27.27,0,0,1-.06-.16v-1.56a.25.25,0,0,1,.06-.16.21.21,0,0,1,.16-.07Zm-1.92-5.37h1.78V268.4h-1.78Zm2.59,0h1.78V268.4h-1.78Zm5.74,7.38a2.45,2.45,0,0,1-1.05-.23,2.58,2.58,0,0,1-.81-.65,2.61,2.61,0,0,1-.48-.92,2.45,2.45,0,0,1,0-1.08l.26-1.41a2.25,2.25,0,0,1,.3-.77,2.59,2.59,0,0,1,.54-.64,2.32,2.32,0,0,1,.7-.4,2.34,2.34,0,0,1,.83-.15h.87a2.47,2.47,0,0,1,1.79.75,2.7,2.7,0,0,1,.55.81,2.54,2.54,0,0,1,.2,1v1.69h1.08c.15,0,.22.07.22.21v1.58a.19.19,0,0,1-.22.22h-1.1v.08a.86.86,0,0,1,0,.15,3.31,3.31,0,0,1-.79,1.84,3.93,3.93,0,0,1-1.75,1.2l-2.12.72-.53-1.62,2.18-.73a2,2,0,0,0,.95-.65,1.6,1.6,0,0,0,.37-1.07v-.11a1.72,1.72,0,0,1-.42.14,2.72,2.72,0,0,1-.49.05Zm-.22-2h2.18v-1.71a.53.53,0,0,0-.17-.41.52.52,0,0,0-.41-.19h-1.26a.55.55,0,0,0-.37.14.64.64,0,0,0-.2.36l-.25,1.23a.51.51,0,0,0,.09.41A.54.54,0,0,0,461.23,275.55Zm8.48,0h2.18v-1.71a.53.53,0,0,0-.17-.41.54.54,0,0,0-.42-.17h-1.25a.5.5,0,0,0-.37.14.56.56,0,0,0-.2.34l-.25,1.23a.51.51,0,0,0,.09.41A.54.54,0,0,0,469.71,275.55Zm-2.2-.68.31-1.6a2.07,2.07,0,0,1,.3-.77,2.18,2.18,0,0,1,.54-.62,2.08,2.08,0,0,1,.69-.4,2.2,2.2,0,0,1,.84-.16h.87a2.54,2.54,0,0,1,1,.2,2.68,2.68,0,0,1,.8.54,2.5,2.5,0,0,1,.54.81,2.38,2.38,0,0,1,.21,1v1.81a1.86,1.86,0,0,1-.16.74,1.9,1.9,0,0,1-.4.61,2,2,0,0,1-.59.4,2,2,0,0,1-.73.14h-1.79a2.09,2.09,0,0,1-.89-.19,1.94,1.94,0,0,1-.75-.69,2,2,0,0,1-.79.69,2.24,2.24,0,0,1-.93.19h-.37a.19.19,0,0,1-.22-.22v-1.58c0-.14.07-.21.22-.21h.49a.77.77,0,0,0,.53-.19A.82.82,0,0,0,467.51,274.87Z"/><path class="cls-3" d="M557.2,218.27l-.77-.15a49.19,49.19,0,0,0-19,0l-.76.15-3.53,8.21h-1.54v3.09h1.54v15.48h3.07v-4.33a47.17,47.17,0,0,0,21.49,0v4.33h3.07V229.57h1.54v-3.09h-1.54Zm.46,15L554,235.76H540l-3.68-2.47v-3.72l4.61,3.1h12.12l4.61-3.1Z"/><path class="cls-3" d="M533.41,277.23a3.82,3.82,0,0,1-.18,1.17,3.47,3.47,0,0,1-.53,1,3.35,3.35,0,0,1-.8.84,3.77,3.77,0,0,1-1,.56l-2.13.72-.52-1.62,2.18-.73a2,2,0,0,0,1-.65,1.66,1.66,0,0,0,.37-1.07v-.11a2.07,2.07,0,0,1-.42.14,2.83,2.83,0,0,1-.5.05h-1a2.46,2.46,0,0,1-1.06-.23,2.74,2.74,0,0,1-.82-.65,2.57,2.57,0,0,1-.46-.92,2.45,2.45,0,0,1,0-1.08l.26-1.41a2.07,2.07,0,0,1,.3-.77,2.59,2.59,0,0,1,.54-.64,2.15,2.15,0,0,1,.69-.4,2.4,2.4,0,0,1,.84-.15h.87a2.37,2.37,0,0,1,1,.2,2.57,2.57,0,0,1,1.34,1.36,2.37,2.37,0,0,1,.2,1Zm-1.7-1.68v-1.71a.57.57,0,0,0-.17-.41.52.52,0,0,0-.42-.19h-1.25a.53.53,0,0,0-.37.14.59.59,0,0,0-.2.36l-.25,1.23a.46.46,0,0,0,.48.58Zm2.54,6-.53-1.6,2.23-.72a1.87,1.87,0,0,0,.93-.7,1.83,1.83,0,0,0,.36-1.1V272h1.7v5.19a3.89,3.89,0,0,1-.71,2.2,3.24,3.24,0,0,1-.81.8,3.55,3.55,0,0,1-1,.56Zm8.6-3.95a2.09,2.09,0,0,1-.79-.15,2.35,2.35,0,0,1-.65-.45,2.23,2.23,0,0,1-.45-.65,2.05,2.05,0,0,1-.16-.81v-2h1.46v1.7a.31.31,0,0,0,.11.26.33.33,0,0,0,.24.1h2.56a.91.91,0,0,0,.49-.14.89.89,0,0,0,.36-.36.86.86,0,0,0,.14-.46.92.92,0,0,0-.12-.51l-1.92-3.42,1.44-1,2.05,3.65a2.54,2.54,0,0,1,.36,1.44,2.94,2.94,0,0,1-.39,1.37,2.79,2.79,0,0,1-1,1,2.68,2.68,0,0,1-1.44.39Zm9.09,0a2.41,2.41,0,0,1-1.05-.23,2.58,2.58,0,0,1-.81-.65,2.61,2.61,0,0,1-.48-.92,2.45,2.45,0,0,1,0-1.08l.26-1.41a2.07,2.07,0,0,1,.3-.77,2.59,2.59,0,0,1,.54-.64,2.2,2.2,0,0,1,.7-.4,2.31,2.31,0,0,1,.83-.15h.87a2.47,2.47,0,0,1,1.79.75,2.7,2.7,0,0,1,.55.81,2.54,2.54,0,0,1,.2,1v1.69h1.08a.19.19,0,0,1,.22.21v1.58a.2.2,0,0,1-.22.22h-1.1v.08a.86.86,0,0,1,0,.15,3.31,3.31,0,0,1-.79,1.84,3.93,3.93,0,0,1-1.75,1.2l-2.12.72-.53-1.62,2.18-.73a2,2,0,0,0,.95-.65,1.66,1.66,0,0,0,.37-1.07v-.11a2.07,2.07,0,0,1-.42.14,2.72,2.72,0,0,1-.49.05Zm-.22-2h2.18v-1.71a.53.53,0,0,0-.17-.41.52.52,0,0,0-.41-.19h-1.26a.55.55,0,0,0-.37.14.64.64,0,0,0-.2.36l-.25,1.23a.51.51,0,0,0,.09.41A.54.54,0,0,0,551.72,275.55Zm7.32-6.09h1.78v-1.78H559Zm-2.57,6.32a.22.22,0,0,1,.08-.16.16.16,0,0,1,.13-.07h2.78a4.33,4.33,0,0,0,1.28-.2,2.63,2.63,0,0,0,1.08-.7l.9-1,.14-.14a.21.21,0,0,1,.08-.06l-3.25-1a.34.34,0,0,0-.28,0,.45.45,0,0,0-.17.21l-.59,1.54-1.49-.4.41-1.42a2.14,2.14,0,0,1,.43-.82,2.24,2.24,0,0,1,.68-.53,2.14,2.14,0,0,1,.82-.23,2,2,0,0,1,.84.08l6.16,1.84L566,274.4l-.73-.21a1,1,0,0,0-.6,0,1.22,1.22,0,0,0-.45.31l-1.78,1.77a4.19,4.19,0,0,1-1.55,1,5.34,5.34,0,0,1-1.81.31h-2.39c-.14,0-.21-.07-.21-.22Z"/><rect class="cls-1" x="45.36" y="342.58" width="557.28" height="111.46"/><path class="cls-2" d="M93.41,379.73a3.07,3.07,0,1,1-3.07-3.1A3.07,3.07,0,0,1,93.41,379.73Zm7.68,3.09A3.1,3.1,0,1,0,98,379.73,3.07,3.07,0,0,0,101.09,382.82Zm10.75,0a3.1,3.1,0,1,0-3.07-3.09A3.08,3.08,0,0,0,111.84,382.82Z"/><path class="cls-3" d="M87.76,420.63v2.89A.58.58,0,0,0,88,424a.85.85,0,0,0,.51.17h1.13a.19.19,0,0,1,.21.21V426c0,.15-.07.22-.21.22h-.85a1.87,1.87,0,0,1-.56-.09.89.89,0,0,1-.47-.39V426a3,3,0,0,1-.2,1.11,3.6,3.6,0,0,1-.52,1,3.86,3.86,0,0,1-1.83,1.3l-2.14.73-.52-1.59,2.23-.73a1.76,1.76,0,0,0,.93-.7,1.89,1.89,0,0,0,.35-1.1v-5.35Zm2.45-1.37H92v-1.78H90.21Zm2.58,0h1.78v-1.78H92.79ZM95.66,426a.29.29,0,0,1-.06.16.23.23,0,0,1-.16.06H94.27a2.09,2.09,0,0,1-1-.27,1.43,1.43,0,0,1-.66-.65,1.29,1.29,0,0,1-.31.36,3.18,3.18,0,0,1-.45.29,2.36,2.36,0,0,1-.51.21,2.39,2.39,0,0,1-.53.06H89.64a.19.19,0,0,1-.22-.22v-1.56a.23.23,0,0,1,.06-.16.19.19,0,0,1,.16-.07H91a.89.89,0,0,0,.54-.19.82.82,0,0,0,.29-.5l.58-2.78,1.67.29-.47,2.34a.67.67,0,0,0,.14.59.73.73,0,0,0,.56.25h1.16a.2.2,0,0,1,.16.07.23.23,0,0,1,.06.16Zm4,.22a2.43,2.43,0,0,1-1-.22,2.15,2.15,0,0,1-.85-.7,2.13,2.13,0,0,1-.87.7,2.4,2.4,0,0,1-1,.22h-.4a.2.2,0,0,1-.14-.06.27.27,0,0,1-.08-.16v-1.56a.21.21,0,0,1,.08-.16.17.17,0,0,1,.14-.07h.7a.73.73,0,0,0,.52-.22.76.76,0,0,0,.22-.54v-2.77h1.7v2.89a.58.58,0,0,0,.24.47.83.83,0,0,0,.49.17h.5a.89.89,0,0,0,.54-.19.91.91,0,0,0,.29-.51l.54-2.8,1.69.31-.46,2.35a.64.64,0,0,0,.14.59.75.75,0,0,0,.55.25h.42a.74.74,0,0,0,.53-.21.73.73,0,0,0,.22-.52v-3.21H106v3.21a.72.72,0,0,0,.21.52.74.74,0,0,0,.53.21h.65a.21.21,0,0,1,.16.07.2.2,0,0,1,.06.14v1.57a.29.29,0,0,1-.06.17.2.2,0,0,1-.16.06H107a2.43,2.43,0,0,1-1-.22,2,2,0,0,1-.83-.7,2.13,2.13,0,0,1-.87.7,2.49,2.49,0,0,1-1,.22,2.61,2.61,0,0,1-1-.2,1.88,1.88,0,0,1-.79-.72,2.14,2.14,0,0,1-.82.72A2.48,2.48,0,0,1,99.64,426.17Zm3.71-6.89h-1.78V417.5h1.78Zm-2.58,0H99V417.5h1.78Zm1.27-2.35h-1.78v-1.78H102Zm6,12.88h1.77V428h-1.77Zm2.57,0h1.78V428h-1.78Zm2.73-3.86a.25.25,0,0,1-.07.16.2.2,0,0,1-.15.06H112a2.05,2.05,0,0,1-1-.27,1.43,1.43,0,0,1-.66-.65,1.49,1.49,0,0,1-.31.36,5,5,0,0,1-.45.29,2.87,2.87,0,0,1-.51.21,2.39,2.39,0,0,1-.53.06h-1.18c-.14,0-.21-.07-.21-.22v-1.56a.23.23,0,0,1,.06-.16.18.18,0,0,1,.15-.07h1.34a.89.89,0,0,0,.54-.19.82.82,0,0,0,.29-.5l.57-2.78,1.68.29-.47,2.34a.67.67,0,0,0,.14.59.73.73,0,0,0,.56.25h1.16a.18.18,0,0,1,.15.07.2.2,0,0,1,.07.16Zm.18,2.08h1.78v1.78h-1.78Zm2.23-3.87a.75.75,0,0,0,.53-.22.8.8,0,0,0,.21-.54v-3.21h1.71v3.21a2.82,2.82,0,0,1-.22,1.08,2.93,2.93,0,0,1-.6.88,2.71,2.71,0,0,1-.89.59,2.52,2.52,0,0,1-1.06.22h-2.31a.25.25,0,0,1-.16-.06.29.29,0,0,1-.06-.16v-1.56a.23.23,0,0,1,.06-.16.21.21,0,0,1,.16-.07Z"/><path class="cls-2" d="M218.85,372.17l-2,9.11h-8.59l-2-9.11a6.37,6.37,0,0,1,0-2.88,6.5,6.5,0,0,1,1.26-2.6,6.43,6.43,0,0,1,7.82-1.78,6.5,6.5,0,0,1,3.52,7.26Zm-7.76-4.44a3.61,3.61,0,0,0-1.19.9,3.4,3.4,0,0,0-.69,1.35,3.44,3.44,0,0,0,0,1.53l1.53,6.67h3.69l1.47-6.67a3.54,3.54,0,0,0,0-1.52,3.42,3.42,0,0,0-4.76-2.26Zm1.45,15.09A25.92,25.92,0,0,1,224,385.49l.86.42v7.74H200.26v-7.74l.86-.42A25.91,25.91,0,0,1,212.54,382.82Zm-9.21,5.06v2.68h18.43v-2.68a22.64,22.64,0,0,0-18.43,0Z"/><path class="cls-3" d="M191.05,428.88a3.61,3.61,0,0,1-2.46-1,3.45,3.45,0,0,1-1-2.45v-4.09l1.71,0v3.82a1.52,1.52,0,0,0,.14.67,1.79,1.79,0,0,0,.37.54,1.7,1.7,0,0,0,.54.36,1.61,1.61,0,0,0,.65.13h2.79a1.34,1.34,0,0,0,1-.4,1.31,1.31,0,0,0,.4-1v-9.93h1.7v7.87a.69.69,0,0,0,.22.52.72.72,0,0,0,.53.21h1a.18.18,0,0,1,.15.07.2.2,0,0,1,.06.14v1.57a.29.29,0,0,1-.06.17.2.2,0,0,1-.15.06h-.69a1.7,1.7,0,0,1-.57-.09,1.17,1.17,0,0,1-.46-.39V426a2.56,2.56,0,0,1-.22,1,3.29,3.29,0,0,1-1.58,1.66,3,3,0,0,1-1.3.28Zm11.08-4.72a.77.77,0,0,0,.53-.22.8.8,0,0,0,.21-.54v-3.21h1.7v3.21a2.81,2.81,0,0,1-.21,1.08,3,3,0,0,1-.61.88,2.79,2.79,0,0,1-1.95.81h-3.23a.23.23,0,0,1-.16-.06.29.29,0,0,1-.06-.16v-1.56a.23.23,0,0,1,.06-.16.2.2,0,0,1,.16-.07Zm-3.33,5.65h1.77V428H198.8Zm2.57,0h1.78V428h-1.78Zm8.3-3.86c0,.15-.07.22-.21.22H209a2.84,2.84,0,0,1-1-.2,2.79,2.79,0,0,1-1.46-1.46,2.67,2.67,0,0,1-.22-1.05v-7.9H208v7.85a.74.74,0,0,0,.21.53.75.75,0,0,0,.53.22h.73a.18.18,0,0,1,.15.07.23.23,0,0,1,.06.16Zm2.69-4.7h2.09v-1.61a.58.58,0,0,0-.59-.59h-1.19a.54.54,0,0,0-.38.14.52.52,0,0,0-.21.35l-.2,1.1a.48.48,0,0,0,.1.42A.49.49,0,0,0,212.36,421.25Zm3.8,2.15a2.82,2.82,0,0,1-.22,1.08,3.12,3.12,0,0,1-.6.88,2.71,2.71,0,0,1-.89.59,2.53,2.53,0,0,1-1.07.22h-3.93a.2.2,0,0,1-.15-.06.29.29,0,0,1-.06-.17v-1.57a.2.2,0,0,1,.06-.14.16.16,0,0,1,.15-.07h4.26a.75.75,0,0,0,.53-.22.74.74,0,0,0,.21-.53v-.32a2.77,2.77,0,0,1-.93.17h-.91a2.31,2.31,0,0,1-1.07-.25,2.55,2.55,0,0,1-.83-.65,2.68,2.68,0,0,1-.47-.94,2.54,2.54,0,0,1,0-1.1l.23-1.24a2.16,2.16,0,0,1,.3-.79,2.49,2.49,0,0,1,.54-.62,2.52,2.52,0,0,1,1.53-.56h.84a2.4,2.4,0,0,1,1,.2,2.7,2.7,0,0,1,.81.55,2.17,2.17,0,0,1,.52.8,2.24,2.24,0,0,1,.21,1Zm-3.7-9.46h1.78v1.78h-1.78Zm11.33,11.9a3.71,3.71,0,0,1-.18,1.16,3.64,3.64,0,0,1-.53,1,3.54,3.54,0,0,1-.8.84,3.67,3.67,0,0,1-1.06.55l-2.12.73-.52-1.62,2.18-.73a2,2,0,0,0,.94-.65,1.63,1.63,0,0,0,.38-1.07V426a3,3,0,0,1-.42.14,2.83,2.83,0,0,1-.5.05h-1a2.45,2.45,0,0,1-1.05-.23,2.91,2.91,0,0,1-.82-.65,2.42,2.42,0,0,1-.46-.92,2.19,2.19,0,0,1,0-1.08l.26-1.41a2.23,2.23,0,0,1,.29-.77,2.86,2.86,0,0,1,.55-.64,2.15,2.15,0,0,1,.69-.4,2.41,2.41,0,0,1,.84-.16h.86a2.39,2.39,0,0,1,1,.21,2.6,2.6,0,0,1,.8.55,2.5,2.5,0,0,1,.54.81,2.37,2.37,0,0,1,.2,1Zm-1.7-1.68v-1.71a.61.61,0,0,0-.17-.42.54.54,0,0,0-.42-.18h-1.25a.53.53,0,0,0-.37.14.59.59,0,0,0-.2.35l-.25,1.24a.46.46,0,0,0,.48.58Zm7.23-3.53v2.89a.6.6,0,0,0,.23.47.89.89,0,0,0,.51.17h1.13c.15,0,.22.07.22.21V426a.19.19,0,0,1-.22.22h-.85a1.92,1.92,0,0,1-.56-.09.87.87,0,0,1-.46-.39V426a3.17,3.17,0,0,1-.2,1.11,3.63,3.63,0,0,1-.53,1,3.74,3.74,0,0,1-1.83,1.3l-2.13.73-.53-1.59,2.23-.73a1.76,1.76,0,0,0,.93-.7,1.83,1.83,0,0,0,.36-1.1v-5.35Zm2.27,7.4h1.78v1.78h-1.78Zm2.59,0H236v1.78h-1.78Zm-1.32,2.35h1.78v1.78h-1.78Zm1.89-6.22a.75.75,0,0,0,.53-.22.8.8,0,0,0,.21-.54v-3.21h1.71v3.21a2.82,2.82,0,0,1-.22,1.08,2.75,2.75,0,0,1-.6.88,2.61,2.61,0,0,1-.89.59,2.52,2.52,0,0,1-1.06.22h-3.24a.2.2,0,0,1-.15-.06A.25.25,0,0,1,231,426v-1.56a.2.2,0,0,1,.07-.16.18.18,0,0,1,.15-.07Z"/><path class="cls-5" d="M325.54,367.34h-3.07v10.84H311.72v3.1h10.75v10.83h3.07V381.28h10.74v-3.1H325.54Z"/><path class="cls-4" d="M301.06,427.78a1.31,1.31,0,0,0,1.31-1.29v-.32h-3v-2h6.07a.13.13,0,0,1,.15.06.21.21,0,0,1,.07.14v1.58a.22.22,0,0,1-.22.23H304l0,.09a.73.73,0,0,1,0,.22v.25a2.84,2.84,0,0,1-.25,1.2,3,3,0,0,1-.68,1,3.18,3.18,0,0,1-1,.65,3.37,3.37,0,0,1-1.24.23h-2.63a3.23,3.23,0,0,1-1.35-.28,3.32,3.32,0,0,1-1.11-.74,3.7,3.7,0,0,1-.75-1.1,3.49,3.49,0,0,1-.26-1.35v-4.08h1.7v3.84a1.66,1.66,0,0,0,.14.66,1.91,1.91,0,0,0,.37.54,1.54,1.54,0,0,0,.55.36,1.59,1.59,0,0,0,.66.14Zm5.21-3.62v-1.55a2.63,2.63,0,0,1,.19-1,2.5,2.5,0,0,1,1.33-1.33,2.54,2.54,0,0,1,1-.2h.64a2.32,2.32,0,0,1,1.51.56,2.06,2.06,0,0,1,.55.62,2.47,2.47,0,0,1,.3.77l.24,1.19a2.27,2.27,0,0,1,0,1.1,2.57,2.57,0,0,1-.48.93,2.71,2.71,0,0,1-.84.65,2.2,2.2,0,0,1-1.05.25h-.71a2.28,2.28,0,0,1-.48-.05L308,426v.14a1.61,1.61,0,0,0,.12.6.67.67,0,0,0,.54.37l1.81.34,1.57-1.92a3.79,3.79,0,0,1,1.19-1,3.09,3.09,0,0,1,1.5-.37h.19a.22.22,0,0,1,.14.06.18.18,0,0,1,.07.15V426c0,.15-.07.22-.21.22h-.45a1.6,1.6,0,0,0-.7.17,1.47,1.47,0,0,0-.57.48l-.2.26-.39.48-.46.6-.45.58-.36.46-.15.22-3.41-.9a1.65,1.65,0,0,1-.62-.31,1.88,1.88,0,0,1-.46-.54,2.6,2.6,0,0,1-.3-.7,3.5,3.5,0,0,1-.09-.8h-.9a.2.2,0,0,1-.22-.22v-1.58a.19.19,0,0,1,.22-.21Zm1.71-1.55v1.55h1.9a.45.45,0,0,0,.37-.17.5.5,0,0,0,.11-.42l-.2-1a.59.59,0,0,0-.2-.36.62.62,0,0,0-.39-.14h-1a.52.52,0,0,0-.4.18A.51.51,0,0,0,308,422.61Zm9.21,3.56h-2.28a.2.2,0,0,1-.15-.06.29.29,0,0,1-.06-.17v-1.58a.2.2,0,0,1,.06-.14.19.19,0,0,1,.14-.08h2.46a1.31,1.31,0,0,0,.76-.22,1.39,1.39,0,0,0,.48-.55,1.46,1.46,0,0,0,.15-.72,1.26,1.26,0,0,0-.27-.72l-2.65-3.58v-1.22l5.25-2.65.75,1.5-4.24,2.14,2.28,2.83a2.88,2.88,0,0,1,.56,1.12,3.09,3.09,0,0,1,.07,1.17,2.93,2.93,0,0,1-.34,1.1,3.63,3.63,0,0,1-.71,1,3.78,3.78,0,0,1-1,.65A3.37,3.37,0,0,1,317.19,426.17Zm-1.9-11.1,4.87-2.48.53,1.19-4.86,2.5ZM326,426.17h-1.7v-9.4H326Zm-3.81-9.79v-.82a1.33,1.33,0,0,1,.45-1.08,1.48,1.48,0,0,1,1-.39h3.21v1.47h-3a.33.33,0,0,0-.25.11.34.34,0,0,0-.07.22v.49Zm11,3.81H335v-1.78h-1.78Zm2.59,0h1.78v-1.78h-1.78Zm-4.6,0v2.7a1.27,1.27,0,0,0,.37.91,1.28,1.28,0,0,0,.92.36h6.34a.73.73,0,0,0,.75-.73v-2.79h1.7v2.77a.71.71,0,0,0,.22.53.73.73,0,0,0,.52.22h.47a.19.19,0,0,1,.21.21V426c0,.15-.07.22-.21.22h-.17a2.43,2.43,0,0,1-1-.23,2.77,2.77,0,0,1-.84-.69,2.16,2.16,0,0,1-.88.7,2.4,2.4,0,0,1-1,.22h-5.88a3,3,0,0,1-1.22-.25,3.49,3.49,0,0,1-1-.67,3.11,3.11,0,0,1-.66-1,3,3,0,0,1-.25-1.22v-2.84Zm13.37,9.63h1.78V428h-1.78Zm3.94-3.87a.29.29,0,0,1-.06.16.2.2,0,0,1-.15.06h-1.18a2.05,2.05,0,0,1-1-.27,1.43,1.43,0,0,1-.66-.65,1.49,1.49,0,0,1-.31.36,5,5,0,0,1-.45.29,2.87,2.87,0,0,1-.51.21,2.46,2.46,0,0,1-.53.06H342.5c-.14,0-.21-.07-.21-.22v-1.56a.23.23,0,0,1,.06-.16.18.18,0,0,1,.15-.07h1.33a.89.89,0,0,0,.55-.19.82.82,0,0,0,.29-.5l.57-2.78,1.68.29-.47,2.34a.67.67,0,0,0,.14.59.72.72,0,0,0,.56.25h1.16a.18.18,0,0,1,.15.07.23.23,0,0,1,.06.16Zm4.85-7.17h-1.78V417h1.78Zm-2.58,0H349V417h1.79Zm1.26-2.35h-1.78v-1.78h1.78Zm-1.11,7.73a.75.75,0,0,0,.53-.22.8.8,0,0,0,.21-.54v-3.21h1.71v3.21a2.82,2.82,0,0,1-.22,1.08,2.93,2.93,0,0,1-.6.88,2.71,2.71,0,0,1-.89.59,2.53,2.53,0,0,1-1.07.22h-2.3a.25.25,0,0,1-.16-.06.29.29,0,0,1-.06-.16v-1.56a.23.23,0,0,1,.06-.16.21.21,0,0,1,.16-.07Z"/><path class="cls-2" d="M444.65,370.43H448v3.09h-3.85l-.79,4.65-1.58.68a25.92,25.92,0,0,1-2.65,10.83l-.41.87h-1.55v6.19h-3.1v-6.19h-1.55l-.44-.91a26,26,0,0,1-2.65-10.84l-1.55-.63-.77-4.65h-3.87v-3.09h3.36l-.27-1.55.45-.54a11.71,11.71,0,0,1,4-3,11.59,11.59,0,0,1,9.73,0,11.71,11.71,0,0,1,4,3l.48.54Zm-12.14,0-1-2a9,9,0,0,0-1.91,1.33l1,6.19,5,2,5-1.95,1-6.19a8.69,8.69,0,0,0-1.91-1.38l-1,2Zm4.65,12.38v3.56a23.46,23.46,0,0,0,1.45-6.3l-3,1.19-3-1.17a23.41,23.41,0,0,0,1.45,6.28v-3.56Zm0-7.74a1.55,1.55,0,1,1-1.55-1.55A1.54,1.54,0,0,1,437.16,375.07Z"/><path class="cls-3" d="M401.18,420.19H403v-1.78h-1.78Zm2.59,0h1.78v-1.78h-1.78Zm-4.6,0v2.7a1.23,1.23,0,0,0,.37.91,1.26,1.26,0,0,0,.91.36h6.35a.74.74,0,0,0,.53-.21.72.72,0,0,0,.21-.52v-2.79h1.71v2.77a.74.74,0,0,0,.21.53.75.75,0,0,0,.53.22h.46c.15,0,.22.07.22.21V426a.19.19,0,0,1-.22.22h-.17a2.39,2.39,0,0,1-1-.23,2.77,2.77,0,0,1-.84-.69,2.22,2.22,0,0,1-.88.7,2.43,2.43,0,0,1-1,.22h-5.88a3,3,0,0,1-1.23-.25,3.44,3.44,0,0,1-1-.67,3.31,3.31,0,0,1-.67-1,3.13,3.13,0,0,1-.25-1.22v-2.84Zm16.45,4a.18.18,0,0,1,.13.06.17.17,0,0,1,.08.15V426a.19.19,0,0,1-.08.16.18.18,0,0,1-.13.06h-.7a2.83,2.83,0,0,1-1-.2,2.53,2.53,0,0,1-.83-.56,2.76,2.76,0,0,1-1.91.76h-.68a.19.19,0,0,1-.22-.22v-1.58c0-.14.07-.21.22-.21h1a.75.75,0,0,0,.53-.22.74.74,0,0,0,.21-.53v-7.85h1.71v7.93a.73.73,0,0,0,.23.48.76.76,0,0,0,.51.19Zm2,2h-2a.19.19,0,0,1-.16-.08.27.27,0,0,1-.06-.17v-1.56a.16.16,0,0,1,.08-.14.18.18,0,0,1,.14-.06h2.13a1.38,1.38,0,0,0,.76-.22,1.37,1.37,0,0,0,.48-.54,1.52,1.52,0,0,0,.15-.73,1.27,1.27,0,0,0-.27-.74l-2.65-3.58v-1.22l5.25-2.65.76,1.5L418,418.12l4.21,5.43a1.63,1.63,0,0,0,.53.45,1.54,1.54,0,0,0,.67.16h.18c.15,0,.22.07.22.21V426a.29.29,0,0,1-.06.16.23.23,0,0,1-.16.06h-.11a2.57,2.57,0,0,1-1.19-.28,2.71,2.71,0,0,1-.93-.82l-.68-.95a3.37,3.37,0,0,1-.49.81,3.72,3.72,0,0,1-.72.65,2.78,2.78,0,0,1-.86.43A3,3,0,0,1,417.58,426.17Zm6.71,3.64h1.77V428h-1.77Zm2.57,0h1.78V428h-1.78Zm2.73-3.86a.29.29,0,0,1-.06.16.23.23,0,0,1-.16.06h-1.18a2.05,2.05,0,0,1-1-.27,1.43,1.43,0,0,1-.66-.65,1.29,1.29,0,0,1-.31.36,3.18,3.18,0,0,1-.45.29,2.87,2.87,0,0,1-.51.21,2.39,2.39,0,0,1-.53.06h-1.17a.19.19,0,0,1-.22-.22v-1.56a.23.23,0,0,1,.06-.16.19.19,0,0,1,.16-.07h1.33a.89.89,0,0,0,.54-.19.82.82,0,0,0,.29-.5l.58-2.78L428,421l-.47,2.34a.67.67,0,0,0,.14.59.73.73,0,0,0,.56.25h1.16a.2.2,0,0,1,.16.07.23.23,0,0,1,.06.16Zm4,.22a2.52,2.52,0,0,1-1.06-.22,2.29,2.29,0,0,1-.83-.7,2.34,2.34,0,0,1-1.91.92h-.4a.2.2,0,0,1-.22-.22v-1.56a.21.21,0,0,1,.08-.16.17.17,0,0,1,.14-.07h.71a.68.68,0,0,0,.53-.24.77.77,0,0,0,.22-.54v-2.75h1.7v2.77a.76.76,0,0,0,.22.54.73.73,0,0,0,.52.22h.45a.85.85,0,0,0,.54-.19.79.79,0,0,0,.3-.5l.57-2.8,1.67.31-.46,2.32a.63.63,0,0,0,.14.59.7.7,0,0,0,.55.27h1.15v-4h1.7v4.07a1.85,1.85,0,0,1-.15.74,1.93,1.93,0,0,1-.41.61,2,2,0,0,1-.6.4,2,2,0,0,1-.73.14h-1a2,2,0,0,1-.93-.22,1.92,1.92,0,0,1-.74-.71,2.1,2.1,0,0,1-.82.71A2.19,2.19,0,0,1,433.57,426.17Zm5.28,3.95-.53-1.6,2.23-.73a1.79,1.79,0,0,0,.93-.69,1.83,1.83,0,0,0,.36-1.1v-5.36h1.7v5.19a3.48,3.48,0,0,1-.19,1.16,3.75,3.75,0,0,1-.52,1,3.42,3.42,0,0,1-.81.8,3.71,3.71,0,0,1-1,.56Zm8.81-3.95a2.45,2.45,0,0,1-1.05-.23,2.73,2.73,0,0,1-.81-.65,3,3,0,0,1-.48-.92,2.45,2.45,0,0,1,0-1.08l.27-1.41a2.23,2.23,0,0,1,.29-.77,3.1,3.1,0,0,1,.54-.64,2.32,2.32,0,0,1,.7-.4,2.41,2.41,0,0,1,.84-.16h.86a2.38,2.38,0,0,1,1,.21,2.53,2.53,0,0,1,.81.55,2.5,2.5,0,0,1,.54.81,2.54,2.54,0,0,1,.2,1v1.69h1.08c.15,0,.22.07.22.21V426a.19.19,0,0,1-.22.22h-1.09v.08a1,1,0,0,1,0,.15,3.24,3.24,0,0,1-.79,1.84,3.78,3.78,0,0,1-1.75,1.19l-2.12.73-.53-1.62,2.19-.73a2,2,0,0,0,.94-.65,1.62,1.62,0,0,0,.37-1.07V426a2.28,2.28,0,0,1-.42.14,2.72,2.72,0,0,1-.49.05Zm-.21-2h2.18v-1.71a.61.61,0,0,0-.17-.42.56.56,0,0,0-.42-.18h-1.25a.57.57,0,0,0-.38.14.65.65,0,0,0-.2.35l-.24,1.24a.47.47,0,0,0,.09.41A.51.51,0,0,0,447.45,424.16Zm7.59,0a.75.75,0,0,0,.53-.22.8.8,0,0,0,.21-.54v-3.21h1.71v3.21a2.82,2.82,0,0,1-.22,1.08,2.75,2.75,0,0,1-.6.88,2.71,2.71,0,0,1-.89.59,2.52,2.52,0,0,1-1.06.22h-2.31a.25.25,0,0,1-.16-.06.29.29,0,0,1-.06-.16v-1.56a.23.23,0,0,1,.06-.16.21.21,0,0,1,.16-.07Zm-1.92-5.38h1.78V417h-1.78Zm2.59,0h1.78V417h-1.78Zm5.74,7.39a2.45,2.45,0,0,1-1.05-.23,2.73,2.73,0,0,1-.81-.65,2.61,2.61,0,0,1-.48-.92,2.45,2.45,0,0,1,0-1.08l.26-1.41a2.25,2.25,0,0,1,.3-.77,2.59,2.59,0,0,1,.54-.64,2.32,2.32,0,0,1,.7-.4,2.35,2.35,0,0,1,.83-.16h.87a2.54,2.54,0,0,1,1.79.76,2.7,2.7,0,0,1,.55.81,2.54,2.54,0,0,1,.2,1v1.69h1.08c.15,0,.22.07.22.21V426a.19.19,0,0,1-.22.22h-1.1v.08a.86.86,0,0,1,0,.15,3.31,3.31,0,0,1-.79,1.84,3.84,3.84,0,0,1-1.75,1.19l-2.12.73-.53-1.62,2.18-.73a2,2,0,0,0,.95-.65,1.62,1.62,0,0,0,.37-1.07V426a2.28,2.28,0,0,1-.42.14,2.72,2.72,0,0,1-.49.05Zm-.22-2h2.18v-1.71a.57.57,0,0,0-.17-.42.54.54,0,0,0-.41-.18h-1.26a.55.55,0,0,0-.37.14.65.65,0,0,0-.2.35l-.25,1.24a.51.51,0,0,0,.09.41A.54.54,0,0,0,461.23,424.16Zm8.48,0h2.18v-1.71a.57.57,0,0,0-.17-.42.57.57,0,0,0-.42-.17h-1.25a.55.55,0,0,0-.37.14.62.62,0,0,0-.2.34l-.25,1.24a.51.51,0,0,0,.09.41A.54.54,0,0,0,469.71,424.16Zm-2.2-.69.31-1.59a2.07,2.07,0,0,1,.3-.77,2.18,2.18,0,0,1,.54-.62,2.29,2.29,0,0,1,.69-.41,2.4,2.4,0,0,1,.84-.15h.87a2.54,2.54,0,0,1,1,.2,2.68,2.68,0,0,1,.8.54,2.5,2.5,0,0,1,.54.81,2.38,2.38,0,0,1,.21,1v1.81a1.86,1.86,0,0,1-.16.74,1.9,1.9,0,0,1-.4.61,2.27,2.27,0,0,1-.59.4,2,2,0,0,1-.73.14h-1.79A2.09,2.09,0,0,1,469,426a1.94,1.94,0,0,1-.75-.69,2,2,0,0,1-.79.69,2.24,2.24,0,0,1-.93.19h-.37A.19.19,0,0,1,466,426v-1.58c0-.14.07-.21.22-.21h.49a.83.83,0,0,0,.82-.69Z"/><path class="cls-3" d="M557.2,366.88l-.77-.16a49.58,49.58,0,0,0-19,0l-.76.16-3.53,8.2h-1.54v3.1h1.54v15.48h3.07v-4.33a47.55,47.55,0,0,0,21.49,0v4.33h3.07V378.18h1.54v-3.1h-1.54Zm.46,15L554,384.37H540l-3.68-2.47v-3.72l4.61,3.1h12.12l4.61-3.1Z"/><path class="cls-3" d="M533.41,425.84a3.71,3.71,0,0,1-.18,1.16,3.41,3.41,0,0,1-.53,1,3.35,3.35,0,0,1-.8.84,3.75,3.75,0,0,1-1,.55l-2.13.73-.52-1.62,2.18-.73a2.08,2.08,0,0,0,1-.65,1.67,1.67,0,0,0,.37-1.07V426a3,3,0,0,1-.42.14,2.83,2.83,0,0,1-.5.05h-1a2.46,2.46,0,0,1-1.06-.23,2.91,2.91,0,0,1-.82-.65,2.57,2.57,0,0,1-.46-.92,2.45,2.45,0,0,1,0-1.08l.26-1.41a2.07,2.07,0,0,1,.3-.77,2.59,2.59,0,0,1,.54-.64,2.15,2.15,0,0,1,.69-.4,2.41,2.41,0,0,1,.84-.16h.87a2.38,2.38,0,0,1,1,.21,2.57,2.57,0,0,1,1.34,1.36,2.37,2.37,0,0,1,.2,1Zm-1.7-1.68v-1.71a.61.61,0,0,0-.17-.42.54.54,0,0,0-.42-.18h-1.25a.53.53,0,0,0-.37.14.59.59,0,0,0-.2.35l-.25,1.24a.46.46,0,0,0,.48.58Zm2.54,6-.53-1.6,2.23-.73a1.79,1.79,0,0,0,.93-.69,1.83,1.83,0,0,0,.36-1.1v-5.36h1.7v5.19a3.89,3.89,0,0,1-.71,2.2,3.42,3.42,0,0,1-.81.8,3.8,3.8,0,0,1-1,.56Zm8.6-3.95a1.92,1.92,0,0,1-.79-.16,2.21,2.21,0,0,1-1.1-1.1,2,2,0,0,1-.16-.8v-2h1.46v1.7a.33.33,0,0,0,.11.26.37.37,0,0,0,.24.1h2.56a.91.91,0,0,0,.49-.14,1,1,0,0,0,.36-.36.86.86,0,0,0,.14-.46.92.92,0,0,0-.12-.51l-1.92-3.43,1.44-.94,2.05,3.65a2.54,2.54,0,0,1,.36,1.44,2.87,2.87,0,0,1-.39,1.36,2.81,2.81,0,0,1-1,1,2.68,2.68,0,0,1-1.44.39Zm9.09,0a2.41,2.41,0,0,1-1.05-.23,2.73,2.73,0,0,1-.81-.65,2.61,2.61,0,0,1-.48-.92,2.45,2.45,0,0,1,0-1.08l.26-1.41a2.07,2.07,0,0,1,.3-.77,2.59,2.59,0,0,1,.54-.64,2.2,2.2,0,0,1,.7-.4,2.31,2.31,0,0,1,.83-.16h.87a2.54,2.54,0,0,1,1.79.76,2.7,2.7,0,0,1,.55.81,2.54,2.54,0,0,1,.2,1v1.69h1.08a.19.19,0,0,1,.22.21V426a.2.2,0,0,1-.22.22h-1.1v.08a.86.86,0,0,1,0,.15,3.31,3.31,0,0,1-.79,1.84,3.84,3.84,0,0,1-1.75,1.19l-2.12.73-.53-1.62,2.18-.73a2.08,2.08,0,0,0,.95-.65,1.67,1.67,0,0,0,.37-1.07V426a3,3,0,0,1-.42.14,2.72,2.72,0,0,1-.49.05Zm-.22-2h2.18v-1.71a.57.57,0,0,0-.17-.42.54.54,0,0,0-.41-.18h-1.26a.55.55,0,0,0-.37.14.65.65,0,0,0-.2.35l-.25,1.24a.51.51,0,0,0,.09.41A.54.54,0,0,0,551.72,424.16Zm7.32-6.09h1.78v-1.78H559Zm-2.57,6.32a.21.21,0,0,1,.08-.16.16.16,0,0,1,.13-.07h2.78a4,4,0,0,0,1.28-.21,2.51,2.51,0,0,0,1.08-.69l.9-1,.14-.14a.21.21,0,0,1,.08-.06l-3.25-1a.34.34,0,0,0-.28,0,.42.42,0,0,0-.17.2l-.59,1.55-1.49-.4.41-1.42a2.18,2.18,0,0,1,.43-.83,2.37,2.37,0,0,1,.68-.52,2,2,0,0,1,.82-.23,2.15,2.15,0,0,1,.84.07l6.16,1.85L566,423l-.73-.22a1.07,1.07,0,0,0-.6,0,1.11,1.11,0,0,0-.45.31l-1.78,1.76a4.09,4.09,0,0,1-1.55,1,5.6,5.6,0,0,1-1.81.31h-2.39c-.14,0-.21-.07-.21-.22Z"/><rect class="cls-1" x="45.36" y="491.18" width="557.28" height="111.46"/><path class="cls-2" d="M93.41,528.34a3.07,3.07,0,1,1-3.07-3.1A3.07,3.07,0,0,1,93.41,528.34Zm7.68,3.09A3.1,3.1,0,1,0,98,528.34,3.07,3.07,0,0,0,101.09,531.43Zm10.75,0a3.1,3.1,0,1,0-3.07-3.09A3.08,3.08,0,0,0,111.84,531.43Z"/><path class="cls-3" d="M87.76,569.23v2.9a.56.56,0,0,0,.24.46.79.79,0,0,0,.51.17h1.13a.19.19,0,0,1,.21.22v1.58a.19.19,0,0,1-.21.22h-.85a1.62,1.62,0,0,1-.56-.1.83.83,0,0,1-.47-.38v.27a3,3,0,0,1-.2,1.12,3.6,3.6,0,0,1-.52,1,3.48,3.48,0,0,1-.81.77,3.54,3.54,0,0,1-1,.53l-2.14.73-.52-1.6,2.23-.72a1.76,1.76,0,0,0,.93-.7,1.89,1.89,0,0,0,.35-1.1v-5.36Zm2.45-1.36H92v-1.78H90.21Zm2.58,0h1.78v-1.78H92.79Zm2.87,6.69a.24.24,0,0,1-.06.15.2.2,0,0,1-.16.07H94.27a2.09,2.09,0,0,1-1-.27,1.43,1.43,0,0,1-.66-.65,1.29,1.29,0,0,1-.31.36,3.18,3.18,0,0,1-.45.29,2.36,2.36,0,0,1-.51.2,1.93,1.93,0,0,1-.53.07H89.64a.2.2,0,0,1-.22-.22V573a.21.21,0,0,1,.06-.16.19.19,0,0,1,.16-.08H91a.88.88,0,0,0,.54-.18.85.85,0,0,0,.29-.5l.58-2.78,1.67.29-.47,2.34a.67.67,0,0,0,.14.59.73.73,0,0,0,.56.24h1.16a.21.21,0,0,1,.16.08.21.21,0,0,1,.06.16Zm4,.22a2.58,2.58,0,0,1-1-.22,2.23,2.23,0,0,1-.85-.7,2.22,2.22,0,0,1-.87.7,2.55,2.55,0,0,1-1,.22h-.4a.17.17,0,0,1-.14-.07.22.22,0,0,1-.08-.15V573a.19.19,0,0,1,.08-.16.19.19,0,0,1,.14-.08h.7a.72.72,0,0,0,.52-.21.76.76,0,0,0,.22-.54v-2.78h1.7v2.9a.56.56,0,0,0,.24.46.77.77,0,0,0,.49.17h.5a.88.88,0,0,0,.54-.18.94.94,0,0,0,.29-.51l.54-2.8,1.69.3-.46,2.36a.65.65,0,0,0,.14.59.74.74,0,0,0,.55.24h.42a.72.72,0,0,0,.75-.72v-3.21H106V572a.72.72,0,0,0,.21.52.73.73,0,0,0,.53.2h.65a.23.23,0,0,1,.16.08.2.2,0,0,1,.06.14v1.56a.25.25,0,0,1-.06.17.18.18,0,0,1-.16.07H107a2.58,2.58,0,0,1-1-.22,2,2,0,0,1-.83-.7,2.22,2.22,0,0,1-.87.7,2.66,2.66,0,0,1-1,.22,2.45,2.45,0,0,1-1-.21,1.79,1.79,0,0,1-.79-.71,2,2,0,0,1-.82.71A2.32,2.32,0,0,1,99.64,574.78Zm3.71-6.89h-1.78v-1.78h1.78Zm-2.58,0H99v-1.78h1.78Zm1.27-2.36h-1.78v-1.78H102Zm6,12.88h1.77v-1.78h-1.77Zm2.57,0h1.78v-1.78h-1.78Zm2.73-3.85a.21.21,0,0,1-.07.15.18.18,0,0,1-.15.07H112a2.05,2.05,0,0,1-1-.27,1.43,1.43,0,0,1-.66-.65,1.49,1.49,0,0,1-.31.36,5,5,0,0,1-.45.29,2.85,2.85,0,0,1-.51.2,1.93,1.93,0,0,1-.53.07h-1.18a.19.19,0,0,1-.21-.22V573a.21.21,0,0,1,.06-.16.19.19,0,0,1,.15-.08h1.34a.88.88,0,0,0,.54-.18.85.85,0,0,0,.29-.5l.57-2.78,1.68.29-.47,2.34a.67.67,0,0,0,.14.59.73.73,0,0,0,.56.24h1.16a.19.19,0,0,1,.15.08.19.19,0,0,1,.07.16Zm.18,2.07h1.78v1.78h-1.78Zm2.23-3.87a.74.74,0,0,0,.53-.21.8.8,0,0,0,.21-.54V568.8h1.71V572a2.82,2.82,0,0,1-.22,1.08,2.93,2.93,0,0,1-.6.88,2.71,2.71,0,0,1-.89.59,2.68,2.68,0,0,1-1.06.22h-2.31a.21.21,0,0,1-.16-.07.24.24,0,0,1-.06-.15V573a.21.21,0,0,1,.06-.16.23.23,0,0,1,.16-.08Z"/><path class="cls-5" d="M208.25,529.88h8.59l2-9.1a6.56,6.56,0,0,0-.5-4.25,6.48,6.48,0,0,0-3-3,6.34,6.34,0,0,0-4.22-.48,6.51,6.51,0,0,0-4.88,7.74Zm4.29,3.1A25.78,25.78,0,0,1,224,535.65l.86.42v7.74H200.26v-7.74l.86-.42A25.77,25.77,0,0,1,212.54,533Z"/><path class="cls-4" d="M191.05,577.49a3.39,3.39,0,0,1-1.34-.28,3.44,3.44,0,0,1-1.12-.75,3.44,3.44,0,0,1-1-2.44v-4.09l1.71,0v3.82a1.52,1.52,0,0,0,.14.67,1.79,1.79,0,0,0,.37.54,1.53,1.53,0,0,0,.54.35,1.46,1.46,0,0,0,.65.14h2.79a1.34,1.34,0,0,0,1-.4,1.32,1.32,0,0,0,.4-1v-9.92h1.7V572a.69.69,0,0,0,.22.52.72.72,0,0,0,.53.2h1a.19.19,0,0,1,.15.08.2.2,0,0,1,.06.14v1.56a.25.25,0,0,1-.06.17.18.18,0,0,1-.15.07h-.69a1.48,1.48,0,0,1-.57-.1,1.06,1.06,0,0,1-.46-.38v.27a2.61,2.61,0,0,1-.22,1,3.13,3.13,0,0,1-.62.94,3.18,3.18,0,0,1-1,.72,3,3,0,0,1-1.3.28Zm11.08-4.73a.76.76,0,0,0,.53-.21.8.8,0,0,0,.21-.54V568.8h1.7V572a2.81,2.81,0,0,1-.21,1.08,3,3,0,0,1-.61.88,2.57,2.57,0,0,1-.88.59,2.73,2.73,0,0,1-1.07.22h-3.23a.2.2,0,0,1-.16-.07.24.24,0,0,1-.06-.15V573a.21.21,0,0,1,.06-.16.21.21,0,0,1,.16-.08Zm-3.33,5.65h1.77v-1.78H198.8Zm2.57,0h1.78v-1.78h-1.78Zm8.3-3.85a.19.19,0,0,1-.21.22H209a2.66,2.66,0,0,1-1-.21,2.73,2.73,0,0,1-1.46-1.45,2.67,2.67,0,0,1-.22-1v-7.9H208V572a.72.72,0,0,0,.74.74h.73a.19.19,0,0,1,.15.08.21.21,0,0,1,.06.16Zm2.69-4.71h2.09v-1.61a.53.53,0,0,0-.17-.41.54.54,0,0,0-.42-.17h-1.19a.58.58,0,0,0-.38.13.56.56,0,0,0-.21.36l-.2,1.1a.5.5,0,0,0,.1.42A.48.48,0,0,0,212.36,569.85Zm3.8,2.16a2.82,2.82,0,0,1-.22,1.08,3.12,3.12,0,0,1-.6.88,2.84,2.84,0,0,1-2,.81h-3.93a.18.18,0,0,1-.15-.07.25.25,0,0,1-.06-.17V573a.2.2,0,0,1,.06-.14.16.16,0,0,1,.15-.08h4.26a.72.72,0,0,0,.74-.74v-.32a2.77,2.77,0,0,1-.93.17h-.91a2.44,2.44,0,0,1-1.07-.25,2.55,2.55,0,0,1-.83-.65,2.64,2.64,0,0,1-.47-1,2.54,2.54,0,0,1,0-1.1l.23-1.23a2.09,2.09,0,0,1,.3-.79,2.49,2.49,0,0,1,.54-.62,2.52,2.52,0,0,1,1.53-.56h.84a2.4,2.4,0,0,1,1,.2,2.87,2.87,0,0,1,.81.54,2.3,2.3,0,0,1,.52.81,2.24,2.24,0,0,1,.21,1Zm-3.7-9.46h1.78v1.78h-1.78Zm11.33,11.9a3.7,3.7,0,0,1-.71,2.2,3.54,3.54,0,0,1-.8.84,3.67,3.67,0,0,1-1.06.55l-2.12.73-.52-1.63,2.18-.72a2,2,0,0,0,.94-.65,1.63,1.63,0,0,0,.38-1.07v-.11a3,3,0,0,1-.42.14,2.83,2.83,0,0,1-.5,0h-1a2.31,2.31,0,0,1-1.05-.24,2.59,2.59,0,0,1-.82-.65,2.31,2.31,0,0,1-.46-.91,2.19,2.19,0,0,1,0-1.08l.26-1.41a2.37,2.37,0,0,1,.29-.78,2.8,2.8,0,0,1,.55-.63,2,2,0,0,1,.69-.4,2.2,2.2,0,0,1,.84-.16h.86a2.55,2.55,0,0,1,1,.2,2.63,2.63,0,0,1,.8.56,2.5,2.5,0,0,1,.54.81,2.34,2.34,0,0,1,.2,1Zm-1.7-1.69v-1.7a.61.61,0,0,0-.17-.42.54.54,0,0,0-.42-.18h-1.25a.49.49,0,0,0-.37.14.59.59,0,0,0-.2.35l-.25,1.24a.48.48,0,0,0,.09.4.48.48,0,0,0,.39.17Zm7.23-3.53v2.9a.58.58,0,0,0,.23.46.82.82,0,0,0,.51.17h1.13a.2.2,0,0,1,.22.22v1.58a.2.2,0,0,1-.22.22h-.85a1.66,1.66,0,0,1-.56-.1.81.81,0,0,1-.46-.38v.27a3.18,3.18,0,0,1-.2,1.12,3.63,3.63,0,0,1-.53,1,3.91,3.91,0,0,1-1.83,1.3l-2.13.73-.53-1.6,2.23-.72a1.76,1.76,0,0,0,.93-.7,1.83,1.83,0,0,0,.36-1.1v-5.36Zm2.27,7.4h1.78v1.78h-1.78Zm2.59,0H236v1.78h-1.78ZM232.86,579h1.78v1.78h-1.78Zm1.89-6.23a.74.74,0,0,0,.53-.21.8.8,0,0,0,.21-.54V568.8h1.71V572a2.82,2.82,0,0,1-.22,1.08,2.75,2.75,0,0,1-.6.88,2.61,2.61,0,0,1-.89.59,2.68,2.68,0,0,1-1.06.22h-3.24a.18.18,0,0,1-.15-.07.21.21,0,0,1-.07-.15V573a.19.19,0,0,1,.07-.16.19.19,0,0,1,.15-.08Z"/><path class="cls-2" d="M325.54,516h-3.07v10.84H311.72v3.09h10.75v10.84h3.07V529.88h10.74v-3.09H325.54Z"/><path class="cls-3" d="M301.06,576.39a1.33,1.33,0,0,0,1.31-1.29v-.32h-3v-2h6.07a.14.14,0,0,1,.15.07.19.19,0,0,1,.07.13v1.58a.23.23,0,0,1-.22.24H304l0,.09a.69.69,0,0,1,0,.22v.24a2.85,2.85,0,0,1-.25,1.21,3,3,0,0,1-.68,1,3.24,3.24,0,0,1-2.26.88h-2.63a3.23,3.23,0,0,1-1.35-.28,3.48,3.48,0,0,1-1.11-.74,3.7,3.7,0,0,1-.75-1.1,3.53,3.53,0,0,1-.26-1.35v-4.09h1.7v3.84a1.67,1.67,0,0,0,.14.67,2.07,2.07,0,0,0,.37.54,1.69,1.69,0,0,0,.55.36,1.59,1.59,0,0,0,.66.14Zm5.21-3.63v-1.54a2.59,2.59,0,0,1,.19-1,2.51,2.51,0,0,1,2.32-1.53h.64a2.32,2.32,0,0,1,1.51.56,2.15,2.15,0,0,1,.55.61,2.63,2.63,0,0,1,.3.78l.24,1.19a2.27,2.27,0,0,1,0,1.1,2.57,2.57,0,0,1-.48.93,2.71,2.71,0,0,1-.84.65,2.32,2.32,0,0,1-1.05.25h-.71a2.28,2.28,0,0,1-.48,0l-.45-.12v.14a1.61,1.61,0,0,0,.12.6.67.67,0,0,0,.54.37l1.81.34,1.57-1.92a3.79,3.79,0,0,1,1.19-1,3.1,3.1,0,0,1,1.5-.38h.19a.19.19,0,0,1,.14.07.18.18,0,0,1,.07.15v1.58a.19.19,0,0,1-.21.22h-.45a1.6,1.6,0,0,0-1.27.65s-.1.12-.2.26l-.39.48-.46.6-.45.58-.36.46-.15.22-3.41-.9a1.81,1.81,0,0,1-.62-.31,2,2,0,0,1-.46-.54,2.6,2.6,0,0,1-.3-.7,3.57,3.57,0,0,1-.09-.8h-.9a.2.2,0,0,1-.22-.22V573a.2.2,0,0,1,.22-.22Zm1.71-1.54v1.54h1.9a.43.43,0,0,0,.37-.17.48.48,0,0,0,.11-.41l-.2-1a.57.57,0,0,0-.2-.36.62.62,0,0,0-.39-.14h-1a.58.58,0,0,0-.57.58Zm9.21,3.56h-2.28a.18.18,0,0,1-.15-.07.25.25,0,0,1-.06-.17V573a.18.18,0,0,1,.06-.13.16.16,0,0,1,.14-.08h2.46a1.31,1.31,0,0,0,.76-.22,1.35,1.35,0,0,0,.48-.56,1.4,1.4,0,0,0,.15-.71,1.29,1.29,0,0,0-.27-.73L315.83,567v-1.22l5.25-2.65.75,1.5-4.24,2.14,2.28,2.83a2.91,2.91,0,0,1,.56,1.11,3.15,3.15,0,0,1,.07,1.18,2.93,2.93,0,0,1-.34,1.1,3.43,3.43,0,0,1-.71.94,3.36,3.36,0,0,1-1,.65A3.19,3.19,0,0,1,317.19,574.78Zm-1.9-11.1,4.87-2.48.53,1.19-4.86,2.49ZM326,574.78h-1.7v-9.4H326ZM322.22,565v-.82a1.33,1.33,0,0,1,.45-1.08,1.48,1.48,0,0,1,1-.39h3.21v1.47h-3a.33.33,0,0,0-.25.11.34.34,0,0,0-.07.22V565Zm11,3.81H335V567h-1.78Zm2.59,0h1.78V567h-1.78Zm-4.6,0v2.69a1.29,1.29,0,0,0,.37.92,1.32,1.32,0,0,0,.92.35h6.34a.72.72,0,0,0,.53-.2.73.73,0,0,0,.22-.52v-2.79h1.7V572a.71.71,0,0,0,.22.53.72.72,0,0,0,.52.21h.47a.19.19,0,0,1,.21.22v1.58a.19.19,0,0,1-.21.22h-.17a2.3,2.3,0,0,1-1-.24,2.6,2.6,0,0,1-.84-.68,2.24,2.24,0,0,1-.88.7,2.55,2.55,0,0,1-1,.22h-5.88a3.13,3.13,0,0,1-1.22-.25,3.49,3.49,0,0,1-1-.67,3.22,3.22,0,0,1-.66-1,3,3,0,0,1-.25-1.23V568.8Zm13.37,9.63h1.78v-1.78h-1.78Zm3.94-3.87a.24.24,0,0,1-.06.15.18.18,0,0,1-.15.07h-1.18a2.05,2.05,0,0,1-1-.27,1.43,1.43,0,0,1-.66-.65,1.49,1.49,0,0,1-.31.36,5,5,0,0,1-.45.29,2.85,2.85,0,0,1-.51.2,2,2,0,0,1-.53.07H342.5a.19.19,0,0,1-.21-.22V573a.21.21,0,0,1,.06-.16.19.19,0,0,1,.15-.08h1.33a.89.89,0,0,0,.55-.18.85.85,0,0,0,.29-.5l.57-2.78,1.68.29-.47,2.34a.67.67,0,0,0,.14.59.71.71,0,0,0,.56.24h1.16a.19.19,0,0,1,.15.08.21.21,0,0,1,.06.16Zm4.85-7.17h-1.78v-1.78h1.78Zm-2.58,0H349v-1.78h1.79Zm1.26-2.35h-1.78v-1.78h1.78Zm-1.11,7.72a.74.74,0,0,0,.53-.21.8.8,0,0,0,.21-.54V568.8h1.71V572a2.82,2.82,0,0,1-.22,1.08,2.93,2.93,0,0,1-.6.88,2.84,2.84,0,0,1-2,.81h-2.3a.21.21,0,0,1-.16-.07.24.24,0,0,1-.06-.15V573a.21.21,0,0,1,.06-.16.23.23,0,0,1,.16-.08Z"/><path class="cls-2" d="M444.65,519H448v3.09h-3.85l-.79,4.65-1.58.68a25.92,25.92,0,0,1-2.65,10.83l-.41.87h-1.55v6.19h-3.1v-6.19h-1.55l-.44-.91a26,26,0,0,1-2.65-10.84l-1.55-.63-.77-4.65h-3.87V519h3.36l-.27-1.55.45-.54a11.56,11.56,0,0,1,17.65,0l.48.54Zm-12.14,0-1-2a8.61,8.61,0,0,0-1.91,1.33l1,6.19,5,2,5-1.95,1-6.19a8.38,8.38,0,0,0-1.91-1.38l-1,2Zm4.65,12.38V535a23.46,23.46,0,0,0,1.45-6.3l-3,1.19-3-1.17a23.41,23.41,0,0,0,1.45,6.28v-3.56Zm0-7.74a1.55,1.55,0,1,1-1.55-1.55A1.55,1.55,0,0,1,437.16,523.68Z"/><path class="cls-3" d="M401.18,568.8H403V567h-1.78Zm2.59,0h1.78V567h-1.78Zm-4.6,0v2.69a1.25,1.25,0,0,0,.37.92,1.29,1.29,0,0,0,.91.35h6.35a.73.73,0,0,0,.53-.2.72.72,0,0,0,.21-.52v-2.79h1.71V572a.72.72,0,0,0,.74.74h.46a.2.2,0,0,1,.22.22v1.58a.2.2,0,0,1-.22.22h-.17a2.26,2.26,0,0,1-1-.24,2.6,2.6,0,0,1-.84-.68,2.32,2.32,0,0,1-.88.7,2.58,2.58,0,0,1-1,.22h-5.88a3.18,3.18,0,0,1-1.23-.25,3.1,3.1,0,0,1-1.67-1.67,3.18,3.18,0,0,1-.25-1.23V568.8Zm16.45,4a.16.16,0,0,1,.13.07.17.17,0,0,1,.08.15v1.58a.17.17,0,0,1-.08.15.16.16,0,0,1-.13.07h-.7a2.65,2.65,0,0,1-1-.21,2.51,2.51,0,0,1-.83-.55,2.8,2.8,0,0,1-.87.55,2.65,2.65,0,0,1-1,.21h-.68a.2.2,0,0,1-.22-.22V573a.2.2,0,0,1,.22-.22h1a.72.72,0,0,0,.74-.74v-7.85h1.71v7.93a.78.78,0,0,0,.23.48.76.76,0,0,0,.51.18Zm2,2h-2a.19.19,0,0,1-.16-.08.27.27,0,0,1-.06-.17V573a.15.15,0,0,1,.08-.13.16.16,0,0,1,.14-.07h2.13A1.33,1.33,0,0,0,419,572a1.52,1.52,0,0,0,.15-.73,1.32,1.32,0,0,0-.27-.75L416.22,567v-1.22l5.25-2.65.76,1.5L418,566.73l4.21,5.43a1.63,1.63,0,0,0,.53.45,1.53,1.53,0,0,0,.67.15h.18a.2.2,0,0,1,.22.22v1.58a.24.24,0,0,1-.06.15.2.2,0,0,1-.16.07h-.11a2.53,2.53,0,0,1-2.12-1.1l-.68-.95a3.37,3.37,0,0,1-.49.81,3.72,3.72,0,0,1-.72.65,3,3,0,0,1-.86.43A3.29,3.29,0,0,1,417.58,574.78Zm6.71,3.63h1.77v-1.78h-1.77Zm2.57,0h1.78v-1.78h-1.78Zm2.73-3.85a.24.24,0,0,1-.06.15.2.2,0,0,1-.16.07h-1.18a2.05,2.05,0,0,1-1-.27,1.43,1.43,0,0,1-.66-.65,1.29,1.29,0,0,1-.31.36,3.18,3.18,0,0,1-.45.29,2.85,2.85,0,0,1-.51.2,1.93,1.93,0,0,1-.53.07h-1.17a.2.2,0,0,1-.22-.22V573a.21.21,0,0,1,.06-.16.19.19,0,0,1,.16-.08h1.33a.88.88,0,0,0,.54-.18.85.85,0,0,0,.29-.5l.58-2.78,1.67.29-.47,2.34a.67.67,0,0,0,.14.59.73.73,0,0,0,.56.24h1.16a.21.21,0,0,1,.16.08.21.21,0,0,1,.06.16Zm4,.22a2.68,2.68,0,0,1-1.06-.22,2.39,2.39,0,0,1-.83-.7,2.52,2.52,0,0,1-.87.7,2.58,2.58,0,0,1-1,.22h-.4a.2.2,0,0,1-.22-.22V573a.19.19,0,0,1,.08-.16.19.19,0,0,1,.14-.08h.71a.67.67,0,0,0,.53-.23.77.77,0,0,0,.22-.54v-2.76h1.7V572a.76.76,0,0,0,.22.54.72.72,0,0,0,.52.21h.45a.84.84,0,0,0,.54-.18.81.81,0,0,0,.3-.5l.57-2.8,1.67.31-.46,2.32a.63.63,0,0,0,.14.59.69.69,0,0,0,.55.26h1.15v-3.94h1.7v4.07a1.88,1.88,0,0,1-.15.74,1.78,1.78,0,0,1-.41.6,1.88,1.88,0,0,1-.6.41,2,2,0,0,1-.73.14h-1a2.12,2.12,0,0,1-.93-.22,1.92,1.92,0,0,1-.74-.71,2.1,2.1,0,0,1-.82.71A2.33,2.33,0,0,1,433.57,574.78Zm5.28,3.94-.53-1.59,2.23-.73a1.81,1.81,0,0,0,.93-.7,1.78,1.78,0,0,0,.36-1.09v-5.36h1.7v5.19a3.53,3.53,0,0,1-.19,1.16,3.7,3.7,0,0,1-.52,1,3.46,3.46,0,0,1-.81.81,3.71,3.71,0,0,1-1,.56Zm8.81-3.94a2.31,2.31,0,0,1-1.05-.24,2.45,2.45,0,0,1-.81-.65,2.83,2.83,0,0,1-.48-.91,2.45,2.45,0,0,1,0-1.08l.27-1.41a2.37,2.37,0,0,1,.29-.78,3,3,0,0,1,.54-.63,2.12,2.12,0,0,1,.7-.4,2.2,2.2,0,0,1,.84-.16h.86a2.48,2.48,0,0,1,1.8.76,2.57,2.57,0,0,1,.74,1.8v1.68h1.08a.2.2,0,0,1,.22.22v1.58a.2.2,0,0,1-.22.22h-1.09v.07a1,1,0,0,1,0,.16,3.27,3.27,0,0,1-.79,1.84,3.86,3.86,0,0,1-1.75,1.19l-2.12.73-.53-1.63,2.19-.72a2,2,0,0,0,.94-.65,1.62,1.62,0,0,0,.37-1.07v-.11a2.28,2.28,0,0,1-.42.14,2.72,2.72,0,0,1-.49,0Zm-.21-2h2.18v-1.7a.61.61,0,0,0-.17-.42.56.56,0,0,0-.42-.18h-1.25a.53.53,0,0,0-.38.14.65.65,0,0,0-.2.35l-.24,1.24a.45.45,0,0,0,.09.4A.48.48,0,0,0,447.45,572.76Zm7.59,0a.74.74,0,0,0,.53-.21.8.8,0,0,0,.21-.54V568.8h1.71V572a2.82,2.82,0,0,1-.22,1.08,2.75,2.75,0,0,1-.6.88,2.71,2.71,0,0,1-.89.59,2.68,2.68,0,0,1-1.06.22h-2.31a.21.21,0,0,1-.16-.07.24.24,0,0,1-.06-.15V573a.21.21,0,0,1,.06-.16.23.23,0,0,1,.16-.08Zm-1.92-5.37h1.78v-1.78h-1.78Zm2.59,0h1.78v-1.78h-1.78Zm5.74,7.39a2.31,2.31,0,0,1-1.05-.24,2.45,2.45,0,0,1-.81-.65,2.49,2.49,0,0,1-.48-.91,2.45,2.45,0,0,1,0-1.08l.26-1.41a2.39,2.39,0,0,1,.3-.78,2.54,2.54,0,0,1,.54-.63,2.12,2.12,0,0,1,.7-.4,2.15,2.15,0,0,1,.83-.16h.87a2.54,2.54,0,0,1,1,.2,2.41,2.41,0,0,1,.8.56,2.7,2.7,0,0,1,.55.81,2.5,2.5,0,0,1,.2,1v1.68h1.08a.2.2,0,0,1,.22.22v1.58a.2.2,0,0,1-.22.22h-1.1v.07a.92.92,0,0,1,0,.16,3.34,3.34,0,0,1-.79,1.84,3.91,3.91,0,0,1-1.75,1.19l-2.12.73-.53-1.63,2.18-.72a2,2,0,0,0,.95-.65,1.62,1.62,0,0,0,.37-1.07v-.11a2.28,2.28,0,0,1-.42.14,2.72,2.72,0,0,1-.49,0Zm-.22-2h2.18v-1.7a.57.57,0,0,0-.17-.42.54.54,0,0,0-.41-.18h-1.26a.5.5,0,0,0-.37.14.65.65,0,0,0-.2.35l-.25,1.24a.48.48,0,0,0,.09.4A.5.5,0,0,0,461.23,572.76Zm8.48,0h2.18v-1.7a.57.57,0,0,0-.17-.42.57.57,0,0,0-.42-.17h-1.25a.55.55,0,0,0-.37.14.59.59,0,0,0-.2.34l-.25,1.24a.48.48,0,0,0,.09.4A.5.5,0,0,0,469.71,572.76Zm-2.2-.68.31-1.59a2.18,2.18,0,0,1,.3-.78,2.47,2.47,0,0,1,1.23-1,2.4,2.4,0,0,1,.84-.15h.87a2.52,2.52,0,0,1,1.79.74,2.5,2.5,0,0,1,.54.81,2.34,2.34,0,0,1,.21,1v1.81a1.89,1.89,0,0,1-.16.74,1.75,1.75,0,0,1-.4.6,2.08,2.08,0,0,1-.59.41,2,2,0,0,1-.73.14h-1.79a2.26,2.26,0,0,1-.89-.19,2,2,0,0,1-.75-.7,2.06,2.06,0,0,1-.79.7,2.41,2.41,0,0,1-.93.19h-.37a.2.2,0,0,1-.22-.22V573a.2.2,0,0,1,.22-.22h.49a.81.81,0,0,0,.53-.18A.85.85,0,0,0,467.51,572.08Z"/><path class="cls-3" d="M557.2,515.49l-.77-.16a49.19,49.19,0,0,0-19,0l-.76.16-3.53,8.2h-1.54v3.1h1.54v15.48h3.07v-4.34a47.17,47.17,0,0,0,21.49,0v4.34h3.07V526.79h1.54v-3.1h-1.54Zm.46,15L554,533H540l-3.68-2.48v-3.71l4.61,3.09h12.12l4.61-3.09Z"/><path class="cls-3" d="M533.41,574.45a3.75,3.75,0,0,1-.18,1.16,3.52,3.52,0,0,1-.53,1,3.35,3.35,0,0,1-.8.84,3.75,3.75,0,0,1-1,.55l-2.13.73-.52-1.63,2.18-.72a2.08,2.08,0,0,0,1-.65,1.67,1.67,0,0,0,.37-1.07v-.11a3,3,0,0,1-.42.14,2.83,2.83,0,0,1-.5,0h-1a2.33,2.33,0,0,1-1.06-.24,2.59,2.59,0,0,1-.82-.65,2.4,2.4,0,0,1-.49-2l.26-1.41a2.18,2.18,0,0,1,.3-.78,2.54,2.54,0,0,1,.54-.63,2,2,0,0,1,.69-.4,2.2,2.2,0,0,1,.84-.16h.87a2.54,2.54,0,0,1,1,.2,2.64,2.64,0,0,1,1.34,1.37,2.34,2.34,0,0,1,.2,1Zm-1.7-1.69v-1.7a.61.61,0,0,0-.17-.42.54.54,0,0,0-.42-.18h-1.25a.49.49,0,0,0-.37.14.59.59,0,0,0-.2.35l-.25,1.24a.48.48,0,0,0,.09.4.48.48,0,0,0,.39.17Zm2.54,6-.53-1.59,2.23-.73a1.81,1.81,0,0,0,.93-.7,1.78,1.78,0,0,0,.36-1.09v-5.36h1.7v5.19a3.53,3.53,0,0,1-.19,1.16,3.63,3.63,0,0,1-1.33,1.84,3.8,3.8,0,0,1-1,.56Zm8.6-3.94a2.1,2.1,0,0,1-.79-.16,2.06,2.06,0,0,1-1.26-1.9v-2h1.46v1.71a.33.33,0,0,0,.11.26.36.36,0,0,0,.24.09h2.56a.83.83,0,0,0,.49-.14.93.93,0,0,0,.36-.35.89.89,0,0,0,.14-.47,1,1,0,0,0-.12-.51l-1.92-3.42,1.44-.94,2.05,3.65A2.54,2.54,0,0,1,548,572a2.87,2.87,0,0,1-.39,1.36,2.81,2.81,0,0,1-1,1,2.68,2.68,0,0,1-1.44.39Zm9.09,0a2.28,2.28,0,0,1-1.05-.24,2.45,2.45,0,0,1-.81-.65,2.49,2.49,0,0,1-.48-.91,2.45,2.45,0,0,1,0-1.08l.26-1.41a2.18,2.18,0,0,1,.3-.78,2.54,2.54,0,0,1,.54-.63,2,2,0,0,1,.7-.4,2.12,2.12,0,0,1,.83-.16h.87a2.54,2.54,0,0,1,1,.2,2.41,2.41,0,0,1,.8.56,2.7,2.7,0,0,1,.55.81,2.5,2.5,0,0,1,.2,1v1.68h1.08a.2.2,0,0,1,.22.22v1.58a.2.2,0,0,1-.22.22h-1.1v.07a.92.92,0,0,1,0,.16,3.34,3.34,0,0,1-.79,1.84A3.91,3.91,0,0,1,553,578l-2.12.73-.53-1.63,2.18-.72a2.08,2.08,0,0,0,.95-.65,1.67,1.67,0,0,0,.37-1.07v-.11a3,3,0,0,1-.42.14,2.72,2.72,0,0,1-.49,0Zm-.22-2h2.18v-1.7a.57.57,0,0,0-.17-.42.54.54,0,0,0-.41-.18h-1.26a.5.5,0,0,0-.37.14.65.65,0,0,0-.2.35l-.25,1.24a.48.48,0,0,0,.09.4A.5.5,0,0,0,551.72,572.76Zm7.32-6.08h1.78V564.9H559ZM556.47,573a.19.19,0,0,1,.08-.16.17.17,0,0,1,.13-.08h2.78a4,4,0,0,0,1.28-.2,2.51,2.51,0,0,0,1.08-.69l.9-1,.14-.14s.07-.07.08-.07l-3.25-1a.34.34,0,0,0-.28,0,.42.42,0,0,0-.17.2l-.59,1.55-1.49-.4.41-1.43a2.22,2.22,0,0,1,.43-.82,2.37,2.37,0,0,1,.68-.52,2,2,0,0,1,.82-.24,2.15,2.15,0,0,1,.84.08L566.5,570l-.51,1.6-.73-.22a1,1,0,0,0-.6,0,1.11,1.11,0,0,0-.45.31l-1.78,1.76a4.09,4.09,0,0,1-1.55,1,5.6,5.6,0,0,1-1.81.31h-2.39a.19.19,0,0,1-.21-.22Z"/></g></svg>