<svg id="Background" xmlns="http://www.w3.org/2000/svg" viewBox="0 0 648 648"><defs><style>.cls-1{fill:#81dc6a;}.cls-2{fill:#a3a3a3;}.cls-3{fill:#14316b;}.cls-4{fill:#ee6162;}.cls-5{fill:#fdc554;}</style></defs><path class="cls-1" d="M324,90.72v94.53A138.75,138.75,0,1,1,270.21,452l-36.63,87.13A232.61,232.61,0,0,0,324,557.28c128.84,0,233.28-104.44,233.28-233.28S452.84,90.72,324,90.72Z"/><path d="M270.21,452l-36.63,87.13a234,234,0,0,1-122.5-119.66l86.25-38.67A139.76,139.76,0,0,0,270.21,452Z"/><path class="cls-2" d="M197.33,380.78l-86.25,38.67A234.35,234.35,0,0,1,95.56,276.52l92.55,19.24a139.92,139.92,0,0,0,9.22,85Z"/><path class="cls-3" d="M203.41,255.25a137.16,137.16,0,0,0-15.3,40.51L95.56,276.52a231.61,231.61,0,0,1,25.75-68.09Z"/><path class="cls-4" d="M217.71,234.79a138.67,138.67,0,0,0-14.3,20.46l-82.1-46.82a235.19,235.19,0,0,1,24-34.41Z"/><path class="cls-5" d="M188.13,134.35A235.39,235.39,0,0,0,145.32,174l72.39,60.77q3.87-4.59,8.18-8.9a140.08,140.08,0,0,1,17.28-14.7A137.65,137.65,0,0,1,324,185.25V90.72A232.23,232.23,0,0,0,188.13,134.35Z"/></svg>