<svg id="Background" xmlns="http://www.w3.org/2000/svg" viewBox="0 0 648 648"><defs><style>.cls-1{fill:#a3a3a3;}.cls-2{fill:#81dc6a;}</style></defs><polygon class="cls-1" points="602.64 133.12 587.29 206.56 566.78 103.34 509.19 67.98 498.14 100.51 480.78 67.98 398.72 45.36 348.24 208.86 324 193.84 285.11 86.36 266.18 195.84 201.47 133.12 160.46 137.27 139.94 103.34 119.43 182.53 86.28 198.55 45.36 103.34 45.36 602.64 602.64 602.64 602.64 133.12"/><polygon points="602.64 232.89 587.29 339.84 566.78 271.36 509.19 271.36 498.14 292.94 480.78 254.68 398.72 256.35 348.24 240.39 317.45 311.5 285.11 260.09 266.18 293.87 201.47 331.73 160.46 293.87 139.94 288.14 119.43 323.89 79.19 327.84 45.36 271.36 45.36 602.64 602.64 602.64 602.64 232.89"/><polygon class="cls-2" points="602.64 345.44 587.29 419.84 566.78 372.2 509.19 372.2 498.14 387.21 480.78 372.2 442.12 382.96 398.72 361.76 348.24 350.66 324 413.97 285.11 364.36 266.18 387.86 201.47 416.8 160.46 387.86 139.94 372.2 119.43 408.75 86.28 416.14 45.36 372.2 45.36 602.64 602.64 602.64 602.64 345.44"/></svg>