<svg xmlns="http://www.w3.org/2000/svg" viewBox="0 0 648 648"><defs><style>.cls-1{fill:none;stroke:#000;stroke-miterlimit:10;}.cls-2,.cls-3{opacity:0.7;}.cls-3{fill:#81dc6a;}</style></defs><g id="Layer_1" data-name="Layer 1"><polygon class="cls-1" points="70.7 267.53 324.54 83.6 577.3 267.53 481.57 564.4 167.5 564.4 70.7 267.53"/><polygon class="cls-1" points="137.56 289.97 324.4 154.59 510.44 289.97 439.98 508.46 208.81 508.46 137.56 289.97"/><polygon class="cls-1" points="197.06 309.15 324.27 216.98 450.94 309.15 402.96 457.91 245.57 457.91 197.06 309.15"/><polygon class="cls-1" points="254.15 327.64 324.15 276.92 393.85 327.64 367.45 409.51 280.84 409.51 254.15 327.64"/><line class="cls-1" x1="324.54" y1="83.6" x2="324" y2="350.47"/><line class="cls-1" x1="577.3" y1="267.53" x2="324" y2="350.47"/><line class="cls-1" x1="481.58" y1="564.4" x2="324" y2="350.47"/><line class="cls-1" x1="167.5" y1="564.4" x2="324" y2="350.47"/><line class="cls-1" x1="70.7" y1="267.53" x2="324" y2="350.47"/><polygon class="cls-2" points="324.4 154.59 197.06 309.15 245.57 457.91 510.44 289.97 324.4 154.59"/><polygon class="cls-3" points="324.4 154.59 208.81 508.46 439.98 508.46 577.3 267.53 324.4 154.59"/></g></svg>