<svg xmlns="http://www.w3.org/2000/svg" viewBox="0 0 648 648"><defs><style>.cls-1{fill:#a3a3a3;}.cls-2{fill:#81dc6a;}</style></defs><g id="Layer_1" data-name="Layer 1"><rect x="393.66" y="436.49" width="69.66" height="54.67"/><rect class="cls-1" x="393.66" y="491.16" width="69.66" height="111.48"/><rect class="cls-2" x="393.66" y="192.09" width="69.66" height="244.4"/><rect x="532.98" y="397.94" width="69.66" height="163.17"/><rect class="cls-1" x="532.98" y="561.1" width="69.66" height="41.54"/><rect class="cls-2" x="532.98" y="294.98" width="69.66" height="102.96"/><rect x="254.34" y="404.01" width="69.66" height="59.81"/><rect class="cls-1" x="254.34" y="463.83" width="69.66" height="138.81"/><rect class="cls-2" x="254.34" y="45.36" width="69.66" height="358.65"/><rect x="115.02" y="357.4" width="69.66" height="183.93"/><rect class="cls-1" x="115.02" y="541.33" width="69.66" height="61.31"/><polygon class="cls-1" points="602.64 603.14 44.86 603.14 44.86 45.36 45.86 45.36 45.86 602.14 602.64 602.14 602.64 603.14"/><rect class="cls-2" x="115.02" y="192.09" width="69.66" height="165.31"/></g></svg>