<svg xmlns="http://www.w3.org/2000/svg" viewBox="0 0 648 648"><defs><style>.cls-1{fill:#14316b;}.cls-2{fill:#81dc6a;}.cls-3{fill:#a3a3a3;}</style></defs><g id="Layer_1" data-name="Layer 1"><rect class="cls-1" x="431.93" y="191.49" width="2" height="322.01"/><rect x="415.51" y="389.06" width="34.83" height="27.34"/><rect class="cls-2" x="415.51" y="266.86" width="34.83" height="122.2"/><rect class="cls-1" x="584.73" y="233.1" width="2" height="322.01"/><rect x="567.81" y="412.99" width="34.83" height="81.58"/><rect class="cls-2" x="567.81" y="361.51" width="34.83" height="51.48"/><rect class="cls-1" x="279.52" y="45.36" width="2.22" height="397.58"/><rect x="263.22" y="335.41" width="34.83" height="36.93"/><rect class="cls-2" x="263.22" y="114" width="34.83" height="221.42"/><polygon class="cls-3" points="602.64 603.14 44.86 603.14 44.86 45.36 45.86 45.36 45.86 602.14 602.64 602.14 602.64 603.14"/><rect class="cls-1" x="127.34" y="196.49" width="2" height="322.01"/><rect x="110.93" y="362.06" width="34.83" height="91.96"/><rect class="cls-2" x="110.93" y="279.4" width="34.83" height="82.66"/></g></svg>