<svg xmlns="http://www.w3.org/2000/svg" viewBox="0 0 648 648"><defs><style>.cls-1{fill:#14316b;}.cls-2{fill:#81dc6a;}.cls-3{fill:#fdc554;}.cls-4{fill:#a3a3a3;}</style></defs><g id="Layer_1" data-name="Layer 1"><polygon class="cls-1" points="45.7 604.1 45.02 601.18 188.97 567.16 336.99 212.5 603.45 381.9 601.84 384.43 338.39 216.94 191.15 569.73 45.7 604.1"/><polygon class="cls-2" points="46.79 603.1 43.93 602.18 189.04 155.53 337.45 184.41 601.94 44.03 603.34 46.69 337.92 187.56 191.07 158.98 46.79 603.1"/><polygon class="cls-3" points="46.56 603.54 44.16 601.74 189.3 407.18 337.39 407.18 602.07 297.56 603.21 300.33 337.99 410.18 190.81 410.18 46.56 603.54"/><polygon points="46.72 603.27 44 602.01 189.39 289.88 337.32 376.26 601.47 44.43 603.81 46.29 338.05 380.16 190.72 294.13 46.72 603.27"/><polygon class="cls-4" points="602.64 603.14 44.86 603.14 44.86 45.36 45.86 45.36 45.86 602.14 602.64 602.14 602.64 603.14"/></g></svg>