<svg xmlns="http://www.w3.org/2000/svg" viewBox="0 0 1152 648"><defs><style>.cls-1{fill:#79e45e;}</style></defs><g id="Layer_6" data-name="Layer 6"><rect y="-0.29" width="1152" height="648.29"/><path class="cls-1" d="M261.18,295a17.91,17.91,0,0,1,6.86-6.85,19.46,19.46,0,0,1,9.75-2.46,19.18,19.18,0,0,1,11.07,3.24,16.94,16.94,0,0,1,6.64,9h-8.69a9,9,0,0,0-3.65-4.05,10.66,10.66,0,0,0-5.42-1.35,11.21,11.21,0,0,0-5.86,1.54,10.53,10.53,0,0,0-4,4.35,15.83,15.83,0,0,0,0,13.15,10.4,10.4,0,0,0,4,4.37,11.12,11.12,0,0,0,5.86,1.54,10.48,10.48,0,0,0,5.42-1.38,9.14,9.14,0,0,0,3.65-4.07h8.69a16.84,16.84,0,0,1-6.61,9,20.68,20.68,0,0,1-20.85.75,17.93,17.93,0,0,1-6.86-6.83,19.59,19.59,0,0,1-2.51-9.93A19.82,19.82,0,0,1,261.18,295Z"/><path class="cls-1" d="M324.88,295a10.25,10.25,0,0,1,4.13,4.38,15,15,0,0,1,1.48,6.94v17.55h-7.56V307.33a7.76,7.76,0,0,0-1.78-5.48,6.31,6.31,0,0,0-4.86-1.91,6.46,6.46,0,0,0-4.94,1.91,7.68,7.68,0,0,0-1.81,5.48v16.53H302v-40h7.56v13.77a9.74,9.74,0,0,1,3.89-3.05,12.85,12.85,0,0,1,5.4-1.11A12.16,12.16,0,0,1,324.88,295Z"/><path class="cls-1" d="M337.54,300.75a13.28,13.28,0,0,1,4.91-5.4,13.1,13.1,0,0,1,6.94-1.89,12.19,12.19,0,0,1,5.86,1.35,11.85,11.85,0,0,1,4,3.4v-4.27h7.61v29.92h-7.61v-4.38a11.32,11.32,0,0,1-4,3.49,12.39,12.39,0,0,1-5.91,1.37,12.69,12.69,0,0,1-6.89-1.94,13.64,13.64,0,0,1-4.91-5.48,17.57,17.57,0,0,1-1.81-8.13A17.25,17.25,0,0,1,337.54,300.75Zm20.66,3.42a7.72,7.72,0,0,0-2.92-3,7.83,7.83,0,0,0-3.94-1,7.69,7.69,0,0,0-3.89,1,7.81,7.81,0,0,0-2.89,3,9.35,9.35,0,0,0-1.11,4.67,9.7,9.7,0,0,0,1.11,4.73,8,8,0,0,0,2.92,3.1,7.38,7.38,0,0,0,3.86,1.08,7.83,7.83,0,0,0,3.94-1.05,7.68,7.68,0,0,0,2.92-3,10.88,10.88,0,0,0,0-9.45Z"/><path class="cls-1" d="M385.87,294.83a12.16,12.16,0,0,1,5.86-1.37,13.1,13.1,0,0,1,6.94,1.89,13.25,13.25,0,0,1,4.91,5.37,17.21,17.21,0,0,1,1.81,8.07,17.57,17.57,0,0,1-1.81,8.13,13.56,13.56,0,0,1-4.91,5.48,12.79,12.79,0,0,1-6.94,1.94,12.1,12.1,0,0,1-5.81-1.35,12.4,12.4,0,0,1-4.07-3.4v18.52h-7.56V293.94h7.56v4.32A11.45,11.45,0,0,1,385.87,294.83Zm10.69,9.29a7.78,7.78,0,0,0-2.91-3,7.88,7.88,0,0,0-3.92-1,7.57,7.57,0,0,0-3.86,1A7.81,7.81,0,0,0,383,304.2a10.59,10.59,0,0,0,0,9.4,7.81,7.81,0,0,0,2.92,3,7.64,7.64,0,0,0,7.78,0,8,8,0,0,0,2.91-3.08,9.61,9.61,0,0,0,1.11-4.75A9.35,9.35,0,0,0,396.56,304.12Z"/><path class="cls-1" d="M419.7,300.15v14.47a2.85,2.85,0,0,0,.73,2.19,3.58,3.58,0,0,0,2.46.68h3.51v6.37h-4.76q-9.56,0-9.55-9.29V300.15h-3.57v-6.21h3.57v-7.4h7.61v7.4h6.7v6.21Z"/><path class="cls-1" d="M459.44,311.17H437.57a7.42,7.42,0,0,0,2.27,5.07,7,7,0,0,0,4.92,1.84,6.18,6.18,0,0,0,6-3.62h8.15a13.62,13.62,0,0,1-5,7.1,14.48,14.48,0,0,1-9,2.78,15.67,15.67,0,0,1-7.75-1.91,13.51,13.51,0,0,1-5.35-5.43,16.6,16.6,0,0,1-1.91-8.1,16.91,16.91,0,0,1,1.89-8.15,13.17,13.17,0,0,1,5.29-5.4,17,17,0,0,1,15.47-.06,13,13,0,0,1,5.24,5.21,15.78,15.78,0,0,1,1.86,7.75A17.27,17.27,0,0,1,459.44,311.17Zm-7.61-5.08a6,6,0,0,0-2.11-4.67,7.46,7.46,0,0,0-5-1.75,6.81,6.81,0,0,0-4.72,1.7,7.47,7.47,0,0,0-2.35,4.72Z"/><path class="cls-1" d="M476.53,294.86a10.61,10.61,0,0,1,5.38-1.35v7.94h-2a7.66,7.66,0,0,0-5.37,1.67q-1.82,1.68-1.81,5.83v14.91h-7.56V293.94h7.56v4.64A10.66,10.66,0,0,1,476.53,294.86Z"/><path class="cls-1" d="M525.48,286.17v6.1h-10v31.59h-7.56V292.27h-10v-6.1Z"/><path class="cls-1" d="M531.5,289.11a4.44,4.44,0,0,1,0-6.32,5,5,0,0,1,6.65,0,4.44,4.44,0,0,1,0,6.32,5,5,0,0,1-6.65,0Zm7,4.83v29.92H531V293.94Z"/><path class="cls-1" d="M554.81,300.15v14.47a2.89,2.89,0,0,0,.72,2.19,3.6,3.6,0,0,0,2.46.68h3.51v6.37h-4.75q-9.56,0-9.56-9.29V300.15h-3.56v-6.21h3.56v-7.4h7.62v7.4h6.69v6.21Z"/><path class="cls-1" d="M574.52,283.9v40H567v-40Z"/><path class="cls-1" d="M609.56,311.17H587.69a7.42,7.42,0,0,0,2.27,5.07,7,7,0,0,0,4.91,1.84,6.19,6.19,0,0,0,6-3.62H609a13.58,13.58,0,0,1-5,7.1,14.45,14.45,0,0,1-9,2.78,15.65,15.65,0,0,1-7.75-1.91,13.51,13.51,0,0,1-5.35-5.43,16.61,16.61,0,0,1-1.92-8.1,16.91,16.91,0,0,1,1.89-8.15,13.19,13.19,0,0,1,5.3-5.4,17,17,0,0,1,15.47-.06,12.92,12.92,0,0,1,5.23,5.21,15.68,15.68,0,0,1,1.87,7.75A18.38,18.38,0,0,1,609.56,311.17ZM602,306.09a6,6,0,0,0-2.11-4.67,7.46,7.46,0,0,0-5-1.75,6.85,6.85,0,0,0-4.73,1.7,7.46,7.46,0,0,0-2.34,4.72Z"/><path class="cls-1" d="M645.74,294.78a10.86,10.86,0,0,1,4,3.43v-4.27h7.61v30.13a16.16,16.16,0,0,1-1.67,7.43,12.41,12.41,0,0,1-5,5.18,16,16,0,0,1-8.1,1.92,17.33,17.33,0,0,1-10.45-3,11,11,0,0,1-4.61-8.1H635a5.59,5.59,0,0,0,2.57,3.27,8.93,8.93,0,0,0,4.78,1.21,7.39,7.39,0,0,0,5.34-2q2.05-2,2.06-6v-4.64a11.66,11.66,0,0,1-4,3.51,12.06,12.06,0,0,1-5.86,1.4,12.81,12.81,0,0,1-6.91-1.94,13.56,13.56,0,0,1-4.94-5.48,17.57,17.57,0,0,1-1.81-8.13,17.25,17.25,0,0,1,1.81-8,13.23,13.23,0,0,1,4.92-5.4,13,13,0,0,1,6.93-1.89A12.57,12.57,0,0,1,645.74,294.78Zm2.92,9.39a7.65,7.65,0,0,0-2.92-3,7.8,7.8,0,0,0-3.94-1,7.69,7.69,0,0,0-3.89,1,7.81,7.81,0,0,0-2.89,3,9.35,9.35,0,0,0-1.11,4.67,9.7,9.7,0,0,0,1.11,4.73,8,8,0,0,0,2.92,3.1,7.38,7.38,0,0,0,3.86,1.08,7.8,7.8,0,0,0,3.94-1.05,7.61,7.61,0,0,0,2.92-3,10.88,10.88,0,0,0,0-9.45Z"/><path class="cls-1" d="M670.26,322.43a13.77,13.77,0,0,1-5.43-5.43,16.2,16.2,0,0,1-2-8.1,15.91,15.91,0,0,1,2-8.1,14.11,14.11,0,0,1,5.54-5.43,17,17,0,0,1,15.66,0,14.08,14.08,0,0,1,5.53,5.43,15.92,15.92,0,0,1,2,8.1,15.65,15.65,0,0,1-2.08,8.1,14.44,14.44,0,0,1-5.62,5.43,16.41,16.41,0,0,1-7.91,1.91A15.81,15.81,0,0,1,670.26,322.43Zm11.63-5.67a7.28,7.28,0,0,0,2.89-3,10.09,10.09,0,0,0,1.08-4.86,9,9,0,0,0-2.24-6.56,7.36,7.36,0,0,0-5.48-2.3,7.21,7.21,0,0,0-5.43,2.3c-1.46,1.53-2.18,3.72-2.18,6.56a9.3,9.3,0,0,0,2.13,6.56,7,7,0,0,0,5.37,2.29A7.89,7.89,0,0,0,681.89,316.76Z"/><path class="cls-1" d="M726.79,311.17H704.92a7.42,7.42,0,0,0,2.27,5.07,7,7,0,0,0,4.91,1.84,6.19,6.19,0,0,0,6-3.62h8.15a13.58,13.58,0,0,1-5,7.1,14.43,14.43,0,0,1-9,2.78,15.67,15.67,0,0,1-7.75-1.91,13.51,13.51,0,0,1-5.35-5.43,16.61,16.61,0,0,1-1.92-8.1,16.8,16.8,0,0,1,1.9-8.15,13.11,13.11,0,0,1,5.29-5.4,17,17,0,0,1,15.47-.06,13,13,0,0,1,5.24,5.21,15.78,15.78,0,0,1,1.86,7.75A17.27,17.27,0,0,1,726.79,311.17Zm-7.61-5.08a6,6,0,0,0-2.11-4.67,7.46,7.46,0,0,0-5-1.75,6.81,6.81,0,0,0-4.72,1.7,7.42,7.42,0,0,0-2.35,4.72Z"/><path class="cls-1" d="M737.38,323a11.58,11.58,0,0,1-4.62-3.59,9.07,9.07,0,0,1-1.86-5h7.61a4.14,4.14,0,0,0,1.7,2.86,6,6,0,0,0,3.7,1.13,5.73,5.73,0,0,0,3.38-.86,2.61,2.61,0,0,0,1.21-2.21,2.33,2.33,0,0,0-1.48-2.19,28.24,28.24,0,0,0-4.73-1.6,39.52,39.52,0,0,1-5.48-1.67,9.48,9.48,0,0,1-3.67-2.64,7.09,7.09,0,0,1-1.54-4.81,7.72,7.72,0,0,1,1.43-4.54,9.7,9.7,0,0,1,4.1-3.24,15.45,15.45,0,0,1,6.29-1.18,12.88,12.88,0,0,1,8.54,2.67,9.92,9.92,0,0,1,3.51,7.21h-7.24a3.93,3.93,0,0,0-1.48-2.84,6.7,6.7,0,0,0-6.7-.29,2.39,2.39,0,0,0-1.11,2.1,2.5,2.5,0,0,0,1.51,2.3,23.81,23.81,0,0,0,4.7,1.59,41.21,41.21,0,0,1,5.35,1.67,9.43,9.43,0,0,1,3.64,2.68,7.33,7.33,0,0,1,1.6,4.78,8,8,0,0,1-1.43,4.64,9.44,9.44,0,0,1-4.11,3.21,15.44,15.44,0,0,1-6.24,1.16A15.78,15.78,0,0,1,737.38,323Z"/><path class="cls-1" d="M797.69,295a10.19,10.19,0,0,1,4.13,4.38,15,15,0,0,1,1.49,6.94v17.55h-7.56V307.33a7.76,7.76,0,0,0-1.78-5.48,6.31,6.31,0,0,0-4.86-1.91,6.44,6.44,0,0,0-4.94,1.91,7.68,7.68,0,0,0-1.81,5.48v16.53H774.8v-40h7.56v13.77a9.74,9.74,0,0,1,3.89-3.05,12.85,12.85,0,0,1,5.4-1.11A12.12,12.12,0,0,1,797.69,295Z"/><path class="cls-1" d="M838.09,311.17H816.22a7.42,7.42,0,0,0,2.26,5.07,7,7,0,0,0,4.92,1.84,6.17,6.17,0,0,0,6-3.62h8.16a13.63,13.63,0,0,1-5,7.1,14.48,14.48,0,0,1-9,2.78,15.7,15.7,0,0,1-7.75-1.91,13.51,13.51,0,0,1-5.35-5.43,16.72,16.72,0,0,1-1.91-8.1,16.91,16.91,0,0,1,1.89-8.15,13.17,13.17,0,0,1,5.29-5.4,17,17,0,0,1,15.47-.06,13,13,0,0,1,5.24,5.21,15.78,15.78,0,0,1,1.86,7.75A18.45,18.45,0,0,1,838.09,311.17Zm-7.62-5.08a6,6,0,0,0-2.1-4.67,7.48,7.48,0,0,0-5-1.75,6.83,6.83,0,0,0-4.72,1.7,7.47,7.47,0,0,0-2.35,4.72Z"/><path class="cls-1" d="M855.18,294.86a10.55,10.55,0,0,1,5.37-1.35v7.94h-2a7.66,7.66,0,0,0-5.37,1.67q-1.81,1.68-1.81,5.83v14.91h-7.56V293.94h7.56v4.64A10.6,10.6,0,0,1,855.18,294.86Z"/><path class="cls-1" d="M893.22,311.17H871.35a7.38,7.38,0,0,0,2.27,5.07,7,7,0,0,0,4.91,1.84,6.16,6.16,0,0,0,6-3.62h8.16a13.63,13.63,0,0,1-5,7.1,14.46,14.46,0,0,1-9,2.78,15.7,15.7,0,0,1-7.75-1.91A13.55,13.55,0,0,1,865.6,317a16.61,16.61,0,0,1-1.92-8.1,16.91,16.91,0,0,1,1.89-8.15,13.17,13.17,0,0,1,5.29-5.4,17,17,0,0,1,15.47-.06,13,13,0,0,1,5.24,5.21,15.78,15.78,0,0,1,1.86,7.75A18.45,18.45,0,0,1,893.22,311.17Zm-7.62-5.08a6,6,0,0,0-2.1-4.67,7.46,7.46,0,0,0-5-1.75,6.84,6.84,0,0,0-4.73,1.7,7.47,7.47,0,0,0-2.35,4.72Z"/><path class="cls-1" d="M508.58,588.21a8.83,8.83,0,0,1,3.32-3.43,9.16,9.16,0,0,1,4.7-1.23,9.52,9.52,0,0,1,5.41,1.5,8.48,8.48,0,0,1,3.28,4.22h-2.21a6.5,6.5,0,0,0-2.47-3,7.84,7.84,0,0,0-7.75-.11,6.75,6.75,0,0,0-2.6,2.79,9.09,9.09,0,0,0-.95,4.23,9,9,0,0,0,.95,4.21,6.72,6.72,0,0,0,2.6,2.78,7.91,7.91,0,0,0,7.75-.09,6.42,6.42,0,0,0,2.47-3h2.21a8.42,8.42,0,0,1-3.29,4.19,9.62,9.62,0,0,1-5.4,1.48,9.16,9.16,0,0,1-4.7-1.23,8.85,8.85,0,0,1-3.32-3.41,10.83,10.83,0,0,1,0-9.95Z"/><path class="cls-1" d="M539.08,588.33a5,5,0,0,1,2.1,2.15A7.3,7.3,0,0,1,542,594v8.64h-1.86v-8.42a5.16,5.16,0,0,0-1.2-3.68,4.33,4.33,0,0,0-3.28-1.27,4.47,4.47,0,0,0-3.4,1.35,5.6,5.6,0,0,0-1.27,4v8h-1.89v-20h1.89v7.75a4.85,4.85,0,0,1,2.06-2,6.82,6.82,0,0,1,6.08,0Z"/><path class="cls-1" d="M546.18,591.26a6.49,6.49,0,0,1,2.51-2.65,7.11,7.11,0,0,1,3.63-.93,6.64,6.64,0,0,1,3.63,1,5.65,5.65,0,0,1,2.2,2.49V587.9H560v14.74h-1.89v-3.27a5.91,5.91,0,0,1-2.22,2.5,6.55,6.55,0,0,1-3.64,1,7,7,0,0,1-3.6-1,6.54,6.54,0,0,1-2.51-2.67,8.55,8.55,0,0,1-.91-4A8.44,8.44,0,0,1,546.18,591.26Zm11.24.88a5.1,5.1,0,0,0-2-2.08,5.39,5.39,0,0,0-2.77-.73,5.61,5.61,0,0,0-2.81.7,5,5,0,0,0-2,2,7.34,7.34,0,0,0,0,6.34,5,5,0,0,0,2,2.08,5.52,5.52,0,0,0,2.81.72,5.39,5.39,0,0,0,2.77-.73,5.16,5.16,0,0,0,2-2.08,7.08,7.08,0,0,0,0-6.26Z"/><path class="cls-1" d="M568.45,588.67a6.55,6.55,0,0,1,3.64-1,7,7,0,0,1,3.6.93,6.49,6.49,0,0,1,2.51,2.65,8.44,8.44,0,0,1,.91,4,8.55,8.55,0,0,1-.91,4,6.54,6.54,0,0,1-2.51,2.67,7,7,0,0,1-3.6,1,6.52,6.52,0,0,1-3.62-1,5.87,5.87,0,0,1-2.24-2.47v10.21h-1.87V587.9h1.87v3.24A5.89,5.89,0,0,1,568.45,588.67Zm8,3.4a5,5,0,0,0-2-2,5.61,5.61,0,0,0-2.81-.7,5.39,5.39,0,0,0-2.77.73,5.1,5.1,0,0,0-2,2.08,7.08,7.08,0,0,0,0,6.26,5.16,5.16,0,0,0,2,2.08,5.39,5.39,0,0,0,2.77.73,5.52,5.52,0,0,0,2.81-.72,5,5,0,0,0,2-2.08,7.34,7.34,0,0,0,0-6.34Z"/><path class="cls-1" d="M585,589.49v9.15a2.65,2.65,0,0,0,.52,1.87,2.53,2.53,0,0,0,1.81.51h1.72v1.62h-2a4.16,4.16,0,0,1-3-.93,4.1,4.1,0,0,1-1-3.07v-9.15h-2V587.9h2v-3.7H585v3.7h4.05v1.59Z"/><path class="cls-1" d="M605.48,596H593.25a6.07,6.07,0,0,0,.81,2.86,4.88,4.88,0,0,0,1.92,1.8,5.67,5.67,0,0,0,2.59.6,5.13,5.13,0,0,0,3.09-.89,4.14,4.14,0,0,0,1.66-2.4h2a6.24,6.24,0,0,1-2.31,3.52,7.06,7.06,0,0,1-4.44,1.37,7.32,7.32,0,0,1-3.72-.94,6.56,6.56,0,0,1-2.58-2.64,8.28,8.28,0,0,1-.93-4,8.45,8.45,0,0,1,.91-4,6.38,6.38,0,0,1,2.57-2.65,7.6,7.6,0,0,1,3.75-.92,7.24,7.24,0,0,1,3.69.92,6.4,6.4,0,0,1,2.43,2.47,7.13,7.13,0,0,1,.85,3.44A13.81,13.81,0,0,1,605.48,596ZM603,591.65a4.47,4.47,0,0,0-1.88-1.75,5.64,5.64,0,0,0-2.59-.6,5.15,5.15,0,0,0-3.59,1.35,5.41,5.41,0,0,0-1.65,3.81h10.37A5.23,5.23,0,0,0,603,591.65Z"/><path class="cls-1" d="M612.79,588.38a6.11,6.11,0,0,1,3.14-.75v2h-.51a4.16,4.16,0,0,0-4.54,4.8v8.24H609V587.9h1.89v2.62A4.67,4.67,0,0,1,612.79,588.38Z"/><path class="cls-1" d="M640.26,590.19l-1,5h3.86v1.67h-4.22l-1.24,5.78H635.8l1.25-5.78h-6l-1.24,5.78H628l1.24-5.78H625v-1.67h4.64l1.06-5h-4.21v-1.67H631l1.25-5.86h1.81l-1.25,5.86h6l1.24-5.86h1.81l-1.24,5.86h3.91v1.67Zm-1.81,0h-6l-1.06,5h6Z"/><path class="cls-1" d="M401.83,379.6a3.21,3.21,0,0,1-1.31-.28,3.73,3.73,0,0,1-1.07-.72,3.1,3.1,0,0,1-.72-1.08,3.25,3.25,0,0,1-.27-1.32v-3.3h2v2.81a1.07,1.07,0,0,0,.27.74.93.93,0,0,0,.75.3h4.61a2.37,2.37,0,0,0,1.28-.33,2.14,2.14,0,0,0,.77-.84,2.52,2.52,0,0,0,.24-1.09,2.1,2.1,0,0,0-.29-1.07l-3.42-6.12,2-1.33,3.51,6.23a5.11,5.11,0,0,1,.7,2.6,4.93,4.93,0,0,1-.64,2.37,4.88,4.88,0,0,1-1.7,1.74,4.57,4.57,0,0,1-2.51.69Z"/><path class="cls-1" d="M417.26,370.17V375a1.57,1.57,0,0,0,.56,1.25,2,2,0,0,0,1.32.49h2.64a.37.37,0,0,1,.41.41v2a.37.37,0,0,1-.41.41h-2.23a3.47,3.47,0,0,1-1.28-.25,2.24,2.24,0,0,1-1-.83v1.05a5.88,5.88,0,0,1-.34,2,6.66,6.66,0,0,1-.93,1.77,6.2,6.2,0,0,1-1.4,1.4,7,7,0,0,1-1.8.95l-3.57,1.21-.75-2.32,3.74-1.24a3.88,3.88,0,0,0,2.67-3.72v-9.45Z"/><path class="cls-1" d="M432.48,379.19a.45.45,0,0,1-.11.28.41.41,0,0,1-.29.13h-1.95a3.19,3.19,0,0,1-.95-.15,4.8,4.8,0,0,1-.93-.39,3,3,0,0,1-.76-.6,2.37,2.37,0,0,1-.46-.72,3.76,3.76,0,0,1-1.41,1.32,3.84,3.84,0,0,1-1.93.54h-1.91a.37.37,0,0,1-.41-.41v-2a.37.37,0,0,1,.41-.41h2.06a2,2,0,0,0,2-1.65l1-4.81,2.34.4-.81,4a1.66,1.66,0,0,0,.39,1.41,1.73,1.73,0,0,0,1.38.62h1.92a.36.36,0,0,1,.4.41Zm-9,6.64h2.73v-2.75h-2.73Zm4.24,0h2.75v-2.75H427.7Z"/><path class="cls-1" d="M437.06,371.48l-1.74-1.66,7.89-9.25,1.74,1.6-5.68,6.7h11.31a4.19,4.19,0,0,1,1.65.33,4.6,4.6,0,0,1,1.38.91,4.37,4.37,0,0,1,.93,1.37,4.27,4.27,0,0,1,.33,1.68v2.14a4.24,4.24,0,0,1-.35,1.7,4.44,4.44,0,0,1-.94,1.38,4.52,4.52,0,0,1-1.39.91,4.36,4.36,0,0,1-1.67.33l-18.44,0a.38.38,0,0,1-.29-.13.41.41,0,0,1-.12-.28v-2a.36.36,0,0,1,.41-.41H451a1.48,1.48,0,0,0,1.06-.46,1.42,1.42,0,0,0,.45-1.13v-2A1.68,1.68,0,0,0,452,372a1.66,1.66,0,0,0-1.2-.5Zm-3.33-5.08,6.15-7.25,1.24,1.13L435,367.47Z"/><path class="cls-1" d="M469.75,383.57a2.9,2.9,0,0,0,2.93-2.87v-1.1h-5.54v-2.85H478c.27,0,.41.13.41.38v2.06a.37.37,0,0,1-.41.41h-3.07s0,.14.07.24a1.51,1.51,0,0,1,0,.39v.84a5.11,5.11,0,0,1-.43,2.11,5.26,5.26,0,0,1-1.18,1.68A5.62,5.62,0,0,1,471.7,386a5.4,5.4,0,0,1-2.13.42h-5a5.85,5.85,0,0,1-2.35-.48,6.06,6.06,0,0,1-3.2-3.2,5.85,5.85,0,0,1-.48-2.35v-7.19H461V380a3.36,3.36,0,0,0,.29,1.39,3.57,3.57,0,0,0,.78,1.13,3.65,3.65,0,0,0,2.55,1.05Z"/><path class="cls-1" d="M480.94,375.1l.58-3a4,4,0,0,1,1.41-2.35,3.93,3.93,0,0,1,2.56-.92h1.63a4.27,4.27,0,0,1,1.68.33,4.24,4.24,0,0,1,2.28,2.28,4.27,4.27,0,0,1,.33,1.68v3.54a2.87,2.87,0,0,1-.81,2.1,2.81,2.81,0,0,1-2.09.83H485a3.6,3.6,0,0,1-1.68-.41,3.15,3.15,0,0,1-1.31-1.42,3.26,3.26,0,0,1-1.43,1.42,4.15,4.15,0,0,1-1.79.41H478a.37.37,0,0,1-.41-.41v-2a.41.41,0,0,1,.12-.28.39.39,0,0,1,.29-.13h.93a2,2,0,0,0,1.29-.46A2,2,0,0,0,480.94,375.1Zm3.8,1.65H489V373.1a1.5,1.5,0,0,0-.46-1.12,1.57,1.57,0,0,0-1.13-.45h-2.06a1.52,1.52,0,0,0-1,.35,1.57,1.57,0,0,0-.54.93l-.46,2.32a1.31,1.31,0,0,0,.29,1.13A1.3,1.3,0,0,0,484.74,376.75Z"/><path class="cls-1" d="M496.16,386.87l-.75-2.34,3.74-1.22a3.75,3.75,0,0,0,1.93-1.42,3.89,3.89,0,0,0,.71-2.27v-9.48h2.38v9.25a6.61,6.61,0,0,1-.32,2.05,6.9,6.9,0,0,1-.9,1.8,6.82,6.82,0,0,1-1.39,1.45,6.67,6.67,0,0,1-1.83,1Z"/><path class="cls-1" d="M510.64,379.6h-2.38V360.22h2.38Z"/><path class="cls-1" d="M517.1,370.17V375a1.58,1.58,0,0,0,.57,1.25,1.91,1.91,0,0,0,1.32.49h2.64a.36.36,0,0,1,.4.41v2a.36.36,0,0,1-.4.41h-2.24a3.42,3.42,0,0,1-1.27-.25,2.21,2.21,0,0,1-1-.83v1.05a6.12,6.12,0,0,1-.33,2,6.66,6.66,0,0,1-.93,1.77,6.24,6.24,0,0,1-1.41,1.4,7.13,7.13,0,0,1-1.79.95l-3.57,1.21-.75-2.32,3.74-1.24a3.82,3.82,0,0,0,1.94-1.42,3.88,3.88,0,0,0,.72-2.3v-9.45Z"/><path class="cls-1" d="M533.4,374.87a4.52,4.52,0,0,1-.38,1.84,4.81,4.81,0,0,1-2.51,2.51,4.52,4.52,0,0,1-1.84.38h-7a.38.38,0,0,1-.29-.13.45.45,0,0,1-.12-.31v-2a.45.45,0,0,1,.12-.31.38.38,0,0,1,.29-.13H529a2.19,2.19,0,0,0,1.41-.48,1.76,1.76,0,0,0,.59-1.46v-.49a3.47,3.47,0,0,1-1.36.26h-2.44a4.09,4.09,0,0,1-3.16-1.5,4.13,4.13,0,0,1-.78-1.55,4.27,4.27,0,0,1-.06-1.82l.44-2.41a4,4,0,0,1,4-3.28h1.54a4,4,0,0,1,1.66.34,4.07,4.07,0,0,1,1.35.91,4.41,4.41,0,0,1,.92,1.36,4.24,4.24,0,0,1,.33,1.66Zm-8.58-16.73h2.75v2.75h-2.75Zm2.08,13.63H531v-3.48a1.55,1.55,0,0,0-.46-1.14,1.58,1.58,0,0,0-1.13-.46h-1.95a1.54,1.54,0,0,0-1,.36,1.61,1.61,0,0,0-.55.95l-.38,2.08a1.31,1.31,0,0,0,.28,1.18A1.34,1.34,0,0,0,526.9,371.77Zm2.18-13.63h2.75v2.75h-2.75Z"/><path class="cls-1" d="M546.68,379.19a.36.36,0,0,1-.4.41h-1a4.36,4.36,0,0,1-1.8-.37,4.66,4.66,0,0,1-1.48-1,4.82,4.82,0,0,1-1-1.49,4.64,4.64,0,0,1-.36-1.81V360.22H543V374.9a1.88,1.88,0,0,0,1.85,1.85h1.43a.41.41,0,0,1,.29.13.49.49,0,0,1,.11.31Z"/><path class="cls-1" d="M546.28,379.6a.37.37,0,0,1-.41-.41v-2a.38.38,0,0,1,.13-.28.43.43,0,0,1,.28-.13h4.87a7.86,7.86,0,0,0,2.59-.43,5.78,5.78,0,0,0,2.19-1.36l2.29-2.18a5.74,5.74,0,0,1,.47-.41l-6.64-2a1,1,0,0,0-.86.09,1.2,1.2,0,0,0-.54.67l-.87,2.49-2.08-.55.69-2.44a3.82,3.82,0,0,1,.71-1.32,3.7,3.7,0,0,1,1.12-.89,3.8,3.8,0,0,1,1.36-.43,3.4,3.4,0,0,1,1.42.15l11.31,3.39-.72,2.29-1.25-.37a1.63,1.63,0,0,0-1.06-.06,2.72,2.72,0,0,0-.85.43v1a1.83,1.83,0,0,0,.53,1.32,1.79,1.79,0,0,0,1.32.53h3.86a.37.37,0,0,1,.41.41v2a.37.37,0,0,1-.41.41h-3.45a4.24,4.24,0,0,1-3.81-2.32,5.18,5.18,0,0,1-.51-1.51l-1.71,1.59a7.77,7.77,0,0,1-2.73,1.68,9.06,9.06,0,0,1-3.16.56Zm8,3.5H557v2.76h-2.76Z"/><path class="cls-1" d="M576.84,379.19a.45.45,0,0,1-.11.28.41.41,0,0,1-.29.13h-2a3.19,3.19,0,0,1-1-.15,4.8,4.8,0,0,1-.93-.39,3,3,0,0,1-.76-.6,2.37,2.37,0,0,1-.46-.72,3.76,3.76,0,0,1-1.41,1.32,3.84,3.84,0,0,1-1.93.54h-1.91a.37.37,0,0,1-.41-.41v-2a.37.37,0,0,1,.41-.41h2.06a2,2,0,0,0,2-1.65l1-4.81,2.34.4-.81,4a1.66,1.66,0,0,0,.39,1.41,1.73,1.73,0,0,0,1.38.62h1.92a.36.36,0,0,1,.4.41Zm-6.58-12.06H573v-2.76h-2.75Z"/><path class="cls-1" d="M582.18,376.75A1.88,1.88,0,0,0,584,374.9v-5.57h2.38v5.57a4.64,4.64,0,0,1-1.36,3.3,4.86,4.86,0,0,1-1.5,1,4.52,4.52,0,0,1-1.84.38h-5.27a.38.38,0,0,1-.29-.13.41.41,0,0,1-.12-.28v-2a.45.45,0,0,1,.12-.31.38.38,0,0,1,.29-.13Zm-5.51,6.33h2.72v2.75h-2.72Zm4.23,0h2.76v2.75H580.9Z"/><path class="cls-1" d="M593.14,379.6h-2.38V360.22h2.38Z"/><path class="cls-1" d="M598,386.87l-.75-2.34,3.74-1.22a3.79,3.79,0,0,0,1.93-1.42,3.89,3.89,0,0,0,.71-2.27v-9.48H606v9.25a6.61,6.61,0,0,1-.32,2.05,7.58,7.58,0,0,1-.9,1.8,6.42,6.42,0,0,1-3.22,2.42Z"/><path class="cls-1" d="M613.47,379.6a3.21,3.21,0,0,1-1.31-.28,3.73,3.73,0,0,1-1.07-.72,3.27,3.27,0,0,1-.73-1.08,3.41,3.41,0,0,1-.26-1.32v-3.3h2v2.81a1.07,1.07,0,0,0,.27.74.93.93,0,0,0,.75.3h4.61a2.37,2.37,0,0,0,1.28-.33,2,2,0,0,0,.76-.84,2.39,2.39,0,0,0,.25-1.09,2.1,2.1,0,0,0-.29-1.07l-3.42-6.12,2-1.33,3.51,6.23a5,5,0,0,1,.69,2.6,4.81,4.81,0,0,1-.63,2.37,4.88,4.88,0,0,1-1.7,1.74,4.57,4.57,0,0,1-2.51.69Z"/><path class="cls-1" d="M635.74,384.64a5.81,5.81,0,0,1-2.35-.48,6,6,0,0,1-1.91-1.3,6.4,6.4,0,0,1-1.29-1.93,5.85,5.85,0,0,1-.48-2.35v-7.13h2.38v6.75a3.38,3.38,0,0,0,.29,1.4,3.79,3.79,0,0,0,.76,1.14,3.57,3.57,0,0,0,1.15.77,3.5,3.5,0,0,0,1.39.29h5.11a3.08,3.08,0,0,0,1.16-.23,3.12,3.12,0,0,0,.95-.64,3,3,0,0,0,.87-2.12V360.22h2.38V374.9a1.75,1.75,0,0,0,.55,1.3,1.81,1.81,0,0,0,1.34.55h1.59a.39.39,0,0,1,.29.13.41.41,0,0,1,.12.28v2a.45.45,0,0,1-.12.31.39.39,0,0,1-.29.13h-1.16a3.69,3.69,0,0,1-1.25-.22,2.49,2.49,0,0,1-1.07-.89v1a4.85,4.85,0,0,1-.39,1.89,5.43,5.43,0,0,1-2.81,2.85,5.3,5.3,0,0,1-2.19.45Z"/><path class="cls-1" d="M655.26,374.26a2.78,2.78,0,0,0,.07.71,1.17,1.17,0,0,0,.19.42.58.58,0,0,0,.23.29l4.52-4.87a6,6,0,0,1,4.47-1.94h1.77a4.27,4.27,0,0,1,1.68.33,4.6,4.6,0,0,1,1.38.91,4.37,4.37,0,0,1,.93,1.37,4.27,4.27,0,0,1,.33,1.68V375a1.56,1.56,0,0,0,.55,1.22,1.89,1.89,0,0,0,1.31.49h.95a.41.41,0,0,1,.28.12.39.39,0,0,1,.13.29v2a.41.41,0,0,1-.12.28.39.39,0,0,1-.29.13h-.55a4.29,4.29,0,0,1-1.94-.45,3.69,3.69,0,0,1-1.48-1.38,3.87,3.87,0,0,1-3.36,1.83h-8.76a4.85,4.85,0,0,1-2-.42,3.36,3.36,0,0,1-1.49-1.41,4,4,0,0,1-3.45,1.83h-.93a.37.37,0,0,1-.41-.41v-2a.39.39,0,0,1,.13-.29.41.41,0,0,1,.28-.12H651a1.79,1.79,0,0,0,1.32-.53,1.76,1.76,0,0,0,.54-1.29v-4.3h2.38Zm11.42,2.49a1.75,1.75,0,0,0,1.25-.5,1.62,1.62,0,0,0,.52-1.21v-1.71a1.66,1.66,0,0,0-.55-1.27,1.83,1.83,0,0,0-1.3-.53h-2.12a3.64,3.64,0,0,0-1.57.35,4.56,4.56,0,0,0-1.3.93l-3.71,3.94Z"/><path class="cls-1" d="M685.39,374.9a4.68,4.68,0,0,1-4.7,4.7h-7.05a.36.36,0,0,1-.4-.41v-2a.4.4,0,0,1,.11-.28.41.41,0,0,1,.29-.13H681a2.28,2.28,0,0,0,1.42-.46,1.73,1.73,0,0,0,.61-1.48v-.46a3.66,3.66,0,0,1-1.36.26h-2.47a4.1,4.1,0,0,1-4-4.87l.46-2.41A4.11,4.11,0,0,1,677,365a4,4,0,0,1,1.19-.68,3.9,3.9,0,0,1,1.4-.25h1.53a4.11,4.11,0,0,1,1.66.34,3.93,3.93,0,0,1,1.34.91,4.36,4.36,0,0,1,.9,1.36,4,4,0,0,1,.34,1.65Zm-6.5-3.13H683v-3.46a1.55,1.55,0,0,0-.47-1.13,1.51,1.51,0,0,0-1.13-.46H679.5a1.6,1.6,0,0,0-1,.36,1.46,1.46,0,0,0-.54.94l-.4,2.09a1.36,1.36,0,0,0,.29,1.16A1.32,1.32,0,0,0,678.89,371.77Zm.23-13.61h2.76v2.76h-2.76Z"/><path class="cls-1" d="M698.64,384.67a5.81,5.81,0,0,1-2.35-.48,6.19,6.19,0,0,1-1.91-1.29,6,6,0,0,1-1.77-4.26v-8H695v7.63a3.26,3.26,0,0,0,.29,1.38,3.73,3.73,0,0,0,.76,1.14,3.28,3.28,0,0,0,1.15.77,3.49,3.49,0,0,0,1.39.28h5.11a3.08,3.08,0,0,0,1.16-.23,3.12,3.12,0,0,0,.95-.64,2.89,2.89,0,0,0,.64-1,3,3,0,0,0,.23-1.16v-8.7h2.38v9.14a5.25,5.25,0,0,1-.42,2.1,5.49,5.49,0,0,1-2.87,2.87,5.25,5.25,0,0,1-2.1.42Zm.81-17.28h2.76v2.75h-2.76Z"/><path class="cls-1" d="M715.2,379.6h-2.38V360.22h2.38Z"/><path class="cls-1" d="M722.77,379.6a3.91,3.91,0,0,1-1.77-.41,4.08,4.08,0,0,1-1.35-1.07,4.23,4.23,0,0,1-.78-1.54,3.9,3.9,0,0,1-.08-1.8l.5-2.64a4.05,4.05,0,0,1,1.4-2.38,4,4,0,0,1,2.57-.92h1.65a4.27,4.27,0,0,1,1.68.33,4.06,4.06,0,0,1,1.37.93,4.36,4.36,0,0,1,.91,1.38,4.2,4.2,0,0,1,.34,1.65v3.62h2.2a.36.36,0,0,1,.4.41v2a.36.36,0,0,1-.4.41h-2.23v.14a.85.85,0,0,1,0,.23,6.13,6.13,0,0,1-1.29,3.54,6.57,6.57,0,0,1-3.15,2.23L721.14,387l-.75-2.35,3.71-1.24A4,4,0,0,0,726,382a3.6,3.6,0,0,0,.73-2.26v-.41a1.89,1.89,0,0,1-.62.21,4.44,4.44,0,0,1-.71.06Zm-.26-2.85h4.29v-3.62a1.6,1.6,0,0,0-1.6-1.6h-2.06a1.54,1.54,0,0,0-1,.35,1.51,1.51,0,0,0-.53.93l-.47,2.35a1.3,1.3,0,0,0,.29,1.11A1.34,1.34,0,0,0,722.51,376.75Z"/><path class="cls-1" d="M742.11,379.19a.41.41,0,0,1-.12.28.38.38,0,0,1-.29.13h-1.94a3.3,3.3,0,0,1-1-.15,4.71,4.71,0,0,1-.92-.39,2.8,2.8,0,0,1-.76-.6,2.19,2.19,0,0,1-.46-.72,3.76,3.76,0,0,1-1.41,1.32,3.84,3.84,0,0,1-1.93.54h-1.91a.37.37,0,0,1-.41-.41v-2a.37.37,0,0,1,.41-.41h2.06a2,2,0,0,0,1.32-.46,2.07,2.07,0,0,0,.71-1.19l1-4.81,2.35.4-.81,4a1.6,1.6,0,0,0,.39,1.41,1.73,1.73,0,0,0,1.38.62h1.91a.37.37,0,0,1,.41.41Zm-6.58-12.06h2.75v-2.76h-2.75Z"/><path class="cls-1" d="M753.94,378.55l-4.44.61c-1.14.16-2.26.27-3.37.35s-2.22.11-3.32.11h-1.14a.32.32,0,0,1-.27-.13.59.59,0,0,1-.13-.3v-2a.49.49,0,0,1,.11-.31.48.48,0,0,1,.35-.13H745a2.59,2.59,0,0,1-.32-.81l-.64-3.39a3.81,3.81,0,0,1,.08-1.78,4,4,0,0,1,2.16-2.6,3.84,3.84,0,0,1,1.74-.41h4.72v2.7h-4.87a1.43,1.43,0,0,0-1.17.55,1.45,1.45,0,0,0-.31,1.25l.87,4.44,6.32-.67Z"/></g></svg>