<svg xmlns="http://www.w3.org/2000/svg" viewBox="0 0 648 648"><defs><style>.cls-1{fill:#7a503a;}.cls-2{fill:#1e4910;}.cls-3{fill:#d9814a;}.cls-4{fill:#ee6162;}.cls-5{fill:#675296;}.cls-6{fill:#fdc554;}.cls-7{fill:#312a28;}</style></defs><g id="Graphic"><rect class="cls-1" x="93.52" y="150.75" width="51.84" height="393.14"/><rect class="cls-2" x="171.28" y="69.05" width="51.84" height="474.84"/><rect class="cls-3" x="249.04" y="314.45" width="51.84" height="229.45"/><rect class="cls-4" x="326.8" y="215.29" width="51.84" height="328.6"/><rect class="cls-5" x="404.56" y="51.84" width="51.84" height="492.06"/><rect class="cls-6" x="482.32" y="405.53" width="51.84" height="138.36"/><polygon class="cls-7" points="596.16 544.47 51.27 544.47 51.27 51.84 52.41 51.84 52.41 543.32 596.16 543.32 596.16 544.47"/><path d="M107.59,596.16l9.54-14.62-9.46-14.79h4.53l7.18,11.61,7.45-11.61h4.41l-9.62,14.67,9.78,14.74h-4.66l-7.48-11.46L112,596.16Z"/><path d="M195.24,596.16V584.45l-10.09-17.7h4.29l7.81,13.91,7.82-13.91h4.2l-10.05,17.47v11.94Z"/><path d="M285.63,569.87l-16.9,22.89H286.2v3.4H263.91V593l16.88-22.88H264.44v-3.41h21.19Z"/><path d="M365.36,566.75l-11.1,13,11.47,16.39H361l-9.42-13.39-4.41,5.06v8.33h-4V566.75h4v16l13.4-16Z"/><path d="M438.73,566.75v19.92q0,10-9.29,10-4.63,0-7-2.56c-1.58-1.71-2.38-4.22-2.38-7.53V585.5l3.9-.8v1.72a8.33,8.33,0,0,0,1.34,5.21,5,5,0,0,0,4.16,1.68,4.9,4.9,0,0,0,4-1.56,7.66,7.66,0,0,0,1.28-4.88V566.75Z"/><path d="M519,588.55l.43,7.61h-4l-.41-7.65a3.73,3.73,0,0,0-1.46-3,7.28,7.28,0,0,0-4.22-1H502v11.63h-4V566.75h11.61a10.74,10.74,0,0,1,7.17,2.28,7.27,7.27,0,0,1,2.69,5.84,8.41,8.41,0,0,1-4.72,7.71C517.37,583.46,518.78,585.45,519,588.55Zm-3.61-13.35a4.55,4.55,0,0,0-1.63-3.67,6.68,6.68,0,0,0-4.46-1.37H502v11h7.22a6.08,6.08,0,0,0,4.43-1.67A5.79,5.79,0,0,0,515.34,575.2Z"/></g></svg>