<svg xmlns="http://www.w3.org/2000/svg" xmlns:xlink="http://www.w3.org/1999/xlink" viewBox="0 0 1152 648"><defs><style>.cls-1{fill:#565656;}.cls-2{fill:url(#linear-gradient);}.cls-3{fill:#79e45e;}.cls-4{fill:#fff;}</style><linearGradient id="linear-gradient" x1="623.05" y1="562.79" x2="623.05" y2="45.36" gradientUnits="userSpaceOnUse"><stop offset="0" stop-color="#fff" stop-opacity="0"/><stop offset="1" stop-color="#79e45e" stop-opacity="0.5"/></linearGradient></defs><g id="Layer_6" data-name="Layer 6"><rect y="-0.29" width="1152" height="648.29"/><rect class="cls-1" x="94.09" y="44.86" width="1057.91" height="1"/><rect class="cls-1" x="94.09" y="389.81" width="1057.91" height="1"/><rect class="cls-1" x="94.09" y="217.34" width="1057.91" height="1"/><rect class="cls-1" x="733.44" y="45.36" width="1" height="517.42"/><rect class="cls-1" x="992.49" y="45.36" width="1" height="517.42"/><rect class="cls-1" x="214.7" y="45.36" width="1" height="517.42"/><rect class="cls-1" x="474.07" y="45.36" width="1" height="517.42"/><path class="cls-2" d="M94.09,562.79S177.41,508.24,292.45,504c107.34-4,144.3-94.67,230.62-116.06,103.45-25.64,128.61-6.25,184.72-28.61,79-31.47,77.49-47.51,162-131.65,94.29-93.91,222.72-95.75,282.23-182.32V562.79Z"/><path class="cls-3" d="M94.64,563.62,93.54,562c.84-.55,84.87-54.75,198.87-59,60.63-2.24,99-32.56,136.13-61.88,29.2-23.07,56.78-44.86,94.29-54.15,52.58-13,85.23-14.46,111.46-15.61,25.5-1.12,45.65-2,73.13-13,59-23.5,73.33-38.78,111.66-79.63,12.83-13.67,28.79-30.69,50-51.8,45.54-45.35,98-68.85,148.76-91.57,52.8-23.63,102.66-46,133.36-90.61l1.64,1.14c-31,45.11-81.12,67.55-134.18,91.3-50.58,22.65-102.89,46.06-148.16,91.16-21.18,21.09-37.13,38.08-49.94,51.74-38.55,41.09-53,56.47-112.38,80.13-27.8,11.08-48.09,12-73.78,13.09-26.14,1.15-58.68,2.58-111.07,15.56-37.09,9.19-64.51,30.85-93.53,53.78-37.37,29.52-76,60.05-137.29,62.31C179.06,509.18,95.47,563.08,94.64,563.62Z"/><polygon class="cls-4" points="1152 563.29 93.59 563.29 93.59 45.36 94.59 45.36 94.59 562.29 1152 562.29 1152 563.29"/><path class="cls-4" d="M178.82,216.41a17,17,0,0,1-7.31-5.68,15,15,0,0,1-2.76-8.77H180.6a7.68,7.68,0,0,0,2.41,5.37,8.51,8.51,0,0,0,6,2,9.15,9.15,0,0,0,6.08-1.85,6,6,0,0,0,2.22-4.86,5.62,5.62,0,0,0-1.5-4,10.75,10.75,0,0,0-3.76-2.49,61.14,61.14,0,0,0-6.2-2,68.66,68.66,0,0,1-8.73-3.12,15.24,15.24,0,0,1-5.76-4.66,13.27,13.27,0,0,1-2.41-8.34,14.92,14.92,0,0,1,2.44-8.53,15.65,15.65,0,0,1,6.88-5.57,25,25,0,0,1,10.11-1.94q8.53,0,13.86,4.15a15.37,15.37,0,0,1,5.89,11.57H195.92a6.29,6.29,0,0,0-2.41-4.7,9.11,9.11,0,0,0-6-1.85,7.65,7.65,0,0,0-5.17,1.66,6,6,0,0,0-1.94,4.82,5,5,0,0,0,1.46,3.67,11.36,11.36,0,0,0,3.64,2.37,62.92,62.92,0,0,0,6.12,2.09,66.06,66.06,0,0,1,8.77,3.16,15.88,15.88,0,0,1,5.84,4.74,13.21,13.21,0,0,1,2.45,8.3,15.54,15.54,0,0,1-2.29,8.21,16.17,16.17,0,0,1-6.71,6,23,23,0,0,1-10.51,2.25A26.12,26.12,0,0,1,178.82,216.41Z"/><path class="cls-4" d="M255.81,162.69v8.93h-14.7v46.22H230.05V171.62H215.36v-8.93Z"/><path class="cls-4" d="M297.67,207.33h-22l-3.63,10.51H260.47l19.82-55.22h12.88L313,217.84H301.31Zm-3-8.85-8-23.07-8,23.07Z"/><path class="cls-4" d="M358,162.69v8.93H343.26v46.22H332.2V171.62H317.5v-8.93Z"/><path class="cls-4" d="M377.07,162.69v55.15H366V162.69Z"/><path class="cls-4" d="M396.62,216.41a17,17,0,0,1-7.31-5.68,15,15,0,0,1-2.76-8.77H398.4a7.68,7.68,0,0,0,2.41,5.37,8.52,8.52,0,0,0,6,2,9.19,9.19,0,0,0,6.09-1.85,6.06,6.06,0,0,0,2.21-4.86,5.62,5.62,0,0,0-1.5-4,10.57,10.57,0,0,0-3.76-2.49,61.14,61.14,0,0,0-6.2-2,68.66,68.66,0,0,1-8.73-3.12,15.24,15.24,0,0,1-5.76-4.66,13.27,13.27,0,0,1-2.41-8.34,14.85,14.85,0,0,1,2.45-8.53,15.57,15.57,0,0,1,6.87-5.57,25,25,0,0,1,10.11-1.94q8.53,0,13.86,4.15a15.37,15.37,0,0,1,5.89,11.57H413.72a6.31,6.31,0,0,0-2.4-4.7,9.14,9.14,0,0,0-6-1.85,7.65,7.65,0,0,0-5.17,1.66,6,6,0,0,0-1.94,4.82,5,5,0,0,0,1.46,3.67,11.36,11.36,0,0,0,3.64,2.37,62.92,62.92,0,0,0,6.12,2.09,66.06,66.06,0,0,1,8.77,3.16,15.88,15.88,0,0,1,5.84,4.74,13.15,13.15,0,0,1,2.45,8.3,15.54,15.54,0,0,1-2.29,8.21,16.17,16.17,0,0,1-6.71,6A23,23,0,0,1,407,218.39,26.15,26.15,0,0,1,396.62,216.41Z"/><path class="cls-4" d="M473.61,162.69v8.93h-14.7v46.22H447.85V171.62H433.16v-8.93Z"/><path class="cls-4" d="M492.72,162.69v55.15H481.66V162.69Z"/><path class="cls-4" d="M504.61,175.61a26.22,26.22,0,0,1,10-10,28.4,28.4,0,0,1,14.26-3.6,28,28,0,0,1,16.19,4.74,24.83,24.83,0,0,1,9.72,13.12H542.1a13.21,13.21,0,0,0-5.33-5.93,15.72,15.72,0,0,0-7.94-2,16.31,16.31,0,0,0-8.57,2.25,15.27,15.27,0,0,0-5.85,6.36,23.16,23.16,0,0,0,0,19.23,15.2,15.2,0,0,0,5.85,6.4,16.31,16.31,0,0,0,8.57,2.25,15.44,15.44,0,0,0,7.94-2,13.45,13.45,0,0,0,5.33-6h12.72a24.68,24.68,0,0,1-9.68,13.15,28.2,28.2,0,0,1-16.23,4.7,28.5,28.5,0,0,1-14.26-3.59,26.35,26.35,0,0,1-10-10,30.7,30.7,0,0,1,0-29.11Z"/><circle class="cls-4" cx="1018.2" cy="324" r="88.44"/><path d="M984.79,293.6H963.73v11.11a9.9,9.9,0,0,1,3.9-2.76,13.8,13.8,0,0,1,5.4-1.07,14.78,14.78,0,0,1,8.51,2.27,13.22,13.22,0,0,1,4.81,5.82,19.22,19.22,0,0,1,1.49,7.57q0,7.48-4.25,12t-12.13,4.55q-7.4,0-11.83-3.71a13.91,13.91,0,0,1-5-9.68h8.84a7,7,0,0,0,2.63,4.16,8.4,8.4,0,0,0,5.23,1.56,7,7,0,0,0,5.79-2.41,9.79,9.79,0,0,0,2-6.37,8.67,8.67,0,0,0-2-6.14,7.59,7.59,0,0,0-5.82-2.11,7.36,7.36,0,0,0-4.55,1.36,7.5,7.5,0,0,0-2.6,3.64h-8.71V285.6h29.38Z"/><path d="M1026.58,293.6h-21v11.11a9.86,9.86,0,0,1,3.89-2.76,13.84,13.84,0,0,1,5.4-1.07,14.76,14.76,0,0,1,8.51,2.27,13.24,13.24,0,0,1,4.82,5.82,19.4,19.4,0,0,1,1.49,7.57q0,7.48-4.26,12t-12.12,4.55q-7.41,0-11.83-3.71a13.92,13.92,0,0,1-5-9.68h8.84a7,7,0,0,0,2.64,4.16,8.38,8.38,0,0,0,5.23,1.56,7,7,0,0,0,5.79-2.41,9.84,9.84,0,0,0,2-6.37,8.67,8.67,0,0,0-2-6.14,7.58,7.58,0,0,0-5.81-2.11,7.09,7.09,0,0,0-7.15,5h-8.71V285.6h29.37Z"/><path d="M1038.38,289.63a10.35,10.35,0,0,1,17.78,7.74q0,5-2.89,7.8a11.33,11.33,0,0,1-14.89,0q-2.89-2.79-2.89-7.8A10.27,10.27,0,0,1,1038.38,289.63Zm3.8,7.74c0,3.42,1.2,5.13,3.58,5.13a3.25,3.25,0,0,0,2.73-1.26,6.34,6.34,0,0,0,1-3.87q0-5.07-3.7-5.07C1043.38,292.3,1042.18,294,1042.18,297.37Zm35-9.75-25.55,45.5h-8.84l25.49-45.5Zm-10.3,27.92a10.33,10.33,0,0,1,7.44-2.77,10.14,10.14,0,0,1,7.38,2.77c1.88,1.84,2.83,4.43,2.83,7.76s-1,5.94-2.83,7.8a10,10,0,0,1-7.38,2.8,10.23,10.23,0,0,1-7.48-2.8q-2.85-2.79-2.85-7.8T1066.92,315.54Zm3.67,7.76c0,3.43,1.24,5.14,3.7,5.14s3.64-1.71,3.64-5.14-1.21-5.07-3.64-5.07S1070.59,319.92,1070.59,323.3Z"/><path d="M957.83,351v9.3a3,3,0,0,0,3.29,3.34,3.39,3.39,0,0,0,2.45-.84,3.32,3.32,0,0,0,.87-2.5V351h2.39v9.26a5.53,5.53,0,0,1-.77,3,4.77,4.77,0,0,1-2.08,1.85,7.08,7.08,0,0,1-5.75,0,4.62,4.62,0,0,1-2-1.85,5.62,5.62,0,0,1-.76-3V351Z"/><path d="M971.69,365.29a4.29,4.29,0,0,1-1.71-1.35,3.34,3.34,0,0,1-.67-1.9h2.48a1.71,1.71,0,0,0,.7,1.23,2.58,2.58,0,0,0,1.61.5,2.68,2.68,0,0,0,1.56-.39,1.18,1.18,0,0,0,.56-1,1,1,0,0,0-.62-1,11.52,11.52,0,0,0-2-.69,19.72,19.72,0,0,1-2.12-.69,3.79,3.79,0,0,1-1.42-1,2.69,2.69,0,0,1-.6-1.83,2.82,2.82,0,0,1,.55-1.69,3.65,3.65,0,0,1,1.56-1.21,5.92,5.92,0,0,1,2.34-.44,4.84,4.84,0,0,1,3.18,1,3.55,3.55,0,0,1,1.29,2.72H976a1.69,1.69,0,0,0-.63-1.24,2.35,2.35,0,0,0-1.53-.46,2.46,2.46,0,0,0-1.45.36,1.08,1.08,0,0,0-.5.94,1,1,0,0,0,.33.78,2.39,2.39,0,0,0,.82.49c.32.12.8.27,1.43.45a15.09,15.09,0,0,1,2.07.69,3.86,3.86,0,0,1,1.39,1,2.65,2.65,0,0,1,.61,1.79,3,3,0,0,1-.54,1.76,3.61,3.61,0,0,1-1.55,1.22,5.62,5.62,0,0,1-2.34.44A5.86,5.86,0,0,1,971.69,365.29Z"/><path d="M991.68,360.7h-8.84a3.19,3.19,0,0,0,3.29,3.07,2.8,2.8,0,0,0,2.73-1.62h2.59a5.26,5.26,0,0,1-1.9,2.61,5.6,5.6,0,0,1-3.42,1,6,6,0,0,1-3-.74,5.4,5.4,0,0,1-2.06-2.1,6.5,6.5,0,0,1-.74-3.14,6.58,6.58,0,0,1,.72-3.14,5.07,5.07,0,0,1,2-2.09,6,6,0,0,1,3-.74,5.85,5.85,0,0,1,2.92.72,5,5,0,0,1,2,2,6.1,6.1,0,0,1,.71,3A8.32,8.32,0,0,1,991.68,360.7Zm-2.42-1.93a2.72,2.72,0,0,0-.94-2.12,3.4,3.4,0,0,0-2.29-.8,3,3,0,0,0-2.12.79,3.25,3.25,0,0,0-1,2.13Z"/><path d="M997.9,354.33a4.12,4.12,0,0,1,2.07-.5v2.48h-.61a2.89,2.89,0,0,0-2.13.72,3.41,3.41,0,0,0-.72,2.47v6.09h-2.4V354h2.4v1.68A3.73,3.73,0,0,1,997.9,354.33Z"/><path d="M1018.2,355.2a3.82,3.82,0,0,0-1.58-1.65,4.75,4.75,0,0,0-2.33-.56,5.15,5.15,0,0,0-2.58.65,4.6,4.6,0,0,0-1.78,1.85,5.87,5.87,0,0,0-.64,2.77,6,6,0,0,0,.64,2.79,4.62,4.62,0,0,0,1.78,1.86,5.15,5.15,0,0,0,2.58.65,4.56,4.56,0,0,0,3.17-1.1,4.66,4.66,0,0,0,1.49-3h-5.48v-1.91h8v1.87a7.26,7.26,0,0,1-3.75,5.41,7.14,7.14,0,0,1-3.48.85,7.54,7.54,0,0,1-3.76-1,7.15,7.15,0,0,1-2.7-2.65,8,8,0,0,1,0-7.69,7.21,7.21,0,0,1,2.71-2.66,8,8,0,0,1,7.9.19,6.6,6.6,0,0,1,2.64,3.25Z"/><path d="M1027.66,354.33a4.12,4.12,0,0,1,2.07-.5v2.48h-.61a2.89,2.89,0,0,0-2.13.72,3.36,3.36,0,0,0-.73,2.47v6.09h-2.39V354h2.39v1.68A3.75,3.75,0,0,1,1027.66,354.33Z"/><path d="M1034,365a5.45,5.45,0,0,1-2.08-2.1,6.4,6.4,0,0,1-.75-3.14,6.18,6.18,0,0,1,.77-3.13,5.42,5.42,0,0,1,2.12-2.1,6.47,6.47,0,0,1,6,0,5.35,5.35,0,0,1,2.12,2.1,6.19,6.19,0,0,1,.78,3.13,6.12,6.12,0,0,1-.8,3.13A5.57,5.57,0,0,1,1040,365a6.36,6.36,0,0,1-3,.74A6,6,0,0,1,1034,365Zm4.69-1.78a3.35,3.35,0,0,0,1.32-1.32,4.9,4.9,0,0,0,0-4.27,3.32,3.32,0,0,0-1.28-1.32,3.59,3.59,0,0,0-1.73-.44,3.51,3.51,0,0,0-1.71.44,3.26,3.26,0,0,0-1.25,1.32,4.59,4.59,0,0,0-.46,2.13,4,4,0,0,0,1,2.88,3.14,3.14,0,0,0,2.4,1A3.48,3.48,0,0,0,1038.68,363.26Z"/><path d="M1060.87,354l-3.59,11.57h-2.52l-2.33-8.54-2.33,8.54h-2.52L1044,354h2.44l2.42,9.31,2.45-9.31h2.5l2.35,9.26,2.4-9.26Z"/><path d="M1065.45,356v6.4a1.22,1.22,0,0,0,.3.93,1.52,1.52,0,0,0,1,.29h1.47v2h-1.89a3.68,3.68,0,0,1-2.48-.75,3.15,3.15,0,0,1-.86-2.46V356h-1.36v-2H1063v-2.87h2.42V354h2.81v2Z"/><path d="M1078.82,354.4a4.07,4.07,0,0,1,1.63,1.68,5.6,5.6,0,0,1,.6,2.69v6.82h-2.37v-6.46a3.37,3.37,0,0,0-.78-2.39,3.14,3.14,0,0,0-4.25,0,3.33,3.33,0,0,0-.79,2.39v6.46h-2.39V350.05h2.39v5.32a4.07,4.07,0,0,1,1.55-1.14,5.23,5.23,0,0,1,2-.4A4.89,4.89,0,0,1,1078.82,354.4Z"/></g><g id="Isolation_Mode" data-name="Isolation Mode"><path class="cls-4" d="M46.08,41V38.38H50.9V53H48V41Z"/><path class="cls-4" d="M63.44,40.8H57v3.42a3,3,0,0,1,1.2-.85A4.2,4.2,0,0,1,59.82,43a4.5,4.5,0,0,1,2.62.7,4.07,4.07,0,0,1,1.48,1.79,5.87,5.87,0,0,1,.46,2.33,5.21,5.21,0,0,1-1.31,3.7A4.87,4.87,0,0,1,59.34,53a5.49,5.49,0,0,1-3.64-1.14,4.26,4.26,0,0,1-1.54-3h2.72a2.16,2.16,0,0,0,.81,1.28,2.59,2.59,0,0,0,1.61.48,2.16,2.16,0,0,0,1.78-.74,3,3,0,0,0,.6-2A2.64,2.64,0,0,0,61.07,46a2.35,2.35,0,0,0-1.79-.65,2.26,2.26,0,0,0-1.4.42,2.3,2.3,0,0,0-.8,1.12H54.4V38.34h9Z"/><path class="cls-4" d="M67.75,40.06a4.54,4.54,0,0,1,4.15-2,4.54,4.54,0,0,1,4.15,2,10.06,10.06,0,0,1,1.25,5.42,10.22,10.22,0,0,1-1.25,5.46,4.53,4.53,0,0,1-4.15,2,4.53,4.53,0,0,1-4.15-2,10.22,10.22,0,0,1-1.25-5.46A10.06,10.06,0,0,1,67.75,40.06ZM74.35,43a3.41,3.41,0,0,0-.76-1.65,2.55,2.55,0,0,0-3.38,0A3.41,3.41,0,0,0,69.45,43a13.41,13.41,0,0,0-.19,2.49A15.21,15.21,0,0,0,69.44,48a3.16,3.16,0,0,0,.76,1.66,2.61,2.61,0,0,0,3.4,0A3.16,3.16,0,0,0,74.36,48a15.21,15.21,0,0,0,.18-2.55A13.41,13.41,0,0,0,74.35,43Z"/><path class="cls-4" d="M46.08,210.38V207.8H50.9v14.58H48v-12Z"/><path class="cls-4" d="M54.89,209.48a4.54,4.54,0,0,1,4.15-2,4.54,4.54,0,0,1,4.15,2,10.06,10.06,0,0,1,1.25,5.42,10.22,10.22,0,0,1-1.25,5.46,4.53,4.53,0,0,1-4.15,2,4.53,4.53,0,0,1-4.15-2,10.22,10.22,0,0,1-1.25-5.46A10.06,10.06,0,0,1,54.89,209.48Zm6.6,2.93a3.41,3.41,0,0,0-.76-1.65,2.55,2.55,0,0,0-3.38,0,3.41,3.41,0,0,0-.76,1.65,13.41,13.41,0,0,0-.19,2.49,15.21,15.21,0,0,0,.18,2.55,3.16,3.16,0,0,0,.76,1.66,2.61,2.61,0,0,0,3.4,0,3.16,3.16,0,0,0,.76-1.66,15.21,15.21,0,0,0,.18-2.55A13.41,13.41,0,0,0,61.49,212.41Z"/><path class="cls-4" d="M67.79,209.48a4.54,4.54,0,0,1,4.15-2,4.54,4.54,0,0,1,4.15,2,10.06,10.06,0,0,1,1.25,5.42,10.22,10.22,0,0,1-1.25,5.46,4.53,4.53,0,0,1-4.15,2,4.53,4.53,0,0,1-4.15-2,10.22,10.22,0,0,1-1.25-5.46A10.06,10.06,0,0,1,67.79,209.48Zm6.6,2.93a3.41,3.41,0,0,0-.76-1.65,2.55,2.55,0,0,0-3.38,0,3.41,3.41,0,0,0-.76,1.65,13.41,13.41,0,0,0-.19,2.49,15.21,15.21,0,0,0,.18,2.55,3.16,3.16,0,0,0,.76,1.66,2.61,2.61,0,0,0,3.4,0,3.16,3.16,0,0,0,.76-1.66,15.21,15.21,0,0,0,.18-2.55A13.41,13.41,0,0,0,74.39,212.41Z"/><path class="cls-4" d="M56.22,385.9H49.74v3.42a3.08,3.08,0,0,1,1.2-.85,4.2,4.2,0,0,1,1.66-.33,4.58,4.58,0,0,1,2.62.7,4.13,4.13,0,0,1,1.48,1.79,5.91,5.91,0,0,1,.46,2.33,5.19,5.19,0,0,1-1.31,3.7,4.83,4.83,0,0,1-3.73,1.4,5.49,5.49,0,0,1-3.64-1.14,4.26,4.26,0,0,1-1.54-3h2.72a2.13,2.13,0,0,0,.81,1.28,2.59,2.59,0,0,0,1.61.48,2.13,2.13,0,0,0,1.78-.74,3,3,0,0,0,.6-2,2.67,2.67,0,0,0-.61-1.89,2.35,2.35,0,0,0-1.79-.65,2.26,2.26,0,0,0-1.4.42,2.34,2.34,0,0,0-.8,1.12H47.18v-8.56h9Z"/><path class="cls-4" d="M60.53,385.16a4.56,4.56,0,0,1,4.15-2,4.56,4.56,0,0,1,4.15,2,10.09,10.09,0,0,1,1.25,5.42A10.22,10.22,0,0,1,68.83,396a4.53,4.53,0,0,1-4.15,2,4.53,4.53,0,0,1-4.15-2,10.22,10.22,0,0,1-1.25-5.46A10.09,10.09,0,0,1,60.53,385.16Zm6.6,2.93a3.41,3.41,0,0,0-.76-1.65,2.55,2.55,0,0,0-3.38,0,3.41,3.41,0,0,0-.76,1.65,13.56,13.56,0,0,0-.19,2.49,15,15,0,0,0,.18,2.55,3.16,3.16,0,0,0,.76,1.66,2.61,2.61,0,0,0,3.4,0,3.16,3.16,0,0,0,.76-1.66,15,15,0,0,0,.18-2.55A13.56,13.56,0,0,0,67.13,388.09Z"/><path class="cls-4" d="M194.35,590.64v-2.58h4.82v14.58h-2.88v-12Z"/><path class="cls-4" d="M203.36,588.81a5.22,5.22,0,0,1,3.45-1.09,5.6,5.6,0,0,1,2.5.51,3.61,3.61,0,0,1,1.57,1.38,3.66,3.66,0,0,1,.53,2,3.42,3.42,0,0,1-.65,2.13,3.17,3.17,0,0,1-1.55,1.17V595a3.34,3.34,0,0,1,1.81,1.28,3.94,3.94,0,0,1,.65,2.36,4.13,4.13,0,0,1-.55,2.14,3.63,3.63,0,0,1-1.62,1.47,5.77,5.77,0,0,1-2.57.53,5.72,5.72,0,0,1-3.68-1.14,4.31,4.31,0,0,1-1.5-3.36h2.72a2.19,2.19,0,0,0,.67,1.57,2.45,2.45,0,0,0,1.73.59,2.07,2.07,0,0,0,1.57-.57,2,2,0,0,0,.55-1.47,1.93,1.93,0,0,0-.76-1.72,4.19,4.19,0,0,0-2.36-.52h-.58v-2.3h.58c1.9,0,2.84-.63,2.84-1.9a1.76,1.76,0,0,0-.51-1.34,2.07,2.07,0,0,0-1.47-.48,2,2,0,0,0-1.45.51,2.1,2.1,0,0,0-.59,1.29H202A4.11,4.11,0,0,1,203.36,588.81Z"/><path class="cls-4" d="M217.84,599.89a2.35,2.35,0,0,0,1.53.47,1.89,1.89,0,0,0,1.8-1,7.68,7.68,0,0,0,.56-3.47,2.92,2.92,0,0,1-1.29,1,4.44,4.44,0,0,1-1.79.36,5,5,0,0,1-2.31-.53,3.93,3.93,0,0,1-1.63-1.58,5.06,5.06,0,0,1-.6-2.55,4.74,4.74,0,0,1,1.32-3.53,4.9,4.9,0,0,1,3.6-1.31,4.4,4.4,0,0,1,4,1.82,10.26,10.26,0,0,1,1.17,5.48,16.72,16.72,0,0,1-.45,4.26,4.59,4.59,0,0,1-1.54,2.52,4.67,4.67,0,0,1-3,.86,5.21,5.21,0,0,1-2.52-.57,4.11,4.11,0,0,1-1.59-1.5,4.78,4.78,0,0,1-.63-2.05h2.6A2.18,2.18,0,0,0,217.84,599.89Zm3-5.59a2.42,2.42,0,0,0,.6-1.72,2.51,2.51,0,0,0-.63-1.83,2.28,2.28,0,0,0-1.71-.65,2.22,2.22,0,0,0-1.71.67,2.78,2.78,0,0,0,0,3.5,2.35,2.35,0,0,0,1.83.67A2.12,2.12,0,0,0,220.87,594.3Z"/><path class="cls-4" d="M227.25,599.48q1.92-1.61,3.06-2.67a12.11,12.11,0,0,0,1.9-2.23,4.11,4.11,0,0,0,.76-2.28,2.44,2.44,0,0,0-.48-1.6,1.8,1.8,0,0,0-1.48-.58,1.86,1.86,0,0,0-1.54.67,3,3,0,0,0-.56,1.83h-2.72a5,5,0,0,1,1.43-3.64,4.87,4.87,0,0,1,3.43-1.24,4.74,4.74,0,0,1,3.5,1.21,4.27,4.27,0,0,1,1.22,3.19,5.78,5.78,0,0,1-.84,3,11.71,11.71,0,0,1-1.92,2.47c-.72.7-1.66,1.54-2.82,2.53h5.9v2.32h-9.88v-2.08Z"/><path class="cls-4" d="M452.85,590.64v-2.58h4.82v14.58h-2.88v-12Z"/><path class="cls-4" d="M461.86,588.81a5.19,5.19,0,0,1,3.45-1.09,5.6,5.6,0,0,1,2.5.51,3.67,3.67,0,0,1,1.57,1.38,3.75,3.75,0,0,1,.53,2,3.48,3.48,0,0,1-.65,2.13,3.17,3.17,0,0,1-1.55,1.17V595a3.38,3.38,0,0,1,1.81,1.28,3.94,3.94,0,0,1,.65,2.36,4.13,4.13,0,0,1-.55,2.14,3.74,3.74,0,0,1-1.62,1.47,5.77,5.77,0,0,1-2.57.53,5.7,5.7,0,0,1-3.68-1.14,4.24,4.24,0,0,1-1.5-3.36H463a2.19,2.19,0,0,0,.67,1.57,2.45,2.45,0,0,0,1.73.59,2.09,2.09,0,0,0,1.57-.57,2,2,0,0,0,.55-1.47,1.93,1.93,0,0,0-.76-1.72,4.21,4.21,0,0,0-2.36-.52h-.58v-2.3h.58c1.89,0,2.84-.63,2.84-1.9a1.76,1.76,0,0,0-.51-1.34,2.07,2.07,0,0,0-1.47-.48,2,2,0,0,0-1.45.51,2.1,2.1,0,0,0-.59,1.29h-2.74A4.11,4.11,0,0,1,461.86,588.81Z"/><path class="cls-4" d="M476.34,599.89a2.35,2.35,0,0,0,1.53.47,1.89,1.89,0,0,0,1.8-1,7.82,7.82,0,0,0,.56-3.47,3,3,0,0,1-1.29,1,4.44,4.44,0,0,1-1.79.36,5,5,0,0,1-2.31-.53,3.88,3.88,0,0,1-1.63-1.58,5.06,5.06,0,0,1-.6-2.55,4.74,4.74,0,0,1,1.32-3.53,4.9,4.9,0,0,1,3.6-1.31,4.41,4.41,0,0,1,4,1.82,10.26,10.26,0,0,1,1.17,5.48,16.72,16.72,0,0,1-.45,4.26,4.59,4.59,0,0,1-1.54,2.52,4.68,4.68,0,0,1-3,.86,5.16,5.16,0,0,1-2.52-.57,4.11,4.11,0,0,1-1.59-1.5,4.52,4.52,0,0,1-.63-2.05h2.6A2.18,2.18,0,0,0,476.34,599.89Zm3-5.59a2.42,2.42,0,0,0,.6-1.72,2.51,2.51,0,0,0-.63-1.83,2.28,2.28,0,0,0-1.71-.65,2.22,2.22,0,0,0-1.71.67,2.78,2.78,0,0,0,0,3.5,2.35,2.35,0,0,0,1.83.67A2.13,2.13,0,0,0,479.37,594.3Z"/><path class="cls-4" d="M484.75,599.8v-2.2l6.54-9.36h3.26v9.12h1.76v2.44h-1.76v2.84h-2.8V599.8Zm7.18-8.56-4.1,6.12h4.1Z"/><path class="cls-4" d="M712.43,590.64v-2.58h4.82v14.58h-2.88v-12Z"/><path class="cls-4" d="M721.44,588.81a5.19,5.19,0,0,1,3.45-1.09,5.66,5.66,0,0,1,2.5.51,3.57,3.57,0,0,1,2.1,3.35,3.48,3.48,0,0,1-.65,2.13,3.22,3.22,0,0,1-1.55,1.17V595a3.42,3.42,0,0,1,1.81,1.28,4,4,0,0,1,.65,2.36,4.23,4.23,0,0,1-.55,2.14,3.74,3.74,0,0,1-1.62,1.47,5.8,5.8,0,0,1-2.57.53,5.68,5.68,0,0,1-3.68-1.14,4.24,4.24,0,0,1-1.5-3.36h2.72a2.15,2.15,0,0,0,.67,1.57,2.43,2.43,0,0,0,1.73.59,2.09,2.09,0,0,0,1.57-.57,2.06,2.06,0,0,0,.55-1.47,2,2,0,0,0-.76-1.72,4.23,4.23,0,0,0-2.36-.52h-.58v-2.3H724c1.89,0,2.84-.63,2.84-1.9a1.76,1.76,0,0,0-.51-1.34,2.07,2.07,0,0,0-1.47-.48,2,2,0,0,0-1.45.51,2,2,0,0,0-.59,1.29H720A4,4,0,0,1,721.44,588.81Z"/><path class="cls-4" d="M735.92,599.89a2.35,2.35,0,0,0,1.53.47,1.91,1.91,0,0,0,1.8-1,7.82,7.82,0,0,0,.56-3.47,3,3,0,0,1-1.29,1,4.47,4.47,0,0,1-1.79.36,5,5,0,0,1-2.31-.53,3.88,3.88,0,0,1-1.63-1.58,5.06,5.06,0,0,1-.6-2.55,4.74,4.74,0,0,1,1.32-3.53,4.9,4.9,0,0,1,3.6-1.31,4.41,4.41,0,0,1,4,1.82,10.26,10.26,0,0,1,1.17,5.48,16.72,16.72,0,0,1-.45,4.26,4.65,4.65,0,0,1-1.54,2.52,4.7,4.7,0,0,1-3,.86,5.16,5.16,0,0,1-2.52-.57,4,4,0,0,1-1.59-1.5,4.52,4.52,0,0,1-.63-2.05h2.6A2.13,2.13,0,0,0,735.92,599.89Zm3-5.59a2.42,2.42,0,0,0,.6-1.72,2.51,2.51,0,0,0-.63-1.83,2.28,2.28,0,0,0-1.71-.65,2.22,2.22,0,0,0-1.71.67,2.49,2.49,0,0,0-.63,1.77,2.46,2.46,0,0,0,.61,1.73,2.32,2.32,0,0,0,1.83.67A2.13,2.13,0,0,0,739,594.3Z"/><path class="cls-4" d="M751.32,590.44a2.12,2.12,0,0,0-1.41-.42,2.18,2.18,0,0,0-2,1.11,7.48,7.48,0,0,0-.67,3.61,3.23,3.23,0,0,1,1.4-1.25,4.48,4.48,0,0,1,2-.45,4.69,4.69,0,0,1,2.3.56,4,4,0,0,1,1.56,1.63,5.51,5.51,0,0,1,.56,2.57,5.45,5.45,0,0,1-.57,2.53,4.1,4.1,0,0,1-1.67,1.73,5.31,5.31,0,0,1-2.62.62,5.23,5.23,0,0,1-3.27-.92,4.73,4.73,0,0,1-1.66-2.57,14.83,14.83,0,0,1-.47-4.07,9.94,9.94,0,0,1,1.26-5.53,5.2,5.2,0,0,1,7.24-.73,4.55,4.55,0,0,1,1.34,2.84H752A2.39,2.39,0,0,0,751.32,590.44ZM748.19,596a2.24,2.24,0,0,0-.72,1.8A2.34,2.34,0,0,0,750,600.3a2.25,2.25,0,0,0,1.71-.66,2.47,2.47,0,0,0,.63-1.78,2.69,2.69,0,0,0-.61-1.84,2.31,2.31,0,0,0-1.79-.68A2.64,2.64,0,0,0,748.19,596Z"/><path class="cls-4" d="M972,590.88v-2.51h4.7v14.2h-2.81V590.88Z"/><path class="cls-4" d="M980.78,589.1a5.07,5.07,0,0,1,3.36-1.06,5.53,5.53,0,0,1,2.44.49,3.47,3.47,0,0,1,2,3.27,3.35,3.35,0,0,1-.63,2.07,3,3,0,0,1-1.51,1.14v.08a3.31,3.31,0,0,1,1.77,1.25,3.91,3.91,0,0,1,.63,2.3,4,4,0,0,1-.54,2.08,3.69,3.69,0,0,1-1.58,1.44,6.37,6.37,0,0,1-6.09-.6,4.15,4.15,0,0,1-1.46-3.27h2.65a2.17,2.17,0,0,0,.66,1.53,2.36,2.36,0,0,0,1.68.57,2,2,0,0,0,1.53-.55,2,2,0,0,0,.54-1.44,1.88,1.88,0,0,0-.74-1.67,4.12,4.12,0,0,0-2.3-.51h-.57V594h.57c1.84,0,2.76-.62,2.76-1.85a1.71,1.71,0,0,0-.49-1.31,2,2,0,0,0-1.44-.46,1.91,1.91,0,0,0-1.41.49,2,2,0,0,0-.57,1.26h-2.67A4,4,0,0,1,980.78,589.1Z"/><path class="cls-4" d="M994.89,599.89a2.25,2.25,0,0,0,1.49.46,1.83,1.83,0,0,0,1.75-1,7.49,7.49,0,0,0,.55-3.38,3,3,0,0,1-1.26,1,4.23,4.23,0,0,1-1.74.35,4.9,4.9,0,0,1-2.25-.51,3.86,3.86,0,0,1-1.59-1.54,5,5,0,0,1-.59-2.49,4.62,4.62,0,0,1,1.29-3.44,4.77,4.77,0,0,1,3.51-1.27,4.3,4.3,0,0,1,3.91,1.77,10,10,0,0,1,1.14,5.34,16.35,16.35,0,0,1-.44,4.15,4.5,4.5,0,0,1-1.5,2.46,4.63,4.63,0,0,1-2.9.83,5,5,0,0,1-2.45-.55,4,4,0,0,1-1.55-1.46,4.6,4.6,0,0,1-.62-2h2.54A2.08,2.08,0,0,0,994.89,599.89Zm3-5.44a2.37,2.37,0,0,0,.59-1.68,2.45,2.45,0,0,0-.62-1.78,2.21,2.21,0,0,0-1.66-.63,2.17,2.17,0,0,0-1.67.65,2.72,2.72,0,0,0,0,3.41,2.31,2.31,0,0,0,1.78.65A2.1,2.1,0,0,0,997.84,594.45Z"/><path class="cls-4" d="M1003.63,591.91a3.57,3.57,0,0,1,.54-1.92,3.74,3.74,0,0,1,1.61-1.38,6.15,6.15,0,0,1,2.64-.52,6.23,6.23,0,0,1,2.65.52,3.74,3.74,0,0,1,1.61,1.38,3.57,3.57,0,0,1,.54,1.92,3.34,3.34,0,0,1-.53,1.88,3.62,3.62,0,0,1-1.4,1.26,3.86,3.86,0,0,1,1.68,1.37,3.69,3.69,0,0,1,.6,2.12,4,4,0,0,1-.67,2.31,4.35,4.35,0,0,1-1.84,1.51,6.79,6.79,0,0,1-5.26,0,4.32,4.32,0,0,1-1.83-1.51,4,4,0,0,1-.67-2.31,3.75,3.75,0,0,1,.6-2.13,3.65,3.65,0,0,1,1.68-1.36A3.32,3.32,0,0,1,1003.63,591.91Zm3,4.9a2,2,0,0,0-.69,1.61,2,2,0,0,0,.67,1.59,2.61,2.61,0,0,0,1.82.62,2.55,2.55,0,0,0,1.82-.63,2.07,2.07,0,0,0,.66-1.58,2,2,0,0,0-.68-1.6,2.67,2.67,0,0,0-1.8-.58A2.73,2.73,0,0,0,1006.62,596.81Zm3.37-6a2.22,2.22,0,0,0-1.57-.52,2.18,2.18,0,0,0-1.54.52,1.91,1.91,0,0,0-.58,1.5,1.8,1.8,0,0,0,.59,1.41,2.51,2.51,0,0,0,3.07,0,1.79,1.79,0,0,0,.61-1.42A1.89,1.89,0,0,0,1010,590.82Z"/><path class="cls-4" d="M47.67,551.23a4.54,4.54,0,0,1,4.15-2,4.54,4.54,0,0,1,4.15,2,10.06,10.06,0,0,1,1.25,5.42A10.22,10.22,0,0,1,56,562.11a4.53,4.53,0,0,1-4.15,2,4.53,4.53,0,0,1-4.15-2,10.22,10.22,0,0,1-1.25-5.46A10.06,10.06,0,0,1,47.67,551.23Zm6.6,2.93a3.41,3.41,0,0,0-.76-1.65,2.55,2.55,0,0,0-3.38,0,3.41,3.41,0,0,0-.76,1.65,13.41,13.41,0,0,0-.19,2.49,15.21,15.21,0,0,0,.18,2.55,3.16,3.16,0,0,0,.76,1.66,2.61,2.61,0,0,0,3.4,0,3.16,3.16,0,0,0,.76-1.66,15.21,15.21,0,0,0,.18-2.55A13.41,13.41,0,0,0,54.27,554.16Z"/></g></svg>