<svg xmlns="http://www.w3.org/2000/svg" viewBox="0 0 1152 648"><defs><style>.cls-1{fill:#a4a4a4;}.cls-2{fill:#79e45e;}.cls-3{fill:#fff;}</style></defs><g id="Layer_6" data-name="Layer 6"><rect class="cls-1" y="-0.29" width="1152" height="648.29"/><rect x="310.68" y="323" width="794.32" height="2"/><polygon class="cls-2" points="1097.41 314.77 1097.41 333.23 1106.64 324 1097.41 314.77"/><circle cx="986.32" cy="139.12" r="60.18"/><rect class="cls-2" x="1007.27" y="139.94" width="16.11" height="16.11"/><rect class="cls-2" x="949.26" y="117.38" width="16.11" height="38.67"/><rect class="cls-2" x="987.93" y="117.38" width="16.11" height="38.67"/><circle class="cls-2" cx="976.65" cy="148" r="8.06"/><circle class="cls-2" cx="1015.33" cy="167.34" r="8.06"/><rect class="cls-2" y="-0.14" width="222.24" height="648.29"/><rect x="706.84" y="54.59" width="2" height="548.05"/><circle class="cls-2" cx="1069.09" cy="449.24" r="10.65"/><path class="cls-3" d="M753.67,437.7v22.19h-4.45v-9.44h-9.51v9.44h-4.45V437.7h4.45v9.12h9.51V437.7Z"/><path class="cls-3" d="M771.66,455.66h-8.84l-1.46,4.23h-4.67l8-22.22h5.18l8,22.22h-4.71Zm-1.21-3.56-3.21-9.28L764,452.1Z"/><path class="cls-3" d="M805,437.7v22.19h-4.45V445.45l-5.94,14.44h-3.37l-6-14.44v14.44h-4.45V437.7h5.06l7,16.5L800,437.7Z"/><path class="cls-3" d="M820.83,459.89l-4.89-8.65h-2.1v8.65h-4.45V437.7h8.33a9.78,9.78,0,0,1,4.38.9,6.33,6.33,0,0,1,2.72,2.45,6.89,6.89,0,0,1-.36,7.41,6.54,6.54,0,0,1-3.79,2.43l5.31,9Zm-7-12h3.72a3.71,3.71,0,0,0,2.7-.87,3.26,3.26,0,0,0,.89-2.43,3.11,3.11,0,0,0-.89-2.37,3.8,3.8,0,0,0-2.7-.84h-3.72Z"/><path class="cls-3" d="M843.37,455.66h-8.84l-1.46,4.23H828.4l8-22.22h5.18l8,22.22h-4.7Zm-1.21-3.56L839,442.82l-3.21,9.28Z"/><path class="cls-3" d="M870.93,437.7v22.19h-4.45v-9.44H857v9.44h-4.45V437.7H857v9.12h9.51V437.7Z"/><path class="cls-3" d="M907.06,437.7v22.19h-4.44V445.45l-6,14.44H893.3l-6-14.44v14.44h-4.45V437.7h5L895,454.2l7-16.5Z"/><path class="cls-3" d="M915.9,441.29v5.56h7.47v3.53H915.9v5.88h8.42v3.63H911.45V437.67h12.87v3.62Z"/><path class="cls-3" d="M928.76,442.9a10.5,10.5,0,0,1,4-4,11.52,11.52,0,0,1,5.74-1.45,11.32,11.32,0,0,1,6.52,1.91A10,10,0,0,1,949,444.6h-5.12a5.33,5.33,0,0,0-2.14-2.39,6.33,6.33,0,0,0-3.2-.79,6.62,6.62,0,0,0-3.45.9,6.2,6.2,0,0,0-2.35,2.56,9.33,9.33,0,0,0,0,7.74,6.13,6.13,0,0,0,2.35,2.58,6.62,6.62,0,0,0,3.45.9,6.24,6.24,0,0,0,3.2-.81,5.4,5.4,0,0,0,2.14-2.4H949a9.93,9.93,0,0,1-3.9,5.3,11.33,11.33,0,0,1-6.53,1.89,11.52,11.52,0,0,1-5.74-1.45,10.52,10.52,0,0,1-4-4,12.32,12.32,0,0,1,0-11.71Z"/><path class="cls-3" d="M971.18,437.7v22.19h-4.45v-9.44h-9.51v9.44h-4.45V437.7h4.45v9.12h9.51V437.7Z"/><path class="cls-3" d="M989.17,455.66h-8.84l-1.46,4.23H974.2l8-22.22h5.18l8,22.22h-4.7ZM988,452.1l-3.21-9.28-3.21,9.28Z"/><path class="cls-3" d="M1017.3,459.89h-4.45l-10.08-15.23v15.23h-4.45V437.67h4.45l10.08,15.25V437.67h4.45Z"/><path class="cls-3" d="M1026.13,437.7v22.19h-4.45V437.7Z"/><path class="cls-3" d="M1030.92,442.9a10.5,10.5,0,0,1,4-4,11.52,11.52,0,0,1,5.74-1.45,11.32,11.32,0,0,1,6.52,1.91,10,10,0,0,1,3.91,5.28H1046a5.29,5.29,0,0,0-2.15-2.39,6.26,6.26,0,0,0-3.19-.79,6.62,6.62,0,0,0-3.45.9,6.2,6.2,0,0,0-2.35,2.56,9.33,9.33,0,0,0,0,7.74,6.13,6.13,0,0,0,2.35,2.58,6.62,6.62,0,0,0,3.45.9,6.18,6.18,0,0,0,3.19-.81,5.37,5.37,0,0,0,2.15-2.4h5.12a9.93,9.93,0,0,1-3.9,5.3,11.33,11.33,0,0,1-6.53,1.89,11.52,11.52,0,0,1-5.74-1.45,10.52,10.52,0,0,1-4-4,12.32,12.32,0,0,1,0-11.71Z"/><polygon class="cls-2" points="699.12 54.59 717.58 54.59 708.35 45.36 699.12 54.59"/><circle class="cls-2" cx="608.46" cy="394.55" r="10.65"/><path class="cls-3" d="M507.79,384.38a9.75,9.75,0,0,1,4.1,3.89,11.66,11.66,0,0,1,1.45,5.87,11.46,11.46,0,0,1-1.45,5.83,9.8,9.8,0,0,1-4.1,3.86,13.27,13.27,0,0,1-6.15,1.37h-7.76V383h7.76A13.27,13.27,0,0,1,507.79,384.38Zm-.91,15.13a7.22,7.22,0,0,0,1.91-5.37,7.39,7.39,0,0,0-1.91-5.42,7.17,7.17,0,0,0-5.4-2h-3.15v14.66h3.15A7.31,7.31,0,0,0,506.88,399.51Z"/><path class="cls-3" d="M521.12,383V405.2h-4.45V383Z"/><path class="cls-3" d="M545.44,383,537.3,405.2h-5.4L523.76,383h4.77l6.1,17.64L540.7,383Z"/><path class="cls-3" d="M561.71,401h-8.83l-1.46,4.23h-4.68l8-22.22h5.18l8,22.22h-4.7Zm-1.2-3.56-3.21-9.28-3.21,9.28Z"/><path class="cls-3" d="M582.31,405.2l-4.89-8.65h-2.1v8.65h-4.45V383h8.33a9.61,9.61,0,0,1,4.38.91,6.27,6.27,0,0,1,2.72,2.45,6.88,6.88,0,0,1-.36,7.4,6.49,6.49,0,0,1-3.79,2.43l5.31,9Zm-7-12H579a3.72,3.72,0,0,0,2.7-.88,3.26,3.26,0,0,0,.89-2.43,3.11,3.11,0,0,0-.89-2.37,3.8,3.8,0,0,0-2.7-.84h-3.72Z"/><circle class="cls-2" cx="517.11" cy="524.61" r="10.65"/><path class="cls-3" d="M337.29,534.69a7,7,0,0,1-2.94-2.29,6,6,0,0,1-1.11-3.53H338a3.06,3.06,0,0,0,1,2.16,3.43,3.43,0,0,0,2.4.8,3.7,3.7,0,0,0,2.45-.75,2.44,2.44,0,0,0,.89-2,2.22,2.22,0,0,0-.61-1.62,4,4,0,0,0-1.51-1,23.39,23.39,0,0,0-2.49-.82,26.69,26.69,0,0,1-3.51-1.25,6,6,0,0,1-2.32-1.88,5.3,5.3,0,0,1-1-3.35,6,6,0,0,1,1-3.43,6.25,6.25,0,0,1,2.77-2.24,10,10,0,0,1,4.06-.78,8.78,8.78,0,0,1,5.58,1.67,6.18,6.18,0,0,1,2.37,4.65h-4.89a2.59,2.59,0,0,0-1-1.89,3.66,3.66,0,0,0-2.4-.74,3.09,3.09,0,0,0-2.08.66,2.42,2.42,0,0,0-.78,1.94,2,2,0,0,0,.58,1.48,4.5,4.5,0,0,0,1.47,1,24.47,24.47,0,0,0,2.46.85A24.64,24.64,0,0,1,346,523.6a6.38,6.38,0,0,1,2.35,1.9,5.29,5.29,0,0,1,1,3.34,6.25,6.25,0,0,1-.93,3.31,6.54,6.54,0,0,1-2.7,2.43,9.23,9.23,0,0,1-4.23.9A10.56,10.56,0,0,1,337.29,534.69Z"/><path class="cls-3" d="M371.58,513.08v22.18h-4.45v-9.44h-9.51v9.44h-4.45V513.08h4.45v9.12h9.51v-9.12Z"/><path class="cls-3" d="M380.41,516.67v5.56h7.47v3.53h-7.47v5.88h8.42v3.62H376V513h12.87v3.63Z"/><path class="cls-3" d="M410.51,513.08,403,527.54v7.72h-4.45v-7.72L391,513.08h5l4.77,10.14,4.73-10.14Z"/><path class="cls-3" d="M428.42,523.28a6.21,6.21,0,0,1-2.63,2.51,9.56,9.56,0,0,1-4.53,1h-3.72v8.52h-4.45V513.08h8.17a9.75,9.75,0,0,1,4.38.89,6.19,6.19,0,0,1,2.72,2.44,7,7,0,0,1,.91,3.53A6.83,6.83,0,0,1,428.42,523.28Zm-4.62-1a3.11,3.11,0,0,0,.89-2.37q0-3.24-3.62-3.24h-3.53v6.45h3.53A3.86,3.86,0,0,0,423.8,522.31Z"/><path class="cls-3" d="M437,534a10.85,10.85,0,0,1-4.13-4,11.95,11.95,0,0,1,0-11.7,10.92,10.92,0,0,1,4.13-4,12,12,0,0,1,11.46,0,10.84,10.84,0,0,1,4.1,4,12.09,12.09,0,0,1,0,11.7,10.76,10.76,0,0,1-4.12,4A11.93,11.93,0,0,1,437,534Zm9.25-3.41a6.22,6.22,0,0,0,2.38-2.59,8.43,8.43,0,0,0,.86-3.91,8.31,8.31,0,0,0-.86-3.9,6.14,6.14,0,0,0-2.38-2.56,6.91,6.91,0,0,0-3.53-.89,7,7,0,0,0-3.54.89,6.12,6.12,0,0,0-2.4,2.56,8.43,8.43,0,0,0-.86,3.9,8.56,8.56,0,0,0,.86,3.91,6.2,6.2,0,0,0,2.4,2.59,6.9,6.9,0,0,0,3.54.9A6.81,6.81,0,0,0,446.24,530.61Z"/><path class="cls-3" d="M461.75,513.08v13.73a4.7,4.7,0,0,0,1.18,3.45,4.43,4.43,0,0,0,3.3,1.19,4.5,4.5,0,0,0,3.34-1.19,4.75,4.75,0,0,0,1.18-3.45V513.08h4.48v13.7a8.8,8.8,0,0,1-1.23,4.78,7.74,7.74,0,0,1-3.27,2.94,10.36,10.36,0,0,1-4.56,1,10.1,10.1,0,0,1-4.5-1,7.54,7.54,0,0,1-3.19-2.94,9.06,9.06,0,0,1-1.18-4.78v-13.7Z"/><path class="cls-3" d="M491,535.26l-4.89-8.64H484v8.64h-4.45V513.08h8.33a9.78,9.78,0,0,1,4.38.9,6.33,6.33,0,0,1,2.72,2.45,6.73,6.73,0,0,1,.91,3.45,6.62,6.62,0,0,1-1.28,4,6.53,6.53,0,0,1-3.78,2.43l5.31,9Zm-7-12h3.72a3.67,3.67,0,0,0,2.7-.88,3.26,3.26,0,0,0,.89-2.43,3.11,3.11,0,0,0-.89-2.36,3.75,3.75,0,0,0-2.7-.85H484Z"/><path class="cls-3" d="M998.49,300.34a3.56,3.56,0,0,1,1.36-1.39,3.66,3.66,0,0,1,1.91-.5,3.9,3.9,0,0,1,2.21.61,3.45,3.45,0,0,1,1.33,1.72h-.9a2.64,2.64,0,0,0-1-1.22,2.86,2.86,0,0,0-1.63-.44,3,3,0,0,0-1.52.39,2.78,2.78,0,0,0-1.06,1.14,3.66,3.66,0,0,0-.39,1.72,3.61,3.61,0,0,0,.39,1.72,2.7,2.7,0,0,0,1.06,1.13,2.9,2.9,0,0,0,1.52.4,2.94,2.94,0,0,0,1.63-.44,2.64,2.64,0,0,0,1-1.2h.9a3.47,3.47,0,0,1-1.34,1.71,4,4,0,0,1-2.2.6,3.75,3.75,0,0,1-1.91-.5,3.56,3.56,0,0,1-1.36-1.39,4.45,4.45,0,0,1,0-4.06Z"/><path class="cls-3" d="M1006.85,301.59a2.6,2.6,0,0,1,1-1.08,2.94,2.94,0,0,1,1.48-.38,2.64,2.64,0,0,1,1.48.4,2.3,2.3,0,0,1,.9,1v-1.32h.77v6h-.77v-1.33a2.47,2.47,0,0,1-.91,1,2.64,2.64,0,0,1-1.48.4,2.93,2.93,0,0,1-1.47-.38,2.68,2.68,0,0,1-1-1.09,3.41,3.41,0,0,1-.37-1.63A3.34,3.34,0,0,1,1006.85,301.59Zm4.58.35a2.17,2.17,0,0,0-1.94-1.14,2.3,2.3,0,0,0-1.14.29,2,2,0,0,0-.8.83,2.73,2.73,0,0,0-.29,1.29,2.79,2.79,0,0,0,.29,1.29,2.06,2.06,0,0,0,.8.85,2.3,2.3,0,0,0,1.14.29,2.2,2.2,0,0,0,1.13-.3,2.12,2.12,0,0,0,.81-.84,2.88,2.88,0,0,0,0-2.56Z"/><path class="cls-3" d="M1015.8,300.42a2.45,2.45,0,0,1,1.28-.31v.8h-.2a1.68,1.68,0,0,0-1.85,2v3.35h-.77v-6h.77v1.06A1.84,1.84,0,0,1,1015.8,300.42Z"/><path class="cls-3" d="M1022,301.82v.65h-4.28v-.65Z"/><path class="cls-3" d="M1024.72,299.16V302h2.91v.64h-2.91v2.92H1028v.63h-4v-7.7h4v.64Z"/><path class="cls-3" d="M1032.63,306.22l-1.55-2.42-1.5,2.42h-.81l1.93-3-1.91-3h.87l1.53,2.38,1.48-2.38h.8l-1.91,3,1.94,3Z"/><path class="cls-3" d="M1036.21,300.53a2.62,2.62,0,0,1,1.48-.4,2.86,2.86,0,0,1,1.46.38,2.62,2.62,0,0,1,1,1.08,3.46,3.46,0,0,1,.37,1.62,3.53,3.53,0,0,1-.37,1.63,2.71,2.71,0,0,1-1,1.09,2.86,2.86,0,0,1-1.46.38,2.67,2.67,0,0,1-1.48-.4,2.38,2.38,0,0,1-.91-1v4.16h-.76v-8.84h.76v1.32A2.38,2.38,0,0,1,1036.21,300.53Zm3.26,1.39a2,2,0,0,0-.79-.83,2.31,2.31,0,0,0-1.15-.29,2.22,2.22,0,0,0-1.13.3,2.09,2.09,0,0,0-.8.84,2.88,2.88,0,0,0,0,2.56,2,2,0,0,0,.8.84,2.22,2.22,0,0,0,1.13.3,2.31,2.31,0,0,0,1.15-.29,2,2,0,0,0,.79-.85,2.67,2.67,0,0,0,.3-1.29A2.62,2.62,0,0,0,1039.47,301.92Z"/><path class="cls-3" d="M1047.38,303.52h-5a2.59,2.59,0,0,0,.33,1.16,2,2,0,0,0,.78.74,2.39,2.39,0,0,0,1.06.24,2.13,2.13,0,0,0,1.26-.36,1.71,1.71,0,0,0,.68-1h.81a2.56,2.56,0,0,1-.94,1.44,2.87,2.87,0,0,1-1.81.55,3,3,0,0,1-1.52-.38,2.73,2.73,0,0,1-1-1.08,3.38,3.38,0,0,1-.38-1.63,3.45,3.45,0,0,1,.38-1.64,2.58,2.58,0,0,1,1-1.08,3.09,3.09,0,0,1,1.53-.37,2.93,2.93,0,0,1,1.5.37,2.6,2.6,0,0,1,1,1,2.88,2.88,0,0,1,.35,1.4C1047.4,303.18,1047.39,303.38,1047.38,303.52Zm-1-1.77a1.78,1.78,0,0,0-.77-.72,2.31,2.31,0,0,0-1-.24,2.07,2.07,0,0,0-1.46.55,2.2,2.2,0,0,0-.68,1.55h4.23A2.14,2.14,0,0,0,1046.35,301.75Z"/><path class="cls-3" d="M1050.35,300.42a2.45,2.45,0,0,1,1.28-.31v.8h-.2a1.68,1.68,0,0,0-1.85,2v3.35h-.77v-6h.77v1.06A1.84,1.84,0,0,1,1050.35,300.42Z"/><path class="cls-3" d="M1053.79,300.87v3.73a1,1,0,0,0,.21.75,1,1,0,0,0,.74.21h.7v.66h-.82a1.64,1.64,0,0,1-1.21-.38,1.62,1.62,0,0,1-.4-1.24v-3.73h-.84v-.65h.84v-1.51h.78v1.51h1.65v.65Z"/><path class="cls-3" d="M1064,302.34a2.79,2.79,0,0,1-2,.61h-1.55v3.27h-.77v-7.69H1062a2.78,2.78,0,0,1,1.94.61,2.28,2.28,0,0,1,0,3.2Zm-.15-1.59a1.52,1.52,0,0,0-.42-1.17,2,2,0,0,0-1.38-.4h-1.55v3.11H1062C1063.24,302.29,1063.84,301.77,1063.84,300.75Z"/><path class="cls-3" d="M1066.69,298.08v8.14h-.77v-8.14Z"/><path class="cls-3" d="M1068.46,301.59a2.54,2.54,0,0,1,1-1.08,2.94,2.94,0,0,1,1.48-.38,2.64,2.64,0,0,1,1.48.4,2.36,2.36,0,0,1,.9,1v-1.32h.77v6h-.77v-1.33a2.47,2.47,0,0,1-.91,1,2.67,2.67,0,0,1-1.48.4,2.93,2.93,0,0,1-1.47-.38,2.62,2.62,0,0,1-1-1.09,3.41,3.41,0,0,1-.37-1.63A3.34,3.34,0,0,1,1068.46,301.59Zm4.58.35a2.17,2.17,0,0,0-1.94-1.14,2.3,2.3,0,0,0-1.14.29,2,2,0,0,0-.8.83,2.73,2.73,0,0,0-.29,1.29,2.79,2.79,0,0,0,.29,1.29,2.06,2.06,0,0,0,.8.85,2.3,2.3,0,0,0,1.14.29,2.2,2.2,0,0,0,1.13-.3,2.12,2.12,0,0,0,.81-.84,2.88,2.88,0,0,0,0-2.56Z"/><path class="cls-3" d="M1076.87,300.87v3.73a1,1,0,0,0,.21.75,1,1,0,0,0,.73.21h.71v.66h-.83a1.39,1.39,0,0,1-1.6-1.62v-3.73h-.84v-.65h.84v-1.51h.78v1.51h1.65v.65Z"/><path class="cls-3" d="M1082.15,300.87h-1.4v5.35H1080v-5.35h-.84v-.65h.84v-.42a1.89,1.89,0,0,1,.5-1.44,2.34,2.34,0,0,1,1.62-.46v.66a1.52,1.52,0,0,0-1,.28,1.28,1.28,0,0,0-.3,1v.42h1.4Z"/><path class="cls-3" d="M1084.46,305.93a2.69,2.69,0,0,1-1.06-1.08,3.6,3.6,0,0,1,0-3.26,2.74,2.74,0,0,1,1.08-1.08,3.1,3.1,0,0,1,1.53-.38,3.15,3.15,0,0,1,1.53.38,2.67,2.67,0,0,1,1.08,1.08,3.6,3.6,0,0,1,0,3.26,2.76,2.76,0,0,1-1.09,1.08,3.11,3.11,0,0,1-1.54.38A3,3,0,0,1,1084.46,305.93Zm2.63-.56a2.12,2.12,0,0,0,.82-.81,3.05,3.05,0,0,0,0-2.68,2,2,0,0,0-.81-.81,2.33,2.33,0,0,0-1.1-.27,2.27,2.27,0,0,0-1.1.27,2,2,0,0,0-.81.81,3.14,3.14,0,0,0,0,2.68,2,2,0,0,0,.8.81,2.3,2.3,0,0,0,1.1.27A2.33,2.33,0,0,0,1087.09,305.37Z"/><path class="cls-3" d="M1092,300.42a2.47,2.47,0,0,1,1.29-.31v.8H1093a1.69,1.69,0,0,0-1.85,2v3.35h-.77v-6h.77v1.06A1.9,1.9,0,0,1,1092,300.42Z"/><path class="cls-3" d="M1103.27,300.77a2.6,2.6,0,0,1,.67,1.93v3.52h-.76v-3.43a2.15,2.15,0,0,0-.47-1.49,1.66,1.66,0,0,0-1.29-.52,1.72,1.72,0,0,0-1.35.56,2.34,2.34,0,0,0-.51,1.63v3.25h-.76v-3.43a2.15,2.15,0,0,0-.47-1.49,1.67,1.67,0,0,0-1.3-.52,1.73,1.73,0,0,0-1.35.56,2.34,2.34,0,0,0-.51,1.63v3.25h-.77v-6h.77v1a1.93,1.93,0,0,1,.82-.85,2.42,2.42,0,0,1,1.17-.29,2.49,2.49,0,0,1,1.37.37.87.87,0,1,0,1.68,0,2.38,2.38,0,0,1,1.34-.38A2.32,2.32,0,0,1,1103.27,300.77Z"/><path class="cls-3" d="M677,118.9h7.69v.77h-3.6v4.16h3.6v.77H677v-.77h3.45v-4.16H677Z"/><path class="cls-3" d="M677.4,117.15a.54.54,0,0,1-.4.16.54.54,0,0,1-.41-.16.58.58,0,0,1,0-.8.54.54,0,0,1,.41-.16.54.54,0,0,1,.4.16.56.56,0,0,1,0,.8Zm1.3-.78h6v.77h-6Z"/><path class="cls-3" d="M679,110.62a2.33,2.33,0,0,1,1-.9H678.7V109h6.16a2.9,2.9,0,0,1,1.46.36,2.48,2.48,0,0,1,1,1,3,3,0,0,1,.34,1.46,3.18,3.18,0,0,1-.55,1.92,2.32,2.32,0,0,1-1.49.95v-.76a1.8,1.8,0,0,0,1-.76,2.35,2.35,0,0,0,.37-1.35,2.26,2.26,0,0,0-.24-1.05A1.72,1.72,0,0,0,686,110a2.29,2.29,0,0,0-1.14-.27h-1.48a2.38,2.38,0,0,1,1,.91,2.61,2.61,0,0,1,.4,1.47,2.84,2.84,0,0,1-.38,1.48,2.75,2.75,0,0,1-1.09,1,3.75,3.75,0,0,1-3.25,0,2.66,2.66,0,0,1-1.08-1,2.94,2.94,0,0,1-.38-1.48A2.67,2.67,0,0,1,679,110.62Zm1.42-.6a2.16,2.16,0,0,0-1.15,1.93,2.31,2.31,0,0,0,.29,1.15,2.07,2.07,0,0,0,.83.8,2.73,2.73,0,0,0,1.29.29,2.79,2.79,0,0,0,1.29-.29,2.06,2.06,0,0,0,.85-.8,2.21,2.21,0,0,0,.29-1.15,2.25,2.25,0,0,0-.29-1.12A2.14,2.14,0,0,0,683,110a2.63,2.63,0,0,0-1.28-.3A2.59,2.59,0,0,0,680.43,110Z"/><path class="cls-3" d="M678.88,103.1a2,2,0,0,1,.87-.85,3,3,0,0,1,1.44-.32h3.52v.76h-3.44a2.1,2.1,0,0,0-1.49.49,1.74,1.74,0,0,0-.52,1.34,1.78,1.78,0,0,0,.55,1.38,2.27,2.27,0,0,0,1.62.52h3.28v.77h-8.14v-.77h3.15a1.92,1.92,0,0,1-.83-.84,2.6,2.6,0,0,1-.3-1.25A2.66,2.66,0,0,1,678.88,103.1Z"/><path class="cls-3" d="M680.31,96.5H681v4.28h-.65Z"/><path class="cls-3" d="M677.64,93.75h2.87V90.83h.64v2.92h2.92V90.5h.64v4H677v-4h.63Z"/><path class="cls-3" d="M679.26,84.41a2.58,2.58,0,0,1,1.93-.68h3.52v.76h-3.44a2.06,2.06,0,0,0-1.49.49,1.72,1.72,0,0,0-.52,1.33,1.8,1.8,0,0,0,.55,1.39,2.32,2.32,0,0,0,1.62.52h3.28V89h-6v-.77h1a2,2,0,0,1-.84-.83,2.56,2.56,0,0,1-.29-1.22A2.4,2.4,0,0,1,679.26,84.41Z"/><path class="cls-3" d="M680.07,82A2.62,2.62,0,0,1,679,81a2.91,2.91,0,0,1-.38-1.48,2.72,2.72,0,0,1,.39-1.43,2.35,2.35,0,0,1,1-.93h-3.43v-.77h8.14v.77h-1.35a2.28,2.28,0,0,1,1,.9,2.66,2.66,0,0,1,.4,1.47,2.79,2.79,0,0,1-.38,1.48,2.71,2.71,0,0,1-1.09,1,3.53,3.53,0,0,1-1.63.37A3.4,3.4,0,0,1,680.07,82Zm.36-4.57a2.05,2.05,0,0,0-.85.8,2.22,2.22,0,0,0-.3,1.13,2.31,2.31,0,0,0,.29,1.15,2,2,0,0,0,.83.79,2.62,2.62,0,0,0,1.29.3,2.67,2.67,0,0,0,1.29-.3,2,2,0,0,0,.85-.79,2.21,2.21,0,0,0,.29-1.15,2.32,2.32,0,0,0-.29-1.13,2.05,2.05,0,0,0-.85-.8,2.63,2.63,0,0,0-1.28-.3A2.59,2.59,0,0,0,680.43,77.43Z"/><path class="cls-3" d="M678.83,71.44a3.57,3.57,0,0,1-1.4-1.35,3.77,3.77,0,0,1-.5-1.92,3.86,3.86,0,0,1,.61-2.2,3.51,3.51,0,0,1,1.72-1.34v.91a2.56,2.56,0,0,0-1.22,1,3,3,0,0,0-.44,1.63,2.91,2.91,0,0,0,.4,1.53,2.76,2.76,0,0,0,1.13,1.06,3.68,3.68,0,0,0,1.73.38,3.59,3.59,0,0,0,1.71-.38,2.85,2.85,0,0,0,1.14-1.06,3,3,0,0,0,.39-1.53,3,3,0,0,0-.43-1.63,2.54,2.54,0,0,0-1.21-1v-.91A3.48,3.48,0,0,1,684.17,66a4,4,0,0,1,.6,2.2,3.67,3.67,0,0,1-.5,1.92,3.61,3.61,0,0,1-1.39,1.35,4.35,4.35,0,0,1-4,0Z"/><path class="cls-3" d="M680.07,63.09a2.62,2.62,0,0,1-1.08-1,2.88,2.88,0,0,1-.38-1.48,2.61,2.61,0,0,1,.4-1.47,2.24,2.24,0,0,1,1-.9H678.7v-.77h6v.77h-1.33a2.38,2.38,0,0,1,1,.91,2.62,2.62,0,0,1,.4,1.48,2.77,2.77,0,0,1-.38,1.46,2.71,2.71,0,0,1-1.09,1,3.75,3.75,0,0,1-3.25,0Zm.36-4.58a2.05,2.05,0,0,0-.85.8,2.22,2.22,0,0,0-.3,1.13,2.31,2.31,0,0,0,.29,1.15,2,2,0,0,0,.83.79,2.62,2.62,0,0,0,1.29.3,2.67,2.67,0,0,0,1.29-.3,2,2,0,0,0,.85-.79,2.21,2.21,0,0,0,.29-1.15,2.32,2.32,0,0,0-.29-1.13,2.05,2.05,0,0,0-.85-.8,2.63,2.63,0,0,0-1.28-.3A2.59,2.59,0,0,0,680.43,58.51Z"/><path class="cls-3" d="M678.9,54.13a2.4,2.4,0,0,1-.31-1.28h.8v.21a1.69,1.69,0,0,0,2,1.85h3.36v.77h-6v-.77h1.07A1.84,1.84,0,0,1,678.9,54.13Z"/><path class="cls-3" d="M684.32,51.32a1.77,1.77,0,0,1-1.31.73v-.79a1.15,1.15,0,0,0,.82-.48,1.86,1.86,0,0,0,.31-1.14,1.45,1.45,0,0,0-.29-1,.93.93,0,0,0-.74-.36.69.69,0,0,0-.51.2,1.37,1.37,0,0,0-.31.5,7.06,7.06,0,0,0-.25.82,7.42,7.42,0,0,1-.35,1.09,1.89,1.89,0,0,1-.52.7,1.37,1.37,0,0,1-.93.3,1.34,1.34,0,0,1-.81-.27,1.76,1.76,0,0,1-.6-.75,2.7,2.7,0,0,1-.22-1.1,2.43,2.43,0,0,1,.49-1.56,1.82,1.82,0,0,1,1.35-.64v.77a1.17,1.17,0,0,0-.85.42,1.53,1.53,0,0,0-.33,1,1.46,1.46,0,0,0,.28.94.86.86,0,0,0,1.26.15,1.53,1.53,0,0,0,.35-.53c.08-.22.18-.5.28-.86a8.24,8.24,0,0,1,.34-1,1.76,1.76,0,0,1,.48-.66,1.3,1.3,0,0,1,.85-.29,1.5,1.5,0,0,1,.86.26,1.7,1.7,0,0,1,.6.74,2.53,2.53,0,0,1,.22,1.09A2.86,2.86,0,0,1,684.32,51.32Z"/><path d="M107.27,557.27a18.39,18.39,0,0,1,7.43,7.81q2.82,5.31,2.82,13.4v11h25.2v13.16H77.09V578.48a29.28,29.28,0,0,1,2.63-13,18.42,18.42,0,0,1,7.24-8,21.24,21.24,0,0,1,20.31-.19ZM104.4,571a9.18,9.18,0,0,0-7-2.63q-9.59,0-9.59,10.72v10.44H106.9V579Q106.9,573.6,104.4,571Z"/><path d="M87.71,532.31h16.46V510.22h10.44v22.09H132V507.4h10.72v38.08H77V507.4H87.71Z"/><path d="M142.72,461.61l-25.58,14.48v6.2h25.58v13.17H77.09V470.82a28.71,28.71,0,0,1,2.68-13,18.67,18.67,0,0,1,7.24-8,20.4,20.4,0,0,1,21.91,1.08q5.22,3.76,7.19,11.19l26.61-15.7Zm-35.45,20.68v-11q0-5.35-2.58-8a9.65,9.65,0,0,0-7.2-2.63,9.18,9.18,0,0,0-7,2.63q-2.49,2.64-2.49,8v11Z"/><path d="M92.46,434a31.2,31.2,0,0,1-11.94-11.94,33.88,33.88,0,0,1-4.28-17,33.3,33.3,0,0,1,5.65-19.27,29.51,29.51,0,0,1,15.6-11.57V389.4a15.68,15.68,0,0,0-7,6.35,18.66,18.66,0,0,0-2.35,9.45,19.42,19.42,0,0,0,2.68,10.2,18.27,18.27,0,0,0,7.57,7,24.83,24.83,0,0,0,11.47,2.5,24.91,24.91,0,0,0,11.42-2.5,18.22,18.22,0,0,0,7.62-7,19.42,19.42,0,0,0,2.68-10.2,18.29,18.29,0,0,0-2.4-9.45,15.92,15.92,0,0,0-7.1-6.35V374.26a29.4,29.4,0,0,1,15.66,11.52A36,36,0,0,1,139,422.07,31.21,31.21,0,0,1,127.11,434a34.07,34.07,0,0,1-17.3,4.38A34.33,34.33,0,0,1,92.46,434Z"/><path d="M87.71,349.82h16.46v-22.1h10.44v22.1H132V324.9h10.72V363H77V324.9H87.71Z"/><path d="M107.27,267.6a18.3,18.3,0,0,1,7.43,7.8q2.82,5.31,2.82,13.4v11h25.2V313H77.09V288.8a29.31,29.31,0,0,1,2.63-13,18.42,18.42,0,0,1,7.24-8,21.21,21.21,0,0,1,20.31-.18Zm-2.87,13.68a9.15,9.15,0,0,0-7-2.64q-9.59,0-9.59,10.72V299.8H106.9V289.36C106.9,285.73,106.07,283,104.4,281.28Z"/><path d="M77.09,211.14H87.71v17.48h55v13.17h-55v17.49H77.09Z"/><path d="M77.09,188.38h65.63v13.17H77.09Z"/><path d="M139.05,161.87a32.26,32.26,0,0,1-12,12.22,35.37,35.37,0,0,1-34.6,0,32.24,32.24,0,0,1-12-12.22,35.34,35.34,0,0,1,0-33.9,32,32,0,0,1,12-12.12,35.71,35.71,0,0,1,34.6,0,31.85,31.85,0,0,1,12,12.17,35.24,35.24,0,0,1,0,33.85Zm-10.11-27.36a18.31,18.31,0,0,0-7.66-7,25,25,0,0,0-11.56-2.54,24.76,24.76,0,0,0-11.52,2.54,18.07,18.07,0,0,0-7.57,7A20.39,20.39,0,0,0,88,145a20.65,20.65,0,0,0,2.63,10.48,18,18,0,0,0,7.57,7.1,24.89,24.89,0,0,0,11.52,2.54,25.17,25.17,0,0,0,11.56-2.54,18.23,18.23,0,0,0,7.66-7.1A20.28,20.28,0,0,0,131.62,145,20,20,0,0,0,128.94,134.51Z"/><path d="M142.72,45.47V58.63l-45,29.81h45V101.6H77V88.44l45.13-29.81H77V45.47Z"/></g></svg>