<svg xmlns="http://www.w3.org/2000/svg" xmlns:xlink="http://www.w3.org/1999/xlink" viewBox="0 0 1152 648"><defs><style>.cls-1{fill:none;}.cls-2{clip-path:url(#clip-path);}.cls-3{fill:#79e45e;}.cls-4{clip-path:url(#clip-path-2);}</style><clipPath id="clip-path"><rect class="cls-1" width="1152" height="648"/></clipPath><clipPath id="clip-path-2"><rect class="cls-1" x="1176" width="1152" height="648" transform="translate(3504 648) rotate(180)"/></clipPath></defs><g id="Layer_6" data-name="Layer 6"><g class="cls-2"><circle class="cls-3" cx="1152" cy="324" r="929.76"/></g><g class="cls-4"><circle class="cls-3" cx="1176" cy="324" r="929.76"/></g><path d="M79.82,309.33a8.62,8.62,0,1,0,0,13.12V324h4.05V307.79H79.82ZM74.75,321a5.07,5.07,0,1,1,5.07-5.07A5.07,5.07,0,0,1,74.75,321Z"/><path d="M129.47,309.33a8.62,8.62,0,1,0,0,13.12V324h4.06V307.79h-4.06ZM124.41,321a5.07,5.07,0,1,1,5.06-5.07A5.07,5.07,0,0,1,124.41,321Z"/><path d="M55,307.28a8.59,8.59,0,0,0-5.58,2.05V301.7h-4V324h4v-1.55A8.61,8.61,0,1,0,55,307.28ZM54.48,321a5.07,5.07,0,1,1,5.07-5.07A5.07,5.07,0,0,1,54.48,321Z"/><path d="M106.67,307.28a6.55,6.55,0,0,0-5.57,3.09A6.58,6.58,0,0,0,91,309.12v-1.33h-4V324h4v-9.63a3.55,3.55,0,0,1,7.1,0V324h4v-9.63a3.55,3.55,0,0,1,7.1,0V324h4.05V313.87A6.59,6.59,0,0,0,106.67,307.28Z"/><rect x="142.65" y="307.79" width="4.05" height="16.21"/><path d="M158.36,307.28a5.56,5.56,0,0,0-4.56,2.37v-1.86h-4.06V324h4.06V313.87a3,3,0,0,1,3-3h2v-3.55Z"/><circle cx="144.67" cy="303.22" r="2.53"/><circle cx="138.09" cy="321.47" r="2.53"/><path d="M618.16,323.24a.67.67,0,0,1-.75.76h-1.57a9.25,9.25,0,0,1-3.67-.73,9.46,9.46,0,0,1-3-2,10.07,10.07,0,0,1-2-3,9.09,9.09,0,0,1-.75-3.67V287h5.94v27.38a2.58,2.58,0,0,0,2.59,2.59h2.54a.71.71,0,0,1,.54.24.86.86,0,0,1,.21.57Z"/><path d="M617.41,324a.67.67,0,0,1-.76-.76v-5.45a.84.84,0,0,1,.22-.54.6.6,0,0,1,.48-.27h9.72a14.11,14.11,0,0,0,4.48-.73,8.85,8.85,0,0,0,3.78-2.4l3.14-3.35L639,310q.22-.21.27-.21l-11.34-3.4a1.09,1.09,0,0,0-.94.08,1.5,1.5,0,0,0-.62.73l-2.06,5.4-5.18-1.41,1.4-5a7.55,7.55,0,0,1,3.89-4.72,8,8,0,0,1,2.86-.81,7.53,7.53,0,0,1,2.92.3l21.49,6.42L649.86,313l-2.54-.75a3.86,3.86,0,0,0-1.54-.11,3.46,3.46,0,0,0-1.16.43v1.84a2.59,2.59,0,0,0,2.59,2.59h7.19a.67.67,0,0,1,.75.76v5.5a.67.67,0,0,1-.75.76h-6.21a8.29,8.29,0,0,1-5.48-1.86,9.62,9.62,0,0,1-3.11-4.78l-2.16,2.16a14.19,14.19,0,0,1-5.4,3.4,19,19,0,0,1-6.32,1.08Zm14.85,6.53h6.21v6.21h-6.21Z"/><path d="M675.4,323.24a.81.81,0,0,1-.21.52.71.71,0,0,1-.54.24h-4.11a7.12,7.12,0,0,1-3.45-.94,5.09,5.09,0,0,1-2.33-2.25,4.36,4.36,0,0,1-1.08,1.22,10.49,10.49,0,0,1-1.53,1,8.43,8.43,0,0,1-1.79.7,7.54,7.54,0,0,1-1.86.24h-4.1a.67.67,0,0,1-.76-.76v-5.45a.82.82,0,0,1,.22-.57.68.68,0,0,1,.54-.24H659a3,3,0,0,0,1.89-.65,2.88,2.88,0,0,0,1-1.73l2-9.72,5.84,1-1.62,8.15a2.21,2.21,0,0,0,.48,2,2.45,2.45,0,0,0,2,.89h4a.71.71,0,0,1,.54.24.86.86,0,0,1,.21.57Zm-12.9-23.32h6.21v-6.21H662.5Z"/><path d="M687.07,317a2.44,2.44,0,0,0,1.83-.78,2.58,2.58,0,0,0,.76-1.87V303.16h5.94v11.17a9.29,9.29,0,0,1-.76,3.76,9.73,9.73,0,0,1-5.15,5.15,9.33,9.33,0,0,1-3.76.76H674.65a.68.68,0,0,1-.54-.24.77.77,0,0,1-.22-.52v-5.45a.82.82,0,0,1,.22-.57.68.68,0,0,1,.54-.24Zm-11.61,19.71h6.15v-6.21h-6.15Zm9,0h6.21v-6.21h-6.21Z"/><path d="M707.48,324h-5.94V287h5.94Z"/><path d="M715.25,337.77l-1.83-5.56,7.77-2.54a6.57,6.57,0,0,0,4.48-6.26V304.72h5.94v18.09a13,13,0,0,1-.64,4.08,13.6,13.6,0,0,1-1.81,3.59,12.57,12.57,0,0,1-2.81,2.83,13.82,13.82,0,0,1-3.65,1.92Z"/><path d="M745.22,324a6.74,6.74,0,0,1-2.75-.57,7.23,7.23,0,0,1-3.81-3.83,7,7,0,0,1-.57-2.78v-7h5.08v5.94a1.16,1.16,0,0,0,.38.89,1.24,1.24,0,0,0,.86.35h8.91a3.22,3.22,0,0,0,1.76-.49,3.68,3.68,0,0,0,1.24-1.24,3.38,3.38,0,0,0,.49-1.65,3.45,3.45,0,0,0-.46-1.75l-6.7-11.93,5-3.3,7.18,12.75a8.9,8.9,0,0,1,1.27,5,10.37,10.37,0,0,1-1.37,4.72,10,10,0,0,1-3.46,3.51,9.3,9.3,0,0,1-5,1.38Z"/><path d="M774.44,321.41V305.59h5.94v15a5.86,5.86,0,0,0,5.94,5.94H796a4.78,4.78,0,0,0,4.86-4.86v-16.9h5.94v9.67a2.59,2.59,0,0,0,2.59,2.59h3.35a.68.68,0,0,1,.54.24.82.82,0,0,1,.22.57v5.45a.77.77,0,0,1-.22.52.68.68,0,0,1-.54.24h-2.43a3.93,3.93,0,0,1-2.54-.65,6.79,6.79,0,0,1-1-1v1.35a8.52,8.52,0,0,1-.89,3.83,10.7,10.7,0,0,1-2.38,3.13,11,11,0,0,1-3.43,2.11,11.26,11.26,0,0,1-4.1.75h-9.4a11.88,11.88,0,0,1-4.7-.94A12.36,12.36,0,0,1,778,330a12.19,12.19,0,0,1-2.59-3.86A11.88,11.88,0,0,1,774.44,321.41Zm13.06-22.9h6.21v6.21H787.5Z"/><path d="M827.36,324a8.57,8.57,0,0,1-3.62-.76,7.73,7.73,0,0,1-3-2.43,7.81,7.81,0,0,1-3,2.43,8.76,8.76,0,0,1-3.64.76h-1.41a.72.72,0,0,1-.51-.24.76.76,0,0,1-.24-.52v-5.45a.8.8,0,0,1,.24-.57.72.72,0,0,1,.51-.24h2.43a2.48,2.48,0,0,0,1.84-.78,2.61,2.61,0,0,0,.75-1.87v-9.66h5.94v10.1a1.92,1.92,0,0,0,.81,1.59,2.82,2.82,0,0,0,1.73.62H828a2.86,2.86,0,0,0,1.89-.67,3,3,0,0,0,1-1.76l1.89-9.77,5.88,1.08-1.62,8.2a2.17,2.17,0,0,0,.51,2,2.49,2.49,0,0,0,1.92.89h1.46a2.55,2.55,0,0,0,1.84-.73,2.41,2.41,0,0,0,.75-1.81V303.26h5.94v11.18a2.39,2.39,0,0,0,.76,1.81A2.51,2.51,0,0,0,852,317h2.27a.68.68,0,0,1,.54.24.82.82,0,0,1,.22.52v5.45a1,1,0,0,1-.19.57.69.69,0,0,1-.57.24H853a8.57,8.57,0,0,1-3.62-.76,7.38,7.38,0,0,1-2.92-2.43,7.65,7.65,0,0,1-3,2.43,8.87,8.87,0,0,1-3.62.76,8.53,8.53,0,0,1-3.46-.73,6.06,6.06,0,0,1-2.75-2.46,7.1,7.1,0,0,1-2.86,2.46A8.15,8.15,0,0,1,827.36,324Zm3.94-24h-6.21v-6.21h6.21Zm4.43-8.21h-6.21v-6.21h6.21Zm4.59,8.21h-6.21v-6.21h6.21Z"/><path d="M875.31,323.24a.82.82,0,0,1-.22.52.68.68,0,0,1-.54.24h-4.1a7.13,7.13,0,0,1-3.46-.94,5.06,5.06,0,0,1-2.32-2.25,4.36,4.36,0,0,1-1.08,1.22,10.59,10.59,0,0,1-1.54,1,8.35,8.35,0,0,1-1.78.7,7.54,7.54,0,0,1-1.86.24H854.3a.67.67,0,0,1-.76-.76v-5.45a.87.87,0,0,1,.22-.57.7.7,0,0,1,.54-.24h4.64a3,3,0,0,0,1.89-.65,2.79,2.79,0,0,0,1-1.73l2-9.72,5.83,1-1.62,8.15a2.19,2.19,0,0,0,.49,2,2.43,2.43,0,0,0,1.94.89h4a.68.68,0,0,1,.54.24.87.87,0,0,1,.22.57Zm-18.47,13.45H863v-6.21h-6.16Zm9,0H872v-6.21H865.8Z"/><path d="M895.56,323.24a.82.82,0,0,1-.22.52.68.68,0,0,1-.54.24h-4.1a7.13,7.13,0,0,1-3.46-.94,5.06,5.06,0,0,1-2.32-2.25,4.36,4.36,0,0,1-1.08,1.22,10.59,10.59,0,0,1-1.54,1,8.35,8.35,0,0,1-1.78.7,7.54,7.54,0,0,1-1.86.24h-4.11a.67.67,0,0,1-.76-.76v-5.45a.87.87,0,0,1,.22-.57.7.7,0,0,1,.54-.24h4.64a3,3,0,0,0,1.89-.65,2.84,2.84,0,0,0,1-1.73l2-9.72,5.83,1-1.62,8.15a2.19,2.19,0,0,0,.49,2,2.43,2.43,0,0,0,1.94.89h4a.68.68,0,0,1,.54.24.87.87,0,0,1,.22.57Zm-19-23.32h6.21v-6.21h-6.21Zm9,0h6.21v-6.21h-6.21Z"/><path d="M904,317a2.48,2.48,0,0,0,1.84-.78,2.61,2.61,0,0,0,.75-1.87V303.16h5.94v11.17a9.45,9.45,0,0,1-.75,3.76,10,10,0,0,1-2.08,3.08,9.71,9.71,0,0,1-3.08,2.07,9.28,9.28,0,0,1-3.75.76H894.8a.7.7,0,0,1-.54-.24.82.82,0,0,1-.22-.52v-5.45a.87.87,0,0,1,.22-.57.7.7,0,0,1,.54-.24Zm2.32-18.74h6.21V292H906.3Z"/><path d="M909,337.77l-1.84-5.56,7.78-2.54a6.57,6.57,0,0,0,4.48-6.26V304.72h5.94v18.09a12.76,12.76,0,0,1-.65,4.08,13,13,0,0,1-1.81,3.59,12.53,12.53,0,0,1-2.8,2.83,14,14,0,0,1-3.65,1.92Zm10.15-44.23h6.21v6.21H919.1Z"/><path d="M944.59,304.67v10.1a1.92,1.92,0,0,0,.81,1.59,2.88,2.88,0,0,0,1.78.62h3.94a.67.67,0,0,1,.76.76v5.5a.67.67,0,0,1-.76.76h-3a6.61,6.61,0,0,1-1.94-.32,2.82,2.82,0,0,1-1.62-1.35v1a11.36,11.36,0,0,1-.68,3.91,13,13,0,0,1-4.67,6.16,13.27,13.27,0,0,1-3.56,1.81l-7.45,2.54-1.84-5.57,7.78-2.53a6.17,6.17,0,0,0,3.26-2.41,6.63,6.63,0,0,0,1.22-3.86V304.67Z"/><path d="M963.54,317a2.48,2.48,0,0,0,1.84-.78,2.61,2.61,0,0,0,.75-1.87V303.16h6v11.17a9.46,9.46,0,0,1-.76,3.76,10,10,0,0,1-2.08,3.08,9.71,9.71,0,0,1-3.08,2.07,9.28,9.28,0,0,1-3.75.76H951.12a.71.71,0,0,1-.54-.24.81.81,0,0,1-.21-.52v-5.45a.86.86,0,0,1,.21-.57.71.71,0,0,1,.54-.24Zm-11,13.5h6.21v6.21h-6.21Zm4.43,8.21h6.21v6.21H957Zm4.58-8.21h6.21v6.21h-6.21Z"/><path d="M997.13,333.5a11.85,11.85,0,0,1-4.7-.94,12.36,12.36,0,0,1-3.86-2.59,12.19,12.19,0,0,1-2.59-3.86,11.89,11.89,0,0,1-1-4.7V305.59H991v15a5.88,5.88,0,0,0,5.94,5.94h9.67a4.78,4.78,0,0,0,4.86-4.86v-16.9h5.94v17.93a10.57,10.57,0,0,1-.86,4.24,11,11,0,0,1-5.76,5.75,10.32,10.32,0,0,1-4.23.86Zm1-35h6.21v6.21H998.1Z"/><path d="M1029.26,324h-5.94V287h5.94Z"/><path d="M1043.08,324a8.08,8.08,0,0,1-3.67-.84,8.23,8.23,0,0,1-2.81-2.24,8.89,8.89,0,0,1-1.64-3.21,7.9,7.9,0,0,1-.14-3.75l.92-4.92a8,8,0,0,1,1-2.73,9.14,9.14,0,0,1,1.86-2.18,8.14,8.14,0,0,1,2.46-1.43,8.26,8.26,0,0,1,2.89-.52h3a8.84,8.84,0,0,1,6.27,2.62,9.4,9.4,0,0,1,1.89,2.84,8.55,8.55,0,0,1,.7,3.45V317h3.78a.67.67,0,0,1,.76.76v5.5a.67.67,0,0,1-.76.76h-3.83v.27a3.15,3.15,0,0,1-.06.54,11.38,11.38,0,0,1-2.72,6.43,13.79,13.79,0,0,1-6.13,4.15l-7.4,2.54-1.84-5.67,7.62-2.54a7.16,7.16,0,0,0,3.32-2.26,5.79,5.79,0,0,0,1.27-3.73v-.38a7.2,7.2,0,0,1-1.46.46,7.84,7.84,0,0,1-1.73.19Zm-.75-7h7.61V311a2.07,2.07,0,0,0-.59-1.48,2,2,0,0,0-1.46-.63h-4.37a1.89,1.89,0,0,0-1.3.49,2.2,2.2,0,0,0-.7,1.24l-.87,4.32a1.55,1.55,0,0,0,.35,1.38A1.67,1.67,0,0,0,1042.33,317Z"/><path d="M1080.67,323.24a.82.82,0,0,1-.22.52.68.68,0,0,1-.54.24h-4.1a7.13,7.13,0,0,1-3.46-.94,5.06,5.06,0,0,1-2.32-2.25A4.36,4.36,0,0,1,1069,322a10.59,10.59,0,0,1-1.54,1,8.35,8.35,0,0,1-1.78.7,7.55,7.55,0,0,1-1.87.24h-4.1a.67.67,0,0,1-.76-.76v-5.45a.87.87,0,0,1,.22-.57.68.68,0,0,1,.54-.24h4.64a3,3,0,0,0,1.89-.65,2.84,2.84,0,0,0,1-1.73l2-9.72,5.83,1-1.62,8.15a2.19,2.19,0,0,0,.49,2,2.43,2.43,0,0,0,1.94.89h4.05a.68.68,0,0,1,.54.24.87.87,0,0,1,.22.57Zm-12.91-23.32H1074v-6.21h-6.21Z"/><path d="M1103.94,322l-9.18,1.24a98.44,98.44,0,0,1-12.53.81h-2.32c-.43,0-.68-.25-.76-.76v-5.45a1,1,0,0,1,.19-.57.69.69,0,0,1,.57-.24h5.4a5.14,5.14,0,0,1-.46-.78,4.94,4.94,0,0,1-.3-.84l-1-5.35a7.56,7.56,0,0,1,.16-3.7,9,9,0,0,1,1.7-3.13,8.63,8.63,0,0,1,2.84-2.18,8.16,8.16,0,0,1,3.61-.81h9.62v6.75h-9.89a2.07,2.07,0,0,0-1.67.78,2,2,0,0,0-.43,1.81l1.51,7.29,12-1.3Z"/><path d="M853,388.8a6.74,6.74,0,0,1-2.75-.57,7.23,7.23,0,0,1-3.81-3.83,7,7,0,0,1-.57-2.78v-7h5.08v5.94a1.13,1.13,0,0,0,.38.89,1.24,1.24,0,0,0,.86.35h8.91a3.24,3.24,0,0,0,1.76-.49,3.68,3.68,0,0,0,1.24-1.24,3.37,3.37,0,0,0,.48-1.64,3.27,3.27,0,0,0-.46-1.76l-6.69-11.93,5-3.3,7.18,12.75a8.9,8.9,0,0,1,1.27,5,10.26,10.26,0,0,1-1.38,4.72,9.9,9.9,0,0,1-3.45,3.51,9.3,9.3,0,0,1-5,1.38Z"/><path d="M883.62,369.47v10.1a1.92,1.92,0,0,0,.81,1.59,2.9,2.9,0,0,0,1.79.62h3.94a.67.67,0,0,1,.75.76V388a.67.67,0,0,1-.75.76h-3a6.67,6.67,0,0,1-2-.32,2.88,2.88,0,0,1-1.62-1.35v1A11.36,11.36,0,0,1,883,392a12.55,12.55,0,0,1-1.87,3.43,13,13,0,0,1-2.8,2.73,13.33,13.33,0,0,1-3.57,1.81l-7.45,2.54L865.43,397l7.77-2.53a6.15,6.15,0,0,0,3.27-2.41,6.62,6.62,0,0,0,1.21-3.86V369.47Z"/><path d="M911.16,388a.79.79,0,0,1-.21.52.71.71,0,0,1-.54.24H906.3a7.12,7.12,0,0,1-3.45-.94,5.09,5.09,0,0,1-2.33-2.25,4.47,4.47,0,0,1-1.07,1.22,11.16,11.16,0,0,1-1.54,1,7.93,7.93,0,0,1-1.79.7,7.54,7.54,0,0,1-1.86.24h-4.1a.67.67,0,0,1-.76-.76v-5.45a.82.82,0,0,1,.22-.57.68.68,0,0,1,.54-.24h4.64a3,3,0,0,0,1.89-.65,2.88,2.88,0,0,0,1-1.73l2-9.72,5.84,1-1.62,8.15a2.2,2.2,0,0,0,.48,2,2.45,2.45,0,0,0,2,.89h4a.71.71,0,0,1,.54.24.86.86,0,0,1,.21.57ZM892.7,401.49h6.15v-6.21H892.7Zm9,0h6.21v-6.21h-6.21Z"/><path d="M921.21,373.52l-4.27-4.11,15.88-18.57,4.26,4L926.71,367h20.58a8.39,8.39,0,0,1,3.43.7,9.51,9.51,0,0,1,2.81,1.89,8.74,8.74,0,0,1,1.91,2.81,8.56,8.56,0,0,1,.71,3.45v4a8.65,8.65,0,0,1-.73,3.56,8.83,8.83,0,0,1-2,2.81,9.38,9.38,0,0,1-2.92,1.86,8.78,8.78,0,0,1-3.43.68H910.41a.69.69,0,0,1-.57-.24.82.82,0,0,1-.19-.52v-5.5a.67.67,0,0,1,.76-.76h38a1.81,1.81,0,0,0,1.21-.59,2,2,0,0,0,.63-1.52v-3.83a2.2,2.2,0,0,0-.71-1.65,2.32,2.32,0,0,0-1.67-.67ZM912.68,363l12.63-14.8,2.92,2.81-12.37,14.47Z"/><path d="M984,394.42a4.43,4.43,0,0,0,3.21-1.3,4.51,4.51,0,0,0,1.38-3.19l-.06-1.13H978v-7h21.17a.56.56,0,0,1,.54.19.76.76,0,0,1,.21.51V388a.76.76,0,0,1-.75.81h-4.81a2.89,2.89,0,0,0,.08.35,2.58,2.58,0,0,1,.08.73v.86a10.21,10.21,0,0,1-.86,4.22,10.81,10.81,0,0,1-5.91,5.67,11.6,11.6,0,0,1-4.35.81h-9.18a11.86,11.86,0,0,1-4.7-.95,12.11,12.11,0,0,1-6.45-6.42,11.82,11.82,0,0,1-.95-4.73V375.08H968v13.4a5.68,5.68,0,0,0,.49,2.32,6.24,6.24,0,0,0,1.3,1.89,5.9,5.9,0,0,0,4.21,1.73Z"/><path d="M1003.72,379.4l1.08-5.56a8,8,0,0,1,1.05-2.73,8.61,8.61,0,0,1,1.86-2.15,8.39,8.39,0,0,1,5.35-1.92h3a8.56,8.56,0,0,1,3.46.7,8.81,8.81,0,0,1,4.7,4.7,8.55,8.55,0,0,1,.7,3.45v6.32a6.55,6.55,0,0,1-1.92,4.67,6.46,6.46,0,0,1-4.61,1.92h-6.27a7.13,7.13,0,0,1-3.08-.68,6.65,6.65,0,0,1-2.64-2.4,6.91,6.91,0,0,1-2.76,2.4,7.65,7.65,0,0,1-3.24.68h-1.29a.67.67,0,0,1-.76-.76v-5.5a.67.67,0,0,1,.76-.76h1.73a2.83,2.83,0,0,0,1.86-.65A3,3,0,0,0,1003.72,379.4Zm7.67,2.38H1019v-5.94a2,2,0,0,0-2-2h-4.38a1.91,1.91,0,0,0-1.29.46,2.06,2.06,0,0,0-.7,1.21l-.87,4.32a1.55,1.55,0,0,0,.35,1.38A1.66,1.66,0,0,0,1011.39,381.78Z"/><path d="M1032.72,402.57l-1.84-5.56,7.78-2.54a6.61,6.61,0,0,0,4.48-6.26V369.52h5.94v18.09a13,13,0,0,1-.65,4.08,13.31,13.31,0,0,1-1.81,3.59,12.37,12.37,0,0,1-2.81,2.83,13.62,13.62,0,0,1-3.64,1.92Z"/><path d="M1061.5,388.8h-5.94v-37h5.94Z"/><path d="M1074,369.47v10.1a1.92,1.92,0,0,0,.81,1.59,2.9,2.9,0,0,0,1.79.62h3.94a.67.67,0,0,1,.75.76V388a.67.67,0,0,1-.75.76h-3a6.72,6.72,0,0,1-1.95-.32,2.88,2.88,0,0,1-1.62-1.35v1a11.36,11.36,0,0,1-.67,3.91,12.79,12.79,0,0,1-1.86,3.43,13.18,13.18,0,0,1-6.38,4.54l-7.45,2.54-1.83-5.57,7.77-2.53a6.15,6.15,0,0,0,3.27-2.41,6.62,6.62,0,0,0,1.21-3.86V369.47Z"/><path d="M1103.94,379.13a9.29,9.29,0,0,1-.76,3.76A9.64,9.64,0,0,1,1098,388a9.29,9.29,0,0,1-3.76.76h-13.71a.68.68,0,0,1-.54-.24.85.85,0,0,1-.22-.57v-5.45a.9.9,0,0,1,.19-.52.69.69,0,0,1,.57-.24h14.85a2.59,2.59,0,0,0,2.59-2.59v-1.14a9.27,9.27,0,0,1-3.24.6h-3.19a8.14,8.14,0,0,1-3.72-.87,8.59,8.59,0,0,1-2.89-2.29,8.61,8.61,0,0,1-1.76-7.1l.81-4.32a7.7,7.7,0,0,1,1.06-2.76,9.65,9.65,0,0,1,1.86-2.16,8.36,8.36,0,0,1,2.46-1.43,8.26,8.26,0,0,1,2.89-.51h2.91a8.35,8.35,0,0,1,3.43.7,9.12,9.12,0,0,1,2.78,1.89,8.89,8.89,0,0,1,1.87,2.78,8.6,8.6,0,0,1,.67,3.38Zm-18.09-32.94h6.21v6.21h-6.21Zm4.86,25.44H1098V366a2,2,0,0,0-2-2.05h-4.16a2.06,2.06,0,0,0-1.35.49,1.85,1.85,0,0,0-.7,1.24l-.7,3.83a1.68,1.68,0,0,0,.35,1.46A1.61,1.61,0,0,0,1090.71,371.63Zm4.16-25.44h6.21v6.21h-6.21Z"/><path d="M965.78,602.64a1.49,1.49,0,0,1-1.5-1.5v-1.47h.7v1.26a.85.85,0,0,0,.17.52.65.65,0,0,0,.52.22H968a1.4,1.4,0,0,0,.83-.22,1.13,1.13,0,0,0,.45-.52,1.51,1.51,0,0,0,.12-.67,1.28,1.28,0,0,0-.18-.62l-1.68-3,.69-.48,1.62,2.91a2.62,2.62,0,0,1,.36,1.28,2.2,2.2,0,0,1-1.07,2,2.28,2.28,0,0,1-1.2.31Z"/><path d="M973.25,598.26v2.2a1.12,1.12,0,0,0,.35.85,1.15,1.15,0,0,0,.86.36h1.64a.2.2,0,0,1,.15.06.25.25,0,0,1,.06.16v.54a.19.19,0,0,1-.21.21h-1.49a1.8,1.8,0,0,1-.76-.17,1.66,1.66,0,0,1-.6-.48v.8a3.19,3.19,0,0,1-.16,1,3.24,3.24,0,0,1-.44.87,3.05,3.05,0,0,1-.69.7,3.31,3.31,0,0,1-.87.47l-1.59.55-.27-.85,1.69-.57a2.18,2.18,0,0,0,1.5-2.09v-4.59Z"/><path d="M981.35,602.43a.19.19,0,0,1-.21.21h-.87a1.79,1.79,0,0,1-.51-.07,1.74,1.74,0,0,1-.48-.22,1.34,1.34,0,0,1-.39-.32,1,1,0,0,1-.23-.41,2,2,0,0,1-.73.73,1.73,1.73,0,0,1-1,.29h-.85a.19.19,0,0,1-.21-.21v-.55a.19.19,0,0,1,.21-.21H977a1.33,1.33,0,0,0,1.29-1.06l.45-2.26.81.13-.37,1.9a1,1,0,0,0,0,.48,1.08,1.08,0,0,0,.23.42,1,1,0,0,0,.39.28,1.18,1.18,0,0,0,.5.11h.86a.19.19,0,0,1,.21.21Zm-4.22,3.14h1.13v-1.13h-1.13Zm1.91,0h1.12v-1.13H979Z"/><path d="M983.13,598.47l-.61-.57,3.78-4.43.6.56-3,3.54h6a1.83,1.83,0,0,1,.77.16,1.81,1.81,0,0,1,.63.43,1.83,1.83,0,0,1,.42.63,1.79,1.79,0,0,1,.16.76v1.11a1.83,1.83,0,0,1-.16.77,1.93,1.93,0,0,1-.42.63,2.1,2.1,0,0,1-.63.42,1.83,1.83,0,0,1-.77.16h-8.74a.18.18,0,0,1-.15-.07.2.2,0,0,1-.06-.14v-.55a.19.19,0,0,1,.21-.21H990A1.09,1.09,0,0,0,991,600.6v-1a1.13,1.13,0,0,0-1.14-1.14Zm-1.06-2.32,2.86-3.39.47.39-2.9,3.4Z"/><path d="M999.5,605.19a1.67,1.67,0,0,0,.67-.13,2,2,0,0,0,.56-.38,1.76,1.76,0,0,0,.37-.56,1.64,1.64,0,0,0,.14-.67v-.81h-2.76v-1h5.37a.27.27,0,0,1,.14.05.26.26,0,0,1,.07.16v.55a.21.21,0,0,1-.07.15.22.22,0,0,1-.14.06H1002a.86.86,0,0,1,.07.34v.62a2.62,2.62,0,0,1-.2,1,2.88,2.88,0,0,1-.55.82,2.6,2.6,0,0,1-.82.54,2.38,2.38,0,0,1-1,.21h-2.58a2.85,2.85,0,0,1-1.13-.23,2.86,2.86,0,0,1-1.53-1.53,2.83,2.83,0,0,1-.22-1.12v-3.47h.82v3.32a2.09,2.09,0,0,0,.61,1.44,2,2,0,0,0,1.45.61Z"/><path d="M1005.6,600.61l.3-1.54a1.74,1.74,0,0,1,.23-.6,1.68,1.68,0,0,1,.41-.47,1.81,1.81,0,0,1,1.18-.43h.84a1.79,1.79,0,0,1,.76.16,1.93,1.93,0,0,1,.63.42,2,2,0,0,1,.43.62,2,2,0,0,1,.16.77v1.91a1.2,1.2,0,0,1-.32.88,1.18,1.18,0,0,1-.88.31h-1.88a1.69,1.69,0,0,1-.88-.24,1.5,1.5,0,0,1-.62-.78,1.65,1.65,0,0,1-.71.78,2,2,0,0,1-1,.24h-.45a.19.19,0,0,1-.21-.21v-.55a.24.24,0,0,1,.06-.15.2.2,0,0,1,.15-.06h.48a1.24,1.24,0,0,0,.83-.31A1.16,1.16,0,0,0,1005.6,600.61Zm1.79,1.06h2.32v-2.13a1,1,0,0,0-.31-.76,1,1,0,0,0-.77-.31h-.9a1.06,1.06,0,0,0-1.05.86l-.22,1.21a.89.89,0,0,0,0,.43,1,1,0,0,0,.19.36,1,1,0,0,0,.31.25A1,1,0,0,0,1007.39,601.67Z"/><path d="M1013.28,606.34l-.27-.85,1.71-.55a2.12,2.12,0,0,0,1.08-.8,2.18,2.18,0,0,0,.41-1.29v-4.61h.82v4.55a3.19,3.19,0,0,1-.15,1,3.07,3.07,0,0,1-.43.87,3.47,3.47,0,0,1-.69.69,3.07,3.07,0,0,1-.87.48Z"/><path d="M1020.26,602.64h-.83v-9.75h.83Z"/><path d="M1023.38,598.26v2.2a1.12,1.12,0,0,0,.35.85,1.15,1.15,0,0,0,.86.36h1.64a.2.2,0,0,1,.15.06.25.25,0,0,1,.06.16v.54a.19.19,0,0,1-.21.21h-1.49a1.8,1.8,0,0,1-.76-.17,1.66,1.66,0,0,1-.6-.48v.8a3.19,3.19,0,0,1-.16,1,3.24,3.24,0,0,1-.44.87,3.05,3.05,0,0,1-.69.7,3.31,3.31,0,0,1-.87.47l-1.59.55-.27-.85,1.69-.57a2.18,2.18,0,0,0,1.5-2.09v-4.59Z"/><path d="M1031.91,600.45a2.27,2.27,0,0,1-.17.86,2.11,2.11,0,0,1-.47.69,2.31,2.31,0,0,1-.71.47,2.22,2.22,0,0,1-.85.17h-3.48a.19.19,0,0,1-.21-.21v-.54a.25.25,0,0,1,.06-.16.24.24,0,0,1,.15-.06h3.48a1.58,1.58,0,0,0,1-.3,1.16,1.16,0,0,0,.41-1v-.18a1.13,1.13,0,0,1-.51.11h-1.65a1.78,1.78,0,0,1-.8-.19,2,2,0,0,1-.62-.49,1.73,1.73,0,0,1-.36-.7,1.88,1.88,0,0,1,0-.82l.24-1.27a1.73,1.73,0,0,1,.22-.6,1.85,1.85,0,0,1,.41-.47,2,2,0,0,1,.55-.32,1.9,1.9,0,0,1,.63-.11h.78a1.83,1.83,0,0,1,.77.16,1.81,1.81,0,0,1,.63.43,1.83,1.83,0,0,1,.42.63,1.79,1.79,0,0,1,.16.76Zm-3.06-1.14h2.24v-2a1,1,0,0,0-.32-.75,1,1,0,0,0-.76-.32h-.84a1.07,1.07,0,0,0-.69.24,1.06,1.06,0,0,0-.36.63l-.21,1.1a.9.9,0,0,0,.21.77A.88.88,0,0,0,1028.85,599.31Zm-.81-7h1.13v1.13H1028Zm1.91,0h1.12v1.13H1030Z"/><path d="M1039.17,602.43a.19.19,0,0,1-.21.21h-.6a2.22,2.22,0,0,1-.85-.17,2.34,2.34,0,0,1-.69-.47,2.09,2.09,0,0,1-.46-.69,2,2,0,0,1-.17-.85v-7.57h.82v7.57a1.21,1.21,0,0,0,1.2,1.21h.75a.2.2,0,0,1,.15.06.25.25,0,0,1,.06.16Z"/><path d="M1039,602.64a.19.19,0,0,1-.21-.21v-.55a.24.24,0,0,1,.06-.15.2.2,0,0,1,.15-.06h2.36a3.86,3.86,0,0,0,1.43-.27,4.13,4.13,0,0,0,1.24-.74l1.48-1.32.18-.16a1,1,0,0,1,.18-.11l-3.78-1.11a.74.74,0,0,0-.64.09.89.89,0,0,0-.39.51l-.33,1.1-.72-.2.33-1.13a1.61,1.61,0,0,1,.3-.58,1.81,1.81,0,0,1,.51-.41,1.63,1.63,0,0,1,.61-.2,1.36,1.36,0,0,1,.66.06l5.73,1.72-.22.77-.57-.17a1.47,1.47,0,0,0-.43-.07,1,1,0,0,0-.33.07.92.92,0,0,0-.27.16,2.43,2.43,0,0,0-.25.2v.57a1.21,1.21,0,0,0,1.22,1.22h2a.2.2,0,0,1,.15.06.24.24,0,0,1,.06.15v.55a.19.19,0,0,1-.21.21h-1.83a1.9,1.9,0,0,1-.83-.17,1.85,1.85,0,0,1-.65-.45,2.21,2.21,0,0,1-.44-.68,2.45,2.45,0,0,1-.17-.83l-1.18,1.07a4,4,0,0,1-1.32.79,4.24,4.24,0,0,1-1.5.27Zm4.13,1.8h1.12v1.13h-1.12Z"/><path d="M1054.49,602.43a.19.19,0,0,1-.21.21h-.87a1.79,1.79,0,0,1-.51-.07,1.74,1.74,0,0,1-.48-.22,1.34,1.34,0,0,1-.39-.32,1,1,0,0,1-.23-.41,2,2,0,0,1-.73.73,1.73,1.73,0,0,1-1,.29h-.85a.19.19,0,0,1-.21-.21v-.55a.19.19,0,0,1,.21-.21h.85a1.33,1.33,0,0,0,1.29-1.06l.45-2.26.81.13-.37,1.9a1,1,0,0,0,0,.48,1.08,1.08,0,0,0,.23.42,1,1,0,0,0,.39.28,1.18,1.18,0,0,0,.5.11h.86a.19.19,0,0,1,.21.21Zm-3.23-6h1.13v-1.13h-1.13Z"/><path d="M1055.82,601.67a1.21,1.21,0,0,0,1.2-1.21v-2.63h.83v2.63a2,2,0,0,1-.18.85,2.09,2.09,0,0,1-.46.69,2.34,2.34,0,0,1-.69.47,2.22,2.22,0,0,1-.85.17h-1.42a.19.19,0,0,1-.21-.21v-.54a.25.25,0,0,1,.06-.16.2.2,0,0,1,.15-.06Zm-1.57,3.9h1.12v-1.13h-1.12Zm1.9,0h1.13v-1.13h-1.13Z"/><path d="M1061.07,602.64h-.82v-9.75h.82Z"/><path d="M1063.89,606.34l-.27-.85,1.71-.55a2.12,2.12,0,0,0,1.08-.8,2.18,2.18,0,0,0,.41-1.29v-4.61h.82v4.55a3.19,3.19,0,0,1-.15,1,3.07,3.07,0,0,1-.43.87,3.47,3.47,0,0,1-.69.69,3.07,3.07,0,0,1-.87.48Z"/><path d="M1071.54,602.64a1.4,1.4,0,0,1-1.06-.44,1.43,1.43,0,0,1-.44-1.06v-1.47h.71v1.26a.79.79,0,0,0,.17.52.63.63,0,0,0,.52.22h2.31a1.39,1.39,0,0,0,.82-.22,1.13,1.13,0,0,0,.45-.52,1.51,1.51,0,0,0,.12-.67,1.28,1.28,0,0,0-.18-.62l-1.68-3,.69-.48,1.62,2.91a2.75,2.75,0,0,1,.37,1.28,2.41,2.41,0,0,1-.27,1.15,2.2,2.2,0,0,1-2,1.14Z"/><path d="M1081,599.3l-.72-.2.33-1.14a1.39,1.39,0,0,1,.35-.63,1.65,1.65,0,0,1,.53-.39,1.84,1.84,0,0,1,.61-.16,1.57,1.57,0,0,1,.58.05l5.33,1.61-.26.75-.79-.24a.73.73,0,0,0-.44,0,1.39,1.39,0,0,0-.4.21v1.29a1.23,1.23,0,0,0,1.21,1.23h2a.3.3,0,0,1,.16.05.26.26,0,0,1,.07.16v.55a.21.21,0,0,1-.07.15.25.25,0,0,1-.16.06h-1.83a2.05,2.05,0,0,1-.83-.17,2,2,0,0,1-.66-.47,2,2,0,0,1-.44-.69,2.47,2.47,0,0,1-.15-.86v-.78l-3,2.24a2.52,2.52,0,0,0-.76.87,2.08,2.08,0,0,0-.26,1.12,2.52,2.52,0,0,0,.21,1,2.87,2.87,0,0,0,.56.84,2.76,2.76,0,0,0,.85.57,2.48,2.48,0,0,0,1,.21h3.38v1H1084a3.28,3.28,0,0,1-1.36-.28,3.14,3.14,0,0,1-1.11-.74,3.36,3.36,0,0,1-.75-1.1,3.23,3.23,0,0,1-.28-1.35,3.41,3.41,0,0,1,.39-1.6,3.74,3.74,0,0,1,1.07-1.24l.78-.56.92-.68.91-.67.73-.53a.91.91,0,0,1,.16-.11,1,1,0,0,1,.17-.1l-3.3-1a.73.73,0,0,0-.6.11.9.9,0,0,0-.39.5Zm.57-5.56h1.13v1.13h-1.13Z"/><path d="M1090.85,601.67a1.21,1.21,0,0,0,1.19-1.21v-2.63h.83v2.63a2.15,2.15,0,0,1-.17.85,2.24,2.24,0,0,1-1.16,1.16,2.14,2.14,0,0,1-.84.17h-1.43a.19.19,0,0,1-.21-.21v-.54a.25.25,0,0,1,.06-.16.2.2,0,0,1,.15-.06Zm-1.58,3.9h1.13v-1.13h-1.13Zm1.91,0h1.12v-1.13h-1.12Z"/><path d="M1093.14,606.34l-.27-.85,1.71-.55a2.12,2.12,0,0,0,1.08-.8,2.17,2.17,0,0,0,.4-1.29v-4.61h.83v4.55a3.19,3.19,0,0,1-.15,1,3.07,3.07,0,0,1-.43.87,3.76,3.76,0,0,1-.69.69,3.22,3.22,0,0,1-.87.48Z"/><path d="M1102.27,602.43c0,.14-.06.21-.21.21h-.6a2.17,2.17,0,0,1-.84-.17,2.24,2.24,0,0,1-1.16-1.16,2.15,2.15,0,0,1-.17-.85v-7.57h.83v7.57a1.21,1.21,0,0,0,1.19,1.21h.75a.2.2,0,0,1,.15.06.25.25,0,0,1,.06.16Z"/><path d="M1103.64,601.67a1.21,1.21,0,0,0,1.2-1.21v-2.63h.83v2.63a2,2,0,0,1-.18.85,2.09,2.09,0,0,1-.46.69,2.34,2.34,0,0,1-.69.47,2.22,2.22,0,0,1-.85.17h-1.43a.19.19,0,0,1-.21-.21v-.54a.26.26,0,0,1,.07-.16.18.18,0,0,1,.14-.06Zm-1-5.73h1.13v-1.13h-1.13Zm1.9,0h1.13v-1.13h-1.13Z"/><path d="M841.93,247.42a3.77,3.77,0,0,1-1.6,1.53,6,6,0,0,1-2.83.59H835v5.64h-2.27v-13.9h4.79a6,6,0,0,1,2.71.55,3.81,3.81,0,0,1,1.67,1.49,4.16,4.16,0,0,1,.55,2.1A4.24,4.24,0,0,1,841.93,247.42Zm-2.48-.33a2.17,2.17,0,0,0,.63-1.67c0-1.52-.85-2.28-2.58-2.28H835v4.54h2.52A2.82,2.82,0,0,0,839.45,247.09Z"/><path d="M848.21,244.45a4,4,0,0,1,2-.47v2.36h-.58a2.8,2.8,0,0,0-2,.68,3.25,3.25,0,0,0-.69,2.36v5.8H844.6v-11h2.28v1.6A3.63,3.63,0,0,1,848.21,244.45Z"/><path d="M862.3,250.52h-8.42a3,3,0,0,0,3.14,2.92,2.65,2.65,0,0,0,2.6-1.54h2.46a4.93,4.93,0,0,1-1.81,2.49,5.27,5.27,0,0,1-3.25,1,5.69,5.69,0,0,1-2.83-.71,5.1,5.1,0,0,1-2-2,6.15,6.15,0,0,1-.71-3,6.25,6.25,0,0,1,.69-3,4.89,4.89,0,0,1,1.94-2A5.76,5.76,0,0,1,857,244a5.64,5.64,0,0,1,2.78.68,4.72,4.72,0,0,1,1.9,1.91,5.67,5.67,0,0,1,.68,2.83A6.41,6.41,0,0,1,862.3,250.52Zm-2.3-1.84a2.58,2.58,0,0,0-.9-2,3.18,3.18,0,0,0-2.18-.76,2.94,2.94,0,0,0-2,.75,3.16,3.16,0,0,0-1,2Z"/><path d="M866.29,254.89a4.11,4.11,0,0,1-1.63-1.28,3.21,3.21,0,0,1-.64-1.81h2.36a1.62,1.62,0,0,0,.67,1.17,2.47,2.47,0,0,0,1.53.47,2.54,2.54,0,0,0,1.49-.37,1.1,1.1,0,0,0,.53-.95,1,1,0,0,0-.59-.92,10.74,10.74,0,0,0-1.87-.66,20.1,20.1,0,0,1-2-.66,3.51,3.51,0,0,1-1.35-1,2.57,2.57,0,0,1-.57-1.74,2.76,2.76,0,0,1,.52-1.61,3.5,3.5,0,0,1,1.49-1.15,5.58,5.58,0,0,1,2.23-.42,4.6,4.6,0,0,1,3,1,3.39,3.39,0,0,1,1.23,2.59h-2.28a1.62,1.62,0,0,0-.6-1.18,2.25,2.25,0,0,0-1.46-.44,2.34,2.34,0,0,0-1.38.34,1.06,1.06,0,0,0-.48.9,1,1,0,0,0,.32.74,2.36,2.36,0,0,0,.78.47c.31.11.76.26,1.36.43a14.17,14.17,0,0,1,2,.65,3.55,3.55,0,0,1,1.33,1,2.52,2.52,0,0,1,.58,1.7,2.81,2.81,0,0,1-.52,1.68,3.39,3.39,0,0,1-1.47,1.16,5.44,5.44,0,0,1-2.23.42A5.64,5.64,0,0,1,866.29,254.89Z"/><path d="M885.32,250.52H876.9a3,3,0,0,0,3.14,2.92,2.65,2.65,0,0,0,2.6-1.54h2.46a4.93,4.93,0,0,1-1.81,2.49,5.27,5.27,0,0,1-3.25,1,5.69,5.69,0,0,1-2.83-.71,5.1,5.1,0,0,1-2-2,6.15,6.15,0,0,1-.71-3,6.25,6.25,0,0,1,.69-3,4.89,4.89,0,0,1,1.94-2A5.76,5.76,0,0,1,880,244a5.64,5.64,0,0,1,2.78.68,4.72,4.72,0,0,1,1.9,1.91,5.67,5.67,0,0,1,.68,2.83A6.41,6.41,0,0,1,885.32,250.52Zm-2.3-1.84a2.58,2.58,0,0,0-.9-2,3.18,3.18,0,0,0-2.18-.76,2.94,2.94,0,0,0-2,.75,3.16,3.16,0,0,0-1,2Z"/><path d="M895.53,244.52a3.77,3.77,0,0,1,1.61,1.6,5.24,5.24,0,0,1,.58,2.56v6.5h-2.26V249a3.17,3.17,0,0,0-.74-2.27,2.61,2.61,0,0,0-2-.79,2.66,2.66,0,0,0-2,.79,3.17,3.17,0,0,0-.75,2.27v6.16h-2.28v-11h2.28v1.26a3.83,3.83,0,0,1,1.43-1.06,4.64,4.64,0,0,1,1.85-.38A4.91,4.91,0,0,1,895.53,244.52Z"/><path d="M903.28,246v6.1a1.19,1.19,0,0,0,.29.89,1.47,1.47,0,0,0,1,.27H906v1.9h-1.8a3.49,3.49,0,0,1-2.36-.72,3,3,0,0,1-.82-2.34V246h-1.3v-1.86H901v-2.74h2.3v2.74H906V246Z"/><path d="M908,246.68a5,5,0,0,1,4.51-2.7,4.78,4.78,0,0,1,2.27.51,4.47,4.47,0,0,1,1.55,1.27v-1.6h2.3v11h-2.3v-1.64a4.47,4.47,0,0,1-1.58,1.3,4.79,4.79,0,0,1-2.28.52,4.84,4.84,0,0,1-2.6-.73,5.27,5.27,0,0,1-1.87-2,6.26,6.26,0,0,1-.69-3A6.08,6.08,0,0,1,908,246.68Zm7.86,1A3.24,3.24,0,0,0,913,246a3.27,3.27,0,0,0-1.64.43,3.39,3.39,0,0,0-1.23,1.26,4,4,0,0,0-.47,2,4.13,4.13,0,0,0,.47,2,3.41,3.41,0,0,0,1.24,1.31,3.22,3.22,0,0,0,4.5-1.28,4,4,0,0,0,.47-2A3.92,3.92,0,0,0,915.85,247.68Z"/><path d="M924.28,246v6.1a1.19,1.19,0,0,0,.29.89,1.47,1.47,0,0,0,1,.27H927v1.9h-1.8a3.49,3.49,0,0,1-2.36-.72,3,3,0,0,1-.82-2.34V246h-1.3v-1.86H922v-2.74h2.3v2.74H927V246Z"/><path d="M929.18,242.28a1.46,1.46,0,0,1,1-2.5,1.39,1.39,0,0,1,1,.42,1.5,1.5,0,0,1,0,2.08,1.39,1.39,0,0,1-1,.42A1.42,1.42,0,0,1,929.18,242.28Zm2.16,1.88v11h-2.28v-11Z"/><path d="M936.3,254.65a5.08,5.08,0,0,1-2-2,6,6,0,0,1-.72-3,6,6,0,0,1,.74-3,5.18,5.18,0,0,1,2-2,6.19,6.19,0,0,1,5.72,0,5,5,0,0,1,2,2,5.86,5.86,0,0,1,.74,3,5.77,5.77,0,0,1-.76,3,5.13,5.13,0,0,1-2.07,2,6,6,0,0,1-2.89.71A5.68,5.68,0,0,1,936.3,254.65Zm4.47-1.69A3.16,3.16,0,0,0,942,251.7a4.64,4.64,0,0,0,0-4.07,3.06,3.06,0,0,0-1.22-1.25,3.39,3.39,0,0,0-3.27,0,3.06,3.06,0,0,0-1.19,1.25,4.32,4.32,0,0,0-.44,2,3.9,3.9,0,0,0,.91,2.75,3,3,0,0,0,2.29,1A3.37,3.37,0,0,0,940.77,253Z"/><path d="M955,244.52a3.77,3.77,0,0,1,1.61,1.6,5.24,5.24,0,0,1,.58,2.56v6.5h-2.26V249a3.17,3.17,0,0,0-.74-2.27,2.61,2.61,0,0,0-2-.79,2.66,2.66,0,0,0-2,.79,3.17,3.17,0,0,0-.75,2.27v6.16H947.1v-11h2.28v1.26a3.83,3.83,0,0,1,1.43-1.06,4.64,4.64,0,0,1,1.85-.38A4.91,4.91,0,0,1,955,244.52Z"/><path d="M967.94,246v6.1a1.19,1.19,0,0,0,.29.89,1.47,1.47,0,0,0,1,.27h1.4v1.9h-1.8a3.49,3.49,0,0,1-2.36-.72,3,3,0,0,1-.82-2.34V246h-1.3v-1.86h1.3v-2.74h2.3v2.74h2.68V246Z"/><path d="M972.84,242.28a1.46,1.46,0,0,1,1-2.5,1.39,1.39,0,0,1,1,.42,1.5,1.5,0,0,1,0,2.08,1.39,1.39,0,0,1-1,.42A1.42,1.42,0,0,1,972.84,242.28Zm2.16,1.88v11h-2.28v-11Z"/><path d="M980.66,246v6.1a1.19,1.19,0,0,0,.29.89,1.47,1.47,0,0,0,1,.27h1.4v1.9h-1.8a3.49,3.49,0,0,1-2.36-.72,3,3,0,0,1-.82-2.34V246h-1.3v-1.86h1.3v-2.74h2.3v2.74h2.68V246Z"/><path d="M987.72,240.38v14.8h-2.28v-14.8Z"/><path d="M1000.74,250.52h-8.42a3,3,0,0,0,3.14,2.92,2.65,2.65,0,0,0,2.6-1.54h2.46a5,5,0,0,1-1.81,2.49,5.27,5.27,0,0,1-3.25,1,5.69,5.69,0,0,1-2.83-.71,5.1,5.1,0,0,1-2-2,6.15,6.15,0,0,1-.71-3,6.25,6.25,0,0,1,.69-3,4.89,4.89,0,0,1,1.94-2,5.76,5.76,0,0,1,2.87-.7,5.64,5.64,0,0,1,2.78.68,4.72,4.72,0,0,1,1.9,1.91,5.67,5.67,0,0,1,.68,2.83A7.55,7.55,0,0,1,1000.74,250.52Zm-2.3-1.84a2.58,2.58,0,0,0-.9-2,3.18,3.18,0,0,0-2.18-.76,2.94,2.94,0,0,0-2,.75,3.16,3.16,0,0,0-1,2Z"/><path d="M1015,244.49a4.3,4.3,0,0,1,1.55,1.27v-1.6h2.3v11.2a5.59,5.59,0,0,1-.64,2.71,4.62,4.62,0,0,1-1.85,1.87,5.85,5.85,0,0,1-2.89.68,6.29,6.29,0,0,1-3.72-1.05,3.85,3.85,0,0,1-1.68-2.85h2.26a2.43,2.43,0,0,0,1.11,1.39,3.79,3.79,0,0,0,2,.53,3,3,0,0,0,2.23-.84,3.26,3.26,0,0,0,.85-2.44v-1.84a4.64,4.64,0,0,1-1.57,1.31,4.73,4.73,0,0,1-2.25.53,4.89,4.89,0,0,1-2.63-.73,5.22,5.22,0,0,1-1.88-2,6.26,6.26,0,0,1-.69-3,6.08,6.08,0,0,1,.69-2.94,5,5,0,0,1,4.51-2.7A4.9,4.9,0,0,1,1015,244.49Zm1.08,3.19a3.26,3.26,0,0,0-5.74,0,4,4,0,0,0-.47,2,4.13,4.13,0,0,0,.47,2,3.34,3.34,0,0,0,1.24,1.31,3.18,3.18,0,0,0,1.63.45,3.25,3.25,0,0,0,1.64-.44,3.19,3.19,0,0,0,1.23-1.29,4.09,4.09,0,0,0,.47-2A4,4,0,0,0,1016.05,247.68Z"/><path d="M1023.78,254.65a5.08,5.08,0,0,1-2-2,6,6,0,0,1-.72-3,6,6,0,0,1,.74-3,5.11,5.11,0,0,1,2-2,6.19,6.19,0,0,1,5.72,0,5.11,5.11,0,0,1,2,2,6,6,0,0,1,.74,3,5.77,5.77,0,0,1-.76,3,5.26,5.26,0,0,1-2.07,2,6,6,0,0,1-2.89.71A5.68,5.68,0,0,1,1023.78,254.65Zm4.47-1.69a3.22,3.22,0,0,0,1.25-1.26,4.64,4.64,0,0,0,0-4.07,3.13,3.13,0,0,0-1.22-1.25,3.34,3.34,0,0,0-1.64-.42,3.27,3.27,0,0,0-1.63.42,3,3,0,0,0-1.19,1.25,4.32,4.32,0,0,0-.44,2,3.85,3.85,0,0,0,.91,2.75,3,3,0,0,0,2.29,1A3.37,3.37,0,0,0,1028.25,253Z"/><path d="M1044.6,250.52h-8.42a3.05,3.05,0,0,0,1,2.12,3.12,3.12,0,0,0,2.16.8,2.66,2.66,0,0,0,2.6-1.54h2.46a5,5,0,0,1-1.81,2.49,5.29,5.29,0,0,1-3.25,1,5.66,5.66,0,0,1-2.83-.71,5,5,0,0,1-2-2,6.15,6.15,0,0,1-.71-3,6.25,6.25,0,0,1,.69-3,4.89,4.89,0,0,1,1.94-2,5.73,5.73,0,0,1,2.87-.7,5.64,5.64,0,0,1,2.78.68,4.78,4.78,0,0,1,1.9,1.91,5.78,5.78,0,0,1,.68,2.83A7.55,7.55,0,0,1,1044.6,250.52Zm-2.3-1.84a2.58,2.58,0,0,0-.9-2,3.2,3.2,0,0,0-2.18-.76,2.92,2.92,0,0,0-2,.75,3.16,3.16,0,0,0-1,2Z"/><path d="M1048.59,254.89a4,4,0,0,1-1.63-1.28,3.21,3.21,0,0,1-.64-1.81h2.36a1.59,1.59,0,0,0,.67,1.17,2.47,2.47,0,0,0,1.53.47,2.54,2.54,0,0,0,1.49-.37,1.12,1.12,0,0,0,.53-.95,1,1,0,0,0-.59-.92,11.06,11.06,0,0,0-1.87-.66,19.28,19.28,0,0,1-2-.66,3.51,3.51,0,0,1-1.35-1,2.57,2.57,0,0,1-.57-1.74,2.69,2.69,0,0,1,.52-1.61,3.44,3.44,0,0,1,1.49-1.15,5.58,5.58,0,0,1,2.23-.42,4.64,4.64,0,0,1,3,1,3.39,3.39,0,0,1,1.23,2.59h-2.28a1.62,1.62,0,0,0-.6-1.18,2.27,2.27,0,0,0-1.46-.44,2.34,2.34,0,0,0-1.38.34,1.06,1.06,0,0,0-.48.9,1,1,0,0,0,.32.74,2.17,2.17,0,0,0,.78.47c.31.11.76.26,1.36.43a14.17,14.17,0,0,1,2,.65,3.63,3.63,0,0,1,1.33,1,2.57,2.57,0,0,1,.58,1.7,2.81,2.81,0,0,1-.52,1.68,3.51,3.51,0,0,1-1.47,1.16,5.48,5.48,0,0,1-2.23.42A5.6,5.6,0,0,1,1048.59,254.89Z"/><path d="M1070.75,244.52a3.82,3.82,0,0,1,1.56,1.6,5.35,5.35,0,0,1,.57,2.56v6.5h-2.26V249a3.21,3.21,0,0,0-.74-2.27,2.62,2.62,0,0,0-2-.79,2.66,2.66,0,0,0-2,.79,3.17,3.17,0,0,0-.75,2.27v6.16h-2.28v-14.8h2.28v5.06a3.81,3.81,0,0,1,1.47-1.08,5,5,0,0,1,2-.38A4.62,4.62,0,0,1,1070.75,244.52Z"/><path d="M1085.8,250.52h-8.42a3.05,3.05,0,0,0,1,2.12,3.12,3.12,0,0,0,2.16.8,2.66,2.66,0,0,0,2.6-1.54h2.46a5,5,0,0,1-1.81,2.49,5.29,5.29,0,0,1-3.25,1,5.66,5.66,0,0,1-2.83-.71,5,5,0,0,1-2-2,6.15,6.15,0,0,1-.71-3,6.25,6.25,0,0,1,.69-3,4.89,4.89,0,0,1,1.94-2,5.73,5.73,0,0,1,2.87-.7,5.64,5.64,0,0,1,2.78.68,4.78,4.78,0,0,1,1.9,1.91,5.78,5.78,0,0,1,.68,2.83A7.55,7.55,0,0,1,1085.8,250.52Zm-2.3-1.84a2.58,2.58,0,0,0-.9-2,3.2,3.2,0,0,0-2.18-.76,2.92,2.92,0,0,0-2,.75,3.16,3.16,0,0,0-1,2Z"/><path d="M1091.73,244.45a4,4,0,0,1,2-.47v2.36h-.58a2.8,2.8,0,0,0-2,.68,3.25,3.25,0,0,0-.69,2.36v5.8h-2.28v-11h2.28v1.6A3.56,3.56,0,0,1,1091.73,244.45Z"/><path d="M1105.82,250.52h-8.42a3.05,3.05,0,0,0,1,2.12,3.12,3.12,0,0,0,2.16.8,2.66,2.66,0,0,0,2.6-1.54h2.46a5,5,0,0,1-1.81,2.49,5.29,5.29,0,0,1-3.25,1,5.66,5.66,0,0,1-2.83-.71,5,5,0,0,1-2-2,6.15,6.15,0,0,1-.71-3,6.25,6.25,0,0,1,.69-3,4.89,4.89,0,0,1,1.94-2,5.73,5.73,0,0,1,2.87-.7,5.64,5.64,0,0,1,2.78.68,4.78,4.78,0,0,1,1.9,1.91,5.78,5.78,0,0,1,.68,2.83A7.55,7.55,0,0,1,1105.82,250.52Zm-2.3-1.84a2.58,2.58,0,0,0-.9-2,3.2,3.2,0,0,0-2.18-.76,2.92,2.92,0,0,0-2,.75,3.16,3.16,0,0,0-1,2Z"/></g></svg>