<svg xmlns="http://www.w3.org/2000/svg" xmlns:xlink="http://www.w3.org/1999/xlink" viewBox="0 0 1152 648"><defs><style>.cls-1{fill:none;}.cls-2{clip-path:url(#clip-path);}.cls-3{fill:#79e45e;}.cls-4{clip-path:url(#clip-path-2);}.cls-5{clip-path:url(#clip-path-3);}</style><clipPath id="clip-path"><rect class="cls-1" x="-1176" width="1152" height="648"/></clipPath><clipPath id="clip-path-2"><rect class="cls-1" width="1152" height="648" transform="translate(1152 648) rotate(180)"/></clipPath><clipPath id="clip-path-3"><rect class="cls-1" x="1176" y="-0.29" width="487.56" height="647.75"/></clipPath></defs><g id="Layer_6" data-name="Layer 6"><g class="cls-2"><circle class="cls-3" cx="-24" cy="324" r="929.76"/></g><g class="cls-4"><circle class="cls-3" cy="324" r="929.76"/></g><path d="M52.65,592.79a4.34,4.34,0,0,1,1.91,1.81,6.31,6.31,0,0,1,0,5.62,4.44,4.44,0,0,1-1.91,1.8,6.66,6.66,0,0,1-3,.62H46.56V592.16h3.11A6.4,6.4,0,0,1,52.65,592.79Zm.35,7.83a4.3,4.3,0,0,0,1.15-3.2A4.37,4.37,0,0,0,53,594.19,4.45,4.45,0,0,0,49.67,593H47.61v8.74h2.06A4.49,4.49,0,0,0,53,600.62Z"/><path d="M57.17,596.32a3.55,3.55,0,0,1,1.4-1.47,3.86,3.86,0,0,1,2-.52,3.65,3.65,0,0,1,2,.54,3.13,3.13,0,0,1,1.23,1.38v-1.8h1v8.19h-1v-1.81a3.35,3.35,0,0,1-1.24,1.38,3.62,3.62,0,0,1-2,.55,3.76,3.76,0,0,1-2-.53,3.58,3.58,0,0,1-1.4-1.48,4.78,4.78,0,0,1-.5-2.22A4.71,4.71,0,0,1,57.17,596.32Zm6.25.49a2.93,2.93,0,0,0-1.1-1.16,3,3,0,0,0-1.54-.41,3.12,3.12,0,0,0-1.56.4,2.76,2.76,0,0,0-1.09,1.13,3.72,3.72,0,0,0-.4,1.76,3.78,3.78,0,0,0,.4,1.76,2.84,2.84,0,0,0,1.09,1.16,3.11,3.11,0,0,0,1.56.39,3,3,0,0,0,1.54-.4,2.9,2.9,0,0,0,1.1-1.15,3.9,3.9,0,0,0,0-3.48Z"/><path d="M68.64,595.33v5.09a1.43,1.43,0,0,0,.28,1,1.37,1.37,0,0,0,1,.29h1v.9H69.76a2.3,2.3,0,0,1-1.65-.52,2.27,2.27,0,0,1-.54-1.7v-5.09H66.44v-.88h1.13V592.4h1.07v2.05h2.25v.88Z"/><path d="M80,599H73.2a3.3,3.3,0,0,0,.45,1.59,2.68,2.68,0,0,0,1.06,1,3.18,3.18,0,0,0,1.44.34,2.89,2.89,0,0,0,1.72-.5,2.29,2.29,0,0,0,.92-1.33H79.9a3.41,3.41,0,0,1-1.28,2,3.89,3.89,0,0,1-2.47.76,4.08,4.08,0,0,1-2.07-.52,3.62,3.62,0,0,1-1.43-1.47,4.61,4.61,0,0,1-.52-2.22,4.72,4.72,0,0,1,.51-2.24,3.56,3.56,0,0,1,1.43-1.47,4.19,4.19,0,0,1,2.08-.51,4,4,0,0,1,2,.51,3.48,3.48,0,0,1,1.35,1.37,3.89,3.89,0,0,1,.47,1.91C80,598.48,80,598.76,80,599Zm-1.4-2.41a2.46,2.46,0,0,0-1-1,3.17,3.17,0,0,0-1.44-.33,2.87,2.87,0,0,0-2,.75,3,3,0,0,0-.91,2.11H79A2.85,2.85,0,0,0,78.59,596.54Z"/><path d="M91.5,594.87a3.19,3.19,0,0,1,1.23,1.36v-1.78h1v8.4a3.94,3.94,0,0,1-.49,2,3.4,3.4,0,0,1-1.36,1.35,4.14,4.14,0,0,1-2,.47,4.33,4.33,0,0,1-2.61-.75,3.17,3.17,0,0,1-1.3-2h1a2.54,2.54,0,0,0,1,1.36,3.24,3.24,0,0,0,1.85.51,3,3,0,0,0,1.43-.33,2.45,2.45,0,0,0,1-1,3.21,3.21,0,0,0,.36-1.56v-2a3.22,3.22,0,0,1-1.24,1.38,3.55,3.55,0,0,1-2,.55,3.83,3.83,0,0,1-2-.53,3.55,3.55,0,0,1-1.39-1.48,4.66,4.66,0,0,1-.51-2.22,4.59,4.59,0,0,1,.51-2.21,3.53,3.53,0,0,1,1.39-1.47,3.92,3.92,0,0,1,2-.52A3.68,3.68,0,0,1,91.5,594.87Zm.82,1.94a2.86,2.86,0,0,0-1.1-1.16,3,3,0,0,0-1.54-.41,3.12,3.12,0,0,0-1.56.4A2.68,2.68,0,0,0,87,596.77a3.6,3.6,0,0,0-.4,1.76,3.66,3.66,0,0,0,.4,1.76,2.76,2.76,0,0,0,1.08,1.16,3.11,3.11,0,0,0,1.56.39,3,3,0,0,0,1.54-.4,2.84,2.84,0,0,0,1.1-1.15,3.9,3.9,0,0,0,0-3.48Z"/><path d="M97.69,602.24a3.69,3.69,0,0,1-1.46-1.47,4.5,4.5,0,0,1-.53-2.22,4.44,4.44,0,0,1,.54-2.23,3.71,3.71,0,0,1,1.47-1.47,4.14,4.14,0,0,1,2.08-.52,4.25,4.25,0,0,1,2.1.52,3.71,3.71,0,0,1,1.47,1.47,4.54,4.54,0,0,1,.53,2.23,4.45,4.45,0,0,1-.54,2.22,3.7,3.7,0,0,1-1.49,1.47,4.25,4.25,0,0,1-2.1.52A4.08,4.08,0,0,1,97.69,602.24Zm3.57-.76a2.84,2.84,0,0,0,1.12-1.11,3.55,3.55,0,0,0,.43-1.82,3.7,3.7,0,0,0-.42-1.83,2.82,2.82,0,0,0-1.11-1.11,3.23,3.23,0,0,0-3,0,2.73,2.73,0,0,0-1.1,1.11,3.7,3.7,0,0,0-.42,1.83,3.66,3.66,0,0,0,.42,1.82,2.77,2.77,0,0,0,1.09,1.11,3.15,3.15,0,0,0,1.49.36A3.19,3.19,0,0,0,101.26,601.48Z"/><path d="M113.19,599h-6.8a3.3,3.3,0,0,0,.45,1.59,2.7,2.7,0,0,0,1.07,1,3.18,3.18,0,0,0,1.44.34,2.91,2.91,0,0,0,1.72-.5,2.33,2.33,0,0,0,.92-1.33h1.11a3.45,3.45,0,0,1-1.28,2,3.91,3.91,0,0,1-2.47.76,4.08,4.08,0,0,1-2.07-.52,3.56,3.56,0,0,1-1.43-1.47,4.5,4.5,0,0,1-.52-2.22,4.72,4.72,0,0,1,.51-2.24,3.53,3.53,0,0,1,1.42-1.47,4.23,4.23,0,0,1,2.09-.51,4,4,0,0,1,2.05.51,3.62,3.62,0,0,1,1.35,1.37,4,4,0,0,1,.47,1.91C113.22,598.48,113.21,598.76,113.19,599Zm-1.4-2.41a2.54,2.54,0,0,0-1.05-1,3.17,3.17,0,0,0-1.44-.33,2.85,2.85,0,0,0-2,.75,3,3,0,0,0-.92,2.11h5.76A2.94,2.94,0,0,0,111.79,596.54Z"/><path d="M115.66,602.11a2.38,2.38,0,0,1-1-1.78h1.08a1.58,1.58,0,0,0,.65,1.12,2.59,2.59,0,0,0,1.55.43,2.07,2.07,0,0,0,1.35-.41,1.26,1.26,0,0,0,.48-1,.91.91,0,0,0-.27-.68,1.69,1.69,0,0,0-.68-.43,9.27,9.27,0,0,0-1.12-.34,11.26,11.26,0,0,1-1.48-.48,2.62,2.62,0,0,1-1-.71,2,2,0,0,1-.4-1.27,1.89,1.89,0,0,1,.36-1.11,2.46,2.46,0,0,1,1-.81,3.59,3.59,0,0,1,1.5-.3,3.22,3.22,0,0,1,2.13.67,2.42,2.42,0,0,1,.87,1.83h-1a1.58,1.58,0,0,0-.56-1.16,2.47,2.47,0,0,0-2.71-.07,1.15,1.15,0,0,0-.49.94,1.09,1.09,0,0,0,.29.78,1.94,1.94,0,0,0,.73.48,11.3,11.3,0,0,0,1.17.39,11.15,11.15,0,0,1,1.41.46,2.45,2.45,0,0,1,.9.66,1.75,1.75,0,0,1,.39,1.15,2,2,0,0,1-.36,1.18,2.43,2.43,0,0,1-1,.82,3.46,3.46,0,0,1-1.48.3A3.82,3.82,0,0,1,115.66,602.11Z"/><path d="M132.47,594.69a2.75,2.75,0,0,1,1.17,1.19,4.08,4.08,0,0,1,.43,2v4.8h-1V598a2.88,2.88,0,0,0-.66-2,2.42,2.42,0,0,0-1.83-.71,2.51,2.51,0,0,0-1.89.75,3.14,3.14,0,0,0-.7,2.21v4.47h-1v-11.1h1v4.3a2.75,2.75,0,0,1,1.15-1.14,3.64,3.64,0,0,1,1.7-.4A3.52,3.52,0,0,1,132.47,594.69Z"/><path d="M143.77,599H137a3.3,3.3,0,0,0,.45,1.59,2.68,2.68,0,0,0,1.06,1,3.18,3.18,0,0,0,1.44.34,2.89,2.89,0,0,0,1.72-.5,2.29,2.29,0,0,0,.92-1.33h1.11a3.41,3.41,0,0,1-1.28,2,3.89,3.89,0,0,1-2.47.76,4.08,4.08,0,0,1-2.07-.52,3.62,3.62,0,0,1-1.43-1.47,4.61,4.61,0,0,1-.52-2.22,4.72,4.72,0,0,1,.51-2.24,3.56,3.56,0,0,1,1.43-1.47,4.19,4.19,0,0,1,2.08-.51,4,4,0,0,1,2,.51,3.48,3.48,0,0,1,1.35,1.37,3.89,3.89,0,0,1,.47,1.91C143.8,598.48,143.79,598.76,143.77,599Zm-1.4-2.41a2.46,2.46,0,0,0-1-1,3.17,3.17,0,0,0-1.44-.33,2.87,2.87,0,0,0-2,.75,3,3,0,0,0-.91,2.11h5.76A2.85,2.85,0,0,0,142.37,596.54Z"/><path d="M147.83,594.72a3.41,3.41,0,0,1,1.75-.42v1.1h-.29a2.3,2.3,0,0,0-2.52,2.67v4.57h-1.05v-8.19h1.05v1.46A2.61,2.61,0,0,1,147.83,594.72Z"/><path d="M158.53,599h-6.79a3.3,3.3,0,0,0,.45,1.59,2.68,2.68,0,0,0,1.06,1,3.18,3.18,0,0,0,1.44.34,2.89,2.89,0,0,0,1.72-.5,2.29,2.29,0,0,0,.92-1.33h1.11a3.41,3.41,0,0,1-1.28,2,3.89,3.89,0,0,1-2.47.76,4.08,4.08,0,0,1-2.07-.52,3.62,3.62,0,0,1-1.43-1.47,4.61,4.61,0,0,1-.52-2.22,4.72,4.72,0,0,1,.51-2.24,3.56,3.56,0,0,1,1.43-1.47,4.19,4.19,0,0,1,2.08-.51,4,4,0,0,1,2.05.51,3.48,3.48,0,0,1,1.35,1.37,3.89,3.89,0,0,1,.47,1.91C158.56,598.48,158.55,598.76,158.53,599Zm-1.4-2.41a2.46,2.46,0,0,0-1-1,3.17,3.17,0,0,0-1.44-.33,2.87,2.87,0,0,0-2,.75,3,3,0,0,0-.91,2.11h5.76A2.85,2.85,0,0,0,157.13,596.54Z"/><path d="M75.14,303.64a10.48,10.48,0,0,1-4.48,4.27,16.33,16.33,0,0,1-7.7,1.62H56.65V324H49.09V286.31H63a16.79,16.79,0,0,1,7.46,1.51A10.47,10.47,0,0,1,75,292a12.19,12.19,0,0,1,.11,11.66ZM67.28,302a5.25,5.25,0,0,0,1.52-4c0-3.67-2.06-5.51-6.16-5.51h-6v11h6A6.5,6.5,0,0,0,67.28,302Z"/><path d="M93.28,295a10.61,10.61,0,0,1,5.38-1.35v7.94h-2a7.66,7.66,0,0,0-5.37,1.67c-1.21,1.12-1.81,3.06-1.81,5.84V324H81.92V294.08h7.56v4.65A10.6,10.6,0,0,1,93.28,295Z"/><path d="M131.33,311.31H109.46a7.43,7.43,0,0,0,2.27,5.08,7,7,0,0,0,4.91,1.83,6.16,6.16,0,0,0,6-3.62h8.16a13.63,13.63,0,0,1-5,7.1,14.49,14.49,0,0,1-9,2.79,15.6,15.6,0,0,1-7.75-1.92,13.49,13.49,0,0,1-5.34-5.43,16.61,16.61,0,0,1-1.92-8.1,16.94,16.94,0,0,1,1.89-8.15,13.17,13.17,0,0,1,5.29-5.4,17,17,0,0,1,15.47-.06,13,13,0,0,1,5.24,5.22,15.77,15.77,0,0,1,1.86,7.74A18.36,18.36,0,0,1,131.33,311.31Zm-7.62-5.08a6,6,0,0,0-2.1-4.67,7.48,7.48,0,0,0-5-1.75,6.87,6.87,0,0,0-4.72,1.7,7.47,7.47,0,0,0-2.35,4.72Z"/><path d="M141.91,323.16a11.72,11.72,0,0,1-4.62-3.59,9.12,9.12,0,0,1-1.86-5H143a4.13,4.13,0,0,0,1.71,2.86,5.88,5.88,0,0,0,3.69,1.14,5.73,5.73,0,0,0,3.38-.87,2.6,2.6,0,0,0,1.21-2.21,2.34,2.34,0,0,0-1.48-2.19,28.08,28.08,0,0,0-4.73-1.59,39.82,39.82,0,0,1-5.48-1.68,9.46,9.46,0,0,1-3.67-2.64,7.14,7.14,0,0,1-1.54-4.81,7.76,7.76,0,0,1,1.43-4.53,9.64,9.64,0,0,1,4.11-3.24A15.25,15.25,0,0,1,148,293.6a12.85,12.85,0,0,1,8.53,2.67,9.94,9.94,0,0,1,3.51,7.21h-7.24a3.87,3.87,0,0,0-1.48-2.83,5.47,5.47,0,0,0-3.54-1.06,5.53,5.53,0,0,0-3.16.76,2.41,2.41,0,0,0-1.1,2.1,2.47,2.47,0,0,0,1.51,2.3,23.58,23.58,0,0,0,4.7,1.59A38.93,38.93,0,0,1,155,308a9.34,9.34,0,0,1,3.65,2.67,7.4,7.4,0,0,1,1.59,4.78,7.94,7.94,0,0,1-1.43,4.64,9.35,9.35,0,0,1-4.1,3.21,15.51,15.51,0,0,1-6.24,1.17A15.8,15.8,0,0,1,141.91,323.16Z"/><path d="M194.07,311.31H172.2a7.47,7.47,0,0,0,2.27,5.08,7,7,0,0,0,4.92,1.83,6.17,6.17,0,0,0,6-3.62h8.15a13.62,13.62,0,0,1-5,7.1,14.49,14.49,0,0,1-9,2.79,15.57,15.57,0,0,1-7.75-1.92,13.51,13.51,0,0,1-5.35-5.43,16.6,16.6,0,0,1-1.91-8.1,16.94,16.94,0,0,1,1.89-8.15,13.17,13.17,0,0,1,5.29-5.4,17,17,0,0,1,15.47-.06,13,13,0,0,1,5.24,5.22,15.77,15.77,0,0,1,1.86,7.74A17.19,17.19,0,0,1,194.07,311.31Zm-7.61-5.08a6,6,0,0,0-2.11-4.67,7.44,7.44,0,0,0-5-1.75,6.86,6.86,0,0,0-4.72,1.7,7.47,7.47,0,0,0-2.35,4.72Z"/><path d="M225,297q3.28,3.38,3.29,9.42V324h-7.56V307.48A7.77,7.77,0,0,0,219,302a6.34,6.34,0,0,0-4.86-1.91,6.48,6.48,0,0,0-4.94,1.91,7.69,7.69,0,0,0-1.81,5.49V324H199.8V294.08h7.56v3.73a10.4,10.4,0,0,1,3.86-3.05,11.89,11.89,0,0,1,5.16-1.11A11.55,11.55,0,0,1,225,297Z"/><path d="M244.29,300.29v14.48A2.88,2.88,0,0,0,245,317a3.6,3.6,0,0,0,2.46.68H251V324h-4.75q-9.56,0-9.56-9.29V300.29h-3.56v-6.21h3.56v-7.39h7.61v7.39H251v6.21Z"/><path d="M256.31,300.89a13.21,13.21,0,0,1,4.91-5.4,13.08,13.08,0,0,1,6.94-1.89A12.19,12.19,0,0,1,274,295a11.91,11.91,0,0,1,4,3.4v-4.27h7.62V324H278v-4.37a11.27,11.27,0,0,1-4,3.48,12.28,12.28,0,0,1-5.91,1.38,12.7,12.7,0,0,1-6.89-1.95,13.5,13.5,0,0,1-4.91-5.48,17.57,17.57,0,0,1-1.81-8.13A17.25,17.25,0,0,1,256.31,300.89ZM277,304.32a7.59,7.59,0,0,0-2.91-3,7.84,7.84,0,0,0-3.95-1.05,7.56,7.56,0,0,0-3.88,1,7.64,7.64,0,0,0-2.89,3,9.38,9.38,0,0,0-1.11,4.67,9.7,9.7,0,0,0,1.11,4.73,7.93,7.93,0,0,0,2.91,3.1,7.44,7.44,0,0,0,3.86,1.08,7.84,7.84,0,0,0,3.95-1,7.63,7.63,0,0,0,2.91-3,10.88,10.88,0,0,0,0-9.45Z"/><path d="M301.86,300.29v14.48a2.84,2.84,0,0,0,.73,2.18,3.55,3.55,0,0,0,2.45.68h3.51V324H303.8q-9.56,0-9.56-9.29V300.29h-3.56v-6.21h3.56v-7.39h7.62v7.39h6.69v6.21Z"/><path d="M314.52,289.25a4.44,4.44,0,0,1,0-6.32,5,5,0,0,1,6.64,0,4.44,4.44,0,0,1,0,6.32,5,5,0,0,1-6.64,0Zm7.05,4.83V324H314V294.08Z"/><path d="M334.53,322.57a13.77,13.77,0,0,1-5.43-5.43,16.2,16.2,0,0,1-2-8.1,15.91,15.91,0,0,1,2-8.1,14,14,0,0,1,5.54-5.42,16.93,16.93,0,0,1,15.66,0,14,14,0,0,1,5.53,5.42,15.92,15.92,0,0,1,2,8.1,15.65,15.65,0,0,1-2.08,8.1,14.44,14.44,0,0,1-5.62,5.43,16.3,16.3,0,0,1-7.91,1.92A15.7,15.7,0,0,1,334.53,322.57Zm11.63-5.67a7.28,7.28,0,0,0,2.89-3,10.09,10.09,0,0,0,1.08-4.86,9,9,0,0,0-2.24-6.56,7.35,7.35,0,0,0-5.48-2.29,7.2,7.2,0,0,0-5.43,2.29c-1.46,1.53-2.18,3.72-2.18,6.56s.71,5,2.13,6.56a7,7,0,0,0,5.37,2.3A7.8,7.8,0,0,0,346.16,316.9Z"/><path d="M388.69,297q3.29,3.38,3.29,9.42V324h-7.56V307.48a7.77,7.77,0,0,0-1.78-5.49,6.34,6.34,0,0,0-4.86-1.91,6.48,6.48,0,0,0-4.94,1.91,7.69,7.69,0,0,0-1.81,5.49V324h-7.56V294.08H371v3.73a10.4,10.4,0,0,1,3.86-3.05,11.92,11.92,0,0,1,5.16-1.11A11.55,11.55,0,0,1,388.69,297Z"/><path d="M420.82,300.29v14.48a2.88,2.88,0,0,0,.72,2.18,3.6,3.6,0,0,0,2.46.68h3.51V324h-4.75q-9.56,0-9.56-9.29V300.29h-3.56v-6.21h3.56v-7.39h7.62v7.39h6.69v6.21Z"/><path d="M433.48,289.25a4.44,4.44,0,0,1,0-6.32,5,5,0,0,1,6.64,0,4.44,4.44,0,0,1,0,6.32,5,5,0,0,1-6.64,0Zm7,4.83V324H433V294.08Z"/><path d="M456.78,300.29v14.48a2.84,2.84,0,0,0,.73,2.18,3.56,3.56,0,0,0,2.46.68h3.51V324h-4.76q-9.56,0-9.55-9.29V300.29H445.6v-6.21h3.57v-7.39h7.61v7.39h6.7v6.21Z"/><path d="M476.49,284v40h-7.56V284Z"/><path d="M511.53,311.31H489.66a7.47,7.47,0,0,0,2.27,5.08,7,7,0,0,0,4.92,1.83,6.17,6.17,0,0,0,6-3.62H511a13.62,13.62,0,0,1-5,7.1,14.49,14.49,0,0,1-9,2.79,15.57,15.57,0,0,1-7.75-1.92,13.51,13.51,0,0,1-5.35-5.43A16.72,16.72,0,0,1,482,309a16.94,16.94,0,0,1,1.89-8.15,13.17,13.17,0,0,1,5.29-5.4,17,17,0,0,1,15.47-.06,13,13,0,0,1,5.24,5.22,15.77,15.77,0,0,1,1.86,7.74A17.19,17.19,0,0,1,511.53,311.31Zm-7.61-5.08a6,6,0,0,0-2.11-4.67,7.44,7.44,0,0,0-5-1.75,6.86,6.86,0,0,0-4.72,1.7,7.47,7.47,0,0,0-2.35,4.72Z"/><path d="M66.69,359.72a11,11,0,0,1,4,3.43v-4.27H78.3V389a16.11,16.11,0,0,1-1.67,7.42,12.36,12.36,0,0,1-5,5.18,16,16,0,0,1-8.1,1.92,17.27,17.27,0,0,1-10.44-3,11,11,0,0,1-4.62-8.1h7.5a5.59,5.59,0,0,0,2.57,3.27A8.93,8.93,0,0,0,63.29,397a7.35,7.35,0,0,0,5.34-2q2.06-2,2.06-6v-4.65a11.46,11.46,0,0,1-4,3.51,12,12,0,0,1-5.86,1.41,12.82,12.82,0,0,1-6.91-2A13.5,13.5,0,0,1,49,381.86a17.57,17.57,0,0,1-1.81-8.13,17.25,17.25,0,0,1,1.81-8,13.23,13.23,0,0,1,4.92-5.4,13.07,13.07,0,0,1,6.93-1.89A12.57,12.57,0,0,1,66.69,359.72Zm2.92,9.4a7.68,7.68,0,0,0-2.92-3,7.8,7.8,0,0,0-3.94-1,7.6,7.6,0,0,0-3.89,1,7.71,7.71,0,0,0-2.89,3,9.38,9.38,0,0,0-1.11,4.67A9.7,9.7,0,0,0,56,378.46a8,8,0,0,0,2.92,3.1,7.38,7.38,0,0,0,3.86,1.08,7.8,7.8,0,0,0,3.94-1.05,7.65,7.65,0,0,0,2.92-3,10.88,10.88,0,0,0,0-9.45Z"/><path d="M91.21,387.37a13.77,13.77,0,0,1-5.43-5.43,16.2,16.2,0,0,1-2-8.1,15.91,15.91,0,0,1,2-8.1,14,14,0,0,1,5.54-5.42,16.93,16.93,0,0,1,15.66,0,14,14,0,0,1,5.53,5.42,15.92,15.92,0,0,1,2,8.1,15.65,15.65,0,0,1-2.08,8.1,14.44,14.44,0,0,1-5.62,5.43A16.3,16.3,0,0,1,99,389.29,15.7,15.7,0,0,1,91.21,387.37Zm11.63-5.67a7.28,7.28,0,0,0,2.89-3,10.09,10.09,0,0,0,1.08-4.86,9,9,0,0,0-2.24-6.56A7.35,7.35,0,0,0,99.09,365a7.2,7.2,0,0,0-5.43,2.29c-1.46,1.53-2.18,3.72-2.18,6.56s.71,5,2.13,6.56A7,7,0,0,0,99,382.7,7.8,7.8,0,0,0,102.84,381.7Z"/><path d="M147.74,376.11H125.87a7.47,7.47,0,0,0,2.27,5.08,7,7,0,0,0,4.92,1.83,6.17,6.17,0,0,0,6-3.62h8.15a13.64,13.64,0,0,1-5,7.11,14.5,14.5,0,0,1-9,2.78,15.57,15.57,0,0,1-7.75-1.92,13.51,13.51,0,0,1-5.35-5.43,16.6,16.6,0,0,1-1.91-8.1,16.83,16.83,0,0,1,1.89-8.15,13.11,13.11,0,0,1,5.29-5.4,17,17,0,0,1,15.47-.06,13,13,0,0,1,5.24,5.22,15.77,15.77,0,0,1,1.86,7.74A17.19,17.19,0,0,1,147.74,376.11ZM140.13,371a6,6,0,0,0-2.11-4.67,7.46,7.46,0,0,0-5-1.75,6.86,6.86,0,0,0-4.72,1.7,7.42,7.42,0,0,0-2.35,4.72Z"/><path d="M158.33,388a11.58,11.58,0,0,1-4.62-3.59,9,9,0,0,1-1.86-5h7.61a4.12,4.12,0,0,0,1.7,2.86,5.89,5.89,0,0,0,3.7,1.14,5.73,5.73,0,0,0,3.38-.87,2.6,2.6,0,0,0,1.21-2.21,2.34,2.34,0,0,0-1.48-2.19,28.08,28.08,0,0,0-4.73-1.59,39.38,39.38,0,0,1-5.48-1.68,9.38,9.38,0,0,1-3.67-2.64,7.09,7.09,0,0,1-1.54-4.81,7.76,7.76,0,0,1,1.43-4.53,9.55,9.55,0,0,1,4.1-3.24,15.28,15.28,0,0,1,6.29-1.19,12.88,12.88,0,0,1,8.54,2.67,9.94,9.94,0,0,1,3.51,7.21h-7.24a3.91,3.91,0,0,0-1.48-2.83,6.67,6.67,0,0,0-6.7-.3,2.39,2.39,0,0,0-1.11,2.1,2.49,2.49,0,0,0,1.51,2.3,23.81,23.81,0,0,0,4.7,1.59,39.57,39.57,0,0,1,5.35,1.68,9.31,9.31,0,0,1,3.64,2.67,7.35,7.35,0,0,1,1.6,4.78,7.94,7.94,0,0,1-1.43,4.64,9.44,9.44,0,0,1-4.11,3.21,15.44,15.44,0,0,1-6.24,1.17A15.78,15.78,0,0,1,158.33,388Z"/><path d="M218.64,359.94a10.22,10.22,0,0,1,4.13,4.37,15,15,0,0,1,1.49,6.94V388.8H216.7V372.28a7.72,7.72,0,0,0-1.78-5.48,6.31,6.31,0,0,0-4.86-1.92,6.45,6.45,0,0,0-4.94,1.92,7.64,7.64,0,0,0-1.81,5.48V388.8h-7.56v-40h7.56v13.77a9.83,9.83,0,0,1,3.89-3.05,12.85,12.85,0,0,1,5.4-1.11A12.13,12.13,0,0,1,218.64,359.94Z"/><path d="M259,376.11H237.17a7.46,7.46,0,0,0,2.26,5.08,7,7,0,0,0,4.92,1.83,6.16,6.16,0,0,0,6-3.62h8.16a13.7,13.7,0,0,1-5,7.11,14.55,14.55,0,0,1-9,2.78,15.6,15.6,0,0,1-7.75-1.92,13.51,13.51,0,0,1-5.35-5.43,16.72,16.72,0,0,1-1.91-8.1,16.94,16.94,0,0,1,1.89-8.15,13.17,13.17,0,0,1,5.29-5.4,17,17,0,0,1,15.47-.06,13,13,0,0,1,5.24,5.22,15.77,15.77,0,0,1,1.86,7.74A18.36,18.36,0,0,1,259,376.11ZM251.42,371a6,6,0,0,0-2.1-4.67,7.48,7.48,0,0,0-5-1.75,6.87,6.87,0,0,0-4.72,1.7,7.47,7.47,0,0,0-2.35,4.72Z"/><path d="M276.13,359.8a10.55,10.55,0,0,1,5.37-1.35v7.94h-2a7.66,7.66,0,0,0-5.37,1.67c-1.21,1.12-1.81,3.06-1.81,5.84v14.9h-7.56V358.88h7.56v4.65A10.55,10.55,0,0,1,276.13,359.8Z"/><path d="M314.17,376.11H292.3a7.43,7.43,0,0,0,2.27,5.08,7,7,0,0,0,4.91,1.83,6.15,6.15,0,0,0,6-3.62h8.16a13.7,13.7,0,0,1-5,7.11,14.53,14.53,0,0,1-9,2.78,15.6,15.6,0,0,1-7.75-1.92,13.55,13.55,0,0,1-5.34-5.43,16.61,16.61,0,0,1-1.92-8.1,16.94,16.94,0,0,1,1.89-8.15,13.17,13.17,0,0,1,5.29-5.4,17,17,0,0,1,15.47-.06,13,13,0,0,1,5.24,5.22,15.77,15.77,0,0,1,1.86,7.74A18.36,18.36,0,0,1,314.17,376.11ZM306.55,371a6,6,0,0,0-2.1-4.67,7.46,7.46,0,0,0-5-1.75,6.88,6.88,0,0,0-4.73,1.7,7.47,7.47,0,0,0-2.35,4.72Z"/><path d="M49.1,255.18a2.11,2.11,0,0,1-.9-.19,2.54,2.54,0,0,1-.74-.5,2.25,2.25,0,0,1-.5-.74,2.34,2.34,0,0,1-.18-.91v-2.28h1.4v1.94a.76.76,0,0,0,.18.51.64.64,0,0,0,.52.21h3.18a1.62,1.62,0,0,0,.88-.23,1.4,1.4,0,0,0,.53-.58,1.72,1.72,0,0,0,.17-.75,1.47,1.47,0,0,0-.2-.74l-2.36-4.22,1.38-.92,2.42,4.3a3.49,3.49,0,0,1,.48,1.79,3.34,3.34,0,0,1-1.61,2.84,3.23,3.23,0,0,1-1.73.47Z"/><path d="M59.74,248.68V252a1.09,1.09,0,0,0,.39.86,1.32,1.32,0,0,0,.91.34h1.82a.24.24,0,0,1,.28.28v1.4a.24.24,0,0,1-.28.28H61.32a2.38,2.38,0,0,1-.88-.17,1.53,1.53,0,0,1-.7-.57v.72a4.25,4.25,0,0,1-.23,1.38,4.58,4.58,0,0,1-.64,1.22,4.46,4.46,0,0,1-1,1,4.88,4.88,0,0,1-1.24.65l-2.46.84-.52-1.6,2.58-.86a2.61,2.61,0,0,0,1.34-1,2.68,2.68,0,0,0,.5-1.58v-6.52Z"/><path d="M70.24,254.9a.29.29,0,0,1-.08.19.25.25,0,0,1-.2.09H68.62a2.25,2.25,0,0,1-.66-.1,3.32,3.32,0,0,1-.64-.27,2.09,2.09,0,0,1-.52-.41,1.62,1.62,0,0,1-.32-.5,2.59,2.59,0,0,1-1,.91,2.62,2.62,0,0,1-1.33.37H62.86a.24.24,0,0,1-.28-.28v-1.4a.24.24,0,0,1,.28-.28h1.42a1.41,1.41,0,0,0,1.4-1.14l.68-3.32L68,249l-.56,2.78a1.09,1.09,0,0,0,.27,1,1.19,1.19,0,0,0,1,.43H70a.24.24,0,0,1,.28.28ZM64,259.48H65.9v-1.9H64Zm2.92,0h1.9v-1.9h-1.9Z"/><path d="M73.4,249.58l-1.2-1.14,5.44-6.38,1.2,1.1-3.92,4.62h7.8a3,3,0,0,1,2.09.86,2.9,2.9,0,0,1,.64.94,3,3,0,0,1,.23,1.16v1.48a2.92,2.92,0,0,1-.24,1.17,3,3,0,0,1-.65,1,2.86,2.86,0,0,1-1,.63,3,3,0,0,1-1.15.23l-12.72,0a.25.25,0,0,1-.2-.09.29.29,0,0,1-.08-.19v-1.38a.24.24,0,0,1,.28-.28H83a1,1,0,0,0,.73-.32,1,1,0,0,0,.31-.78v-1.36a1.17,1.17,0,0,0-.35-.85,1.14,1.14,0,0,0-.83-.35Zm-2.3-3.5,4.24-5,.86.78-4.22,5Z"/><path d="M95.94,257.92a2,2,0,0,0,2-2v-.76H94.14v-2h7.5c.19,0,.28.09.28.26v1.42a.24.24,0,0,1-.28.28H99.52l0,.17a1,1,0,0,1,0,.27v.58a3.52,3.52,0,0,1-.3,1.45,3.67,3.67,0,0,1-.81,1.16,3.77,3.77,0,0,1-1.2.78,3.82,3.82,0,0,1-1.47.29H92.4a4,4,0,0,1-1.62-.33,4.17,4.17,0,0,1-2.21-2.21,4,4,0,0,1-.33-1.62v-5h1.64v4.7a2.32,2.32,0,0,0,.2,1,2.6,2.6,0,0,0,.54.78,2.5,2.5,0,0,0,1.76.72Z"/><path d="M103.66,252.08l.4-2.06a2.79,2.79,0,0,1,1-1.62,2.66,2.66,0,0,1,1.77-.64h1.12a3,3,0,0,1,1.16.23,2.92,2.92,0,0,1,1.57,1.57,3,3,0,0,1,.23,1.16v2.44a2,2,0,0,1-.56,1.45,1.92,1.92,0,0,1-1.44.57h-2.42a2.45,2.45,0,0,1-1.16-.28,2.17,2.17,0,0,1-.9-1,2.33,2.33,0,0,1-1,1,2.77,2.77,0,0,1-1.23.28h-.54a.24.24,0,0,1-.28-.28v-1.4a.29.29,0,0,1,.08-.19.25.25,0,0,1,.2-.09h.64a1.41,1.41,0,0,0,1.38-1.14Zm2.62,1.14h3V250.7a1,1,0,0,0-.32-.77,1.06,1.06,0,0,0-.78-.31h-1.42a1,1,0,0,0-.69.24,1.07,1.07,0,0,0-.37.64l-.32,1.6a.92.92,0,0,0,.2.78A.9.9,0,0,0,106.28,253.22Z"/><path d="M114.16,260.2l-.52-1.62,2.58-.84a2.58,2.58,0,0,0,1.33-1,2.65,2.65,0,0,0,.49-1.56v-6.54h1.64V255a4.43,4.43,0,0,1-.22,1.41,4.65,4.65,0,0,1-.62,1.24,4.79,4.79,0,0,1-1,1,4.23,4.23,0,0,1-1.26.67Z"/><path d="M124.14,255.18H122.5V241.82h1.64Z"/><path d="M128.6,248.68V252a1.09,1.09,0,0,0,.39.86,1.32,1.32,0,0,0,.91.34h1.82a.24.24,0,0,1,.28.28v1.4a.24.24,0,0,1-.28.28h-1.54a2.38,2.38,0,0,1-.88-.17,1.53,1.53,0,0,1-.7-.57v.72a4.25,4.25,0,0,1-.23,1.38,4.58,4.58,0,0,1-.64,1.22,4.46,4.46,0,0,1-1,1,4.88,4.88,0,0,1-1.24.65l-2.46.84-.52-1.6,2.58-.86a2.61,2.61,0,0,0,1.34-1,2.68,2.68,0,0,0,.5-1.58v-6.52Z"/><path d="M139.84,251.92a3.17,3.17,0,0,1-.26,1.27,3.32,3.32,0,0,1-1.73,1.73,3.17,3.17,0,0,1-1.27.26h-4.86a.25.25,0,0,1-.2-.09.32.32,0,0,1-.08-.21v-1.36a.32.32,0,0,1,.08-.21.25.25,0,0,1,.2-.09h5.08a1.5,1.5,0,0,0,1-.33,1.23,1.23,0,0,0,.41-1v-.34a2.35,2.35,0,0,1-.94.18h-1.68a2.71,2.71,0,0,1-1.23-.28,2.83,2.83,0,0,1-1-.75,2.92,2.92,0,0,1-.54-1.07,2.81,2.81,0,0,1,0-1.26l.3-1.66a2.78,2.78,0,0,1,2.74-2.26h1.06a2.9,2.9,0,0,1,2.08.86,2.88,2.88,0,0,1,.63.94,2.94,2.94,0,0,1,.23,1.14Zm-5.92-11.54h1.9v1.9h-1.9Zm1.44,9.4h2.84v-2.4a1.09,1.09,0,0,0-1.1-1.1h-1.34a1,1,0,0,0-.7.25,1.08,1.08,0,0,0-.38.65l-.26,1.44a.9.9,0,0,0,.19.81A.93.93,0,0,0,135.36,249.78Zm1.5-9.4h1.9v1.9h-1.9Z"/><path d="M149,254.9a.24.24,0,0,1-.28.28H148a3.05,3.05,0,0,1-1.24-.25,3.28,3.28,0,0,1-1-.69,3.33,3.33,0,0,1-.69-1,3.1,3.1,0,0,1-.25-1.25V241.82h1.64v10.12a1.3,1.3,0,0,0,1.28,1.28h1a.25.25,0,0,1,.2.09.32.32,0,0,1,.08.21Z"/><path d="M148.72,255.18a.24.24,0,0,1-.28-.28v-1.4a.31.31,0,0,1,.28-.28h3.36a5.47,5.47,0,0,0,1.79-.3,3.89,3.89,0,0,0,1.51-.94l1.58-1.5a2.67,2.67,0,0,1,.32-.28l-4.58-1.36a.68.68,0,0,0-.59.06.84.84,0,0,0-.37.46l-.6,1.72-1.44-.38.48-1.68a2.58,2.58,0,0,1,.49-.91,2.54,2.54,0,0,1,.77-.62,2.78,2.78,0,0,1,.94-.29,2.18,2.18,0,0,1,1,.1l7.8,2.34-.5,1.58-.86-.26a1.16,1.16,0,0,0-.73,0,1.93,1.93,0,0,0-.59.3v.72a1.26,1.26,0,0,0,1.28,1.28h2.66a.24.24,0,0,1,.28.28v1.4a.24.24,0,0,1-.28.28H160a3,3,0,0,1-1.1-.2,2.85,2.85,0,0,1-.89-.56,3.12,3.12,0,0,1-.64-.84,3.65,3.65,0,0,1-.35-1l-1.18,1.1A5.51,5.51,0,0,1,154,254.8a6.37,6.37,0,0,1-2.18.38Zm5.5,2.42h1.9v1.9h-1.9Z"/><path d="M169.8,254.9a.29.29,0,0,1-.08.19.25.25,0,0,1-.2.09h-1.34a2.25,2.25,0,0,1-.66-.1,3.32,3.32,0,0,1-.64-.27,2.09,2.09,0,0,1-.52-.41,1.62,1.62,0,0,1-.32-.5,2.59,2.59,0,0,1-1,.91,2.62,2.62,0,0,1-1.33.37h-1.32a.24.24,0,0,1-.28-.28v-1.4a.24.24,0,0,1,.28-.28h1.42a1.41,1.41,0,0,0,1.4-1.14l.68-3.32,1.62.28-.56,2.78a1.09,1.09,0,0,0,.27,1,1.19,1.19,0,0,0,.95.43h1.32a.24.24,0,0,1,.28.28Zm-4.54-8.32h1.9v-1.9h-1.9Z"/><path d="M173.48,253.22a1.3,1.3,0,0,0,1.28-1.28V248.1h1.64v3.84a3.1,3.1,0,0,1-.25,1.25,3.26,3.26,0,0,1-1.72,1.73,3.17,3.17,0,0,1-1.27.26h-3.64a.25.25,0,0,1-.2-.09.29.29,0,0,1-.08-.19v-1.38a.32.32,0,0,1,.08-.21.25.25,0,0,1,.2-.09Zm-3.8,4.36h1.88v1.9h-1.88Zm2.92,0h1.9v1.9h-1.9Z"/><path d="M181,255.18H179.4V241.82H181Z"/><path d="M184.38,260.2l-.52-1.62,2.58-.84a2.58,2.58,0,0,0,1.33-1,2.65,2.65,0,0,0,.49-1.56v-6.54h1.64V255a4.43,4.43,0,0,1-.22,1.41,4.65,4.65,0,0,1-.62,1.24,4.79,4.79,0,0,1-1,1,4.23,4.23,0,0,1-1.26.67Z"/><path d="M195.06,255.18a2.11,2.11,0,0,1-.9-.19,2.54,2.54,0,0,1-.74-.5,2.25,2.25,0,0,1-.5-.74,2.34,2.34,0,0,1-.18-.91v-2.28h1.4v1.94a.76.76,0,0,0,.18.51.64.64,0,0,0,.52.21H198a1.62,1.62,0,0,0,.88-.23,1.47,1.47,0,0,0,.53-.58,1.72,1.72,0,0,0,.17-.75,1.47,1.47,0,0,0-.2-.74L197,246.7l1.38-.92,2.42,4.3a3.49,3.49,0,0,1,.48,1.79,3.34,3.34,0,0,1-1.61,2.84,3.23,3.23,0,0,1-1.73.47Z"/><path d="M206.26,254.54V249h1.64v5.26a2.22,2.22,0,0,0,.2.95,2.67,2.67,0,0,0,.53.79,2.29,2.29,0,0,0,.79.53,2.38,2.38,0,0,0,1,.19h3.52a2,2,0,0,0,.8-.16,2.12,2.12,0,0,0,.66-.44,2.31,2.31,0,0,0,.44-.66,2.15,2.15,0,0,0,.16-.8v-6h1.64v3.24a1.15,1.15,0,0,0,.42,1,1.56,1.56,0,0,0,1,.32h1.12a.25.25,0,0,1,.28.28v1.4a.29.29,0,0,1-.08.19.27.27,0,0,1-.2.09h-.94a2,2,0,0,1-1-.23,1.55,1.55,0,0,1-.58-.51v.72a3.23,3.23,0,0,1-.3,1.38,3.61,3.61,0,0,1-.81,1.12,4,4,0,0,1-1.18.76,3.65,3.65,0,0,1-1.43.28h-3.46a4,4,0,0,1-1.62-.33,4.21,4.21,0,0,1-1.32-.89,4.16,4.16,0,0,1-1.22-2.94Zm4.72-7.76h1.9v1.9H211Z"/><path d="M225.5,255.18a2.93,2.93,0,0,1-1.36-.32,2.77,2.77,0,0,1-1.06-1,2.92,2.92,0,0,1-1.06,1,3,3,0,0,1-1.36.32h-.56a.31.31,0,0,1-.28-.28v-1.4a.24.24,0,0,1,.28-.28H221a1.24,1.24,0,0,0,.9-.39,1.27,1.27,0,0,0,.38-.91v-3.28h1.66V252a1.08,1.08,0,0,0,.38.86,1.25,1.25,0,0,0,.88.34h.46a1.42,1.42,0,0,0,.92-.33,1.47,1.47,0,0,0,.5-.83l.64-3.32,1.64.3-.56,2.76a1.1,1.1,0,0,0,.28,1,1.27,1.27,0,0,0,1,.42h.3a1.27,1.27,0,0,0,.9-.38,1.23,1.23,0,0,0,.38-.9v-3.86h1.66V252a1.27,1.27,0,0,0,.4.87,1.22,1.22,0,0,0,.88.35h.82a.25.25,0,0,1,.28.28v1.4a.34.34,0,0,1-.07.19.26.26,0,0,1-.21.09h-.54a2.91,2.91,0,0,1-1.34-.32,2.65,2.65,0,0,1-1-1,2.87,2.87,0,0,1-1.07,1,3,3,0,0,1-1.35.32,2.8,2.8,0,0,1-1.28-.3,2.08,2.08,0,0,1-.94-1,2.76,2.76,0,0,1-1,1A2.83,2.83,0,0,1,225.5,255.18Zm1.66-8.58h-1.9v-1.9h1.9Zm1.42-2.64h-1.9v-1.9h1.9Zm1.52,2.64h-1.9v-1.9h1.9Z"/><path d="M242.76,254.9a.29.29,0,0,1-.08.19.27.27,0,0,1-.2.09h-1.34a2.16,2.16,0,0,1-.66-.1,3.32,3.32,0,0,1-.64-.27,1.93,1.93,0,0,1-.52-.41,1.46,1.46,0,0,1-.32-.5,2.84,2.84,0,0,1-2.3,1.28h-1.32a.24.24,0,0,1-.28-.28v-1.4a.24.24,0,0,1,.28-.28h1.42a1.42,1.42,0,0,0,.91-.32,1.4,1.4,0,0,0,.49-.82l.68-3.32,1.62.28-.56,2.78a1.09,1.09,0,0,0,.27,1,1.17,1.17,0,0,0,.95.43h1.32a.25.25,0,0,1,.28.28Zm-6.22,4.58h1.88v-1.9h-1.88Zm2.92,0h1.9v-1.9h-1.9Z"/><path d="M249.86,254.9a.29.29,0,0,1-.08.19.27.27,0,0,1-.2.09h-1.34a2.16,2.16,0,0,1-.66-.1,3.32,3.32,0,0,1-.64-.27,1.93,1.93,0,0,1-.52-.41,1.46,1.46,0,0,1-.32-.5,2.84,2.84,0,0,1-2.3,1.28h-1.32a.24.24,0,0,1-.28-.28v-1.4a.24.24,0,0,1,.28-.28h1.42a1.42,1.42,0,0,0,.91-.32,1.4,1.4,0,0,0,.49-.82l.68-3.32,1.62.28-.56,2.78a1.09,1.09,0,0,0,.27,1,1.17,1.17,0,0,0,.95.43h1.32a.25.25,0,0,1,.28.28Zm-6.3-8.32h1.9v-1.9h-1.9Zm2.94,0h1.9v-1.9h-1.9Z"/><path d="M252.34,253.22a1.27,1.27,0,0,0,.9-.38,1.23,1.23,0,0,0,.38-.9V248.1h1.64v3.84a3.28,3.28,0,0,1-.25,1.25,3.33,3.33,0,0,1-.69,1,3.48,3.48,0,0,1-1,.7,3.21,3.21,0,0,1-1.27.26h-2.44a.29.29,0,0,1-.28-.28v-1.38a.28.28,0,0,1,.08-.21.25.25,0,0,1,.2-.09Zm1.08-7.32h1.9V244h-1.9Z"/><path d="M254.2,260.2l-.52-1.6,2.58-.86a2.62,2.62,0,0,0,1.33-1,2.68,2.68,0,0,0,.49-1.57v-6.52h1.64V255a4.72,4.72,0,0,1-.22,1.41,5,5,0,0,1-.62,1.24,4.59,4.59,0,0,1-1,1,4.54,4.54,0,0,1-1.27.67Zm3.74-15.6h1.9v1.9h-1.9Z"/><path d="M266.48,248.68V252a1.09,1.09,0,0,0,.39.86,1.32,1.32,0,0,0,.91.34h1.82a.25.25,0,0,1,.28.28v1.4a.25.25,0,0,1-.28.28h-1.54a2.38,2.38,0,0,1-.88-.17,1.49,1.49,0,0,1-.7-.57v.72a4.25,4.25,0,0,1-.23,1.38,4.89,4.89,0,0,1-.64,1.22,4.69,4.69,0,0,1-1,1,5.05,5.05,0,0,1-1.24.65l-2.46.84-.52-1.6,2.58-.86a2.65,2.65,0,0,0,1.34-1,2.68,2.68,0,0,0,.5-1.58v-6.52Z"/><path d="M273.56,253.22a1.27,1.27,0,0,0,.9-.38,1.23,1.23,0,0,0,.38-.9V248.1h1.64v3.84a3.28,3.28,0,0,1-.25,1.25,3.33,3.33,0,0,1-.69,1,3.48,3.48,0,0,1-1,.7,3.21,3.21,0,0,1-1.27.26H269.6a.29.29,0,0,1-.28-.28v-1.38a.28.28,0,0,1,.08-.21.25.25,0,0,1,.2-.09Zm-3.68,6.26h1.9v-1.9h-1.9Zm1.48,2.64h1.9v-1.9h-1.9Zm1.46-2.64h1.9v-1.9h-1.9Z"/><path d="M285.8,258.68a4,4,0,0,1-1.62-.33,4.21,4.21,0,0,1-1.32-.89,4.16,4.16,0,0,1-1.22-2.94V249h1.64v5.26a2.22,2.22,0,0,0,.2,1,2.67,2.67,0,0,0,.53.79,2.29,2.29,0,0,0,.79.53,2.38,2.38,0,0,0,1,.19h3.52a2,2,0,0,0,.8-.16,2.12,2.12,0,0,0,.66-.44,2.31,2.31,0,0,0,.44-.66,2.15,2.15,0,0,0,.16-.8v-6H293V255a3.68,3.68,0,0,1-.29,1.45,3.85,3.85,0,0,1-.8,1.18,3.79,3.79,0,0,1-1.18.8,3.68,3.68,0,0,1-1.45.29Zm.56-11.92h1.9v1.9h-1.9Z"/><path d="M297.22,255.18h-1.64V241.82h1.64Z"/><path d="M302.44,255.18a2.76,2.76,0,0,1-2.15-1,2.88,2.88,0,0,1-.54-1.06,2.59,2.59,0,0,1-.05-1.24L300,250a2.73,2.73,0,0,1,1-1.64,2.66,2.66,0,0,1,1.77-.64h1.14a3,3,0,0,1,1.16.23,2.9,2.9,0,0,1,.94.64,3.28,3.28,0,0,1,.63,1,2.94,2.94,0,0,1,.23,1.14v2.5h1.52a.25.25,0,0,1,.28.28v1.4a.25.25,0,0,1-.28.28h-1.54v.1a.88.88,0,0,1,0,.16,4.23,4.23,0,0,1-.89,2.44,4.59,4.59,0,0,1-2.17,1.54l-2.46.84-.52-1.62,2.56-.86a2.76,2.76,0,0,0,1.34-.94,2.53,2.53,0,0,0,.5-1.56V255a1.36,1.36,0,0,1-.43.14,2.77,2.77,0,0,1-.49,0Zm-.18-2h3v-2.5a1.06,1.06,0,0,0-.32-.78,1.1,1.1,0,0,0-.78-.32H302.7a1,1,0,0,0-.69.24,1,1,0,0,0-.37.64l-.32,1.62a.86.86,0,0,0,.2.77A.91.91,0,0,0,302.26,253.22Z"/><path d="M315.78,254.9a.29.29,0,0,1-.08.19.27.27,0,0,1-.2.09h-1.34a2.16,2.16,0,0,1-.66-.1,3.32,3.32,0,0,1-.64-.27,1.93,1.93,0,0,1-.52-.41,1.46,1.46,0,0,1-.32-.5,2.84,2.84,0,0,1-2.3,1.28H308.4a.24.24,0,0,1-.28-.28v-1.4a.24.24,0,0,1,.28-.28h1.42a1.42,1.42,0,0,0,.91-.32,1.4,1.4,0,0,0,.49-.82l.68-3.32,1.62.28-.56,2.78a1.09,1.09,0,0,0,.27,1,1.17,1.17,0,0,0,.95.43h1.32a.25.25,0,0,1,.28.28Zm-4.54-8.32h1.9v-1.9h-1.9Z"/><path d="M323.94,254.46l-3.06.42c-.79.11-1.57.19-2.33.24s-1.53.08-2.29.08h-.78a.22.22,0,0,1-.19-.09.4.4,0,0,1-.09-.21v-1.38a.28.28,0,0,1,.08-.21.3.3,0,0,1,.24-.09h2.24a1.6,1.6,0,0,1-.22-.56l-.44-2.34a2.54,2.54,0,0,1,0-1.23,2.85,2.85,0,0,1,1.49-1.79,2.58,2.58,0,0,1,1.2-.28h3.26v1.86h-3.36a1,1,0,0,0-.81.38,1,1,0,0,0-.21.86l.6,3.06,4.36-.46Z"/><path d="M1027.59,309.33a8.62,8.62,0,1,0,0,13.12V324h4.06V307.79h-4.06ZM1022.53,321a5.07,5.07,0,1,1,5.06-5.07A5.07,5.07,0,0,1,1022.53,321Z"/><path d="M1077.25,309.33a8.62,8.62,0,1,0,0,13.12V324h4V307.79h-4ZM1072.18,321a5.07,5.07,0,1,1,5.07-5.07A5.07,5.07,0,0,1,1072.18,321Z"/><path d="M1002.76,307.28a8.56,8.56,0,0,0-5.57,2.05V301.7h-4.05V324h4.05v-1.55a8.61,8.61,0,1,0,5.57-15.17Zm-.5,13.68a5.07,5.07,0,1,1,5.07-5.07A5.07,5.07,0,0,1,1002.26,321Z"/><path d="M1054.45,307.28a6.55,6.55,0,0,0-5.57,3.09,6.58,6.58,0,0,0-10.14-1.25v-1.33h-4V324h4v-9.63a3.55,3.55,0,0,1,7.09,0V324h4.06v-9.63a3.55,3.55,0,0,1,7.09,0V324H1061V313.87A6.59,6.59,0,0,0,1054.45,307.28Z"/><rect x="1090.43" y="307.79" width="4.05" height="16.21"/><path d="M1106.13,307.28a5.58,5.58,0,0,0-4.56,2.37v-1.86h-4V324h4V313.87a3,3,0,0,1,3-3h2v-3.55Z"/><circle cx="1092.45" cy="303.22" r="2.53"/><circle cx="1085.86" cy="321.47" r="2.53"/><g class="cls-5"><image width="1440" height="810" transform="translate(662.6 -0.29) scale(0.8)" xlink:href="../../../../../../Desktop/Bama/untitled%20folder/2021-ioniq-aeev-0035-vlp_16-9.jpeg"/></g></g></svg>