<svg xmlns="http://www.w3.org/2000/svg" viewBox="0 0 648 648"><defs><style>.cls-1{fill:#fdc554;}.cls-2{fill:#ee6162;}.cls-3{fill:#1d4bbd;}.cls-4{fill:#81c4bb;}.cls-5{fill:#675296;}</style></defs><g id="Graphic"><path class="cls-1" d="M324,52.26V324H595.74C595.74,173.92,474.08,52.26,324,52.26Z"/><path class="cls-2" d="M79.06,206.2,324,324V52.26C216.13,52.26,122.94,115.12,79.06,206.2Z"/><path class="cls-3" d="M324,324,79.06,206.2A270.66,270.66,0,0,0,52.26,324c0,129,90,237.07,210.56,264.82Z"/><path class="cls-4" d="M482.28,544.9,324,324,262.82,588.82h0A272.35,272.35,0,0,0,482.28,544.9Z"/><path class="cls-5" d="M324,324,482.28,544.9A271.39,271.39,0,0,0,595.74,324Z"/></g></svg>