<svg xmlns="http://www.w3.org/2000/svg" viewBox="0 0 1152 648"><defs><style>.cls-1{fill:#79e45e;}</style></defs><g id="Layer_6" data-name="Layer 6"><circle class="cls-1" cx="576" cy="324" r="278.64"/><path d="M273.63,278.61,263.1,316.3h-8.91l-7.07-26.84-7.4,26.84-8.86.06-10.15-37.75h8.1l6.64,29.27,7.67-29.27h8.42l7.24,29.11,6.7-29.11Z"/><path d="M309.81,278.61V316.3h-7.56v-16H286.1v16h-7.56V278.61h7.56v15.5h16.15v-15.5Z"/><path d="M347.23,278.61l-12.74,24.57V316.3h-7.56V303.18l-12.8-24.57h8.53l8.1,17.23,8.05-17.23Z"/><path d="M414.84,278.61,404.31,316.3H395.4l-7.08-26.84-7.39,26.84-8.86.06-10.15-37.75H370l6.64,29.27,7.67-29.27h8.42L400,307.72l6.69-29.11Z"/><path d="M427.31,284.71v9.45H440v6H427.31v10h14.31v6.15H419.75V278.56h21.87v6.15Z"/><path d="M484.44,309.12h-15L467,316.3H459l13.55-37.74h8.81l13.55,37.74h-8Zm-2.05-6.05-5.45-15.77-5.46,15.77Z"/><path d="M519.43,316.3l-8.31-14.69h-3.57V316.3H500V278.61h14.14a16.44,16.44,0,0,1,7.45,1.54,10.68,10.68,0,0,1,4.62,4.16,11.71,11.71,0,0,1-.62,12.58,11.1,11.1,0,0,1-6.42,4.13l9,15.28Zm-11.88-20.36h6.32a6.32,6.32,0,0,0,4.59-1.48,5.52,5.52,0,0,0,1.51-4.13,5.25,5.25,0,0,0-1.51-4,6.44,6.44,0,0,0-4.59-1.43h-6.32Z"/><path d="M542.17,284.71v9.45h12.69v6H542.17v10h14.31v6.15H534.61V278.56h21.87v6.15Z"/><path d="M583.75,310.31h12.42v6h-20V278.61h7.56Z"/><path d="M608.75,314.2a18.57,18.57,0,0,1-7-6.89,20.35,20.35,0,0,1,0-19.87,18.64,18.64,0,0,1,7-6.89,20.35,20.35,0,0,1,19.47,0,18.49,18.49,0,0,1,7,6.89,20.49,20.49,0,0,1,0,19.87,18.35,18.35,0,0,1-7,6.89,20.29,20.29,0,0,1-19.44,0Zm15.71-5.81a10.47,10.47,0,0,0,4-4.4,15.78,15.78,0,0,0,0-13.26,10.32,10.32,0,0,0-4-4.34,11.62,11.62,0,0,0-6-1.51,11.78,11.78,0,0,0-6,1.51,10.26,10.26,0,0,0-4.08,4.34,15.78,15.78,0,0,0,0,13.26,10.41,10.41,0,0,0,4.08,4.4,11.6,11.6,0,0,0,6,1.54A11.44,11.44,0,0,0,624.46,308.39Z"/><path d="M651.14,314.2a18.57,18.57,0,0,1-7-6.89,20.35,20.35,0,0,1,0-19.87,18.64,18.64,0,0,1,7-6.89,20.35,20.35,0,0,1,19.47,0,18.49,18.49,0,0,1,7,6.89,20.49,20.49,0,0,1,0,19.87,18.35,18.35,0,0,1-7,6.89,20.29,20.29,0,0,1-19.44,0Zm15.71-5.81a10.47,10.47,0,0,0,4-4.4,15.78,15.78,0,0,0,0-13.26,10.32,10.32,0,0,0-4-4.34,11.64,11.64,0,0,0-6-1.51,11.78,11.78,0,0,0-6,1.51,10.26,10.26,0,0,0-4.08,4.34,15.78,15.78,0,0,0,0,13.26,10.41,10.41,0,0,0,4.08,4.4,11.6,11.6,0,0,0,6,1.54A11.46,11.46,0,0,0,666.85,308.39Z"/><path d="M707,316.3l-13.72-16.79V316.3h-7.56V278.61h7.56v16.9L707,278.61h9.12L700.6,297.29l16,19Z"/><path d="M729.11,278.61V316.3h-7.56V278.61Z"/><path d="M768.8,316.3h-7.56l-17.11-25.86V316.3h-7.56V278.56h7.56l17.11,25.92V278.56h7.56Z"/><path d="M802.5,290a8.87,8.87,0,0,0-3.56-3.62,10.87,10.87,0,0,0-5.3-1.24,11.66,11.66,0,0,0-5.94,1.51,10.51,10.51,0,0,0-4.05,4.32,15.31,15.31,0,0,0,0,13.07,10.56,10.56,0,0,0,4.13,4.32,12.2,12.2,0,0,0,6.16,1.51,10.65,10.65,0,0,0,7.07-2.29,11,11,0,0,0,3.62-6.4h-13v-5.78h20.41v6.59a17.58,17.58,0,0,1-3.24,7.29,18.35,18.35,0,0,1-6.4,5.37,18.8,18.8,0,0,1-8.77,2,19.87,19.87,0,0,1-9.86-2.46,17.92,17.92,0,0,1-6.91-6.83,21,21,0,0,1,0-19.9,17.86,17.86,0,0,1,6.91-6.86,21,21,0,0,1,20.87.65,15.79,15.79,0,0,1,6.48,8.72Z"/><path d="M853.85,278.61v6.1H838.14v9.67h12v6h-12V316.3h-7.56V278.61Z"/><path d="M867,314.2a18.57,18.57,0,0,1-7-6.89,20.35,20.35,0,0,1,0-19.87,18.64,18.64,0,0,1,7-6.89,20.35,20.35,0,0,1,19.47,0,18.44,18.44,0,0,1,7,6.89,20.56,20.56,0,0,1,0,19.87,18.31,18.31,0,0,1-7,6.89,20.29,20.29,0,0,1-19.44,0Zm15.72-5.81a10.47,10.47,0,0,0,4-4.4,15.78,15.78,0,0,0,0-13.26,10.32,10.32,0,0,0-4-4.34,11.68,11.68,0,0,0-6-1.51,11.83,11.83,0,0,0-6,1.51,10.3,10.3,0,0,0-4.07,4.34,15.78,15.78,0,0,0,0,13.26,10.46,10.46,0,0,0,4.07,4.4,11.65,11.65,0,0,0,6,1.54A11.5,11.5,0,0,0,882.69,308.39Z"/><path d="M921,316.3l-8.32-14.69h-3.56V316.3h-7.56V278.61h14.15a16.47,16.47,0,0,1,7.45,1.54,10.71,10.71,0,0,1,4.61,4.16,11.71,11.71,0,0,1-.62,12.58,11.1,11.1,0,0,1-6.42,4.13l9,15.28Zm-11.88-20.36h6.32a6.32,6.32,0,0,0,4.59-1.48,5.56,5.56,0,0,0,1.51-4.13,5.28,5.28,0,0,0-1.51-4,6.44,6.44,0,0,0-4.59-1.43h-6.32Z"/><path d="M275.12,373.92h-15l-2.48,7.18h-7.94l13.56-37.74H272l13.55,37.74h-8Zm-2.06-6.05-5.45-15.77-5.45,15.77Z"/><path d="M322.91,381.1h-7.57l-17.11-25.86V381.1h-7.56V343.36h7.56l17.11,25.92V343.36h7.57Z"/><path d="M350.77,343.41V381.1h-7.56V343.41Z"/><path d="M390.46,381.1H382.9l-17.12-25.86V381.1h-7.56V343.36h7.56l17.12,25.92V343.36h7.56Z"/><path d="M431.77,343.41,417.94,381.1h-9.18l-13.82-37.69H403l10.37,30,10.31-30Z"/><path d="M443.86,349.51V359h12.69v6H443.86v10h14.31v6.15H436.3V343.36h21.87v6.15Z"/><path d="M470.94,380.13a11.6,11.6,0,0,1-5-3.89,10.15,10.15,0,0,1-1.89-6h8.1a5.24,5.24,0,0,0,1.65,3.67,5.81,5.81,0,0,0,4.07,1.35A6.25,6.25,0,0,0,482,374a4.11,4.11,0,0,0,1.51-3.32,3.85,3.85,0,0,0-1-2.75,7.17,7.17,0,0,0-2.57-1.7,39.45,39.45,0,0,0-4.24-1.38,45.48,45.48,0,0,1-6-2.13,10.6,10.6,0,0,1-3.95-3.19,9.06,9.06,0,0,1-1.64-5.7,10.16,10.16,0,0,1,1.67-5.83,10.69,10.69,0,0,1,4.7-3.81,17.1,17.1,0,0,1,6.91-1.32,15,15,0,0,1,9.48,2.84,10.49,10.49,0,0,1,4,7.91h-8.32A4.34,4.34,0,0,0,481,350.4a6.26,6.26,0,0,0-4.08-1.27,5.25,5.25,0,0,0-3.54,1.14,4.09,4.09,0,0,0-1.32,3.29,3.38,3.38,0,0,0,1,2.51,7.51,7.51,0,0,0,2.48,1.62,43.34,43.34,0,0,0,4.19,1.43,43.89,43.89,0,0,1,6,2.16,10.79,10.79,0,0,1,4,3.24,9,9,0,0,1,1.67,5.67,10.7,10.7,0,0,1-1.56,5.62,11.07,11.07,0,0,1-4.59,4.13,15.63,15.63,0,0,1-7.19,1.54A17.94,17.94,0,0,1,470.94,380.13Z"/><path d="M523.57,343.41v6.1H513.52V381.1H506V349.51h-10v-6.1Z"/><path d="M536.63,343.41V381.1h-7.56V343.41Z"/><path d="M576.32,381.1h-7.56l-17.11-25.86V381.1h-7.56V343.36h7.56l17.11,25.92V343.36h7.56Z"/><path d="M610,354.75a8.87,8.87,0,0,0-3.56-3.62,10.87,10.87,0,0,0-5.3-1.24,11.66,11.66,0,0,0-5.94,1.51,10.57,10.57,0,0,0-4.05,4.32,15.31,15.31,0,0,0,0,13.07,10.56,10.56,0,0,0,4.13,4.32,12.18,12.18,0,0,0,6.16,1.51,10.65,10.65,0,0,0,7.07-2.29,11,11,0,0,0,3.62-6.4h-13v-5.78h20.41v6.59a17.58,17.58,0,0,1-3.24,7.29,18.26,18.26,0,0,1-6.4,5.37,18.8,18.8,0,0,1-8.77,2,19.87,19.87,0,0,1-9.86-2.46,17.92,17.92,0,0,1-6.91-6.83,21,21,0,0,1,0-19.9,17.86,17.86,0,0,1,6.91-6.86,21,21,0,0,1,20.87.65,15.79,15.79,0,0,1,6.48,8.72Z"/><path d="M664.15,360.74a10.42,10.42,0,0,1-4.48,4.27,16.29,16.29,0,0,1-7.69,1.62h-6.32V381.1H638.1V343.41H652a16.89,16.89,0,0,1,7.45,1.51,10.53,10.53,0,0,1,4.61,4.16,12.19,12.19,0,0,1,.11,11.66Zm-7.85-1.64a5.32,5.32,0,0,0,1.51-4q0-5.51-6.16-5.5h-6v11h6A6.59,6.59,0,0,0,656.3,359.1Z"/><path d="M694,373.92H679l-2.48,7.18h-7.94l13.55-37.74H691l13.56,37.74h-8Zm-2-6.05-5.45-15.77-5.46,15.77Z"/><path d="M729,381.1l-8.31-14.69h-3.57V381.1h-7.56V343.41h14.15a16.44,16.44,0,0,1,7.45,1.54,10.74,10.74,0,0,1,4.62,4.16,11.71,11.71,0,0,1-.62,12.58,11.1,11.1,0,0,1-6.43,4.13l9,15.28Zm-11.88-20.36h6.32a6.32,6.32,0,0,0,4.59-1.48,5.52,5.52,0,0,0,1.51-4.13,5.25,5.25,0,0,0-1.51-4,6.44,6.44,0,0,0-4.59-1.44h-6.32Z"/><path d="M769.86,343.41v6.1H759.81V381.1h-7.56V349.51h-10v-6.1Z"/><path d="M807.6,381.1H800l-17.12-25.86V381.1h-7.56V343.36h7.56L800,369.28V343.36h7.56Z"/><path d="M822.61,349.51V359H835.3v6H822.61v10h14.31v6.15H815.05V343.36h21.87v6.15Z"/><path d="M863.22,381.1l-8.31-14.69h-3.57V381.1h-7.56V343.41h14.15a16.44,16.44,0,0,1,7.45,1.54,10.8,10.8,0,0,1,4.62,4.16,11.39,11.39,0,0,1,1.54,5.86A10.89,10.89,0,0,1,863,365.82l9,15.28Zm-11.88-20.36h6.32a6.32,6.32,0,0,0,4.59-1.48,5.52,5.52,0,0,0,1.51-4.13,5.25,5.25,0,0,0-1.51-4,6.44,6.44,0,0,0-4.59-1.44h-6.32Z"/><path d="M898,345.17a10.63,10.63,0,0,1,3.43,8.39c0,3.53-1.14,6.22-3.4,8.08a13.85,13.85,0,0,1-9,2.78l-.22,4.15h-6.64l-.27-9.18h2.43a16.9,16.9,0,0,0,7.24-1.24,4.58,4.58,0,0,0,2.53-4.53,5.13,5.13,0,0,0-1.37-3.78,5,5,0,0,0-3.76-1.41,5.29,5.29,0,0,0-3.86,1.35,5,5,0,0,0-1.37,3.73h-7.13a11.39,11.39,0,0,1,1.4-5.89,10,10,0,0,1,4.3-4.05,14.4,14.4,0,0,1,6.66-1.46A13.09,13.09,0,0,1,898,345.17Zm-15.93,35a4.44,4.44,0,0,1,0-6.32,4.71,4.71,0,0,1,3.38-1.27,4.54,4.54,0,0,1,3.29,1.27,4.52,4.52,0,0,1,0,6.32,4.5,4.5,0,0,1-3.29,1.27A4.67,4.67,0,0,1,882,380.21Z"/></g></svg>