<svg xmlns="http://www.w3.org/2000/svg" viewBox="0 0 1080 672"><defs><style>.cls-1{fill:#7de065;}.cls-2{fill:#59bc47;}.cls-3{fill:#fff;}.cls-4,.cls-5,.cls-6{fill:none;stroke:#aeff94;stroke-miterlimit:10;}.cls-4{stroke-dasharray:6 4;}.cls-6{stroke-width:0.79px;}.cls-7{fill:#aeff94;}</style></defs><g id="Layer_3" data-name="Layer 3"><rect class="cls-1" width="1080" height="672"/></g><g id="Layer_1" data-name="Layer 1"><rect class="cls-2" x="200" y="96" width="688" height="472"/><rect class="cls-3" x="648" y="328" width="80" height="80"/><rect class="cls-3" x="360" y="216" width="80" height="192"/><rect class="cls-3" x="552" y="216" width="80" height="192"/><circle class="cls-3" cx="496" cy="368" r="40"/><circle class="cls-3" cx="688" cy="464" r="40"/><line class="cls-4" y1="216" x2="1080" y2="216"/><line class="cls-5" y1="568" x2="1080" y2="568"/><line class="cls-4" x1="360" x2="360" y2="672"/><line class="cls-4" x1="728" x2="728" y2="672"/><line class="cls-6" x1="888" x2="888" y2="672"/><line class="cls-6" x1="200" x2="200" y2="672"/><line class="cls-4" y1="408" x2="1080" y2="408"/><circle class="cls-7" cx="688" cy="176" r="40"/><circle class="cls-7" cx="688" cy="96" r="40"/><path class="cls-3" d="M648,96a40,40,0,0,1,80,0"/><circle class="cls-7" cx="400" cy="528" r="40"/><circle class="cls-7" cx="400" cy="448" r="40"/><circle class="cls-7" cx="240" cy="256" r="40"/><circle class="cls-7" cx="320" cy="256" r="40"/><circle class="cls-7" cx="768" cy="368" r="40"/><circle class="cls-7" cx="848" cy="368" r="40"/><line class="cls-5" y1="96" x2="1080" y2="96"/></g></svg>