<svg xmlns="http://www.w3.org/2000/svg" viewBox="0 0 1080 672"><g id="Layer_1" data-name="Layer 1"><rect x="357" y="311.63" width="60" height="60"/><rect x="141" y="227.63" width="60" height="144"/><rect x="285" y="227.63" width="60" height="144"/><circle cx="243" cy="341.62" r="30"/><circle cx="387" cy="413.63" r="30"/><path d="M192,421.91a12.76,12.76,0,1,0,0,19.43v2.28h6v-24h-6Zm-7.5,17.22a7.51,7.51,0,1,1,7.5-7.5A7.5,7.5,0,0,1,184.5,439.13Z"/><path d="M265.5,421.91a12.76,12.76,0,1,0,0,19.43v2.28h6v-24h-6ZM258,439.13a7.51,7.51,0,1,1,7.5-7.5A7.5,7.5,0,0,1,258,439.13Z"/><path d="M155.25,418.88a12.72,12.72,0,0,0-8.25,3V410.63h-6v33h6v-2.28a12.75,12.75,0,1,0,8.25-22.46Zm-.75,20.25a7.51,7.51,0,1,1,7.5-7.5A7.5,7.5,0,0,1,154.5,439.13Z"/><path d="M231.75,418.88a9.72,9.72,0,0,0-8.25,4.57,9.73,9.73,0,0,0-15-1.85v-2h-6v24h6V429.38a5.25,5.25,0,1,1,10.5,0v14.24h6V429.38a5.25,5.25,0,1,1,10.5,0v14.24h6v-15A9.74,9.74,0,0,0,231.75,418.88Z"/><rect x="285" y="419.63" width="6" height="24"/><path d="M308.25,418.88a8.25,8.25,0,0,0-6.75,3.51v-2.76h-6v24h6v-15a4.51,4.51,0,0,1,4.5-4.51h3v-5.24Z"/><circle cx="288" cy="412.88" r="3.75"/><circle cx="278.25" cy="439.88" r="3.75"/><rect x="537" y="227.63" width="6" height="216"/><path d="M905.36,238.62a267.32,267.32,0,0,0-149.2,0C700.94,256.37,663,293.24,663,335.84c0,59.94,75.11,108.54,167.77,108.54s167.75-48.6,167.75-108.54c0-42.6-37.95-79.46-93.16-97.22M830.77,397.71c-13.83,0-25.12-27.19-25.78-61.35,8.31.75,16.94,1.15,25.78,1.15s17.45-.4,25.76-1.15c-.66,34.16-11.95,61.35-25.76,61.35m-24-88.09c3.77-24,13.1-41,24-41s20.25,17,24,41c-7.68.69-15.73,1.08-24,1.08s-16.35-.39-24-1.08m62.75-1.81c-5.61-37.63-20.82-64.61-38.71-64.61s-33.12,27-38.73,64.61c-34.08-5.32-57.9-17.43-57.9-31.53,0-19,43.27-34.41,96.63-34.41s96.62,15.4,96.62,34.41c0,14.1-23.82,26.21-57.9,31.53m-182,24.06c0-18.37,7.07-35.59,19.41-50.41a24.88,24.88,0,0,0-.22,3.11c0,23.11,34.72,42.76,83.12,50,0,1.75-.06,3.5-.06,5.26,0,43,11.92,79.38,28.4,91.93-73.22-4.48-130.65-47.47-130.65-99.87M843.4,431.74c16.47-12.55,28.39-48.95,28.39-91.93,0-1.77,0-3.51-.06-5.26,48.4-7.22,83.12-26.87,83.12-50a23.11,23.11,0,0,0-.22-3.11C967,296.28,974,313.5,974,331.87c0,52.4-57.43,95.39-130.64,99.87"/></g></svg>