<svg xmlns="http://www.w3.org/2000/svg" viewBox="0 0 1080 672"><defs><style>.cls-1{fill:#7de065;}.cls-2{fill:#fff;}.cls-3,.cls-4,.cls-5{fill:none;stroke:#aeff94;stroke-miterlimit:10;}.cls-3{stroke-dasharray:6 4;}.cls-4{stroke-width:0.79px;}</style></defs><g id="Layer_3" data-name="Layer 3"><rect class="cls-1" width="1080" height="672"/></g><g id="Layer_1" data-name="Layer 1"><path class="cls-2" d="M420,297.15a51,51,0,1,0,0,77.7V384h24V288H420ZM390,366a30,30,0,1,1,30-30A30,30,0,0,1,390,366Z"/><path class="cls-2" d="M714,297.15a51,51,0,1,0,0,77.7V384h24V288H714ZM684,366a30,30,0,1,1,30-30A30,30,0,0,1,684,366Z"/><path class="cls-2" d="M273,285a50.81,50.81,0,0,0-33,12.15V252H216V384h24v-9.15A51,51,0,1,0,273,285Zm-3,81a30,30,0,1,1,30-30A30,30,0,0,1,270,366Z"/><path class="cls-2" d="M579,285a38.93,38.93,0,0,0-33,18.28,38.91,38.91,0,0,0-60-7.38V288H462v96h24V327a21,21,0,0,1,42,0v57h24V327a21,21,0,0,1,42,0v57h24V324A39,39,0,0,0,579,285Z"/><rect class="cls-2" x="792" y="288" width="24" height="96"/><path class="cls-2" d="M885,285a33,33,0,0,0-27,14.06V288H834v96h24V324a18,18,0,0,1,18-18h12V285Z"/><circle class="cls-2" cx="804" cy="261" r="15"/><circle class="cls-2" cx="765" cy="369" r="15"/><circle class="cls-3" cx="876" cy="323.98" r="17.98"/><circle class="cls-3" cx="387" cy="335.96" r="50.96"/><circle class="cls-3" cx="390" cy="335.96" r="29.97"/><circle class="cls-3" cx="681" cy="335.96" r="50.96"/><circle class="cls-3" cx="684" cy="335.96" r="29.97"/><circle class="cls-3" cx="273" cy="336.04" r="50.96"/><circle class="cls-3" cx="270" cy="336.04" r="29.97"/><circle class="cls-3" cx="513.09" cy="324" r="38.97"/><circle class="cls-3" cx="507.09" cy="327" r="20.98"/><circle class="cls-3" cx="579.03" cy="324" r="38.97"/><circle class="cls-3" cx="573.04" cy="327" r="20.98"/><line class="cls-4" x1="216" x2="216" y2="672"/><line class="cls-3" x1="240.03" x2="240.03" y2="672"/><line class="cls-3" x1="419.97" x2="419.97" y2="672"/><line class="cls-3" x1="444" x2="444" y2="672"/><line class="cls-3" x1="462" x2="462" y2="672"/><line class="cls-3" x1="486.01" x2="486.01" y2="672"/><line class="cls-3" x1="528.08" x2="528.08" y2="672"/><line class="cls-3" x1="552.06" x2="552.06" y2="672"/><line class="cls-3" x1="618" x2="618" y2="672"/><line class="cls-3" x1="738" x2="738" y2="672"/><line class="cls-3" x1="816" x2="816" y2="672"/><line class="cls-3" x1="834" x2="834" y2="672"/><line class="cls-3" x1="858.02" x2="858.02" y2="672"/><line class="cls-3" x1="792" x2="792" y2="672"/><line class="cls-3" x1="714" x2="714" y2="672"/><line class="cls-3" x1="594.02" x2="594.02" y2="672"/><line class="cls-5" y1="252" x2="1080" y2="252"/><line class="cls-3" y1="288" x2="1080" y2="288"/><line class="cls-5" y1="384" x2="1080" y2="384"/><line class="cls-4" x1="888" x2="888" y2="672"/></g></svg>