<svg xmlns="http://www.w3.org/2000/svg" viewBox="0 0 1080 672"><defs><style>.cls-1{fill:#7de065;}.cls-2{fill:#fff;}.cls-3,.cls-4,.cls-5{fill:none;stroke:#aeff94;stroke-miterlimit:10;}.cls-4{stroke-width:0.79px;}.cls-5{stroke-dasharray:6 4;}.cls-6{fill:#aeff94;}</style></defs><g id="Layer_3" data-name="Layer 3"><rect class="cls-1" width="1080" height="672"/></g><g id="Layer_1" data-name="Layer 1"><rect class="cls-2" x="648" y="328" width="80" height="80"/><rect class="cls-2" x="360" y="216" width="80" height="192"/><rect class="cls-2" x="552" y="216" width="80" height="192"/><circle class="cls-2" cx="496" cy="368" r="40"/><circle class="cls-2" cx="688" cy="464" r="40"/><line class="cls-3" y1="216" x2="1080" y2="216"/><line class="cls-4" x1="360" x2="360" y2="672"/><line class="cls-5" x1="648" x2="648" y2="672"/><line class="cls-5" x1="632" x2="632" y2="672"/><line class="cls-5" x1="552" x2="552" y2="672"/><line class="cls-5" x1="536" x2="536" y2="672"/><line class="cls-5" x1="456" x2="456" y2="672"/><line class="cls-5" x1="440" x2="440" y2="672"/><line class="cls-4" x1="728" x2="728" y2="672"/><line class="cls-5" y1="408" x2="1080" y2="408"/><line class="cls-5" y1="328" x2="1080" y2="328"/><line class="cls-5" y1="424" x2="1080" y2="424"/><line class="cls-3" y1="504" x2="1080" y2="504"/><circle class="cls-6" cx="768" cy="464" r="40"/><circle class="cls-6" cx="768" cy="368" r="40"/><circle class="cls-6" cx="688" cy="176" r="40"/><circle class="cls-6" cx="592" cy="176" r="40"/><circle class="cls-6" cx="496" cy="176" r="40"/><circle class="cls-6" cx="400" cy="176" r="40"/></g></svg>