<svg xmlns="http://www.w3.org/2000/svg" viewBox="0 0 1080 672"><defs><style>.cls-1{fill:#7de065;}.cls-2{fill:#fff;}.cls-3{fill:#b2e47f;}.cls-4{fill:#e3f5cf;}.cls-5{fill:#f9fcf5;}.cls-6{fill:#c9eca7;}.cls-7{fill:none;stroke:#59bc47;stroke-miterlimit:10;}.cls-8{font-size:30px;font-family:Roboto-Regular, Roboto;}</style></defs><g id="Layer_3" data-name="Layer 3"><rect class="cls-1" width="1080" height="672"/></g><g id="Layer_1" data-name="Layer 1"><rect class="cls-1" x="824" y="440" width="48" height="48"/><rect class="cls-2" x="816" y="440" width="64" height="48"/><rect class="cls-2" x="824" y="432" width="48" height="64"/><rect class="cls-3" x="824" y="424" width="8" height="8"/><rect class="cls-4" x="832" y="424" width="8" height="8"/><rect class="cls-5" x="840" y="424" width="8" height="8"/><rect class="cls-5" x="848" y="424" width="8" height="8"/><rect class="cls-4" x="856" y="424" width="8" height="8"/><rect class="cls-3" x="864" y="424" width="8" height="8"/><rect class="cls-3" x="824" y="496" width="8" height="8"/><rect class="cls-4" x="832" y="496" width="8" height="8"/><rect class="cls-5" x="840" y="496" width="8" height="8"/><rect class="cls-5" x="848" y="496" width="8" height="8"/><rect class="cls-4" x="856" y="496" width="8" height="8"/><rect class="cls-3" x="864" y="496" width="8" height="8"/><rect class="cls-3" x="808" y="440" width="8" height="8" transform="translate(1256 -368) rotate(90)"/><rect class="cls-4" x="808" y="448" width="8" height="8" transform="translate(1264 -360) rotate(90)"/><rect class="cls-5" x="808" y="456" width="8" height="8" transform="translate(1272 -352) rotate(90)"/><rect class="cls-5" x="808" y="464" width="8" height="8" transform="translate(1280 -344) rotate(90)"/><rect class="cls-4" x="808" y="472" width="8" height="8" transform="translate(1288 -336) rotate(90)"/><rect class="cls-3" x="808" y="480" width="8" height="8" transform="translate(1296 -328) rotate(90)"/><rect class="cls-3" x="880" y="440" width="8" height="8" transform="translate(1328 -440) rotate(90)"/><rect class="cls-6" x="872" y="432" width="8" height="8" transform="translate(1312 -440) rotate(90)"/><rect class="cls-6" x="816" y="432" width="8" height="8" transform="translate(1256 -384) rotate(90)"/><rect class="cls-6" x="816" y="488" width="8" height="8" transform="translate(1312 -328) rotate(90)"/><rect class="cls-6" x="872" y="488" width="8" height="8" transform="translate(1368 -384) rotate(90)"/><rect class="cls-4" x="880" y="448" width="8" height="8" transform="translate(1336 -432) rotate(90)"/><rect class="cls-5" x="880" y="456" width="8" height="8" transform="translate(1344 -424) rotate(90)"/><rect class="cls-5" x="880" y="464" width="8" height="8" transform="translate(1352 -416) rotate(90)"/><rect class="cls-4" x="880" y="472" width="8" height="8" transform="translate(1360 -408) rotate(90)"/><rect class="cls-3" x="880" y="480" width="8" height="8" transform="translate(1368 -400) rotate(90)"/><rect class="cls-2" x="520" y="216" width="80" height="192"/><rect class="cls-2" x="712" y="216" width="80" height="192"/><rect class="cls-2" x="808" y="328" width="80" height="80"/><rect class="cls-1" x="632" y="344" width="48" height="48"/><rect class="cls-2" x="624" y="344" width="64" height="48"/><rect class="cls-2" x="632" y="336" width="48" height="64"/><rect class="cls-3" x="632" y="328" width="8" height="8"/><rect class="cls-4" x="640" y="328" width="8" height="8"/><rect class="cls-5" x="648" y="328" width="8" height="8"/><rect class="cls-5" x="656" y="328" width="8" height="8"/><rect class="cls-4" x="664" y="328" width="8" height="8"/><rect class="cls-3" x="672" y="328" width="8" height="8"/><rect class="cls-3" x="632" y="400" width="8" height="8"/><rect class="cls-4" x="640" y="400" width="8" height="8"/><rect class="cls-5" x="648" y="400" width="8" height="8"/><rect class="cls-5" x="656" y="400" width="8" height="8"/><rect class="cls-4" x="664" y="400" width="8" height="8"/><rect class="cls-3" x="672" y="400" width="8" height="8"/><rect class="cls-3" x="616" y="344" width="8" height="8" transform="translate(968 -272) rotate(90)"/><rect class="cls-4" x="616" y="352" width="8" height="8" transform="translate(976 -264) rotate(90)"/><rect class="cls-5" x="616" y="360" width="8" height="8" transform="translate(984 -256) rotate(90)"/><rect class="cls-5" x="616" y="368" width="8" height="8" transform="translate(992 -248) rotate(90)"/><rect class="cls-4" x="616" y="376" width="8" height="8" transform="translate(1000 -240) rotate(90)"/><rect class="cls-3" x="616" y="384" width="8" height="8" transform="translate(1008 -232) rotate(90)"/><rect class="cls-3" x="688" y="344" width="8" height="8" transform="translate(1040 -344) rotate(90)"/><rect class="cls-6" x="680" y="336" width="8" height="8" transform="translate(1024 -344) rotate(90)"/><rect class="cls-6" x="624" y="336" width="8" height="8" transform="translate(968 -288) rotate(90)"/><rect class="cls-6" x="624" y="392" width="8" height="8" transform="translate(1024 -232) rotate(90)"/><rect class="cls-6" x="680" y="392" width="8" height="8" transform="translate(1080 -288) rotate(90)"/><rect class="cls-4" x="688" y="352" width="8" height="8" transform="translate(1048 -336) rotate(90)"/><rect class="cls-5" x="688" y="360" width="8" height="8" transform="translate(1056 -328) rotate(90)"/><rect class="cls-5" x="688" y="368" width="8" height="8" transform="translate(1064 -320) rotate(90)"/><rect class="cls-4" x="688" y="376" width="8" height="8" transform="translate(1072 -312) rotate(90)"/><rect class="cls-3" x="688" y="384" width="8" height="8" transform="translate(1080 -304) rotate(90)"/><circle class="cls-7" cx="628" cy="396" r="12"/><line class="cls-7" x1="289.43" y1="476.97" x2="630.97" y2="407.63"/><line class="cls-7" x1="326.2" y1="208.08" x2="634.52" y2="385.93"/><path class="cls-3" d="M395.72,384A143.81,143.81,0,0,1,308,471.72V384Z"/><path class="cls-3" d="M212,200.28V288H124.29A143.77,143.77,0,0,1,212,200.28Z"/><rect class="cls-6" x="211.99" y="288" width="96" height="96" transform="translate(595.99 76.01) rotate(90)"/><path class="cls-2" d="M404,336a141.57,141.57,0,0,1-8.28,48H308V288H212V200.28A141.57,141.57,0,0,1,260,192,144,144,0,0,1,404,336Z"/><text class="cls-8" transform="translate(235.82 344.77)">1px</text><text class="cls-8" transform="translate(235.82 247.01)">1px</text><text class="cls-8" transform="translate(235.82 446.1)">1px</text><text class="cls-8" transform="translate(329.24 344.77)">1px</text><text class="cls-8" transform="translate(136.36 344.77)">1px</text><line class="cls-7" x1="212" y1="200.28" x2="212" y2="472"/><line class="cls-7" x1="395.85" y1="384" x2="124.12" y2="384"/><line class="cls-7" x1="395.85" y1="288" x2="124.12" y2="288"/><line class="cls-7" x1="308" y1="471.72" x2="308" y2="200.19"/><path class="cls-7" d="M404,336a141.57,141.57,0,0,1-8.28,48A143.81,143.81,0,0,1,308,471.72,141.57,141.57,0,0,1,260,480,144,144,0,0,1,116,336a141.33,141.33,0,0,1,8.29-48A143.77,143.77,0,0,1,212,200.28,141.57,141.57,0,0,1,260,192,144,144,0,0,1,404,336Z"/></g></svg>